G04 ================== begin FILE IDENTIFICATION RECORD ==================*
G04 Layout Name:  F:/XYF/WMH610M15R110/PCB/20250624/WMH610M15R110.brd*
G04 Film Name:    SILKSCREENBOT*
G04 File Format:  Gerber RS274X*
G04 File Origin:  Cadence Allegro 16.6-2015-S108*
G04 Origin Date:  Fri Jun 27 10:11:25 2025*
G04 *
G04 Layer:  PACKAGE GEOMETRY/WB-SILK-R01-BOTTOM*
G04 Layer:  PACKAGE GEOMETRY/WB-SILK-R01-BOT*
G04 Layer:  BOARD GEOMETRY/SILKSCREEN_BOTTOM*
G04 Layer:  REF DES/SILKSCREEN_BOTTOM*
G04 Layer:  BOARD GEOMETRY/OUTLINE*
G04 *
G04 Offset:    (0.000 0.000)*
G04 Mirror:    No*
G04 Mode:      Positive*
G04 Rotation:  0*
G04 FullContactRelief:  No*
G04 UndefLineWidth:     5.000*
G04 ================== end FILE IDENTIFICATION RECORD ====================*
%FSLAX55Y55*MOIN*%
%IR0*IPPOS*OFA0.00000B0.00000*MIA0B0*SFA1.00000B1.00000*%
%ADD10C,.005*%
%ADD11C,.006*%
%ADD12C,.008*%
%ADD13C,.01*%
%ADD14C,.012*%
%ADD15C,.015*%
G75*
%LPD*%
G75*
G54D10*
G01X-789800Y-430794D02*
Y-426294D01*
G01X-788050Y-415644D02*
X-792550Y-415644D01*
G01X-806850Y-194894D02*
Y-194394D01*
G01X-808350Y-194894D02*
Y-194394D01*
G01X-806164Y-157812D02*
X-804578Y-156226D01*
G01X-805141Y-155065D02*
X-803543Y-156663D01*
G01X-807244Y-157237D02*
X-805647Y-158835D01*
G01X-788350Y-140894D02*
Y-140394D01*
G01X-786850Y-140894D02*
Y-140394D01*
G01X-791350Y-140894D02*
Y-140394D01*
G01X-789850Y-140894D02*
Y-140394D01*
G01X-751050Y-574744D02*
Y-579744D01*
G01X-754550D02*
Y-574744D01*
G01X-747500Y-588144D02*
X-749500D01*
Y-591744D01*
X-747500D01*
Y-588244D01*
G01X-758811Y-576006D02*
Y-578265D01*
G01X-755788Y-575957D02*
Y-578217D01*
G01X-758454Y-577176D02*
X-756210D01*
G01X-742750Y-449694D02*
X-742250D01*
G01X-742750Y-448194D02*
X-742250D01*
G01X-742750Y-447194D02*
X-742250D01*
G01X-742750Y-445694D02*
X-742250D01*
G01X-742750Y-444694D02*
X-742250D01*
G01X-742750Y-443194D02*
X-742250D01*
G01X-724950Y-416094D02*
X-725450D01*
G01X-724950Y-414594D02*
X-725450D01*
G01X-731200Y-418244D02*
X-728000D01*
G01X-735538Y-432855D02*
X-733279D01*
G01X-735587Y-429832D02*
X-733328D01*
G01X-734368Y-432498D02*
Y-430255D01*
G01X-763262Y-455933D02*
X-765521D01*
G01X-763213Y-458956D02*
X-765472D01*
G01X-764432Y-456291D02*
Y-458534D01*
G01X-754238Y-458955D02*
X-751979D01*
G01X-754287Y-455932D02*
X-752028D01*
G01X-753068Y-458598D02*
Y-456355D01*
G01X-728550Y-409744D02*
X-730450D01*
G01X-728100Y-408744D02*
Y-410644D01*
G01X-730900Y-408844D02*
Y-410744D01*
G01X-732400Y-426094D02*
Y-424194D01*
G01X-731400Y-426544D02*
X-733300D01*
G01X-731500Y-423744D02*
X-733400D01*
G01X-761450Y-446944D02*
X-759550D01*
G01X-761900Y-447944D02*
Y-446044D01*
G01X-759100Y-447844D02*
Y-445944D01*
G01X-764950Y-446944D02*
X-763050D01*
G01X-765400Y-447944D02*
Y-446044D01*
G01X-762600Y-447844D02*
Y-445944D01*
G01X-768450Y-446944D02*
X-766550D01*
G01X-768900Y-447944D02*
Y-446044D01*
G01X-766100Y-447844D02*
Y-445944D01*
G01X-779600Y-435994D02*
Y-437894D01*
G01X-780600Y-435544D02*
X-778700D01*
G01X-780500Y-438344D02*
X-778600D01*
G01X-782350Y-441944D02*
X-780450D01*
G01X-782800Y-442944D02*
Y-441044D01*
G01X-780000Y-442844D02*
Y-440944D01*
G01X-777050Y-441944D02*
X-778950D01*
G01X-776600Y-440944D02*
Y-442844D01*
G01X-779400Y-441044D02*
Y-442944D01*
G01X-745550Y-438944D02*
X-747450D01*
G01X-745100Y-437944D02*
Y-439844D01*
G01X-747900Y-438044D02*
Y-439944D01*
G01X-750950Y-438944D02*
X-749050D01*
G01X-751400Y-439944D02*
Y-438044D01*
G01X-748600Y-439844D02*
Y-437944D01*
G01X-742050Y-438944D02*
X-743950D01*
G01X-741600Y-437944D02*
Y-439844D01*
G01X-744400Y-438044D02*
Y-439944D01*
G01X-731450Y-436444D02*
X-729550D01*
G01X-731900Y-437444D02*
Y-435544D01*
G01X-729100Y-437344D02*
Y-435444D01*
G01X-722250Y-361694D02*
X-722750D01*
G01X-722250Y-360194D02*
X-722750D01*
G01X-719750Y-392694D02*
Y-392194D01*
G01X-734116Y-379306D02*
X-734616D01*
G01X-734116Y-377806D02*
X-734616D01*
G01X-724750Y-354194D02*
X-724250D01*
G01X-724750Y-355694D02*
X-724250D01*
G01X-735750Y-352694D02*
X-736250D01*
G01X-735750Y-351194D02*
X-736250D01*
G01X-720321Y-384800D02*
X-718062D01*
G01X-720370Y-381777D02*
X-718110D01*
G01X-721138Y-388955D02*
X-718879D01*
G01X-721187Y-385932D02*
X-718928D01*
G01X-719968Y-388598D02*
Y-386355D01*
G01X-758556Y-347751D02*
X-760154Y-346154D01*
G01X-760659Y-349924D02*
X-762257Y-348326D01*
G01X-759636Y-347177D02*
X-761222Y-348763D01*
G01X-721500Y-364894D02*
Y-362994D01*
G01X-720500Y-365344D02*
X-722400D01*
G01X-720600Y-362544D02*
X-722500D01*
G01X-723000Y-358894D02*
Y-356994D01*
G01X-722000Y-359344D02*
X-723900D01*
G01X-722100Y-356544D02*
X-724000D01*
G01X-736550Y-347444D02*
X-738450D01*
G01X-736100Y-346444D02*
Y-348344D01*
G01X-738900Y-346544D02*
Y-348444D01*
G01X-731000Y-348894D02*
Y-346994D01*
G01X-730000Y-349344D02*
X-731900D01*
G01X-730100Y-346544D02*
X-732000D01*
G01X-721300Y-366794D02*
Y-368694D01*
G01X-722300Y-366344D02*
X-720400D01*
G01X-722200Y-369144D02*
X-720300D01*
G01X-722500Y-371494D02*
Y-373394D01*
G01X-723500Y-371044D02*
X-721600D01*
G01X-723400Y-373844D02*
X-721500D01*
G01X-722500Y-374994D02*
Y-376894D01*
G01X-723500Y-374544D02*
X-721600D01*
G01X-723400Y-377344D02*
X-721500D01*
G01X-742450Y-374944D02*
X-740550D01*
G01X-742900Y-375944D02*
Y-374044D01*
G01X-740100Y-375844D02*
Y-373944D01*
G01X-744000Y-366494D02*
Y-368394D01*
G01X-745000Y-366044D02*
X-743100D01*
G01X-744900Y-368844D02*
X-743000D01*
G01X-734500Y-374494D02*
Y-376394D01*
G01X-735500Y-374044D02*
X-733600D01*
G01X-735400Y-376844D02*
X-733500D01*
G01X-728150Y-298094D02*
X-727650D01*
G01X-728150Y-296594D02*
X-727650D01*
G01X-724150Y-292894D02*
Y-292394D01*
G01X-725650Y-292894D02*
Y-292394D01*
G01X-756750Y-309194D02*
Y-308694D01*
G01X-755250Y-309194D02*
Y-308694D01*
G01X-742000Y-151344D02*
Y-154544D01*
G01Y-156344D02*
Y-159544D01*
G01X-745062Y-13333D02*
X-747321D01*
G01X-745013Y-16356D02*
X-747272D01*
G01X-746232Y-13691D02*
Y-15934D01*
G01X-751250Y9456D02*
X-749350D01*
G01X-751700Y8456D02*
Y10356D01*
G01X-748900Y8556D02*
Y10456D01*
G01X-685250Y-605694D02*
X-684750D01*
G01X-685250Y-607194D02*
X-684750D01*
G01X-679250D02*
X-679750D01*
G01X-679250Y-605694D02*
X-679750D01*
G01X-671250Y-595694D02*
X-670750D01*
G01X-671250Y-597194D02*
X-670750D01*
G01X-675000Y-583944D02*
Y-596944D01*
G01D02*
X-675500D01*
G01X-691500D02*
X-692000D01*
G01D02*
Y-592444D01*
G01X-691500Y-596944D02*
X-675500D01*
G01X-681750Y-573694D02*
Y-573194D01*
G01X-680250Y-573694D02*
Y-573194D01*
G01X-671250Y-590194D02*
X-670750D01*
G01X-671250Y-591694D02*
X-670750D01*
G01X-671250Y-593194D02*
X-670750D01*
G01X-671250Y-594694D02*
X-670750D01*
G01X-698493Y-589244D02*
Y-591108D01*
X-698640Y-591498D01*
X-698933Y-591758D01*
X-699300Y-591844D01*
X-699667Y-591758D01*
X-699960Y-591498D01*
X-700107Y-591108D01*
Y-589244D01*
G01X-702200Y-591844D02*
Y-589244D01*
X-701760Y-589764D01*
G01Y-591844D02*
X-702640D01*
G01X-704477Y-591541D02*
X-704733Y-591758D01*
X-705027Y-591844D01*
X-705320Y-591758D01*
X-705577Y-591498D01*
X-705760Y-591108D01*
X-705833Y-590718D01*
Y-590241D01*
X-705760Y-589851D01*
X-705577Y-589504D01*
X-705357Y-589331D01*
X-705100Y-589244D01*
X-704807Y-589331D01*
X-704587Y-589504D01*
X-704440Y-589764D01*
X-704367Y-590111D01*
X-704440Y-590414D01*
X-704623Y-590718D01*
X-704843Y-590891D01*
X-705100Y-590934D01*
X-705393Y-590848D01*
X-705613Y-590631D01*
X-705833Y-590241D01*
G01X-675500Y-583944D02*
X-675000D01*
G01X-692000Y-592444D02*
X-689500D01*
G01D02*
Y-588944D01*
G01D02*
X-692000D01*
G01D02*
Y-583944D01*
G01D02*
X-691500D01*
G01D02*
X-675500D01*
G01X-659100Y-484744D02*
X-657000D01*
Y-481144D01*
X-659100D01*
Y-484744D01*
G01X-675800Y-478844D02*
Y-480944D01*
X-672200D01*
Y-478844D01*
X-675800D01*
G01X-659238Y-510455D02*
X-656979D01*
G01X-659287Y-507432D02*
X-657028D01*
G01X-658068Y-510098D02*
Y-507855D01*
G01X-663550Y-496444D02*
X-665450D01*
G01X-663100Y-495444D02*
Y-497344D01*
G01X-665900Y-495544D02*
Y-497444D01*
G01X-665450Y-503444D02*
X-663550D01*
G01X-665900Y-504444D02*
Y-502544D01*
G01X-663100Y-504344D02*
Y-502444D01*
G01X-661000Y-470994D02*
Y-472894D01*
G01X-662000Y-470544D02*
X-660100D01*
G01X-661900Y-473344D02*
X-660000D01*
G01X-685000Y-475794D02*
Y-477694D01*
G01X-686000Y-475344D02*
X-684100D01*
G01X-685900Y-478144D02*
X-684000D01*
G01X-685000Y-481294D02*
Y-479394D01*
G01X-684000Y-481744D02*
X-685900D01*
G01X-684100Y-478944D02*
X-686000D01*
G01X-689750Y-406444D02*
Y-401444D01*
G01X-686250D02*
Y-406444D01*
G01X-711250Y-423694D02*
X-710750D01*
G01X-711250Y-425194D02*
X-710750D01*
G01X-715750Y-423694D02*
X-715250D01*
G01X-715750Y-425194D02*
X-715250D01*
G01X-702750Y-406194D02*
X-702250D01*
G01X-702750Y-404694D02*
X-702250D01*
G01X-705750Y-416194D02*
Y-416694D01*
G01X-707250Y-416194D02*
Y-416694D01*
G01X-682738Y-424955D02*
X-680479D01*
G01X-682787Y-421932D02*
X-680528D01*
G01X-681568Y-424598D02*
Y-422355D01*
G01X-674500Y-403394D02*
Y-401494D01*
G01X-673500Y-403844D02*
X-675400D01*
G01X-673600Y-401044D02*
X-675500D01*
G01X-707500Y-426994D02*
Y-428894D01*
G01X-708500Y-426544D02*
X-706600D01*
G01X-708400Y-429344D02*
X-706500D01*
G01X-707000Y-441394D02*
Y-439494D01*
G01X-706000Y-441844D02*
X-707900D01*
G01X-706100Y-439044D02*
X-708000D01*
G01X-707000Y-437394D02*
Y-435494D01*
G01X-706000Y-437844D02*
X-707900D01*
G01X-706100Y-435044D02*
X-708000D01*
G01X-707000Y-431994D02*
Y-433894D01*
G01X-708000Y-431544D02*
X-706100D01*
G01X-707900Y-434344D02*
X-706000D01*
G01X-699950Y-431444D02*
X-698050D01*
G01X-700400Y-432444D02*
Y-430544D01*
G01X-697600Y-432344D02*
Y-430444D01*
G01X-694050Y-449944D02*
X-695950D01*
G01X-693600Y-448944D02*
Y-450844D01*
G01X-696400Y-449044D02*
Y-450944D01*
G01X-698050Y-449944D02*
X-699950D01*
G01X-697600Y-448944D02*
Y-450844D01*
G01X-700400Y-449044D02*
Y-450944D01*
G01X-702050Y-449944D02*
X-703950D01*
G01X-701600Y-448944D02*
Y-450844D01*
G01X-704400Y-449044D02*
Y-450944D01*
G01X-713250Y-392694D02*
Y-392194D01*
G01X-714750Y-392694D02*
Y-392194D01*
G01X-718250Y-392694D02*
Y-392194D01*
G01X-697250Y-371694D02*
Y-371194D01*
G01X-698750Y-371694D02*
Y-371194D01*
G01X-690250D02*
Y-370694D01*
G01X-691750Y-371194D02*
Y-370694D01*
G01X-704750Y-385694D02*
X-705250D01*
G01X-704750Y-387194D02*
X-705250D01*
G01X-711900Y-339744D02*
Y-342244D01*
X-709900D01*
G01X-699100D02*
X-696600D01*
Y-339744D01*
G01X-705262Y-376433D02*
X-707521D01*
G01X-705213Y-379456D02*
X-707472D01*
G01X-706432Y-376791D02*
Y-379034D01*
G01X-686738Y-390455D02*
X-684479D01*
G01X-686787Y-387432D02*
X-684528D01*
G01X-685568Y-390098D02*
Y-387855D01*
G01X-706036Y-342610D02*
X-708295D01*
G01X-705987Y-345633D02*
X-708246D01*
G01X-707206Y-342968D02*
Y-345211D01*
G01X-701512Y-345632D02*
X-699253D01*
G01X-701561Y-342609D02*
X-699302D01*
G01X-700342Y-345275D02*
Y-343032D01*
G01X-719151Y-384442D02*
Y-382199D01*
G01X-706350Y-349444D02*
X-704450D01*
G01X-706800Y-350444D02*
Y-348544D01*
G01X-704000Y-350344D02*
Y-348444D01*
G01X-702850Y-349444D02*
X-700950D01*
G01X-703300Y-350444D02*
Y-348544D01*
G01X-700500Y-350344D02*
Y-348444D01*
G01X-708950Y-356444D02*
X-707050D01*
G01X-709400Y-357444D02*
Y-355544D01*
G01X-706600Y-357344D02*
Y-355444D01*
G01X-674500Y-398094D02*
Y-399994D01*
G01X-675500Y-397644D02*
X-673600D01*
G01X-675400Y-400444D02*
X-673500D01*
G01X-678000Y-288544D02*
Y-297444D01*
X-677900Y-297544D01*
X-674200D01*
X-674100Y-297444D01*
Y-288744D01*
X-674300Y-288544D01*
X-678000D01*
G01X-677000Y-308944D02*
X-675000D01*
Y-304944D01*
X-677000D01*
Y-308944D01*
G01X-668500Y-275444D02*
Y-273444D01*
X-674500D01*
Y-275444D01*
X-668500D01*
G01X-698680Y-327944D02*
X-700220Y-325344D01*
G01X-698680D02*
X-700220Y-327944D01*
G01X-702790D02*
Y-325344D01*
X-701433Y-327208D01*
X-703267D01*
G01X-700100Y-329944D02*
X-696600D01*
Y-332444D01*
G01X-709400Y-329944D02*
X-711900D01*
Y-331944D01*
G01X-671068Y-281598D02*
Y-279355D01*
G01X-672287Y-278932D02*
X-670028D01*
G01X-672238Y-281955D02*
X-669979D01*
G01X-687932Y-293791D02*
Y-296034D01*
G01X-686713Y-296456D02*
X-688972D01*
G01X-686762Y-293433D02*
X-689021D01*
G01X-688068Y-292598D02*
Y-290355D01*
G01X-689287Y-289932D02*
X-687028D01*
G01X-689238Y-292955D02*
X-686979D01*
G01X-686762Y-306933D02*
X-689021D01*
G01X-686713Y-309956D02*
X-688972D01*
G01X-687932Y-307291D02*
Y-309534D01*
G01X-678346Y-282512D02*
X-680590D01*
G01X-681012Y-283731D02*
Y-281472D01*
G01X-677989Y-283683D02*
Y-281423D01*
G01X-676950Y-282444D02*
X-675050D01*
G01X-677400Y-283444D02*
Y-281544D01*
G01X-674600Y-283344D02*
Y-281444D01*
G01X-705450Y-299444D02*
X-703550D01*
G01X-705900Y-300444D02*
Y-298544D01*
G01X-703100Y-300344D02*
Y-298444D01*
G01X-708950Y-305944D02*
X-707050D01*
G01X-709400Y-306944D02*
Y-305044D01*
G01X-706600Y-306844D02*
Y-304944D01*
G01X-705450Y-305944D02*
X-703550D01*
G01X-705900Y-306944D02*
Y-305044D01*
G01X-703100Y-306844D02*
Y-304944D01*
G01X-689050Y-303444D02*
X-690950D01*
G01X-688600Y-302444D02*
Y-304344D01*
G01X-691400Y-302544D02*
Y-304444D01*
G01X-685550Y-303444D02*
X-687450D01*
G01X-685100Y-302444D02*
Y-304344D01*
G01X-687900Y-302544D02*
Y-304444D01*
G01X-688000Y-297494D02*
Y-299394D01*
G01X-689000Y-297044D02*
X-687100D01*
G01X-688900Y-299844D02*
X-687000D01*
G01X-671000Y-282994D02*
Y-284894D01*
G01X-672000Y-282544D02*
X-670100D01*
G01X-671900Y-285344D02*
X-670000D01*
G01X-663200Y-204644D02*
Y-201444D01*
G01Y-198844D02*
Y-195644D01*
G01X-680750Y-176044D02*
X-678850D01*
G01X-681200Y-177044D02*
Y-175144D01*
G01X-678400Y-176944D02*
Y-175044D01*
G01X-681250Y-164044D02*
X-679350D01*
G01X-681700Y-165044D02*
Y-163144D01*
G01X-678900Y-164944D02*
Y-163044D01*
G01X-639100Y-602744D02*
X-641700D01*
G01X-639100Y-600144D02*
X-641700D01*
G01X-642767Y-510144D02*
Y-507544D01*
X-643647D01*
X-643940Y-507674D01*
X-644160Y-507977D01*
X-644233Y-508324D01*
X-644160Y-508671D01*
X-643977Y-508931D01*
X-643647Y-509061D01*
X-642767D01*
G01X-645593Y-507544D02*
Y-509408D01*
X-645740Y-509798D01*
X-646033Y-510058D01*
X-646400Y-510144D01*
X-646767Y-510058D01*
X-647060Y-509798D01*
X-647207Y-509408D01*
Y-507544D01*
G01X-648493Y-509624D02*
X-648713Y-509928D01*
X-649007Y-510101D01*
X-649337Y-510144D01*
X-649630Y-510101D01*
X-649923Y-509884D01*
X-650107Y-509624D01*
X-650143Y-509364D01*
X-650070Y-509061D01*
X-649813Y-508844D01*
X-649557Y-508758D01*
X-649227D01*
G01X-649557D02*
X-649777Y-508627D01*
X-649960Y-508411D01*
X-650033Y-508151D01*
X-649960Y-507891D01*
X-649777Y-507674D01*
X-649447Y-507544D01*
X-649117Y-507588D01*
X-648787Y-507761D01*
G01X-652200Y-510144D02*
Y-507544D01*
X-651760Y-508064D01*
G01Y-510144D02*
X-652640D01*
G01X-644950Y-495944D02*
X-643050D01*
G01X-645400Y-496944D02*
Y-495044D01*
G01X-642600Y-496844D02*
Y-494944D01*
G01X-535750Y-604194D02*
Y-604694D01*
G01X-537250Y-604194D02*
Y-604694D01*
G01X-545643Y-618144D02*
Y-615544D01*
X-546377D01*
X-546670Y-615674D01*
X-546890Y-615848D01*
X-547073Y-616108D01*
X-547220Y-616411D01*
X-547257Y-616844D01*
X-547220Y-617278D01*
X-547073Y-617581D01*
X-546890Y-617841D01*
X-546670Y-618014D01*
X-546377Y-618144D01*
X-545643D01*
G01X-549350D02*
Y-616974D01*
X-548617Y-615544D01*
G01X-550083D02*
X-549350Y-616974D01*
G01X-552250Y-618144D02*
Y-615544D01*
X-551810Y-616064D01*
G01Y-618144D02*
X-552690D01*
G01X-555150D02*
Y-615544D01*
X-554710Y-616064D01*
G01Y-618144D02*
X-555590D01*
G01X-546900Y-600044D02*
X-550100D01*
G01X-546800Y-608544D02*
X-550100D01*
G01X-569300Y-623094D02*
Y-624794D01*
G01X-572100Y-623094D02*
Y-624794D01*
G01X-559100Y-616894D02*
Y-618594D01*
G01X-561900Y-616894D02*
Y-618594D01*
G01X-467100Y-596444D02*
Y-596944D01*
X-464100D01*
Y-596444D01*
G01X-485300Y-595494D02*
Y-596244D01*
X-488300D01*
Y-595494D01*
G01X-519489Y-611183D02*
Y-608923D01*
G01X-522512Y-611231D02*
Y-608972D01*
G01X-519846Y-610012D02*
X-522090D01*
G01X-493950Y-590494D02*
X-494450D01*
G01X-493950Y-588994D02*
X-494450D01*
G01Y-591494D02*
X-493950D01*
G01X-494450Y-592994D02*
X-493950D01*
G01X-494550Y-593994D02*
X-494050D01*
G01X-494550Y-595494D02*
X-494050D01*
G01Y-587994D02*
X-494550D01*
G01X-494050Y-586494D02*
X-494550D01*
G01X-467100Y-587194D02*
Y-586444D01*
X-464100D01*
Y-587194D01*
G01X-485300Y-586244D02*
Y-585744D01*
X-488300D01*
Y-586244D01*
G01X-458550Y-201444D02*
X-460450D01*
G01X-460900Y-200544D02*
Y-202444D01*
G01X-411800Y-187344D02*
X-176100D01*
G02X-152700Y-211044I0J-23402D01*
G01Y-381344D01*
G02X-153600Y-386944I-17872J0D01*
G02X-177500Y-404344I-24065J7940D01*
G01X-409600D01*
G02X-413800Y-403744I0J15000D01*
G02X-419900Y-399944I3727J12779D01*
G03X-430800Y-389044I-126333J-115433D01*
G02X-435800Y-378744I10449J11436D01*
G01Y-210144D01*
G02X-433800Y-201644I19062J0D01*
G02X-427800Y-193444I26955J-13428D01*
G02X-424100Y-190844I9295J-9295D01*
G03X-423200Y-190344I-3252J6914D01*
G02X-411800Y-187344I10269J-15863D01*
G01X-458100Y-200444D02*
Y-202344D01*
G01X-455050Y-201444D02*
X-456950D01*
G01X-454600Y-200444D02*
Y-202344D01*
G01X-457400Y-200544D02*
Y-202444D01*
G01X-451550Y-201444D02*
X-453450D01*
G01X-451100Y-200444D02*
Y-202344D01*
G01X-453900Y-200544D02*
Y-202444D01*
G01X-448050Y-201444D02*
X-449950D01*
G01X-447600Y-200444D02*
Y-202344D01*
G01X-450400Y-200544D02*
Y-202444D01*
G01X-441050Y-201444D02*
X-442950D01*
G01X-440600Y-200444D02*
Y-202344D01*
G01X-443400Y-200544D02*
Y-202444D01*
G01X-444550Y-201444D02*
X-446450D01*
G01X-444100Y-200444D02*
Y-202344D01*
G01X-446900Y-200544D02*
Y-202444D01*
G01X-424000Y-76694D02*
X-429000D01*
G01X-418738Y-76455D02*
X-416479D01*
G01X-433600Y-98994D02*
Y-97094D01*
G01X-432600Y-99444D02*
X-434500D01*
G01X-432700Y-96644D02*
X-434600D01*
G01X-437550Y-99744D02*
X-439450D01*
G01X-437100Y-98744D02*
Y-100644D01*
G01X-439900Y-98844D02*
Y-100744D01*
G01X-429000Y-73194D02*
X-424000D01*
G01X-417568Y-76098D02*
Y-73855D01*
G01X-418787Y-73432D02*
X-416528D01*
G01X-351900Y-257044D02*
X-236380D01*
G02X-233000Y-258444I0J-4780D01*
G01X-232939Y-258506D01*
G02X-231100Y-262944I-4439J-4439D01*
G01Y-329040D01*
G02X-232800Y-333144I-5804J0D01*
G02X-236180Y-334544I-3380J3380D01*
G01X-352320D01*
G02X-355700Y-333144I0J4780D01*
G02X-357400Y-329040I4104J4104D01*
G01Y-262507D01*
G02X-355800Y-258644I5463J0D01*
G02X-351937Y-257044I3863J-3863D01*
G01X-351900D01*
G01X-330250Y-272194D02*
X-330750D01*
G01X-330250Y-273194D02*
X-330750D01*
G01X-330250Y-274694D02*
X-330750D01*
G01X-331400Y-301944D02*
X-334600D01*
G01X-331846Y-313012D02*
X-334090D01*
G01X-334512Y-314231D02*
Y-311972D01*
G01X-331489Y-314183D02*
Y-311923D01*
G01X-335050Y-273444D02*
X-336950D01*
G01X-334600Y-272444D02*
Y-274344D01*
G01X-337400Y-272544D02*
Y-274444D01*
G01X-330250Y-270694D02*
X-330750D01*
G01X-330350Y105656D02*
X-328650D01*
G01X-330350Y108456D02*
X-328650D01*
G01X-333650D02*
X-335350D01*
G01X-333650Y105656D02*
X-335350D01*
G01X-338100Y106706D02*
Y108406D01*
G01X-340900Y106706D02*
Y108406D01*
G01X-339262Y96867D02*
X-341521D01*
G01X-339213Y93844D02*
X-341472D01*
G01X-340432Y96509D02*
Y94266D01*
G01X-307300Y-314944D02*
X-310500D01*
G01X-319400D02*
X-322600D01*
G01X-327600Y-276444D02*
X-324400D01*
G01X-287000Y-281544D02*
Y-278344D01*
G01X-307400Y-301944D02*
X-310600D01*
G01X-277400Y-302044D02*
X-280600D01*
G01X-295400Y-315044D02*
X-298600D01*
G01X-301400Y-302044D02*
X-304600D01*
G01X-319300D02*
X-322500D01*
G01X-271400Y-315044D02*
X-274600D01*
G01X-322600Y-276444D02*
X-319400D01*
G01X-317054Y-276176D02*
X-314810D01*
G01X-314388Y-274957D02*
Y-277217D01*
G01X-317411Y-275006D02*
Y-277265D01*
G01X-274568Y-274598D02*
Y-272355D01*
G01X-275787Y-271932D02*
X-273528D01*
G01X-275738Y-274955D02*
X-273479D01*
G01X-283846Y-300012D02*
X-286090D01*
G01X-286512Y-301231D02*
Y-298972D01*
G01X-283489Y-301183D02*
Y-298923D01*
G01X-295746Y-300212D02*
X-297990D01*
G01X-298412Y-301431D02*
Y-299172D01*
G01X-295389Y-301383D02*
Y-299123D01*
G01X-300846Y-289012D02*
X-303090D01*
G01X-303512Y-290231D02*
Y-287972D01*
G01X-300489Y-290183D02*
Y-287923D01*
G01X-274468Y-280998D02*
Y-278755D01*
G01X-275687Y-278332D02*
X-273428D01*
G01X-275638Y-281355D02*
X-273379D01*
G01X-286068Y-292598D02*
Y-290355D01*
G01X-287287Y-289932D02*
X-285028D01*
G01X-287238Y-292955D02*
X-284979D01*
G01X-274568Y-286598D02*
Y-284355D01*
G01X-275787Y-283932D02*
X-273528D01*
G01X-275738Y-286955D02*
X-273479D01*
G01X-289846Y-300012D02*
X-292090D01*
G01X-292512Y-301231D02*
Y-298972D01*
G01X-289489Y-301183D02*
Y-298923D01*
G01X-313946Y-300312D02*
X-316190D01*
G01X-316612Y-301531D02*
Y-299272D01*
G01X-313589Y-301483D02*
Y-299223D01*
G01X-271846Y-300012D02*
X-274090D01*
G01X-274512Y-301231D02*
Y-298972D01*
G01X-271489Y-301183D02*
Y-298923D01*
G01X-289746Y-313312D02*
X-291990D01*
G01X-292412Y-314531D02*
Y-312272D01*
G01X-289389Y-314483D02*
Y-312223D01*
G01X-309154Y-275376D02*
X-306910D01*
G01X-306488Y-274157D02*
Y-276417D01*
G01X-309511Y-274206D02*
Y-276465D01*
G01X-326750Y-265694D02*
Y-265194D01*
G01X-325250Y-265694D02*
Y-265194D01*
G01X-309068Y-269098D02*
Y-266855D01*
G01X-310287Y-266432D02*
X-308028D01*
G01X-310238Y-269455D02*
X-307979D01*
G01X-324138Y115345D02*
X-321879D01*
G01X-324187Y118368D02*
X-321928D01*
G01X-322968Y115702D02*
Y117945D01*
G01X-324862Y96667D02*
X-327121D01*
G01X-324813Y93644D02*
X-327072D01*
G01X-326032Y96309D02*
Y94066D01*
G01X-323700Y119656D02*
Y122856D01*
G01X-253100Y-305944D02*
X-249900D01*
G01X-250500Y-312644D02*
Y-315844D01*
G01X-255346Y-294012D02*
X-257590D01*
G01X-258012Y-295231D02*
Y-292972D01*
G01X-254989Y-295183D02*
Y-292923D01*
G01X-258654Y-306376D02*
X-256410D01*
G01X-255988Y-305157D02*
Y-307417D01*
G01X-259011Y-305206D02*
Y-307465D01*
G01X-263154Y-306376D02*
X-260910D01*
G01X-260488Y-305157D02*
Y-307417D01*
G01X-263511Y-305206D02*
Y-307465D01*
G01X-155989Y32317D02*
Y34577D01*
G01X-159012Y32269D02*
Y34528D01*
G01X-156346Y33488D02*
X-158590D01*
G01X-109654Y32124D02*
X-107410D01*
G01X-106988Y33343D02*
Y31083D01*
G01X-110011Y33294D02*
Y31035D01*
G01X-124568Y17902D02*
Y20145D01*
G01X-125787Y20568D02*
X-123528D01*
G01X-125738Y17545D02*
X-123479D01*
G01X-95346Y31988D02*
X-97590D01*
G01X-98012Y30769D02*
Y33028D01*
G01X-94989Y30817D02*
Y33077D01*
G01X-101346Y32488D02*
X-103590D01*
G01X-104012Y31269D02*
Y33528D01*
G01X-100989Y31317D02*
Y33577D01*
G01X-97654Y23624D02*
X-95410D01*
G01X-94988Y24843D02*
Y22583D01*
G01X-98011Y24794D02*
Y22535D01*
G01X-119346Y31988D02*
X-121590D01*
G01X-122012Y30769D02*
Y33028D01*
G01X-118989Y30817D02*
Y33077D01*
G01X-32011Y51794D02*
Y49535D01*
G01X-28988Y51843D02*
Y49583D01*
G01X-31654Y50624D02*
X-29410D01*
G01X-4713Y51044D02*
X-6972D01*
G01X-5932Y53709D02*
Y51466D01*
G01X-4762Y54067D02*
X-7021D01*
G01X-962766Y-1182364D02*
X-460120D01*
G01X-962159Y-1208997D02*
X-458710D01*
G01X-962159Y-1231735D02*
Y-1208997D01*
G01D02*
Y-870247D01*
G01X-962110Y-1231784D02*
X-962159Y-1231735D01*
G01Y-1232647D02*
X-507710D01*
G01X-962159Y-1145934D02*
X-458510D01*
G01X-961356Y-1101714D02*
X-458710D01*
G01X-962159Y-982314D02*
X-458210D01*
G01X-962159Y-957247D02*
X-458410D01*
G01X-962159Y-870247D02*
X-459200D01*
Y-1232647D01*
X-507710D01*
Y-871161D01*
G01X-959305Y-824702D02*
Y-719702D01*
X-701305D01*
Y-824702D01*
X-959305D01*
G01Y-807202D02*
X-786305D01*
G01X-920851Y-756416D02*
Y-753766D01*
X-928205D01*
Y-760556D01*
X-920851D01*
Y-757907D01*
X-925212D01*
Y-756416D01*
X-920851D01*
G01X-929540Y-749493D02*
X-934017Y-760556D01*
X-936992Y-753667D01*
X-937448Y-752573D01*
X-936992Y-751779D01*
X-935505Y-749493D01*
X-934031Y-754064D01*
X-932566Y-749493D01*
X-929540D01*
G01X-939758D02*
X-936992Y-756449D01*
X-936509Y-757638D01*
X-936992Y-758436D01*
X-938301Y-760556D01*
X-943012Y-749493D01*
X-939758D01*
G01X-920851Y-753766D02*
X-928205D01*
Y-760556D01*
X-920851D01*
Y-757907D01*
X-925212D01*
Y-756416D01*
X-920851D01*
Y-753766D01*
G01X-934017Y-760556D02*
X-936992Y-753667D01*
X-937448Y-752573D01*
X-936992Y-751779D01*
X-935505Y-749493D01*
X-934031Y-754064D01*
X-932566Y-749493D01*
X-929540D01*
X-934017Y-760556D01*
G01X-936992Y-756449D02*
X-936509Y-757638D01*
X-936992Y-758436D01*
X-938301Y-760556D01*
X-943012Y-749493D01*
X-939758D01*
X-936992Y-756449D01*
G01X-928205Y-752110D02*
Y-749493D01*
X-920851D01*
Y-752110D01*
X-928205D01*
G01D02*
Y-749493D01*
X-920851D01*
Y-752110D01*
X-928205D01*
G01X-918674Y-760556D02*
Y-753766D01*
X-915713D01*
Y-760556D01*
X-918674D01*
G01Y-752110D02*
Y-749493D01*
X-915713D01*
Y-752110D01*
X-918674D01*
G01Y-760556D02*
Y-753766D01*
X-915713D01*
Y-760556D01*
X-918674D01*
G01Y-752110D02*
Y-749493D01*
X-915713D01*
Y-752110D01*
X-918674D01*
G01X-959305Y-789702D02*
X-701305D01*
G01X-891159Y-1231135D02*
X-891010Y-1231284D01*
G01X-891159Y-870247D02*
Y-1231135D01*
G01X-874305Y-719702D02*
Y-824702D01*
G01Y-807202D02*
X-701305D01*
G01X-905700Y-752375D02*
G02X-907260Y-754959I-2956J22D01*
G02X-905537Y-757608I-1189J-2658D01*
G02X-908689Y-760523I-2993J75D01*
G01X-913565D01*
Y-758005D01*
X-909565D01*
G03X-908754Y-757177I-1J812D01*
G03X-909565Y-756349I-834J-5D01*
G01X-913565D01*
Y-753766D01*
X-909565D01*
G03X-908754Y-752938I-1J812D01*
G03X-909565Y-752110I-812J16D01*
G01X-913565D01*
Y-749493D01*
X-908591D01*
G02X-905700Y-752375I0J-2891D01*
G01X-907260Y-754959D02*
G02X-905537Y-757608I-1189J-2658D01*
G02X-908689Y-760523I-2993J75D01*
G01X-913565D01*
Y-758005D01*
X-909565D01*
G03X-908754Y-757177I-1J812D01*
G03X-909565Y-756349I-834J-5D01*
G01X-913565D01*
Y-753766D01*
X-909565D01*
G03X-908754Y-752938I-1J812D01*
G03X-909565Y-752110I-812J16D01*
G01X-913565D01*
Y-749493D01*
X-908591D01*
G02X-905700Y-752375I0J-2891D01*
G02X-907260Y-754959I-2956J22D01*
G01X-903715Y-757475D02*
Y-749493D01*
X-900688D01*
X-900754Y-756946D01*
G03X-899809Y-757907I954J-7D01*
G01X-898020D01*
Y-749493D01*
X-895093D01*
Y-760556D01*
X-900688D01*
G02X-903715Y-757475I42J3069D01*
G01Y-749493D02*
X-900688D01*
X-900754Y-756946D01*
G03X-899809Y-757907I954J-7D01*
G01X-898020D01*
Y-749493D01*
X-895093D01*
Y-760556D01*
X-900688D01*
G02X-903715Y-757475I42J3069D01*
G01Y-749493D01*
G01X-874305Y-789702D02*
X-701305D01*
G01X-874305Y-772202D02*
X-701305D01*
G01X-874305Y-754702D02*
X-701305D01*
G01X-874305Y-737202D02*
X-701305D01*
G01X12636Y-664358D02*
X-853191D01*
G01D02*
G02X-863100Y-654449I0J9909D01*
G01Y-654268D01*
G02X-853191Y-644358I9909J0D01*
G01X12636D01*
G01X15591Y129670D02*
G02X25591Y119670I0J-10000D01*
G01Y-621871D01*
Y-623499D01*
Y-628047D01*
G02X15591Y-638046I-10000J0D01*
G01X-850236D01*
G02X-860236Y-628047I0J10000D01*
G01Y119670D01*
G02X-850236Y129670I10000J0D01*
G01X15591D01*
G01Y155970D02*
G02X25500Y146061I0J-9909D01*
G01Y145879D01*
G02X15591Y135970I-9909J0D01*
G01X-850236D01*
G01Y155970D02*
G03X-860000Y146207I0J-9764D01*
G01Y145734D01*
G03X-850236Y135970I9764J0D01*
G01Y155970D02*
X15591D01*
G01X-841566Y-1208116D02*
X-841659Y-870247D01*
G01X-841610Y-1207484D02*
Y-1231684D01*
G01X-841559Y-1233554D02*
Y-1233547D01*
G01X-841659Y-870247D02*
X-840659D01*
G01X-846871Y-638069D02*
X-848371D01*
Y-644369D01*
X-828371D01*
Y-638069D01*
X-847271D01*
G01X-843107Y135915D02*
X-844607D01*
Y129615D01*
X-824607D01*
Y135915D01*
X-843507D01*
G01X-762659Y-1231733D02*
X-762710Y-1231784D01*
G01X-762659Y-870247D02*
Y-1231733D01*
G01Y-900247D02*
X-459110D01*
G01X-661459Y-1208983D02*
Y-1231333D01*
G01D02*
X-661510Y-1231384D01*
G01X-661509Y-957247D02*
X-661459Y-1208983D01*
G01X-712009Y-1208984D02*
Y-1231383D01*
G01D02*
X-712010Y-1231384D01*
G01X-712059Y-956647D02*
X-712009Y-1208984D01*
G01X-660909Y-870247D02*
Y-900247D01*
G01X-710909Y-870247D02*
Y-900247D01*
G01X-651100Y-495244D02*
Y-494594D01*
X-657450D01*
Y-495344D01*
G01X-653400Y-505994D02*
Y-505094D01*
X-655200D01*
Y-506044D01*
G01X-657450Y-505394D02*
Y-506094D01*
X-655300D01*
G01X-611809Y-1208997D02*
Y-1231285D01*
G01D02*
X-611710Y-1231384D01*
G01X-611859Y-957247D02*
X-611809Y-1208997D01*
G01X-611909Y-870247D02*
Y-900247D01*
G01X-610419Y-638002D02*
X-611919D01*
Y-644302D01*
X-591919D01*
Y-638002D01*
X-610819D01*
G01X-653300Y-506094D02*
X-651100D01*
Y-505344D01*
G01X-621353Y135955D02*
X-622853D01*
Y129655D01*
X-602853D01*
Y135955D01*
X-621753D01*
G01X-621307Y135915D02*
X-622807D01*
Y129615D01*
X-602807D01*
Y135915D01*
X-621707D01*
G01X-551109Y-1209484D02*
Y-1231983D01*
G01D02*
X-551110Y-1231984D01*
G01X-551159Y-957747D02*
X-551109Y-1209484D01*
G01X-561709Y-870247D02*
Y-900247D01*
G01X-508785Y-1230702D02*
X-508836Y-1230753D01*
G01X-405313Y-638064D02*
X-406813D01*
Y-644364D01*
X-386813D01*
Y-638064D01*
X-405713D01*
G01X-398037Y135942D02*
X-399537D01*
Y129642D01*
X-379537D01*
Y135942D01*
X-398437D01*
G01X138510Y-1200909D02*
X-338990D01*
G01Y-1225909D02*
X138510D01*
G01X-338990Y-875909D02*
Y-1225909D01*
G01X138010Y-1175909D02*
X-338990D01*
G01X138010Y-1125909D02*
X-338990D01*
G01X138010Y-1150909D02*
X-338990D01*
G01X138510Y-1074409D02*
X-338490D01*
G01X138510Y-1099409D02*
X-338490D01*
G01X138010Y-1050909D02*
X-338990D01*
G01X138010Y-1000909D02*
X-338990D01*
G01X138010Y-1025909D02*
X-338990D01*
G01X138010Y-975909D02*
X-338990D01*
G01X138010Y-950909D02*
X-338990D01*
G01X138010Y-925909D02*
X-338990D01*
G01X138510Y-875909D02*
X-338990D01*
G01X-253490D02*
Y-1225909D01*
G01X-199094Y-638068D02*
X-200594D01*
Y-644368D01*
X-180594D01*
Y-638068D01*
X-199494D01*
G01X-201568Y135977D02*
X-203068D01*
Y129677D01*
X-183068D01*
Y135977D01*
X-201968D01*
G01X-135490Y-875909D02*
Y-1225909D01*
G01X-75490Y-875909D02*
Y-1225909D01*
G01X-6990Y-875909D02*
Y-1225409D01*
G01X-11467Y-638011D02*
X-12967D01*
Y-644311D01*
X7033D01*
Y-638011D01*
X-11867D01*
G01X-39254Y136037D02*
X-40754D01*
Y129737D01*
X-20754D01*
Y136037D01*
X-39654D01*
G01X55510Y-876409D02*
Y-1225909D01*
G01X12636Y-664358D02*
G03X22400Y-654595I0J9764D01*
G01Y-654122D01*
G03X12636Y-644358I-9764J0D01*
G01X138510Y-1225909D02*
Y-875909D01*
G54D11*
G01X-788000Y-404244D02*
X-793000Y-404244D01*
G01X-788000Y-403044D02*
X-793000D01*
G01X-685100Y-396844D02*
Y-391844D01*
G01X-683900Y-396844D02*
Y-391844D01*
G01X-640500Y-600824D02*
Y-602034D01*
G01X-340600Y122556D02*
Y117556D01*
G01X-341800Y122556D02*
Y117556D01*
G54D12*
G01X-943487Y-1128124D02*
X-943320Y-1126824D01*
X-943070Y-1125724D01*
X-942737Y-1124724D01*
X-942320Y-1123624D01*
X-941653Y-1122124D01*
X-944987D01*
G01X-938320D02*
X-938987Y-1122324D01*
X-939487Y-1122824D01*
X-939820Y-1123424D01*
X-940070Y-1124224D01*
X-940153Y-1125124D01*
X-940070Y-1126024D01*
X-939820Y-1126824D01*
X-939487Y-1127424D01*
X-938987Y-1127924D01*
X-938320Y-1128124D01*
X-937653Y-1127924D01*
X-937153Y-1127424D01*
X-936820Y-1126824D01*
X-936570Y-1126024D01*
X-936487Y-1125124D01*
X-936570Y-1124224D01*
X-936820Y-1123424D01*
X-937153Y-1122824D01*
X-937653Y-1122324D01*
X-938320Y-1122124D01*
G01X-928320Y-1128124D02*
X-928820Y-1128024D01*
X-929320Y-1127624D01*
X-929653Y-1126924D01*
X-929820Y-1126124D01*
X-929653Y-1125324D01*
X-929320Y-1124624D01*
X-928820Y-1124224D01*
X-928320Y-1124124D01*
X-927820Y-1124224D01*
X-927320Y-1124624D01*
X-926987Y-1125324D01*
X-926903Y-1126124D01*
X-926987Y-1126924D01*
X-927320Y-1127624D01*
X-927820Y-1128024D01*
X-928320Y-1128124D01*
G01X-924737D02*
Y-1122124D01*
G01Y-1125024D02*
X-924320Y-1124524D01*
X-923903Y-1124224D01*
X-923237Y-1124124D01*
X-922737Y-1124224D01*
X-922153Y-1124624D01*
X-921903Y-1125224D01*
Y-1128124D01*
G01X-920820D02*
Y-1124124D01*
G01Y-1125224D02*
X-920570Y-1124724D01*
X-920153Y-1124324D01*
X-919570Y-1124124D01*
X-918987Y-1124324D01*
X-918570Y-1124724D01*
X-918320Y-1125224D01*
Y-1128124D01*
G01Y-1125224D02*
X-918070Y-1124724D01*
X-917653Y-1124324D01*
X-917070Y-1124124D01*
X-916487Y-1124324D01*
X-916070Y-1124724D01*
X-915820Y-1125324D01*
Y-1128124D01*
G01X-944510Y-1046984D02*
X-943927Y-1046884D01*
X-943260Y-1046584D01*
X-942843Y-1046084D01*
X-942677Y-1045384D01*
X-942843Y-1044684D01*
X-943343Y-1044084D01*
X-944093Y-1043784D01*
X-944927D01*
X-945427Y-1043584D01*
X-945843Y-1043084D01*
X-946010Y-1042384D01*
X-945760Y-1041684D01*
X-945177Y-1041184D01*
X-944510Y-1040984D01*
X-943843Y-1041184D01*
X-943260Y-1041684D01*
X-943010Y-1042384D01*
X-943177Y-1043084D01*
X-943593Y-1043584D01*
X-944093Y-1043784D01*
X-944927D01*
X-945677Y-1044084D01*
X-946177Y-1044684D01*
X-946343Y-1045384D01*
X-946177Y-1046084D01*
X-945760Y-1046584D01*
X-945093Y-1046884D01*
X-944510Y-1046984D01*
G01X-941343Y-1046084D02*
X-940843Y-1046584D01*
X-940260Y-1046884D01*
X-939510Y-1046984D01*
X-938760Y-1046784D01*
X-938177Y-1046384D01*
X-937760Y-1045684D01*
X-937677Y-1044884D01*
X-937843Y-1044084D01*
X-938260Y-1043584D01*
X-938843Y-1043184D01*
X-939427Y-1043084D01*
X-940010Y-1043184D01*
X-940760Y-1043584D01*
X-940510Y-1040984D01*
X-938260D01*
G01X-929510Y-1046984D02*
X-930010Y-1046884D01*
X-930510Y-1046484D01*
X-930843Y-1045784D01*
X-931010Y-1044984D01*
X-930843Y-1044184D01*
X-930510Y-1043484D01*
X-930010Y-1043084D01*
X-929510Y-1042984D01*
X-929010Y-1043084D01*
X-928510Y-1043484D01*
X-928177Y-1044184D01*
X-928093Y-1044984D01*
X-928177Y-1045784D01*
X-928510Y-1046484D01*
X-929010Y-1046884D01*
X-929510Y-1046984D01*
G01X-925927D02*
Y-1040984D01*
G01Y-1043884D02*
X-925510Y-1043384D01*
X-925093Y-1043084D01*
X-924427Y-1042984D01*
X-923927Y-1043084D01*
X-923343Y-1043484D01*
X-923093Y-1044084D01*
Y-1046984D01*
G01X-922010D02*
Y-1042984D01*
G01Y-1044084D02*
X-921760Y-1043584D01*
X-921343Y-1043184D01*
X-920760Y-1042984D01*
X-920177Y-1043184D01*
X-919760Y-1043584D01*
X-919510Y-1044084D01*
Y-1046984D01*
G01Y-1044084D02*
X-919260Y-1043584D01*
X-918843Y-1043184D01*
X-918260Y-1042984D01*
X-917677Y-1043184D01*
X-917260Y-1043584D01*
X-917010Y-1044184D01*
Y-1046984D01*
G01X-944726Y-936791D02*
X-945559Y-935791D01*
X-945976Y-934791D01*
Y-930791D01*
X-945559Y-929791D01*
X-944726Y-928791D01*
G01X-940226Y-932791D02*
X-938226D01*
G01X-939309Y-931491D02*
Y-934091D01*
G01X-935809Y-934991D02*
X-932809Y-928791D01*
G01X-930392Y-932791D02*
X-928226D01*
G01X-924309Y-934791D02*
Y-928791D01*
X-925309Y-929991D01*
G01Y-934791D02*
X-923309D01*
G01X-919309Y-928791D02*
X-919976Y-928991D01*
X-920476Y-929491D01*
X-920809Y-930091D01*
X-921059Y-930891D01*
X-921142Y-931791D01*
X-921059Y-932691D01*
X-920809Y-933491D01*
X-920476Y-934091D01*
X-919976Y-934591D01*
X-919309Y-934791D01*
X-918642Y-934591D01*
X-918142Y-934091D01*
X-917809Y-933491D01*
X-917559Y-932691D01*
X-917476Y-931791D01*
X-917559Y-930891D01*
X-917809Y-930091D01*
X-918142Y-929491D01*
X-918642Y-928991D01*
X-919309Y-928791D01*
G01X-915809Y-934991D02*
X-912809Y-928791D01*
G01X-915809D02*
X-916309Y-928991D01*
X-916559Y-929291D01*
X-916726Y-929891D01*
X-916559Y-930491D01*
X-916309Y-930791D01*
X-915809Y-930991D01*
X-915309Y-930791D01*
X-915059Y-930491D01*
X-914892Y-929891D01*
X-915059Y-929291D01*
X-915309Y-928991D01*
X-915809Y-928791D01*
G01X-912809Y-932791D02*
X-913309Y-932991D01*
X-913559Y-933291D01*
X-913726Y-933891D01*
X-913559Y-934491D01*
X-913309Y-934791D01*
X-912809Y-934991D01*
X-912309Y-934791D01*
X-912059Y-934491D01*
X-911892Y-933891D01*
X-912059Y-933291D01*
X-912309Y-932991D01*
X-912809Y-932791D01*
G01X-908892Y-936791D02*
X-908059Y-935791D01*
X-907642Y-934791D01*
Y-930791D01*
X-908059Y-929791D01*
X-908892Y-928791D01*
G01X-946793Y-977781D02*
Y-971781D01*
X-947793Y-972981D01*
G01Y-977781D02*
X-945793D01*
G01X-941793Y-971781D02*
X-942460Y-971981D01*
X-942960Y-972481D01*
X-943293Y-973081D01*
X-943543Y-973881D01*
X-943626Y-974781D01*
X-943543Y-975681D01*
X-943293Y-976481D01*
X-942960Y-977081D01*
X-942460Y-977581D01*
X-941793Y-977781D01*
X-941126Y-977581D01*
X-940626Y-977081D01*
X-940293Y-976481D01*
X-940043Y-975681D01*
X-939960Y-974781D01*
X-940043Y-973881D01*
X-940293Y-973081D01*
X-940626Y-972481D01*
X-941126Y-971981D01*
X-941793Y-971781D01*
G01X-936793D02*
X-937460Y-971981D01*
X-937960Y-972481D01*
X-938293Y-973081D01*
X-938543Y-973881D01*
X-938626Y-974781D01*
X-938543Y-975681D01*
X-938293Y-976481D01*
X-937960Y-977081D01*
X-937460Y-977581D01*
X-936793Y-977781D01*
X-936126Y-977581D01*
X-935626Y-977081D01*
X-935293Y-976481D01*
X-935043Y-975681D01*
X-934960Y-974781D01*
X-935043Y-973881D01*
X-935293Y-973081D01*
X-935626Y-972481D01*
X-936126Y-971981D01*
X-936793Y-971781D01*
G01X-926793Y-977781D02*
X-927293Y-977681D01*
X-927793Y-977281D01*
X-928126Y-976581D01*
X-928293Y-975781D01*
X-928126Y-974981D01*
X-927793Y-974281D01*
X-927293Y-973881D01*
X-926793Y-973781D01*
X-926293Y-973881D01*
X-925793Y-974281D01*
X-925460Y-974981D01*
X-925376Y-975781D01*
X-925460Y-976581D01*
X-925793Y-977281D01*
X-926293Y-977681D01*
X-926793Y-977781D01*
G01X-923210D02*
Y-971781D01*
G01Y-974681D02*
X-922793Y-974181D01*
X-922376Y-973881D01*
X-921710Y-973781D01*
X-921210Y-973881D01*
X-920626Y-974281D01*
X-920376Y-974881D01*
Y-977781D01*
G01X-919293D02*
Y-973781D01*
G01Y-974881D02*
X-919043Y-974381D01*
X-918626Y-973981D01*
X-918043Y-973781D01*
X-917460Y-973981D01*
X-917043Y-974381D01*
X-916793Y-974881D01*
Y-977781D01*
G01Y-974881D02*
X-916543Y-974381D01*
X-916126Y-973981D01*
X-915543Y-973781D01*
X-914960Y-973981D01*
X-914543Y-974381D01*
X-914293Y-974981D01*
Y-977781D01*
G01X-953433Y-891674D02*
Y-885674D01*
X-951767D01*
X-951100Y-885974D01*
X-950600Y-886374D01*
X-950183Y-886974D01*
X-949850Y-887674D01*
X-949767Y-888674D01*
X-949850Y-889674D01*
X-950183Y-890374D01*
X-950600Y-890974D01*
X-951100Y-891374D01*
X-951767Y-891674D01*
X-953433D01*
G01X-946600Y-887674D02*
Y-891674D01*
G01Y-886074D02*
X-946767Y-885974D01*
Y-885774D01*
X-946600Y-885674D01*
X-946433Y-885774D01*
Y-885974D01*
X-946600Y-886074D01*
G01X-942100Y-891674D02*
Y-886574D01*
X-941933Y-886074D01*
X-941600Y-885774D01*
X-941100Y-885674D01*
X-940600Y-885874D01*
X-940350Y-886374D01*
G01X-941350Y-888074D02*
X-943017D01*
G01X-937100Y-891674D02*
Y-886574D01*
X-936933Y-886074D01*
X-936600Y-885774D01*
X-936100Y-885674D01*
X-935600Y-885874D01*
X-935350Y-886374D01*
G01X-936350Y-888074D02*
X-938017D01*
G01X-932850Y-888974D02*
X-930183D01*
X-930433Y-888274D01*
X-930850Y-887874D01*
X-931433Y-887674D01*
X-932017Y-887774D01*
X-932517Y-888074D01*
X-932850Y-888774D01*
X-933017Y-889374D01*
Y-889974D01*
X-932850Y-890574D01*
X-932433Y-891174D01*
X-931933Y-891574D01*
X-931350Y-891674D01*
X-930767Y-891474D01*
X-930183Y-890874D01*
G01X-927767Y-891674D02*
Y-887674D01*
G01Y-888474D02*
X-927350Y-888074D01*
X-926933Y-887774D01*
X-926350Y-887674D01*
X-925933Y-887774D01*
X-925433Y-888074D01*
G01X-922850Y-888974D02*
X-920183D01*
X-920433Y-888274D01*
X-920850Y-887874D01*
X-921433Y-887674D01*
X-922017Y-887774D01*
X-922517Y-888074D01*
X-922850Y-888774D01*
X-923017Y-889374D01*
Y-889974D01*
X-922850Y-890574D01*
X-922433Y-891174D01*
X-921933Y-891574D01*
X-921350Y-891674D01*
X-920767Y-891474D01*
X-920183Y-890874D01*
G01X-918017Y-891674D02*
Y-887674D01*
G01Y-888674D02*
X-917683Y-888174D01*
X-917183Y-887774D01*
X-916517Y-887674D01*
X-915933Y-887774D01*
X-915433Y-888174D01*
X-915183Y-888874D01*
Y-891674D01*
G01X-911600Y-885674D02*
Y-891674D01*
G01X-912767Y-887674D02*
X-910433D01*
G01X-906600D02*
Y-891674D01*
G01Y-886074D02*
X-906767Y-885974D01*
Y-885774D01*
X-906600Y-885674D01*
X-906433Y-885774D01*
Y-885974D01*
X-906600Y-886074D01*
G01X-900100Y-891674D02*
Y-887674D01*
G01Y-888374D02*
X-900433Y-887974D01*
X-900933Y-887774D01*
X-901517Y-887674D01*
X-902100Y-887874D01*
X-902600Y-888274D01*
X-902933Y-888874D01*
X-903100Y-889674D01*
X-902933Y-890474D01*
X-902600Y-891074D01*
X-902100Y-891474D01*
X-901517Y-891674D01*
X-900933Y-891574D01*
X-900433Y-891274D01*
X-900100Y-890874D01*
G01X-896600Y-891674D02*
Y-885674D01*
G01X-945309Y-908791D02*
X-943309D01*
G01X-944309D02*
Y-914791D01*
G01X-945309D02*
X-943309D01*
G01X-941809D02*
Y-910791D01*
G01Y-911891D02*
X-941559Y-911391D01*
X-941142Y-910991D01*
X-940559Y-910791D01*
X-939976Y-910991D01*
X-939559Y-911391D01*
X-939309Y-911891D01*
Y-914791D01*
G01Y-911891D02*
X-939059Y-911391D01*
X-938642Y-910991D01*
X-938059Y-910791D01*
X-937476Y-910991D01*
X-937059Y-911391D01*
X-936809Y-911991D01*
Y-914791D01*
G01X-935809Y-916791D02*
Y-910791D01*
G01Y-911691D02*
X-935392Y-911191D01*
X-934976Y-910891D01*
X-934309Y-910791D01*
X-933726Y-910891D01*
X-933142Y-911391D01*
X-932892Y-912091D01*
X-932809Y-912791D01*
X-932892Y-913491D01*
X-933142Y-914191D01*
X-933642Y-914591D01*
X-934309Y-914791D01*
X-934892Y-914691D01*
X-935476Y-914391D01*
X-935809Y-913991D01*
G01X-930559Y-912091D02*
X-927892D01*
X-928142Y-911391D01*
X-928559Y-910991D01*
X-929142Y-910791D01*
X-929726Y-910891D01*
X-930226Y-911191D01*
X-930559Y-911891D01*
X-930726Y-912491D01*
Y-913091D01*
X-930559Y-913691D01*
X-930142Y-914291D01*
X-929642Y-914691D01*
X-929059Y-914791D01*
X-928476Y-914591D01*
X-927892Y-913991D01*
G01X-922809Y-908791D02*
Y-914791D01*
G01Y-913891D02*
X-923142Y-914391D01*
X-923642Y-914691D01*
X-924226Y-914791D01*
X-924892Y-914591D01*
X-925392Y-914091D01*
X-925726Y-913491D01*
X-925809Y-912791D01*
X-925726Y-912091D01*
X-925392Y-911491D01*
X-924892Y-910991D01*
X-924226Y-910791D01*
X-923642Y-910891D01*
X-923226Y-911091D01*
X-922809Y-911491D01*
G01X-917809Y-914791D02*
Y-910791D01*
G01Y-911491D02*
X-918142Y-911091D01*
X-918642Y-910891D01*
X-919226Y-910791D01*
X-919809Y-910991D01*
X-920309Y-911391D01*
X-920642Y-911991D01*
X-920809Y-912791D01*
X-920642Y-913591D01*
X-920309Y-914191D01*
X-919809Y-914591D01*
X-919226Y-914791D01*
X-918642Y-914691D01*
X-918142Y-914391D01*
X-917809Y-913991D01*
G01X-915726Y-914791D02*
Y-910791D01*
G01Y-911791D02*
X-915392Y-911291D01*
X-914892Y-910891D01*
X-914226Y-910791D01*
X-913642Y-910891D01*
X-913142Y-911291D01*
X-912892Y-911991D01*
Y-914791D01*
G01X-907976Y-911291D02*
X-908559Y-910891D01*
X-909059Y-910791D01*
X-909726Y-910991D01*
X-910226Y-911391D01*
X-910559Y-912091D01*
X-910642Y-912791D01*
X-910559Y-913491D01*
X-910226Y-914091D01*
X-909726Y-914591D01*
X-909059Y-914791D01*
X-908476Y-914591D01*
X-907976Y-914191D01*
G01X-905559Y-912091D02*
X-902892D01*
X-903142Y-911391D01*
X-903559Y-910991D01*
X-904142Y-910791D01*
X-904726Y-910891D01*
X-905226Y-911191D01*
X-905559Y-911891D01*
X-905726Y-912491D01*
Y-913091D01*
X-905559Y-913691D01*
X-905142Y-914291D01*
X-904642Y-914691D01*
X-904059Y-914791D01*
X-903476Y-914591D01*
X-902892Y-913991D01*
G01X-945172Y-813702D02*
Y-819702D01*
X-941838D01*
G01X-940588D02*
X-938505Y-813702D01*
X-936422Y-819702D01*
G01X-937172Y-817602D02*
X-939838D01*
G01X-933505Y-819702D02*
Y-817002D01*
X-935172Y-813702D01*
G01X-931838D02*
X-933505Y-817002D01*
G01X-926838Y-819702D02*
X-930172D01*
Y-813702D01*
X-926838D01*
G01X-928172Y-816602D02*
X-930172D01*
G01X-925172Y-819702D02*
Y-813702D01*
X-923088D01*
X-922422Y-814002D01*
X-922005Y-814402D01*
X-921838Y-815202D01*
X-922005Y-816002D01*
X-922505Y-816502D01*
X-923088Y-816802D01*
X-925172D01*
G01X-923088D02*
X-921838Y-819702D01*
G01X-915422D02*
Y-813702D01*
X-911588Y-819702D01*
Y-813702D01*
G01X-910588Y-819702D02*
X-908505Y-813702D01*
X-906422Y-819702D01*
G01X-907172Y-817602D02*
X-909838D01*
G01X-905672Y-819702D02*
Y-813702D01*
X-903505Y-818702D01*
X-901338Y-813702D01*
Y-819702D01*
G01X-896838D02*
X-900172D01*
Y-813702D01*
X-896838D01*
G01X-898172Y-816602D02*
X-900172D01*
G01X-937872Y-802102D02*
Y-796102D01*
X-935872D01*
X-935205Y-796402D01*
X-934705Y-797102D01*
X-934538Y-797902D01*
X-934705Y-798702D01*
X-935122Y-799302D01*
X-935872Y-799602D01*
X-937872D01*
G01X-932872Y-802102D02*
Y-796102D01*
X-930788D01*
X-930122Y-796402D01*
X-929705Y-796802D01*
X-929538Y-797602D01*
X-929705Y-798402D01*
X-930205Y-798902D01*
X-930788Y-799202D01*
X-932872D01*
G01X-930788D02*
X-929538Y-802102D01*
G01X-926205D02*
X-926872Y-802002D01*
X-927455Y-801602D01*
X-927955Y-801002D01*
X-928288Y-800302D01*
X-928455Y-799502D01*
Y-798702D01*
X-928288Y-797902D01*
X-927955Y-797202D01*
X-927455Y-796602D01*
X-926872Y-796202D01*
X-926205Y-796102D01*
X-925538Y-796202D01*
X-924955Y-796602D01*
X-924455Y-797202D01*
X-924122Y-797902D01*
X-923955Y-798702D01*
Y-799502D01*
X-924122Y-800302D01*
X-924455Y-801002D01*
X-924955Y-801602D01*
X-925538Y-802002D01*
X-926205Y-802102D01*
G01X-922872Y-800902D02*
X-922455Y-801502D01*
X-921955Y-801902D01*
X-921372Y-802102D01*
X-920705Y-801902D01*
X-920205Y-801502D01*
X-919705Y-800902D01*
X-919538Y-800102D01*
Y-796102D01*
G01X-914538Y-802102D02*
X-917872D01*
Y-796102D01*
X-914538D01*
G01X-915872Y-799002D02*
X-917872D01*
G01X-909372Y-796602D02*
X-909872Y-796302D01*
X-910455Y-796102D01*
X-911122D01*
X-911872Y-796402D01*
X-912455Y-796902D01*
X-912872Y-797502D01*
X-913205Y-798502D01*
X-913288Y-799402D01*
X-913122Y-800302D01*
X-912872Y-800902D01*
X-912372Y-801502D01*
X-911788Y-801902D01*
X-911205Y-802102D01*
X-910622D01*
X-910038Y-801902D01*
X-909538Y-801602D01*
X-909122Y-801202D01*
G01X-906205Y-796102D02*
Y-802102D01*
G01X-908122Y-796102D02*
X-904288D01*
G01X-877640Y-1199204D02*
Y-1193204D01*
X-880723Y-1197504D01*
X-876557D01*
G01X-875473Y-1198304D02*
X-874973Y-1198804D01*
X-874390Y-1199104D01*
X-873640Y-1199204D01*
X-872890Y-1199004D01*
X-872307Y-1198604D01*
X-871890Y-1197904D01*
X-871807Y-1197104D01*
X-871973Y-1196304D01*
X-872390Y-1195804D01*
X-872973Y-1195404D01*
X-873557Y-1195304D01*
X-874140Y-1195404D01*
X-874890Y-1195804D01*
X-874640Y-1193204D01*
X-872390D01*
G01X-863640Y-1199204D02*
X-864140Y-1199104D01*
X-864640Y-1198704D01*
X-864973Y-1198004D01*
X-865140Y-1197204D01*
X-864973Y-1196404D01*
X-864640Y-1195704D01*
X-864140Y-1195304D01*
X-863640Y-1195204D01*
X-863140Y-1195304D01*
X-862640Y-1195704D01*
X-862307Y-1196404D01*
X-862223Y-1197204D01*
X-862307Y-1198004D01*
X-862640Y-1198704D01*
X-863140Y-1199104D01*
X-863640Y-1199204D01*
G01X-860057D02*
Y-1193204D01*
G01Y-1196104D02*
X-859640Y-1195604D01*
X-859223Y-1195304D01*
X-858557Y-1195204D01*
X-858057Y-1195304D01*
X-857473Y-1195704D01*
X-857223Y-1196304D01*
Y-1199204D01*
G01X-856140D02*
Y-1195204D01*
G01Y-1196304D02*
X-855890Y-1195804D01*
X-855473Y-1195404D01*
X-854890Y-1195204D01*
X-854307Y-1195404D01*
X-853890Y-1195804D01*
X-853640Y-1196304D01*
Y-1199204D01*
G01Y-1196304D02*
X-853390Y-1195804D01*
X-852973Y-1195404D01*
X-852390Y-1195204D01*
X-851807Y-1195404D01*
X-851390Y-1195804D01*
X-851140Y-1196404D01*
Y-1199204D01*
G01X-881363Y-1222884D02*
X-880863Y-1223384D01*
X-880280Y-1223684D01*
X-879530Y-1223784D01*
X-878780Y-1223584D01*
X-878197Y-1223184D01*
X-877780Y-1222484D01*
X-877697Y-1221684D01*
X-877863Y-1220884D01*
X-878280Y-1220384D01*
X-878863Y-1219984D01*
X-879447Y-1219884D01*
X-880030Y-1219984D01*
X-880780Y-1220384D01*
X-880530Y-1217784D01*
X-878280D01*
G01X-874530D02*
X-875197Y-1217984D01*
X-875697Y-1218484D01*
X-876030Y-1219084D01*
X-876280Y-1219884D01*
X-876363Y-1220784D01*
X-876280Y-1221684D01*
X-876030Y-1222484D01*
X-875697Y-1223084D01*
X-875197Y-1223584D01*
X-874530Y-1223784D01*
X-873863Y-1223584D01*
X-873363Y-1223084D01*
X-873030Y-1222484D01*
X-872780Y-1221684D01*
X-872697Y-1220784D01*
X-872780Y-1219884D01*
X-873030Y-1219084D01*
X-873363Y-1218484D01*
X-873863Y-1217984D01*
X-874530Y-1217784D01*
G01X-864530Y-1223784D02*
X-865030Y-1223684D01*
X-865530Y-1223284D01*
X-865863Y-1222584D01*
X-866030Y-1221784D01*
X-865863Y-1220984D01*
X-865530Y-1220284D01*
X-865030Y-1219884D01*
X-864530Y-1219784D01*
X-864030Y-1219884D01*
X-863530Y-1220284D01*
X-863197Y-1220984D01*
X-863113Y-1221784D01*
X-863197Y-1222584D01*
X-863530Y-1223284D01*
X-864030Y-1223684D01*
X-864530Y-1223784D01*
G01X-860947D02*
Y-1217784D01*
G01Y-1220684D02*
X-860530Y-1220184D01*
X-860113Y-1219884D01*
X-859447Y-1219784D01*
X-858947Y-1219884D01*
X-858363Y-1220284D01*
X-858113Y-1220884D01*
Y-1223784D01*
G01X-857030D02*
Y-1219784D01*
G01Y-1220884D02*
X-856780Y-1220384D01*
X-856363Y-1219984D01*
X-855780Y-1219784D01*
X-855197Y-1219984D01*
X-854780Y-1220384D01*
X-854530Y-1220884D01*
Y-1223784D01*
G01Y-1220884D02*
X-854280Y-1220384D01*
X-853863Y-1219984D01*
X-853280Y-1219784D01*
X-852697Y-1219984D01*
X-852280Y-1220384D01*
X-852030Y-1220984D01*
Y-1223784D01*
G01X-878000Y-1170014D02*
Y-1164014D01*
X-881083Y-1168314D01*
X-876917D01*
G01X-874000Y-1164014D02*
X-874667Y-1164214D01*
X-875167Y-1164714D01*
X-875500Y-1165314D01*
X-875750Y-1166114D01*
X-875833Y-1167014D01*
X-875750Y-1167914D01*
X-875500Y-1168714D01*
X-875167Y-1169314D01*
X-874667Y-1169814D01*
X-874000Y-1170014D01*
X-873333Y-1169814D01*
X-872833Y-1169314D01*
X-872500Y-1168714D01*
X-872250Y-1167914D01*
X-872167Y-1167014D01*
X-872250Y-1166114D01*
X-872500Y-1165314D01*
X-872833Y-1164714D01*
X-873333Y-1164214D01*
X-874000Y-1164014D01*
G01X-864000Y-1170014D02*
X-864500Y-1169914D01*
X-865000Y-1169514D01*
X-865333Y-1168814D01*
X-865500Y-1168014D01*
X-865333Y-1167214D01*
X-865000Y-1166514D01*
X-864500Y-1166114D01*
X-864000Y-1166014D01*
X-863500Y-1166114D01*
X-863000Y-1166514D01*
X-862667Y-1167214D01*
X-862583Y-1168014D01*
X-862667Y-1168814D01*
X-863000Y-1169514D01*
X-863500Y-1169914D01*
X-864000Y-1170014D01*
G01X-860417D02*
Y-1164014D01*
G01Y-1166914D02*
X-860000Y-1166414D01*
X-859583Y-1166114D01*
X-858917Y-1166014D01*
X-858417Y-1166114D01*
X-857833Y-1166514D01*
X-857583Y-1167114D01*
Y-1170014D01*
G01X-856500D02*
Y-1166014D01*
G01Y-1167114D02*
X-856250Y-1166614D01*
X-855833Y-1166214D01*
X-855250Y-1166014D01*
X-854667Y-1166214D01*
X-854250Y-1166614D01*
X-854000Y-1167114D01*
Y-1170014D01*
G01Y-1167114D02*
X-853750Y-1166614D01*
X-853333Y-1166214D01*
X-852750Y-1166014D01*
X-852167Y-1166214D01*
X-851750Y-1166614D01*
X-851500Y-1167214D01*
Y-1170014D01*
G01X-884309Y-892991D02*
X-883892Y-893391D01*
X-883309Y-893691D01*
X-882809D01*
X-882309Y-893491D01*
X-881976Y-893191D01*
X-881809Y-892791D01*
X-881892Y-892191D01*
X-882226Y-891891D01*
X-883726Y-891291D01*
X-884059Y-890591D01*
X-883892Y-890091D01*
X-883559Y-889791D01*
X-883059Y-889691D01*
X-882559Y-889791D01*
X-882059Y-890091D01*
G01X-878059Y-889691D02*
Y-893691D01*
G01Y-888091D02*
X-878226Y-887991D01*
Y-887791D01*
X-878059Y-887691D01*
X-877892Y-887791D01*
Y-887991D01*
X-878059Y-888091D01*
G01X-874226Y-895191D02*
X-873642Y-895591D01*
X-872976Y-895691D01*
X-872392Y-895591D01*
X-871892Y-895091D01*
X-871559Y-894391D01*
Y-889691D01*
G01Y-890491D02*
X-871892Y-890091D01*
X-872392Y-889791D01*
X-872976Y-889691D01*
X-873642Y-889891D01*
X-874059Y-890291D01*
X-874392Y-890991D01*
X-874559Y-891691D01*
X-874476Y-892291D01*
X-874142Y-892991D01*
X-873642Y-893491D01*
X-872976Y-893691D01*
X-872476Y-893591D01*
X-871892Y-893191D01*
X-871559Y-892791D01*
G01X-869476Y-893691D02*
Y-889691D01*
G01Y-890691D02*
X-869142Y-890191D01*
X-868642Y-889791D01*
X-867976Y-889691D01*
X-867392Y-889791D01*
X-866892Y-890191D01*
X-866642Y-890891D01*
Y-893691D01*
G01X-861559D02*
Y-889691D01*
G01Y-890391D02*
X-861892Y-889991D01*
X-862392Y-889791D01*
X-862976Y-889691D01*
X-863559Y-889891D01*
X-864059Y-890291D01*
X-864392Y-890891D01*
X-864559Y-891691D01*
X-864392Y-892491D01*
X-864059Y-893091D01*
X-863559Y-893491D01*
X-862976Y-893691D01*
X-862392Y-893591D01*
X-861892Y-893291D01*
X-861559Y-892891D01*
G01X-858059Y-893691D02*
Y-887691D01*
G01X-854309Y-890991D02*
X-851642D01*
X-851892Y-890291D01*
X-852309Y-889891D01*
X-852892Y-889691D01*
X-853476Y-889791D01*
X-853976Y-890091D01*
X-854309Y-890791D01*
X-854476Y-891391D01*
Y-891991D01*
X-854309Y-892591D01*
X-853892Y-893191D01*
X-853392Y-893591D01*
X-852809Y-893691D01*
X-852226Y-893491D01*
X-851642Y-892891D01*
G01X-881309Y-910591D02*
X-878642D01*
X-878892Y-909891D01*
X-879309Y-909491D01*
X-879892Y-909291D01*
X-880476Y-909391D01*
X-880976Y-909691D01*
X-881309Y-910391D01*
X-881476Y-910991D01*
Y-911591D01*
X-881309Y-912191D01*
X-880892Y-912791D01*
X-880392Y-913191D01*
X-879809Y-913291D01*
X-879226Y-913091D01*
X-878642Y-912491D01*
G01X-876476Y-913291D02*
Y-909291D01*
G01Y-910291D02*
X-876142Y-909791D01*
X-875642Y-909391D01*
X-874976Y-909291D01*
X-874392Y-909391D01*
X-873892Y-909791D01*
X-873642Y-910491D01*
Y-913291D01*
G01X-868559Y-907291D02*
Y-913291D01*
G01Y-912391D02*
X-868892Y-912891D01*
X-869392Y-913191D01*
X-869976Y-913291D01*
X-870642Y-913091D01*
X-871142Y-912591D01*
X-871476Y-911991D01*
X-871559Y-911291D01*
X-871476Y-910591D01*
X-871142Y-909991D01*
X-870642Y-909491D01*
X-869976Y-909291D01*
X-869392Y-909391D01*
X-868976Y-909591D01*
X-868559Y-909991D01*
G01X-866309Y-910591D02*
X-863642D01*
X-863892Y-909891D01*
X-864309Y-909491D01*
X-864892Y-909291D01*
X-865476Y-909391D01*
X-865976Y-909691D01*
X-866309Y-910391D01*
X-866476Y-910991D01*
Y-911591D01*
X-866309Y-912191D01*
X-865892Y-912791D01*
X-865392Y-913191D01*
X-864809Y-913291D01*
X-864226Y-913091D01*
X-863642Y-912491D01*
G01X-858559Y-907291D02*
Y-913291D01*
G01Y-912391D02*
X-858892Y-912891D01*
X-859392Y-913191D01*
X-859976Y-913291D01*
X-860642Y-913091D01*
X-861142Y-912591D01*
X-861476Y-911991D01*
X-861559Y-911291D01*
X-861476Y-910591D01*
X-861142Y-909991D01*
X-860642Y-909491D01*
X-859976Y-909291D01*
X-859392Y-909391D01*
X-858976Y-909591D01*
X-858559Y-909991D01*
G01X-860218Y-749996D02*
Y-743996D01*
X-858552D01*
X-857885Y-744296D01*
X-857385Y-744696D01*
X-856968Y-745296D01*
X-856635Y-745996D01*
X-856552Y-746996D01*
X-856635Y-747996D01*
X-856968Y-748696D01*
X-857385Y-749296D01*
X-857885Y-749696D01*
X-858552Y-749996D01*
X-860218D01*
G01X-855468D02*
X-853385Y-743996D01*
X-851302Y-749996D01*
G01X-852052Y-747896D02*
X-854718D01*
G01X-848385Y-743996D02*
Y-749996D01*
G01X-850302Y-743996D02*
X-846468D01*
G01X-841718Y-749996D02*
X-845052D01*
Y-743996D01*
X-841718D01*
G01X-843052Y-746896D02*
X-845052D01*
G01X-860052Y-769996D02*
Y-763996D01*
X-857968D01*
X-857302Y-764296D01*
X-856885Y-764696D01*
X-856718Y-765496D01*
X-856885Y-766296D01*
X-857385Y-766796D01*
X-857968Y-767096D01*
X-860052D01*
G01X-857968D02*
X-856718Y-769996D01*
G01X-851718D02*
X-855052D01*
Y-763996D01*
X-851718D01*
G01X-853052Y-766896D02*
X-855052D01*
G01X-850468Y-763996D02*
X-848385Y-769996D01*
X-846302Y-763996D01*
G01X-843385Y-770196D02*
X-843552Y-770096D01*
Y-769896D01*
X-843385Y-769796D01*
X-843218Y-769896D01*
Y-770096D01*
X-843385Y-770196D01*
G01Y-767496D02*
X-843552Y-767396D01*
Y-767196D01*
X-843385Y-767096D01*
X-843218Y-767196D01*
Y-767396D01*
X-843385Y-767496D01*
G01X-867235Y-732096D02*
X-866568Y-732596D01*
X-865818Y-732896D01*
X-865152D01*
X-864485Y-732596D01*
X-863985Y-732096D01*
X-863735Y-731396D01*
X-863902Y-730696D01*
X-864318Y-730096D01*
X-865068Y-729696D01*
X-866068Y-729496D01*
X-866652Y-729096D01*
X-866902Y-728396D01*
X-866735Y-727696D01*
X-866318Y-727196D01*
X-865735Y-726896D01*
X-865152D01*
X-864568Y-727096D01*
X-864068Y-727596D01*
G01X-861485Y-726896D02*
X-859485D01*
G01X-860485D02*
Y-732896D01*
G01X-861485D02*
X-859485D01*
G01X-857068Y-726896D02*
X-853902D01*
X-857068Y-732896D01*
X-853902D01*
G01X-848818D02*
X-852152D01*
Y-726896D01*
X-848818D01*
G01X-850152Y-729796D02*
X-852152D01*
G01X-845902Y-734896D02*
X-846735Y-733896D01*
X-847152Y-732896D01*
Y-728896D01*
X-846735Y-727896D01*
X-845902Y-726896D01*
G01X-841485D02*
X-839485D01*
G01X-840485D02*
Y-732896D01*
G01X-841485D02*
X-839485D01*
G01X-837402D02*
Y-726896D01*
X-833568Y-732896D01*
Y-726896D01*
G01X-828652Y-727396D02*
X-829152Y-727096D01*
X-829735Y-726896D01*
X-830402D01*
X-831152Y-727196D01*
X-831735Y-727696D01*
X-832152Y-728296D01*
X-832485Y-729296D01*
X-832568Y-730196D01*
X-832402Y-731096D01*
X-832152Y-731696D01*
X-831652Y-732296D01*
X-831068Y-732696D01*
X-830485Y-732896D01*
X-829902D01*
X-829318Y-732696D01*
X-828818Y-732396D01*
X-828402Y-731996D01*
G01X-827235Y-732896D02*
Y-726896D01*
G01X-823735D02*
Y-732896D01*
G01Y-729896D02*
X-827235D01*
G01X-820068Y-734896D02*
X-819235Y-733896D01*
X-818818Y-732896D01*
Y-728896D01*
X-819235Y-727896D01*
X-820068Y-726896D01*
G01X-858985Y-779896D02*
Y-785896D01*
G01X-860902Y-779896D02*
X-857068D01*
G01X-853985Y-785896D02*
X-854652Y-785796D01*
X-855235Y-785396D01*
X-855735Y-784796D01*
X-856068Y-784096D01*
X-856235Y-783296D01*
Y-782496D01*
X-856068Y-781696D01*
X-855735Y-780996D01*
X-855235Y-780396D01*
X-854652Y-779996D01*
X-853985Y-779896D01*
X-853318Y-779996D01*
X-852735Y-780396D01*
X-852235Y-780996D01*
X-851902Y-781696D01*
X-851735Y-782496D01*
Y-783296D01*
X-851902Y-784096D01*
X-852235Y-784796D01*
X-852735Y-785396D01*
X-853318Y-785796D01*
X-853985Y-785896D01*
G01X-848985Y-779896D02*
Y-785896D01*
G01X-850902Y-779896D02*
X-847068D01*
G01X-846068Y-785896D02*
X-843985Y-779896D01*
X-841902Y-785896D01*
G01X-842652Y-783796D02*
X-845318D01*
G01X-840652Y-779896D02*
Y-785896D01*
X-837318D01*
G01X-830652Y-779896D02*
Y-785896D01*
X-827318D01*
G01X-826068D02*
X-823985Y-779896D01*
X-821902Y-785896D01*
G01X-822652Y-783796D02*
X-825318D01*
G01X-818985Y-785896D02*
Y-783196D01*
X-820652Y-779896D01*
G01X-817318D02*
X-818985Y-783196D01*
G01X-812318Y-785896D02*
X-815652D01*
Y-779896D01*
X-812318D01*
G01X-813652Y-782796D02*
X-815652D01*
G01X-810652Y-785896D02*
Y-779896D01*
X-808568D01*
X-807902Y-780196D01*
X-807485Y-780596D01*
X-807318Y-781396D01*
X-807485Y-782196D01*
X-807985Y-782696D01*
X-808568Y-782996D01*
X-810652D01*
G01X-808568D02*
X-807318Y-785896D01*
G01X-803985Y-786096D02*
X-804152Y-785996D01*
Y-785796D01*
X-803985Y-785696D01*
X-803818Y-785796D01*
Y-785996D01*
X-803985Y-786096D01*
G01Y-783396D02*
X-804152Y-783296D01*
Y-783096D01*
X-803985Y-782996D01*
X-803818Y-783096D01*
Y-783296D01*
X-803985Y-783396D01*
G01X-813973Y-1198854D02*
Y-1192854D01*
X-812307D01*
X-811640Y-1193154D01*
X-811140Y-1193554D01*
X-810723Y-1194154D01*
X-810390Y-1194854D01*
X-810307Y-1195854D01*
X-810390Y-1196854D01*
X-810723Y-1197554D01*
X-811140Y-1198154D01*
X-811640Y-1198554D01*
X-812307Y-1198854D01*
X-813973D01*
G01X-809223D02*
X-807140Y-1192854D01*
X-805057Y-1198854D01*
G01X-805807Y-1196754D02*
X-808473D01*
G01X-802140Y-1192854D02*
Y-1198854D01*
G01X-804057Y-1192854D02*
X-800223D01*
G01X-799223Y-1198854D02*
X-797140Y-1192854D01*
X-795057Y-1198854D01*
G01X-795807Y-1196754D02*
X-798473D01*
G01X-820210Y-1219584D02*
X-818543D01*
Y-1221384D01*
X-819043Y-1221984D01*
X-819627Y-1222384D01*
X-820460Y-1222584D01*
X-821293Y-1222384D01*
X-821877Y-1221984D01*
X-822377Y-1221384D01*
X-822710Y-1220684D01*
X-822877Y-1219884D01*
Y-1219184D01*
X-822710Y-1218584D01*
X-822377Y-1217884D01*
X-821877Y-1217284D01*
X-821377Y-1216884D01*
X-820710Y-1216584D01*
X-820127D01*
X-819460Y-1216784D01*
X-818960Y-1217184D01*
G01X-816960Y-1219884D02*
X-814293D01*
X-814543Y-1219184D01*
X-814960Y-1218784D01*
X-815543Y-1218584D01*
X-816127Y-1218684D01*
X-816627Y-1218984D01*
X-816960Y-1219684D01*
X-817127Y-1220284D01*
Y-1220884D01*
X-816960Y-1221484D01*
X-816543Y-1222084D01*
X-816043Y-1222484D01*
X-815460Y-1222584D01*
X-814877Y-1222384D01*
X-814293Y-1221784D01*
G01X-812127Y-1222584D02*
Y-1218584D01*
G01Y-1219584D02*
X-811793Y-1219084D01*
X-811293Y-1218684D01*
X-810627Y-1218584D01*
X-810043Y-1218684D01*
X-809543Y-1219084D01*
X-809293Y-1219784D01*
Y-1222584D01*
G01X-806960Y-1219884D02*
X-804293D01*
X-804543Y-1219184D01*
X-804960Y-1218784D01*
X-805543Y-1218584D01*
X-806127Y-1218684D01*
X-806627Y-1218984D01*
X-806960Y-1219684D01*
X-807127Y-1220284D01*
Y-1220884D01*
X-806960Y-1221484D01*
X-806543Y-1222084D01*
X-806043Y-1222484D01*
X-805460Y-1222584D01*
X-804877Y-1222384D01*
X-804293Y-1221784D01*
G01X-801877Y-1222584D02*
Y-1218584D01*
G01Y-1219384D02*
X-801460Y-1218984D01*
X-801043Y-1218684D01*
X-800460Y-1218584D01*
X-800043Y-1218684D01*
X-799543Y-1218984D01*
G01X-794210Y-1222584D02*
Y-1218584D01*
G01Y-1219284D02*
X-794543Y-1218884D01*
X-795043Y-1218684D01*
X-795627Y-1218584D01*
X-796210Y-1218784D01*
X-796710Y-1219184D01*
X-797043Y-1219784D01*
X-797210Y-1220584D01*
X-797043Y-1221384D01*
X-796710Y-1221984D01*
X-796210Y-1222384D01*
X-795627Y-1222584D01*
X-795043Y-1222484D01*
X-794543Y-1222184D01*
X-794210Y-1221784D01*
G01X-790710Y-1222584D02*
Y-1216584D01*
G01X-808967Y-1154824D02*
X-809467Y-1154524D01*
X-810050Y-1154324D01*
X-810717D01*
X-811467Y-1154624D01*
X-812050Y-1155124D01*
X-812467Y-1155724D01*
X-812800Y-1156724D01*
X-812883Y-1157624D01*
X-812717Y-1158524D01*
X-812467Y-1159124D01*
X-811967Y-1159724D01*
X-811383Y-1160124D01*
X-810800Y-1160324D01*
X-810217D01*
X-809633Y-1160124D01*
X-809133Y-1159824D01*
X-808717Y-1159424D01*
G01X-807967Y-1160324D02*
Y-1154324D01*
X-805800Y-1159324D01*
X-803633Y-1154324D01*
Y-1160324D01*
G01X-802633D02*
Y-1154324D01*
X-800967D01*
X-800300Y-1154624D01*
X-799800Y-1155024D01*
X-799383Y-1155624D01*
X-799050Y-1156324D01*
X-798967Y-1157324D01*
X-799050Y-1158324D01*
X-799383Y-1159024D01*
X-799800Y-1159624D01*
X-800300Y-1160024D01*
X-800967Y-1160324D01*
X-802633D01*
G01X-819643Y-1139184D02*
Y-1133184D01*
X-817977D01*
X-817310Y-1133484D01*
X-816810Y-1133884D01*
X-816393Y-1134484D01*
X-816060Y-1135184D01*
X-815977Y-1136184D01*
X-816060Y-1137184D01*
X-816393Y-1137884D01*
X-816810Y-1138484D01*
X-817310Y-1138884D01*
X-817977Y-1139184D01*
X-819643D01*
G01X-814643D02*
Y-1133184D01*
X-812977D01*
X-812310Y-1133484D01*
X-811810Y-1133884D01*
X-811393Y-1134484D01*
X-811060Y-1135184D01*
X-810977Y-1136184D01*
X-811060Y-1137184D01*
X-811393Y-1137884D01*
X-811810Y-1138484D01*
X-812310Y-1138884D01*
X-812977Y-1139184D01*
X-814643D01*
G01X-809477D02*
Y-1133184D01*
X-807393D01*
X-806727Y-1133484D01*
X-806310Y-1133884D01*
X-806143Y-1134684D01*
X-806310Y-1135484D01*
X-806810Y-1135984D01*
X-807393Y-1136284D01*
X-809477D01*
G01X-807393D02*
X-806143Y-1139184D01*
G01X-799643D02*
Y-1133184D01*
X-797977D01*
X-797310Y-1133484D01*
X-796810Y-1133884D01*
X-796393Y-1134484D01*
X-796060Y-1135184D01*
X-795977Y-1136184D01*
X-796060Y-1137184D01*
X-796393Y-1137884D01*
X-796810Y-1138484D01*
X-797310Y-1138884D01*
X-797977Y-1139184D01*
X-799643D01*
G01X-792810D02*
X-793477Y-1139084D01*
X-794060Y-1138684D01*
X-794560Y-1138084D01*
X-794893Y-1137384D01*
X-795060Y-1136584D01*
Y-1135784D01*
X-794893Y-1134984D01*
X-794560Y-1134284D01*
X-794060Y-1133684D01*
X-793477Y-1133284D01*
X-792810Y-1133184D01*
X-792143Y-1133284D01*
X-791560Y-1133684D01*
X-791060Y-1134284D01*
X-790727Y-1134984D01*
X-790560Y-1135784D01*
Y-1136584D01*
X-790727Y-1137384D01*
X-791060Y-1138084D01*
X-791560Y-1138684D01*
X-792143Y-1139084D01*
X-792810Y-1139184D01*
G01X-792143Y-1137584D02*
X-791143Y-1139184D01*
G01X-789560Y-1138384D02*
X-788893Y-1138884D01*
X-788143Y-1139184D01*
X-787477D01*
X-786810Y-1138884D01*
X-786310Y-1138384D01*
X-786060Y-1137684D01*
X-786227Y-1136984D01*
X-786643Y-1136384D01*
X-787393Y-1135984D01*
X-788393Y-1135784D01*
X-788977Y-1135384D01*
X-789227Y-1134684D01*
X-789060Y-1133984D01*
X-788643Y-1133484D01*
X-788060Y-1133184D01*
X-787477D01*
X-786893Y-1133384D01*
X-786393Y-1133884D01*
G01X-820533Y-1122694D02*
Y-1116694D01*
X-818867D01*
X-818200Y-1116994D01*
X-817700Y-1117394D01*
X-817283Y-1117994D01*
X-816950Y-1118694D01*
X-816867Y-1119694D01*
X-816950Y-1120694D01*
X-817283Y-1121394D01*
X-817700Y-1121994D01*
X-818200Y-1122394D01*
X-818867Y-1122694D01*
X-820533D01*
G01X-815533D02*
Y-1116694D01*
X-813867D01*
X-813200Y-1116994D01*
X-812700Y-1117394D01*
X-812283Y-1117994D01*
X-811950Y-1118694D01*
X-811867Y-1119694D01*
X-811950Y-1120694D01*
X-812283Y-1121394D01*
X-812700Y-1121994D01*
X-813200Y-1122394D01*
X-813867Y-1122694D01*
X-815533D01*
G01X-810367D02*
Y-1116694D01*
X-808283D01*
X-807617Y-1116994D01*
X-807200Y-1117394D01*
X-807033Y-1118194D01*
X-807200Y-1118994D01*
X-807700Y-1119494D01*
X-808283Y-1119794D01*
X-810367D01*
G01X-808283D02*
X-807033Y-1122694D01*
G01X-796867Y-1117194D02*
X-797367Y-1116894D01*
X-797950Y-1116694D01*
X-798617D01*
X-799367Y-1116994D01*
X-799950Y-1117494D01*
X-800367Y-1118094D01*
X-800700Y-1119094D01*
X-800783Y-1119994D01*
X-800617Y-1120894D01*
X-800367Y-1121494D01*
X-799867Y-1122094D01*
X-799283Y-1122494D01*
X-798700Y-1122694D01*
X-798117D01*
X-797533Y-1122494D01*
X-797033Y-1122194D01*
X-796617Y-1121794D01*
G01X-795367Y-1116694D02*
Y-1122694D01*
X-792033D01*
G01X-790533D02*
Y-1116694D01*
G01X-787367D02*
X-790533Y-1120394D01*
G01X-786867Y-1122694D02*
X-789117Y-1118694D01*
G01X-810657Y-1168934D02*
X-811157Y-1168634D01*
X-811740Y-1168434D01*
X-812407D01*
X-813157Y-1168734D01*
X-813740Y-1169234D01*
X-814157Y-1169834D01*
X-814490Y-1170834D01*
X-814573Y-1171734D01*
X-814407Y-1172634D01*
X-814157Y-1173234D01*
X-813657Y-1173834D01*
X-813073Y-1174234D01*
X-812490Y-1174434D01*
X-811907D01*
X-811323Y-1174234D01*
X-810823Y-1173934D01*
X-810407Y-1173534D01*
G01X-807490Y-1168434D02*
Y-1174434D01*
G01X-809407Y-1168434D02*
X-805573D01*
G01X-804157Y-1174434D02*
Y-1168434D01*
X-802073D01*
X-801407Y-1168734D01*
X-800990Y-1169134D01*
X-800823Y-1169934D01*
X-800990Y-1170734D01*
X-801490Y-1171234D01*
X-802073Y-1171534D01*
X-804157D01*
G01X-802073D02*
X-800823Y-1174434D01*
G01X-799157Y-1168434D02*
Y-1174434D01*
X-795823D01*
G01X-799593Y-1049092D02*
Y-1043092D01*
X-797592D01*
X-796926Y-1043392D01*
X-796426Y-1044092D01*
X-796259Y-1044892D01*
X-796426Y-1045692D01*
X-796843Y-1046292D01*
X-797592Y-1046592D01*
X-799593D01*
G01X-791259Y-1049092D02*
X-794592D01*
Y-1043092D01*
X-791259D01*
G01X-792592Y-1045992D02*
X-794592D01*
G01X-787426Y-1046092D02*
X-785759D01*
Y-1047892D01*
X-786259Y-1048492D01*
X-786842Y-1048892D01*
X-787676Y-1049092D01*
X-788509Y-1048892D01*
X-789092Y-1048492D01*
X-789592Y-1047892D01*
X-789926Y-1047192D01*
X-790092Y-1046392D01*
Y-1045692D01*
X-789926Y-1045092D01*
X-789592Y-1044392D01*
X-789092Y-1043792D01*
X-788593Y-1043392D01*
X-787926Y-1043092D01*
X-787342D01*
X-786676Y-1043292D01*
X-786176Y-1043692D01*
G01X-822559Y-1048792D02*
Y-1042792D01*
X-820892D01*
X-820226Y-1043092D01*
X-819726Y-1043492D01*
X-819309Y-1044092D01*
X-818976Y-1044792D01*
X-818893Y-1045792D01*
X-818976Y-1046792D01*
X-819309Y-1047492D01*
X-819726Y-1048092D01*
X-820226Y-1048492D01*
X-820892Y-1048792D01*
X-822559D01*
G01X-817392D02*
Y-1042792D01*
X-815393D01*
X-814726Y-1043092D01*
X-814226Y-1043792D01*
X-814059Y-1044592D01*
X-814226Y-1045392D01*
X-814643Y-1045992D01*
X-815393Y-1046292D01*
X-817392D01*
G01X-822636Y-1059227D02*
Y-1053227D01*
X-820636D01*
X-819970Y-1053527D01*
X-819470Y-1054227D01*
X-819303Y-1055027D01*
X-819470Y-1055827D01*
X-819886Y-1056427D01*
X-820636Y-1056728D01*
X-822636D01*
G01X-814136Y-1053727D02*
X-814636Y-1053427D01*
X-815220Y-1053227D01*
X-815886D01*
X-816637Y-1053527D01*
X-817220Y-1054027D01*
X-817636Y-1054627D01*
X-817970Y-1055627D01*
X-818053Y-1056527D01*
X-817886Y-1057427D01*
X-817636Y-1058027D01*
X-817136Y-1058627D01*
X-816553Y-1059027D01*
X-815970Y-1059227D01*
X-815386D01*
X-814803Y-1059027D01*
X-814303Y-1058727D01*
X-813886Y-1058328D01*
G01X-812720Y-1059227D02*
Y-1053227D01*
G01X-809220D02*
Y-1059227D01*
G01Y-1056227D02*
X-812720D01*
G01X-799136Y-1053727D02*
X-799636Y-1053427D01*
X-800220Y-1053227D01*
X-800886D01*
X-801637Y-1053527D01*
X-802220Y-1054027D01*
X-802636Y-1054627D01*
X-802970Y-1055627D01*
X-803053Y-1056527D01*
X-802886Y-1057427D01*
X-802636Y-1058027D01*
X-802136Y-1058627D01*
X-801553Y-1059027D01*
X-800970Y-1059227D01*
X-800386D01*
X-799803Y-1059027D01*
X-799303Y-1058727D01*
X-798886Y-1058328D01*
G01X-797636Y-1053227D02*
Y-1059227D01*
X-794303D01*
G01X-792803D02*
Y-1053227D01*
G01X-789636D02*
X-792803Y-1056927D01*
G01X-789136Y-1059227D02*
X-791386Y-1055227D01*
G01X-822836Y-1070217D02*
Y-1064217D01*
X-820835D01*
X-820169Y-1064517D01*
X-819669Y-1065217D01*
X-819502Y-1066017D01*
X-819669Y-1066817D01*
X-820085Y-1067417D01*
X-820835Y-1067718D01*
X-822836D01*
G01X-814336Y-1064717D02*
X-814836Y-1064417D01*
X-815419Y-1064217D01*
X-816085D01*
X-816836Y-1064517D01*
X-817419Y-1065017D01*
X-817836Y-1065617D01*
X-818169Y-1066617D01*
X-818252Y-1067517D01*
X-818085Y-1068417D01*
X-817836Y-1069017D01*
X-817335Y-1069617D01*
X-816752Y-1070017D01*
X-816169Y-1070217D01*
X-815585D01*
X-815002Y-1070017D01*
X-814502Y-1069717D01*
X-814085Y-1069318D01*
G01X-812169Y-1064217D02*
X-810169D01*
G01X-811169D02*
Y-1070217D01*
G01X-812169D02*
X-810169D01*
G01X-804502D02*
X-807836D01*
Y-1064217D01*
X-804502D01*
G01X-805836Y-1067117D02*
X-807836D01*
G01X-794336Y-1064717D02*
X-794835Y-1064417D01*
X-795419Y-1064217D01*
X-796085D01*
X-796836Y-1064517D01*
X-797419Y-1065017D01*
X-797836Y-1065617D01*
X-798169Y-1066617D01*
X-798252Y-1067517D01*
X-798085Y-1068417D01*
X-797836Y-1069017D01*
X-797335Y-1069617D01*
X-796752Y-1070017D01*
X-796169Y-1070217D01*
X-795586D01*
X-795002Y-1070017D01*
X-794502Y-1069717D01*
X-794085Y-1069318D01*
G01X-792836Y-1064217D02*
Y-1070217D01*
X-789502D01*
G01X-788002D02*
Y-1064217D01*
G01X-784836D02*
X-788002Y-1067917D01*
G01X-784336Y-1070217D02*
X-786586Y-1066217D01*
G01X-823292Y-1015992D02*
Y-1009992D01*
X-821292D01*
X-820626Y-1010292D01*
X-820126Y-1010992D01*
X-819959Y-1011792D01*
X-820126Y-1012592D01*
X-820542Y-1013192D01*
X-821292Y-1013492D01*
X-823292D01*
G01X-814793Y-1010492D02*
X-815292Y-1010192D01*
X-815876Y-1009992D01*
X-816542D01*
X-817293Y-1010292D01*
X-817876Y-1010792D01*
X-818293Y-1011392D01*
X-818626Y-1012392D01*
X-818709Y-1013292D01*
X-818542Y-1014192D01*
X-818293Y-1014792D01*
X-817792Y-1015392D01*
X-817209Y-1015792D01*
X-816626Y-1015992D01*
X-816042D01*
X-815459Y-1015792D01*
X-814959Y-1015492D01*
X-814542Y-1015092D01*
G01X-813376Y-1015992D02*
Y-1009992D01*
G01X-809876D02*
Y-1015992D01*
G01Y-1012992D02*
X-813376D01*
G01X-803292Y-1015992D02*
Y-1009992D01*
X-801293D01*
X-800626Y-1010292D01*
X-800126Y-1010992D01*
X-799959Y-1011792D01*
X-800126Y-1012592D01*
X-800543Y-1013192D01*
X-801293Y-1013492D01*
X-803292D01*
G01X-794792Y-1010492D02*
X-795292Y-1010192D01*
X-795876Y-1009992D01*
X-796542D01*
X-797293Y-1010292D01*
X-797876Y-1010792D01*
X-798293Y-1011392D01*
X-798626Y-1012392D01*
X-798709Y-1013292D01*
X-798542Y-1014192D01*
X-798293Y-1014792D01*
X-797792Y-1015392D01*
X-797209Y-1015792D01*
X-796626Y-1015992D01*
X-796043D01*
X-795459Y-1015792D01*
X-794959Y-1015492D01*
X-794542Y-1015092D01*
G01X-792626Y-1009992D02*
X-790626D01*
G01X-791626D02*
Y-1015992D01*
G01X-792626D02*
X-790626D01*
G01X-784959D02*
X-788292D01*
Y-1009992D01*
X-784959D01*
G01X-786293Y-1012892D02*
X-788292D01*
G01X-823011Y-1037174D02*
X-822344Y-1037673D01*
X-821594Y-1037973D01*
X-820928D01*
X-820261Y-1037673D01*
X-819761Y-1037174D01*
X-819511Y-1036473D01*
X-819677Y-1035773D01*
X-820094Y-1035173D01*
X-820844Y-1034773D01*
X-821844Y-1034573D01*
X-822427Y-1034173D01*
X-822678Y-1033473D01*
X-822511Y-1032773D01*
X-822094Y-1032273D01*
X-821511Y-1031973D01*
X-820928D01*
X-820344Y-1032173D01*
X-819844Y-1032673D01*
G01X-814761Y-1037973D02*
Y-1033973D01*
G01Y-1034673D02*
X-815094Y-1034273D01*
X-815594Y-1034073D01*
X-816177Y-1033973D01*
X-816761Y-1034173D01*
X-817261Y-1034573D01*
X-817594Y-1035173D01*
X-817761Y-1035973D01*
X-817594Y-1036773D01*
X-817261Y-1037373D01*
X-816761Y-1037773D01*
X-816177Y-1037973D01*
X-815594Y-1037873D01*
X-815094Y-1037573D01*
X-814761Y-1037174D01*
G01X-811261Y-1031973D02*
Y-1037973D01*
G01X-812427Y-1033973D02*
X-810094D01*
G01X-804761Y-1037973D02*
Y-1033973D01*
G01Y-1034673D02*
X-805094Y-1034273D01*
X-805594Y-1034073D01*
X-806177Y-1033973D01*
X-806761Y-1034173D01*
X-807261Y-1034573D01*
X-807594Y-1035173D01*
X-807761Y-1035973D01*
X-807594Y-1036773D01*
X-807261Y-1037373D01*
X-806761Y-1037773D01*
X-806177Y-1037973D01*
X-805594Y-1037873D01*
X-805094Y-1037573D01*
X-804761Y-1037174D01*
G01X-823252Y-1026906D02*
Y-1020906D01*
G01X-819752D02*
Y-1026906D01*
G01Y-1023906D02*
X-823252D01*
G01X-818335Y-1026906D02*
Y-1020906D01*
X-816669D01*
X-816002Y-1021206D01*
X-815502Y-1021606D01*
X-815085Y-1022206D01*
X-814752Y-1022906D01*
X-814668Y-1023906D01*
X-814752Y-1024906D01*
X-815085Y-1025606D01*
X-815502Y-1026206D01*
X-816002Y-1026606D01*
X-816669Y-1026906D01*
X-818335D01*
G01X-813668D02*
Y-1020906D01*
X-811502Y-1025906D01*
X-809335Y-1020906D01*
Y-1026906D01*
G01X-807502Y-1020906D02*
X-805502D01*
G01X-806502D02*
Y-1026906D01*
G01X-807502D02*
X-805502D01*
G01X-793018Y-1031014D02*
Y-1035314D01*
X-792685Y-1036214D01*
X-792018Y-1036814D01*
X-791185Y-1037014D01*
X-790351Y-1036814D01*
X-789685Y-1036214D01*
X-789352Y-1035314D01*
Y-1031014D01*
G01X-787435Y-1036314D02*
X-787018Y-1036714D01*
X-786435Y-1037014D01*
X-785935D01*
X-785435Y-1036814D01*
X-785102Y-1036514D01*
X-784935Y-1036114D01*
X-785018Y-1035514D01*
X-785351Y-1035214D01*
X-786852Y-1034614D01*
X-787185Y-1033914D01*
X-787018Y-1033414D01*
X-786685Y-1033114D01*
X-786185Y-1033014D01*
X-785685Y-1033114D01*
X-785185Y-1033414D01*
G01X-782685Y-1037014D02*
Y-1031014D01*
G01Y-1034014D02*
X-782268Y-1033414D01*
X-781768Y-1033114D01*
X-781268Y-1033014D01*
X-780518Y-1033214D01*
X-780018Y-1033614D01*
X-779685Y-1034314D01*
Y-1035114D01*
X-779852Y-1035914D01*
X-780185Y-1036514D01*
X-780768Y-1036914D01*
X-781268Y-1037014D01*
X-781768Y-1036914D01*
X-782268Y-1036614D01*
X-782685Y-1036114D01*
G01X-792789Y-1027034D02*
Y-1021034D01*
X-791123D01*
X-790456Y-1021334D01*
X-789956Y-1021734D01*
X-789539Y-1022334D01*
X-789206Y-1023034D01*
X-789122Y-1024034D01*
X-789206Y-1025034D01*
X-789539Y-1025734D01*
X-789956Y-1026334D01*
X-790456Y-1026734D01*
X-791123Y-1027034D01*
X-792789D01*
G01X-788456D02*
Y-1023034D01*
G01Y-1024134D02*
X-788206Y-1023634D01*
X-787789Y-1023234D01*
X-787206Y-1023034D01*
X-786623Y-1023234D01*
X-786206Y-1023634D01*
X-785956Y-1024134D01*
Y-1027034D01*
G01Y-1024134D02*
X-785706Y-1023634D01*
X-785289Y-1023234D01*
X-784706Y-1023034D01*
X-784122Y-1023234D01*
X-783706Y-1023634D01*
X-783456Y-1024234D01*
Y-1027034D01*
G01X-780956Y-1023034D02*
Y-1027034D01*
G01Y-1021434D02*
X-781122Y-1021334D01*
Y-1021134D01*
X-780956Y-1021034D01*
X-780789Y-1021134D01*
Y-1021334D01*
X-780956Y-1021434D01*
G01X-822991Y-970769D02*
Y-976769D01*
X-819657D01*
G01X-818407D02*
X-816324Y-970769D01*
X-814241Y-976769D01*
G01X-814991Y-974669D02*
X-817657D01*
G01X-813241Y-976769D02*
Y-970769D01*
X-809407Y-976769D01*
Y-970769D01*
G01X-816509Y-894897D02*
X-815842Y-895397D01*
X-815092Y-895697D01*
X-814426D01*
X-813759Y-895397D01*
X-813259Y-894897D01*
X-813009Y-894197D01*
X-813176Y-893497D01*
X-813592Y-892897D01*
X-814342Y-892497D01*
X-815342Y-892297D01*
X-815926Y-891897D01*
X-816176Y-891197D01*
X-816009Y-890497D01*
X-815592Y-889997D01*
X-815009Y-889697D01*
X-814426D01*
X-813842Y-889897D01*
X-813342Y-890397D01*
G01X-809759Y-891697D02*
Y-895697D01*
G01Y-890097D02*
X-809926Y-889997D01*
Y-889797D01*
X-809759Y-889697D01*
X-809592Y-889797D01*
Y-889997D01*
X-809759Y-890097D01*
G01X-805926Y-897197D02*
X-805342Y-897597D01*
X-804676Y-897697D01*
X-804092Y-897597D01*
X-803592Y-897097D01*
X-803259Y-896397D01*
Y-891697D01*
G01Y-892497D02*
X-803592Y-892097D01*
X-804092Y-891797D01*
X-804676Y-891697D01*
X-805342Y-891897D01*
X-805759Y-892297D01*
X-806092Y-892997D01*
X-806259Y-893697D01*
X-806176Y-894297D01*
X-805842Y-894997D01*
X-805342Y-895497D01*
X-804676Y-895697D01*
X-804176Y-895597D01*
X-803592Y-895197D01*
X-803259Y-894797D01*
G01X-801176Y-895697D02*
Y-891697D01*
G01Y-892697D02*
X-800842Y-892197D01*
X-800342Y-891797D01*
X-799676Y-891697D01*
X-799092Y-891797D01*
X-798592Y-892197D01*
X-798342Y-892897D01*
Y-895697D01*
G01X-793259D02*
Y-891697D01*
G01Y-892397D02*
X-793592Y-891997D01*
X-794092Y-891797D01*
X-794676Y-891697D01*
X-795259Y-891897D01*
X-795759Y-892297D01*
X-796092Y-892897D01*
X-796259Y-893697D01*
X-796092Y-894497D01*
X-795759Y-895097D01*
X-795259Y-895497D01*
X-794676Y-895697D01*
X-794092Y-895597D01*
X-793592Y-895297D01*
X-793259Y-894897D01*
G01X-789759Y-895697D02*
Y-889697D01*
G01X-836050Y-817944D02*
X-835383Y-818444D01*
X-834633Y-818744D01*
X-833967D01*
X-833300Y-818444D01*
X-832800Y-817944D01*
X-832550Y-817244D01*
X-832717Y-816544D01*
X-833133Y-815944D01*
X-833883Y-815544D01*
X-834883Y-815344D01*
X-835467Y-814944D01*
X-835717Y-814244D01*
X-835550Y-813544D01*
X-835133Y-813044D01*
X-834550Y-812744D01*
X-833967D01*
X-833383Y-812944D01*
X-832883Y-813444D01*
G01X-830300Y-812744D02*
X-828300D01*
G01X-829300D02*
Y-818744D01*
G01X-830300D02*
X-828300D01*
G01X-825967Y-812744D02*
Y-818744D01*
X-822633D01*
G01X-821133D02*
Y-812744D01*
G01X-817967D02*
X-821133Y-816444D01*
G01X-817467Y-818744D02*
X-819717Y-814744D01*
G01X-815383Y-816744D02*
X-813217D01*
G01X-808633Y-815544D02*
X-808300Y-815244D01*
X-808050Y-814744D01*
X-807883Y-814044D01*
X-808050Y-813444D01*
X-808383Y-813044D01*
X-808967Y-812744D01*
X-811217D01*
Y-818744D01*
X-808467D01*
X-807883Y-818344D01*
X-807550Y-817744D01*
X-807383Y-817044D01*
X-807550Y-816344D01*
X-808050Y-815744D01*
X-808633Y-815544D01*
X-811217D01*
G01X-804300Y-818744D02*
X-804967Y-818644D01*
X-805550Y-818244D01*
X-806050Y-817644D01*
X-806383Y-816944D01*
X-806550Y-816144D01*
Y-815344D01*
X-806383Y-814544D01*
X-806050Y-813844D01*
X-805550Y-813244D01*
X-804967Y-812844D01*
X-804300Y-812744D01*
X-803633Y-812844D01*
X-803050Y-813244D01*
X-802550Y-813844D01*
X-802217Y-814544D01*
X-802050Y-815344D01*
Y-816144D01*
X-802217Y-816944D01*
X-802550Y-817644D01*
X-803050Y-818244D01*
X-803633Y-818644D01*
X-804300Y-818744D01*
G01X-799300Y-812744D02*
Y-818744D01*
G01X-801217Y-812744D02*
X-797383D01*
G01X-831130Y-796004D02*
X-829963Y-802004D01*
X-828630Y-796004D01*
X-827297Y-802004D01*
X-826130Y-796004D01*
G01X-825797Y-802004D02*
Y-796004D01*
X-823630Y-801004D01*
X-821463Y-796004D01*
Y-802004D01*
G01X-817963Y-798804D02*
X-817630Y-798504D01*
X-817380Y-798004D01*
X-817213Y-797304D01*
X-817380Y-796704D01*
X-817713Y-796304D01*
X-818297Y-796004D01*
X-820547D01*
Y-802004D01*
X-817797D01*
X-817213Y-801604D01*
X-816880Y-801004D01*
X-816713Y-800304D01*
X-816880Y-799604D01*
X-817380Y-799004D01*
X-817963Y-798804D01*
X-820547D01*
G01X-815213Y-799504D02*
X-814630Y-798804D01*
X-814130Y-798404D01*
X-813463Y-798204D01*
X-812880Y-798404D01*
X-812463Y-798804D01*
X-812130Y-799404D01*
X-812047Y-800104D01*
X-812130Y-800704D01*
X-812463Y-801304D01*
X-812963Y-801804D01*
X-813547Y-802004D01*
X-814213Y-801804D01*
X-814797Y-801204D01*
X-815130Y-800304D01*
X-815213Y-799304D01*
X-815047Y-798004D01*
X-814797Y-797304D01*
X-814380Y-796604D01*
X-813797Y-796104D01*
X-813213Y-796004D01*
X-812630Y-796204D01*
X-812213Y-796704D01*
G01X-808630Y-802004D02*
Y-796004D01*
X-809630Y-797204D01*
G01Y-802004D02*
X-807630D01*
G01X-803630Y-796004D02*
X-804297Y-796204D01*
X-804797Y-796704D01*
X-805130Y-797304D01*
X-805380Y-798104D01*
X-805463Y-799004D01*
X-805380Y-799904D01*
X-805130Y-800704D01*
X-804797Y-801304D01*
X-804297Y-801804D01*
X-803630Y-802004D01*
X-802963Y-801804D01*
X-802463Y-801304D01*
X-802130Y-800704D01*
X-801880Y-799904D01*
X-801797Y-799004D01*
X-801880Y-798104D01*
X-802130Y-797304D01*
X-802463Y-796704D01*
X-802963Y-796204D01*
X-803630Y-796004D01*
G01X-800797Y-802004D02*
Y-796004D01*
X-798630Y-801004D01*
X-796463Y-796004D01*
Y-802004D01*
G01X-793630D02*
Y-796004D01*
X-794630Y-797204D01*
G01Y-802004D02*
X-792630D01*
G01X-790463Y-801104D02*
X-789963Y-801604D01*
X-789380Y-801904D01*
X-788630Y-802004D01*
X-787880Y-801804D01*
X-787297Y-801404D01*
X-786880Y-800704D01*
X-786797Y-799904D01*
X-786963Y-799104D01*
X-787380Y-798604D01*
X-787963Y-798204D01*
X-788547Y-798104D01*
X-789130Y-798204D01*
X-789880Y-798604D01*
X-789630Y-796004D01*
X-787380D01*
G01X-791917Y-732084D02*
X-791750Y-730784D01*
X-791500Y-729684D01*
X-791167Y-728684D01*
X-790750Y-727584D01*
X-790083Y-726084D01*
X-793417D01*
G01X-786750Y-732284D02*
X-786917Y-732184D01*
Y-731984D01*
X-786750Y-731884D01*
X-786583Y-731984D01*
Y-732184D01*
X-786750Y-732284D01*
G01X-783333Y-729584D02*
X-782750Y-728884D01*
X-782250Y-728484D01*
X-781583Y-728284D01*
X-781000Y-728484D01*
X-780583Y-728884D01*
X-780250Y-729484D01*
X-780167Y-730184D01*
X-780250Y-730784D01*
X-780583Y-731384D01*
X-781083Y-731884D01*
X-781667Y-732084D01*
X-782333Y-731884D01*
X-782917Y-731284D01*
X-783250Y-730384D01*
X-783333Y-729384D01*
X-783167Y-728084D01*
X-782917Y-727384D01*
X-782500Y-726684D01*
X-781917Y-726184D01*
X-781333Y-726084D01*
X-780750Y-726284D01*
X-780333Y-726784D01*
G01X-776917Y-732084D02*
X-776750Y-730784D01*
X-776500Y-729684D01*
X-776167Y-728684D01*
X-775750Y-727584D01*
X-775083Y-726084D01*
X-778417D01*
G01X-771917Y-732084D02*
X-771750Y-730784D01*
X-771500Y-729684D01*
X-771167Y-728684D01*
X-770750Y-727584D01*
X-770083Y-726084D01*
X-773417D01*
G01X-768500Y-732084D02*
X-765000Y-726084D01*
G01X-768500D02*
X-765000Y-732084D01*
G01X-761750D02*
X-761167Y-731984D01*
X-760500Y-731684D01*
X-760083Y-731184D01*
X-759917Y-730484D01*
X-760083Y-729784D01*
X-760583Y-729184D01*
X-761333Y-728884D01*
X-762167D01*
X-762667Y-728684D01*
X-763083Y-728184D01*
X-763250Y-727484D01*
X-763000Y-726784D01*
X-762417Y-726284D01*
X-761750Y-726084D01*
X-761083Y-726284D01*
X-760500Y-726784D01*
X-760250Y-727484D01*
X-760417Y-728184D01*
X-760833Y-728684D01*
X-761333Y-728884D01*
X-762167D01*
X-762917Y-729184D01*
X-763417Y-729784D01*
X-763583Y-730484D01*
X-763417Y-731184D01*
X-763000Y-731684D01*
X-762333Y-731984D01*
X-761750Y-732084D01*
G01X-756750Y-732284D02*
X-756917Y-732184D01*
Y-731984D01*
X-756750Y-731884D01*
X-756583Y-731984D01*
Y-732184D01*
X-756750Y-732284D01*
G01X-751750Y-732084D02*
X-751167Y-731984D01*
X-750500Y-731684D01*
X-750083Y-731184D01*
X-749917Y-730484D01*
X-750083Y-729784D01*
X-750583Y-729184D01*
X-751333Y-728884D01*
X-752167D01*
X-752667Y-728684D01*
X-753083Y-728184D01*
X-753250Y-727484D01*
X-753000Y-726784D01*
X-752417Y-726284D01*
X-751750Y-726084D01*
X-751083Y-726284D01*
X-750500Y-726784D01*
X-750250Y-727484D01*
X-750417Y-728184D01*
X-750833Y-728684D01*
X-751333Y-728884D01*
X-752167D01*
X-752917Y-729184D01*
X-753417Y-729784D01*
X-753583Y-730484D01*
X-753417Y-731184D01*
X-753000Y-731684D01*
X-752333Y-731984D01*
X-751750Y-732084D01*
G01X-748583Y-731184D02*
X-748083Y-731684D01*
X-747500Y-731984D01*
X-746750Y-732084D01*
X-746000Y-731884D01*
X-745417Y-731484D01*
X-745000Y-730784D01*
X-744917Y-729984D01*
X-745083Y-729184D01*
X-745500Y-728684D01*
X-746083Y-728284D01*
X-746667Y-728184D01*
X-747250Y-728284D01*
X-748000Y-728684D01*
X-747750Y-726084D01*
X-745500D01*
G01X-741750Y-732084D02*
X-741167Y-731984D01*
X-740500Y-731684D01*
X-740083Y-731184D01*
X-739917Y-730484D01*
X-740083Y-729784D01*
X-740583Y-729184D01*
X-741333Y-728884D01*
X-742167D01*
X-742667Y-728684D01*
X-743083Y-728184D01*
X-743250Y-727484D01*
X-743000Y-726784D01*
X-742417Y-726284D01*
X-741750Y-726084D01*
X-741083Y-726284D01*
X-740500Y-726784D01*
X-740250Y-727484D01*
X-740417Y-728184D01*
X-740833Y-728684D01*
X-741333Y-728884D01*
X-742167D01*
X-742917Y-729184D01*
X-743417Y-729784D01*
X-743583Y-730484D01*
X-743417Y-731184D01*
X-743000Y-731684D01*
X-742333Y-731984D01*
X-741750Y-732084D01*
G01X-792643Y-744024D02*
X-792143Y-743424D01*
X-791560Y-743124D01*
X-790893Y-743024D01*
X-790060Y-743224D01*
X-789477Y-743724D01*
X-789310Y-744324D01*
X-789393Y-744924D01*
X-789727Y-745424D01*
X-791393Y-746424D01*
X-792143Y-747124D01*
X-792643Y-748124D01*
X-792810Y-749024D01*
X-789310D01*
G01X-786060Y-743024D02*
X-786727Y-743224D01*
X-787227Y-743724D01*
X-787560Y-744324D01*
X-787810Y-745124D01*
X-787893Y-746024D01*
X-787810Y-746924D01*
X-787560Y-747724D01*
X-787227Y-748324D01*
X-786727Y-748824D01*
X-786060Y-749024D01*
X-785393Y-748824D01*
X-784893Y-748324D01*
X-784560Y-747724D01*
X-784310Y-746924D01*
X-784227Y-746024D01*
X-784310Y-745124D01*
X-784560Y-744324D01*
X-784893Y-743724D01*
X-785393Y-743224D01*
X-786060Y-743024D01*
G01X-782643Y-744024D02*
X-782143Y-743424D01*
X-781560Y-743124D01*
X-780893Y-743024D01*
X-780060Y-743224D01*
X-779477Y-743724D01*
X-779310Y-744324D01*
X-779393Y-744924D01*
X-779727Y-745424D01*
X-781393Y-746424D01*
X-782143Y-747124D01*
X-782643Y-748124D01*
X-782810Y-749024D01*
X-779310D01*
G01X-777893Y-748124D02*
X-777393Y-748624D01*
X-776810Y-748924D01*
X-776060Y-749024D01*
X-775310Y-748824D01*
X-774727Y-748424D01*
X-774310Y-747724D01*
X-774227Y-746924D01*
X-774393Y-746124D01*
X-774810Y-745624D01*
X-775393Y-745224D01*
X-775977Y-745124D01*
X-776560Y-745224D01*
X-777310Y-745624D01*
X-777060Y-743024D01*
X-774810D01*
G01X-772143Y-747024D02*
X-769977D01*
G01X-766060Y-743024D02*
X-766727Y-743224D01*
X-767227Y-743724D01*
X-767560Y-744324D01*
X-767810Y-745124D01*
X-767893Y-746024D01*
X-767810Y-746924D01*
X-767560Y-747724D01*
X-767227Y-748324D01*
X-766727Y-748824D01*
X-766060Y-749024D01*
X-765393Y-748824D01*
X-764893Y-748324D01*
X-764560Y-747724D01*
X-764310Y-746924D01*
X-764227Y-746024D01*
X-764310Y-745124D01*
X-764560Y-744324D01*
X-764893Y-743724D01*
X-765393Y-743224D01*
X-766060Y-743024D01*
G01X-762643Y-746524D02*
X-762060Y-745824D01*
X-761560Y-745424D01*
X-760893Y-745224D01*
X-760310Y-745424D01*
X-759893Y-745824D01*
X-759560Y-746424D01*
X-759477Y-747124D01*
X-759560Y-747724D01*
X-759893Y-748324D01*
X-760393Y-748824D01*
X-760977Y-749024D01*
X-761643Y-748824D01*
X-762227Y-748224D01*
X-762560Y-747324D01*
X-762643Y-746324D01*
X-762477Y-745024D01*
X-762227Y-744324D01*
X-761810Y-743624D01*
X-761227Y-743124D01*
X-760643Y-743024D01*
X-760060Y-743224D01*
X-759643Y-743724D01*
G01X-757143Y-747024D02*
X-754977D01*
G01X-752643Y-744024D02*
X-752143Y-743424D01*
X-751560Y-743124D01*
X-750893Y-743024D01*
X-750060Y-743224D01*
X-749477Y-743724D01*
X-749310Y-744324D01*
X-749393Y-744924D01*
X-749727Y-745424D01*
X-751393Y-746424D01*
X-752143Y-747124D01*
X-752643Y-748124D01*
X-752810Y-749024D01*
X-749310D01*
G01X-745060D02*
Y-743024D01*
X-748143Y-747324D01*
X-743977D01*
G01X-744010Y-1224384D02*
Y-1218384D01*
X-747093Y-1222684D01*
X-742927D01*
G01X-740010Y-1224584D02*
X-740177Y-1224484D01*
Y-1224284D01*
X-740010Y-1224184D01*
X-739843Y-1224284D01*
Y-1224484D01*
X-740010Y-1224584D01*
G01X-736843Y-1223484D02*
X-736343Y-1223984D01*
X-735760Y-1224284D01*
X-735010Y-1224384D01*
X-734260Y-1224184D01*
X-733677Y-1223784D01*
X-733260Y-1223084D01*
X-733177Y-1222284D01*
X-733343Y-1221484D01*
X-733760Y-1220984D01*
X-734343Y-1220584D01*
X-734927Y-1220484D01*
X-735510Y-1220584D01*
X-736260Y-1220984D01*
X-736010Y-1218384D01*
X-733760D01*
G01X-744463Y-1197774D02*
X-743963Y-1198274D01*
X-743380Y-1198574D01*
X-742630Y-1198674D01*
X-741880Y-1198474D01*
X-741297Y-1198074D01*
X-740880Y-1197374D01*
X-740797Y-1196574D01*
X-740963Y-1195774D01*
X-741380Y-1195274D01*
X-741963Y-1194874D01*
X-742547Y-1194774D01*
X-743130Y-1194874D01*
X-743880Y-1195274D01*
X-743630Y-1192674D01*
X-741380D01*
G01X-737630Y-1198874D02*
X-737797Y-1198774D01*
Y-1198574D01*
X-737630Y-1198474D01*
X-737463Y-1198574D01*
Y-1198774D01*
X-737630Y-1198874D01*
G01X-734463Y-1197774D02*
X-733963Y-1198274D01*
X-733380Y-1198574D01*
X-732630Y-1198674D01*
X-731880Y-1198474D01*
X-731297Y-1198074D01*
X-730880Y-1197374D01*
X-730797Y-1196574D01*
X-730963Y-1195774D01*
X-731380Y-1195274D01*
X-731963Y-1194874D01*
X-732547Y-1194774D01*
X-733130Y-1194874D01*
X-733880Y-1195274D01*
X-733630Y-1192674D01*
X-731380D01*
G01X-757603Y-1127144D02*
X-757020Y-1126444D01*
X-756520Y-1126044D01*
X-755853Y-1125844D01*
X-755270Y-1126044D01*
X-754853Y-1126444D01*
X-754520Y-1127044D01*
X-754437Y-1127744D01*
X-754520Y-1128344D01*
X-754853Y-1128944D01*
X-755353Y-1129444D01*
X-755937Y-1129644D01*
X-756603Y-1129444D01*
X-757187Y-1128844D01*
X-757520Y-1127944D01*
X-757603Y-1126944D01*
X-757437Y-1125644D01*
X-757187Y-1124944D01*
X-756770Y-1124244D01*
X-756187Y-1123744D01*
X-755603Y-1123644D01*
X-755020Y-1123844D01*
X-754603Y-1124344D01*
G01X-751020Y-1129844D02*
X-751187Y-1129744D01*
Y-1129544D01*
X-751020Y-1129444D01*
X-750853Y-1129544D01*
Y-1129744D01*
X-751020Y-1129844D01*
G01X-747853Y-1128744D02*
X-747353Y-1129244D01*
X-746770Y-1129544D01*
X-746020Y-1129644D01*
X-745270Y-1129444D01*
X-744687Y-1129044D01*
X-744270Y-1128344D01*
X-744187Y-1127544D01*
X-744353Y-1126744D01*
X-744770Y-1126244D01*
X-745353Y-1125844D01*
X-745937Y-1125744D01*
X-746520Y-1125844D01*
X-747270Y-1126244D01*
X-747020Y-1123644D01*
X-744770D01*
G01X-742520Y-1129844D02*
X-739520Y-1123644D01*
G01X-735020Y-1129644D02*
Y-1123644D01*
X-738103Y-1127944D01*
X-733937D01*
G01X-731020Y-1129844D02*
X-731187Y-1129744D01*
Y-1129544D01*
X-731020Y-1129444D01*
X-730853Y-1129544D01*
Y-1129744D01*
X-731020Y-1129844D01*
G01X-727437Y-1128944D02*
X-726853Y-1129444D01*
X-726187Y-1129644D01*
X-725520Y-1129444D01*
X-724937Y-1128844D01*
X-724520Y-1127944D01*
X-724353Y-1127044D01*
Y-1125944D01*
X-724520Y-1125044D01*
X-724937Y-1124244D01*
X-725437Y-1123844D01*
X-726020Y-1123644D01*
X-726687Y-1123844D01*
X-727187Y-1124244D01*
X-727520Y-1124844D01*
X-727687Y-1125644D01*
X-727520Y-1126344D01*
X-727103Y-1127044D01*
X-726603Y-1127444D01*
X-726020Y-1127544D01*
X-725353Y-1127344D01*
X-724853Y-1126844D01*
X-724353Y-1125944D01*
G01X-722603Y-1124644D02*
X-722103Y-1124044D01*
X-721520Y-1123744D01*
X-720853Y-1123644D01*
X-720020Y-1123844D01*
X-719437Y-1124344D01*
X-719270Y-1124944D01*
X-719353Y-1125544D01*
X-719687Y-1126044D01*
X-721353Y-1127044D01*
X-722103Y-1127744D01*
X-722603Y-1128744D01*
X-722770Y-1129644D01*
X-719270D01*
G01X-742127Y-1169904D02*
X-741960Y-1168604D01*
X-741710Y-1167504D01*
X-741377Y-1166504D01*
X-740960Y-1165404D01*
X-740293Y-1163904D01*
X-743627D01*
G01X-749410Y-1043084D02*
Y-1037084D01*
X-752493Y-1041384D01*
X-748327D01*
G01X-745410Y-1043284D02*
X-745577Y-1043184D01*
Y-1042984D01*
X-745410Y-1042884D01*
X-745243Y-1042984D01*
Y-1043184D01*
X-745410Y-1043284D01*
G01X-742243Y-1042184D02*
X-741743Y-1042684D01*
X-741160Y-1042984D01*
X-740410Y-1043084D01*
X-739660Y-1042884D01*
X-739077Y-1042484D01*
X-738660Y-1041784D01*
X-738577Y-1040984D01*
X-738743Y-1040184D01*
X-739160Y-1039684D01*
X-739743Y-1039284D01*
X-740327Y-1039184D01*
X-740910Y-1039284D01*
X-741660Y-1039684D01*
X-741410Y-1037084D01*
X-739160D01*
G01X-736910Y-1043284D02*
X-733910Y-1037084D01*
G01X-729410Y-1043084D02*
Y-1037084D01*
X-732493Y-1041384D01*
X-728327D01*
G01X-725410Y-1043284D02*
X-725577Y-1043184D01*
Y-1042984D01*
X-725410Y-1042884D01*
X-725243Y-1042984D01*
Y-1043184D01*
X-725410Y-1043284D01*
G01X-722243Y-1042184D02*
X-721743Y-1042684D01*
X-721160Y-1042984D01*
X-720410Y-1043084D01*
X-719660Y-1042884D01*
X-719077Y-1042484D01*
X-718660Y-1041784D01*
X-718577Y-1040984D01*
X-718743Y-1040184D01*
X-719160Y-1039684D01*
X-719743Y-1039284D01*
X-720327Y-1039184D01*
X-720910Y-1039284D01*
X-721660Y-1039684D01*
X-721410Y-1037084D01*
X-719160D01*
G01X-729309Y-930791D02*
X-728142Y-936791D01*
X-726809Y-930791D01*
X-725476Y-936791D01*
X-724309Y-930791D01*
G01X-721809Y-932791D02*
Y-936791D01*
G01Y-931191D02*
X-721976Y-931091D01*
Y-930891D01*
X-721809Y-930791D01*
X-721642Y-930891D01*
Y-931091D01*
X-721809Y-931191D01*
G01X-715309Y-930791D02*
Y-936791D01*
G01Y-935891D02*
X-715642Y-936391D01*
X-716142Y-936691D01*
X-716726Y-936791D01*
X-717392Y-936591D01*
X-717892Y-936091D01*
X-718226Y-935491D01*
X-718309Y-934791D01*
X-718226Y-934091D01*
X-717892Y-933491D01*
X-717392Y-932991D01*
X-716726Y-932791D01*
X-716142Y-932891D01*
X-715726Y-933091D01*
X-715309Y-933491D01*
G01X-711809Y-930791D02*
Y-936791D01*
G01X-712976Y-932791D02*
X-710642D01*
G01X-708226Y-936791D02*
Y-930791D01*
G01Y-933691D02*
X-707809Y-933191D01*
X-707392Y-932891D01*
X-706726Y-932791D01*
X-706226Y-932891D01*
X-705642Y-933291D01*
X-705392Y-933891D01*
Y-936791D01*
G01X-703309Y-936991D02*
X-700309Y-930791D01*
G01X-698559Y-935991D02*
X-697892Y-936491D01*
X-697142Y-936791D01*
X-696476D01*
X-695809Y-936491D01*
X-695309Y-935991D01*
X-695059Y-935291D01*
X-695226Y-934591D01*
X-695642Y-933991D01*
X-696392Y-933591D01*
X-697392Y-933391D01*
X-697976Y-932991D01*
X-698226Y-932291D01*
X-698059Y-931591D01*
X-697642Y-931091D01*
X-697059Y-930791D01*
X-696476D01*
X-695892Y-930991D01*
X-695392Y-931491D01*
G01X-693309Y-938791D02*
Y-932791D01*
G01Y-933691D02*
X-692892Y-933191D01*
X-692476Y-932891D01*
X-691809Y-932791D01*
X-691226Y-932891D01*
X-690642Y-933391D01*
X-690392Y-934091D01*
X-690309Y-934791D01*
X-690392Y-935491D01*
X-690642Y-936191D01*
X-691142Y-936591D01*
X-691809Y-936791D01*
X-692392Y-936691D01*
X-692976Y-936391D01*
X-693309Y-935991D01*
G01X-685309Y-936791D02*
Y-932791D01*
G01Y-933491D02*
X-685642Y-933091D01*
X-686142Y-932891D01*
X-686726Y-932791D01*
X-687309Y-932991D01*
X-687809Y-933391D01*
X-688142Y-933991D01*
X-688309Y-934791D01*
X-688142Y-935591D01*
X-687809Y-936191D01*
X-687309Y-936591D01*
X-686726Y-936791D01*
X-686142Y-936691D01*
X-685642Y-936391D01*
X-685309Y-935991D01*
G01X-680476Y-933291D02*
X-681059Y-932891D01*
X-681559Y-932791D01*
X-682226Y-932991D01*
X-682726Y-933391D01*
X-683059Y-934091D01*
X-683142Y-934791D01*
X-683059Y-935491D01*
X-682726Y-936091D01*
X-682226Y-936591D01*
X-681559Y-936791D01*
X-680976Y-936591D01*
X-680476Y-936191D01*
G01X-676809Y-932791D02*
Y-936791D01*
G01Y-931191D02*
X-676976Y-931091D01*
Y-930891D01*
X-676809Y-930791D01*
X-676642Y-930891D01*
Y-931091D01*
X-676809Y-931191D01*
G01X-673226Y-936791D02*
Y-932791D01*
G01Y-933791D02*
X-672892Y-933291D01*
X-672392Y-932891D01*
X-671726Y-932791D01*
X-671142Y-932891D01*
X-670642Y-933291D01*
X-670392Y-933991D01*
Y-936791D01*
G01X-667976Y-938291D02*
X-667392Y-938691D01*
X-666726Y-938791D01*
X-666142Y-938691D01*
X-665642Y-938191D01*
X-665309Y-937491D01*
Y-932791D01*
G01Y-933591D02*
X-665642Y-933191D01*
X-666142Y-932891D01*
X-666726Y-932791D01*
X-667392Y-932991D01*
X-667809Y-933391D01*
X-668142Y-934091D01*
X-668309Y-934791D01*
X-668226Y-935391D01*
X-667892Y-936091D01*
X-667392Y-936591D01*
X-666726Y-936791D01*
X-666226Y-936691D01*
X-665642Y-936291D01*
X-665309Y-935891D01*
G01X-662226Y-938791D02*
X-663059Y-937791D01*
X-663476Y-936791D01*
Y-932791D01*
X-663059Y-931791D01*
X-662226Y-930791D01*
G01X-659309Y-936791D02*
Y-932791D01*
G01Y-933891D02*
X-659059Y-933391D01*
X-658642Y-932991D01*
X-658059Y-932791D01*
X-657476Y-932991D01*
X-657059Y-933391D01*
X-656809Y-933891D01*
Y-936791D01*
G01Y-933891D02*
X-656559Y-933391D01*
X-656142Y-932991D01*
X-655559Y-932791D01*
X-654976Y-932991D01*
X-654559Y-933391D01*
X-654309Y-933991D01*
Y-936791D01*
G01X-651809Y-932791D02*
Y-936791D01*
G01Y-931191D02*
X-651976Y-931091D01*
Y-930891D01*
X-651809Y-930791D01*
X-651642Y-930891D01*
Y-931091D01*
X-651809Y-931191D01*
G01X-646809Y-936791D02*
Y-930791D01*
G01X-641392Y-938791D02*
X-640559Y-937791D01*
X-640142Y-936791D01*
Y-932791D01*
X-640559Y-931791D01*
X-641392Y-930791D01*
G01X-749110Y-974484D02*
Y-968484D01*
X-752193Y-972784D01*
X-748027D01*
G01X-745110Y-974684D02*
X-745277Y-974584D01*
Y-974384D01*
X-745110Y-974284D01*
X-744943Y-974384D01*
Y-974584D01*
X-745110Y-974684D01*
G01X-740110Y-968484D02*
X-740777Y-968684D01*
X-741277Y-969184D01*
X-741610Y-969784D01*
X-741860Y-970584D01*
X-741943Y-971484D01*
X-741860Y-972384D01*
X-741610Y-973184D01*
X-741277Y-973784D01*
X-740777Y-974284D01*
X-740110Y-974484D01*
X-739443Y-974284D01*
X-738943Y-973784D01*
X-738610Y-973184D01*
X-738360Y-972384D01*
X-738277Y-971484D01*
X-738360Y-970584D01*
X-738610Y-969784D01*
X-738943Y-969184D01*
X-739443Y-968684D01*
X-740110Y-968484D01*
G01X-735110Y-974484D02*
Y-968484D01*
X-736110Y-969684D01*
G01Y-974484D02*
X-734110D01*
G01X-731610Y-974684D02*
X-728610Y-968484D01*
G01X-725110Y-974484D02*
Y-968484D01*
X-726110Y-969684D01*
G01Y-974484D02*
X-724110D01*
G01X-721693Y-969484D02*
X-721193Y-968884D01*
X-720610Y-968584D01*
X-719943Y-968484D01*
X-719110Y-968684D01*
X-718527Y-969184D01*
X-718360Y-969784D01*
X-718443Y-970384D01*
X-718777Y-970884D01*
X-720443Y-971884D01*
X-721193Y-972584D01*
X-721693Y-973584D01*
X-721860Y-974484D01*
X-718360D01*
G01X-743177Y-873984D02*
Y-879984D01*
X-739843D01*
G01X-736510D02*
Y-873984D01*
X-737510Y-875184D01*
G01Y-879984D02*
X-735510D01*
G01X-750177Y-893984D02*
Y-887984D01*
X-748093D01*
X-747427Y-888284D01*
X-747010Y-888684D01*
X-746843Y-889484D01*
X-747010Y-890284D01*
X-747510Y-890784D01*
X-748093Y-891084D01*
X-750177D01*
G01X-748093D02*
X-746843Y-893984D01*
G01X-744760Y-891284D02*
X-742093D01*
X-742343Y-890584D01*
X-742760Y-890184D01*
X-743343Y-889984D01*
X-743927Y-890084D01*
X-744427Y-890384D01*
X-744760Y-891084D01*
X-744927Y-891684D01*
Y-892284D01*
X-744760Y-892884D01*
X-744343Y-893484D01*
X-743843Y-893884D01*
X-743260Y-893984D01*
X-742677Y-893784D01*
X-742093Y-893184D01*
G01X-739010Y-893984D02*
Y-888884D01*
X-738843Y-888384D01*
X-738510Y-888084D01*
X-738010Y-887984D01*
X-737510Y-888184D01*
X-737260Y-888684D01*
G01X-738260Y-890384D02*
X-739927D01*
G01X-735177Y-887984D02*
Y-893984D01*
X-731843D01*
G01X-730093Y-888984D02*
X-729593Y-888384D01*
X-729010Y-888084D01*
X-728343Y-887984D01*
X-727510Y-888184D01*
X-726927Y-888684D01*
X-726760Y-889284D01*
X-726843Y-889884D01*
X-727177Y-890384D01*
X-728843Y-891384D01*
X-729593Y-892084D01*
X-730093Y-893084D01*
X-730260Y-893984D01*
X-726760D01*
G01X-690860Y-1197964D02*
Y-1191964D01*
X-693943Y-1196264D01*
X-689777D01*
G01X-686860Y-1198164D02*
X-687027Y-1198064D01*
Y-1197864D01*
X-686860Y-1197764D01*
X-686693Y-1197864D01*
Y-1198064D01*
X-686860Y-1198164D01*
G01X-683693Y-1197064D02*
X-683193Y-1197564D01*
X-682610Y-1197864D01*
X-681860Y-1197964D01*
X-681110Y-1197764D01*
X-680527Y-1197364D01*
X-680110Y-1196664D01*
X-680027Y-1195864D01*
X-680193Y-1195064D01*
X-680610Y-1194564D01*
X-681193Y-1194164D01*
X-681777Y-1194064D01*
X-682360Y-1194164D01*
X-683110Y-1194564D01*
X-682860Y-1191964D01*
X-680610D01*
G01X-703143Y-1128044D02*
X-702643Y-1128544D01*
X-702060Y-1128844D01*
X-701310Y-1128944D01*
X-700560Y-1128744D01*
X-699977Y-1128344D01*
X-699560Y-1127644D01*
X-699477Y-1126844D01*
X-699643Y-1126044D01*
X-700060Y-1125544D01*
X-700643Y-1125144D01*
X-701227Y-1125044D01*
X-701810Y-1125144D01*
X-702560Y-1125544D01*
X-702310Y-1122944D01*
X-700060D01*
G01X-696310Y-1129144D02*
X-696477Y-1129044D01*
Y-1128844D01*
X-696310Y-1128744D01*
X-696143Y-1128844D01*
Y-1129044D01*
X-696310Y-1129144D01*
G01X-691310Y-1122944D02*
X-691977Y-1123144D01*
X-692477Y-1123644D01*
X-692810Y-1124244D01*
X-693060Y-1125044D01*
X-693143Y-1125944D01*
X-693060Y-1126844D01*
X-692810Y-1127644D01*
X-692477Y-1128244D01*
X-691977Y-1128744D01*
X-691310Y-1128944D01*
X-690643Y-1128744D01*
X-690143Y-1128244D01*
X-689810Y-1127644D01*
X-689560Y-1126844D01*
X-689477Y-1125944D01*
X-689560Y-1125044D01*
X-689810Y-1124244D01*
X-690143Y-1123644D01*
X-690643Y-1123144D01*
X-691310Y-1122944D01*
G01X-687810Y-1129144D02*
X-684810Y-1122944D01*
G01X-683143Y-1128044D02*
X-682643Y-1128544D01*
X-682060Y-1128844D01*
X-681310Y-1128944D01*
X-680560Y-1128744D01*
X-679977Y-1128344D01*
X-679560Y-1127644D01*
X-679477Y-1126844D01*
X-679643Y-1126044D01*
X-680060Y-1125544D01*
X-680643Y-1125144D01*
X-681227Y-1125044D01*
X-681810Y-1125144D01*
X-682560Y-1125544D01*
X-682310Y-1122944D01*
X-680060D01*
G01X-676310Y-1129144D02*
X-676477Y-1129044D01*
Y-1128844D01*
X-676310Y-1128744D01*
X-676143Y-1128844D01*
Y-1129044D01*
X-676310Y-1129144D01*
G01X-671310Y-1122944D02*
X-671977Y-1123144D01*
X-672477Y-1123644D01*
X-672810Y-1124244D01*
X-673060Y-1125044D01*
X-673143Y-1125944D01*
X-673060Y-1126844D01*
X-672810Y-1127644D01*
X-672477Y-1128244D01*
X-671977Y-1128744D01*
X-671310Y-1128944D01*
X-670643Y-1128744D01*
X-670143Y-1128244D01*
X-669810Y-1127644D01*
X-669560Y-1126844D01*
X-669477Y-1125944D01*
X-669560Y-1125044D01*
X-669810Y-1124244D01*
X-670143Y-1123644D01*
X-670643Y-1123144D01*
X-671310Y-1122944D01*
G01X-688377Y-872984D02*
Y-878984D01*
X-685043D01*
G01X-683293Y-873984D02*
X-682793Y-873384D01*
X-682210Y-873084D01*
X-681543Y-872984D01*
X-680710Y-873184D01*
X-680127Y-873684D01*
X-679960Y-874284D01*
X-680043Y-874884D01*
X-680377Y-875384D01*
X-682043Y-876384D01*
X-682793Y-877084D01*
X-683293Y-878084D01*
X-683460Y-878984D01*
X-679960D01*
G01X-705377Y-894484D02*
Y-888484D01*
X-703293D01*
X-702627Y-888784D01*
X-702210Y-889184D01*
X-702043Y-889984D01*
X-702210Y-890784D01*
X-702710Y-891284D01*
X-703293Y-891584D01*
X-705377D01*
G01X-703293D02*
X-702043Y-894484D01*
G01X-699960Y-891784D02*
X-697293D01*
X-697543Y-891084D01*
X-697960Y-890684D01*
X-698543Y-890484D01*
X-699127Y-890584D01*
X-699627Y-890884D01*
X-699960Y-891584D01*
X-700127Y-892184D01*
Y-892784D01*
X-699960Y-893384D01*
X-699543Y-893984D01*
X-699043Y-894384D01*
X-698460Y-894484D01*
X-697877Y-894284D01*
X-697293Y-893684D01*
G01X-694210Y-894484D02*
Y-889384D01*
X-694043Y-888884D01*
X-693710Y-888584D01*
X-693210Y-888484D01*
X-692710Y-888684D01*
X-692460Y-889184D01*
G01X-693460Y-890884D02*
X-695127D01*
G01X-690377Y-888484D02*
Y-894484D01*
X-687043D01*
G01X-683710D02*
Y-888484D01*
X-684710Y-889684D01*
G01Y-894484D02*
X-682710D01*
G01X-680210Y-894684D02*
X-677210Y-888484D01*
G01X-675377D02*
Y-894484D01*
X-672043D01*
G01X-670293Y-891984D02*
X-669710Y-891284D01*
X-669210Y-890884D01*
X-668543Y-890684D01*
X-667960Y-890884D01*
X-667543Y-891284D01*
X-667210Y-891884D01*
X-667127Y-892584D01*
X-667210Y-893184D01*
X-667543Y-893784D01*
X-668043Y-894284D01*
X-668627Y-894484D01*
X-669293Y-894284D01*
X-669877Y-893684D01*
X-670210Y-892784D01*
X-670293Y-891784D01*
X-670127Y-890484D01*
X-669877Y-889784D01*
X-669460Y-889084D01*
X-668877Y-888584D01*
X-668293Y-888484D01*
X-667710Y-888684D01*
X-667293Y-889184D01*
G01X-656577Y-894984D02*
Y-888984D01*
X-654493D01*
X-653827Y-889284D01*
X-653410Y-889684D01*
X-653243Y-890484D01*
X-653410Y-891284D01*
X-653910Y-891784D01*
X-654493Y-892084D01*
X-656577D01*
G01X-654493D02*
X-653243Y-894984D01*
G01X-651160Y-892284D02*
X-648493D01*
X-648743Y-891584D01*
X-649160Y-891184D01*
X-649743Y-890984D01*
X-650327Y-891084D01*
X-650827Y-891384D01*
X-651160Y-892084D01*
X-651327Y-892684D01*
Y-893284D01*
X-651160Y-893884D01*
X-650743Y-894484D01*
X-650243Y-894884D01*
X-649660Y-894984D01*
X-649077Y-894784D01*
X-648493Y-894184D01*
G01X-645410Y-894984D02*
Y-889884D01*
X-645243Y-889384D01*
X-644910Y-889084D01*
X-644410Y-888984D01*
X-643910Y-889184D01*
X-643660Y-889684D01*
G01X-644660Y-891384D02*
X-646327D01*
G01X-641577Y-888984D02*
Y-894984D01*
X-638243D01*
G01X-636493Y-889984D02*
X-635993Y-889384D01*
X-635410Y-889084D01*
X-634743Y-888984D01*
X-633910Y-889184D01*
X-633327Y-889684D01*
X-633160Y-890284D01*
X-633243Y-890884D01*
X-633577Y-891384D01*
X-635243Y-892384D01*
X-635993Y-893084D01*
X-636493Y-894084D01*
X-636660Y-894984D01*
X-633160D01*
G01X-631410Y-895184D02*
X-628410Y-888984D01*
G01X-626577D02*
Y-894984D01*
X-623243D01*
G01X-621743Y-894084D02*
X-621243Y-894584D01*
X-620660Y-894884D01*
X-619910Y-894984D01*
X-619160Y-894784D01*
X-618577Y-894384D01*
X-618160Y-893684D01*
X-618077Y-892884D01*
X-618243Y-892084D01*
X-618660Y-891584D01*
X-619243Y-891184D01*
X-619827Y-891084D01*
X-620410Y-891184D01*
X-621160Y-891584D01*
X-620910Y-888984D01*
X-618660D01*
G01X-644200Y-1222344D02*
Y-1216344D01*
X-647283Y-1220644D01*
X-643117D01*
G01X-640200Y-1222544D02*
X-640367Y-1222444D01*
Y-1222244D01*
X-640200Y-1222144D01*
X-640033Y-1222244D01*
Y-1222444D01*
X-640200Y-1222544D01*
G01X-637033Y-1221444D02*
X-636533Y-1221944D01*
X-635950Y-1222244D01*
X-635200Y-1222344D01*
X-634450Y-1222144D01*
X-633867Y-1221744D01*
X-633450Y-1221044D01*
X-633367Y-1220244D01*
X-633533Y-1219444D01*
X-633950Y-1218944D01*
X-634533Y-1218544D01*
X-635117Y-1218444D01*
X-635700Y-1218544D01*
X-636450Y-1218944D01*
X-636200Y-1216344D01*
X-633950D01*
G01X-586400Y-1223544D02*
Y-1217544D01*
X-589483Y-1221844D01*
X-585317D01*
G01X-582400Y-1223744D02*
X-582567Y-1223644D01*
Y-1223444D01*
X-582400Y-1223344D01*
X-582233Y-1223444D01*
Y-1223644D01*
X-582400Y-1223744D01*
G01X-579233Y-1222644D02*
X-578733Y-1223144D01*
X-578150Y-1223444D01*
X-577400Y-1223544D01*
X-576650Y-1223344D01*
X-576067Y-1222944D01*
X-575650Y-1222244D01*
X-575567Y-1221444D01*
X-575733Y-1220644D01*
X-576150Y-1220144D01*
X-576733Y-1219744D01*
X-577317Y-1219644D01*
X-577900Y-1219744D01*
X-578650Y-1220144D01*
X-578400Y-1217544D01*
X-576150D01*
G01X-595000Y-1046044D02*
Y-1040044D01*
X-598083Y-1044344D01*
X-593917D01*
G01X-591000Y-1046244D02*
X-591167Y-1046144D01*
Y-1045944D01*
X-591000Y-1045844D01*
X-590833Y-1045944D01*
Y-1046144D01*
X-591000Y-1046244D01*
G01X-586000Y-1040044D02*
X-586667Y-1040244D01*
X-587167Y-1040744D01*
X-587500Y-1041344D01*
X-587750Y-1042144D01*
X-587833Y-1043044D01*
X-587750Y-1043944D01*
X-587500Y-1044744D01*
X-587167Y-1045344D01*
X-586667Y-1045844D01*
X-586000Y-1046044D01*
X-585333Y-1045844D01*
X-584833Y-1045344D01*
X-584500Y-1044744D01*
X-584250Y-1043944D01*
X-584167Y-1043044D01*
X-584250Y-1042144D01*
X-584500Y-1041344D01*
X-584833Y-1040744D01*
X-585333Y-1040244D01*
X-586000Y-1040044D01*
G01X-582500Y-1046244D02*
X-579500Y-1040044D01*
G01X-575000Y-1046044D02*
Y-1040044D01*
X-578083Y-1044344D01*
X-573917D01*
G01X-571000Y-1046244D02*
X-571167Y-1046144D01*
Y-1045944D01*
X-571000Y-1045844D01*
X-570833Y-1045944D01*
Y-1046144D01*
X-571000Y-1046244D01*
G01X-567833Y-1045144D02*
X-567333Y-1045644D01*
X-566750Y-1045944D01*
X-566000Y-1046044D01*
X-565250Y-1045844D01*
X-564667Y-1045444D01*
X-564250Y-1044744D01*
X-564167Y-1043944D01*
X-564333Y-1043144D01*
X-564750Y-1042644D01*
X-565333Y-1042244D01*
X-565917Y-1042144D01*
X-566500Y-1042244D01*
X-567250Y-1042644D01*
X-567000Y-1040044D01*
X-564750D01*
G01X-650500Y-1047144D02*
Y-1041144D01*
X-653583Y-1045444D01*
X-649417D01*
G01X-646500Y-1047344D02*
X-646667Y-1047244D01*
Y-1047044D01*
X-646500Y-1046944D01*
X-646333Y-1047044D01*
Y-1047244D01*
X-646500Y-1047344D01*
G01X-641500Y-1041144D02*
X-642167Y-1041344D01*
X-642667Y-1041844D01*
X-643000Y-1042444D01*
X-643250Y-1043244D01*
X-643333Y-1044144D01*
X-643250Y-1045044D01*
X-643000Y-1045844D01*
X-642667Y-1046444D01*
X-642167Y-1046944D01*
X-641500Y-1047144D01*
X-640833Y-1046944D01*
X-640333Y-1046444D01*
X-640000Y-1045844D01*
X-639750Y-1045044D01*
X-639667Y-1044144D01*
X-639750Y-1043244D01*
X-640000Y-1042444D01*
X-640333Y-1041844D01*
X-640833Y-1041344D01*
X-641500Y-1041144D01*
G01X-638000Y-1047344D02*
X-635000Y-1041144D01*
G01X-630500Y-1047144D02*
Y-1041144D01*
X-633583Y-1045444D01*
X-629417D01*
G01X-626500Y-1047344D02*
X-626667Y-1047244D01*
Y-1047044D01*
X-626500Y-1046944D01*
X-626333Y-1047044D01*
Y-1047244D01*
X-626500Y-1047344D01*
G01X-623333Y-1046244D02*
X-622833Y-1046744D01*
X-622250Y-1047044D01*
X-621500Y-1047144D01*
X-620750Y-1046944D01*
X-620167Y-1046544D01*
X-619750Y-1045844D01*
X-619667Y-1045044D01*
X-619833Y-1044244D01*
X-620250Y-1043744D01*
X-620833Y-1043344D01*
X-621417Y-1043244D01*
X-622000Y-1043344D01*
X-622750Y-1043744D01*
X-622500Y-1041144D01*
X-620250D01*
G01X-639577Y-873484D02*
Y-879484D01*
X-636243D01*
G01X-634743Y-878284D02*
X-634243Y-878984D01*
X-633577Y-879384D01*
X-632827Y-879484D01*
X-632160Y-879384D01*
X-631493Y-878884D01*
X-631077Y-878284D01*
X-630993Y-877684D01*
X-631160Y-876984D01*
X-631743Y-876484D01*
X-632327Y-876284D01*
X-633077D01*
G01X-632327D02*
X-631827Y-875984D01*
X-631410Y-875484D01*
X-631243Y-874884D01*
X-631410Y-874284D01*
X-631827Y-873784D01*
X-632577Y-873484D01*
X-633327Y-873584D01*
X-634077Y-873984D01*
G01X-590877Y-874884D02*
Y-880884D01*
X-587543D01*
G01X-583210D02*
Y-874884D01*
X-586293Y-879184D01*
X-582127D01*
G01X-605877Y-893884D02*
Y-887884D01*
X-603793D01*
X-603127Y-888184D01*
X-602710Y-888584D01*
X-602543Y-889384D01*
X-602710Y-890184D01*
X-603210Y-890684D01*
X-603793Y-890984D01*
X-605877D01*
G01X-603793D02*
X-602543Y-893884D01*
G01X-600460Y-891184D02*
X-597793D01*
X-598043Y-890484D01*
X-598460Y-890084D01*
X-599043Y-889884D01*
X-599627Y-889984D01*
X-600127Y-890284D01*
X-600460Y-890984D01*
X-600627Y-891584D01*
Y-892184D01*
X-600460Y-892784D01*
X-600043Y-893384D01*
X-599543Y-893784D01*
X-598960Y-893884D01*
X-598377Y-893684D01*
X-597793Y-893084D01*
G01X-594710Y-893884D02*
Y-888784D01*
X-594543Y-888284D01*
X-594210Y-887984D01*
X-593710Y-887884D01*
X-593210Y-888084D01*
X-592960Y-888584D01*
G01X-593960Y-890284D02*
X-595627D01*
G01X-590877Y-887884D02*
Y-893884D01*
X-587543D01*
G01X-585793Y-888884D02*
X-585293Y-888284D01*
X-584710Y-887984D01*
X-584043Y-887884D01*
X-583210Y-888084D01*
X-582627Y-888584D01*
X-582460Y-889184D01*
X-582543Y-889784D01*
X-582877Y-890284D01*
X-584543Y-891284D01*
X-585293Y-891984D01*
X-585793Y-892984D01*
X-585960Y-893884D01*
X-582460D01*
G01X-580710Y-894084D02*
X-577710Y-887884D01*
G01X-575877D02*
Y-893884D01*
X-572543D01*
G01X-571043Y-892984D02*
X-570543Y-893484D01*
X-569960Y-893784D01*
X-569210Y-893884D01*
X-568460Y-893684D01*
X-567877Y-893284D01*
X-567460Y-892584D01*
X-567377Y-891784D01*
X-567543Y-890984D01*
X-567960Y-890484D01*
X-568543Y-890084D01*
X-569127Y-889984D01*
X-569710Y-890084D01*
X-570460Y-890484D01*
X-570210Y-887884D01*
X-567960D01*
G01X-534300Y-1196944D02*
Y-1190944D01*
X-537383Y-1195244D01*
X-533217D01*
G01X-530300Y-1197144D02*
X-530467Y-1197044D01*
Y-1196844D01*
X-530300Y-1196744D01*
X-530133Y-1196844D01*
Y-1197044D01*
X-530300Y-1197144D01*
G01X-527133Y-1196044D02*
X-526633Y-1196544D01*
X-526050Y-1196844D01*
X-525300Y-1196944D01*
X-524550Y-1196744D01*
X-523967Y-1196344D01*
X-523550Y-1195644D01*
X-523467Y-1194844D01*
X-523633Y-1194044D01*
X-524050Y-1193544D01*
X-524633Y-1193144D01*
X-525217Y-1193044D01*
X-525800Y-1193144D01*
X-526550Y-1193544D01*
X-526300Y-1190944D01*
X-524050D01*
G01X-547533Y-1128344D02*
X-547033Y-1128844D01*
X-546450Y-1129144D01*
X-545700Y-1129244D01*
X-544950Y-1129044D01*
X-544367Y-1128644D01*
X-543950Y-1127944D01*
X-543867Y-1127144D01*
X-544033Y-1126344D01*
X-544450Y-1125844D01*
X-545033Y-1125444D01*
X-545617Y-1125344D01*
X-546200Y-1125444D01*
X-546950Y-1125844D01*
X-546700Y-1123244D01*
X-544450D01*
G01X-540700Y-1129444D02*
X-540867Y-1129344D01*
Y-1129144D01*
X-540700Y-1129044D01*
X-540533Y-1129144D01*
Y-1129344D01*
X-540700Y-1129444D01*
G01X-535700Y-1123244D02*
X-536367Y-1123444D01*
X-536867Y-1123944D01*
X-537200Y-1124544D01*
X-537450Y-1125344D01*
X-537533Y-1126244D01*
X-537450Y-1127144D01*
X-537200Y-1127944D01*
X-536867Y-1128544D01*
X-536367Y-1129044D01*
X-535700Y-1129244D01*
X-535033Y-1129044D01*
X-534533Y-1128544D01*
X-534200Y-1127944D01*
X-533950Y-1127144D01*
X-533867Y-1126244D01*
X-533950Y-1125344D01*
X-534200Y-1124544D01*
X-534533Y-1123944D01*
X-535033Y-1123444D01*
X-535700Y-1123244D01*
G01X-532200Y-1129444D02*
X-529200Y-1123244D01*
G01X-527533Y-1128344D02*
X-527033Y-1128844D01*
X-526450Y-1129144D01*
X-525700Y-1129244D01*
X-524950Y-1129044D01*
X-524367Y-1128644D01*
X-523950Y-1127944D01*
X-523867Y-1127144D01*
X-524033Y-1126344D01*
X-524450Y-1125844D01*
X-525033Y-1125444D01*
X-525617Y-1125344D01*
X-526200Y-1125444D01*
X-526950Y-1125844D01*
X-526700Y-1123244D01*
X-524450D01*
G01X-520700Y-1129444D02*
X-520867Y-1129344D01*
Y-1129144D01*
X-520700Y-1129044D01*
X-520533Y-1129144D01*
Y-1129344D01*
X-520700Y-1129444D01*
G01X-515700Y-1123244D02*
X-516367Y-1123444D01*
X-516867Y-1123944D01*
X-517200Y-1124544D01*
X-517450Y-1125344D01*
X-517533Y-1126244D01*
X-517450Y-1127144D01*
X-517200Y-1127944D01*
X-516867Y-1128544D01*
X-516367Y-1129044D01*
X-515700Y-1129244D01*
X-515033Y-1129044D01*
X-514533Y-1128544D01*
X-514200Y-1127944D01*
X-513950Y-1127144D01*
X-513867Y-1126244D01*
X-513950Y-1125344D01*
X-514200Y-1124544D01*
X-514533Y-1123944D01*
X-515033Y-1123444D01*
X-515700Y-1123244D01*
G01X-538933Y-1166544D02*
X-538433Y-1167044D01*
X-537850Y-1167344D01*
X-537100Y-1167444D01*
X-536350Y-1167244D01*
X-535767Y-1166844D01*
X-535350Y-1166144D01*
X-535267Y-1165344D01*
X-535433Y-1164544D01*
X-535850Y-1164044D01*
X-536433Y-1163644D01*
X-537017Y-1163544D01*
X-537600Y-1163644D01*
X-538350Y-1164044D01*
X-538100Y-1161444D01*
X-535850D01*
G01X-532100Y-1167644D02*
X-532267Y-1167544D01*
Y-1167344D01*
X-532100Y-1167244D01*
X-531933Y-1167344D01*
Y-1167544D01*
X-532100Y-1167644D01*
G01X-527100Y-1161444D02*
X-527767Y-1161644D01*
X-528267Y-1162144D01*
X-528600Y-1162744D01*
X-528850Y-1163544D01*
X-528933Y-1164444D01*
X-528850Y-1165344D01*
X-528600Y-1166144D01*
X-528267Y-1166744D01*
X-527767Y-1167244D01*
X-527100Y-1167444D01*
X-526433Y-1167244D01*
X-525933Y-1166744D01*
X-525600Y-1166144D01*
X-525350Y-1165344D01*
X-525267Y-1164444D01*
X-525350Y-1163544D01*
X-525600Y-1162744D01*
X-525933Y-1162144D01*
X-526433Y-1161644D01*
X-527100Y-1161444D01*
G01X-539977Y-873984D02*
Y-879984D01*
X-536643D01*
G01X-535143Y-879084D02*
X-534643Y-879584D01*
X-534060Y-879884D01*
X-533310Y-879984D01*
X-532560Y-879784D01*
X-531977Y-879384D01*
X-531560Y-878684D01*
X-531477Y-877884D01*
X-531643Y-877084D01*
X-532060Y-876584D01*
X-532643Y-876184D01*
X-533227Y-876084D01*
X-533810Y-876184D01*
X-534560Y-876584D01*
X-534310Y-873984D01*
X-532060D01*
G01X-553767Y-893944D02*
Y-887944D01*
X-551683D01*
X-551017Y-888244D01*
X-550600Y-888644D01*
X-550433Y-889444D01*
X-550600Y-890244D01*
X-551100Y-890744D01*
X-551683Y-891044D01*
X-553767D01*
G01X-551683D02*
X-550433Y-893944D01*
G01X-548350Y-891244D02*
X-545683D01*
X-545933Y-890544D01*
X-546350Y-890144D01*
X-546933Y-889944D01*
X-547517Y-890044D01*
X-548017Y-890344D01*
X-548350Y-891044D01*
X-548517Y-891644D01*
Y-892244D01*
X-548350Y-892844D01*
X-547933Y-893444D01*
X-547433Y-893844D01*
X-546850Y-893944D01*
X-546267Y-893744D01*
X-545683Y-893144D01*
G01X-542600Y-893944D02*
Y-888844D01*
X-542433Y-888344D01*
X-542100Y-888044D01*
X-541600Y-887944D01*
X-541100Y-888144D01*
X-540850Y-888644D01*
G01X-541850Y-890344D02*
X-543517D01*
G01X-538767Y-887944D02*
Y-893944D01*
X-535433D01*
G01X-532100D02*
Y-887944D01*
X-533100Y-889144D01*
G01Y-893944D02*
X-531100D01*
G01X-528600Y-894144D02*
X-525600Y-887944D01*
G01X-523767D02*
Y-893944D01*
X-520433D01*
G01X-518683Y-891444D02*
X-518100Y-890744D01*
X-517600Y-890344D01*
X-516933Y-890144D01*
X-516350Y-890344D01*
X-515933Y-890744D01*
X-515600Y-891344D01*
X-515517Y-892044D01*
X-515600Y-892644D01*
X-515933Y-893244D01*
X-516433Y-893744D01*
X-517017Y-893944D01*
X-517683Y-893744D01*
X-518267Y-893144D01*
X-518600Y-892244D01*
X-518683Y-891244D01*
X-518517Y-889944D01*
X-518267Y-889244D01*
X-517850Y-888544D01*
X-517267Y-888044D01*
X-516683Y-887944D01*
X-516100Y-888144D01*
X-515683Y-888644D01*
G01X-487500Y-1223544D02*
Y-1217544D01*
X-490583Y-1221844D01*
X-486417D01*
G01X-483500Y-1223744D02*
X-483667Y-1223644D01*
Y-1223444D01*
X-483500Y-1223344D01*
X-483333Y-1223444D01*
Y-1223644D01*
X-483500Y-1223744D01*
G01X-480333Y-1222644D02*
X-479833Y-1223144D01*
X-479250Y-1223444D01*
X-478500Y-1223544D01*
X-477750Y-1223344D01*
X-477167Y-1222944D01*
X-476750Y-1222244D01*
X-476667Y-1221444D01*
X-476833Y-1220644D01*
X-477250Y-1220144D01*
X-477833Y-1219744D01*
X-478417Y-1219644D01*
X-479000Y-1219744D01*
X-479750Y-1220144D01*
X-479500Y-1217544D01*
X-477250D01*
G01X-497900Y-1045444D02*
Y-1039444D01*
X-500983Y-1043744D01*
X-496817D01*
G01X-493900Y-1045644D02*
X-494067Y-1045544D01*
Y-1045344D01*
X-493900Y-1045244D01*
X-493733Y-1045344D01*
Y-1045544D01*
X-493900Y-1045644D01*
G01X-490733Y-1044544D02*
X-490233Y-1045044D01*
X-489650Y-1045344D01*
X-488900Y-1045444D01*
X-488150Y-1045244D01*
X-487567Y-1044844D01*
X-487150Y-1044144D01*
X-487067Y-1043344D01*
X-487233Y-1042544D01*
X-487650Y-1042044D01*
X-488233Y-1041644D01*
X-488817Y-1041544D01*
X-489400Y-1041644D01*
X-490150Y-1042044D01*
X-489900Y-1039444D01*
X-487650D01*
G01X-485400Y-1045644D02*
X-482400Y-1039444D01*
G01X-477900Y-1045444D02*
Y-1039444D01*
X-480983Y-1043744D01*
X-476817D01*
G01X-473900Y-1045644D02*
X-474067Y-1045544D01*
Y-1045344D01*
X-473900Y-1045244D01*
X-473733Y-1045344D01*
Y-1045544D01*
X-473900Y-1045644D01*
G01X-470733Y-1044544D02*
X-470233Y-1045044D01*
X-469650Y-1045344D01*
X-468900Y-1045444D01*
X-468150Y-1045244D01*
X-467567Y-1044844D01*
X-467150Y-1044144D01*
X-467067Y-1043344D01*
X-467233Y-1042544D01*
X-467650Y-1042044D01*
X-468233Y-1041644D01*
X-468817Y-1041544D01*
X-469400Y-1041644D01*
X-470150Y-1042044D01*
X-469900Y-1039444D01*
X-467650D01*
G01X-496177Y-894284D02*
Y-888284D01*
X-494093D01*
X-493427Y-888584D01*
X-493010Y-888984D01*
X-492843Y-889784D01*
X-493010Y-890584D01*
X-493510Y-891084D01*
X-494093Y-891384D01*
X-496177D01*
G01X-494093D02*
X-492843Y-894284D01*
G01X-490760Y-891584D02*
X-488093D01*
X-488343Y-890884D01*
X-488760Y-890484D01*
X-489343Y-890284D01*
X-489927Y-890384D01*
X-490427Y-890684D01*
X-490760Y-891384D01*
X-490927Y-891984D01*
Y-892584D01*
X-490760Y-893184D01*
X-490343Y-893784D01*
X-489843Y-894184D01*
X-489260Y-894284D01*
X-488677Y-894084D01*
X-488093Y-893484D01*
G01X-485010Y-894284D02*
Y-889184D01*
X-484843Y-888684D01*
X-484510Y-888384D01*
X-484010Y-888284D01*
X-483510Y-888484D01*
X-483260Y-888984D01*
G01X-484260Y-890684D02*
X-485927D01*
G01X-481177Y-888284D02*
Y-894284D01*
X-477843D01*
G01X-476343Y-893384D02*
X-475843Y-893884D01*
X-475260Y-894184D01*
X-474510Y-894284D01*
X-473760Y-894084D01*
X-473177Y-893684D01*
X-472760Y-892984D01*
X-472677Y-892184D01*
X-472843Y-891384D01*
X-473260Y-890884D01*
X-473843Y-890484D01*
X-474427Y-890384D01*
X-475010Y-890484D01*
X-475760Y-890884D01*
X-475510Y-888284D01*
X-473260D01*
G01X-488177Y-873384D02*
Y-879384D01*
X-484843D01*
G01X-483093Y-876884D02*
X-482510Y-876184D01*
X-482010Y-875784D01*
X-481343Y-875584D01*
X-480760Y-875784D01*
X-480343Y-876184D01*
X-480010Y-876784D01*
X-479927Y-877484D01*
X-480010Y-878084D01*
X-480343Y-878684D01*
X-480843Y-879184D01*
X-481427Y-879384D01*
X-482093Y-879184D01*
X-482677Y-878584D01*
X-483010Y-877684D01*
X-483093Y-876684D01*
X-482927Y-875384D01*
X-482677Y-874684D01*
X-482260Y-873984D01*
X-481677Y-873484D01*
X-481093Y-873384D01*
X-480510Y-873584D01*
X-480093Y-874084D01*
G01X-332740Y-1209909D02*
Y-1215909D01*
G01X-334656Y-1209909D02*
X-330823D01*
G01X-327740Y-1215909D02*
X-328240Y-1215809D01*
X-328740Y-1215409D01*
X-329073Y-1214709D01*
X-329240Y-1213909D01*
X-329073Y-1213109D01*
X-328740Y-1212409D01*
X-328240Y-1212009D01*
X-327740Y-1211909D01*
X-327240Y-1212009D01*
X-326740Y-1212409D01*
X-326407Y-1213109D01*
X-326323Y-1213909D01*
X-326407Y-1214709D01*
X-326740Y-1215409D01*
X-327240Y-1215809D01*
X-327740Y-1215909D01*
G01X-322740Y-1209909D02*
Y-1215909D01*
G01X-323906Y-1211909D02*
X-321573D01*
G01X-316240Y-1215909D02*
Y-1211909D01*
G01Y-1212609D02*
X-316573Y-1212209D01*
X-317073Y-1212009D01*
X-317656Y-1211909D01*
X-318240Y-1212109D01*
X-318740Y-1212509D01*
X-319073Y-1213109D01*
X-319240Y-1213909D01*
X-319073Y-1214709D01*
X-318740Y-1215309D01*
X-318240Y-1215709D01*
X-317656Y-1215909D01*
X-317073Y-1215809D01*
X-316573Y-1215509D01*
X-316240Y-1215109D01*
G01X-312740Y-1215909D02*
Y-1209909D01*
G01X-302740D02*
Y-1215909D01*
G01X-304656Y-1209909D02*
X-300823D01*
G01X-299157Y-1215909D02*
Y-1209909D01*
G01Y-1212809D02*
X-298740Y-1212309D01*
X-298323Y-1212009D01*
X-297656Y-1211909D01*
X-297157Y-1212009D01*
X-296573Y-1212409D01*
X-296323Y-1213009D01*
Y-1215909D01*
G01X-292740Y-1211909D02*
Y-1215909D01*
G01Y-1210309D02*
X-292907Y-1210209D01*
Y-1210009D01*
X-292740Y-1209909D01*
X-292573Y-1210009D01*
Y-1210209D01*
X-292740Y-1210309D01*
G01X-286407Y-1212409D02*
X-286990Y-1212009D01*
X-287490Y-1211909D01*
X-288157Y-1212109D01*
X-288657Y-1212509D01*
X-288990Y-1213209D01*
X-289073Y-1213909D01*
X-288990Y-1214609D01*
X-288657Y-1215209D01*
X-288157Y-1215709D01*
X-287490Y-1215909D01*
X-286906Y-1215709D01*
X-286407Y-1215309D01*
G01X-284157Y-1215909D02*
Y-1209909D01*
G01X-281490Y-1211909D02*
X-284157Y-1214209D01*
G01X-283073Y-1213309D02*
X-281323Y-1215909D01*
G01X-279157D02*
Y-1211909D01*
G01Y-1212909D02*
X-278823Y-1212409D01*
X-278323Y-1212009D01*
X-277656Y-1211909D01*
X-277073Y-1212009D01*
X-276573Y-1212409D01*
X-276323Y-1213109D01*
Y-1215909D01*
G01X-273990Y-1213209D02*
X-271323D01*
X-271573Y-1212509D01*
X-271990Y-1212109D01*
X-272573Y-1211909D01*
X-273157Y-1212009D01*
X-273657Y-1212309D01*
X-273990Y-1213009D01*
X-274157Y-1213609D01*
Y-1214209D01*
X-273990Y-1214809D01*
X-273573Y-1215409D01*
X-273073Y-1215809D01*
X-272490Y-1215909D01*
X-271906Y-1215709D01*
X-271323Y-1215109D01*
G01X-268990Y-1215209D02*
X-268573Y-1215609D01*
X-267990Y-1215909D01*
X-267490D01*
X-266990Y-1215709D01*
X-266657Y-1215409D01*
X-266490Y-1215009D01*
X-266573Y-1214409D01*
X-266906Y-1214109D01*
X-268407Y-1213509D01*
X-268740Y-1212809D01*
X-268573Y-1212309D01*
X-268240Y-1212009D01*
X-267740Y-1211909D01*
X-267240Y-1212009D01*
X-266740Y-1212309D01*
G01X-263990Y-1215209D02*
X-263573Y-1215609D01*
X-262990Y-1215909D01*
X-262490D01*
X-261990Y-1215709D01*
X-261657Y-1215409D01*
X-261490Y-1215009D01*
X-261573Y-1214409D01*
X-261906Y-1214109D01*
X-263407Y-1213509D01*
X-263740Y-1212809D01*
X-263573Y-1212309D01*
X-263240Y-1212009D01*
X-262740Y-1211909D01*
X-262240Y-1212009D01*
X-261740Y-1212309D01*
G01X-331990Y-902609D02*
X-331323Y-903109D01*
X-330573Y-903409D01*
X-329907D01*
X-329240Y-903109D01*
X-328740Y-902609D01*
X-328490Y-901909D01*
X-328656Y-901209D01*
X-329073Y-900609D01*
X-329823Y-900209D01*
X-330823Y-900009D01*
X-331406Y-899609D01*
X-331657Y-898909D01*
X-331490Y-898209D01*
X-331073Y-897709D01*
X-330490Y-897409D01*
X-329907D01*
X-329323Y-897609D01*
X-328823Y-898109D01*
G01X-325240Y-897409D02*
Y-903409D01*
G01X-326406Y-899409D02*
X-324073D01*
G01X-318740Y-903409D02*
Y-899409D01*
G01Y-900109D02*
X-319073Y-899709D01*
X-319573Y-899509D01*
X-320156Y-899409D01*
X-320740Y-899609D01*
X-321240Y-900009D01*
X-321573Y-900609D01*
X-321740Y-901409D01*
X-321573Y-902209D01*
X-321240Y-902809D01*
X-320740Y-903209D01*
X-320156Y-903409D01*
X-319573Y-903309D01*
X-319073Y-903009D01*
X-318740Y-902609D01*
G01X-313907Y-899909D02*
X-314490Y-899509D01*
X-314990Y-899409D01*
X-315657Y-899609D01*
X-316157Y-900009D01*
X-316490Y-900709D01*
X-316573Y-901409D01*
X-316490Y-902109D01*
X-316157Y-902709D01*
X-315657Y-903209D01*
X-314990Y-903409D01*
X-314407Y-903209D01*
X-313907Y-902809D01*
G01X-311657Y-903409D02*
Y-897409D01*
G01X-308990Y-899409D02*
X-311657Y-901709D01*
G01X-310573Y-900809D02*
X-308823Y-903409D01*
G01X-306657Y-899409D02*
Y-902209D01*
X-306323Y-902909D01*
X-305823Y-903309D01*
X-305240Y-903409D01*
X-304657Y-903309D01*
X-304157Y-902909D01*
X-303823Y-902209D01*
G01Y-903409D02*
Y-899409D01*
G01X-301740Y-905409D02*
Y-899409D01*
G01Y-900309D02*
X-301323Y-899809D01*
X-300907Y-899509D01*
X-300240Y-899409D01*
X-299657Y-899509D01*
X-299073Y-900009D01*
X-298823Y-900709D01*
X-298740Y-901409D01*
X-298823Y-902109D01*
X-299073Y-902809D01*
X-299573Y-903209D01*
X-300240Y-903409D01*
X-300823Y-903309D01*
X-301406Y-903009D01*
X-301740Y-902609D01*
G01X-309533Y-1188644D02*
X-309200Y-1188344D01*
X-308950Y-1187844D01*
X-308783Y-1187144D01*
X-308950Y-1186544D01*
X-309283Y-1186144D01*
X-309867Y-1185844D01*
X-312117D01*
Y-1191844D01*
X-309367D01*
X-308783Y-1191444D01*
X-308450Y-1190844D01*
X-308283Y-1190144D01*
X-308450Y-1189444D01*
X-308950Y-1188844D01*
X-309533Y-1188644D01*
X-312117D01*
G01X-305200Y-1191844D02*
X-305867Y-1191744D01*
X-306450Y-1191344D01*
X-306950Y-1190744D01*
X-307283Y-1190044D01*
X-307450Y-1189244D01*
Y-1188444D01*
X-307283Y-1187644D01*
X-306950Y-1186944D01*
X-306450Y-1186344D01*
X-305867Y-1185944D01*
X-305200Y-1185844D01*
X-304533Y-1185944D01*
X-303950Y-1186344D01*
X-303450Y-1186944D01*
X-303117Y-1187644D01*
X-302950Y-1188444D01*
Y-1189244D01*
X-303117Y-1190044D01*
X-303450Y-1190744D01*
X-303950Y-1191344D01*
X-304533Y-1191744D01*
X-305200Y-1191844D01*
G01X-300200Y-1185844D02*
Y-1191844D01*
G01X-302117Y-1185844D02*
X-298283D01*
G01X-295200D02*
Y-1191844D01*
G01X-297117Y-1185844D02*
X-293283D01*
G01X-290200Y-1191844D02*
X-290867Y-1191744D01*
X-291450Y-1191344D01*
X-291950Y-1190744D01*
X-292283Y-1190044D01*
X-292450Y-1189244D01*
Y-1188444D01*
X-292283Y-1187644D01*
X-291950Y-1186944D01*
X-291450Y-1186344D01*
X-290867Y-1185944D01*
X-290200Y-1185844D01*
X-289533Y-1185944D01*
X-288950Y-1186344D01*
X-288450Y-1186944D01*
X-288117Y-1187644D01*
X-287950Y-1188444D01*
Y-1189244D01*
X-288117Y-1190044D01*
X-288450Y-1190744D01*
X-288950Y-1191344D01*
X-289533Y-1191744D01*
X-290200Y-1191844D01*
G01X-287367D02*
Y-1185844D01*
X-285200Y-1190844D01*
X-283033Y-1185844D01*
Y-1191844D01*
G01X-311267Y-1133844D02*
Y-1139844D01*
X-307933D01*
G01X-306433Y-1138944D02*
X-305933Y-1139444D01*
X-305350Y-1139744D01*
X-304600Y-1139844D01*
X-303850Y-1139644D01*
X-303267Y-1139244D01*
X-302850Y-1138544D01*
X-302767Y-1137744D01*
X-302933Y-1136944D01*
X-303350Y-1136444D01*
X-303933Y-1136044D01*
X-304517Y-1135944D01*
X-305100Y-1136044D01*
X-305850Y-1136444D01*
X-305600Y-1133844D01*
X-303350D01*
G01X-300683Y-1137844D02*
X-298517D01*
G01X-294100Y-1136844D02*
X-292433D01*
Y-1138644D01*
X-292933Y-1139244D01*
X-293517Y-1139644D01*
X-294350Y-1139844D01*
X-295183Y-1139644D01*
X-295767Y-1139244D01*
X-296267Y-1138644D01*
X-296600Y-1137944D01*
X-296767Y-1137144D01*
Y-1136444D01*
X-296600Y-1135844D01*
X-296267Y-1135144D01*
X-295767Y-1134544D01*
X-295267Y-1134144D01*
X-294600Y-1133844D01*
X-294017D01*
X-293350Y-1134044D01*
X-292850Y-1134444D01*
G01X-291517Y-1139844D02*
Y-1133844D01*
X-287683Y-1139844D01*
Y-1133844D01*
G01X-286433Y-1139844D02*
Y-1133844D01*
X-284767D01*
X-284100Y-1134144D01*
X-283600Y-1134544D01*
X-283183Y-1135144D01*
X-282850Y-1135844D01*
X-282767Y-1136844D01*
X-282850Y-1137844D01*
X-283183Y-1138544D01*
X-283600Y-1139144D01*
X-284100Y-1139544D01*
X-284767Y-1139844D01*
X-286433D01*
G01X-312306Y-1083942D02*
Y-1089942D01*
X-308972D01*
G01X-304639D02*
Y-1083942D01*
X-307722Y-1088242D01*
X-303556D01*
G01X-301722Y-1087942D02*
X-299556D01*
G01X-297389Y-1089142D02*
X-296722Y-1089642D01*
X-295972Y-1089942D01*
X-295306D01*
X-294639Y-1089642D01*
X-294139Y-1089142D01*
X-293889Y-1088442D01*
X-294056Y-1087742D01*
X-294472Y-1087142D01*
X-295222Y-1086742D01*
X-296222Y-1086542D01*
X-296806Y-1086142D01*
X-297056Y-1085442D01*
X-296889Y-1084742D01*
X-296472Y-1084242D01*
X-295889Y-1083942D01*
X-295306D01*
X-294722Y-1084142D01*
X-294222Y-1084642D01*
G01X-291639Y-1083942D02*
X-289639D01*
G01X-290639D02*
Y-1089942D01*
G01X-291639D02*
X-289639D01*
G01X-285139Y-1086942D02*
X-283472D01*
Y-1088742D01*
X-283972Y-1089342D01*
X-284556Y-1089742D01*
X-285389Y-1089942D01*
X-286222Y-1089742D01*
X-286806Y-1089342D01*
X-287306Y-1088742D01*
X-287639Y-1088042D01*
X-287806Y-1087242D01*
Y-1086542D01*
X-287639Y-1085942D01*
X-287306Y-1085242D01*
X-286806Y-1084642D01*
X-286306Y-1084242D01*
X-285639Y-1083942D01*
X-285056D01*
X-284389Y-1084142D01*
X-283889Y-1084542D01*
G01X-311906Y-1034342D02*
Y-1040342D01*
X-308572D01*
G01X-307072Y-1039142D02*
X-306572Y-1039842D01*
X-305906Y-1040242D01*
X-305156Y-1040342D01*
X-304489Y-1040242D01*
X-303822Y-1039742D01*
X-303406Y-1039142D01*
X-303322Y-1038542D01*
X-303489Y-1037842D01*
X-304072Y-1037342D01*
X-304656Y-1037142D01*
X-305406D01*
G01X-304656D02*
X-304156Y-1036842D01*
X-303739Y-1036342D01*
X-303572Y-1035742D01*
X-303739Y-1035142D01*
X-304156Y-1034642D01*
X-304906Y-1034342D01*
X-305656Y-1034442D01*
X-306406Y-1034842D01*
G01X-301322Y-1038342D02*
X-299156D01*
G01X-296989Y-1039542D02*
X-296322Y-1040042D01*
X-295572Y-1040342D01*
X-294906D01*
X-294239Y-1040042D01*
X-293739Y-1039542D01*
X-293489Y-1038842D01*
X-293656Y-1038142D01*
X-294072Y-1037542D01*
X-294822Y-1037142D01*
X-295822Y-1036942D01*
X-296406Y-1036542D01*
X-296656Y-1035842D01*
X-296489Y-1035142D01*
X-296072Y-1034642D01*
X-295489Y-1034342D01*
X-294906D01*
X-294322Y-1034542D01*
X-293822Y-1035042D01*
G01X-291239Y-1034342D02*
X-289239D01*
G01X-290239D02*
Y-1040342D01*
G01X-291239D02*
X-289239D01*
G01X-284739Y-1037342D02*
X-283072D01*
Y-1039142D01*
X-283572Y-1039742D01*
X-284156Y-1040142D01*
X-284989Y-1040342D01*
X-285822Y-1040142D01*
X-286406Y-1039742D01*
X-286906Y-1039142D01*
X-287239Y-1038442D01*
X-287406Y-1037642D01*
Y-1036942D01*
X-287239Y-1036342D01*
X-286906Y-1035642D01*
X-286406Y-1035042D01*
X-285906Y-1034642D01*
X-285239Y-1034342D01*
X-284656D01*
X-283989Y-1034542D01*
X-283489Y-1034942D01*
G01X-310567Y-985944D02*
Y-991944D01*
X-307233D01*
G01X-305483Y-986944D02*
X-304983Y-986344D01*
X-304400Y-986044D01*
X-303733Y-985944D01*
X-302900Y-986144D01*
X-302317Y-986644D01*
X-302150Y-987244D01*
X-302233Y-987844D01*
X-302567Y-988344D01*
X-304233Y-989344D01*
X-304983Y-990044D01*
X-305483Y-991044D01*
X-305650Y-991944D01*
X-302150D01*
G01X-299983Y-989944D02*
X-297817D01*
G01X-293400Y-988944D02*
X-291733D01*
Y-990744D01*
X-292233Y-991344D01*
X-292817Y-991744D01*
X-293650Y-991944D01*
X-294483Y-991744D01*
X-295067Y-991344D01*
X-295567Y-990744D01*
X-295900Y-990044D01*
X-296067Y-989244D01*
Y-988544D01*
X-295900Y-987944D01*
X-295567Y-987244D01*
X-295067Y-986644D01*
X-294567Y-986244D01*
X-293900Y-985944D01*
X-293317D01*
X-292650Y-986144D01*
X-292150Y-986544D01*
G01X-290817Y-991944D02*
Y-985944D01*
X-286983Y-991944D01*
Y-985944D01*
G01X-285733Y-991944D02*
Y-985944D01*
X-284067D01*
X-283400Y-986244D01*
X-282900Y-986644D01*
X-282483Y-987244D01*
X-282150Y-987944D01*
X-282067Y-988944D01*
X-282150Y-989944D01*
X-282483Y-990644D01*
X-282900Y-991244D01*
X-283400Y-991644D01*
X-284067Y-991944D01*
X-285733D01*
G01X-308600Y-936044D02*
Y-942044D01*
G01X-310517Y-936044D02*
X-306683D01*
G01X-303600Y-942044D02*
X-304267Y-941944D01*
X-304850Y-941544D01*
X-305350Y-940944D01*
X-305683Y-940244D01*
X-305850Y-939444D01*
Y-938644D01*
X-305683Y-937844D01*
X-305350Y-937144D01*
X-304850Y-936544D01*
X-304267Y-936144D01*
X-303600Y-936044D01*
X-302933Y-936144D01*
X-302350Y-936544D01*
X-301850Y-937144D01*
X-301517Y-937844D01*
X-301350Y-938644D01*
Y-939444D01*
X-301517Y-940244D01*
X-301850Y-940944D01*
X-302350Y-941544D01*
X-302933Y-941944D01*
X-303600Y-942044D01*
G01X-300267D02*
Y-936044D01*
X-298267D01*
X-297600Y-936344D01*
X-297100Y-937044D01*
X-296933Y-937844D01*
X-297100Y-938644D01*
X-297517Y-939244D01*
X-298267Y-939544D01*
X-300267D01*
G01X-249690Y-1191109D02*
Y-1185109D01*
X-250690Y-1186309D01*
G01Y-1191109D02*
X-248690D01*
G01X-246190Y-1191309D02*
X-243190Y-1185109D01*
G01X-241273Y-1186109D02*
X-240773Y-1185509D01*
X-240190Y-1185209D01*
X-239523Y-1185109D01*
X-238690Y-1185309D01*
X-238106Y-1185809D01*
X-237940Y-1186409D01*
X-238023Y-1187009D01*
X-238357Y-1187509D01*
X-240023Y-1188509D01*
X-240773Y-1189209D01*
X-241273Y-1190209D01*
X-241440Y-1191109D01*
X-237940D01*
G01X-229690D02*
X-230357Y-1191009D01*
X-230940Y-1190609D01*
X-231440Y-1190009D01*
X-231773Y-1189309D01*
X-231940Y-1188509D01*
Y-1187709D01*
X-231773Y-1186909D01*
X-231440Y-1186209D01*
X-230940Y-1185609D01*
X-230357Y-1185209D01*
X-229690Y-1185109D01*
X-229023Y-1185209D01*
X-228440Y-1185609D01*
X-227940Y-1186209D01*
X-227606Y-1186909D01*
X-227440Y-1187709D01*
Y-1188509D01*
X-227606Y-1189309D01*
X-227940Y-1190009D01*
X-228440Y-1190609D01*
X-229023Y-1191009D01*
X-229690Y-1191109D01*
G01X-226273Y-1185109D02*
X-223106D01*
X-226273Y-1191109D01*
X-223106D01*
G01X-216190Y-1193109D02*
Y-1187109D01*
G01Y-1188009D02*
X-215773Y-1187509D01*
X-215357Y-1187209D01*
X-214690Y-1187109D01*
X-214107Y-1187209D01*
X-213523Y-1187709D01*
X-213273Y-1188409D01*
X-213190Y-1189109D01*
X-213273Y-1189809D01*
X-213523Y-1190509D01*
X-214023Y-1190909D01*
X-214690Y-1191109D01*
X-215273Y-1191009D01*
X-215857Y-1190709D01*
X-216190Y-1190309D01*
G01X-209690Y-1191109D02*
Y-1185109D01*
G01X-203190Y-1191109D02*
Y-1187109D01*
G01Y-1187809D02*
X-203523Y-1187409D01*
X-204023Y-1187209D01*
X-204606Y-1187109D01*
X-205190Y-1187309D01*
X-205690Y-1187709D01*
X-206023Y-1188309D01*
X-206190Y-1189109D01*
X-206023Y-1189909D01*
X-205690Y-1190509D01*
X-205190Y-1190909D01*
X-204606Y-1191109D01*
X-204023Y-1191009D01*
X-203523Y-1190709D01*
X-203190Y-1190309D01*
G01X-199690Y-1185109D02*
Y-1191109D01*
G01X-200856Y-1187109D02*
X-198523D01*
G01X-195940Y-1188409D02*
X-193273D01*
X-193523Y-1187709D01*
X-193940Y-1187309D01*
X-194523Y-1187109D01*
X-195107Y-1187209D01*
X-195607Y-1187509D01*
X-195940Y-1188209D01*
X-196107Y-1188809D01*
Y-1189409D01*
X-195940Y-1190009D01*
X-195523Y-1190609D01*
X-195023Y-1191009D01*
X-194440Y-1191109D01*
X-193856Y-1190909D01*
X-193273Y-1190309D01*
G01X-184690Y-1185109D02*
Y-1191109D01*
G01X-185856Y-1187109D02*
X-183523D01*
G01X-179690Y-1191109D02*
X-180190Y-1191009D01*
X-180690Y-1190609D01*
X-181023Y-1189909D01*
X-181190Y-1189109D01*
X-181023Y-1188309D01*
X-180690Y-1187609D01*
X-180190Y-1187209D01*
X-179690Y-1187109D01*
X-179190Y-1187209D01*
X-178690Y-1187609D01*
X-178357Y-1188309D01*
X-178273Y-1189109D01*
X-178357Y-1189909D01*
X-178690Y-1190609D01*
X-179190Y-1191009D01*
X-179690Y-1191109D01*
G01X-169690D02*
Y-1185109D01*
X-170690Y-1186309D01*
G01Y-1191109D02*
X-168690D01*
G01X-164690D02*
X-165357Y-1191009D01*
X-165940Y-1190609D01*
X-166440Y-1190009D01*
X-166773Y-1189309D01*
X-166940Y-1188509D01*
Y-1187709D01*
X-166773Y-1186909D01*
X-166440Y-1186209D01*
X-165940Y-1185609D01*
X-165357Y-1185209D01*
X-164690Y-1185109D01*
X-164023Y-1185209D01*
X-163440Y-1185609D01*
X-162940Y-1186209D01*
X-162606Y-1186909D01*
X-162440Y-1187709D01*
Y-1188509D01*
X-162606Y-1189309D01*
X-162940Y-1190009D01*
X-163440Y-1190609D01*
X-164023Y-1191009D01*
X-164690Y-1191109D01*
G01X-160940Y-1187109D02*
X-158440D01*
X-160940Y-1191109D01*
X-158440D01*
G01X-208490Y-1217109D02*
Y-1211109D01*
X-209490Y-1212309D01*
G01Y-1217109D02*
X-207490D01*
G01X-203490Y-1217309D02*
X-203657Y-1217209D01*
Y-1217009D01*
X-203490Y-1216909D01*
X-203323Y-1217009D01*
Y-1217209D01*
X-203490Y-1217309D01*
G01X-200073Y-1214609D02*
X-199490Y-1213909D01*
X-198990Y-1213509D01*
X-198323Y-1213309D01*
X-197740Y-1213509D01*
X-197323Y-1213909D01*
X-196990Y-1214509D01*
X-196906Y-1215209D01*
X-196990Y-1215809D01*
X-197323Y-1216409D01*
X-197823Y-1216909D01*
X-198407Y-1217109D01*
X-199073Y-1216909D01*
X-199656Y-1216309D01*
X-199990Y-1215409D01*
X-200073Y-1214409D01*
X-199907Y-1213109D01*
X-199656Y-1212409D01*
X-199240Y-1211709D01*
X-198657Y-1211209D01*
X-198073Y-1211109D01*
X-197490Y-1211309D01*
X-197073Y-1211809D01*
G01X-195990Y-1217109D02*
Y-1213109D01*
G01Y-1214209D02*
X-195740Y-1213709D01*
X-195323Y-1213309D01*
X-194740Y-1213109D01*
X-194157Y-1213309D01*
X-193740Y-1213709D01*
X-193490Y-1214209D01*
Y-1217109D01*
G01Y-1214209D02*
X-193240Y-1213709D01*
X-192823Y-1213309D01*
X-192240Y-1213109D01*
X-191657Y-1213309D01*
X-191240Y-1213709D01*
X-190990Y-1214309D01*
Y-1217109D01*
G01D02*
Y-1213109D01*
G01Y-1214209D02*
X-190740Y-1213709D01*
X-190323Y-1213309D01*
X-189740Y-1213109D01*
X-189157Y-1213309D01*
X-188740Y-1213709D01*
X-188490Y-1214209D01*
Y-1217109D01*
G01Y-1214209D02*
X-188240Y-1213709D01*
X-187823Y-1213309D01*
X-187240Y-1213109D01*
X-186657Y-1213309D01*
X-186240Y-1213709D01*
X-185990Y-1214309D01*
Y-1217109D01*
G01X-184407Y-1215109D02*
X-182407D01*
G01X-183490Y-1213809D02*
Y-1216409D01*
G01X-179990Y-1217309D02*
X-176990Y-1211109D01*
G01X-174573Y-1215109D02*
X-172407D01*
G01X-168490Y-1211109D02*
X-169157Y-1211309D01*
X-169656Y-1211809D01*
X-169990Y-1212409D01*
X-170240Y-1213209D01*
X-170323Y-1214109D01*
X-170240Y-1215009D01*
X-169990Y-1215809D01*
X-169656Y-1216409D01*
X-169157Y-1216909D01*
X-168490Y-1217109D01*
X-167823Y-1216909D01*
X-167323Y-1216409D01*
X-166990Y-1215809D01*
X-166740Y-1215009D01*
X-166657Y-1214109D01*
X-166740Y-1213209D01*
X-166990Y-1212409D01*
X-167323Y-1211809D01*
X-167823Y-1211309D01*
X-168490Y-1211109D01*
G01X-163490Y-1217309D02*
X-163657Y-1217209D01*
Y-1217009D01*
X-163490Y-1216909D01*
X-163323Y-1217009D01*
Y-1217209D01*
X-163490Y-1217309D01*
G01X-158490Y-1217109D02*
Y-1211109D01*
X-159490Y-1212309D01*
G01Y-1217109D02*
X-157490D01*
G01X-155323Y-1216209D02*
X-154823Y-1216709D01*
X-154240Y-1217009D01*
X-153490Y-1217109D01*
X-152740Y-1216909D01*
X-152157Y-1216509D01*
X-151740Y-1215809D01*
X-151657Y-1215009D01*
X-151823Y-1214209D01*
X-152240Y-1213709D01*
X-152823Y-1213309D01*
X-153406Y-1213209D01*
X-153990Y-1213309D01*
X-154740Y-1213709D01*
X-154490Y-1211109D01*
X-152240D01*
G01X-150990Y-1217109D02*
Y-1213109D01*
G01Y-1214209D02*
X-150740Y-1213709D01*
X-150323Y-1213309D01*
X-149740Y-1213109D01*
X-149157Y-1213309D01*
X-148740Y-1213709D01*
X-148490Y-1214209D01*
Y-1217109D01*
G01Y-1214209D02*
X-148240Y-1213709D01*
X-147823Y-1213309D01*
X-147240Y-1213109D01*
X-146657Y-1213309D01*
X-146240Y-1213709D01*
X-145990Y-1214309D01*
Y-1217109D01*
G01D02*
Y-1213109D01*
G01Y-1214209D02*
X-145740Y-1213709D01*
X-145323Y-1213309D01*
X-144740Y-1213109D01*
X-144157Y-1213309D01*
X-143740Y-1213709D01*
X-143490Y-1214209D01*
Y-1217109D01*
G01Y-1214209D02*
X-143240Y-1213709D01*
X-142823Y-1213309D01*
X-142240Y-1213109D01*
X-141657Y-1213309D01*
X-141240Y-1213709D01*
X-140990Y-1214309D01*
Y-1217109D01*
G01X-201800Y-1115944D02*
Y-1109944D01*
X-204883Y-1114244D01*
X-200717D01*
G01X-200300Y-1115944D02*
Y-1111944D01*
G01Y-1113044D02*
X-200050Y-1112544D01*
X-199633Y-1112144D01*
X-199050Y-1111944D01*
X-198467Y-1112144D01*
X-198050Y-1112544D01*
X-197800Y-1113044D01*
Y-1115944D01*
G01Y-1113044D02*
X-197550Y-1112544D01*
X-197133Y-1112144D01*
X-196550Y-1111944D01*
X-195967Y-1112144D01*
X-195550Y-1112544D01*
X-195300Y-1113144D01*
Y-1115944D01*
G01X-192800Y-1111944D02*
Y-1115944D01*
G01Y-1110344D02*
X-192967Y-1110244D01*
Y-1110044D01*
X-192800Y-1109944D01*
X-192633Y-1110044D01*
Y-1110244D01*
X-192800Y-1110344D01*
G01X-187800Y-1115944D02*
Y-1109944D01*
G01X-202039Y-1141942D02*
Y-1135942D01*
X-203039Y-1137142D01*
G01Y-1141942D02*
X-201039D01*
G01X-192039D02*
X-192706Y-1141842D01*
X-193289Y-1141442D01*
X-193789Y-1140842D01*
X-194122Y-1140142D01*
X-194289Y-1139342D01*
Y-1138542D01*
X-194122Y-1137742D01*
X-193789Y-1137042D01*
X-193289Y-1136442D01*
X-192706Y-1136042D01*
X-192039Y-1135942D01*
X-191372Y-1136042D01*
X-190789Y-1136442D01*
X-190289Y-1137042D01*
X-189956Y-1137742D01*
X-189789Y-1138542D01*
Y-1139342D01*
X-189956Y-1140142D01*
X-190289Y-1140842D01*
X-190789Y-1141442D01*
X-191372Y-1141842D01*
X-192039Y-1141942D01*
G01X-188622Y-1135942D02*
X-185456D01*
X-188622Y-1141942D01*
X-185456D01*
G01X-207422Y-1161742D02*
X-206922Y-1161142D01*
X-206339Y-1160842D01*
X-205672Y-1160742D01*
X-204839Y-1160942D01*
X-204256Y-1161442D01*
X-204089Y-1162042D01*
X-204172Y-1162642D01*
X-204506Y-1163142D01*
X-206172Y-1164142D01*
X-206922Y-1164842D01*
X-207422Y-1165842D01*
X-207589Y-1166742D01*
X-204089D01*
G01X-200839Y-1166942D02*
X-201006Y-1166842D01*
Y-1166642D01*
X-200839Y-1166542D01*
X-200672Y-1166642D01*
Y-1166842D01*
X-200839Y-1166942D01*
G01X-196006Y-1166742D02*
X-195839Y-1165442D01*
X-195589Y-1164342D01*
X-195256Y-1163342D01*
X-194839Y-1162242D01*
X-194172Y-1160742D01*
X-197506D01*
G01X-192422Y-1164242D02*
X-191839Y-1163542D01*
X-191339Y-1163142D01*
X-190672Y-1162942D01*
X-190089Y-1163142D01*
X-189672Y-1163542D01*
X-189339Y-1164142D01*
X-189256Y-1164842D01*
X-189339Y-1165442D01*
X-189672Y-1166042D01*
X-190172Y-1166542D01*
X-190756Y-1166742D01*
X-191422Y-1166542D01*
X-192006Y-1165942D01*
X-192339Y-1165042D01*
X-192422Y-1164042D01*
X-192256Y-1162742D01*
X-192006Y-1162042D01*
X-191589Y-1161342D01*
X-191006Y-1160842D01*
X-190422Y-1160742D01*
X-189839Y-1160942D01*
X-189422Y-1161442D01*
G01X-188339Y-1166742D02*
Y-1162742D01*
G01Y-1163842D02*
X-188089Y-1163342D01*
X-187672Y-1162942D01*
X-187089Y-1162742D01*
X-186506Y-1162942D01*
X-186089Y-1163342D01*
X-185839Y-1163842D01*
Y-1166742D01*
G01Y-1163842D02*
X-185589Y-1163342D01*
X-185172Y-1162942D01*
X-184589Y-1162742D01*
X-184006Y-1162942D01*
X-183589Y-1163342D01*
X-183339Y-1163942D01*
Y-1166742D01*
G01X-180839Y-1162742D02*
Y-1166742D01*
G01Y-1161142D02*
X-181006Y-1161042D01*
Y-1160842D01*
X-180839Y-1160742D01*
X-180672Y-1160842D01*
Y-1161042D01*
X-180839Y-1161142D01*
G01X-175839Y-1166742D02*
Y-1160742D01*
G01X-207000Y-1065644D02*
Y-1059644D01*
X-210083Y-1063944D01*
X-205917D01*
G01X-203000Y-1059644D02*
X-203667Y-1059844D01*
X-204167Y-1060344D01*
X-204500Y-1060944D01*
X-204750Y-1061744D01*
X-204833Y-1062644D01*
X-204750Y-1063544D01*
X-204500Y-1064344D01*
X-204167Y-1064944D01*
X-203667Y-1065444D01*
X-203000Y-1065644D01*
X-202333Y-1065444D01*
X-201833Y-1064944D01*
X-201500Y-1064344D01*
X-201250Y-1063544D01*
X-201167Y-1062644D01*
X-201250Y-1061744D01*
X-201500Y-1060944D01*
X-201833Y-1060344D01*
X-202333Y-1059844D01*
X-203000Y-1059644D01*
G01X-198000Y-1065844D02*
X-198167Y-1065744D01*
Y-1065544D01*
X-198000Y-1065444D01*
X-197833Y-1065544D01*
Y-1065744D01*
X-198000Y-1065844D01*
G01X-194833Y-1064444D02*
X-194333Y-1065144D01*
X-193667Y-1065544D01*
X-192917Y-1065644D01*
X-192250Y-1065544D01*
X-191583Y-1065044D01*
X-191167Y-1064444D01*
X-191083Y-1063844D01*
X-191250Y-1063144D01*
X-191833Y-1062644D01*
X-192417Y-1062444D01*
X-193167D01*
G01X-192417D02*
X-191917Y-1062144D01*
X-191500Y-1061644D01*
X-191333Y-1061044D01*
X-191500Y-1060444D01*
X-191917Y-1059944D01*
X-192667Y-1059644D01*
X-193417Y-1059744D01*
X-194167Y-1060144D01*
G01X-190500Y-1065644D02*
Y-1061644D01*
G01Y-1062744D02*
X-190250Y-1062244D01*
X-189833Y-1061844D01*
X-189250Y-1061644D01*
X-188667Y-1061844D01*
X-188250Y-1062244D01*
X-188000Y-1062744D01*
Y-1065644D01*
G01Y-1062744D02*
X-187750Y-1062244D01*
X-187333Y-1061844D01*
X-186750Y-1061644D01*
X-186167Y-1061844D01*
X-185750Y-1062244D01*
X-185500Y-1062844D01*
Y-1065644D01*
G01X-183000Y-1061644D02*
Y-1065644D01*
G01Y-1060044D02*
X-183167Y-1059944D01*
Y-1059744D01*
X-183000Y-1059644D01*
X-182833Y-1059744D01*
Y-1059944D01*
X-183000Y-1060044D01*
G01X-178000Y-1065644D02*
Y-1059644D01*
G01X-203239Y-1092342D02*
Y-1086342D01*
X-204239Y-1087542D01*
G01Y-1092342D02*
X-202239D01*
G01X-193239D02*
X-193906Y-1092242D01*
X-194489Y-1091842D01*
X-194989Y-1091242D01*
X-195322Y-1090542D01*
X-195489Y-1089742D01*
Y-1088942D01*
X-195322Y-1088142D01*
X-194989Y-1087442D01*
X-194489Y-1086842D01*
X-193906Y-1086442D01*
X-193239Y-1086342D01*
X-192572Y-1086442D01*
X-191989Y-1086842D01*
X-191489Y-1087442D01*
X-191156Y-1088142D01*
X-190989Y-1088942D01*
Y-1089742D01*
X-191156Y-1090542D01*
X-191489Y-1091242D01*
X-191989Y-1091842D01*
X-192572Y-1092242D01*
X-193239Y-1092342D01*
G01X-189822Y-1086342D02*
X-186656D01*
X-189822Y-1092342D01*
X-186656D01*
G01X-207500Y-1014344D02*
Y-1008344D01*
X-210583Y-1012644D01*
X-206417D01*
G01X-206000Y-1014344D02*
Y-1010344D01*
G01Y-1011444D02*
X-205750Y-1010944D01*
X-205333Y-1010544D01*
X-204750Y-1010344D01*
X-204167Y-1010544D01*
X-203750Y-1010944D01*
X-203500Y-1011444D01*
Y-1014344D01*
G01Y-1011444D02*
X-203250Y-1010944D01*
X-202833Y-1010544D01*
X-202250Y-1010344D01*
X-201667Y-1010544D01*
X-201250Y-1010944D01*
X-201000Y-1011544D01*
Y-1014344D01*
G01X-198500Y-1010344D02*
Y-1014344D01*
G01Y-1008744D02*
X-198667Y-1008644D01*
Y-1008444D01*
X-198500Y-1008344D01*
X-198333Y-1008444D01*
Y-1008644D01*
X-198500Y-1008744D01*
G01X-193500Y-1014344D02*
Y-1008344D01*
G01X-206740Y-989409D02*
Y-983409D01*
X-207740Y-984609D01*
G01Y-989409D02*
X-205740D01*
G01X-196740D02*
X-197407Y-989309D01*
X-197990Y-988909D01*
X-198490Y-988309D01*
X-198823Y-987609D01*
X-198990Y-986809D01*
Y-986009D01*
X-198823Y-985209D01*
X-198490Y-984509D01*
X-197990Y-983909D01*
X-197407Y-983509D01*
X-196740Y-983409D01*
X-196073Y-983509D01*
X-195490Y-983909D01*
X-194990Y-984509D01*
X-194656Y-985209D01*
X-194490Y-986009D01*
Y-986809D01*
X-194656Y-987609D01*
X-194990Y-988309D01*
X-195490Y-988909D01*
X-196073Y-989309D01*
X-196740Y-989409D01*
G01X-193323Y-983409D02*
X-190157D01*
X-193323Y-989409D01*
X-190157D01*
G01X-202939Y-1044242D02*
Y-1038242D01*
X-203939Y-1039442D01*
G01Y-1044242D02*
X-201939D01*
G01X-192939D02*
X-193606Y-1044142D01*
X-194189Y-1043742D01*
X-194689Y-1043142D01*
X-195022Y-1042442D01*
X-195189Y-1041642D01*
Y-1040842D01*
X-195022Y-1040042D01*
X-194689Y-1039342D01*
X-194189Y-1038742D01*
X-193606Y-1038342D01*
X-192939Y-1038242D01*
X-192272Y-1038342D01*
X-191689Y-1038742D01*
X-191189Y-1039342D01*
X-190856Y-1040042D01*
X-190689Y-1040842D01*
Y-1041642D01*
X-190856Y-1042442D01*
X-191189Y-1043142D01*
X-191689Y-1043742D01*
X-192272Y-1044142D01*
X-192939Y-1044242D01*
G01X-189522Y-1038242D02*
X-186356D01*
X-189522Y-1044242D01*
X-186356D01*
G01X-247240Y-941409D02*
Y-935409D01*
X-248240Y-936609D01*
G01Y-941409D02*
X-246240D01*
G01X-243740Y-941609D02*
X-240740Y-935409D01*
G01X-238823Y-936409D02*
X-238323Y-935809D01*
X-237740Y-935509D01*
X-237073Y-935409D01*
X-236240Y-935609D01*
X-235657Y-936109D01*
X-235490Y-936709D01*
X-235573Y-937309D01*
X-235907Y-937809D01*
X-237573Y-938809D01*
X-238323Y-939509D01*
X-238823Y-940509D01*
X-238990Y-941409D01*
X-235490D01*
G01X-227240D02*
X-227907Y-941309D01*
X-228490Y-940909D01*
X-228990Y-940309D01*
X-229323Y-939609D01*
X-229490Y-938809D01*
Y-938009D01*
X-229323Y-937209D01*
X-228990Y-936509D01*
X-228490Y-935909D01*
X-227907Y-935509D01*
X-227240Y-935409D01*
X-226573Y-935509D01*
X-225990Y-935909D01*
X-225490Y-936509D01*
X-225157Y-937209D01*
X-224990Y-938009D01*
Y-938809D01*
X-225157Y-939609D01*
X-225490Y-940309D01*
X-225990Y-940909D01*
X-226573Y-941309D01*
X-227240Y-941409D01*
G01X-223823Y-935409D02*
X-220656D01*
X-223823Y-941409D01*
X-220656D01*
G01X-213740Y-943409D02*
Y-937409D01*
G01Y-938309D02*
X-213323Y-937809D01*
X-212907Y-937509D01*
X-212240Y-937409D01*
X-211657Y-937509D01*
X-211073Y-938009D01*
X-210823Y-938709D01*
X-210740Y-939409D01*
X-210823Y-940109D01*
X-211073Y-940809D01*
X-211573Y-941209D01*
X-212240Y-941409D01*
X-212823Y-941309D01*
X-213406Y-941009D01*
X-213740Y-940609D01*
G01X-207240Y-941409D02*
Y-935409D01*
G01X-200740Y-941409D02*
Y-937409D01*
G01Y-938109D02*
X-201073Y-937709D01*
X-201573Y-937509D01*
X-202157Y-937409D01*
X-202740Y-937609D01*
X-203240Y-938009D01*
X-203573Y-938609D01*
X-203740Y-939409D01*
X-203573Y-940209D01*
X-203240Y-940809D01*
X-202740Y-941209D01*
X-202157Y-941409D01*
X-201573Y-941309D01*
X-201073Y-941009D01*
X-200740Y-940609D01*
G01X-197240Y-935409D02*
Y-941409D01*
G01X-198407Y-937409D02*
X-196073D01*
G01X-193490Y-938709D02*
X-190823D01*
X-191073Y-938009D01*
X-191490Y-937609D01*
X-192073Y-937409D01*
X-192657Y-937509D01*
X-193157Y-937809D01*
X-193490Y-938509D01*
X-193657Y-939109D01*
Y-939709D01*
X-193490Y-940309D01*
X-193073Y-940909D01*
X-192573Y-941309D01*
X-191990Y-941409D01*
X-191406Y-941209D01*
X-190823Y-940609D01*
G01X-182240Y-935409D02*
Y-941409D01*
G01X-183406Y-937409D02*
X-181073D01*
G01X-177240Y-941409D02*
X-177740Y-941309D01*
X-178240Y-940909D01*
X-178573Y-940209D01*
X-178740Y-939409D01*
X-178573Y-938609D01*
X-178240Y-937909D01*
X-177740Y-937509D01*
X-177240Y-937409D01*
X-176740Y-937509D01*
X-176240Y-937909D01*
X-175907Y-938609D01*
X-175823Y-939409D01*
X-175907Y-940209D01*
X-176240Y-940909D01*
X-176740Y-941309D01*
X-177240Y-941409D01*
G01X-167240D02*
Y-935409D01*
X-168240Y-936609D01*
G01Y-941409D02*
X-166240D01*
G01X-162240D02*
X-162907Y-941309D01*
X-163490Y-940909D01*
X-163990Y-940309D01*
X-164323Y-939609D01*
X-164490Y-938809D01*
Y-938009D01*
X-164323Y-937209D01*
X-163990Y-936509D01*
X-163490Y-935909D01*
X-162907Y-935509D01*
X-162240Y-935409D01*
X-161573Y-935509D01*
X-160990Y-935909D01*
X-160490Y-936509D01*
X-160156Y-937209D01*
X-159990Y-938009D01*
Y-938809D01*
X-160156Y-939609D01*
X-160490Y-940309D01*
X-160990Y-940909D01*
X-161573Y-941309D01*
X-162240Y-941409D01*
G01X-158490Y-937409D02*
X-155990D01*
X-158490Y-941409D01*
X-155990D01*
G01X-207122Y-959442D02*
X-206622Y-958842D01*
X-206039Y-958542D01*
X-205372Y-958442D01*
X-204539Y-958642D01*
X-203956Y-959142D01*
X-203789Y-959742D01*
X-203872Y-960342D01*
X-204206Y-960842D01*
X-205872Y-961842D01*
X-206622Y-962542D01*
X-207122Y-963542D01*
X-207289Y-964442D01*
X-203789D01*
G01X-200539Y-964642D02*
X-200706Y-964542D01*
Y-964342D01*
X-200539Y-964242D01*
X-200372Y-964342D01*
Y-964542D01*
X-200539Y-964642D01*
G01X-195706Y-964442D02*
X-195539Y-963142D01*
X-195289Y-962042D01*
X-194956Y-961042D01*
X-194539Y-959942D01*
X-193872Y-958442D01*
X-197206D01*
G01X-192122Y-961942D02*
X-191539Y-961242D01*
X-191039Y-960842D01*
X-190372Y-960642D01*
X-189789Y-960842D01*
X-189372Y-961242D01*
X-189039Y-961842D01*
X-188956Y-962542D01*
X-189039Y-963142D01*
X-189372Y-963742D01*
X-189872Y-964242D01*
X-190456Y-964442D01*
X-191122Y-964242D01*
X-191706Y-963642D01*
X-192039Y-962742D01*
X-192122Y-961742D01*
X-191956Y-960442D01*
X-191706Y-959742D01*
X-191289Y-959042D01*
X-190706Y-958542D01*
X-190122Y-958442D01*
X-189539Y-958642D01*
X-189122Y-959142D01*
G01X-188039Y-964442D02*
Y-960442D01*
G01Y-961542D02*
X-187789Y-961042D01*
X-187372Y-960642D01*
X-186789Y-960442D01*
X-186206Y-960642D01*
X-185789Y-961042D01*
X-185539Y-961542D01*
Y-964442D01*
G01Y-961542D02*
X-185289Y-961042D01*
X-184872Y-960642D01*
X-184289Y-960442D01*
X-183706Y-960642D01*
X-183289Y-961042D01*
X-183039Y-961642D01*
Y-964442D01*
G01X-180539Y-960442D02*
Y-964442D01*
G01Y-958842D02*
X-180706Y-958742D01*
Y-958542D01*
X-180539Y-958442D01*
X-180372Y-958542D01*
Y-958742D01*
X-180539Y-958842D01*
G01X-175539Y-964442D02*
Y-958442D01*
G01X-211240Y-897409D02*
Y-903409D01*
G01X-213157Y-897409D02*
X-209323D01*
G01X-207657Y-903409D02*
Y-897409D01*
G01Y-900309D02*
X-207240Y-899809D01*
X-206823Y-899509D01*
X-206157Y-899409D01*
X-205657Y-899509D01*
X-205073Y-899909D01*
X-204823Y-900509D01*
Y-903409D01*
G01X-201240Y-899409D02*
Y-903409D01*
G01Y-897809D02*
X-201407Y-897709D01*
Y-897509D01*
X-201240Y-897409D01*
X-201073Y-897509D01*
Y-897709D01*
X-201240Y-897809D01*
G01X-194907Y-899909D02*
X-195490Y-899509D01*
X-195990Y-899409D01*
X-196657Y-899609D01*
X-197157Y-900009D01*
X-197490Y-900709D01*
X-197573Y-901409D01*
X-197490Y-902109D01*
X-197157Y-902709D01*
X-196657Y-903209D01*
X-195990Y-903409D01*
X-195407Y-903209D01*
X-194907Y-902809D01*
G01X-192657Y-903409D02*
Y-897409D01*
G01X-189990Y-899409D02*
X-192657Y-901709D01*
G01X-191573Y-900809D02*
X-189823Y-903409D01*
G01X-187657D02*
Y-899409D01*
G01Y-900409D02*
X-187323Y-899909D01*
X-186823Y-899509D01*
X-186156Y-899409D01*
X-185573Y-899509D01*
X-185073Y-899909D01*
X-184823Y-900609D01*
Y-903409D01*
G01X-182490Y-900709D02*
X-179823D01*
X-180073Y-900009D01*
X-180490Y-899609D01*
X-181073Y-899409D01*
X-181657Y-899509D01*
X-182157Y-899809D01*
X-182490Y-900509D01*
X-182657Y-901109D01*
Y-901709D01*
X-182490Y-902309D01*
X-182073Y-902909D01*
X-181573Y-903309D01*
X-180990Y-903409D01*
X-180406Y-903209D01*
X-179823Y-902609D01*
G01X-177490Y-902709D02*
X-177073Y-903109D01*
X-176490Y-903409D01*
X-175990D01*
X-175490Y-903209D01*
X-175157Y-902909D01*
X-174990Y-902509D01*
X-175073Y-901909D01*
X-175406Y-901609D01*
X-176907Y-901009D01*
X-177240Y-900309D01*
X-177073Y-899809D01*
X-176740Y-899509D01*
X-176240Y-899409D01*
X-175740Y-899509D01*
X-175240Y-899809D01*
G01X-172490Y-902709D02*
X-172073Y-903109D01*
X-171490Y-903409D01*
X-170990D01*
X-170490Y-903209D01*
X-170157Y-902909D01*
X-169990Y-902509D01*
X-170073Y-901909D01*
X-170407Y-901609D01*
X-171907Y-901009D01*
X-172240Y-900309D01*
X-172073Y-899809D01*
X-171740Y-899509D01*
X-171240Y-899409D01*
X-170740Y-899509D01*
X-170240Y-899809D01*
G01X-116039Y-1219942D02*
Y-1213942D01*
X-117039Y-1215142D01*
G01Y-1219942D02*
X-115039D01*
G01X-111039Y-1213942D02*
X-111706Y-1214142D01*
X-112206Y-1214642D01*
X-112539Y-1215242D01*
X-112789Y-1216042D01*
X-112872Y-1216942D01*
X-112789Y-1217842D01*
X-112539Y-1218642D01*
X-112206Y-1219242D01*
X-111706Y-1219742D01*
X-111039Y-1219942D01*
X-110372Y-1219742D01*
X-109872Y-1219242D01*
X-109539Y-1218642D01*
X-109289Y-1217842D01*
X-109206Y-1216942D01*
X-109289Y-1216042D01*
X-109539Y-1215242D01*
X-109872Y-1214642D01*
X-110372Y-1214142D01*
X-111039Y-1213942D01*
G01X-106039Y-1219942D02*
X-105456Y-1219842D01*
X-104789Y-1219542D01*
X-104372Y-1219042D01*
X-104206Y-1218342D01*
X-104372Y-1217642D01*
X-104872Y-1217042D01*
X-105622Y-1216742D01*
X-106456D01*
X-106956Y-1216542D01*
X-107372Y-1216042D01*
X-107539Y-1215342D01*
X-107289Y-1214642D01*
X-106706Y-1214142D01*
X-106039Y-1213942D01*
X-105372Y-1214142D01*
X-104789Y-1214642D01*
X-104539Y-1215342D01*
X-104706Y-1216042D01*
X-105122Y-1216542D01*
X-105622Y-1216742D01*
X-106456D01*
X-107206Y-1217042D01*
X-107706Y-1217642D01*
X-107872Y-1218342D01*
X-107706Y-1219042D01*
X-107289Y-1219542D01*
X-106622Y-1219842D01*
X-106039Y-1219942D01*
G01X-101039Y-1213942D02*
X-101706Y-1214142D01*
X-102206Y-1214642D01*
X-102539Y-1215242D01*
X-102789Y-1216042D01*
X-102872Y-1216942D01*
X-102789Y-1217842D01*
X-102539Y-1218642D01*
X-102206Y-1219242D01*
X-101706Y-1219742D01*
X-101039Y-1219942D01*
X-100372Y-1219742D01*
X-99872Y-1219242D01*
X-99539Y-1218642D01*
X-99289Y-1217842D01*
X-99206Y-1216942D01*
X-99289Y-1216042D01*
X-99539Y-1215242D01*
X-99872Y-1214642D01*
X-100372Y-1214142D01*
X-101039Y-1213942D01*
G01X-119506Y-1116842D02*
Y-1110842D01*
X-117506D01*
X-116839Y-1111142D01*
X-116339Y-1111842D01*
X-116172Y-1112642D01*
X-116339Y-1113442D01*
X-116756Y-1114042D01*
X-117506Y-1114342D01*
X-119506D01*
G01X-114506Y-1116842D02*
Y-1110842D01*
X-112422D01*
X-111756Y-1111142D01*
X-111339Y-1111542D01*
X-111172Y-1112342D01*
X-111339Y-1113142D01*
X-111839Y-1113642D01*
X-112422Y-1113942D01*
X-114506D01*
G01X-112422D02*
X-111172Y-1116842D01*
G01X-106172D02*
X-109506D01*
Y-1110842D01*
X-106172D01*
G01X-107506Y-1113742D02*
X-109506D01*
G01X-104506Y-1116842D02*
Y-1110842D01*
X-102506D01*
X-101839Y-1111142D01*
X-101339Y-1111842D01*
X-101172Y-1112642D01*
X-101339Y-1113442D01*
X-101756Y-1114042D01*
X-102506Y-1114342D01*
X-104506D01*
G01X-99506Y-1116842D02*
Y-1110842D01*
X-97422D01*
X-96756Y-1111142D01*
X-96339Y-1111542D01*
X-96172Y-1112342D01*
X-96339Y-1113142D01*
X-96839Y-1113642D01*
X-97422Y-1113942D01*
X-99506D01*
G01X-97422D02*
X-96172Y-1116842D01*
G01X-91172D02*
X-94506D01*
Y-1110842D01*
X-91172D01*
G01X-92506Y-1113742D02*
X-94506D01*
G01X-87339Y-1113842D02*
X-85672D01*
Y-1115642D01*
X-86172Y-1116242D01*
X-86756Y-1116642D01*
X-87589Y-1116842D01*
X-88422Y-1116642D01*
X-89006Y-1116242D01*
X-89506Y-1115642D01*
X-89839Y-1114942D01*
X-90006Y-1114142D01*
Y-1113442D01*
X-89839Y-1112842D01*
X-89506Y-1112142D01*
X-89006Y-1111542D01*
X-88506Y-1111142D01*
X-87839Y-1110842D01*
X-87256D01*
X-86589Y-1111042D01*
X-86089Y-1111442D01*
G01X-118706Y-1166942D02*
Y-1160942D01*
X-116706D01*
X-116039Y-1161242D01*
X-115539Y-1161942D01*
X-115372Y-1162742D01*
X-115539Y-1163542D01*
X-115956Y-1164142D01*
X-116706Y-1164442D01*
X-118706D01*
G01X-113706Y-1166942D02*
Y-1160942D01*
X-111622D01*
X-110956Y-1161242D01*
X-110539Y-1161642D01*
X-110372Y-1162442D01*
X-110539Y-1163242D01*
X-111039Y-1163742D01*
X-111622Y-1164042D01*
X-113706D01*
G01X-111622D02*
X-110372Y-1166942D01*
G01X-105372D02*
X-108706D01*
Y-1160942D01*
X-105372D01*
G01X-106706Y-1163842D02*
X-108706D01*
G01X-103706Y-1166942D02*
Y-1160942D01*
X-101706D01*
X-101039Y-1161242D01*
X-100539Y-1161942D01*
X-100372Y-1162742D01*
X-100539Y-1163542D01*
X-100956Y-1164142D01*
X-101706Y-1164442D01*
X-103706D01*
G01X-98706Y-1166942D02*
Y-1160942D01*
X-96622D01*
X-95956Y-1161242D01*
X-95539Y-1161642D01*
X-95372Y-1162442D01*
X-95539Y-1163242D01*
X-96039Y-1163742D01*
X-96622Y-1164042D01*
X-98706D01*
G01X-96622D02*
X-95372Y-1166942D01*
G01X-90372D02*
X-93706D01*
Y-1160942D01*
X-90372D01*
G01X-91706Y-1163842D02*
X-93706D01*
G01X-86539Y-1163942D02*
X-84872D01*
Y-1165742D01*
X-85372Y-1166342D01*
X-85956Y-1166742D01*
X-86789Y-1166942D01*
X-87622Y-1166742D01*
X-88205Y-1166342D01*
X-88706Y-1165742D01*
X-89039Y-1165042D01*
X-89206Y-1164242D01*
Y-1163542D01*
X-89039Y-1162942D01*
X-88706Y-1162242D01*
X-88205Y-1161642D01*
X-87706Y-1161242D01*
X-87039Y-1160942D01*
X-86456D01*
X-85789Y-1161142D01*
X-85289Y-1161542D01*
G01X-115706Y-1062442D02*
X-116206Y-1062142D01*
X-116789Y-1061942D01*
X-117456D01*
X-118206Y-1062242D01*
X-118789Y-1062742D01*
X-119206Y-1063342D01*
X-119539Y-1064342D01*
X-119622Y-1065242D01*
X-119456Y-1066142D01*
X-119206Y-1066742D01*
X-118706Y-1067342D01*
X-118122Y-1067742D01*
X-117539Y-1067942D01*
X-116956D01*
X-116372Y-1067742D01*
X-115872Y-1067442D01*
X-115456Y-1067042D01*
G01X-112539Y-1067942D02*
X-113206Y-1067842D01*
X-113789Y-1067442D01*
X-114289Y-1066842D01*
X-114622Y-1066142D01*
X-114789Y-1065342D01*
Y-1064542D01*
X-114622Y-1063742D01*
X-114289Y-1063042D01*
X-113789Y-1062442D01*
X-113206Y-1062042D01*
X-112539Y-1061942D01*
X-111872Y-1062042D01*
X-111289Y-1062442D01*
X-110789Y-1063042D01*
X-110456Y-1063742D01*
X-110289Y-1064542D01*
Y-1065342D01*
X-110456Y-1066142D01*
X-110789Y-1066842D01*
X-111289Y-1067442D01*
X-111872Y-1067842D01*
X-112539Y-1067942D01*
G01X-109206D02*
Y-1061942D01*
X-107122D01*
X-106456Y-1062242D01*
X-106039Y-1062642D01*
X-105872Y-1063442D01*
X-106039Y-1064242D01*
X-106539Y-1064742D01*
X-107122Y-1065042D01*
X-109206D01*
G01X-107122D02*
X-105872Y-1067942D01*
G01X-100872D02*
X-104206D01*
Y-1061942D01*
X-100872D01*
G01X-102206Y-1064842D02*
X-104206D01*
G01X-118906Y-1017742D02*
Y-1011742D01*
X-116906D01*
X-116239Y-1012042D01*
X-115739Y-1012742D01*
X-115572Y-1013542D01*
X-115739Y-1014342D01*
X-116156Y-1014942D01*
X-116906Y-1015242D01*
X-118906D01*
G01X-113906Y-1017742D02*
Y-1011742D01*
X-111822D01*
X-111156Y-1012042D01*
X-110739Y-1012442D01*
X-110572Y-1013242D01*
X-110739Y-1014042D01*
X-111239Y-1014542D01*
X-111822Y-1014842D01*
X-113906D01*
G01X-111822D02*
X-110572Y-1017742D01*
G01X-105572D02*
X-108906D01*
Y-1011742D01*
X-105572D01*
G01X-106906Y-1014642D02*
X-108906D01*
G01X-103906Y-1017742D02*
Y-1011742D01*
X-101906D01*
X-101239Y-1012042D01*
X-100739Y-1012742D01*
X-100572Y-1013542D01*
X-100739Y-1014342D01*
X-101156Y-1014942D01*
X-101906Y-1015242D01*
X-103906D01*
G01X-98906Y-1017742D02*
Y-1011742D01*
X-96822D01*
X-96156Y-1012042D01*
X-95739Y-1012442D01*
X-95572Y-1013242D01*
X-95739Y-1014042D01*
X-96239Y-1014542D01*
X-96822Y-1014842D01*
X-98906D01*
G01X-96822D02*
X-95572Y-1017742D01*
G01X-90572D02*
X-93906D01*
Y-1011742D01*
X-90572D01*
G01X-91906Y-1014642D02*
X-93906D01*
G01X-86739Y-1014742D02*
X-85072D01*
Y-1016542D01*
X-85572Y-1017142D01*
X-86156Y-1017542D01*
X-86989Y-1017742D01*
X-87822Y-1017542D01*
X-88405Y-1017142D01*
X-88906Y-1016542D01*
X-89239Y-1015842D01*
X-89406Y-1015042D01*
Y-1014342D01*
X-89239Y-1013742D01*
X-88906Y-1013042D01*
X-88405Y-1012442D01*
X-87906Y-1012042D01*
X-87239Y-1011742D01*
X-86656D01*
X-85989Y-1011942D01*
X-85489Y-1012342D01*
G01X-121206Y-966442D02*
Y-960442D01*
X-119206D01*
X-118539Y-960742D01*
X-118039Y-961442D01*
X-117872Y-962242D01*
X-118039Y-963042D01*
X-118456Y-963642D01*
X-119206Y-963942D01*
X-121206D01*
G01X-116206Y-966442D02*
Y-960442D01*
X-114122D01*
X-113456Y-960742D01*
X-113039Y-961142D01*
X-112872Y-961942D01*
X-113039Y-962742D01*
X-113539Y-963242D01*
X-114122Y-963542D01*
X-116206D01*
G01X-114122D02*
X-112872Y-966442D01*
G01X-107872D02*
X-111206D01*
Y-960442D01*
X-107872D01*
G01X-109206Y-963342D02*
X-111206D01*
G01X-106206Y-966442D02*
Y-960442D01*
X-104206D01*
X-103539Y-960742D01*
X-103039Y-961442D01*
X-102872Y-962242D01*
X-103039Y-963042D01*
X-103456Y-963642D01*
X-104206Y-963942D01*
X-106206D01*
G01X-101206Y-966442D02*
Y-960442D01*
X-99122D01*
X-98456Y-960742D01*
X-98039Y-961142D01*
X-97872Y-961942D01*
X-98039Y-962742D01*
X-98539Y-963242D01*
X-99122Y-963542D01*
X-101206D01*
G01X-99122D02*
X-97872Y-966442D01*
G01X-92872D02*
X-96206D01*
Y-960442D01*
X-92872D01*
G01X-94206Y-963342D02*
X-96206D01*
G01X-89039Y-963442D02*
X-87372D01*
Y-965242D01*
X-87872Y-965842D01*
X-88456Y-966242D01*
X-89289Y-966442D01*
X-90122Y-966242D01*
X-90706Y-965842D01*
X-91206Y-965242D01*
X-91539Y-964542D01*
X-91706Y-963742D01*
Y-963042D01*
X-91539Y-962442D01*
X-91206Y-961742D01*
X-90706Y-961142D01*
X-90206Y-960742D01*
X-89539Y-960442D01*
X-88956D01*
X-88289Y-960642D01*
X-87789Y-961042D01*
G01X-109740Y-896909D02*
Y-902909D01*
G01X-111656Y-896909D02*
X-107823D01*
G01X-106490Y-904709D02*
X-105990Y-904909D01*
X-105323Y-904709D01*
X-104907Y-904309D01*
X-104573Y-903809D01*
X-104073Y-902209D01*
X-102990Y-898909D01*
G01X-105657D02*
X-104073Y-902209D01*
G01X-101240Y-904909D02*
Y-898909D01*
G01Y-899809D02*
X-100823Y-899309D01*
X-100407Y-899009D01*
X-99740Y-898909D01*
X-99157Y-899009D01*
X-98573Y-899509D01*
X-98323Y-900209D01*
X-98240Y-900909D01*
X-98323Y-901609D01*
X-98573Y-902309D01*
X-99073Y-902709D01*
X-99740Y-902909D01*
X-100323Y-902809D01*
X-100907Y-902509D01*
X-101240Y-902109D01*
G01X-95990Y-900209D02*
X-93323D01*
X-93573Y-899509D01*
X-93990Y-899109D01*
X-94573Y-898909D01*
X-95157Y-899009D01*
X-95657Y-899309D01*
X-95990Y-900009D01*
X-96157Y-900609D01*
Y-901209D01*
X-95990Y-901809D01*
X-95573Y-902409D01*
X-95073Y-902809D01*
X-94490Y-902909D01*
X-93906Y-902709D01*
X-93323Y-902109D01*
G01X-62873Y-897209D02*
Y-891209D01*
X-61207D01*
X-60540Y-891509D01*
X-60040Y-891909D01*
X-59623Y-892509D01*
X-59290Y-893209D01*
X-59207Y-894209D01*
X-59290Y-895209D01*
X-59623Y-895909D01*
X-60040Y-896509D01*
X-60540Y-896909D01*
X-61207Y-897209D01*
X-62873D01*
G01X-56040Y-893209D02*
Y-897209D01*
G01Y-891609D02*
X-56207Y-891509D01*
Y-891309D01*
X-56040Y-891209D01*
X-55873Y-891309D01*
Y-891509D01*
X-56040Y-891609D01*
G01X-52290Y-894509D02*
X-49623D01*
X-49873Y-893809D01*
X-50290Y-893409D01*
X-50873Y-893209D01*
X-51457Y-893309D01*
X-51957Y-893609D01*
X-52290Y-894309D01*
X-52457Y-894909D01*
Y-895509D01*
X-52290Y-896109D01*
X-51873Y-896709D01*
X-51373Y-897109D01*
X-50790Y-897209D01*
X-50206Y-897009D01*
X-49623Y-896409D01*
G01X-46040Y-897209D02*
Y-891209D01*
G01X-42290Y-894509D02*
X-39623D01*
X-39873Y-893809D01*
X-40290Y-893409D01*
X-40873Y-893209D01*
X-41457Y-893309D01*
X-41957Y-893609D01*
X-42290Y-894309D01*
X-42457Y-894909D01*
Y-895509D01*
X-42290Y-896109D01*
X-41873Y-896709D01*
X-41373Y-897109D01*
X-40790Y-897209D01*
X-40206Y-897009D01*
X-39623Y-896409D01*
G01X-34707Y-893709D02*
X-35290Y-893309D01*
X-35790Y-893209D01*
X-36457Y-893409D01*
X-36957Y-893809D01*
X-37290Y-894509D01*
X-37373Y-895209D01*
X-37290Y-895909D01*
X-36957Y-896509D01*
X-36457Y-897009D01*
X-35790Y-897209D01*
X-35206Y-897009D01*
X-34707Y-896609D01*
G01X-31040Y-891209D02*
Y-897209D01*
G01X-32206Y-893209D02*
X-29873D01*
G01X-27206Y-897209D02*
Y-893209D01*
G01Y-894009D02*
X-26790Y-893609D01*
X-26373Y-893309D01*
X-25790Y-893209D01*
X-25373Y-893309D01*
X-24873Y-893609D01*
G01X-21040Y-893209D02*
Y-897209D01*
G01Y-891609D02*
X-21207Y-891509D01*
Y-891309D01*
X-21040Y-891209D01*
X-20873Y-891309D01*
Y-891509D01*
X-21040Y-891609D01*
G01X-14707Y-893709D02*
X-15290Y-893309D01*
X-15790Y-893209D01*
X-16457Y-893409D01*
X-16957Y-893809D01*
X-17290Y-894509D01*
X-17373Y-895209D01*
X-17290Y-895909D01*
X-16957Y-896509D01*
X-16457Y-897009D01*
X-15790Y-897209D01*
X-15206Y-897009D01*
X-14707Y-896609D01*
G01X-61057Y-910909D02*
X-61640Y-910509D01*
X-62140Y-910409D01*
X-62807Y-910609D01*
X-63307Y-911009D01*
X-63640Y-911709D01*
X-63723Y-912409D01*
X-63640Y-913109D01*
X-63307Y-913709D01*
X-62807Y-914209D01*
X-62140Y-914409D01*
X-61556Y-914209D01*
X-61057Y-913809D01*
G01X-57390Y-914409D02*
X-57890Y-914309D01*
X-58390Y-913909D01*
X-58723Y-913209D01*
X-58890Y-912409D01*
X-58723Y-911609D01*
X-58390Y-910909D01*
X-57890Y-910509D01*
X-57390Y-910409D01*
X-56890Y-910509D01*
X-56390Y-910909D01*
X-56057Y-911609D01*
X-55973Y-912409D01*
X-56057Y-913209D01*
X-56390Y-913909D01*
X-56890Y-914309D01*
X-57390Y-914409D01*
G01X-53807D02*
Y-910409D01*
G01Y-911409D02*
X-53473Y-910909D01*
X-52973Y-910509D01*
X-52307Y-910409D01*
X-51723Y-910509D01*
X-51223Y-910909D01*
X-50973Y-911609D01*
Y-914409D01*
G01X-48640Y-913709D02*
X-48223Y-914109D01*
X-47640Y-914409D01*
X-47140D01*
X-46640Y-914209D01*
X-46307Y-913909D01*
X-46140Y-913509D01*
X-46223Y-912909D01*
X-46556Y-912609D01*
X-48057Y-912009D01*
X-48390Y-911309D01*
X-48223Y-910809D01*
X-47890Y-910509D01*
X-47390Y-910409D01*
X-46890Y-910509D01*
X-46390Y-910809D01*
G01X-42390Y-908409D02*
Y-914409D01*
G01X-43556Y-910409D02*
X-41223D01*
G01X-35890Y-914409D02*
Y-910409D01*
G01Y-911109D02*
X-36223Y-910709D01*
X-36723Y-910509D01*
X-37306Y-910409D01*
X-37890Y-910609D01*
X-38390Y-911009D01*
X-38723Y-911609D01*
X-38890Y-912409D01*
X-38723Y-913209D01*
X-38390Y-913809D01*
X-37890Y-914209D01*
X-37306Y-914409D01*
X-36723Y-914309D01*
X-36223Y-914009D01*
X-35890Y-913609D01*
G01X-33807Y-914409D02*
Y-910409D01*
G01Y-911409D02*
X-33473Y-910909D01*
X-32973Y-910509D01*
X-32306Y-910409D01*
X-31723Y-910509D01*
X-31223Y-910909D01*
X-30973Y-911609D01*
Y-914409D01*
G01X-27390Y-908409D02*
Y-914409D01*
G01X-28556Y-910409D02*
X-26223D01*
G01X-2090Y-913409D02*
X-923Y-919409D01*
X410Y-913409D01*
X1743Y-919409D01*
X2910Y-913409D01*
G01X5410Y-915409D02*
Y-919409D01*
G01Y-913809D02*
X5243Y-913709D01*
Y-913509D01*
X5410Y-913409D01*
X5577Y-913509D01*
Y-913709D01*
X5410Y-913809D01*
G01X11910Y-913409D02*
Y-919409D01*
G01Y-918509D02*
X11577Y-919009D01*
X11077Y-919309D01*
X10494Y-919409D01*
X9827Y-919209D01*
X9327Y-918709D01*
X8993Y-918109D01*
X8910Y-917409D01*
X8993Y-916709D01*
X9327Y-916109D01*
X9827Y-915609D01*
X10494Y-915409D01*
X11077Y-915509D01*
X11493Y-915709D01*
X11910Y-916109D01*
G01X15410Y-913409D02*
Y-919409D01*
G01X14244Y-915409D02*
X16577D01*
G01X18993Y-919409D02*
Y-913409D01*
G01Y-916309D02*
X19410Y-915809D01*
X19827Y-915509D01*
X20494Y-915409D01*
X20993Y-915509D01*
X21577Y-915909D01*
X21827Y-916509D01*
Y-919409D01*
G01X24993Y-921409D02*
X24160Y-920409D01*
X23743Y-919409D01*
Y-915409D01*
X24160Y-914409D01*
X24993Y-913409D01*
G01X27910Y-919409D02*
Y-915409D01*
G01Y-916509D02*
X28160Y-916009D01*
X28577Y-915609D01*
X29160Y-915409D01*
X29743Y-915609D01*
X30160Y-916009D01*
X30410Y-916509D01*
Y-919409D01*
G01Y-916509D02*
X30660Y-916009D01*
X31077Y-915609D01*
X31660Y-915409D01*
X32243Y-915609D01*
X32660Y-916009D01*
X32910Y-916609D01*
Y-919409D01*
G01X35410Y-915409D02*
Y-919409D01*
G01Y-913809D02*
X35243Y-913709D01*
Y-913509D01*
X35410Y-913409D01*
X35577Y-913509D01*
Y-913709D01*
X35410Y-913809D01*
G01X40410Y-919409D02*
Y-913409D01*
G01X45827Y-921409D02*
X46660Y-920409D01*
X47077Y-919409D01*
Y-915409D01*
X46660Y-914409D01*
X45827Y-913409D01*
G01X11760Y-889909D02*
Y-895909D01*
G01X9844Y-889909D02*
X13677D01*
G01X15594Y-895909D02*
Y-891909D01*
G01Y-892709D02*
X16010Y-892309D01*
X16427Y-892009D01*
X17010Y-891909D01*
X17427Y-892009D01*
X17927Y-892309D01*
G01X23260Y-895909D02*
Y-891909D01*
G01Y-892609D02*
X22927Y-892209D01*
X22427Y-892009D01*
X21844Y-891909D01*
X21260Y-892109D01*
X20760Y-892509D01*
X20427Y-893109D01*
X20260Y-893909D01*
X20427Y-894709D01*
X20760Y-895309D01*
X21260Y-895709D01*
X21844Y-895909D01*
X22427Y-895809D01*
X22927Y-895509D01*
X23260Y-895109D01*
G01X28093Y-892409D02*
X27510Y-892009D01*
X27010Y-891909D01*
X26343Y-892109D01*
X25843Y-892509D01*
X25510Y-893209D01*
X25427Y-893909D01*
X25510Y-894609D01*
X25843Y-895209D01*
X26343Y-895709D01*
X27010Y-895909D01*
X27594Y-895709D01*
X28093Y-895309D01*
G01X30510Y-893209D02*
X33177D01*
X32927Y-892509D01*
X32510Y-892109D01*
X31927Y-891909D01*
X31343Y-892009D01*
X30843Y-892309D01*
X30510Y-893009D01*
X30343Y-893609D01*
Y-894209D01*
X30510Y-894809D01*
X30927Y-895409D01*
X31427Y-895809D01*
X32010Y-895909D01*
X32594Y-895709D01*
X33177Y-895109D01*
G01X84593Y-922409D02*
X83760Y-921409D01*
X83343Y-920409D01*
Y-916409D01*
X83760Y-915409D01*
X84593Y-914409D01*
G01X89093Y-918409D02*
X91093D01*
G01X90010Y-917109D02*
Y-919709D01*
G01X93510Y-920609D02*
X96510Y-914409D01*
G01X98927Y-918409D02*
X101093D01*
G01X105010Y-920409D02*
Y-914409D01*
X104010Y-915609D01*
G01Y-920409D02*
X106010D01*
G01X110010Y-914409D02*
X109343Y-914609D01*
X108844Y-915109D01*
X108510Y-915709D01*
X108260Y-916509D01*
X108177Y-917409D01*
X108260Y-918309D01*
X108510Y-919109D01*
X108844Y-919709D01*
X109343Y-920209D01*
X110010Y-920409D01*
X110677Y-920209D01*
X111177Y-919709D01*
X111510Y-919109D01*
X111760Y-918309D01*
X111843Y-917409D01*
X111760Y-916509D01*
X111510Y-915709D01*
X111177Y-915109D01*
X110677Y-914609D01*
X110010Y-914409D01*
G01X113510Y-920609D02*
X116510Y-914409D01*
G01X113510D02*
X113010Y-914609D01*
X112760Y-914909D01*
X112593Y-915509D01*
X112760Y-916109D01*
X113010Y-916409D01*
X113510Y-916609D01*
X114010Y-916409D01*
X114260Y-916109D01*
X114427Y-915509D01*
X114260Y-914909D01*
X114010Y-914609D01*
X113510Y-914409D01*
G01X116510Y-918409D02*
X116010Y-918609D01*
X115760Y-918909D01*
X115593Y-919509D01*
X115760Y-920109D01*
X116010Y-920409D01*
X116510Y-920609D01*
X117010Y-920409D01*
X117260Y-920109D01*
X117427Y-919509D01*
X117260Y-918909D01*
X117010Y-918609D01*
X116510Y-918409D01*
G01X120427Y-922409D02*
X121260Y-921409D01*
X121677Y-920409D01*
Y-916409D01*
X121260Y-915409D01*
X120427Y-914409D01*
G01X86060Y-887309D02*
Y-893309D01*
G01X84144Y-887309D02*
X87977D01*
G01X89894Y-893309D02*
Y-889309D01*
G01Y-890109D02*
X90310Y-889709D01*
X90727Y-889409D01*
X91310Y-889309D01*
X91727Y-889409D01*
X92227Y-889709D01*
G01X97560Y-893309D02*
Y-889309D01*
G01Y-890009D02*
X97227Y-889609D01*
X96727Y-889409D01*
X96144Y-889309D01*
X95560Y-889509D01*
X95060Y-889909D01*
X94727Y-890509D01*
X94560Y-891309D01*
X94727Y-892109D01*
X95060Y-892709D01*
X95560Y-893109D01*
X96144Y-893309D01*
X96727Y-893209D01*
X97227Y-892909D01*
X97560Y-892509D01*
G01X102393Y-889809D02*
X101810Y-889409D01*
X101310Y-889309D01*
X100643Y-889509D01*
X100143Y-889909D01*
X99810Y-890609D01*
X99727Y-891309D01*
X99810Y-892009D01*
X100143Y-892609D01*
X100643Y-893109D01*
X101310Y-893309D01*
X101893Y-893109D01*
X102393Y-892709D01*
G01X104810Y-890609D02*
X107477D01*
X107227Y-889909D01*
X106810Y-889509D01*
X106227Y-889309D01*
X105643Y-889409D01*
X105143Y-889709D01*
X104810Y-890409D01*
X104643Y-891009D01*
Y-891609D01*
X104810Y-892209D01*
X105227Y-892809D01*
X105727Y-893209D01*
X106310Y-893309D01*
X106894Y-893109D01*
X107477Y-892509D01*
G01X62560Y-897809D02*
X64560D01*
G01X63560D02*
Y-903809D01*
G01X62560D02*
X64560D01*
G01X66060D02*
Y-899809D01*
G01Y-900909D02*
X66310Y-900409D01*
X66727Y-900009D01*
X67310Y-899809D01*
X67893Y-900009D01*
X68310Y-900409D01*
X68560Y-900909D01*
Y-903809D01*
G01Y-900909D02*
X68810Y-900409D01*
X69227Y-900009D01*
X69810Y-899809D01*
X70393Y-900009D01*
X70810Y-900409D01*
X71060Y-901009D01*
Y-903809D01*
G01X72060Y-905809D02*
Y-899809D01*
G01Y-900709D02*
X72477Y-900209D01*
X72893Y-899909D01*
X73560Y-899809D01*
X74143Y-899909D01*
X74727Y-900409D01*
X74977Y-901109D01*
X75060Y-901809D01*
X74977Y-902509D01*
X74727Y-903209D01*
X74227Y-903609D01*
X73560Y-903809D01*
X72977Y-903709D01*
X72394Y-903409D01*
X72060Y-903009D01*
G01X77310Y-901109D02*
X79977D01*
X79727Y-900409D01*
X79310Y-900009D01*
X78727Y-899809D01*
X78143Y-899909D01*
X77643Y-900209D01*
X77310Y-900909D01*
X77143Y-901509D01*
Y-902109D01*
X77310Y-902709D01*
X77727Y-903309D01*
X78227Y-903709D01*
X78810Y-903809D01*
X79394Y-903609D01*
X79977Y-903009D01*
G01X85060Y-897809D02*
Y-903809D01*
G01Y-902909D02*
X84727Y-903409D01*
X84227Y-903709D01*
X83644Y-903809D01*
X82977Y-903609D01*
X82477Y-903109D01*
X82143Y-902509D01*
X82060Y-901809D01*
X82143Y-901109D01*
X82477Y-900509D01*
X82977Y-900009D01*
X83644Y-899809D01*
X84227Y-899909D01*
X84643Y-900109D01*
X85060Y-900509D01*
G01X90060Y-903809D02*
Y-899809D01*
G01Y-900509D02*
X89727Y-900109D01*
X89227Y-899909D01*
X88644Y-899809D01*
X88060Y-900009D01*
X87560Y-900409D01*
X87227Y-901009D01*
X87060Y-901809D01*
X87227Y-902609D01*
X87560Y-903209D01*
X88060Y-903609D01*
X88644Y-903809D01*
X89227Y-903709D01*
X89727Y-903409D01*
X90060Y-903009D01*
G01X92143Y-903809D02*
Y-899809D01*
G01Y-900809D02*
X92477Y-900309D01*
X92977Y-899909D01*
X93644Y-899809D01*
X94227Y-899909D01*
X94727Y-900309D01*
X94977Y-901009D01*
Y-903809D01*
G01X99893Y-900309D02*
X99310Y-899909D01*
X98810Y-899809D01*
X98143Y-900009D01*
X97643Y-900409D01*
X97310Y-901109D01*
X97227Y-901809D01*
X97310Y-902509D01*
X97643Y-903109D01*
X98143Y-903609D01*
X98810Y-903809D01*
X99394Y-903609D01*
X99893Y-903209D01*
G01X102310Y-901109D02*
X104977D01*
X104727Y-900409D01*
X104310Y-900009D01*
X103727Y-899809D01*
X103143Y-899909D01*
X102643Y-900209D01*
X102310Y-900909D01*
X102143Y-901509D01*
Y-902109D01*
X102310Y-902709D01*
X102727Y-903309D01*
X103227Y-903709D01*
X103810Y-903809D01*
X104394Y-903609D01*
X104977Y-903009D01*
G01X108143Y-905809D02*
X107310Y-904809D01*
X106893Y-903809D01*
Y-899809D01*
X107310Y-898809D01*
X108143Y-897809D01*
G01X113560Y-903809D02*
X113060Y-903709D01*
X112560Y-903309D01*
X112227Y-902609D01*
X112060Y-901809D01*
X112227Y-901009D01*
X112560Y-900309D01*
X113060Y-899909D01*
X113560Y-899809D01*
X114060Y-899909D01*
X114560Y-900309D01*
X114893Y-901009D01*
X114977Y-901809D01*
X114893Y-902609D01*
X114560Y-903309D01*
X114060Y-903709D01*
X113560Y-903809D01*
G01X117143D02*
Y-897809D01*
G01Y-900709D02*
X117560Y-900209D01*
X117977Y-899909D01*
X118643Y-899809D01*
X119143Y-899909D01*
X119727Y-900309D01*
X119977Y-900909D01*
Y-903809D01*
G01X121060D02*
Y-899809D01*
G01Y-900909D02*
X121310Y-900409D01*
X121727Y-900009D01*
X122310Y-899809D01*
X122893Y-900009D01*
X123310Y-900409D01*
X123560Y-900909D01*
Y-903809D01*
G01Y-900909D02*
X123810Y-900409D01*
X124227Y-900009D01*
X124810Y-899809D01*
X125393Y-900009D01*
X125810Y-900409D01*
X126060Y-901009D01*
Y-903809D01*
G01X128977Y-905809D02*
X129810Y-904809D01*
X130227Y-903809D01*
Y-899809D01*
X129810Y-898809D01*
X128977Y-897809D01*
G54D13*
G01X-712900Y-330444D02*
Y-333944D01*
G01X-485550Y-596244D02*
X-488300D01*
G01X-490550D02*
Y-594244D01*
G01X-466850Y-586444D02*
X-464100D01*
G01X-461850D02*
Y-588444D01*
G54D14*
G01X-790405Y-765552D02*
Y-759552D01*
X-791405Y-760752D01*
G01Y-765552D02*
X-789405D01*
G01X-784405Y-765752D02*
X-784572Y-765652D01*
Y-765452D01*
X-784405Y-765352D01*
X-784238Y-765452D01*
Y-765652D01*
X-784405Y-765752D01*
G01X-778405Y-765552D02*
Y-759552D01*
X-779405Y-760752D01*
G01Y-765552D02*
X-777405D01*
G01X-792698Y-781942D02*
X-792115Y-781242D01*
X-791615Y-780842D01*
X-790948Y-780642D01*
X-790365Y-780842D01*
X-789948Y-781242D01*
X-789615Y-781842D01*
X-789532Y-782542D01*
X-789615Y-783142D01*
X-789948Y-783742D01*
X-790448Y-784242D01*
X-791032Y-784442D01*
X-791698Y-784242D01*
X-792282Y-783642D01*
X-792615Y-782742D01*
X-792698Y-781742D01*
X-792532Y-780442D01*
X-792282Y-779742D01*
X-791865Y-779042D01*
X-791282Y-778542D01*
X-790698Y-778442D01*
X-790115Y-778642D01*
X-789698Y-779142D01*
G54D15*
G01X-694062Y-582555D02*
Y-577154D01*
G01X-654917Y-506669D02*
X-661395D01*
G01X-674000Y-286244D02*
X-668900D01*
G01X-552500Y-611644D02*
X-556000D01*
G01X-557700Y-609844D02*
Y-606644D01*
M02*
