G04 CAM350/DFMSTREAM V14.6 (Build 1876) Date:  Wed Dec 11 11:09:23 2024 *
G04 Database: (Untitled) *
G04 Layer 4: past_bot.art *
%FSLAX35Y35*%
%MOIN*%
%SFA1.000B1.000*%

%MIA0B0*%
%IPPOS*%
%AMMACRO16_3*
4,1,12,0.0075000,-0.0225000,-0.0075000,-0.0225000,-0.0075000,-0.0075000,-0.0225000,-0.0075000,-0.0225000,0.0075000,-0.0075000,0.0075000,-0.0075000,0.0225000,0.0075000,0.0225000,0.0075000,0.0075000,0.0225000,0.0075000,0.0225000,-0.0075000,0.0075000,-0.0075000,0.0075000,-0.0225000,0.0000000*
%
%ADD415C,0.01700*%
%ADD452R,0.01000X0.01000*%
%ADD664C,0.01400*%
%ADD947R,0.05100X0.05100*%
%ADD1614R,0.05500X0.02400*%
%ADD1680R,0.10300X0.08000*%
%ADD1682R,0.08000X0.10300*%
%ADD1691C,0.02300*%
%ADD1763O,0.02600X0.01800*%
%ADD1768R,0.02700X0.05000*%
%ADD1775O,0.01800X0.02600*%
%ADD1777R,0.03700X0.01400*%
%ADD1779R,0.02500X0.02150*%
%ADD1787R,0.02150X0.02500*%
%ADD1793R,0.06300X0.05300*%
%ADD1796R,0.03200X0.02712*%
%ADD1801R,0.02712X0.03200*%
%ADD1802R,0.05300X0.06300*%
%ADD1807R,0.05900X0.01400*%
%ADD1815R,0.05000X0.04660*%
%ADD1819R,0.04660X0.05000*%
%ADD1826R,0.05600X0.08700*%
%ADD1843R,0.02400X0.00774*%
%ADD1844R,0.00774X0.02400*%
%ADD1845MACRO16_3*%
%ADD1846R,0.04700X0.05500*%
%ADD1847R,0.08700X0.05600*%
%LNpast_bot.art*%
%LPD*%
G36*
X1620644Y889459D02*
G75*
G02X1621737Y891096I1772J0D01*
G01X1622828Y891548*
G02X1625143Y890590I679J-1636*
X1625278Y889911I-1636J-678*
X1624185Y888275I-1771J0*
G01X1623094Y887823*
G02X1620779Y888780I-679J1636*
G01Y888781*
G02X1620644Y889459I1637J678*
G37*
G36*
X873075Y1321846D02*
G02X874168Y1323482I1771J0D01*
X874847Y1323617I678J-1636*
X876483Y1322524I0J-1771*
G01X876935Y1321433*
G02X877070Y1320754I-1636J-678*
X875978Y1319118I-1771J0*
G01X875977*
G02X875299Y1318983I-678J1637*
X873662Y1320076I0J1772*
G01X873210Y1321167*
G02X873075Y1321846I1636J678*
G37*
G36*
X143902Y1288890D02*
G02X144995Y1290526I1771J0D01*
X145674Y1290661I678J-1636*
X147310Y1289568I0J-1771*
G01X147762Y1288477*
G02X147897Y1287798I-1636J-678*
X146805Y1286162I-1771J0*
G01X146804*
G02X146126Y1286027I-678J1637*
X144489Y1287120I0J1772*
G01X144037Y1288211*
G02X143902Y1288890I1636J678*
G37*
G36*
X132090Y1366949D02*
G02X133183Y1368585I1771J0D01*
X133862Y1368720I678J-1636*
X135498Y1367627I0J-1771*
G01X135950Y1366536*
G02X136085Y1365857I-1636J-678*
X134993Y1364221I-1771J0*
G01X134992*
G02X134314Y1364086I-678J1637*
X132677Y1365179I0J1772*
G01X132225Y1366270*
G02X132090Y1366949I1636J678*
G37*
G36*
X873075Y651571D02*
G02X874168Y653207I1771J0D01*
X874847Y653342I678J-1636*
X876483Y652249I0J-1771*
G01X876935Y651158*
G02X877070Y650479I-1636J-678*
X875978Y648843I-1771J0*
G01X875977*
G02X875299Y648708I-678J1637*
X873662Y649801I0J1772*
G01X873210Y650892*
G02X873075Y651571I1636J678*
G37*
G36*
X865566Y633439D02*
G02X866659Y635076I1772J0D01*
G01X867750Y635528*
G02X870065Y634570I679J-1636*
X870200Y633891I-1636J-678*
X869107Y632255I-1771J0*
G01X868016Y631803*
G02X865701Y632760I-679J1636*
G01Y632761*
G02X865566Y633439I1637J678*
G37*
G36*
X833705Y319091D02*
G02X834798Y320727I1771J0D01*
X835477Y320862I678J-1636*
X837113Y319769I0J-1771*
G01X837565Y318678*
G02X837700Y317999I-1636J-678*
X836608Y316363I-1771J0*
G01X836607*
G02X835929Y316228I-678J1637*
X834292Y317321I0J1772*
G01X833840Y318412*
G02X833705Y319091I1636J678*
G37*
G36*
X143902Y358894D02*
G02X144995Y360530I1771J0D01*
X145674Y360665I678J-1636*
X147310Y359572I0J-1771*
G01X147762Y358481*
G02X147897Y357802I-1636J-678*
X146805Y356166I-1771J0*
G01X146804*
G02X146126Y356031I-678J1637*
X144489Y357124I0J1772*
G01X144037Y358215*
G02X143902Y358894I1636J678*
G37*
G36*
X136393Y1270758D02*
G02X137486Y1272395I1772J0D01*
G01X138577Y1272847*
G02X140892Y1271889I679J-1636*
X141027Y1271210I-1636J-678*
X139934Y1269574I-1771J0*
G01X138843Y1269122*
G02X136528Y1270079I-679J1636*
G01Y1270080*
G02X136393Y1270758I1637J678*
G37*
G36*
X124581Y1348817D02*
G02X125674Y1350454I1772J0D01*
G01X126765Y1350906*
G02X129080Y1349948I679J-1636*
X129215Y1349269I-1636J-678*
X128122Y1347633I-1771J0*
G01X127031Y1347181*
G02X124716Y1348138I-679J1636*
G01Y1348139*
G02X124581Y1348817I1637J678*
G37*
G36*
X1628153Y907591D02*
G02X1629246Y909227I1771J0D01*
X1629925Y909362I678J-1636*
X1631561Y908269I0J-1771*
G01X1632013Y907178*
G02X1632148Y906499I-1636J-678*
X1631056Y904863I-1771J0*
G01X1631055*
G02X1630377Y904728I-678J1637*
X1628740Y905821I0J1772*
G01X1628288Y906912*
G02X1628153Y907591I1636J678*
G37*
G36*
X865566Y1303714D02*
G02X866659Y1305351I1772J0D01*
G01X867750Y1305803*
G02X870065Y1304845I679J-1636*
X870200Y1304166I-1636J-678*
X869107Y1302530I-1771J0*
G01X868016Y1302078*
G02X865701Y1303035I-679J1636*
G01Y1303036*
G02X865566Y1303714I1637J678*
G37*
G36*
X826196Y300959D02*
G02X827289Y302596I1772J0D01*
G01X828380Y303048*
G02X830695Y302090I679J-1636*
X830830Y301411I-1636J-678*
X829737Y299775I-1771J0*
G01X828646Y299323*
G02X826331Y300280I-679J1636*
G01Y300281*
G02X826196Y300959I1637J678*
G37*
G36*
X136393Y340762D02*
G02X137486Y342399I1772J0D01*
G01X138577Y342851*
G02X140892Y341893I679J-1636*
X141027Y341214I-1636J-678*
X139934Y339578I-1771J0*
G01X138843Y339126*
G02X136528Y340083I-679J1636*
G01Y340084*
G02X136393Y340762I1637J678*
G37*
G36*
X87681Y1031772D02*
G02X88774Y1033408I1771J0D01*
X89453Y1033543I678J-1636*
X91089Y1032450I0J-1771*
G01X91541Y1031359*
G02X91676Y1030680I-1636J-678*
X90584Y1029044I-1771J0*
G01X90583*
G02X89905Y1028909I-678J1637*
X88268Y1030002I0J1772*
G01X87816Y1031093*
G02X87681Y1031772I1636J678*
G37*
G36*
X80172Y1013640D02*
G02X81265Y1015277I1772J0D01*
G01X82356Y1015729*
G02X84671Y1014771I679J-1636*
X84806Y1014092I-1636J-678*
X83713Y1012456I-1771J0*
G01X82622Y1012004*
G02X80307Y1012961I-679J1636*
G01Y1012962*
G02X80172Y1013640I1637J678*
G37*
G36*
X1603604Y897421D02*
G02X1604696Y899057I1771J0D01*
G01X1604697*
G02X1605375Y899192I679J-1638*
X1607012Y898099I0J-1772*
G01X1607464Y897008*
G02X1607599Y896329I-1636J-678*
X1606506Y894693I-1771J0*
X1605827Y894558I-678J1636*
X1604191Y895651I0J1771*
G01X1603739Y896742*
G02X1603604Y897421I1636J678*
G37*
G36*
X848526Y1311676D02*
G02X849618Y1313312I1771J0D01*
G01X849619*
G02X850297Y1313447I679J-1638*
X851934Y1312354I0J-1772*
G01X852386Y1311263*
G02X852521Y1310584I-1636J-678*
X851428Y1308948I-1771J0*
X850749Y1308813I-678J1636*
X849113Y1309906I0J1771*
G01X848661Y1310997*
G02X848526Y1311676I1636J678*
G37*
G36*
Y641401D02*
G02X849618Y643037I1771J0D01*
G01X849619*
G02X850297Y643172I679J-1638*
X851934Y642079I0J-1772*
G01X852386Y640988*
G02X852521Y640309I-1636J-678*
X851428Y638673I-1771J0*
X850749Y638538I-678J1636*
X849113Y639631I0J1771*
G01X848661Y640722*
G02X848526Y641401I1636J678*
G37*
G36*
X119353Y1278720D02*
G02X120445Y1280356I1771J0D01*
G01X120446*
G02X121124Y1280491I679J-1638*
X122761Y1279398I0J-1772*
G01X123213Y1278307*
G02X123348Y1277628I-1636J-678*
X122255Y1275992I-1771J0*
X121576Y1275857I-678J1636*
X119940Y1276950I0J1771*
G01X119488Y1278041*
G02X119353Y1278720I1636J678*
G37*
G36*
X107541Y1356779D02*
G02X108633Y1358415I1771J0D01*
G01X108634*
G02X109312Y1358550I679J-1638*
X110949Y1357457I0J-1772*
G01X111401Y1356366*
G02X111536Y1355687I-1636J-678*
X110443Y1354051I-1771J0*
X109764Y1353916I-678J1636*
X108128Y1355009I0J1771*
G01X107676Y1356100*
G02X107541Y1356779I1636J678*
G37*
G36*
X1610474Y914009D02*
G02X1611567Y915645I1771J0D01*
G01X1612658Y916097*
G02X1614973Y915140I679J-1636*
G01Y915139*
G02X1615108Y914461I-1638J-679*
X1614015Y912824I-1772J0*
G01X1612924Y912372*
G02X1610609Y913330I-679J1636*
X1610474Y914009I1636J678*
G37*
G36*
X855396Y1328264D02*
G02X856489Y1329900I1771J0D01*
G01X857580Y1330352*
G02X859895Y1329395I679J-1636*
G01Y1329394*
G02X860030Y1328716I-1638J-679*
X858937Y1327079I-1772J0*
G01X857846Y1326627*
G02X855531Y1327585I-679J1636*
X855396Y1328264I1636J678*
G37*
G36*
Y657989D02*
G02X856489Y659625I1771J0D01*
G01X857580Y660077*
G02X859895Y659120I679J-1636*
G01Y659119*
G02X860030Y658441I-1638J-679*
X858937Y656804I-1772J0*
G01X857846Y656352*
G02X855531Y657310I-679J1636*
X855396Y657989I1636J678*
G37*
G36*
X816026Y325509D02*
G02X817119Y327145I1771J0D01*
G01X818210Y327597*
G02X820525Y326640I679J-1636*
G01Y326639*
G02X820660Y325961I-1638J-679*
X819567Y324324I-1772J0*
G01X818476Y323872*
G02X816161Y324830I-679J1636*
X816026Y325509I1636J678*
G37*
G36*
X809156Y308921D02*
G02X810248Y310557I1771J0D01*
G01X810249*
G02X810927Y310692I679J-1638*
X812564Y309599I0J-1772*
G01X813016Y308508*
G02X813151Y307829I-1636J-678*
X812058Y306193I-1771J0*
X811379Y306058I-678J1636*
X809743Y307151I0J1771*
G01X809291Y308242*
G02X809156Y308921I1636J678*
G37*
G36*
X119353Y348724D02*
G02X120445Y350360I1771J0D01*
G01X120446*
G02X121124Y350495I679J-1638*
X122761Y349402I0J-1772*
G01X123213Y348311*
G02X123348Y347632I-1636J-678*
X122255Y345996I-1771J0*
X121576Y345861I-678J1636*
X119940Y346954I0J1771*
G01X119488Y348045*
G02X119353Y348724I1636J678*
G37*
G36*
X63132Y1021602D02*
G02X64224Y1023238I1771J0D01*
G01X64225*
G02X64903Y1023373I679J-1638*
X66540Y1022280I0J-1772*
G01X66992Y1021189*
G02X67127Y1020510I-1636J-678*
X66034Y1018874I-1771J0*
X65355Y1018739I-678J1636*
X63719Y1019832I0J1771*
G01X63267Y1020923*
G02X63132Y1021602I1636J678*
G37*
G36*
X126223Y1295308D02*
G02X127316Y1296944I1771J0D01*
G01X128407Y1297396*
G02X130722Y1296439I679J-1636*
G01Y1296438*
G02X130857Y1295760I-1638J-679*
X129764Y1294123I-1772J0*
G01X128673Y1293671*
G02X126358Y1294629I-679J1636*
X126223Y1295308I1636J678*
G37*
G36*
Y365312D02*
G02X127316Y366948I1771J0D01*
G01X128407Y367400*
G02X130722Y366443I679J-1636*
G01Y366442*
G02X130857Y365764I-1638J-679*
X129764Y364127I-1772J0*
G01X128673Y363675*
G02X126358Y364633I-679J1636*
X126223Y365312I1636J678*
G37*
G36*
X114411Y1373367D02*
G02X115504Y1375003I1771J0D01*
G01X116595Y1375455*
G02X118910Y1374498I679J-1636*
G01Y1374497*
G02X119045Y1373819I-1638J-679*
X117952Y1372182I-1772J0*
G01X116861Y1371730*
G02X114546Y1372688I-679J1636*
X114411Y1373367I1636J678*
G37*
G36*
X70002Y1038190D02*
G02X71095Y1039826I1771J0D01*
G01X72186Y1040278*
G02X74501Y1039321I679J-1636*
G01Y1039320*
G02X74636Y1038642I-1638J-679*
X73543Y1037005I-1772J0*
G01X72452Y1036553*
G02X70137Y1037511I-679J1636*
X70002Y1038190I1636J678*
G37*
G36*
X826196Y325961D02*
G02X826331Y326639I1772J0D01*
G01Y326640*
G02X828646Y327597I1636J-679*
G01X829737Y327145*
G02X830830Y325509I-678J-1636*
X830695Y324830I-1771J-1*
X828380Y323872I-1636J678*
G01X827289Y324324*
G02X826196Y325961I679J1637*
G37*
G36*
X809156Y317999D02*
G02X809291Y318678I1771J1D01*
G01X809743Y319769*
G02X811379Y320862I1636J-678*
X812058Y320727I1J-1771*
X813151Y319091I-678J-1636*
X813016Y318412I-1771J-1*
G01X812564Y317321*
G02X810927Y316228I-1637J679*
X810249Y316363I0J1772*
G01X810248*
G02X809156Y317999I679J1636*
G37*
G36*
X136393Y365764D02*
G02X136528Y366442I1772J0D01*
G01Y366443*
G02X138843Y367400I1636J-679*
G01X139934Y366948*
G02X141027Y365312I-678J-1636*
X140892Y364633I-1771J-1*
X138577Y363675I-1636J678*
G01X137486Y364127*
G02X136393Y365764I679J1637*
G37*
G36*
X119353Y357802D02*
G02X119488Y358481I1771J1D01*
G01X119940Y359572*
G02X121576Y360665I1636J-678*
X122255Y360530I1J-1771*
X123348Y358894I-678J-1636*
X123213Y358215I-1771J-1*
G01X122761Y357124*
G02X121124Y356031I-1637J679*
X120446Y356166I0J1772*
G01X120445*
G02X119353Y357802I679J1636*
G37*
G36*
X1620644Y914461D02*
G02X1620779Y915139I1772J0D01*
G01Y915140*
G02X1623094Y916097I1636J-679*
G01X1624185Y915645*
G02X1625278Y914009I-678J-1636*
X1625143Y913330I-1771J-1*
X1622828Y912372I-1636J678*
G01X1621737Y912824*
G02X1620644Y914461I679J1637*
G37*
G36*
X1603604Y906499D02*
G02X1603739Y907178I1771J1D01*
G01X1604191Y908269*
G02X1605827Y909362I1636J-678*
X1606506Y909227I1J-1771*
X1607599Y907591I-678J-1636*
X1607464Y906912I-1771J-1*
G01X1607012Y905821*
G02X1605375Y904728I-1637J679*
X1604697Y904863I0J1772*
G01X1604696*
G02X1603604Y906499I679J1636*
G37*
G36*
X865566Y658441D02*
G02X865701Y659119I1772J0D01*
G01Y659120*
G02X868016Y660077I1636J-679*
G01X869107Y659625*
G02X870200Y657989I-678J-1636*
X870065Y657310I-1771J-1*
X867750Y656352I-1636J678*
G01X866659Y656804*
G02X865566Y658441I679J1637*
G37*
G36*
X848526Y1320754D02*
G02X848661Y1321433I1771J1D01*
G01X849113Y1322524*
G02X850749Y1323617I1636J-678*
X851428Y1323482I1J-1771*
X852521Y1321846I-678J-1636*
X852386Y1321167I-1771J-1*
G01X851934Y1320076*
G02X850297Y1318983I-1637J679*
X849619Y1319118I0J1772*
G01X849618*
G02X848526Y1320754I679J1636*
G37*
G36*
Y650479D02*
G02X848661Y651158I1771J1D01*
G01X849113Y652249*
G02X850749Y653342I1636J-678*
X851428Y653207I1J-1771*
X852521Y651571I-678J-1636*
X852386Y650892I-1771J-1*
G01X851934Y649801*
G02X850297Y648708I-1637J679*
X849619Y648843I0J1772*
G01X849618*
G02X848526Y650479I679J1636*
G37*
G36*
X119353Y1287798D02*
G02X119488Y1288477I1771J1D01*
G01X119940Y1289568*
G02X121576Y1290661I1636J-678*
X122255Y1290526I1J-1771*
X123348Y1288890I-678J-1636*
X123213Y1288211I-1771J-1*
G01X122761Y1287120*
G02X121124Y1286027I-1637J679*
X120446Y1286162I0J1772*
G01X120445*
G02X119353Y1287798I679J1636*
G37*
G36*
X107541Y1365857D02*
G02X107676Y1366536I1771J1D01*
G01X108128Y1367627*
G02X109764Y1368720I1636J-678*
X110443Y1368585I1J-1771*
X111536Y1366949I-678J-1636*
X111401Y1366270I-1771J-1*
G01X110949Y1365179*
G02X109312Y1364086I-1637J679*
X108634Y1364221I0J1772*
G01X108633*
G02X107541Y1365857I679J1636*
G37*
G36*
X80172Y1038642D02*
G02X80307Y1039320I1772J0D01*
G01Y1039321*
G02X82622Y1040278I1636J-679*
G01X83713Y1039826*
G02X84806Y1038190I-678J-1636*
X84671Y1037511I-1771J-1*
X82356Y1036553I-1636J678*
G01X81265Y1037005*
G02X80172Y1038642I679J1637*
G37*
G36*
X63132Y1030680D02*
G02X63267Y1031359I1771J1D01*
G01X63719Y1032450*
G02X65355Y1033543I1636J-678*
X66034Y1033408I1J-1771*
X67127Y1031772I-678J-1636*
X66992Y1031093I-1771J-1*
G01X66540Y1030002*
G02X64903Y1028909I-1637J679*
X64225Y1029044I0J1772*
G01X64224*
G02X63132Y1030680I679J1636*
G37*
G36*
X865566Y1328716D02*
G02X865701Y1329394I1772J0D01*
G01Y1329395*
G02X868016Y1330352I1636J-679*
G01X869107Y1329900*
G02X870200Y1328264I-678J-1636*
X870065Y1327585I-1771J-1*
X867750Y1326627I-1636J678*
G01X866659Y1327079*
G02X865566Y1328716I679J1637*
G37*
G36*
X136393Y1295760D02*
G02X136528Y1296438I1772J0D01*
G01Y1296439*
G02X138843Y1297396I1636J-679*
G01X139934Y1296944*
G02X141027Y1295308I-678J-1636*
X140892Y1294629I-1771J-1*
X138577Y1293671I-1636J678*
G01X137486Y1294123*
G02X136393Y1295760I679J1637*
G37*
G36*
X124581Y1373819D02*
G02X124716Y1374497I1772J0D01*
G01Y1374498*
G02X127031Y1375455I1636J-679*
G01X128122Y1375003*
G02X129215Y1373367I-678J-1636*
X129080Y1372688I-1771J-1*
X126765Y1371730I-1636J678*
G01X125674Y1372182*
G02X124581Y1373819I679J1637*
G37*
G36*
X833705Y307829D02*
G02X833840Y308508I1771J1D01*
G01X834292Y309599*
G02X835929Y310692I1637J-679*
X836607Y310557I0J-1772*
G01X836608*
G02X837700Y308921I-679J-1636*
X837565Y308242I-1771J-1*
G01X837113Y307151*
G02X835477Y306058I-1636J678*
X834798Y306193I-1J1771*
X833705Y307829I678J1636*
G37*
G36*
X143902Y347632D02*
G02X144037Y348311I1771J1D01*
G01X144489Y349402*
G02X146126Y350495I1637J-679*
X146804Y350360I0J-1772*
G01X146805*
G02X147897Y348724I-679J-1636*
X147762Y348045I-1771J-1*
G01X147310Y346954*
G02X145674Y345861I-1636J678*
X144995Y345996I-1J1771*
X143902Y347632I678J1636*
G37*
G36*
X1628153Y896329D02*
G02X1628288Y897008I1771J1D01*
G01X1628740Y898099*
G02X1630377Y899192I1637J-679*
X1631055Y899057I0J-1772*
G01X1631056*
G02X1632148Y897421I-679J-1636*
X1632013Y896742I-1771J-1*
G01X1631561Y895651*
G02X1629925Y894558I-1636J678*
X1629246Y894693I-1J1771*
X1628153Y896329I678J1636*
G37*
G36*
X873075Y1310584D02*
G02X873210Y1311263I1771J1D01*
G01X873662Y1312354*
G02X875299Y1313447I1637J-679*
X875977Y1313312I0J-1772*
G01X875978*
G02X877070Y1311676I-679J-1636*
X876935Y1310997I-1771J-1*
G01X876483Y1309906*
G02X874847Y1308813I-1636J678*
X874168Y1308948I-1J1771*
X873075Y1310584I678J1636*
G37*
G36*
Y640309D02*
G02X873210Y640988I1771J1D01*
G01X873662Y642079*
G02X875299Y643172I1637J-679*
X875977Y643037I0J-1772*
G01X875978*
G02X877070Y641401I-679J-1636*
X876935Y640722I-1771J-1*
G01X876483Y639631*
G02X874847Y638538I-1636J678*
X874168Y638673I-1J1771*
X873075Y640309I678J1636*
G37*
G36*
X143902Y1277628D02*
G02X144037Y1278307I1771J1D01*
G01X144489Y1279398*
G02X146126Y1280491I1637J-679*
X146804Y1280356I0J-1772*
G01X146805*
G02X147897Y1278720I-679J-1636*
X147762Y1278041I-1771J-1*
G01X147310Y1276950*
G02X145674Y1275857I-1636J678*
X144995Y1275992I-1J1771*
X143902Y1277628I678J1636*
G37*
G36*
X132090Y1355687D02*
G02X132225Y1356366I1771J1D01*
G01X132677Y1357457*
G02X134314Y1358550I1637J-679*
X134992Y1358415I0J-1772*
G01X134993*
G02X136085Y1356779I-679J-1636*
X135950Y1356100I-1771J-1*
G01X135498Y1355009*
G02X133862Y1353916I-1636J678*
X133183Y1354051I-1J1771*
X132090Y1355687I678J1636*
G37*
G36*
X87681Y1020510D02*
G02X87816Y1021189I1771J1D01*
G01X88268Y1022280*
G02X89905Y1023373I1637J-679*
X90583Y1023238I0J-1772*
G01X90584*
G02X91676Y1021602I-679J-1636*
X91541Y1020923I-1771J-1*
G01X91089Y1019832*
G02X89453Y1018739I-1636J678*
X88774Y1018874I-1J1771*
X87681Y1020510I678J1636*
G37*
G36*
X70002Y1014092D02*
G02X70137Y1014771I1771J1D01*
X72452Y1015729I1636J-678*
G01X73543Y1015277*
G02X74636Y1013640I-679J-1637*
X74501Y1012962I-1773J1*
G01Y1012961*
G02X72186Y1012004I-1636J679*
G01X71095Y1012456*
G02X70002Y1014092I678J1636*
G37*
G36*
X1610474Y889911D02*
G02X1610609Y890590I1771J1D01*
X1612924Y891548I1636J-678*
G01X1614015Y891096*
G02X1615108Y889459I-679J-1637*
X1614973Y888781I-1773J1*
G01Y888780*
G02X1612658Y887823I-1636J679*
G01X1611567Y888275*
G02X1610474Y889911I678J1636*
G37*
G36*
X855396Y1304166D02*
G02X855531Y1304845I1771J1D01*
X857846Y1305803I1636J-678*
G01X858937Y1305351*
G02X860030Y1303714I-679J-1637*
X859895Y1303036I-1773J1*
G01Y1303035*
G02X857580Y1302078I-1636J679*
G01X856489Y1302530*
G02X855396Y1304166I678J1636*
G37*
G36*
Y633891D02*
G02X855531Y634570I1771J1D01*
X857846Y635528I1636J-678*
G01X858937Y635076*
G02X860030Y633439I-679J-1637*
X859895Y632761I-1773J1*
G01Y632760*
G02X857580Y631803I-1636J679*
G01X856489Y632255*
G02X855396Y633891I678J1636*
G37*
G36*
X816026Y301411D02*
G02X816161Y302090I1771J1D01*
X818476Y303048I1636J-678*
G01X819567Y302596*
G02X820660Y300959I-679J-1637*
X820525Y300281I-1773J1*
G01Y300280*
G02X818210Y299323I-1636J679*
G01X817119Y299775*
G02X816026Y301411I678J1636*
G37*
G36*
X126223Y1271210D02*
G02X126358Y1271889I1771J1D01*
X128673Y1272847I1636J-678*
G01X129764Y1272395*
G02X130857Y1270758I-679J-1637*
X130722Y1270080I-1773J1*
G01Y1270079*
G02X128407Y1269122I-1636J679*
G01X127316Y1269574*
G02X126223Y1271210I678J1636*
G37*
G36*
Y341214D02*
G02X126358Y341893I1771J1D01*
X128673Y342851I1636J-678*
G01X129764Y342399*
G02X130857Y340762I-679J-1637*
X130722Y340084I-1773J1*
G01Y340083*
G02X128407Y339126I-1636J679*
G01X127316Y339578*
G02X126223Y341214I678J1636*
G37*
G36*
X114411Y1349269D02*
G02X114546Y1349948I1771J1D01*
X116861Y1350906I1636J-678*
G01X117952Y1350454*
G02X119045Y1348817I-679J-1637*
X118910Y1348139I-1773J1*
G01Y1348138*
G02X116595Y1347181I-1636J679*
G01X115504Y1347633*
G02X114411Y1349269I678J1636*
G37*
G36*
X1862328Y1299706D02*
G02X1863422Y1301343I1772J0D01*
X1865737Y1300384I678J-1637*
G01X1866189Y1299292*
G02X1866324Y1298614I-1637J-678*
X1865230Y1296977I-1772J0*
X1862915Y1297936I-678J1637*
G01X1862463Y1299028*
G02X1862328Y1299706I1637J678*
G37*
G36*
Y1286954D02*
G02X1862463Y1287632I1772J0D01*
G01X1862915Y1288724*
G02X1865230Y1289683I1637J-678*
X1866324Y1288046I-678J-1637*
X1866189Y1287368I-1772J0*
G01X1865737Y1286276*
G02X1863422Y1285317I-1637J678*
X1862328Y1286954I678J1637*
G37*
G36*
Y501989D02*
G02X1863422Y503626I1772J0D01*
X1865737Y502667I678J-1637*
G01X1866189Y501575*
G02X1866324Y500897I-1637J-678*
X1865230Y499260I-1772J0*
X1862915Y500219I-678J1637*
G01X1862463Y501311*
G02X1862328Y501989I1637J678*
G37*
G36*
Y489237D02*
G02X1862463Y489915I1772J0D01*
G01X1862915Y491007*
G02X1865230Y491966I1637J-678*
X1866324Y490329I-678J-1637*
X1866189Y489651I-1772J0*
G01X1865737Y488559*
G02X1863422Y487600I-1637J678*
X1862328Y489237I678J1637*
G37*
G36*
X1853759Y1307635D02*
G02X1853894Y1308313I1772J0D01*
X1856209Y1309272I1637J-678*
G01X1857301Y1308820*
G02X1858395Y1307183I-678J-1637*
X1858260Y1306505I-1772J0*
X1855945Y1305546I-1637J678*
G01X1854853Y1305998*
G02X1853759Y1307635I678J1637*
G37*
G36*
Y1279025D02*
G02X1854853Y1280662I1772J0D01*
G01X1855945Y1281114*
G02X1858260Y1280155I678J-1637*
X1858395Y1279477I-1637J-678*
X1857301Y1277840I-1772J0*
G01X1856209Y1277388*
G02X1853894Y1278347I-678J1637*
X1853759Y1279025I1637J678*
G37*
G36*
Y509918D02*
G02X1853894Y510596I1772J0D01*
X1856209Y511555I1637J-678*
G01X1857301Y511103*
G02X1858395Y509466I-678J-1637*
X1858260Y508788I-1772J0*
X1855945Y507829I-1637J678*
G01X1854853Y508281*
G02X1853759Y509918I678J1637*
G37*
G36*
Y481308D02*
G02X1854853Y482945I1772J0D01*
G01X1855945Y483397*
G02X1858260Y482438I678J-1637*
X1858395Y481760I-1637J-678*
X1857301Y480123I-1772J0*
G01X1856209Y479671*
G02X1853894Y480630I-678J1637*
X1853759Y481308I1637J678*
G37*
G36*
X1842099Y1307183D02*
G02X1843193Y1308820I1772J0D01*
G01X1844285Y1309272*
G02X1846600Y1308313I678J-1637*
X1846735Y1307635I-1637J-678*
X1845641Y1305998I-1772J0*
G01X1844549Y1305546*
G02X1842234Y1306505I-678J1637*
X1842099Y1307183I1637J678*
G37*
G36*
Y1279477D02*
G02X1842234Y1280155I1772J0D01*
X1844549Y1281114I1637J-678*
G01X1845641Y1280662*
G02X1846735Y1279025I-678J-1637*
X1846600Y1278347I-1772J0*
X1844285Y1277388I-1637J678*
G01X1843193Y1277840*
G02X1842099Y1279477I678J1637*
G37*
G36*
Y509466D02*
G02X1843193Y511103I1772J0D01*
G01X1844285Y511555*
G02X1846600Y510596I678J-1637*
X1846735Y509918I-1637J-678*
X1845641Y508281I-1772J0*
G01X1844549Y507829*
G02X1842234Y508788I-678J1637*
X1842099Y509466I1637J678*
G37*
G36*
Y481760D02*
G02X1842234Y482438I1772J0D01*
X1844549Y483397I1637J-678*
G01X1845641Y482945*
G02X1846735Y481308I-678J-1637*
X1846600Y480630I-1772J0*
X1844285Y479671I-1637J678*
G01X1843193Y480123*
G02X1842099Y481760I678J1637*
G37*
G36*
X1834170Y1298614D02*
G02X1834305Y1299292I1772J0D01*
G01X1834757Y1300384*
G02X1837072Y1301343I1637J-678*
X1838166Y1299706I-678J-1637*
X1838031Y1299028I-1772J0*
G01X1837579Y1297936*
G02X1835264Y1296977I-1637J678*
X1834170Y1298614I678J1637*
G37*
G36*
Y1288046D02*
G02X1835264Y1289683I1772J0D01*
X1837579Y1288724I678J-1637*
G01X1838031Y1287632*
G02X1838166Y1286954I-1637J-678*
X1837072Y1285317I-1772J0*
X1834757Y1286276I-678J1637*
G01X1834305Y1287368*
G02X1834170Y1288046I1637J678*
G37*
G36*
Y500897D02*
G02X1834305Y501575I1772J0D01*
G01X1834757Y502667*
G02X1837072Y503626I1637J-678*
X1838166Y501989I-678J-1637*
X1838031Y501311I-1772J0*
G01X1837579Y500219*
G02X1835264Y499260I-1637J678*
X1834170Y500897I678J1637*
G37*
G36*
Y490329D02*
G02X1835264Y491966I1772J0D01*
X1837579Y491007I678J-1637*
G01X1838031Y489915*
G02X1838166Y489237I-1637J-678*
X1837072Y487600I-1772J0*
X1834757Y488559I-678J1637*
G01X1834305Y489651*
G02X1834170Y490329I1637J678*
G37*
G36*
X1629957Y1641336D02*
G02X1631051Y1642973I1772J0D01*
X1633366Y1642014I678J-1637*
G01X1633818Y1640922*
G02X1633953Y1640244I-1637J-678*
X1632859Y1638607I-1772J0*
X1630544Y1639566I-678J1637*
G01X1630092Y1640658*
G02X1629957Y1641336I1637J678*
G37*
G36*
Y1628584D02*
G02X1630092Y1629262I1772J0D01*
G01X1630544Y1630354*
G02X1632859Y1631313I1637J-678*
X1633953Y1629676I-678J-1637*
X1633818Y1628998I-1772J0*
G01X1633366Y1627906*
G02X1631051Y1626947I-1637J678*
X1629957Y1628584I678J1637*
G37*
G36*
Y71336D02*
G02X1631051Y72973I1772J0D01*
X1633366Y72014I678J-1637*
G01X1633818Y70922*
G02X1633953Y70244I-1637J-678*
X1632859Y68607I-1772J0*
X1630544Y69566I-678J1637*
G01X1630092Y70658*
G02X1629957Y71336I1637J678*
G37*
G36*
Y58584D02*
G02X1630092Y59262I1772J0D01*
G01X1630544Y60354*
G02X1632859Y61313I1637J-678*
X1633953Y59676I-678J-1637*
X1633818Y58998I-1772J0*
G01X1633366Y57906*
G02X1631051Y56947I-1637J678*
X1629957Y58584I678J1637*
G37*
G36*
X1621388Y1649265D02*
G02X1621523Y1649943I1772J0D01*
X1623838Y1650902I1637J-678*
G01X1624930Y1650450*
G02X1626024Y1648813I-678J-1637*
X1625889Y1648135I-1772J0*
X1623574Y1647176I-1637J678*
G01X1622482Y1647628*
G02X1621388Y1649265I678J1637*
G37*
G36*
Y1620655D02*
G02X1622482Y1622292I1772J0D01*
G01X1623574Y1622744*
G02X1625889Y1621785I678J-1637*
X1626024Y1621107I-1637J-678*
X1624930Y1619470I-1772J0*
G01X1623838Y1619018*
G02X1621523Y1619977I-678J1637*
X1621388Y1620655I1637J678*
G37*
G36*
Y79265D02*
G02X1621523Y79943I1772J0D01*
X1623838Y80902I1637J-678*
G01X1624930Y80450*
G02X1626024Y78813I-678J-1637*
X1625889Y78135I-1772J0*
X1623574Y77176I-1637J678*
G01X1622482Y77628*
G02X1621388Y79265I678J1637*
G37*
G36*
Y50655D02*
G02X1622482Y52292I1772J0D01*
G01X1623574Y52744*
G02X1625889Y51785I678J-1637*
X1626024Y51107I-1637J-678*
X1624930Y49470I-1772J0*
G01X1623838Y49018*
G02X1621523Y49977I-678J1637*
X1621388Y50655I1637J678*
G37*
G36*
X1609728Y1648813D02*
G02X1610822Y1650450I1772J0D01*
G01X1611914Y1650902*
G02X1614229Y1649943I678J-1637*
X1614364Y1649265I-1637J-678*
X1613270Y1647628I-1772J0*
G01X1612178Y1647176*
G02X1609863Y1648135I-678J1637*
X1609728Y1648813I1637J678*
G37*
G36*
Y1621107D02*
G02X1609863Y1621785I1772J0D01*
X1612178Y1622744I1637J-678*
G01X1613270Y1622292*
G02X1614364Y1620655I-678J-1637*
X1614229Y1619977I-1772J0*
X1611914Y1619018I-1637J678*
G01X1610822Y1619470*
G02X1609728Y1621107I678J1637*
G37*
G36*
Y78813D02*
G02X1610822Y80450I1772J0D01*
G01X1611914Y80902*
G02X1614229Y79943I678J-1637*
X1614364Y79265I-1637J-678*
X1613270Y77628I-1772J0*
G01X1612178Y77176*
G02X1609863Y78135I-678J1637*
X1609728Y78813I1637J678*
G37*
G36*
Y51107D02*
G02X1609863Y51785I1772J0D01*
X1612178Y52744I1637J-678*
G01X1613270Y52292*
G02X1614364Y50655I-678J-1637*
X1614229Y49977I-1772J0*
X1611914Y49018I-1637J678*
G01X1610822Y49470*
G02X1609728Y51107I678J1637*
G37*
G36*
X1601799Y1640244D02*
G02X1601934Y1640922I1772J0D01*
G01X1602386Y1642014*
G02X1604701Y1642973I1637J-678*
X1605795Y1641336I-678J-1637*
X1605660Y1640658I-1772J0*
G01X1605208Y1639566*
G02X1602893Y1638607I-1637J678*
X1601799Y1640244I678J1637*
G37*
G36*
Y1629676D02*
G02X1602893Y1631313I1772J0D01*
X1605208Y1630354I678J-1637*
G01X1605660Y1629262*
G02X1605795Y1628584I-1637J-678*
X1604701Y1626947I-1772J0*
X1602386Y1627906I-678J1637*
G01X1601934Y1628998*
G02X1601799Y1629676I1637J678*
G37*
G36*
Y70244D02*
G02X1601934Y70922I1772J0D01*
G01X1602386Y72014*
G02X1604701Y72973I1637J-678*
X1605795Y71336I-678J-1637*
X1605660Y70658I-1772J0*
G01X1605208Y69566*
G02X1602893Y68607I-1637J678*
X1601799Y70244I678J1637*
G37*
G36*
Y59676D02*
G02X1602893Y61313I1772J0D01*
X1605208Y60354I678J-1637*
G01X1605660Y59262*
G02X1605795Y58584I-1637J-678*
X1604701Y56947I-1772J0*
X1602386Y57906I-678J1637*
G01X1601934Y58998*
G02X1601799Y59676I1637J678*
G37*
G36*
X994454Y1649210D02*
G02X995548Y1650847I1772J0D01*
X997863Y1649888I678J-1637*
G01X998315Y1648796*
G02X998450Y1648118I-1637J-678*
X997356Y1646481I-1772J0*
X995041Y1647440I-678J1637*
G01X994589Y1648532*
G02X994454Y1649210I1637J678*
G37*
G36*
Y1636458D02*
G02X994589Y1637136I1772J0D01*
G01X995041Y1638228*
G02X997356Y1639187I1637J-678*
X998450Y1637550I-678J-1637*
X998315Y1636872I-1772J0*
G01X997863Y1635780*
G02X995548Y1634821I-1637J678*
X994454Y1636458I678J1637*
G37*
G36*
X985885Y1657139D02*
G02X986020Y1657817I1772J0D01*
X988335Y1658776I1637J-678*
G01X989427Y1658324*
G02X990521Y1656687I-678J-1637*
X990386Y1656009I-1772J0*
X988071Y1655050I-1637J678*
G01X986979Y1655502*
G02X985885Y1657139I678J1637*
G37*
G36*
Y1628529D02*
G02X986979Y1630166I1772J0D01*
G01X988071Y1630618*
G02X990386Y1629659I678J-1637*
X990521Y1628981I-1637J-678*
X989427Y1627344I-1772J0*
G01X988335Y1626892*
G02X986020Y1627851I-678J1637*
X985885Y1628529I1637J678*
G37*
G36*
X982643Y40588D02*
G02X983737Y42225I1772J0D01*
X986052Y41266I678J-1637*
G01X986504Y40174*
G02X986639Y39496I-1637J-678*
X985545Y37859I-1772J0*
X983230Y38818I-678J1637*
G01X982778Y39910*
G02X982643Y40588I1637J678*
G37*
G36*
X974225Y1656687D02*
G02X975319Y1658324I1772J0D01*
G01X976411Y1658776*
G02X978726Y1657817I678J-1637*
X978861Y1657139I-1637J-678*
X977767Y1655502I-1772J0*
G01X976675Y1655050*
G02X974360Y1656009I-678J1637*
X974225Y1656687I1637J678*
G37*
G36*
Y1628981D02*
G02X974360Y1629659I1772J0D01*
X976675Y1630618I1637J-678*
G01X977767Y1630166*
G02X978861Y1628529I-678J-1637*
X978726Y1627851I-1772J0*
X976411Y1626892I-1637J678*
G01X975319Y1627344*
G02X974225Y1628981I678J1637*
G37*
G36*
X974074Y19907D02*
G02X975168Y21544I1772J0D01*
G01X976260Y21996*
G02X978575Y21037I678J-1637*
X978710Y20359I-1637J-678*
X977616Y18722I-1772J0*
G01X976524Y18270*
G02X974209Y19229I-678J1637*
X974074Y19907I1637J678*
G37*
G36*
X966296Y1648118D02*
G02X966431Y1648796I1772J0D01*
G01X966883Y1649888*
G02X969198Y1650847I1637J-678*
X970292Y1649210I-678J-1637*
X970157Y1648532I-1772J0*
G01X969705Y1647440*
G02X967390Y1646481I-1637J678*
X966296Y1648118I678J1637*
G37*
G36*
Y1637550D02*
G02X967390Y1639187I1772J0D01*
X969705Y1638228I678J-1637*
G01X970157Y1637136*
G02X970292Y1636458I-1637J-678*
X969198Y1634821I-1772J0*
X966883Y1635780I-678J1637*
G01X966431Y1636872*
G02X966296Y1637550I1637J678*
G37*
G36*
X962414Y48065D02*
G02X963508Y49702I1772J0D01*
G01X964600Y50154*
G02X966915Y49195I678J-1637*
X967050Y48517I-1637J-678*
X965956Y46880I-1772J0*
G01X964864Y46428*
G02X962549Y47387I-678J1637*
X962414Y48065I1637J678*
G37*
G36*
X954485Y28928D02*
G02X955579Y30565I1772J0D01*
X957894Y29606I678J-1637*
G01X958346Y28514*
G02X958481Y27836I-1637J-678*
X957387Y26199I-1772J0*
X955072Y27158I-678J1637*
G01X954620Y28250*
G02X954485Y28928I1637J678*
G37*
G36*
X785706Y1128221D02*
G02X786800Y1129858I1772J0D01*
X789115Y1128899I678J-1637*
G01X789567Y1127807*
G02X789702Y1127129I-1637J-678*
X788608Y1125492I-1772J0*
X786293Y1126451I-678J1637*
G01X785841Y1127543*
G02X785706Y1128221I1637J678*
G37*
G36*
Y1115469D02*
G02X785841Y1116147I1772J0D01*
G01X786293Y1117239*
G02X788608Y1118198I1637J-678*
X789702Y1116561I-678J-1637*
X789567Y1115883I-1772J0*
G01X789115Y1114791*
G02X786800Y1113832I-1637J678*
X785706Y1115469I678J1637*
G37*
G36*
X777137Y1136150D02*
G02X777272Y1136828I1772J0D01*
X779587Y1137787I1637J-678*
G01X780679Y1137335*
G02X781773Y1135698I-678J-1637*
X781638Y1135020I-1772J0*
X779323Y1134061I-1637J678*
G01X778231Y1134513*
G02X777137Y1136150I678J1637*
G37*
G36*
Y1107540D02*
G02X778231Y1109177I1772J0D01*
G01X779323Y1109629*
G02X781638Y1108670I678J-1637*
X781773Y1107992I-1637J-678*
X780679Y1106355I-1772J0*
G01X779587Y1105903*
G02X777272Y1106862I-678J1637*
X777137Y1107540I1637J678*
G37*
G36*
X765477Y1135698D02*
G02X766571Y1137335I1772J0D01*
G01X767663Y1137787*
G02X769978Y1136828I678J-1637*
X770113Y1136150I-1637J-678*
X769019Y1134513I-1772J0*
G01X767927Y1134061*
G02X765612Y1135020I-678J1637*
X765477Y1135698I1637J678*
G37*
G36*
Y1107992D02*
G02X765612Y1108670I1772J0D01*
X767927Y1109629I1637J-678*
G01X769019Y1109177*
G02X770113Y1107540I-678J-1637*
X769978Y1106862I-1772J0*
X767663Y1105903I-1637J678*
G01X766571Y1106355*
G02X765477Y1107992I678J1637*
G37*
G36*
X757548Y1127129D02*
G02X757683Y1127807I1772J0D01*
G01X758135Y1128899*
G02X760450Y1129858I1637J-678*
X761544Y1128221I-678J-1637*
X761409Y1127543I-1772J0*
G01X760957Y1126451*
G02X758642Y1125492I-1637J678*
X757548Y1127129I678J1637*
G37*
G36*
Y1116561D02*
G02X758642Y1118198I1772J0D01*
X760957Y1117239I678J-1637*
G01X761409Y1116147*
G02X761544Y1115469I-1637J-678*
X760450Y1113832I-1772J0*
X758135Y1114791I-678J1637*
G01X757683Y1115883*
G02X757548Y1116561I1637J678*
G37*
G36*
X699091Y1284906D02*
G02X700185Y1286543I1772J0D01*
X702500Y1285584I678J-1637*
G01X702952Y1284492*
G02X703087Y1283814I-1637J-678*
X701993Y1282177I-1772J0*
X699678Y1283136I-678J1637*
G01X699226Y1284228*
G02X699091Y1284906I1637J678*
G37*
G36*
Y1272154D02*
G02X699226Y1272832I1772J0D01*
G01X699678Y1273924*
G02X701993Y1274883I1637J-678*
X703087Y1273246I-678J-1637*
X702952Y1272568I-1772J0*
G01X702500Y1271476*
G02X700185Y1270517I-1637J678*
X699091Y1272154I678J1637*
G37*
G36*
X690522Y1292835D02*
G02X690657Y1293513I1772J0D01*
X692972Y1294472I1637J-678*
G01X694064Y1294020*
G02X695158Y1292383I-678J-1637*
X695023Y1291705I-1772J0*
X692708Y1290746I-1637J678*
G01X691616Y1291198*
G02X690522Y1292835I678J1637*
G37*
G36*
Y1264225D02*
G02X691616Y1265862I1772J0D01*
G01X692708Y1266314*
G02X695023Y1265355I678J-1637*
X695158Y1264677I-1637J-678*
X694064Y1263040I-1772J0*
G01X692972Y1262588*
G02X690657Y1263547I-678J1637*
X690522Y1264225I1637J678*
G37*
G36*
X678862Y1292383D02*
G02X679956Y1294020I1772J0D01*
G01X681048Y1294472*
G02X683363Y1293513I678J-1637*
X683498Y1292835I-1637J-678*
X682404Y1291198I-1772J0*
G01X681312Y1290746*
G02X678997Y1291705I-678J1637*
X678862Y1292383I1637J678*
G37*
G36*
Y1264677D02*
G02X678997Y1265355I1772J0D01*
X681312Y1266314I1637J-678*
G01X682404Y1265862*
G02X683498Y1264225I-678J-1637*
X683363Y1263547I-1772J0*
X681048Y1262588I-1637J678*
G01X679956Y1263040*
G02X678862Y1264677I678J1637*
G37*
G36*
X670933Y1283814D02*
G02X671068Y1284492I1772J0D01*
G01X671520Y1285584*
G02X673835Y1286543I1637J-678*
X674929Y1284906I-678J-1637*
X674794Y1284228I-1772J0*
G01X674342Y1283136*
G02X672027Y1282177I-1637J678*
X670933Y1283814I678J1637*
G37*
G36*
Y1273246D02*
G02X672027Y1274883I1772J0D01*
X674342Y1273924I678J-1637*
G01X674794Y1272832*
G02X674929Y1272154I-1637J-678*
X673835Y1270517I-1772J0*
X671520Y1271476I-678J1637*
G01X671068Y1272568*
G02X670933Y1273246I1637J678*
G37*
G36*
X982643Y27836D02*
G02X982778Y28514I1772J0D01*
G01X983230Y29606*
G02X985545Y30565I1637J-678*
X986639Y28928I-678J-1637*
X986504Y28250I-1772J0*
G01X986052Y27158*
G02X983737Y26199I-1637J678*
X982643Y27836I678J1637*
G37*
G36*
X954485Y39496D02*
G02X954620Y40174I1772J0D01*
G01X955072Y41266*
G02X957387Y42225I1637J-678*
X958481Y40588I-678J-1637*
X958346Y39910I-1772J0*
G01X957894Y38818*
G02X955579Y37859I-1637J678*
X954485Y39496I678J1637*
G37*
G36*
X974074Y48517D02*
G02X974209Y49195I1772J0D01*
X976524Y50154I1637J-678*
G01X977616Y49702*
G02X978710Y48065I-678J-1637*
X978575Y47387I-1772J0*
X976260Y46428I-1637J678*
G01X975168Y46880*
G02X974074Y48517I678J1637*
G37*
G36*
X962414Y20359D02*
G02X962549Y21037I1772J0D01*
X964864Y21996I1637J-678*
G01X965956Y21544*
G02X967050Y19907I-678J-1637*
X966915Y19229I-1772J0*
X964600Y18270I-1637J678*
G01X963508Y18722*
G02X962414Y20359I678J1637*
G37*
G36*
X141500Y1179500D02*
G01Y1188199D01*
X144600*
Y1185599*
X147599*
Y1182600*
X150199*
Y1179500*
X141500*
G37*
G36*
Y1169801D02*
G01Y1178500D01*
X150199*
Y1175400*
X147599*
Y1172401*
X144600*
Y1169801*
X141500*
G37*
G36*
X131801Y1179500D02*
G01Y1182600D01*
X134401*
Y1185599*
X137400*
Y1188199*
X140500*
Y1179500*
X131801*
G37*
G36*
Y1175400D02*
G01Y1178500D01*
X140500*
Y1169801*
X137400*
Y1172401*
X134401*
Y1175400*
X131801*
G37*
G54D415*
X21792Y1268226D03*
X21778Y1260444D03*
X22005Y1277349D03*
X22253Y1297225D03*
X21722Y1315459D03*
X23751Y1306056D03*
X23952Y1331127D03*
X25000Y1346970D03*
X32802Y1251657D03*
X28586Y1323394D03*
X42170Y1335865D03*
X36500Y1340000D03*
X33140Y1333500D03*
X55764Y1305500D03*
X48797Y1315203D03*
X56811Y1323375D03*
X68784Y1166631D03*
X65529Y1160412D03*
X68724Y1175500D03*
X75783Y1191666D03*
X69027Y1217229D03*
X66075Y1304418D03*
X75292Y1304583D03*
X69564Y1324323D03*
X63384Y1327989D03*
X66311Y1339189D03*
X77127Y1154753D03*
X86408Y1183377D03*
X80500Y1333500D03*
X103953Y554568D03*
X98515Y1154538D03*
X106239Y1149666D03*
X95928Y1161252D03*
X94902Y1168626D03*
X100698Y1187658D03*
X99220Y1178212D03*
X101313Y1201869D03*
X93486Y1190268D03*
X106905Y1197621D03*
X100461Y1194792D03*
X107562Y1205592D03*
X119500Y389970D03*
X123707Y446747D03*
X110589Y477490D03*
X110889Y485510D03*
X109314Y541221D03*
X113607Y548010D03*
X120924Y564010D03*
X113547Y560000D03*
X112554Y1075890D03*
Y1066278D03*
X123486Y1101000D03*
X123549Y1114507D03*
X116346Y1126398D03*
X123318Y1173468D03*
X113745Y1198305D03*
X120717Y1198551D03*
X114483Y1205169D03*
X120879Y1217496D03*
X125967Y1134570D03*
X139566Y1148925D03*
X126699Y1213506D03*
X149050Y461310D03*
X156132Y489966D03*
X144446Y582945D03*
X150814Y1338758D03*
X167697Y475899D03*
X159041Y482585D03*
X170306Y482694D03*
X165111Y487413D03*
X170250Y507060D03*
X164694Y588933D03*
X157914Y588822D03*
X172253Y1097175D03*
X160818Y1156170D03*
X171146Y1207768D03*
X167508Y1235850D03*
X171102Y1224711D03*
X159894Y1231500D03*
X161811Y1224874D03*
X168086Y1361746D03*
X186666Y496452D03*
X172906Y496876D03*
X179682Y496287D03*
X184220Y514430D03*
X178047Y510174D03*
X175686Y1089681D03*
X188121Y1098858D03*
X172743Y1155807D03*
X182370Y1167771D03*
X184092Y1220139D03*
X180486Y1213875D03*
X196035Y493473D03*
X193676Y508342D03*
X202292Y509402D03*
X197693Y501185D03*
X194883Y519225D03*
X196951Y571149D03*
X195899Y578576D03*
X188674Y569187D03*
X203745Y577548D03*
X194409Y1102884D03*
X196676Y1113770D03*
X200220Y1128414D03*
X191178Y1164996D03*
X190350Y1157752D03*
X192161Y1176358D03*
X197631Y1192080D03*
X189267Y1194441D03*
X210500Y511245D03*
X216138Y546586D03*
X207456Y569547D03*
X216654Y564945D03*
X204828Y1094757D03*
X209769Y1115664D03*
X212219Y1139373D03*
X213123Y1149378D03*
X209892Y1163556D03*
X209220Y1189431D03*
X214752Y1206618D03*
X212367Y1254897D03*
X223031Y567445D03*
X232941Y577824D03*
X233409Y605496D03*
X233310Y598153D03*
X233307Y622500D03*
X228228Y1072026D03*
X234999Y1063078D03*
X232539Y1098234D03*
X229923Y1203889D03*
X236391Y1212033D03*
X225225Y1211550D03*
X221881Y1245004D03*
X226161Y1249581D03*
X220710Y1318701D03*
X240925Y373593D03*
X239500Y473300D03*
X239538Y579516D03*
X247179Y583761D03*
X252321Y601878D03*
X240597Y598479D03*
X242355Y1098723D03*
X248628Y1094092D03*
X252128Y1111729D03*
X246852Y1139613D03*
X242826Y1146966D03*
X242340Y1154916D03*
X242250Y1171182D03*
X242052Y1161792D03*
X240384Y1203000D03*
X237357Y1219347D03*
X248664Y1228566D03*
X238659Y1252659D03*
X258549Y373179D03*
X260724Y610336D03*
X256251Y640866D03*
X254032Y1104565D03*
X259168Y1109705D03*
X266307Y1119657D03*
X267799Y1112764D03*
X259081Y1117716D03*
X253230Y1135530D03*
X258067Y1233011D03*
X255222Y1225692D03*
X266660Y1232872D03*
X270559Y1081316D03*
X279641Y1078187D03*
X271225Y1106718D03*
X273363Y1119657D03*
X277895Y1109116D03*
X279042Y1115949D03*
X279321Y1140393D03*
X269586Y1135860D03*
X277257Y1133658D03*
X270807Y1126428D03*
X269679Y1142781D03*
X282429Y1146708D03*
X269511Y1165443D03*
X274829Y1170749D03*
X279522Y1166730D03*
X273666Y1179081D03*
X268962Y1174130D03*
X269000Y1184238D03*
X281598Y1173645D03*
X283262Y1200385D03*
X271265Y1201235D03*
X268991Y1192009D03*
X276471Y1190500D03*
X278310Y1205148D03*
X279704Y1232495D03*
X279768Y1250929D03*
X271212Y1238298D03*
X278000Y1239647D03*
X283848Y1237209D03*
X271500Y1300716D03*
X284000Y1304730D03*
X299499Y439425D03*
X297444Y574956D03*
X297543Y588195D03*
X297498Y595737D03*
X295500Y633000D03*
X293784Y1203049D03*
X289537Y1233279D03*
X300651Y1233912D03*
X297717Y1244991D03*
X294621Y1238490D03*
X288500Y1311924D03*
X304500Y379638D03*
X316326Y492144D03*
X305872Y576326D03*
X314075Y603084D03*
X303838Y613737D03*
X311000Y1140594D03*
X312320Y1193884D03*
X316536Y1206228D03*
X304500Y1245075D03*
X303480Y1271790D03*
X301726Y1284088D03*
X301417Y1297815D03*
X332571Y337140D03*
X324517Y339300D03*
X320277Y610353D03*
X323422Y639201D03*
X318632Y628406D03*
X317205Y644245D03*
X324288Y1201422D03*
X317757Y1199304D03*
X330402Y1191134D03*
X324687Y1232556D03*
X330790Y1235366D03*
X322728Y1242447D03*
X329504Y1242395D03*
X318146Y1247519D03*
X321513Y1263664D03*
X329115Y1260756D03*
X320145Y1296213D03*
X332310Y1357302D03*
X340169Y340780D03*
X347349Y341040D03*
X346943Y523868D03*
X333509Y595039D03*
X338303Y624530D03*
X338079Y637815D03*
X342732Y1061217D03*
X345873Y1140127D03*
X346000Y1149500D03*
X343437Y1167930D03*
X346431Y1185196D03*
X342417Y1199091D03*
X333154Y1200412D03*
X337379Y1191836D03*
X345342Y1205259D03*
X346507Y1233039D03*
X343185Y1242018D03*
X337225Y1245739D03*
X342553Y1260030D03*
X335702Y1255772D03*
X343911Y1269462D03*
X355293Y524240D03*
X362925Y523263D03*
X361623Y579000D03*
X351810Y608832D03*
X358329Y613984D03*
X355002Y624549D03*
X361859Y629293D03*
X357734Y644190D03*
X361737Y1060523D03*
X358580Y1103803D03*
X358388Y1169018D03*
X357876Y1184413D03*
X350466Y1197552D03*
X353463Y1233705D03*
X361594Y1233434D03*
X352882Y1244819D03*
X353553Y1283106D03*
X356394Y1276903D03*
X351600Y1301100D03*
X376944Y535479D03*
X372711Y600849D03*
X365000Y606720D03*
X370979Y1060526D03*
X380312Y1115000D03*
X374436Y1117326D03*
X377636Y1125961D03*
X377821Y1186869D03*
X380576Y1178932D03*
X374261Y1192901D03*
X368163Y1209944D03*
X370671Y1216083D03*
X378189Y1216779D03*
X368998Y1236283D03*
X376923Y1333089D03*
X370836Y1346354D03*
X391932Y541953D03*
X389682Y551742D03*
X380993Y549566D03*
X388101Y581103D03*
X384546Y602037D03*
X381573Y625689D03*
X387831Y1065224D03*
X385110Y1096776D03*
X387387Y1115670D03*
X385695Y1124000D03*
X396600Y1132425D03*
X391346Y1127850D03*
X390394Y1137092D03*
X388281Y1162611D03*
X385497Y1188387D03*
X393500Y1175835D03*
X396084Y1183527D03*
X388467Y1180956D03*
X385786Y1204870D03*
X389553Y1198674D03*
X381090Y1193712D03*
X392571Y1189818D03*
X387006Y1214562D03*
X384000Y1330000D03*
X386715Y1356703D03*
X400866Y539500D03*
X409986Y1090848D03*
X401379Y1133940D03*
X403869Y1153023D03*
X408418Y1155606D03*
X403002Y1162653D03*
X398625Y1221585D03*
X406766Y1230218D03*
X401493Y1238366D03*
X404556Y1330278D03*
X398563Y1337770D03*
X407356Y1337472D03*
X421794Y1064500D03*
X414273Y1119009D03*
X416000Y1131564D03*
X419220Y1126756D03*
X415228Y1155244D03*
X416259Y1328289D03*
X420700Y1338810D03*
X419538Y1352537D03*
X442515Y1057134D03*
X434704Y1133293D03*
X443211Y1136223D03*
X439363Y1143367D03*
X429585Y1142343D03*
X441382Y1162312D03*
X449138Y1060165D03*
X451974Y1074306D03*
X445629Y1079604D03*
X454412Y1079696D03*
X456551Y1103032D03*
X448167Y1122404D03*
X460812Y1130141D03*
X452881Y1151129D03*
X446177Y1154951D03*
X457261Y1170349D03*
X450604Y1168663D03*
X456651Y1179683D03*
X457146Y1189776D03*
X450937Y1210672D03*
X459614Y1214932D03*
X468000Y591537D03*
X469400Y1066400D03*
X462132Y1077093D03*
X469206Y1097022D03*
X461919Y1098930D03*
X465223Y1119743D03*
X463308Y1142516D03*
X467081Y1171982D03*
X466815Y1188804D03*
X475956Y1189905D03*
X463125Y1195587D03*
X473457Y1213991D03*
X479685Y570015D03*
X486042Y592500D03*
X479500Y584706D03*
X477576Y618378D03*
X490695Y628011D03*
X487500Y698200D03*
X486900Y717116D03*
X490929Y727000D03*
X482769Y771147D03*
X491853Y979233D03*
X483112Y980805D03*
X479208Y998925D03*
X479295Y1043070D03*
X487404Y1089786D03*
X477666Y1077076D03*
X480130Y1121326D03*
X484431Y1113258D03*
X490192Y1200909D03*
Y1191417D03*
X494172Y538503D03*
X505572Y584946D03*
X497496Y584523D03*
X498666Y601212D03*
X507321Y636003D03*
X494000Y689700D03*
X496158Y738111D03*
X497550Y731400D03*
X505600Y755733D03*
X504840Y970920D03*
X507010Y1005343D03*
X501093Y1061205D03*
X499881Y1104300D03*
X508801Y1166871D03*
X508308Y1185402D03*
X499572Y1207995D03*
X517671Y590145D03*
X514455Y636000D03*
X516600Y692700D03*
X517770Y706998D03*
X522744Y750714D03*
X520497Y835662D03*
X518622Y858321D03*
X513200Y1058100D03*
X521010Y1071435D03*
X519170Y1129449D03*
X518686Y1137913D03*
X515661Y1148613D03*
X540840Y683667D03*
X534848Y693876D03*
X529680Y718128D03*
X526506Y737838D03*
X528000Y839943D03*
X538458Y857778D03*
X539754Y888252D03*
X527277Y885377D03*
X530730Y891624D03*
X535995Y943323D03*
X535366Y956134D03*
X536217Y980868D03*
X526968Y982923D03*
X525303Y1096961D03*
X528798Y1121030D03*
X533427Y1133712D03*
X528840Y1152633D03*
X555525Y730341D03*
X549113Y741576D03*
X553474Y779422D03*
X541858Y851127D03*
X544701Y897096D03*
X541719Y938052D03*
X547644Y934080D03*
X552720Y974727D03*
X552110Y1018216D03*
X541725Y1035207D03*
X555994Y1074015D03*
X553800Y1066821D03*
X543655Y1068141D03*
X541797Y1103799D03*
X554232Y1100912D03*
X556590Y1115121D03*
X552651Y1133637D03*
X550224Y1147605D03*
X554955Y1159812D03*
X541242Y1174932D03*
X541785Y1182255D03*
X550731Y1174803D03*
X550890Y1186026D03*
X555855Y1204800D03*
X562662Y556956D03*
X567760Y670764D03*
X557136Y896106D03*
X564500Y931227D03*
Y921735D03*
X557925Y940605D03*
X565506Y976455D03*
X572247Y1009989D03*
X569140Y1036910D03*
X562110Y1029549D03*
X572418Y1076373D03*
X557064Y1082043D03*
X562662Y1088185D03*
X558149Y1094090D03*
X562818Y1118000D03*
X563052Y1140420D03*
X563569Y1132717D03*
X559512Y1150306D03*
X567126Y1169202D03*
X570233Y1187368D03*
X565121Y1182649D03*
X559124Y1186624D03*
X568848Y1211790D03*
X562632Y1217049D03*
X579600Y548736D03*
X576519Y785658D03*
X580077Y968286D03*
X576048Y999201D03*
X577498Y1041490D03*
X574326Y1055334D03*
X574776Y1068513D03*
X578400Y1084902D03*
X575610Y1120491D03*
X580248Y1126233D03*
X576138Y1195890D03*
X581972Y1190963D03*
X580401Y1209000D03*
X587595Y1211838D03*
X584844Y1228959D03*
X583908Y1221664D03*
X588198Y1234821D03*
X595245Y693000D03*
X594939Y705597D03*
X602328Y704601D03*
X592644Y712274D03*
X603762Y711500D03*
X589236Y929172D03*
X603252Y995559D03*
X605006Y1011700D03*
X597209Y1019000D03*
X602769Y1024563D03*
X594000Y1082500D03*
X603954Y1185497D03*
X597640Y1178773D03*
X604600Y1215324D03*
X595265Y1245687D03*
X602908Y1245654D03*
X605432Y698472D03*
X613362Y760896D03*
X616242Y769953D03*
X610800Y781500D03*
X619000Y926000D03*
X616500Y937500D03*
X619857Y997545D03*
X607900Y1018299D03*
X607737Y1137741D03*
X618297Y1128582D03*
X614352Y1147278D03*
X620877Y1144839D03*
X617442Y1159632D03*
X616970Y1207237D03*
X618056Y1215929D03*
X612267Y1212153D03*
X610374Y1244082D03*
X617212Y1244636D03*
X631863Y736785D03*
X633925Y753569D03*
X633405Y744000D03*
X625194Y749376D03*
X631480Y892707D03*
X632957Y885044D03*
X632075Y989205D03*
X631725Y1011726D03*
X621882Y1010552D03*
X623418Y1172748D03*
X629950Y1175476D03*
X622964Y1210596D03*
X628404Y1214650D03*
X628812Y1206921D03*
X623771Y1242515D03*
X637958Y573362D03*
X638073Y675834D03*
X645507Y670230D03*
X646629Y691371D03*
X642426Y683079D03*
X650345Y677074D03*
X649377Y698895D03*
X646872Y706125D03*
X649755Y721101D03*
X639137Y724196D03*
X645132Y737572D03*
X649282Y731282D03*
X646158Y756500D03*
X637455Y764500D03*
X645420Y944934D03*
X650751Y972573D03*
X650000Y997599D03*
X646752Y1099371D03*
X651625Y1167385D03*
X638445Y1185809D03*
X646698Y1190151D03*
X637893Y1217772D03*
X641868Y1250247D03*
X643254Y1301546D03*
X658189Y704353D03*
X661413Y757353D03*
X655409Y775127D03*
X657529Y867102D03*
X666282Y873246D03*
X665259Y894200D03*
X664089Y993006D03*
X665130Y1115716D03*
X667113Y1138746D03*
X663124Y1157402D03*
X662684Y1166176D03*
X654675Y1185447D03*
X661722Y1186056D03*
X654486Y1192407D03*
X654951Y1203627D03*
X656487Y1215597D03*
X673290Y657336D03*
X681000Y754452D03*
X673500Y755541D03*
X677500Y761100D03*
X682653Y766245D03*
X675631Y768074D03*
X671000Y763000D03*
X672943Y774577D03*
X679114Y812679D03*
X677039Y876964D03*
X671667Y903141D03*
X678639Y913269D03*
X679846Y934717D03*
X670638Y972759D03*
X680877Y989787D03*
X675608Y1007621D03*
X673000Y1014559D03*
X682500Y1018752D03*
X670680Y1149036D03*
X669432Y1161561D03*
X672531Y1170399D03*
X671151Y1180776D03*
X678708Y1173849D03*
X679509Y1184025D03*
X683938Y1191809D03*
X675360Y1193658D03*
X672606Y1217442D03*
X671488Y1210363D03*
X684756Y1221219D03*
X694899Y637650D03*
X694268Y734345D03*
X697304Y755104D03*
X691713Y758914D03*
X697864Y762162D03*
X695945Y775595D03*
X689323Y774991D03*
X694901Y783290D03*
X699033Y835410D03*
X686232Y876570D03*
X694716Y876690D03*
X687925Y932376D03*
X698685Y936657D03*
X687925Y977892D03*
X698075Y988000D03*
Y1001000D03*
X692509Y1018492D03*
X693675Y1170411D03*
X696679Y1160878D03*
X685780Y1172986D03*
X687293Y1185430D03*
X696066Y1179084D03*
X697512Y1213905D03*
X688875Y1215687D03*
X691038Y1208979D03*
X711342Y637650D03*
X703227Y699741D03*
X710350Y748350D03*
X714986Y761148D03*
X703754Y771627D03*
X704394Y758595D03*
X711225Y775098D03*
X706662Y807783D03*
X707211Y830484D03*
X715677Y827670D03*
X715109Y889109D03*
X702327Y893631D03*
X710890Y915842D03*
X711925Y995597D03*
X708585Y1145832D03*
X702798Y1153158D03*
X714324Y1172493D03*
X706098Y1172766D03*
X704640Y1198638D03*
X703409Y1208113D03*
X720603Y405204D03*
X721533Y654795D03*
X725016Y695310D03*
X729327Y701709D03*
X720314Y747741D03*
X720421Y771462D03*
X723057Y764595D03*
X717813Y779964D03*
X728453Y773495D03*
X731919Y803334D03*
X730365Y811290D03*
X725235Y806241D03*
X720102Y811137D03*
X732638Y917224D03*
X718989Y1013037D03*
X723438Y1019500D03*
X726530Y1013000D03*
X724707Y1240266D03*
X747738Y694635D03*
X735914Y697910D03*
X737826Y747500D03*
X747075Y743760D03*
X742662Y768835D03*
X738130Y800416D03*
X741318Y817404D03*
X746089Y849502D03*
X745659Y856368D03*
X748371Y958302D03*
X739119Y999111D03*
X741500Y1032012D03*
X747513Y1164342D03*
X744925Y1236516D03*
X738925Y1243467D03*
X761411Y569916D03*
X763155Y617061D03*
X758001Y625759D03*
X757302Y705486D03*
X762814Y754314D03*
X759711Y745914D03*
X756150Y773778D03*
X754935Y797652D03*
X751578Y791190D03*
X759102Y791934D03*
X763532Y820204D03*
X757674Y806392D03*
X756925Y1236668D03*
X750925Y1243074D03*
X763000Y1243257D03*
X755500Y1356396D03*
X766686Y561666D03*
X768502Y568437D03*
X778066Y575948D03*
X771741Y616741D03*
X770533Y748226D03*
X781094Y816826D03*
X778119Y808968D03*
X769296Y816639D03*
X767397Y989055D03*
X774258Y1027410D03*
X777395Y1088439D03*
X768204Y1163121D03*
X768925Y1236546D03*
X772041Y1246218D03*
X772500Y1356600D03*
X782242Y565340D03*
X794286Y594000D03*
X787885Y597816D03*
X795132Y606216D03*
X793005Y672947D03*
X785727Y774282D03*
X783644Y791814D03*
X784890Y805821D03*
X796017Y890098D03*
X786012Y892872D03*
X786981Y1054236D03*
X788000Y1356450D03*
X802269Y666999D03*
X811305Y717153D03*
X801332Y746627D03*
X813012Y819624D03*
X813249Y878913D03*
X803937Y887848D03*
X810507Y885267D03*
X807000Y930500D03*
X803577Y988305D03*
X811710Y1059690D03*
X805707Y1090023D03*
X805902Y1099503D03*
X811644Y1290255D03*
X816546Y375056D03*
X820164Y737769D03*
X824544Y838026D03*
X822045Y989376D03*
X825444Y1088682D03*
X828104Y1219404D03*
X821184Y1269957D03*
X820607Y1411892D03*
X842500Y23000D03*
X844956Y209346D03*
X830415Y722281D03*
X835510Y715201D03*
X835638Y734059D03*
X839381Y882088D03*
X837367Y905526D03*
X835182Y949812D03*
X829851Y1077000D03*
X836800Y1248858D03*
X831063Y1237116D03*
X835138Y1423862D03*
X833120Y1438380D03*
X835849Y1431151D03*
X831527Y1476723D03*
X831427Y1469200D03*
X855995Y166522D03*
X852206Y173796D03*
X852633Y206546D03*
X853266Y781755D03*
X861273Y789541D03*
X852295Y795020D03*
X854343Y815142D03*
X860686Y818196D03*
X853000Y830000D03*
X848619Y865203D03*
X853086Y930027D03*
X849659Y967859D03*
X857340Y990300D03*
X860649Y996968D03*
X859529Y1011424D03*
X855356Y1042224D03*
X848343Y1037153D03*
X852816Y1076500D03*
X850775Y1266087D03*
X860487Y1416375D03*
X860010Y1483356D03*
X863512Y166301D03*
X864663Y178575D03*
X875235Y752000D03*
X869741Y814994D03*
X874536Y810009D03*
X873236Y824000D03*
X872555Y858382D03*
X863364Y887364D03*
X862545Y907224D03*
X875646Y928323D03*
X876141Y940986D03*
X871878Y935574D03*
X876264Y1000140D03*
X870859Y1231985D03*
X876059Y1227311D03*
X876783Y1231454D03*
X873100Y1248900D03*
X875373Y1533300D03*
X876807Y1526418D03*
X890712Y170382D03*
X883011Y171978D03*
X889104Y193536D03*
X882425Y181143D03*
X879102Y206334D03*
X888287Y206445D03*
X882425Y195954D03*
X891549Y212532D03*
X885583Y260531D03*
X885972Y803376D03*
X892866Y811000D03*
X885133Y866546D03*
X879586Y875415D03*
X886026Y922608D03*
X880401Y935544D03*
X890651Y977287D03*
X892090Y997950D03*
X888522Y1028628D03*
X890493Y1017440D03*
X886387Y1058871D03*
X886250Y1107799D03*
X880482Y1092810D03*
X885644Y1247849D03*
X887969Y1240232D03*
X890690Y1422690D03*
X878841Y1441998D03*
X888030Y1492767D03*
X881000Y1514694D03*
X885363Y1522900D03*
X887803Y1541135D03*
X879296Y1538792D03*
X892402Y1547488D03*
X888597Y1553665D03*
X882864Y1550559D03*
X883000Y1592478D03*
X890084Y1627716D03*
X906500Y72300D03*
X896766Y206325D03*
X904763Y206308D03*
X897457Y195835D03*
X904086Y214126D03*
X900030Y709500D03*
X905340Y733925D03*
X897555Y778234D03*
X897485Y798375D03*
X906913Y796356D03*
X895203Y1026636D03*
X906810Y1059357D03*
X900669Y1051416D03*
X895968Y1056450D03*
X907428Y1052428D03*
X898761Y1069600D03*
X905229Y1065981D03*
X905289Y1074100D03*
X898923Y1062753D03*
X902784Y1092090D03*
X898398Y1078566D03*
X895391Y1264891D03*
X901719Y1280133D03*
X907014Y1486500D03*
X903264Y1479402D03*
X895263Y1497678D03*
X902985Y1494534D03*
X898541Y1544861D03*
X909304Y1604802D03*
X908754Y1619895D03*
X920334Y171400D03*
X919971Y190000D03*
X917070Y197000D03*
X922164Y260164D03*
X914961Y725276D03*
X910125Y749571D03*
X922572Y774960D03*
X917555Y800224D03*
X923642Y789837D03*
X924777Y812448D03*
X912474Y813519D03*
X923074Y847974D03*
X912912Y897078D03*
X911427Y1046484D03*
X912363Y1065255D03*
X914358Y1278722D03*
X921770Y1285716D03*
X923324Y1293037D03*
X924838Y1422338D03*
X909702Y1450227D03*
X922864Y1475490D03*
X910431Y1476156D03*
X918764Y1482441D03*
X912104Y1598574D03*
X926802Y185736D03*
X927408Y196977D03*
X939195Y705773D03*
X928207Y714749D03*
X939549Y749122D03*
X929162Y755844D03*
X938986Y755936D03*
X936634Y762407D03*
X932727Y770058D03*
X928254Y779000D03*
X928300Y852480D03*
X928019Y1289606D03*
X940264Y1476225D03*
X935764Y1482699D03*
X926832Y1492236D03*
X935231Y1495888D03*
X930309Y1520931D03*
X940041Y1517556D03*
X957240Y172125D03*
X955587Y209940D03*
X956193Y260500D03*
X956750Y699078D03*
X949250Y717474D03*
X945110Y725666D03*
X944390Y737277D03*
X947117Y744781D03*
X951733Y1316481D03*
X945663Y1308580D03*
X954989Y1324468D03*
X951507Y1438893D03*
X949807Y1472931D03*
X949779Y1483674D03*
X956997Y1594917D03*
X944394Y1604718D03*
X952902Y1607478D03*
X964000Y214215D03*
X971426Y215484D03*
X965094Y254175D03*
X968071Y846349D03*
X959550Y1422024D03*
X963807Y1450893D03*
X962931Y1478886D03*
X963054Y1489767D03*
X980400Y115575D03*
X988850Y157950D03*
X975000Y207449D03*
X980377Y213612D03*
X977592Y249363D03*
X989554Y259939D03*
X978388Y736320D03*
X981725Y850576D03*
X988857Y846465D03*
X982689Y1492608D03*
X982935Y1482090D03*
X981491Y1533222D03*
X984502Y1540536D03*
X992900Y93348D03*
X999306Y115700D03*
X997843Y138657D03*
X997626Y146425D03*
X1002767Y185367D03*
X1003771Y220707D03*
X991887Y226995D03*
X1002054Y235923D03*
X995178Y253881D03*
X1003152Y259281D03*
X997394Y798749D03*
X1001048Y914004D03*
X1004761Y921416D03*
X993207Y1422707D03*
X994821Y1477348D03*
X1002051Y1480398D03*
X996849Y1494480D03*
X1000446Y1519569D03*
X990491Y1533585D03*
X994839Y1591632D03*
X998349Y1600185D03*
X1001676Y1591995D03*
X990852Y1604803D03*
X1005270Y1600338D03*
X991907Y1597762D03*
X997291Y1607138D03*
X999955Y1613489D03*
X1005700Y137751D03*
X1007500Y145910D03*
X1011899Y174554D03*
X1018452Y184053D03*
X1015512Y191262D03*
X1021205Y207808D03*
X1014176Y254676D03*
X1010019Y273176D03*
X1009716Y265709D03*
X1015176Y305193D03*
X1015410Y791862D03*
X1014171Y847627D03*
X1006494Y1472019D03*
X1011990Y1477224D03*
X1017714Y1517748D03*
X1006611Y1516122D03*
X1017600Y1527330D03*
X1008564Y1592934D03*
X1012131Y1599219D03*
X1008987Y1606473D03*
X1007658Y1614713D03*
X1036117Y140383D03*
X1035477Y169900D03*
X1023900Y199068D03*
X1026050Y229450D03*
X1023100Y236900D03*
X1025445Y245046D03*
X1032399Y772332D03*
X1022967Y787869D03*
X1033842Y832875D03*
X1027011Y843724D03*
X1025715Y854213D03*
X1029757Y861634D03*
X1027891Y1375430D03*
X1023247Y1406215D03*
X1024000Y1643976D03*
X1034772Y1660000D03*
X1025280D03*
X1043146Y268955D03*
X1048560Y274700D03*
X1046139Y281529D03*
X1048773Y290206D03*
X1047440Y304904D03*
X1048645Y297339D03*
X1053245Y315786D03*
X1046125Y316499D03*
X1050326Y321972D03*
X1047374Y328406D03*
X1043100Y617932D03*
X1051536Y706053D03*
Y715488D03*
X1041552Y834852D03*
X1048124Y837014D03*
X1049005Y862307D03*
X1039883Y1091139D03*
X1045866Y1106948D03*
X1052916Y1094049D03*
X1045614Y1113753D03*
X1052715Y1110348D03*
X1053540Y1116492D03*
X1046862Y1143180D03*
X1043518Y1338453D03*
X1047334Y1361540D03*
X1053525Y1358757D03*
X1053609Y1366905D03*
X1047018Y1395303D03*
X1052841Y1385907D03*
X1051572Y1404428D03*
X1055400Y145878D03*
Y137900D03*
X1064400Y207400D03*
X1055307Y278928D03*
X1054896Y285723D03*
X1054361Y305191D03*
X1055277Y292609D03*
X1054322Y327904D03*
X1055327Y586427D03*
X1055148Y1084005D03*
X1054791Y1102719D03*
X1053753Y1131096D03*
X1054506Y1377506D03*
X1053837Y1397628D03*
X1066944Y1595673D03*
X1092476Y623024D03*
X1112757Y594624D03*
X1125975Y600851D03*
X1135584Y595746D03*
X1136703Y603648D03*
X1532007Y43213D03*
X1533267Y1170261D03*
X1526571Y1259496D03*
X1549400Y217100D03*
X1538424Y344712D03*
X1543914Y487086D03*
X1542700Y557300D03*
X1546920Y934420D03*
X1563432Y23625D03*
X1565100Y31272D03*
Y108000D03*
X1558070Y124200D03*
X1566300Y169500D03*
X1563000Y182429D03*
X1554700Y560800D03*
X1563900Y599904D03*
X1558070Y632000D03*
X1563300Y649674D03*
X1563400Y716024D03*
X1559300Y739992D03*
X1563200Y773494D03*
X1563696Y849369D03*
X1564460Y880753D03*
X1552191Y953754D03*
X1563948Y996800D03*
X1556672Y1015332D03*
X1564285Y1072715D03*
X1563492Y1063647D03*
X1560045Y1321530D03*
X1564704Y1429686D03*
X1558070Y1450521D03*
X1564122Y1496000D03*
X1561461Y1519665D03*
X1558070Y1512513D03*
X1562367Y1572019D03*
X1563043Y1589397D03*
X1562532Y1580818D03*
X1566600Y231500D03*
X1566400Y617500D03*
X1569500Y682047D03*
X1578000Y708993D03*
X1567701Y924441D03*
X1576278Y1131513D03*
X1570650Y1127106D03*
X1573645Y1137376D03*
X1567032Y1133011D03*
X1579092Y1399000D03*
X1567116Y1436500D03*
X1584603Y771600D03*
X1582875Y1127745D03*
X1605537Y117916D03*
X1612104Y122572D03*
X1605315Y949300D03*
X1608600Y1527335D03*
X1618700D03*
X1653438Y322900D03*
X1653569Y353900D03*
X1653528Y386700D03*
X1653330Y418800D03*
X1653235Y450735D03*
X1653021Y485300D03*
X1653790Y515180D03*
X1648806Y732800D03*
X1654350Y1155308D03*
X1652970Y1189500D03*
Y1221300D03*
Y1253400D03*
X1653150Y1285500D03*
X1652856Y1317800D03*
X1653675Y1349295D03*
X1655949Y1385907D03*
X1667300Y318747D03*
X1666900Y350900D03*
X1666108Y386391D03*
X1664500Y416247D03*
X1667577Y451900D03*
X1664982Y484000D03*
X1670499Y513747D03*
X1666800Y890000D03*
X1663659Y1152747D03*
X1663800Y1186700D03*
X1663350Y1219550D03*
X1663716Y1250247D03*
X1664211Y1282747D03*
X1664100Y1315247D03*
X1664433Y1347747D03*
X1663600Y1622527D03*
X1682600Y403700D03*
X1693000Y818900D03*
X1679186Y809300D03*
X1689066Y807144D03*
X1681000Y1152400D03*
X1678923Y1627500D03*
X1707000Y405073D03*
X1705500Y433830D03*
X1705900Y424488D03*
X1705500Y443011D03*
X1705600Y452250D03*
X1698516Y806000D03*
X1694982Y835600D03*
X1709608Y1538505D03*
X1705200Y1619509D03*
X1719393Y343362D03*
X1713582Y355437D03*
X1712397Y339996D03*
X1725400Y394700D03*
X1720790Y400490D03*
X1710586Y412900D03*
X1715400Y433869D03*
X1715600Y424530D03*
X1715900Y443019D03*
X1715600Y452133D03*
X1724300Y525532D03*
X1721800Y1246000D03*
X1717300Y1262832D03*
X1717500Y1272138D03*
X1717800Y1281564D03*
X1717500Y1290678D03*
X1723894Y1550283D03*
X1739800Y103600D03*
X1732846Y100100D03*
X1741400Y209700D03*
X1740400Y203100D03*
X1733062Y198900D03*
X1740100Y236000D03*
X1733134Y231900D03*
X1739988Y319000D03*
X1729600Y401073D03*
X1735724Y395423D03*
X1726800Y473709D03*
X1734732Y502700D03*
X1738986Y511800D03*
X1730515Y515086D03*
X1739062Y519337D03*
X1732591Y522491D03*
X1733300Y540573D03*
X1740500Y543900D03*
X1729800Y1250500D03*
X1741700Y1240000D03*
X1736388Y1246312D03*
X1733100Y1240100D03*
X1727500Y1262652D03*
X1728400Y1281520D03*
X1728000Y1272152D03*
X1727900Y1290520D03*
X1733608Y1405700D03*
X1734500Y1438400D03*
X1733794Y1470876D03*
X1742470Y1481200D03*
X1733608Y1506000D03*
X1741772Y1511728D03*
X1743300Y97700D03*
X1743550Y196650D03*
X1756308Y231200D03*
X1743800Y229752D03*
X1751784Y289361D03*
X1756806Y303061D03*
X1749531Y318831D03*
X1749686Y328800D03*
X1750517Y351700D03*
X1752892Y391792D03*
X1753910Y401200D03*
X1753900Y414200D03*
X1745500Y514647D03*
X1755381Y551900D03*
X1745391Y606200D03*
X1745217Y639900D03*
X1745421Y671165D03*
X1745070Y704900D03*
X1745562Y738200D03*
X1755800Y885600D03*
X1755700Y896752D03*
X1745994Y899900D03*
X1755800Y929752D03*
X1745587Y933076D03*
X1756700Y962752D03*
X1746606Y965057D03*
X1756000Y995752D03*
X1746623Y997961D03*
X1755900Y1027800D03*
X1753150Y1034450D03*
X1754900Y1041200D03*
X1745853Y1032100D03*
X1754700Y1050100D03*
X1745130Y1065500D03*
X1754400Y1137000D03*
X1753619Y1143881D03*
X1756200Y1216471D03*
X1752696Y1239132D03*
X1747000Y1245200D03*
X1745848Y1448200D03*
X1753404Y1601913D03*
X1752091Y1609797D03*
X1756892Y1615425D03*
X1760788Y196683D03*
X1764306Y275461D03*
X1762106Y287413D03*
X1759059Y294161D03*
X1762600Y348859D03*
X1761168Y369600D03*
X1761100Y401600D03*
X1760900Y394500D03*
X1768300Y417669D03*
X1768281Y425181D03*
X1763793Y431400D03*
X1768001Y562300D03*
X1758783Y558500D03*
X1764150Y552600D03*
X1770900Y555756D03*
X1773822Y1140000D03*
X1774127Y1150400D03*
X1766000Y1184700D03*
X1768606Y1242106D03*
X1760600Y1242700D03*
X1767342Y1254800D03*
X1772994Y1259019D03*
X1763600Y1391300D03*
X1761927Y1564056D03*
X1773048Y1564554D03*
X1769235Y1593432D03*
X1764543Y1611039D03*
X1760010Y1605795D03*
X1790500Y415400D03*
X1789400Y408553D03*
X1782985Y416436D03*
X1781126Y408675D03*
X1785351Y526000D03*
X1778600Y529230D03*
X1782500Y519363D03*
X1784799Y535300D03*
X1781208Y541700D03*
X1776100Y565053D03*
X1774700Y666900D03*
X1790415Y1129000D03*
X1787300Y1135886D03*
X1780700Y1148300D03*
X1787100Y1142853D03*
X1784000Y1186300D03*
X1780500Y1180249D03*
X1776956Y1194556D03*
X1775785Y1242715D03*
X1780500Y1259100D03*
X1781670Y1272294D03*
X1780000Y1564100D03*
X1790000Y1564300D03*
Y1583500D03*
X1789400Y1576000D03*
X1784538Y1600836D03*
X1777344Y1610103D03*
X1806100Y186897D03*
X1791700Y368800D03*
X1800150Y474450D03*
X1805600Y962500D03*
X1795600Y1156000D03*
X1791900Y1163900D03*
X1791600Y1180148D03*
X1790740Y1187610D03*
X1802200Y1249480D03*
X1796600Y1237925D03*
X1795900Y1244980D03*
X1801447Y1256352D03*
X1796200Y1588997D03*
X1796900Y1580000D03*
X1791650Y1601623D03*
X1799118Y1619919D03*
X1817664Y30885D03*
X1818024Y23829D03*
X1821027Y66000D03*
Y76100D03*
X1811496Y194703D03*
X1810800Y369700D03*
X1812197Y531441D03*
X1809661Y549483D03*
X1813101Y875067D03*
X1816305Y880400D03*
X1821090Y875487D03*
X1814225Y1510605D03*
X1811571Y1581700D03*
X1818500Y1615344D03*
X1815957Y1625739D03*
X1828200Y29518D03*
X1828800Y21518D03*
X1827592Y105158D03*
X1836925Y197900D03*
X1836425Y222500D03*
X1838262Y271100D03*
X1824839Y364459D03*
X1836800Y552400D03*
X1837000Y595300D03*
X1835159Y729097D03*
X1824531Y852000D03*
X1824693Y855960D03*
X1828767Y880479D03*
X1825665Y944100D03*
Y934800D03*
X1837339Y1010100D03*
X1838035Y1050335D03*
X1837177Y1348900D03*
X1837438Y1392200D03*
X1823600Y1599829D03*
X1825078Y1626030D03*
X1839200Y70505D03*
X1847200Y67705D03*
X1846700Y75075D03*
X1840100Y78925D03*
X1849494Y841093D03*
X1851863Y882606D03*
X1846506Y898740D03*
X1851500Y1131423D03*
X1852250Y1148763D03*
X1845168Y1202800D03*
X1854018Y1513068D03*
X1854351Y1585377D03*
X1854102Y1596000D03*
X1856700Y303000D03*
X1857345Y360261D03*
X1862718Y729969D03*
X1865136Y740421D03*
X1855755Y748545D03*
X1863415Y839766D03*
X1865000Y877400D03*
X1865493Y1115956D03*
X1865500Y1128513D03*
X1857948Y1152588D03*
X1856529Y1206200D03*
X1862460Y1247769D03*
X1856739Y1469800D03*
X1865563Y1516292D03*
X1856763Y1629729D03*
G54D1779*
X116349Y1104871D03*
Y1101021D03*
X116346Y1116650D03*
Y1120500D03*
X132500Y1200075D03*
X136500D03*
X132500Y1203925D03*
X136500D03*
X153000Y471575D03*
Y475425D03*
X149400Y1200075D03*
X145299Y1200074D03*
X153600Y1200175D03*
X141200D03*
X142137Y1213682D03*
Y1217532D03*
X149400Y1203925D03*
X145299Y1203924D03*
X150400Y1217525D03*
Y1213675D03*
X153600Y1204025D03*
X141200D03*
X146300Y1217525D03*
Y1213675D03*
X157500Y471575D03*
Y475425D03*
X154500Y541925D03*
Y538075D03*
X170000Y538425D03*
Y534575D03*
X158500Y541925D03*
Y538075D03*
X169000Y574575D03*
X165000D03*
X169000Y578425D03*
X165000D03*
X162500Y1183075D03*
Y1179425D03*
Y1175575D03*
Y1186925D03*
X160600Y1218025D03*
Y1214175D03*
X164800D03*
Y1218025D03*
X154500Y1217925D03*
Y1214075D03*
X155000Y1228724D03*
Y1224874D03*
X177000Y530575D03*
Y534425D03*
X181000Y541925D03*
Y538075D03*
X185500Y539425D03*
Y535575D03*
X180500Y551075D03*
Y554925D03*
Y558575D03*
X173000Y557925D03*
Y554075D03*
X180500Y562425D03*
X177000Y574575D03*
X173000D03*
X177000Y578425D03*
X173000D03*
X184092Y1200447D03*
X170600Y1213875D03*
Y1217725D03*
X174800D03*
Y1213875D03*
X184092Y1204297D03*
X193000Y538925D03*
Y535075D03*
X200500Y539925D03*
Y536075D03*
X196500Y551575D03*
Y555425D03*
X214470Y576435D03*
Y572585D03*
X214480Y587425D03*
Y583575D03*
X210480D03*
Y587425D03*
X218480Y572575D03*
Y576425D03*
X226500D03*
Y572575D03*
X222490D03*
Y576425D03*
X218490Y587425D03*
Y583575D03*
X222490D03*
Y587425D03*
X230500Y583575D03*
Y587425D03*
X226500D03*
Y583575D03*
X234510D03*
Y587425D03*
X248000Y593425D03*
Y589575D03*
X244000Y593425D03*
Y589575D03*
X252000Y593425D03*
Y589575D03*
X256000Y593425D03*
Y589575D03*
X264000Y1212150D03*
Y1216000D03*
X264615Y1227244D03*
Y1223394D03*
X260538Y1227244D03*
Y1223394D03*
X275400Y358775D03*
Y362625D03*
X279400Y358775D03*
Y362625D03*
X278766Y1153020D03*
Y1156870D03*
X281000Y1214991D03*
Y1211141D03*
X272883D03*
Y1214991D03*
X276915Y1211141D03*
Y1214991D03*
X268869Y1211180D03*
Y1215030D03*
X272709Y1227105D03*
Y1223255D03*
X268633Y1227157D03*
Y1223307D03*
X276915Y1227108D03*
Y1223258D03*
X280800Y1279975D03*
Y1283825D03*
X282819Y1152972D03*
X295170Y1144247D03*
Y1148097D03*
X282819Y1156822D03*
X297048Y1156547D03*
Y1160397D03*
X292986Y1156529D03*
Y1160379D03*
X288906Y1156529D03*
Y1160379D03*
X290682Y1195942D03*
Y1192092D03*
X298119Y1215000D03*
Y1211150D03*
X289287Y1215052D03*
Y1211202D03*
X294000Y1215000D03*
Y1211150D03*
X285089Y1215000D03*
Y1211150D03*
X285500Y1226850D03*
Y1223000D03*
X298359Y1223072D03*
Y1226922D03*
X289537Y1226912D03*
Y1223062D03*
X293892Y1223121D03*
Y1226971D03*
X284800Y1279975D03*
Y1283825D03*
X304512Y1070503D03*
Y1066653D03*
X308700Y1070500D03*
Y1066650D03*
X313000D03*
Y1070500D03*
X308670Y1118594D03*
Y1114744D03*
X312693Y1118594D03*
Y1114744D03*
X310923Y1122082D03*
X311000Y1134425D03*
Y1130575D03*
X310923Y1125932D03*
X304296Y1137433D03*
Y1141283D03*
X304989Y1150601D03*
Y1146751D03*
X309003Y1150568D03*
Y1146718D03*
X313014Y1150550D03*
Y1146700D03*
X306531Y1160434D03*
Y1156584D03*
X313545Y1171019D03*
Y1174869D03*
X305100Y1201000D03*
X301000D03*
X307974Y1215940D03*
Y1212090D03*
X305100Y1204850D03*
X312078Y1215976D03*
Y1212126D03*
X301000Y1204850D03*
X307509Y1223003D03*
Y1226853D03*
X302500Y1223150D03*
Y1227000D03*
X325100Y1066500D03*
Y1070350D03*
X329500D03*
Y1066500D03*
X321000Y1066650D03*
Y1070500D03*
X317000D03*
Y1066650D03*
X324453Y1122421D03*
X319029Y1122115D03*
X315003Y1122112D03*
X324453Y1126271D03*
X319029Y1125965D03*
X315003Y1125962D03*
X321027Y1150553D03*
Y1146703D03*
X317025Y1150550D03*
Y1146700D03*
X318603Y1160467D03*
Y1156617D03*
X322644Y1160464D03*
Y1156614D03*
X317592Y1168868D03*
X321606D03*
X326514Y1168143D03*
X327029Y1179317D03*
Y1175467D03*
X317592Y1172718D03*
X321606D03*
X326514Y1171993D03*
X326500Y1211000D03*
Y1214850D03*
X321500Y1211000D03*
Y1214850D03*
X316536Y1215991D03*
Y1212141D03*
X326500Y1226471D03*
Y1222621D03*
X322000Y1226471D03*
Y1222621D03*
X338031Y1070491D03*
Y1066641D03*
X333772Y1066635D03*
Y1070485D03*
X344214Y1127923D03*
Y1124073D03*
X343998Y1211078D03*
Y1214928D03*
X331000Y1214925D03*
Y1211075D03*
X343611Y1222529D03*
Y1226379D03*
X335463Y1222595D03*
Y1226445D03*
X339500Y1222575D03*
Y1226425D03*
X331000Y1222575D03*
Y1226425D03*
X352000Y1214925D03*
Y1211075D03*
X356100D03*
Y1214925D03*
X360153Y1214917D03*
Y1211067D03*
X348000Y1211075D03*
Y1214925D03*
X351792Y1226407D03*
Y1222557D03*
X362538Y1222733D03*
Y1226583D03*
X356000Y1226350D03*
Y1222500D03*
X347772Y1226272D03*
Y1222422D03*
X365733Y1114289D03*
Y1118139D03*
Y1123373D03*
Y1127223D03*
X365500Y1151000D03*
Y1154850D03*
X374718Y1226731D03*
Y1222881D03*
X366579Y1222799D03*
Y1226649D03*
X370671Y1226764D03*
Y1222914D03*
X376206Y1346354D03*
Y1350204D03*
X380216Y1346354D03*
Y1350204D03*
X380000Y1357575D03*
Y1361425D03*
X592197Y1163630D03*
Y1167480D03*
X598131Y1166491D03*
Y1162641D03*
X601408Y1200824D03*
Y1204674D03*
X593598Y1207441D03*
Y1211291D03*
X589535Y1206505D03*
Y1202655D03*
X598500Y1221574D03*
Y1225424D03*
X594000Y1221525D03*
Y1225375D03*
X616284Y1221640D03*
Y1225490D03*
X607500Y1221525D03*
Y1225375D03*
X612003Y1221523D03*
Y1225373D03*
X603000Y1221525D03*
Y1225375D03*
X631930Y566791D03*
Y570641D03*
X622967Y1159205D03*
Y1163055D03*
X627067Y1159205D03*
Y1163055D03*
X623751Y1182023D03*
Y1178173D03*
X624000Y1200925D03*
Y1197075D03*
X623883Y1189564D03*
Y1193414D03*
X633606Y1221623D03*
Y1225473D03*
X624999Y1221523D03*
Y1225373D03*
X629500Y1232125D03*
X620691Y1221643D03*
Y1225493D03*
X629500Y1221533D03*
Y1225383D03*
Y1235975D03*
X638289Y558311D03*
Y554461D03*
X648909Y564977D03*
Y568827D03*
X640904Y564136D03*
Y567986D03*
X649000Y781150D03*
Y785000D03*
Y796350D03*
Y792500D03*
X638091Y1211273D03*
Y1207423D03*
X663727Y465125D03*
Y461275D03*
X656600Y464625D03*
Y460775D03*
X666300Y478075D03*
X662250Y478275D03*
X655800Y477575D03*
Y481425D03*
X651800Y477575D03*
Y481425D03*
X666300Y481925D03*
X662250Y482125D03*
X664671Y688363D03*
Y692213D03*
X665196Y699737D03*
Y695887D03*
X653500Y781150D03*
Y785000D03*
X658000Y781150D03*
Y785000D03*
X662500Y781150D03*
Y785000D03*
X653500Y796350D03*
Y792500D03*
X674092Y463325D03*
Y459475D03*
X670089Y465075D03*
Y461225D03*
X680300Y464625D03*
Y460775D03*
X672600Y478075D03*
X680000Y476975D03*
Y480825D03*
X672600Y481925D03*
X678315Y565920D03*
Y569770D03*
X678768Y675034D03*
Y678884D03*
X678351Y686746D03*
Y690596D03*
X678540Y703918D03*
X681822Y714881D03*
Y718731D03*
X678540Y707768D03*
X672714Y727106D03*
Y723256D03*
X678000Y780500D03*
Y784350D03*
X682500Y780650D03*
Y784500D03*
X673500Y780500D03*
Y784350D03*
Y796000D03*
Y792150D03*
X678000Y796000D03*
Y792150D03*
X682500Y796000D03*
Y792150D03*
X686400Y464625D03*
Y460775D03*
X690500Y464625D03*
Y460775D03*
X686300Y476975D03*
Y480825D03*
X690165Y566143D03*
Y569993D03*
X686361Y663907D03*
Y667757D03*
X696657Y662011D03*
Y665861D03*
X691389Y688393D03*
X697200Y688351D03*
X684474Y686881D03*
X691389Y692243D03*
X697200Y692201D03*
X696867Y702727D03*
X688659Y702772D03*
X692835Y702724D03*
X684474Y690731D03*
X684531Y702820D03*
X696867Y706577D03*
X688659Y706622D03*
X692835Y706574D03*
X688206Y718826D03*
Y714976D03*
X684531Y706670D03*
X687000Y780650D03*
Y784500D03*
X691905Y792299D03*
Y796149D03*
X687000Y796000D03*
Y792150D03*
X696069Y792299D03*
Y796149D03*
X701164Y566626D03*
Y570476D03*
X704937Y660586D03*
Y664436D03*
X700689Y658309D03*
Y662159D03*
X703179Y688303D03*
X711543Y684317D03*
Y680467D03*
X707439Y687734D03*
Y683884D03*
X700560Y678299D03*
Y674449D03*
X703179Y692153D03*
X699885Y721429D03*
X712128Y728696D03*
Y724846D03*
X707952Y728648D03*
Y724798D03*
X703905Y728636D03*
Y724786D03*
X707763Y736121D03*
Y732271D03*
X699885Y725279D03*
X709524Y781622D03*
Y785472D03*
X701000Y780650D03*
Y784500D03*
X705144Y792215D03*
Y796065D03*
X709224Y792254D03*
Y796104D03*
X713427Y792146D03*
Y795996D03*
X701000Y792150D03*
Y796000D03*
X727407Y686855D03*
Y683005D03*
X715575Y684317D03*
Y680467D03*
X722586Y711944D03*
Y708094D03*
X723171Y737658D03*
X725481Y729692D03*
Y725842D03*
X716256Y729929D03*
Y726079D03*
X723171Y741508D03*
X730377Y780887D03*
Y784737D03*
X724233Y780383D03*
Y784233D03*
X718800Y787231D03*
Y791081D03*
X727727Y795355D03*
Y791505D03*
X723600Y790975D03*
Y794825D03*
X743000Y687574D03*
Y691424D03*
X743790Y784636D03*
Y780786D03*
X738927Y780905D03*
Y784755D03*
X734718Y784744D03*
Y780894D03*
X743529Y794662D03*
Y790812D03*
X739520Y790823D03*
Y794673D03*
X756141Y784726D03*
Y780876D03*
X748173Y784636D03*
Y780786D03*
X765444Y742064D03*
Y745914D03*
X856755Y1005791D03*
Y1001941D03*
X860000Y79575D03*
Y83425D03*
X870894Y993118D03*
X866484D03*
X870894Y996968D03*
X866484D03*
X888981Y187432D03*
Y183582D03*
X880133Y946204D03*
X884133D03*
X888228Y946165D03*
X880133Y950054D03*
X884133D03*
X888228Y950015D03*
X888855Y987317D03*
Y983467D03*
X887000Y1410075D03*
Y1413925D03*
X892359Y267929D03*
Y271779D03*
X900000Y730075D03*
Y733925D03*
X900798Y993749D03*
Y989899D03*
X896698Y989933D03*
Y993783D03*
X920696Y1410162D03*
Y1414012D03*
X925428Y267629D03*
Y271479D03*
X932979Y1500988D03*
Y1504838D03*
X962418Y267581D03*
Y271431D03*
X955794Y1410481D03*
Y1414331D03*
X995500Y268075D03*
Y271925D03*
X989163Y1410157D03*
Y1414007D03*
X1547983Y42577D03*
Y38727D03*
X1548000Y112076D03*
Y115926D03*
Y174576D03*
Y178426D03*
X1546500Y749425D03*
Y745575D03*
X1547000Y805576D03*
Y809426D03*
X1545500Y1439076D03*
Y1442926D03*
X1545000Y1501076D03*
Y1504926D03*
X1547100Y1522295D03*
Y1526145D03*
X1557637Y38789D03*
Y42639D03*
X1552483Y38728D03*
Y42578D03*
X1559000Y112076D03*
X1552500Y112075D03*
X1559000Y115926D03*
X1552500Y115925D03*
X1558500Y174076D03*
X1552500Y174575D03*
X1558500Y177926D03*
X1552500Y178425D03*
X1555000Y219925D03*
Y216075D03*
X1548500Y236076D03*
Y239926D03*
X1559000Y236076D03*
Y239926D03*
X1553000Y239925D03*
Y236075D03*
X1548500Y621576D03*
Y625426D03*
X1558500Y621576D03*
Y625426D03*
X1553000Y625425D03*
Y621575D03*
X1548500Y683576D03*
Y687426D03*
X1557500Y683576D03*
Y687426D03*
X1553000Y687425D03*
Y683575D03*
X1557000Y746076D03*
Y749926D03*
X1551000Y745576D03*
Y749426D03*
X1557500Y805576D03*
Y809426D03*
X1551500Y809425D03*
Y805575D03*
X1549636Y873783D03*
Y869933D03*
X1558137Y869935D03*
Y873785D03*
X1553637Y869934D03*
Y873784D03*
X1550000Y943674D03*
X1554100Y943675D03*
X1550000Y947524D03*
X1554100Y947525D03*
X1550000Y1009724D03*
Y1005874D03*
X1554100Y1005875D03*
Y1009725D03*
X1552500Y1070924D03*
Y1067074D03*
X1557000Y1067075D03*
Y1070925D03*
X1559000Y1439074D03*
X1550000Y1439075D03*
X1554000D03*
X1559000Y1442924D03*
X1550000Y1442925D03*
X1554000D03*
X1559001Y1505924D03*
Y1502074D03*
X1549500Y1504925D03*
Y1501075D03*
X1553500Y1504925D03*
Y1501075D03*
X1551200Y1522296D03*
X1555300Y1522295D03*
X1551200Y1526146D03*
X1561500Y1530824D03*
Y1526974D03*
X1555300Y1526145D03*
X1552800Y1584396D03*
X1548700Y1584395D03*
X1556900D03*
X1552800Y1588246D03*
X1548700Y1588245D03*
X1556900D03*
X1633177Y608530D03*
Y612380D03*
X1738845Y535490D03*
Y531640D03*
X1756731Y348859D03*
Y352709D03*
X1758336Y424643D03*
Y428493D03*
X1758168Y433793D03*
Y437643D03*
X1772370Y1185830D03*
Y1181980D03*
X1770980Y1265624D03*
Y1269474D03*
X1786674Y174970D03*
Y178820D03*
X1775000Y1594925D03*
Y1591075D03*
Y1602425D03*
Y1598575D03*
G54D1777*
X189267Y1200441D03*
X198733D03*
X189267Y1205559D03*
X198733D03*
Y1203000D03*
G54D1796*
X239085Y591389D03*
Y585601D03*
X274188Y1149191D03*
X269049Y1149177D03*
X274188Y1154979D03*
X269049Y1154965D03*
X287000Y1118606D03*
Y1124394D03*
X308904Y1166498D03*
X301671Y1161193D03*
Y1155405D03*
X314085Y1163185D03*
Y1157397D03*
X308904Y1172286D03*
X303000Y1217288D03*
Y1211500D03*
X316467Y1222073D03*
Y1227861D03*
X335586Y1208996D03*
Y1214784D03*
X535000Y539606D03*
Y545394D03*
X530000Y539606D03*
Y545394D03*
X536500Y585894D03*
Y580106D03*
X531500Y585894D03*
Y580106D03*
X536500Y641394D03*
Y635606D03*
X531500Y641394D03*
Y635606D03*
X545000Y539606D03*
Y545394D03*
X550000Y539606D03*
Y545394D03*
X540000Y539606D03*
Y545394D03*
X551488Y585914D03*
Y580126D03*
X546500Y585894D03*
Y580106D03*
X541500Y585894D03*
Y580106D03*
X658998Y688513D03*
Y694301D03*
X684792Y674101D03*
X695994Y674764D03*
Y680552D03*
X690939Y674767D03*
Y680555D03*
X684792Y679889D03*
X709446Y661255D03*
Y667043D03*
X713233Y691315D03*
Y697103D03*
X706500Y1035106D03*
Y1040894D03*
Y1070894D03*
Y1065106D03*
Y1080606D03*
Y1086394D03*
X711776Y1080670D03*
Y1086458D03*
X718233Y691315D03*
Y697103D03*
X716919Y712145D03*
Y706357D03*
X720858Y732122D03*
Y726334D03*
X868848Y909115D03*
Y914903D03*
X865578Y1008767D03*
Y1002979D03*
X865497Y1014049D03*
Y1019837D03*
X882000Y909106D03*
Y914894D03*
X879151Y981462D03*
Y987250D03*
X884151Y981462D03*
Y987250D03*
X887358Y1010264D03*
Y1004476D03*
X1254600Y415937D03*
Y433425D03*
Y427637D03*
Y421725D03*
Y1234429D03*
Y1240217D03*
Y1246129D03*
Y1251917D03*
X1270992Y408402D03*
Y402614D03*
X1275992Y408402D03*
Y402614D03*
X1270400Y415637D03*
X1265400Y415937D03*
X1275400Y415637D03*
X1260400Y415937D03*
X1270400Y421425D03*
X1265400Y421725D03*
X1275400Y421425D03*
X1270400Y432925D03*
Y427137D03*
X1265400Y433225D03*
Y427437D03*
X1275400Y432925D03*
Y427137D03*
X1260400Y421725D03*
Y433225D03*
Y427437D03*
X1274508Y441614D03*
Y447402D03*
X1269508Y441614D03*
Y447402D03*
X1260400Y1234429D03*
X1270992Y1226894D03*
Y1221106D03*
X1275992Y1226894D03*
Y1221106D03*
X1265400Y1234429D03*
X1275400Y1234129D03*
X1270400D03*
X1260400Y1240217D03*
Y1245929D03*
X1265400Y1240217D03*
X1275400Y1239917D03*
X1270400D03*
Y1245629D03*
X1265400Y1245929D03*
X1275400Y1245629D03*
X1260400Y1251717D03*
X1270400Y1251417D03*
X1265400Y1251717D03*
X1275400Y1251417D03*
X1274508Y1260106D03*
Y1265894D03*
X1269508Y1260106D03*
Y1265894D03*
X1290400Y415637D03*
X1285400D03*
X1280400D03*
X1290400Y421425D03*
X1285400D03*
X1280400D03*
X1285400Y432925D03*
Y427137D03*
X1290400Y432925D03*
Y427137D03*
X1280400Y432925D03*
Y427137D03*
X1285400Y1234129D03*
X1280400D03*
X1290400D03*
X1285400Y1239917D03*
X1280400D03*
X1285400Y1245629D03*
X1280400D03*
X1290400Y1239917D03*
Y1245629D03*
X1285400Y1251417D03*
X1280400D03*
X1290400D03*
X1302492Y408402D03*
Y402614D03*
X1307492Y408402D03*
Y402614D03*
X1305400Y415637D03*
X1300400D03*
X1295400D03*
X1305400Y421425D03*
X1300400D03*
X1295400D03*
Y432925D03*
Y427137D03*
X1305400Y432925D03*
Y427137D03*
X1300400Y432925D03*
Y427137D03*
X1302508Y441614D03*
Y447402D03*
X1307508Y441614D03*
Y447402D03*
X1307492Y1226894D03*
Y1221106D03*
X1302492Y1226894D03*
Y1221106D03*
X1305400Y1234129D03*
X1300400D03*
X1295400D03*
X1305400Y1239917D03*
Y1245629D03*
X1300400Y1239917D03*
X1295400D03*
X1300400Y1245629D03*
X1295400D03*
X1305400Y1251417D03*
X1302508Y1260106D03*
Y1265894D03*
X1307508Y1260106D03*
Y1265894D03*
X1300400Y1251417D03*
X1295400D03*
X1315400Y415637D03*
X1320400D03*
X1310400D03*
X1315400Y421425D03*
X1320400D03*
X1315400Y432925D03*
Y427137D03*
X1320400Y432925D03*
Y427137D03*
X1310400Y421425D03*
Y432925D03*
Y427137D03*
X1313618Y595790D03*
Y601578D03*
X1316000Y1067106D03*
Y1072894D03*
X1315400Y1234129D03*
X1320400D03*
X1310400D03*
X1315400Y1239917D03*
X1320400D03*
X1315400Y1245629D03*
X1320400D03*
X1310400Y1239917D03*
Y1245629D03*
X1315400Y1251417D03*
X1320400D03*
X1310400D03*
X1574400Y383606D03*
Y389394D03*
Y394606D03*
Y400394D03*
Y416106D03*
Y427106D03*
Y432894D03*
Y421894D03*
X1574000Y447606D03*
Y453394D03*
X1578400Y1198394D03*
Y1192606D03*
Y1203606D03*
Y1209394D03*
Y1230894D03*
Y1225106D03*
Y1236106D03*
Y1241894D03*
Y1262894D03*
Y1257106D03*
X1657440Y110894D03*
Y105106D03*
X1662500Y85106D03*
Y90894D03*
Y110894D03*
Y105106D03*
X1674006Y266123D03*
Y271911D03*
X1674000Y297894D03*
Y292106D03*
X1673552Y1042463D03*
X1668552D03*
X1673552Y1048251D03*
X1668552D03*
X1667500Y1070006D03*
X1672500D03*
X1667500Y1075794D03*
X1672500D03*
X1679006Y266123D03*
Y271911D03*
X1679000Y297894D03*
Y292106D03*
G54D1787*
X120425Y1155000D03*
X116575D03*
Y1159500D03*
X120425D03*
X116650Y1168500D03*
X120500D03*
X116575Y1164000D03*
X120425D03*
X106575Y1155000D03*
X110425D03*
X106575Y1168500D03*
X110425D03*
X106575Y1164000D03*
X110425D03*
X106575Y1159500D03*
X110425D03*
X116650Y1183000D03*
X120500D03*
X116678Y1178319D03*
X120528D03*
X106575Y1173000D03*
X110425D03*
X107111Y1178505D03*
X110961D03*
X107150Y1183000D03*
X111000D03*
X120850Y1192000D03*
X117000D03*
X107150Y1187500D03*
X111000D03*
X110850Y1192000D03*
X107000D03*
X117150Y1187500D03*
X121000D03*
X135732Y449547D03*
X131882D03*
X135732Y441547D03*
X131882D03*
X135732Y445547D03*
X131882D03*
X154075Y547000D03*
X166075Y524000D03*
X169925D03*
X166075Y528500D03*
X169925D03*
X154575Y532000D03*
X158425D03*
X162375Y539000D03*
X166225D03*
X157925Y547000D03*
X161575D03*
X165425D03*
X162075Y558500D03*
X165925D03*
X160575Y566000D03*
X164425D03*
X165350Y1161601D03*
X161500D03*
X165425Y1170000D03*
X161575D03*
X161612Y1165795D03*
X165462D03*
X165058Y1195600D03*
X161208D03*
X164983Y1200100D03*
X161133D03*
X164983Y1204600D03*
X161133D03*
Y1208682D03*
X164983D03*
X180755Y524561D03*
X184605D03*
X180755Y528561D03*
X184605D03*
X176593Y1170500D03*
X172743D03*
X176593Y1166000D03*
X172743D03*
X176593Y1161601D03*
X172743D03*
X198731Y1211064D03*
X194881D03*
X210925Y535500D03*
X207075D03*
X210925Y543000D03*
X207075D03*
X211425Y559000D03*
X207575D03*
X207425Y547500D03*
X203575D03*
X211425Y555000D03*
X207575D03*
X211425Y563000D03*
X207575D03*
X208925Y1201000D03*
X205075D03*
X248202Y1149447D03*
Y1153576D03*
X248084Y1160466D03*
X248232Y1168938D03*
X248084Y1164534D03*
X248525Y1182500D03*
X248387Y1178388D03*
X248153Y1173969D03*
X248525Y1187500D03*
Y1192300D03*
X243150Y1197663D03*
X239300D03*
X248401Y1197603D03*
X247791Y1215678D03*
X248401Y1203047D03*
Y1207547D03*
X247793Y1219872D03*
X259591Y1133457D03*
X263441D03*
X259675Y1137702D03*
X263525D03*
X258724Y1145781D03*
X262574D03*
X259699Y1141749D03*
X263549D03*
X252052Y1149447D03*
Y1153576D03*
X251934Y1160466D03*
X252082Y1168938D03*
X262375Y1164500D03*
X258525D03*
X258711Y1160499D03*
X262561D03*
X251934Y1164534D03*
X258625Y1169000D03*
X262475D03*
X259167Y1173630D03*
X263017D03*
X252375Y1182500D03*
X252237Y1178388D03*
X252003Y1173969D03*
X259185Y1182489D03*
X263035D03*
X259179Y1178475D03*
X263029D03*
X252375Y1187500D03*
Y1192300D03*
X252251Y1197603D03*
X259125Y1187500D03*
X262975D03*
X258871Y1202547D03*
X262721D03*
X259001Y1192300D03*
X262851D03*
X259001Y1197500D03*
X262851D03*
X251641Y1215678D03*
X252251Y1203047D03*
Y1207547D03*
X256122Y1215879D03*
X259972D03*
X259001Y1207547D03*
X262851D03*
X251643Y1219872D03*
X276812Y398634D03*
X272962D03*
X276812Y394634D03*
X272962D03*
X276812Y410300D03*
X272962D03*
X276812Y406300D03*
X272962D03*
X276812Y418200D03*
X272962D03*
X273075Y430000D03*
X276925D03*
X276812Y422200D03*
X272962D03*
X273076Y439400D03*
X276926D03*
X273076Y443500D03*
X276926D03*
X273075Y434000D03*
X276925D03*
X272650Y523010D03*
X276500D03*
X272650Y519000D03*
X276500D03*
X272752Y529433D03*
X276602D03*
X272752Y533433D03*
X276602D03*
X304612Y1168074D03*
X300762D03*
X313772Y1178649D03*
X304594Y1172103D03*
X300744D03*
X307172Y1237323D03*
X311022D03*
X326776Y1118124D03*
X317746Y1118331D03*
X321596D03*
X329524Y1125399D03*
X326141Y1150929D03*
X329991D03*
X326402Y1156348D03*
X330252D03*
X326402Y1160362D03*
X330252D03*
X323309Y1164394D03*
X327159D03*
X317622Y1178649D03*
X316445Y1237119D03*
X320295D03*
X330626Y1118124D03*
X333374Y1125399D03*
X357650Y1074500D03*
X361500D03*
X357650Y1070000D03*
X361500D03*
X351350Y1074500D03*
X347500D03*
X351350Y1070000D03*
X347500D03*
X357572Y1087989D03*
X361422D03*
X357580Y1079307D03*
X361430D03*
X357580Y1083813D03*
X361430D03*
X351425Y1087794D03*
X347575D03*
X351418Y1083504D03*
X347568D03*
X351425Y1078994D03*
X347575D03*
X357575Y1092294D03*
X361425D03*
X347575D03*
X351425D03*
X357571Y1096803D03*
X361421D03*
X351425Y1105500D03*
X347575D03*
X351416Y1096803D03*
X347566D03*
X347575Y1101100D03*
X351425D03*
X352397Y1133820D03*
X356247D03*
X352367Y1140474D03*
X356217D03*
X352367Y1147284D03*
X356217D03*
X356350Y1151400D03*
X352500D03*
X356350Y1155500D03*
X352500D03*
X352650Y1159600D03*
X356500D03*
X356477Y1176561D03*
X360327D03*
X352804Y1172946D03*
X348954D03*
X365584Y1101576D03*
X369434D03*
X369416Y1105587D03*
X365566D03*
X375229Y1101543D03*
X365599Y1109649D03*
X369449D03*
X375049D03*
X369425Y1132500D03*
X365575D03*
X375575D03*
Y1137000D03*
Y1141500D03*
X369425D03*
X365575D03*
X375575Y1146000D03*
X365575D03*
X369425D03*
X374428Y1177578D03*
X370578D03*
X368440Y1170906D03*
X364590D03*
X368329Y1181451D03*
X364479D03*
X368425Y1185500D03*
X364575D03*
X375650Y1199000D03*
X368449Y1190007D03*
X364599D03*
X364575Y1199000D03*
X368425D03*
X364553Y1194987D03*
X368403D03*
X375650Y1203100D03*
X364575D03*
X368425D03*
X379079Y1101543D03*
X393952Y1116453D03*
X378899Y1109649D03*
X393877Y1107953D03*
X393909Y1112069D03*
X379425Y1132500D03*
Y1137000D03*
Y1141500D03*
Y1146000D03*
X393500Y1170104D03*
Y1165604D03*
X394000Y1159500D03*
Y1155000D03*
X379500Y1199000D03*
Y1203100D03*
X393925Y1330000D03*
X390075D03*
X397802Y1116453D03*
X397727Y1107953D03*
X397759Y1112069D03*
X398555Y1140906D03*
X394705D03*
X394630Y1144965D03*
X398480D03*
X397350Y1170104D03*
Y1165604D03*
X397850Y1159500D03*
Y1155000D03*
X489075Y769000D03*
X497585Y631506D03*
X501435D03*
X501421Y636003D03*
X497571D03*
X501225Y695300D03*
X497375D03*
X497035Y705967D03*
X500885D03*
X497175Y721300D03*
X501025D03*
X497075Y710000D03*
X500925D03*
X502125Y769000D03*
X498275D03*
X492925D03*
X586150Y659000D03*
Y663000D03*
X580346Y1181493D03*
X576496D03*
X576664Y1171992D03*
X580514D03*
X599290Y651725D03*
X595440D03*
X599290Y655725D03*
X595440D03*
X590000Y659000D03*
Y663000D03*
X598077Y670559D03*
X601927D03*
X598077Y666559D03*
X601927D03*
X601582Y688884D03*
Y692997D03*
X601874Y1166865D03*
X590849Y1176504D03*
X586999D03*
X590849Y1172001D03*
X586999D03*
X592137Y1197101D03*
X588287D03*
X615500Y635500D03*
Y639500D03*
X605432Y688884D03*
X616922Y683493D03*
X613072D03*
X613015Y697704D03*
X616865D03*
X613054Y702693D03*
X616904D03*
X616931Y692997D03*
X613081D03*
X605432D03*
X614983Y718923D03*
X615133Y723423D03*
X611983Y735184D03*
X615833D03*
X612150Y730000D03*
X616000D03*
X615850Y744000D03*
X612000D03*
X615908Y739776D03*
X612058D03*
X616333Y751184D03*
X612483D03*
X616350Y755500D03*
X612500D03*
X615545Y1153023D03*
X604348Y1162797D03*
X608198D03*
X605724Y1166865D03*
X611416Y1185738D03*
X615266D03*
X630962Y562203D03*
X627112D03*
X623709Y622132D03*
X627559D03*
X623709Y618132D03*
X627559D03*
X627350Y627500D03*
X623500D03*
X627350Y631500D03*
X623500D03*
X619350Y635500D03*
Y639500D03*
X627272Y652307D03*
X623422D03*
X627272Y648307D03*
X623422D03*
X629420Y687498D03*
X625570D03*
X629417Y683004D03*
X625567D03*
X629243Y678498D03*
X625393D03*
X625642Y692169D03*
X629492D03*
X629987Y702669D03*
X626137D03*
X629597Y697026D03*
X625747D03*
X629492Y718926D03*
X625642D03*
X618833Y718923D03*
X629486Y723429D03*
X625636D03*
X634575Y731800D03*
X618983Y723423D03*
X625483Y735184D03*
X621633D03*
X625350Y730000D03*
X621500D03*
X625483Y739684D03*
X621633D03*
X626350Y755500D03*
X622500D03*
Y760000D03*
X626350D03*
Y764500D03*
X622500D03*
X619395Y1153023D03*
X627706Y1185480D03*
X631556D03*
X622814Y1185783D03*
X618964D03*
X636576Y704500D03*
X640426D03*
X638425Y731800D03*
X643400Y1163652D03*
X639550D03*
X649340Y1173021D03*
X645490D03*
X648152Y1198584D03*
X644302D03*
X643153Y1210305D03*
X647003D03*
X663775Y455827D03*
X659925D03*
X654928Y562044D03*
X658778D03*
X659387Y569274D03*
X663237D03*
X661075Y681500D03*
X664925D03*
X657590Y1161957D03*
X653740D03*
X657590Y1157922D03*
X653740D03*
X658575Y1171500D03*
X662425D03*
X664425Y1196000D03*
X660575D03*
X664425Y1191500D03*
X660575D03*
X664425Y1200500D03*
X660575D03*
X664493Y1204995D03*
X660643D03*
X672975Y486600D03*
X676825D03*
X681733Y549177D03*
X682607Y668751D03*
X678757D03*
X675320Y662790D03*
X671470D03*
X669031Y684906D03*
X672881D03*
X671789Y704337D03*
X667939D03*
X682601Y697110D03*
X678751D03*
X674425Y1200500D03*
X670575D03*
X673363Y1188495D03*
X669513D03*
X674425Y1205000D03*
X670575D03*
X698475Y487100D03*
X685583Y549177D03*
X687259Y696534D03*
X691109D03*
X692278Y718038D03*
X696128D03*
X696982Y712302D03*
X702325Y487100D03*
X705437Y637650D03*
X701587D03*
X705155Y668562D03*
X701305D03*
X710925Y721000D03*
X707075D03*
X700832Y712302D03*
X716275Y668796D03*
X720125D03*
X719284Y673191D03*
X723134D03*
X719699Y660375D03*
X715849D03*
X719558Y664455D03*
X715708D03*
X719191Y677577D03*
X723041D03*
X719656Y684861D03*
X723506D03*
X721715Y721635D03*
X717865D03*
X723164Y716946D03*
X719314D03*
X761171Y716283D03*
X757321D03*
Y712143D03*
X761171D03*
X778500Y754000D03*
X772850D03*
X769000D03*
X778650Y763000D03*
X772850Y758500D03*
X769000D03*
X778650Y767267D03*
X769150Y767500D03*
X773000D03*
X769150Y763000D03*
X773000D03*
X778650Y758500D03*
X773000Y772000D03*
X769150D03*
X793575Y683500D03*
Y687500D03*
X794017Y699162D03*
X794020Y703162D03*
X794074Y712500D03*
Y722000D03*
Y716600D03*
Y726100D03*
X782350Y754000D03*
X782500Y763000D03*
Y767267D03*
Y758500D03*
X802575Y675000D03*
X806425D03*
X802575Y679000D03*
X806425D03*
X797425Y683500D03*
Y687500D03*
X802575Y691000D03*
X806425D03*
X802575Y695000D03*
X806425D03*
X797867Y699162D03*
X797870Y703162D03*
X797924Y712500D03*
Y722000D03*
Y716600D03*
Y726100D03*
X863525Y912600D03*
X859675D03*
X863221Y927124D03*
X859371D03*
X864193Y946189D03*
X860343D03*
X859366Y931875D03*
X863216D03*
X860329Y950295D03*
X864179D03*
X874561Y957318D03*
X870711D03*
X882425Y190500D03*
X878575D03*
Y186500D03*
X882425D03*
X888075Y941000D03*
X896575Y188500D03*
X900425D03*
X891925Y941000D03*
X902529Y1021342D03*
X898679D03*
Y1017342D03*
X902529D03*
X902045Y1045380D03*
X898195D03*
X921839Y1501000D03*
X925689D03*
X970575Y189500D03*
X974425D03*
X995425Y1501000D03*
X991575D03*
X1016524Y288927D03*
Y293397D03*
X1016575Y321000D03*
X1025434Y274104D03*
X1029284D03*
X1029425Y278500D03*
X1025575D03*
X1029425Y283000D03*
X1025575D03*
X1020374Y288927D03*
X1029425Y293500D03*
X1025575D03*
X1029425Y298000D03*
X1025575D03*
X1020374Y293397D03*
X1029925Y316500D03*
X1026075D03*
X1025575Y307500D03*
X1029425D03*
X1026075Y321000D03*
X1029925D03*
X1026075Y312000D03*
X1029925D03*
X1020425Y321000D03*
X1029925Y325500D03*
X1026075D03*
X1029425Y1107500D03*
X1025575D03*
X1029425Y1112000D03*
X1025575D03*
X1029425Y1117500D03*
X1025575D03*
X1026575Y1134500D03*
X1030425D03*
X1028693Y1362048D03*
X1024843D03*
X1028752Y1357000D03*
X1024902D03*
X1029925Y1370000D03*
X1026075D03*
X1025575Y1394000D03*
X1029425D03*
X1025575Y1389000D03*
X1029425D03*
X1039331Y274944D03*
X1035481D03*
X1039454Y285951D03*
X1035604D03*
X1039331Y281544D03*
X1035481D03*
X1036426Y292320D03*
X1040276D03*
X1036575Y298000D03*
X1040425D03*
X1036075Y316500D03*
X1039925D03*
X1036075Y312000D03*
X1039925D03*
Y321000D03*
X1036075D03*
X1036024Y307589D03*
X1039874D03*
X1039925Y325500D03*
X1036075D03*
X1039925Y1101500D03*
X1036075D03*
X1039883Y1097106D03*
X1036033D03*
X1036075Y1107500D03*
X1039925D03*
X1036075Y1112000D03*
X1039925D03*
X1036075Y1117500D03*
X1039925D03*
X1039970Y1133818D03*
X1036120D03*
X1039970Y1138755D03*
X1036120D03*
X1039925Y1142803D03*
X1036075D03*
X1035575Y1357000D03*
X1039425D03*
X1035575Y1362000D03*
X1039425D03*
Y1374000D03*
X1035575D03*
Y1370000D03*
X1039425D03*
Y1394000D03*
X1035575D03*
X1039425Y1380400D03*
X1035575D03*
X1039425Y1389000D03*
X1035575D03*
X1039425Y1384500D03*
X1035575D03*
X1066575Y841500D03*
X1070425D03*
X1542062Y43213D03*
X1538212D03*
X1542061Y38713D03*
X1538211D03*
X1542424Y112000D03*
X1538574D03*
X1542425Y116500D03*
X1538575D03*
X1542924Y174500D03*
X1539074D03*
X1542925Y179000D03*
X1539075D03*
X1543424Y236000D03*
X1539574D03*
X1543425Y240500D03*
X1539575D03*
X1543424Y621000D03*
X1539574D03*
X1543425Y625500D03*
X1539575D03*
X1543424Y683500D03*
X1539574D03*
X1543425Y687501D03*
X1539575D03*
X1541424Y745500D03*
X1537574D03*
X1541425Y750000D03*
X1537575D03*
X1541924Y805500D03*
X1538074D03*
X1541925Y810000D03*
X1538075D03*
X1546141Y880167D03*
X1540966Y924087D03*
X1544816D03*
X1545125Y943400D03*
X1541275D03*
X1545124Y947600D03*
X1541274D03*
X1545124Y1009800D03*
X1541274D03*
X1545125Y1005600D03*
X1541275D03*
X1547424Y1071000D03*
X1543574D03*
X1547425Y1066500D03*
X1543575D03*
X1540424Y1439000D03*
X1536574D03*
X1540425Y1443500D03*
X1536575D03*
X1539924Y1501000D03*
X1536074D03*
X1539925Y1505500D03*
X1536075D03*
X1541324Y1522300D03*
X1537474D03*
X1541325Y1526500D03*
X1537475D03*
X1542724Y1584300D03*
X1538874D03*
X1542725Y1588500D03*
X1538875D03*
X1554217Y23625D03*
X1558067D03*
X1553575Y92529D03*
X1557425D03*
X1554075Y155000D03*
X1557925D03*
X1554075Y584500D03*
X1557925D03*
X1554075Y653500D03*
X1557925D03*
X1554266Y716024D03*
X1558116D03*
X1554075Y778000D03*
X1557925D03*
X1554205Y849369D03*
X1558055D03*
X1558303Y880167D03*
X1554453D03*
X1549991D03*
X1558690Y935403D03*
X1554840D03*
X1553695Y973905D03*
X1557545D03*
X1554176Y996800D03*
X1558026D03*
X1553775Y1036000D03*
X1557625D03*
X1554276Y1058600D03*
X1558126D03*
X1559140Y1596819D03*
X1555290D03*
X1609936Y602206D03*
X1615075Y557500D03*
X1618925D03*
X1622934Y584761D03*
X1626784D03*
X1613786Y602206D03*
X1626460Y606691D03*
X1622610D03*
Y611116D03*
X1626460D03*
X1640893Y327338D03*
X1637043D03*
X1640923Y359738D03*
X1637073D03*
X1641382Y392354D03*
X1637532D03*
X1640803Y424829D03*
X1636953D03*
X1640839Y457361D03*
X1636989D03*
X1640947Y489737D03*
X1637097D03*
X1641472Y522452D03*
X1637622D03*
X1641314Y1161405D03*
X1637464D03*
X1641277Y1193940D03*
X1637427D03*
X1641235Y1226436D03*
X1637385D03*
X1640458Y1259037D03*
X1636608D03*
X1639324Y1291206D03*
X1635474D03*
X1641997Y1323807D03*
X1638147D03*
X1642035Y1356381D03*
X1645885D03*
X1721338Y106800D03*
X1721185Y139758D03*
X1721032Y172545D03*
X1721104Y205479D03*
X1721302Y238791D03*
X1722799Y1411104D03*
X1722586Y1444389D03*
X1722476Y1477344D03*
X1722782Y1510359D03*
X1723448Y1542966D03*
X1719598D03*
X1725188Y106800D03*
X1725035Y139758D03*
X1724882Y172545D03*
X1724954Y205479D03*
X1725152Y238791D03*
X1739826Y295577D03*
X1737880Y611258D03*
X1734030D03*
X1737412Y644198D03*
X1733562D03*
X1737826Y677360D03*
X1733976D03*
X1737595Y710354D03*
X1733745D03*
X1737586Y743324D03*
X1733736D03*
X1738174Y905245D03*
X1734324D03*
X1737898Y938314D03*
X1734048D03*
X1737913Y971248D03*
X1734063D03*
X1738138Y1004311D03*
X1734288D03*
X1737985Y1037332D03*
X1734135D03*
X1738036Y1070290D03*
X1734186D03*
X1726649Y1411104D03*
X1726436Y1444389D03*
X1726326Y1477344D03*
X1726632Y1510359D03*
X1743676Y295577D03*
X1750517Y345306D03*
X1746667D03*
X1754605Y420882D03*
X1750755D03*
X1745551Y538710D03*
X1749401D03*
X1763119Y417669D03*
X1759269D03*
X1771292Y1191156D03*
X1767442D03*
X1765405Y1263049D03*
X1761555D03*
X1771273Y1620541D03*
X1767423D03*
X1784575Y1267500D03*
X1788425D03*
X1833075Y187976D03*
Y191976D03*
X1832575Y228476D03*
Y232476D03*
X1833627Y543097D03*
Y547097D03*
X1833644Y589798D03*
Y585798D03*
X1833489Y1000523D03*
Y1004523D03*
X1833486Y1040902D03*
Y1044902D03*
X1833327Y1343039D03*
Y1339039D03*
X1833588Y1382306D03*
Y1386306D03*
X1836925Y187976D03*
Y191976D03*
X1836425Y228476D03*
Y232476D03*
X1837477Y543097D03*
Y547097D03*
X1837494Y589798D03*
Y585798D03*
X1837339Y1000523D03*
Y1004523D03*
X1837336Y1040902D03*
Y1044902D03*
X1837177Y1343039D03*
Y1339039D03*
X1837438Y1382306D03*
Y1386306D03*
G54D1614*
X671337Y692092D03*
Y698114D03*
G54D1793*
X875377Y265458D03*
Y278624D03*
X908285Y265471D03*
Y278637D03*
X904644Y1403474D03*
Y1416640D03*
X937845Y1403417D03*
Y1416583D03*
X945317Y265458D03*
Y278624D03*
X973156Y1403504D03*
Y1416670D03*
X978377Y265458D03*
Y278624D03*
X1006242Y1403567D03*
Y1416733D03*
G54D1691*
X131103Y1161438D03*
X147200Y1209600D03*
X197283Y1183371D03*
X219015Y1166025D03*
X230112Y1157502D03*
X275703Y1092873D03*
X293877Y1265712D03*
X299277Y1262012D03*
X293877Y1272812D03*
X294094Y1290989D03*
X369456Y1079886D03*
X410232Y1184784D03*
X552711Y635748D03*
X553857Y1054443D03*
X585199Y1217083D03*
X576799Y1214483D03*
X601999Y1156683D03*
X600899Y1190883D03*
X614961Y834102D03*
X636111Y690927D03*
X629727Y1152561D03*
X650581Y746334D03*
X645958Y743239D03*
X642327Y1131732D03*
X700500Y717000D03*
X713985Y1065444D03*
X731862Y751323D03*
X717261Y1085397D03*
X720981Y1143735D03*
X749742Y1039803D03*
X882054Y334110D03*
X889000Y1351000D03*
X888546Y1464285D03*
X917100Y344200D03*
X923970Y1330710D03*
X974328Y1344252D03*
X1000857Y1331016D03*
X1009065Y72621D03*
X1018053Y311721D03*
X1010562Y325230D03*
X1017507Y1335567D03*
X1031127Y1334880D03*
X1024329Y1334985D03*
X1031295Y1342488D03*
X1024599Y1342158D03*
X1038000Y1334500D03*
X1038156Y1342698D03*
X1078683Y1066740D03*
X1555824Y1241319D03*
X1574500Y366000D03*
X1645218Y1603722D03*
X1653353Y98162D03*
X1648500Y179000D03*
X1657920Y639519D03*
X1654335Y793269D03*
X1659045Y829992D03*
X1659414Y965812D03*
X1651771Y1459947D03*
X1648594Y1535691D03*
X1670826Y282219D03*
X1668945Y734846D03*
X1663176Y1061832D03*
X1848570Y189801D03*
X1848765Y232737D03*
X1849635Y546162D03*
X1849071Y587142D03*
X1849728Y1000953D03*
X1847934Y1043937D03*
X1849365Y1339449D03*
X1849533Y1382397D03*
G54D664*
X295677Y1083402D03*
X289378Y1086551D03*
X292528Y1083402D03*
X289378D03*
X295677Y1086551D03*
Y1089701D03*
X292528Y1086551D03*
Y1089701D03*
X289378D03*
X292528Y1105449D03*
X289378D03*
X292528Y1102299D03*
X295677Y1105449D03*
Y1102299D03*
X289378D03*
X292528Y1108598D03*
X295677D03*
X289378D03*
X305126Y1083402D03*
X308276Y1086551D03*
X301976Y1083402D03*
Y1086551D03*
X298827D03*
X311425Y1083402D03*
X308276Y1089701D03*
Y1083402D03*
X305126Y1086551D03*
X298827Y1083402D03*
Y1089701D03*
X311425Y1086551D03*
Y1089701D03*
X305126D03*
X301976D03*
Y1102299D03*
X298827Y1105449D03*
X305126D03*
X298827Y1102299D03*
X308276D03*
X305126D03*
X311425Y1105449D03*
Y1102299D03*
X308276Y1105449D03*
X301976D03*
Y1108598D03*
X311425D03*
X305126D03*
X298827D03*
X308276D03*
X324024Y1083402D03*
X317724D03*
X320874D03*
X314575D03*
Y1086551D03*
X327173Y1083402D03*
X320874Y1086551D03*
X314575Y1089701D03*
X320874D03*
X317724D03*
Y1086551D03*
X324024D03*
X327173D03*
Y1089701D03*
X324024D03*
X320874Y1105449D03*
X314575D03*
X317724Y1102299D03*
X314575D03*
X317724Y1105449D03*
X324024D03*
X327173D03*
X320874Y1102299D03*
X327173D03*
X324024D03*
X327173Y1108598D03*
X317724D03*
X324024D03*
X320874D03*
X314575D03*
X333472Y1083402D03*
X336622D03*
Y1089701D03*
X330323Y1083402D03*
X333472Y1089701D03*
Y1086551D03*
X330323D03*
X336622D03*
X330323Y1089701D03*
X336622Y1102299D03*
X333472Y1105449D03*
X330323D03*
X333472Y1102299D03*
X336622Y1105449D03*
X330323Y1102299D03*
X336622Y1108598D03*
X333472D03*
X330323D03*
G54D1815*
X866377Y267771D03*
Y276311D03*
X899634Y266871D03*
Y275411D03*
X913281Y1406066D03*
Y1414606D03*
X936317Y267271D03*
Y275811D03*
X946845Y1406230D03*
Y1414770D03*
X969653Y267271D03*
Y275811D03*
X981789Y1406105D03*
Y1414645D03*
X1014891Y1402169D03*
Y1410709D03*
G54D1844*
X132339Y1167780D03*
X133913D03*
X135488D03*
X137063D03*
X133913Y1190220D03*
X132339D03*
X135488D03*
X137063D03*
X138638Y1167780D03*
X140213D03*
X143362D03*
X144937D03*
X148087D03*
X149661D03*
X141787D03*
X146512D03*
X143362Y1190220D03*
X144937D03*
X148087D03*
X146512D03*
X138638D03*
X141787D03*
X140213D03*
X149661D03*
G54D947*
X359700Y1119141D03*
X351432D03*
X359700Y1126621D03*
X351432D03*
G54D1807*
X464294Y705041D03*
Y707404D03*
Y709766D03*
Y712128D03*
Y714490D03*
Y716852D03*
Y719215D03*
Y721577D03*
Y723939D03*
Y726301D03*
Y728663D03*
Y731026D03*
Y733388D03*
Y735750D03*
Y753053D03*
Y755415D03*
Y757778D03*
Y760140D03*
Y762502D03*
Y764864D03*
Y767226D03*
Y769589D03*
Y771951D03*
Y774313D03*
Y776675D03*
Y779037D03*
Y781400D03*
Y783762D03*
Y786124D03*
Y788486D03*
Y790848D03*
Y793211D03*
Y795573D03*
Y797935D03*
Y800297D03*
Y802659D03*
Y805022D03*
Y807384D03*
Y809746D03*
Y812108D03*
Y814470D03*
Y816833D03*
Y832620D03*
Y834982D03*
Y837344D03*
Y839707D03*
Y842069D03*
Y844431D03*
Y846793D03*
Y849156D03*
Y851518D03*
Y853880D03*
Y856242D03*
Y858604D03*
Y860967D03*
Y863329D03*
Y882659D03*
Y885022D03*
Y887384D03*
Y889746D03*
Y892108D03*
Y894470D03*
Y896833D03*
Y899195D03*
Y901557D03*
Y903919D03*
Y906281D03*
Y908644D03*
Y911006D03*
Y913368D03*
Y915730D03*
Y918093D03*
Y920455D03*
Y922817D03*
Y925179D03*
Y927541D03*
Y929904D03*
Y932266D03*
Y934628D03*
Y936990D03*
Y939352D03*
Y941715D03*
Y944077D03*
Y946439D03*
G54D1843*
X129780Y1184512D03*
Y1178213D03*
Y1176638D03*
Y1175063D03*
Y1171913D03*
Y1170339D03*
Y1179787D03*
Y1181362D03*
Y1182937D03*
Y1173488D03*
Y1187661D03*
Y1186087D03*
X152220Y1175063D03*
Y1176638D03*
Y1184512D03*
Y1170339D03*
Y1171913D03*
Y1173488D03*
Y1178213D03*
Y1179787D03*
Y1181362D03*
Y1182937D03*
Y1186087D03*
Y1187661D03*
G54D1680*
X881500Y288687D03*
Y314395D03*
X901000Y288687D03*
Y314395D03*
X895500Y1360646D03*
Y1386354D03*
X920500Y288687D03*
Y314395D03*
X915000Y1360646D03*
Y1386354D03*
X940000Y288687D03*
Y314395D03*
X934500Y1360646D03*
Y1386354D03*
X954000Y1360646D03*
Y1386354D03*
X959500Y288687D03*
Y314395D03*
X973500Y1360646D03*
Y1386354D03*
X979000Y288687D03*
Y314395D03*
X998500Y288687D03*
Y314395D03*
X993000Y1360646D03*
Y1386354D03*
X1012500Y1360646D03*
Y1386354D03*
X1655000Y119646D03*
Y145354D03*
Y212646D03*
Y238354D03*
X1656000Y1483646D03*
Y1509354D03*
X1667500Y684146D03*
Y709854D03*
Y918146D03*
Y943854D03*
X1668705Y1008865D03*
Y1034573D03*
G54D1847*
X1008500Y98668D03*
Y86332D03*
G54D1775*
X497475Y699300D03*
X501125D03*
X576797Y1167501D03*
X580447D03*
X576245Y1185528D03*
X579895D03*
X598839Y1173378D03*
X602489D03*
X587180Y1185270D03*
X590830D03*
X664327Y1209498D03*
X660677D03*
X1784675Y1263500D03*
X1788325D03*
G54D1845*
X169200Y42100D03*
X169800Y1325300D03*
X359700Y289500D03*
X661800Y1425500D03*
X961400Y787000D03*
X1011200Y50400D03*
X1092200Y1662800D03*
X1775500Y826500D03*
X1793000Y52700D03*
X1809500Y1660900D03*
G54D1801*
X170106Y547000D03*
X175894D03*
X177894Y567000D03*
X172106D03*
X193106Y547000D03*
X198894D03*
X257727Y1150311D03*
X263515D03*
X257811Y1155384D03*
X263599D03*
X375712Y1152000D03*
X375730Y1159272D03*
X375712Y1164500D03*
Y1171500D03*
X381500Y1152000D03*
X381518Y1159272D03*
X381500Y1164500D03*
Y1171500D03*
X648506Y470800D03*
X654294D03*
X666349Y718972D03*
X672137D03*
X682606Y724508D03*
X689206Y470800D03*
X694994D03*
X692506Y482500D03*
X698294D03*
X686170Y658287D03*
X691958D03*
X688394Y724508D03*
X709591Y655842D03*
X707485Y674469D03*
X713273D03*
X715379Y655842D03*
X857810Y917454D03*
Y922554D03*
X858692Y936415D03*
X858606Y941500D03*
X859242Y957318D03*
X863598Y917454D03*
Y922554D03*
X864480Y936415D03*
X864394Y941500D03*
X865030Y957318D03*
X869528Y946818D03*
X875316D03*
X869528Y952318D03*
X875316D03*
X886606Y930500D03*
Y936000D03*
X877729Y1022379D03*
X883517D03*
X886591Y1039866D03*
X886039Y1034664D03*
X887143Y1045380D03*
X892394Y930500D03*
Y936000D03*
X892379Y1039866D03*
X891827Y1034664D03*
X901746Y1039600D03*
Y1034600D03*
X892931Y1045380D03*
X907534Y1039600D03*
Y1034600D03*
X932470Y335331D03*
X938258D03*
X932470Y330303D03*
X938258D03*
X950146Y1351552D03*
X955934D03*
X972606Y324041D03*
X978394D03*
X986606Y1351000D03*
X980394D03*
X974606D03*
X997394Y324041D03*
X991606D03*
X992394Y1351000D03*
X1011418Y1350403D03*
X1005630D03*
X1066606Y40580D03*
X1065106Y71580D03*
X1065606Y102080D03*
Y133580D03*
X1067627Y164973D03*
X1065606Y226580D03*
X1065333Y610032D03*
X1065175Y641069D03*
X1067645Y673080D03*
X1066748Y704218D03*
X1065710Y735149D03*
X1065307Y764503D03*
X1066127Y797080D03*
X1065989Y828287D03*
X1065606Y858920D03*
X1065106Y889920D03*
Y920920D03*
Y951920D03*
Y1013920D03*
Y1044920D03*
Y1057492D03*
X1066606Y1066492D03*
X1065106Y1429492D03*
Y1460492D03*
X1065067Y1491405D03*
X1065106Y1522420D03*
Y1553420D03*
Y1584492D03*
Y1615420D03*
X1065606Y1646420D03*
X1080394Y22080D03*
X1074606D03*
X1078106Y40580D03*
X1072394D03*
X1080394Y53080D03*
X1074606D03*
X1082394Y71580D03*
X1076606D03*
X1070894D03*
X1080394Y84080D03*
X1074606D03*
X1082894Y102080D03*
X1077106D03*
X1071394D03*
X1080394Y115080D03*
X1074606D03*
X1082894Y133580D03*
X1077106D03*
X1071394D03*
X1078756Y146271D03*
X1079127Y164973D03*
X1079017Y177198D03*
X1073415Y164973D03*
X1078954Y195123D03*
X1080394Y208080D03*
X1074606D03*
X1067791Y195123D03*
X1073579D03*
X1082894Y226580D03*
X1077106D03*
X1080394Y239080D03*
X1074606D03*
X1071394Y226580D03*
X1079586Y248652D03*
X1074104Y248562D03*
X1068316D03*
X1082621Y610032D03*
X1076833D03*
X1083176Y601731D03*
X1077388D03*
X1071121Y610032D03*
X1078922Y625051D03*
X1073134D03*
X1082463Y641069D03*
X1076675D03*
X1070963D03*
X1081194Y655000D03*
X1075406D03*
X1079145Y673080D03*
X1073433D03*
X1080394Y685580D03*
X1074606D03*
X1078248Y704218D03*
X1072536D03*
X1078171Y717123D03*
X1082998Y735149D03*
X1077210D03*
X1071498D03*
X1080394Y747580D03*
X1074606D03*
X1079206Y764381D03*
X1071095Y764503D03*
X1082369Y787010D03*
X1076581D03*
X1083415Y797080D03*
X1077627D03*
X1071915D03*
X1080394Y809580D03*
X1074606D03*
X1083277Y828287D03*
X1077489D03*
X1071777D03*
X1083394Y841508D03*
X1077606D03*
X1082894Y858920D03*
X1077106D03*
X1071394D03*
X1080394Y871420D03*
X1074606D03*
X1082394Y889920D03*
X1076606D03*
X1070894D03*
X1080394Y902420D03*
X1074606D03*
X1082394Y920920D03*
X1076606D03*
X1070894D03*
X1080394Y933420D03*
X1074606D03*
X1070894Y951920D03*
X1082394D03*
X1076606D03*
X1082434Y965700D03*
X1074413Y982548D03*
X1068625D03*
X1079881D03*
X1081894Y995508D03*
X1076106D03*
X1070894Y1013920D03*
X1082394D03*
X1076606D03*
X1081894Y1026508D03*
X1076106D03*
X1070894Y1044920D03*
Y1057492D03*
X1082394Y1044920D03*
X1076606D03*
X1082394Y1057508D03*
X1076606D03*
X1072394Y1066492D03*
X1075894Y1420508D03*
X1070106D03*
X1070894Y1429492D03*
X1082394Y1429508D03*
X1076606D03*
X1080394Y1441920D03*
X1074606D03*
X1070894Y1460492D03*
X1081894Y1460420D03*
X1076106D03*
X1081894Y1473008D03*
X1076106D03*
X1070855Y1491405D03*
X1081894Y1491420D03*
X1076106D03*
X1082394Y1504008D03*
X1076606D03*
X1070894Y1522420D03*
X1082394D03*
X1076606D03*
X1078948Y1535529D03*
X1070894Y1553420D03*
X1082394D03*
X1076606D03*
X1081894Y1566008D03*
X1076106D03*
X1070894Y1584492D03*
X1082394Y1584508D03*
X1076606D03*
X1081894Y1597008D03*
X1076106D03*
X1070894Y1615420D03*
X1082394D03*
X1076606D03*
X1080394Y1627920D03*
X1074606D03*
X1082894Y1646420D03*
X1077106D03*
X1071394D03*
X1083894Y40580D03*
X1084544Y146271D03*
X1084915Y164973D03*
X1084805Y177198D03*
X1084742Y195123D03*
X1085374Y248652D03*
X1084933Y673080D03*
X1084036Y704218D03*
X1083959Y717123D03*
X1084994Y764381D03*
X1088222Y965700D03*
X1085669Y982548D03*
X1084736Y1535529D03*
X1238894Y22008D03*
X1233106D03*
X1241394Y40008D03*
X1235606D03*
X1240894Y53008D03*
X1235106D03*
X1241894Y71008D03*
X1236106D03*
X1241894Y84008D03*
X1236106D03*
X1242394Y102008D03*
X1236606D03*
X1241894Y115008D03*
X1236106D03*
X1241394Y133008D03*
X1235606D03*
X1242394Y188008D03*
X1236606D03*
X1242394Y195008D03*
X1236606D03*
X1240894Y208008D03*
X1235106D03*
X1241894Y226008D03*
X1236106D03*
X1241394Y239008D03*
X1235606D03*
X1231106Y248000D03*
X1236894D03*
X1230606Y610580D03*
X1236394D03*
X1230606Y623580D03*
X1236394D03*
X1230606Y641580D03*
X1236394D03*
X1230606Y654580D03*
X1236394D03*
X1230606Y672580D03*
X1236394D03*
X1230606Y685580D03*
X1236394D03*
X1230606Y703580D03*
X1236394D03*
X1230606Y716580D03*
X1236394D03*
X1230606Y734580D03*
X1236394D03*
X1230606Y747580D03*
X1236394D03*
X1235470Y765520D03*
X1241258D03*
X1230606Y778580D03*
X1236394D03*
X1230106Y840420D03*
X1235894D03*
X1230106Y858420D03*
X1235894D03*
X1230106Y871420D03*
X1235894D03*
X1230106Y889420D03*
X1235894D03*
X1230106Y902420D03*
X1235894D03*
X1230106Y920420D03*
X1235894D03*
X1230106Y933420D03*
X1235894D03*
X1241606Y933492D03*
X1230106Y951420D03*
X1235894D03*
X1230106Y964420D03*
X1235894D03*
X1230106Y982420D03*
X1235894D03*
X1230106Y995420D03*
X1235894D03*
X1230106Y1013420D03*
X1235894D03*
X1230106Y1026420D03*
X1235894D03*
X1230106Y1044420D03*
X1235894D03*
X1230106Y1057420D03*
X1235894D03*
X1240606Y1067000D03*
X1228038Y1066860D03*
X1233826D03*
X1233934Y1420238D03*
X1239722D03*
X1230106Y1428920D03*
X1235894D03*
X1230106Y1441920D03*
X1235894D03*
X1230106Y1459920D03*
X1235894D03*
X1230106Y1472920D03*
X1235894D03*
X1230106Y1490920D03*
X1235894D03*
X1230106Y1503920D03*
X1235894D03*
X1230106Y1565920D03*
X1235894D03*
X1230106Y1596920D03*
X1235894D03*
X1237870Y1614931D03*
X1243658D03*
X1230106Y1627920D03*
X1235894D03*
X1230106Y1645920D03*
X1235894D03*
X1254394Y22080D03*
X1248606D03*
X1254394Y40080D03*
X1248606D03*
X1254394Y53080D03*
X1248606D03*
X1254394Y71080D03*
X1248606D03*
X1254394Y84080D03*
X1248606D03*
X1254394Y102080D03*
X1248606D03*
X1254394Y115080D03*
X1248606D03*
X1254394Y133080D03*
X1248606D03*
X1259606Y188008D03*
X1248106Y187992D03*
X1253894D03*
X1254894Y195008D03*
X1249106D03*
X1248106Y207992D03*
X1253894D03*
X1254894Y226008D03*
X1249106D03*
X1252894Y239080D03*
X1247106D03*
X1253228Y247976D03*
X1247440D03*
X1255106Y438516D03*
X1258606Y443516D03*
X1252894Y610580D03*
X1247106D03*
X1252894Y623580D03*
X1247106D03*
X1252894Y641580D03*
X1247106D03*
X1252894Y654580D03*
X1247106D03*
X1252894Y672580D03*
X1247106D03*
X1252894Y685580D03*
X1247106D03*
X1252894Y703580D03*
X1247106D03*
X1252894Y716580D03*
X1247106D03*
X1252894Y734580D03*
X1247106D03*
X1252894Y747580D03*
X1247106D03*
X1250106Y765492D03*
X1255894D03*
X1252894Y778580D03*
X1247106D03*
X1252394Y840420D03*
X1246606D03*
X1252394Y858420D03*
X1246606D03*
X1252394Y871420D03*
X1246606D03*
X1252394Y889420D03*
X1246606D03*
X1259833Y902413D03*
X1249894Y902420D03*
X1244106D03*
X1252394Y920420D03*
X1246606D03*
X1247394Y933492D03*
X1258894Y933508D03*
X1253106D03*
X1252394Y951420D03*
X1246606D03*
X1252394Y964420D03*
X1246606D03*
X1249894Y982508D03*
X1244106D03*
X1255606Y982492D03*
X1252394Y995420D03*
X1246606D03*
X1252394Y1013420D03*
X1246606D03*
X1252394Y1026420D03*
X1246606D03*
X1252394Y1044420D03*
X1246606D03*
Y1057420D03*
X1252394D03*
X1246394Y1067000D03*
X1255106Y1257008D03*
X1258606Y1262008D03*
X1245997Y1420294D03*
X1251785D03*
X1252394Y1428920D03*
X1246606D03*
X1252394Y1441920D03*
X1246606D03*
X1252394Y1459920D03*
X1246606D03*
X1252394Y1472920D03*
X1246606D03*
X1252394Y1490920D03*
X1246606D03*
X1252394Y1503920D03*
X1246606D03*
X1252394Y1565920D03*
X1246606D03*
X1252394Y1583920D03*
X1246606D03*
X1252394Y1596920D03*
X1246606D03*
X1254710Y1614935D03*
X1248922D03*
X1247098Y1627984D03*
X1252886D03*
X1252394Y1645920D03*
X1246606D03*
X1261106Y22080D03*
X1266894D03*
X1261106Y40080D03*
X1266894D03*
X1261106Y53080D03*
X1266894D03*
X1261106Y71080D03*
X1266894D03*
X1261106Y84080D03*
X1266894D03*
X1261106Y102080D03*
X1266894D03*
X1261106Y115080D03*
X1266894D03*
X1261106Y133080D03*
X1266894D03*
X1265394Y188008D03*
X1261106Y195080D03*
X1266894D03*
X1261106Y207992D03*
X1266894D03*
X1261106Y226080D03*
X1266894D03*
X1261606Y239080D03*
X1267394D03*
X1261106Y248492D03*
X1266894D03*
X1265894Y410516D03*
X1260106D03*
X1265894Y405516D03*
X1260106D03*
X1260894Y438516D03*
X1264394Y443516D03*
X1261606Y610580D03*
X1267394D03*
X1261606Y623580D03*
X1267394D03*
X1261606Y641580D03*
X1267394D03*
X1261606Y654580D03*
X1267394D03*
X1261606Y672580D03*
X1267394D03*
X1261606Y685580D03*
X1267394D03*
X1261606Y703580D03*
X1267394D03*
X1261606Y716580D03*
X1267394D03*
X1261606Y734580D03*
X1267394D03*
X1261606Y747580D03*
X1267394D03*
X1261606Y765492D03*
X1267394D03*
X1261606Y778580D03*
X1267394D03*
X1261106Y840420D03*
X1266894D03*
X1261106Y858420D03*
X1266894D03*
X1261106Y871420D03*
X1266894D03*
X1266394Y889508D03*
X1260606D03*
X1265621Y902413D03*
X1261106Y920420D03*
X1266894D03*
X1261106Y951420D03*
X1266894D03*
X1261106Y964420D03*
X1266894D03*
X1261394Y982492D03*
X1267002Y995346D03*
X1261214D03*
X1266894Y1013420D03*
X1261106D03*
X1266894Y1026420D03*
X1261106D03*
X1266894Y1057420D03*
X1261106D03*
X1261474Y1044391D03*
X1267262D03*
X1260933Y1066861D03*
X1266721D03*
X1265894Y1224008D03*
X1260106D03*
X1265894Y1229008D03*
X1260106D03*
X1260894Y1257008D03*
X1264394Y1262008D03*
X1261106Y1428920D03*
X1266894D03*
Y1441920D03*
X1261106D03*
Y1459920D03*
X1266894D03*
Y1472920D03*
X1261106D03*
Y1490920D03*
X1266894D03*
X1261106Y1503920D03*
X1266894D03*
X1261106Y1565920D03*
X1266894D03*
X1261106Y1583920D03*
X1266894D03*
X1261106Y1596920D03*
X1266894D03*
X1261106Y1614920D03*
X1266894D03*
X1261106Y1627920D03*
X1266894D03*
X1261106Y1645920D03*
X1266894D03*
X1322394Y22080D03*
X1316606D03*
X1321894Y31008D03*
X1316106D03*
X1322394Y40580D03*
X1316606D03*
X1318394Y47000D03*
X1312606D03*
X1323894Y53008D03*
X1318106D03*
X1322051Y62096D03*
X1316263D03*
X1319606Y71580D03*
X1322394Y85508D03*
X1316606D03*
X1322894Y93000D03*
X1317106D03*
X1322606Y102008D03*
X1322394Y115508D03*
X1316606D03*
X1322894Y126000D03*
X1317106D03*
X1321606Y134008D03*
X1322894Y147008D03*
X1317106D03*
X1323106Y164508D03*
X1321894Y177508D03*
X1316106D03*
X1322606Y187008D03*
Y196008D03*
X1323106Y209008D03*
X1322424Y225508D03*
X1316636D03*
X1322894Y217000D03*
X1317106D03*
X1322394Y239508D03*
X1316606D03*
X1322394Y248000D03*
X1316606D03*
X1313106Y408500D03*
X1318894D03*
X1312606Y442000D03*
X1318394D03*
X1319032Y603008D03*
X1316606Y610992D03*
X1322394D03*
X1317606Y623492D03*
X1323394D03*
X1316242Y617242D03*
X1310454D03*
X1322894Y642080D03*
X1317106D03*
X1319810Y633092D03*
X1314022D03*
X1318681Y654420D03*
X1316106Y672992D03*
X1321894D03*
X1319654Y663161D03*
X1313866D03*
X1318606Y685492D03*
X1317394Y679500D03*
X1311606D03*
X1317606Y703992D03*
X1323394D03*
X1319894Y694508D03*
X1314106D03*
X1319106Y716492D03*
X1318606Y735008D03*
X1320395Y726168D03*
X1314607D03*
X1322894Y747580D03*
X1317106D03*
X1323450Y741398D03*
X1317662D03*
X1320464Y756618D03*
X1314676D03*
X1322894Y766080D03*
X1317106D03*
X1322894Y778580D03*
X1317106D03*
X1322114Y788312D03*
X1316326D03*
X1322894Y797080D03*
X1317106D03*
X1319385Y809567D03*
X1323203Y819095D03*
X1317415D03*
X1322894Y828080D03*
X1317106D03*
X1322394Y840420D03*
X1316606D03*
X1319894Y849500D03*
X1314106D03*
X1316606Y858920D03*
X1322394D03*
X1320394Y882500D03*
X1314606D03*
X1322394Y889920D03*
X1316606D03*
X1319693Y911759D03*
X1313905D03*
X1319000Y902551D03*
X1313212D03*
X1322068Y933603D03*
X1318394Y952008D03*
X1312606D03*
X1320641Y960469D03*
X1314853D03*
X1320606Y965500D03*
X1321894Y973508D03*
X1316106D03*
X1321606Y982008D03*
X1321894Y988500D03*
X1316106D03*
X1321106Y995492D03*
X1321894Y1008508D03*
X1316106D03*
X1322106Y1014008D03*
X1320106Y1026500D03*
X1320394Y1035500D03*
X1314606D03*
X1317367Y1044558D03*
X1323155D03*
X1318894Y1058000D03*
X1313106D03*
X1318894Y1051000D03*
X1313106D03*
Y1226992D03*
X1318894D03*
X1312606Y1260492D03*
X1318394D03*
X1319394Y1420500D03*
X1313606D03*
X1318606Y1428692D03*
X1323584Y1441950D03*
X1317796D03*
X1317090Y1435705D03*
X1311302D03*
X1319393Y1451084D03*
X1313605D03*
X1318369Y1460532D03*
X1319043Y1472922D03*
X1313255D03*
X1321046Y1482255D03*
X1315258D03*
X1323926Y1491584D03*
X1323394Y1503920D03*
X1317606D03*
X1318628Y1491577D03*
X1312840D03*
X1318653Y1498894D03*
X1312865D03*
X1319333Y1512926D03*
X1313545D03*
X1320206Y1522608D03*
X1319506Y1534608D03*
X1318756Y1543226D03*
X1319106Y1553508D03*
X1319553Y1574949D03*
X1313765D03*
X1323394Y1584420D03*
X1317606D03*
X1323394Y1596920D03*
X1317606D03*
X1318994Y1605920D03*
X1313206D03*
X1323894Y1615420D03*
X1318106D03*
X1323894Y1627920D03*
X1318106D03*
X1318894Y1622000D03*
X1313106D03*
X1318994Y1636920D03*
X1313206D03*
X1316557Y1646479D03*
X1322345D03*
X1330106Y22080D03*
X1335894D03*
X1333894Y40508D03*
X1328106D03*
X1335394Y53008D03*
X1329606D03*
X1333106Y71580D03*
X1338894D03*
X1325394D03*
X1333894Y85508D03*
X1328106D03*
X1339606D03*
X1339894Y102008D03*
X1334106D03*
X1328394D03*
X1333894Y115508D03*
X1328106D03*
X1338894Y134008D03*
X1333106D03*
X1327394D03*
X1334394Y147008D03*
X1328606D03*
X1334606Y164492D03*
X1334394Y177508D03*
X1328606D03*
X1328894Y164508D03*
X1337106Y187008D03*
X1328394D03*
X1334606Y195992D03*
X1335606Y209008D03*
X1328394Y196008D03*
X1328894Y209008D03*
X1328106Y225492D03*
X1333894D03*
X1328606Y239492D03*
X1334394D03*
X1335832Y603008D03*
X1330044D03*
X1324820D03*
X1336394Y611008D03*
X1330606D03*
Y623580D03*
X1336394D03*
X1334894Y642008D03*
X1329106D03*
X1330606Y654580D03*
X1336394D03*
X1324469Y654420D03*
X1334606Y663492D03*
X1336894Y673008D03*
X1331106D03*
X1330606Y685580D03*
X1336394D03*
X1324394Y685492D03*
X1330606Y704080D03*
X1336394D03*
X1330606Y716580D03*
X1336394D03*
X1324894Y716492D03*
X1334606Y734492D03*
X1336894Y726008D03*
X1331106D03*
X1324394Y735008D03*
X1330606Y747580D03*
X1336394D03*
X1330606Y766080D03*
X1336394D03*
X1330606Y778580D03*
X1336394D03*
X1330606Y797080D03*
X1336394D03*
X1330606Y809580D03*
X1336394D03*
X1325173Y809567D03*
X1330606Y828080D03*
X1336394D03*
X1330106Y840420D03*
X1335894D03*
Y858920D03*
X1330106D03*
X1334417Y889937D03*
X1328629D03*
X1335324Y902554D03*
X1330065Y902552D03*
X1324277D03*
X1330106Y920920D03*
X1335894D03*
X1327856Y933603D03*
X1333355Y933489D03*
X1339143D03*
X1336106Y952000D03*
X1324106Y951992D03*
X1329894D03*
X1332106Y965500D03*
X1337894D03*
X1326394D03*
X1333606Y981992D03*
X1339394D03*
X1327394Y982008D03*
X1332606Y995492D03*
X1338394D03*
X1326894D03*
X1331606Y1026492D03*
X1337394D03*
X1338894Y1014008D03*
X1333106D03*
X1327894D03*
X1325894Y1026500D03*
X1334894Y1044508D03*
X1329106D03*
X1337606Y1058008D03*
X1331394D03*
X1325606D03*
X1337106Y1067008D03*
X1325106Y1066992D03*
X1330894D03*
X1331206Y1420892D03*
X1336994D03*
X1336094Y1428708D03*
X1330306D03*
X1330106Y1441920D03*
X1335894D03*
X1324394Y1428692D03*
X1335494Y1460508D03*
X1329706D03*
X1330283Y1472916D03*
X1324495D03*
X1335651Y1472908D03*
X1324157Y1460532D03*
X1335006Y1491592D03*
X1330106Y1503920D03*
X1335894D03*
X1329714Y1491584D03*
X1337194Y1522608D03*
X1331406D03*
X1325994D03*
X1330806Y1534592D03*
X1336594D03*
X1325294Y1534608D03*
X1336094Y1553408D03*
X1330306D03*
X1324544Y1543226D03*
X1324894Y1553508D03*
X1336106Y1565708D03*
X1334594Y1584408D03*
X1328806D03*
X1330106Y1596920D03*
X1335894D03*
X1335026Y1615415D03*
X1329238D03*
X1330106Y1627920D03*
X1335894D03*
X1339438Y1646525D03*
X1333769Y1646468D03*
X1327981D03*
X1353606Y21992D03*
X1342106D03*
X1347894D03*
X1354606Y40492D03*
X1346894Y40508D03*
X1341106D03*
X1352606Y52992D03*
X1341106D03*
X1346894D03*
X1345106Y71492D03*
X1350894D03*
X1351106Y85492D03*
X1345394Y85508D03*
X1345606Y101992D03*
X1351394D03*
X1352106Y115492D03*
X1340106D03*
X1345894D03*
X1344606Y133992D03*
X1350394D03*
X1353606Y146992D03*
X1341606D03*
X1347394D03*
X1353394Y164508D03*
X1347606D03*
X1352606Y177492D03*
X1340394Y164492D03*
X1341106Y177492D03*
X1346894D03*
X1342894Y187008D03*
X1346606Y195992D03*
X1352394D03*
X1353394Y209008D03*
X1347606D03*
X1340394Y195992D03*
X1341394Y209008D03*
X1354106Y225492D03*
X1341106D03*
X1346894D03*
X1353606Y239508D03*
X1340606Y239492D03*
X1346394D03*
X1353044Y602992D03*
X1341685Y603001D03*
X1347473D03*
X1354106Y610992D03*
X1353606Y623508D03*
X1342106Y610992D03*
X1347894D03*
X1342106Y623492D03*
X1347894D03*
X1355606Y641992D03*
X1348394Y642008D03*
X1342606D03*
X1353606Y654492D03*
X1342106D03*
X1347894D03*
X1355606Y672992D03*
X1340394Y663492D03*
X1343106Y672992D03*
X1348894D03*
X1353894Y685580D03*
X1348106D03*
X1355106Y703992D03*
X1343606D03*
X1349394D03*
X1353606Y716492D03*
X1342106D03*
X1347894D03*
X1344606Y725992D03*
X1350394D03*
X1340394Y734492D03*
X1353606Y747492D03*
X1342106D03*
X1347894D03*
X1355106Y765992D03*
X1342106D03*
X1347894D03*
X1353894Y778580D03*
X1348106D03*
X1353894Y797080D03*
X1348106D03*
X1353894Y809580D03*
X1348106D03*
X1351562Y828116D03*
X1345774D03*
X1353394Y840420D03*
X1347606D03*
X1353394Y858920D03*
X1347606D03*
X1353394Y871420D03*
X1347606D03*
X1355155Y889864D03*
X1347887Y889859D03*
X1342099D03*
X1353894Y903500D03*
X1348106D03*
X1352894Y911500D03*
X1347106D03*
X1341112Y902554D03*
X1353394Y920920D03*
X1347606D03*
X1353394Y933420D03*
X1347606D03*
X1353394Y951920D03*
X1347606D03*
X1341894Y952000D03*
X1353394Y965508D03*
X1347606D03*
X1345106Y981992D03*
X1350894D03*
X1353394Y995420D03*
X1347606D03*
X1344606Y1013992D03*
X1350394D03*
X1343106Y1026492D03*
X1348894D03*
X1353106Y1044508D03*
X1349106Y1057992D03*
X1354894D03*
X1346894Y1044508D03*
X1341106D03*
X1343394Y1058008D03*
X1354394Y1067008D03*
X1348606D03*
X1342894D03*
X1353394Y1421000D03*
X1347606D03*
X1353806Y1428692D03*
X1352806Y1441892D03*
X1347594Y1428708D03*
X1341806D03*
X1341306Y1441892D03*
X1347094D03*
X1354006Y1460508D03*
X1352539Y1472908D03*
X1346751D03*
X1347394Y1460408D03*
X1341606D03*
X1341439Y1472908D03*
X1346206Y1491592D03*
X1351994D03*
X1352606Y1503892D03*
X1340794Y1491592D03*
X1341406Y1503892D03*
X1347194D03*
X1353706Y1522592D03*
X1342606D03*
X1348394D03*
X1353006Y1534592D03*
X1341906D03*
X1347694D03*
X1353606Y1553592D03*
X1348194Y1553608D03*
X1342406D03*
X1353394Y1565920D03*
X1347606D03*
X1341894Y1565708D03*
X1351206Y1584408D03*
X1345794D03*
X1340006D03*
X1352506Y1596892D03*
X1341306D03*
X1347094D03*
X1351806Y1615408D03*
X1346294D03*
X1340506D03*
X1352770Y1627930D03*
X1341583D03*
X1347371D03*
X1350772Y1646510D03*
X1345226Y1646525D03*
X1371394Y22008D03*
X1365606D03*
X1359394Y21992D03*
X1367606Y40580D03*
X1360394Y40492D03*
X1369894Y53080D03*
X1364106D03*
X1358394Y52992D03*
X1368106Y71508D03*
X1356606Y71492D03*
X1362394D03*
X1369394Y85508D03*
X1363606D03*
X1356894Y85492D03*
X1369106Y102008D03*
X1357106Y101992D03*
X1362894D03*
X1369894Y115508D03*
X1364106D03*
X1357894Y115492D03*
X1367606Y134008D03*
X1356106Y133992D03*
X1361894D03*
X1370894Y147008D03*
X1365106D03*
X1359394Y146992D03*
X1371606Y164508D03*
X1365394D03*
X1359606D03*
X1370894Y177508D03*
X1365106D03*
X1358394Y177492D03*
X1370106Y196008D03*
X1365394Y209008D03*
X1359606D03*
X1364394Y196008D03*
X1358606D03*
X1367106Y225508D03*
X1359894Y225492D03*
X1371894Y239508D03*
X1366106D03*
X1359394D03*
X1370332Y602008D03*
X1364544D03*
X1358832Y602992D03*
X1368106Y611080D03*
X1371394Y623508D03*
X1365606D03*
X1359894Y610992D03*
X1359394Y623508D03*
X1368106Y642080D03*
X1361394Y641992D03*
X1370894Y654508D03*
X1365106D03*
X1359394Y654492D03*
X1368106Y673080D03*
X1361394Y672992D03*
X1370394Y685580D03*
X1364606D03*
X1368106Y704080D03*
X1360894Y703992D03*
X1370894Y716508D03*
X1365106D03*
X1359394Y716492D03*
X1366394Y726008D03*
X1360606D03*
X1368106Y735080D03*
X1370894Y747508D03*
X1365106D03*
X1359394Y747492D03*
X1368106Y766080D03*
X1360894Y765992D03*
X1370394Y778580D03*
X1364606D03*
X1368106Y797080D03*
X1370394Y809580D03*
X1364606D03*
X1368106Y828080D03*
X1356841Y828091D03*
X1362629D03*
X1369894Y840420D03*
X1364106D03*
X1367606Y858920D03*
X1369894Y871420D03*
X1364106D03*
X1367606Y889920D03*
X1360943Y889864D03*
X1369894Y902420D03*
X1364106D03*
X1367606Y920920D03*
X1370096Y943167D03*
X1364308D03*
X1364894Y933508D03*
X1359106D03*
X1366330Y953352D03*
X1369894Y965508D03*
X1364106D03*
X1356106Y1013992D03*
X1361894D03*
X1356106Y1026492D03*
X1361894D03*
X1370894Y1044508D03*
X1365106D03*
X1367894Y1058008D03*
X1362106D03*
X1358894Y1044508D03*
X1367394Y1067008D03*
X1361606D03*
X1367984Y1420840D03*
X1362196D03*
X1367606Y1429420D03*
X1371890Y1442094D03*
X1366102D03*
X1359594Y1428692D03*
X1358594Y1441892D03*
X1367606Y1460420D03*
X1363649Y1472920D03*
X1357861D03*
X1359794Y1460508D03*
X1368706Y1491708D03*
X1369894Y1503920D03*
X1364106D03*
X1357306Y1491592D03*
X1363094D03*
X1358394Y1503892D03*
X1359494Y1522592D03*
X1364718Y1522608D03*
X1370506D03*
X1369894Y1534920D03*
X1364106D03*
X1358794Y1534592D03*
X1367606Y1553420D03*
X1359394Y1553592D03*
X1369894Y1565920D03*
X1364106D03*
X1368294Y1584408D03*
X1362506D03*
X1356994D03*
X1369794Y1596908D03*
X1364006D03*
X1358294Y1596892D03*
X1363006Y1615392D03*
X1368794D03*
X1357594Y1615408D03*
X1369721Y1627946D03*
X1363933D03*
X1358558Y1627930D03*
X1367708Y1646498D03*
X1361920D03*
X1356560Y1646510D03*
X1373394Y40580D03*
X1373894Y71508D03*
X1374894Y102008D03*
X1373394Y134008D03*
X1377394Y164508D03*
X1375894Y196008D03*
X1372894Y225508D03*
X1373894Y611080D03*
Y642080D03*
Y673080D03*
Y704080D03*
Y735080D03*
Y766080D03*
Y797080D03*
Y828080D03*
X1381195Y840427D03*
X1375407D03*
X1373394Y858920D03*
Y889920D03*
Y920920D03*
X1372118Y953352D03*
X1373394Y1429420D03*
Y1460420D03*
X1374494Y1491708D03*
X1373394Y1553420D03*
X1655816Y1593964D03*
Y1598964D03*
X1674457Y823503D03*
X1674454Y828501D03*
X1661604Y1593964D03*
Y1598964D03*
X1680245Y823503D03*
X1680242Y828501D03*
G54D1802*
X1282917Y405508D03*
Y444508D03*
Y1224000D03*
Y1263000D03*
X1296083Y405508D03*
Y444508D03*
Y1224000D03*
Y1263000D03*
X1634917Y310400D03*
Y342900D03*
Y375400D03*
Y407900D03*
Y440400D03*
Y472900D03*
Y505400D03*
Y1144300D03*
Y1176800D03*
Y1209300D03*
Y1241800D03*
Y1274300D03*
Y1306800D03*
Y1339300D03*
X1648083Y310400D03*
Y342900D03*
Y375400D03*
Y407900D03*
Y440400D03*
Y472900D03*
Y505400D03*
Y1144300D03*
Y1176800D03*
Y1209300D03*
Y1241800D03*
Y1274300D03*
Y1306800D03*
Y1339300D03*
X1714917Y89900D03*
X1714417Y122900D03*
Y155900D03*
Y188800D03*
Y221900D03*
X1715417Y1394000D03*
Y1427300D03*
Y1460300D03*
Y1493400D03*
X1715893Y1526407D03*
X1728083Y89900D03*
X1727583Y122900D03*
Y155900D03*
Y188800D03*
Y221900D03*
X1732923Y279061D03*
X1726917Y594400D03*
X1740083D03*
X1726917Y627400D03*
X1740083D03*
X1726917Y660400D03*
X1740083D03*
X1726917Y693400D03*
X1740083D03*
X1726917Y726400D03*
X1740083D03*
X1726917Y888400D03*
X1740083D03*
X1726917Y921400D03*
X1740083D03*
X1726917Y954400D03*
X1740083D03*
X1726917Y987400D03*
X1740083D03*
X1726917Y1020400D03*
X1740083D03*
X1727164Y1053181D03*
X1740330D03*
X1728583Y1394000D03*
Y1427300D03*
Y1460300D03*
Y1493400D03*
X1729059Y1526407D03*
X1746089Y279061D03*
G54D1682*
X512246Y562200D03*
X512346Y618800D03*
X537954Y562200D03*
X538054Y618800D03*
X668646Y1033500D03*
Y1053000D03*
Y1072500D03*
Y1092000D03*
X694354Y1033500D03*
Y1053000D03*
Y1072500D03*
Y1092000D03*
X895146Y330541D03*
X908146Y1344500D03*
X920854Y330541D03*
X933854Y1344500D03*
X1589146Y303000D03*
X1590146Y322500D03*
Y342000D03*
Y361500D03*
Y381000D03*
Y400500D03*
Y420000D03*
Y439500D03*
Y459000D03*
Y478500D03*
Y498000D03*
Y517500D03*
X1591146Y1142000D03*
Y1161500D03*
Y1181000D03*
Y1200500D03*
Y1220000D03*
Y1239500D03*
Y1259000D03*
Y1278500D03*
Y1298000D03*
Y1317500D03*
Y1337000D03*
Y1356500D03*
X1614854Y303000D03*
X1615854Y322500D03*
Y342000D03*
Y361500D03*
Y381000D03*
Y400500D03*
Y420000D03*
Y439500D03*
Y459000D03*
Y478500D03*
Y498000D03*
Y517500D03*
X1616854Y1142000D03*
Y1161500D03*
Y1181000D03*
Y1200500D03*
Y1220000D03*
Y1239500D03*
Y1259000D03*
Y1278500D03*
Y1298000D03*
Y1317500D03*
Y1337000D03*
Y1356500D03*
X1672646Y87500D03*
Y107000D03*
Y131000D03*
Y150500D03*
Y170000D03*
Y189500D03*
Y209000D03*
Y228500D03*
X1674146Y1383500D03*
Y1403000D03*
Y1422500D03*
Y1442000D03*
Y1461500D03*
Y1481000D03*
Y1500500D03*
X1673646Y1524500D03*
Y1544000D03*
X1691152Y276161D03*
Y295661D03*
X1685146Y584500D03*
Y604000D03*
Y623500D03*
Y643000D03*
Y662500D03*
Y682000D03*
Y701500D03*
Y724500D03*
Y744000D03*
Y890500D03*
Y910000D03*
Y929500D03*
Y949000D03*
Y968500D03*
Y988000D03*
Y1007500D03*
Y1027000D03*
Y1051000D03*
Y1070500D03*
X1698354Y87500D03*
Y107000D03*
Y131000D03*
Y150500D03*
Y170000D03*
Y189500D03*
Y209000D03*
Y228500D03*
X1710854Y584500D03*
Y604000D03*
Y623500D03*
Y643000D03*
Y662500D03*
Y682000D03*
Y701500D03*
Y724500D03*
Y744000D03*
Y890500D03*
Y910000D03*
Y929500D03*
Y949000D03*
Y968500D03*
Y988000D03*
Y1007500D03*
Y1027000D03*
Y1051000D03*
Y1070500D03*
X1699854Y1383500D03*
Y1403000D03*
Y1422500D03*
Y1442000D03*
Y1461500D03*
Y1481000D03*
Y1500500D03*
X1699354Y1524500D03*
Y1544000D03*
X1716860Y276161D03*
Y295661D03*
G54D1826*
X1657206Y1608489D03*
X1672332Y793500D03*
X1670832Y838000D03*
X1669542Y1608489D03*
X1684668Y793500D03*
X1683168Y838000D03*
G54D1768*
X561835Y1195890D03*
X569315D03*
X565575Y1204086D03*
X1619380Y591370D03*
X1626860D03*
X1623120Y599566D03*
X1636777Y591204D03*
X1644257D03*
X1640517Y599400D03*
X1651227Y591074D03*
X1658707D03*
X1654967Y599270D03*
G54D452*
X176500Y519000D03*
Y521000D03*
Y540000D03*
Y538000D03*
X186500Y554500D03*
Y556500D03*
G54D1846*
X178308Y1181333D03*
X172008D03*
Y1189995D03*
X178308D03*
G54D1763*
X602908Y1232084D03*
X593969Y1232144D03*
X598476Y1232152D03*
X589500Y1225364D03*
Y1221714D03*
X602908Y1235734D03*
X593969Y1235794D03*
X598476Y1235802D03*
X616284Y1232175D03*
X607500D03*
X612003Y1232176D03*
X616284Y1235825D03*
X607500D03*
X612003Y1235826D03*
X633606Y1232175D03*
X624950Y1232112D03*
X620706Y1232203D03*
X633606Y1235825D03*
X624950Y1235762D03*
X620706Y1235853D03*
X731936Y795247D03*
Y791597D03*
G54D1819*
X661894Y712041D03*
X653354D03*
X1546055Y31344D03*
X1548730Y101500D03*
X1547230Y132500D03*
X1547324Y145806D03*
X1547230Y164500D03*
X1545230Y188000D03*
X1548230Y207500D03*
X1547730Y251000D03*
X1545415Y599904D03*
X1545136Y643062D03*
Y673197D03*
X1548230Y705500D03*
X1547730Y724000D03*
X1548230Y766000D03*
Y784500D03*
X1549031Y841515D03*
X1548998Y857988D03*
X1547740Y962934D03*
X1547650Y985719D03*
X1548022Y1024971D03*
X1548859Y1045713D03*
X1546619Y1429686D03*
X1547230Y1461000D03*
X1546619Y1474719D03*
X1546730Y1491500D03*
X1546370Y1538505D03*
X1546250Y1562670D03*
X1548656Y1604739D03*
X1554595Y31344D03*
X1557270Y101500D03*
X1555770Y132500D03*
X1555864Y145806D03*
X1555770Y164500D03*
X1553770Y188000D03*
X1556770Y207500D03*
X1556270Y251000D03*
X1553955Y599904D03*
X1553676Y643062D03*
Y673197D03*
X1556770Y705500D03*
X1556270Y724000D03*
X1556770Y766000D03*
Y784500D03*
X1549334Y827067D03*
X1557874D03*
X1557571Y841515D03*
X1557538Y857988D03*
X1550730Y926000D03*
X1559270D03*
X1556280Y962934D03*
X1556190Y985719D03*
X1556562Y1024971D03*
X1557399Y1045713D03*
X1552021Y1086732D03*
X1560561D03*
X1555159Y1429686D03*
X1555770Y1461000D03*
X1555159Y1474719D03*
X1555270Y1491500D03*
X1554910Y1538505D03*
X1554790Y1562670D03*
X1557196Y1604739D03*
X1558148Y1659210D03*
X1566688D03*
X1637230Y301500D03*
X1636318Y334038D03*
X1644858D03*
X1636315Y366237D03*
X1644855D03*
X1636567Y399200D03*
X1645107D03*
X1636315Y431571D03*
X1644855D03*
X1636222Y464042D03*
X1644762D03*
X1636822Y496569D03*
X1645362D03*
X1637730Y1135500D03*
X1637359Y1168150D03*
X1637566Y1200644D03*
X1637730Y1233000D03*
X1636636Y1265664D03*
X1645176D03*
X1636669Y1298154D03*
X1645209D03*
X1637635Y1330659D03*
X1645770Y301500D03*
X1646270Y1135500D03*
X1645899Y1168150D03*
X1646106Y1200644D03*
X1646270Y1233000D03*
X1646175Y1330659D03*
X1717230Y81000D03*
Y114100D03*
Y147000D03*
Y180100D03*
Y213100D03*
X1717960Y1385000D03*
X1718230Y1418600D03*
Y1451600D03*
Y1484700D03*
X1718898Y1517754D03*
X1725770Y81000D03*
Y114100D03*
Y147000D03*
Y180100D03*
Y213100D03*
X1735736Y270361D03*
X1729730Y585500D03*
X1738270D03*
X1729730Y618500D03*
X1738270D03*
X1729730Y651500D03*
X1738270D03*
X1729730Y684500D03*
X1738270D03*
X1729730Y717700D03*
X1738270D03*
X1729730Y879500D03*
X1738270D03*
X1729730Y912500D03*
X1738270D03*
X1729730Y945500D03*
X1738270D03*
X1729730Y978500D03*
X1738270D03*
X1729730Y1011600D03*
X1738270D03*
X1729730Y1044500D03*
X1738270D03*
X1726500Y1385000D03*
X1726770Y1418600D03*
Y1451600D03*
Y1484700D03*
X1727438Y1517754D03*
X1744276Y270361D03*
M02*
