G04 CAM350/DFMSTREAM V14.6 (Build 1876) Date:  Thu Oct 30 16:12:41 2025 *
G04 Database: (Untitled) *
G04 Layer 4: PASTEMASKBOT.art *
%FSLAX55Y55*%
%MOIN*%
%SFA1.000B1.000*%

%MIA0B0*%
%IPPOS*%
%AMMACRO17*
4,1,40,-0.0050000,0.0070000,-0.0051740,0.0069850,-0.0053420,0.0069400,-0.0055000,0.0068660,-0.0056430,0.0067660,-0.0057660,0.0066430,-0.0058660,0.0065000,-0.0059400,0.0063420,-0.0059850,0.0061740,-0.0060000,0.0060000,-0.0060000,-0.0060000,-0.0059850,-0.0061740,-0.0059400,-0.0063420,-0.0058660,-0.0065000,-0.0057660,-0.0066430,-0.0056430,-0.0067660,-0.0055000,-0.0068660,-0.0053420,-0.0069400,-0.0051740,-0.0069850,-0.0050000,-0.0070000,0.0050000,-0.0070000,0.0051740,-0.0069850,0.0053420,-0.0069400,0.0055000,-0.0068660,0.0056430,-0.0067660,0.0057660,-0.0066430,0.0058660,-0.0065000,0.0059400,-0.0063420,0.0059850,-0.0061740,0.0060000,-0.0060000,0.0060000,0.0060000,0.0059850,0.0061740,0.0059400,0.0063420,0.0058660,0.0065000,0.0057660,0.0066430,0.0056430,0.0067660,0.0055000,0.0068660,0.0053420,0.0069400,0.0051740,0.0069850,0.0050000,0.0070000,-0.0050000,0.0070000,0.0000000*
%
%AMMACRO16*
4,1,40,-0.0070000,-0.0050000,-0.0069850,-0.0051740,-0.0069400,-0.0053420,-0.0068660,-0.0055000,-0.0067660,-0.0056430,-0.0066430,-0.0057660,-0.0065000,-0.0058660,-0.0063420,-0.0059400,-0.0061740,-0.0059850,-0.0060000,-0.0060000,0.0060000,-0.0060000,0.0061740,-0.0059850,0.0063420,-0.0059400,0.0065000,-0.0058660,0.0066430,-0.0057660,0.0067660,-0.0056430,0.0068660,-0.0055000,0.0069400,-0.0053420,0.0069850,-0.0051740,0.0070000,-0.0050000,0.0070000,0.0050000,0.0069850,0.0051740,0.0069400,0.0053420,0.0068660,0.0055000,0.0067660,0.0056430,0.0066430,0.0057660,0.0065000,0.0058660,0.0063420,0.0059400,0.0061740,0.0059850,0.0060000,0.0060000,-0.0060000,0.0060000,-0.0061740,0.0059850,-0.0063420,0.0059400,-0.0065000,0.0058660,-0.0066430,0.0057660,-0.0067660,0.0056430,-0.0068660,0.0055000,-0.0069400,0.0053420,-0.0069850,0.0051740,-0.0070000,0.0050000,-0.0070000,-0.0050000,0.0000000*
%
%AMMACRO19*
4,1,40,0.0175000,-0.0110000,0.0174390,-0.0116950,0.0172590,-0.0123680,0.0169640,-0.0130000,0.0165640,-0.0135710,0.0160710,-0.0140640,0.0155000,-0.0144640,0.0148680,-0.0147590,0.0141950,-0.0149390,0.0135000,-0.0150000,-0.0135000,-0.0150000,-0.0141950,-0.0149390,-0.0148680,-0.0147590,-0.0155000,-0.0144640,-0.0160710,-0.0140640,-0.0165640,-0.0135710,-0.0169640,-0.0130000,-0.0172590,-0.0123680,-0.0174390,-0.0116950,-0.0175000,-0.0110000,-0.0175000,0.0110000,-0.0174390,0.0116950,-0.0172590,0.0123680,-0.0169640,0.0130000,-0.0165640,0.0135710,-0.0160710,0.0140640,-0.0155000,0.0144640,-0.0148680,0.0147590,-0.0141950,0.0149390,-0.0135000,0.0150000,0.0135000,0.0150000,0.0141950,0.0149390,0.0148680,0.0147590,0.0155000,0.0144640,0.0160710,0.0140640,0.0165640,0.0135710,0.0169640,0.0130000,0.0172590,0.0123680,0.0174390,0.0116950,0.0175000,0.0110000,0.0175000,-0.0110000,0.0000000*
%
%AMMACRO14*
4,1,40,-0.0110000,-0.0175000,-0.0116950,-0.0174390,-0.0123680,-0.0172590,-0.0130000,-0.0169640,-0.0135710,-0.0165640,-0.0140640,-0.0160710,-0.0144640,-0.0155000,-0.0147590,-0.0148680,-0.0149390,-0.0141950,-0.0150000,-0.0135000,-0.0150000,0.0135000,-0.0149390,0.0141950,-0.0147590,0.0148680,-0.0144640,0.0155000,-0.0140640,0.0160710,-0.0135710,0.0165640,-0.0130000,0.0169640,-0.0123680,0.0172590,-0.0116950,0.0174390,-0.0110000,0.0175000,0.0110000,0.0175000,0.0116950,0.0174390,0.0123680,0.0172590,0.0130000,0.0169640,0.0135710,0.0165640,0.0140640,0.0160710,0.0144640,0.0155000,0.0147590,0.0148680,0.0149390,0.0141950,0.0150000,0.0135000,0.0150000,-0.0135000,0.0149390,-0.0141950,0.0147590,-0.0148680,0.0144640,-0.0155000,0.0140640,-0.0160710,0.0135710,-0.0165640,0.0130000,-0.0169640,0.0123680,-0.0172590,0.0116950,-0.0174390,0.0110000,-0.0175000,-0.0110000,-0.0175000,0.0000000*
%
%AMMACRO20*
4,1,40,0.0150100,-0.0270100,-0.0150100,-0.0270100,-0.0153580,-0.0269790,-0.0156950,-0.0268890,-0.0160110,-0.0267410,-0.0162960,-0.0265400,-0.0165430,-0.0262930,-0.0167430,-0.0260070,-0.0168900,-0.0256910,-0.0169800,-0.0253540,-0.0170100,-0.0250100,-0.0170100,0.0250100,-0.0169790,0.0253580,-0.0168890,0.0256950,-0.0167410,0.0260110,-0.0165400,0.0262960,-0.0162930,0.0265430,-0.0160070,0.0267430,-0.0156910,0.0268900,-0.0153540,0.0269800,-0.0150100,0.0270100,0.0150100,0.0270100,0.0153580,0.0269790,0.0156950,0.0268890,0.0160110,0.0267410,0.0162960,0.0265400,0.0165430,0.0262930,0.0167430,0.0260070,0.0168900,0.0256910,0.0169800,0.0253540,0.0170100,0.0250100,0.0170100,-0.0250100,0.0169790,-0.0253580,0.0168890,-0.0256950,0.0167410,-0.0260110,0.0165400,-0.0262960,0.0162930,-0.0265430,0.0160070,-0.0267430,0.0156910,-0.0268900,0.0153540,-0.0269800,0.0150100,-0.0270100,0.0000000*
%
%AMMACRO26*
4,1,40,0.0070000,0.0050000,0.0069850,0.0051740,0.0069400,0.0053420,0.0068660,0.0055000,0.0067660,0.0056430,0.0066430,0.0057660,0.0065000,0.0058660,0.0063420,0.0059400,0.0061740,0.0059850,0.0060000,0.0060000,-0.0060000,0.0060000,-0.0061740,0.0059850,-0.0063420,0.0059400,-0.0065000,0.0058660,-0.0066430,0.0057660,-0.0067660,0.0056430,-0.0068660,0.0055000,-0.0069400,0.0053420,-0.0069850,0.0051740,-0.0070000,0.0050000,-0.0070000,-0.0050000,-0.0069850,-0.0051740,-0.0069400,-0.0053420,-0.0068660,-0.0055000,-0.0067660,-0.0056430,-0.0066430,-0.0057660,-0.0065000,-0.0058660,-0.0063420,-0.0059400,-0.0061740,-0.0059850,-0.0060000,-0.0060000,0.0060000,-0.0060000,0.0061740,-0.0059850,0.0063420,-0.0059400,0.0065000,-0.0058660,0.0066430,-0.0057660,0.0067660,-0.0056430,0.0068660,-0.0055000,0.0069400,-0.0053420,0.0069850,-0.0051740,0.0070000,-0.0050000,0.0070000,0.0050000,0.0000000*
%
%AMMACRO15*
4,1,40,0.0050000,-0.0070000,0.0051740,-0.0069850,0.0053420,-0.0069400,0.0055000,-0.0068660,0.0056430,-0.0067660,0.0057660,-0.0066430,0.0058660,-0.0065000,0.0059400,-0.0063420,0.0059850,-0.0061740,0.0060000,-0.0060000,0.0060000,0.0060000,0.0059850,0.0061740,0.0059400,0.0063420,0.0058660,0.0065000,0.0057660,0.0066430,0.0056430,0.0067660,0.0055000,0.0068660,0.0053420,0.0069400,0.0051740,0.0069850,0.0050000,0.0070000,-0.0050000,0.0070000,-0.0051740,0.0069850,-0.0053420,0.0069400,-0.0055000,0.0068660,-0.0056430,0.0067660,-0.0057660,0.0066430,-0.0058660,0.0065000,-0.0059400,0.0063420,-0.0059850,0.0061740,-0.0060000,0.0060000,-0.0060000,-0.0060000,-0.0059850,-0.0061740,-0.0059400,-0.0063420,-0.0058660,-0.0065000,-0.0057660,-0.0066430,-0.0056430,-0.0067660,-0.0055000,-0.0068660,-0.0053420,-0.0069400,-0.0051740,-0.0069850,-0.0050000,-0.0070000,0.0050000,-0.0070000,0.0000000*
%
%AMMACRO21*
4,1,40,0.0110000,0.0175000,0.0116950,0.0174390,0.0123680,0.0172590,0.0130000,0.0169640,0.0135710,0.0165640,0.0140640,0.0160710,0.0144640,0.0155000,0.0147590,0.0148680,0.0149390,0.0141950,0.0150000,0.0135000,0.0150000,-0.0135000,0.0149390,-0.0141950,0.0147590,-0.0148680,0.0144640,-0.0155000,0.0140640,-0.0160710,0.0135710,-0.0165640,0.0130000,-0.0169640,0.0123680,-0.0172590,0.0116950,-0.0174390,0.0110000,-0.0175000,-0.0110000,-0.0175000,-0.0116950,-0.0174390,-0.0123680,-0.0172590,-0.0130000,-0.0169640,-0.0135710,-0.0165640,-0.0140640,-0.0160710,-0.0144640,-0.0155000,-0.0147590,-0.0148680,-0.0149390,-0.0141950,-0.0150000,-0.0135000,-0.0150000,0.0135000,-0.0149390,0.0141950,-0.0147590,0.0148680,-0.0144640,0.0155000,-0.0140640,0.0160710,-0.0135710,0.0165640,-0.0130000,0.0169640,-0.0123680,0.0172590,-0.0116950,0.0174390,-0.0110000,0.0175000,0.0110000,0.0175000,0.0000000*
%
%AMMACRO18*
4,1,40,-0.0175000,0.0110000,-0.0174390,0.0116950,-0.0172590,0.0123680,-0.0169640,0.0130000,-0.0165640,0.0135710,-0.0160710,0.0140640,-0.0155000,0.0144640,-0.0148680,0.0147590,-0.0141950,0.0149390,-0.0135000,0.0150000,0.0135000,0.0150000,0.0141950,0.0149390,0.0148680,0.0147590,0.0155000,0.0144640,0.0160710,0.0140640,0.0165640,0.0135710,0.0169640,0.0130000,0.0172590,0.0123680,0.0174390,0.0116950,0.0175000,0.0110000,0.0175000,-0.0110000,0.0174390,-0.0116950,0.0172590,-0.0123680,0.0169640,-0.0130000,0.0165640,-0.0135710,0.0160710,-0.0140640,0.0155000,-0.0144640,0.0148680,-0.0147590,0.0141950,-0.0149390,0.0135000,-0.0150000,-0.0135000,-0.0150000,-0.0141950,-0.0149390,-0.0148680,-0.0147590,-0.0155000,-0.0144640,-0.0160710,-0.0140640,-0.0165640,-0.0135710,-0.0169640,-0.0130000,-0.0172590,-0.0123680,-0.0174390,-0.0116950,-0.0175000,-0.0110000,-0.0175000,0.0110000,0.0000000*
%
%ADD11C,0.00500*%
%ADD70R,0.11000X0.08200*%
%ADD71O,0.03000X0.00900*%
%ADD72O,0.03400X0.00900*%
%ADD73MACRO17*%
%ADD30O,0.00900X0.03000*%
%ADD31O,0.00900X0.03400*%
%ADD32MACRO16*%
%ADD33MACRO19*%
%ADD34MACRO14*%
%ADD35MACRO20*%
%ADD36R,0.02000X0.02500*%
%ADD37R,0.02500X0.02000*%
%ADD38O,0.04400X0.08000*%
%ADD39R,0.01600X0.02400*%
%ADD40R,0.04000X0.04700*%
%ADD41R,0.02500X0.08000*%
%ADD42C,0.04000*%
%ADD43O,0.09100X0.07500*%
%ADD44C,0.02300*%
%ADD45C,0.03200*%
%ADD46O,0.07500X0.09100*%
%ADD47O,0.04400X0.08700*%
%ADD48C,0.01800*%
%ADD49MACRO26*%
%ADD50MACRO15*%
%ADD51R,0.09500X0.09500*%
%ADD52R,0.01378X0.02362*%
%ADD53MACRO21*%
%ADD54MACRO18*%
%ADD55O,0.04000X0.10300*%
%LNPASTEMASKBOT.art*%
%LPD*%
G54D42*
X-908500Y108000D03*
X-884000Y-808000D03*
X-454988Y-811850D03*
X-464437D03*
X-466012Y-778150D03*
X-456563D03*
X-25000Y-797000D03*
X-17500Y18000D03*
G54D45*
X-889553Y-516870D03*
X-889348Y-523577D03*
X-887317Y-526847D03*
X-881858Y-529873D03*
X-877781Y-529793D03*
X-872340Y-526540D03*
X-870479Y-523165D03*
X-870365Y-517058D03*
X-872225Y-513703D03*
X-877559Y-510280D03*
X-881609Y-510132D03*
X-887671Y-513526D03*
X-809553Y93130D03*
X-809348Y86423D03*
X-807317Y83153D03*
X-801858Y80127D03*
X-797781Y80207D03*
X-792340Y83460D03*
X-790479Y86835D03*
X-792225Y96297D03*
X-797559Y99720D03*
X-801609Y99868D03*
X-807671Y96474D03*
X-790365Y92942D03*
X-627671Y-798526D03*
X-621609Y-795132D03*
X-617559Y-795280D03*
X-612225Y-798703D03*
X-629348Y-808577D03*
X-629553Y-801870D03*
Y-516870D03*
X-629348Y-523577D03*
X-627317Y-526847D03*
X-621858Y-529873D03*
X-617781Y-529793D03*
X-612340Y-526540D03*
X-612225Y-513703D03*
X-617559Y-510280D03*
X-621609Y-510132D03*
X-627671Y-513526D03*
X-629553Y93130D03*
X-629348Y86423D03*
X-627317Y83153D03*
X-621858Y80127D03*
X-617781Y80207D03*
X-612340Y83460D03*
X-612225Y96297D03*
X-617559Y99720D03*
X-621609Y99868D03*
X-627671Y96474D03*
X-610365Y-802058D03*
X-610479Y-808165D03*
Y-523165D03*
X-610365Y-517058D03*
X-610479Y86835D03*
X-610365Y92942D03*
X-4610Y-796083D03*
X2290Y-795267D03*
X-9380Y-808526D03*
X-10005Y-804727D03*
X-7628Y-798452D03*
X-6474Y-527671D03*
X-9868Y-521609D03*
X-9720Y-517559D03*
X-6297Y-512225D03*
X-2942Y-510365D03*
X3165Y-510479D03*
X3577Y-529348D03*
X-3130Y-529553D03*
X-6474Y-7671D03*
X-9868Y-1609D03*
X-9720Y2441D03*
X-6297Y7775D03*
X-2942Y9635D03*
X3165Y9521D03*
X3577Y-9348D03*
X-3130Y-9553D03*
G54D35*
X-733300Y-610500D03*
X-740700D03*
G54D53*
X-681500Y43250D03*
Y48750D03*
X-664500Y43250D03*
Y48750D03*
X-659500Y43250D03*
Y48750D03*
X-294000Y-402750D03*
Y-397250D03*
X-240000Y-385250D03*
Y-379750D03*
X-153000Y-10750D03*
Y-16250D03*
X-54000Y-15750D03*
Y-10250D03*
G54D36*
X-801800Y-690800D03*
Y-686800D03*
X-796900D03*
Y-690800D03*
X-805300D03*
Y-686800D03*
X-791100Y-695500D03*
Y-699500D03*
Y-686800D03*
Y-690800D03*
X-806500Y-705400D03*
Y-701400D03*
Y-710000D03*
Y-714000D03*
X-787000Y-675200D03*
Y-679200D03*
X-747600Y-710700D03*
Y-706700D03*
X-748300Y-696700D03*
Y-692700D03*
X-765000Y-695400D03*
Y-699400D03*
X-783700Y-695500D03*
Y-699500D03*
X-787500Y-695500D03*
Y-699500D03*
Y-686800D03*
Y-690800D03*
X-779600Y-699500D03*
Y-695500D03*
X-778400Y-686900D03*
Y-690900D03*
X-773700Y-695500D03*
Y-699500D03*
X-759800Y-699400D03*
Y-695400D03*
X-761200Y-685600D03*
Y-681600D03*
X-773700Y-708300D03*
Y-712300D03*
X-765900Y-708200D03*
Y-712200D03*
X-762300Y-708200D03*
Y-712200D03*
X-751800Y-692700D03*
Y-696700D03*
X-776000Y-668500D03*
Y-664500D03*
X-741000Y-618500D03*
Y-622500D03*
X-749000Y-601000D03*
Y-605000D03*
X-727000Y-600000D03*
Y-604000D03*
X-731000Y-600000D03*
Y-604000D03*
X-318000Y-372000D03*
X-312000D03*
X-336000D03*
X-324000D03*
X-330000D03*
X-318000Y-368000D03*
X-312000D03*
X-336000D03*
X-324000D03*
X-330000D03*
X-303500Y-572000D03*
Y-568000D03*
X-306000Y-372000D03*
Y-368000D03*
X-253380Y-25540D03*
Y-21540D03*
X-285850Y-37260D03*
Y-33260D03*
X-278800Y-37260D03*
Y-33260D03*
X-292860Y-37260D03*
Y-33260D03*
X-272727D03*
Y-37260D03*
X-289360D03*
Y-33260D03*
X-282327Y-37260D03*
Y-33260D03*
X-289600Y4336D03*
Y336D03*
X-267263Y4336D03*
Y336D03*
X-271063Y4336D03*
Y336D03*
X-263763Y4336D03*
Y336D03*
X-254400Y8500D03*
Y4500D03*
X-257900Y8500D03*
Y4500D03*
X-293100Y4336D03*
Y336D03*
X-278800Y4336D03*
Y336D03*
X-275263Y4336D03*
Y336D03*
X-284100Y4336D03*
Y336D03*
X-278300Y9400D03*
Y13400D03*
X-274763Y9400D03*
Y13400D03*
X-284100Y9400D03*
Y13400D03*
X-235500Y-374500D03*
X-240000Y-394500D03*
Y-390500D03*
Y-374500D03*
X-235500Y-370500D03*
X-240000D03*
X-246600Y8500D03*
Y4500D03*
X-241400Y8500D03*
Y4500D03*
X-204600Y-2500D03*
Y-6500D03*
X-201000Y-2500D03*
Y-6500D03*
X-197300D03*
Y-2500D03*
X-173600Y-19500D03*
Y-15500D03*
X-182000Y34000D03*
Y30000D03*
X-43400Y-781500D03*
Y-785500D03*
X-34300Y-781500D03*
Y-785500D03*
X-38000Y-781500D03*
Y-785500D03*
G54D30*
X-289915Y-22196D03*
X-279285D03*
Y-6804D03*
G54D41*
X-678500Y11500D03*
X-673500D03*
Y34500D03*
X-678500D03*
X-668500Y11500D03*
X-663500D03*
Y34500D03*
X-668500D03*
X-199300Y-38800D03*
X-194300D03*
Y-15800D03*
X-199300D03*
X-189300Y-38800D03*
X-184300D03*
Y-15800D03*
X-189300D03*
G54D37*
X-797000Y-583500D03*
X-793000D03*
X-798300Y-592100D03*
X-794300D03*
X-798300Y-595700D03*
X-794300D03*
X-798300Y-602700D03*
X-794300D03*
X-798300Y-599200D03*
X-794300D03*
X-774500Y-653500D03*
X-770500D03*
X-755500Y-619000D03*
X-759500D03*
X-768500Y-618500D03*
X-764500D03*
X-732500Y-630500D03*
X-736500D03*
X-672500Y47000D03*
X-676500D03*
Y43000D03*
X-672500D03*
X-682000Y55000D03*
X-678000D03*
Y63000D03*
X-682000D03*
X-678000Y59000D03*
X-682000D03*
X-341500Y-575500D03*
X-337500D03*
X-327500Y-352500D03*
X-323500D03*
X-314900Y-25600D03*
X-324200Y-19200D03*
X-320200D03*
X-324200Y-13700D03*
X-320200D03*
X-314900D03*
Y-19200D03*
X-324200Y-7100D03*
X-320200D03*
X-314900D03*
X-305000Y-353000D03*
X-309000D03*
X-305000Y-349000D03*
X-309000D03*
X-260977Y-13656D03*
X-264977D03*
X-302300Y-31800D03*
X-298300D03*
X-302300Y-37100D03*
X-298300D03*
X-310900Y-25600D03*
Y-13700D03*
Y-19200D03*
X-302300Y-24900D03*
X-298300D03*
X-302300Y-28400D03*
X-298300D03*
X-302300Y-21350D03*
X-298300D03*
X-302100Y-10530D03*
X-298100D03*
X-310900Y-7100D03*
X-298100Y-2230D03*
X-302100D03*
X-298100Y1270D03*
X-302100D03*
X-192700Y5300D03*
X-188700D03*
X-119000Y31000D03*
X-115000D03*
X-51600Y-769700D03*
X-47600D03*
G54D31*
X-288143Y-21999D03*
X-286372D03*
X-284600D03*
X-282828D03*
X-281057D03*
Y-7001D03*
X-282828D03*
X-284600D03*
X-286372D03*
X-288143D03*
X-289915D03*
G54D51*
X-284600Y-14500D03*
G54D34*
X-733500Y-622250D03*
Y-616750D03*
X-436000Y-103250D03*
Y-108750D03*
X-318000Y-357250D03*
Y-362750D03*
X-312000Y-357250D03*
Y-362750D03*
X-362000Y-108750D03*
Y-103250D03*
X-312000Y-108750D03*
Y-103250D03*
X-262000Y-108750D03*
Y-103250D03*
X-212000Y-108750D03*
Y-103250D03*
X-162000Y-108750D03*
Y-103250D03*
G54D70*
X-671000Y23000D03*
X-191800Y-27300D03*
G54D50*
X-750984Y-651000D03*
X-749016D03*
X-762984Y-635000D03*
X-761016D03*
X-672484Y5000D03*
X-670516D03*
X-397984Y-15500D03*
X-396016D03*
X-397984Y3500D03*
X-396016D03*
X-397984Y-10500D03*
X-396016D03*
X-397984Y-1500D03*
X-396016D03*
X-397984Y-6000D03*
X-396016D03*
X-332984Y-346500D03*
X-331016D03*
X-325484Y-349000D03*
X-323516D03*
X-352184Y-360900D03*
X-350216D03*
X-325484Y-345000D03*
X-323516D03*
X-206584Y-41600D03*
X-204616D03*
X-206584Y-37900D03*
X-204616D03*
G54D46*
X-266543Y-24547D03*
X-209457D03*
G54D39*
X-673469Y55441D03*
X-671500Y50559D03*
X-673469Y64441D03*
X-671500Y59559D03*
X-669531Y55441D03*
Y64441D03*
X-43069Y-772359D03*
X-39131D03*
X-41100Y-777241D03*
X-35369Y-772359D03*
X-31431D03*
X-33400Y-777241D03*
G54D55*
X-435205Y-795000D03*
X-485795D03*
G54D52*
X-293120Y9500D03*
X-295680D03*
X-290480D03*
X-287920D03*
G54D32*
X-754900Y-622216D03*
Y-624184D03*
X-752500Y-626516D03*
Y-628484D03*
X-749500Y-624016D03*
Y-625984D03*
X-655500Y46484D03*
Y44516D03*
X-668500Y44984D03*
Y43016D03*
X-422000Y-23016D03*
Y-24984D03*
X-404500Y-23016D03*
Y-24984D03*
X-406000Y9984D03*
Y8016D03*
X-156500Y9984D03*
Y8016D03*
X-153500Y9984D03*
Y8016D03*
X-190700Y-3116D03*
Y-5084D03*
X-58000Y14984D03*
Y13016D03*
X-55000Y14984D03*
Y13016D03*
G54D49*
X-414000Y-24984D03*
Y-23016D03*
X-420500Y8016D03*
Y9984D03*
X-425000Y8016D03*
Y9984D03*
X-411000Y8016D03*
Y9984D03*
X-415500Y8016D03*
Y9984D03*
X-345500Y-364984D03*
Y-363016D03*
X-161500Y-17484D03*
Y-15516D03*
X-178100Y-18884D03*
Y-16916D03*
X-163800Y-11484D03*
Y-9516D03*
X-62500Y-16484D03*
Y-14516D03*
X-65000Y-11984D03*
Y-10016D03*
G54D38*
X-309170Y101879D03*
X-272950D03*
G54D73*
X-734016Y-638500D03*
X-735984D03*
X-734016Y-643000D03*
X-735984D03*
X-756516Y-609500D03*
X-758484D03*
X-780984Y-600500D03*
X-779016D03*
X-723316Y-608200D03*
X-725284D03*
X-723316Y-610900D03*
X-725284D03*
X-665016Y5000D03*
X-666984D03*
X-611984Y29000D03*
X-610016D03*
X-431984Y-17000D03*
Y-4500D03*
Y-12000D03*
Y-7500D03*
X-430016Y-17000D03*
Y-4500D03*
Y-12000D03*
Y-7500D03*
X-347016Y-354500D03*
X-348984D03*
G54D54*
X-759750Y-650500D03*
X-765250D03*
X-317750Y-403000D03*
X-323250D03*
X-317750Y-397000D03*
X-323250D03*
X-251750Y-392000D03*
Y-387000D03*
Y-382000D03*
X-271250Y-403000D03*
X-276750D03*
X-251750Y-377000D03*
X-276750Y-397000D03*
X-271250D03*
X-251750Y-357000D03*
Y-363000D03*
X-301950Y-6530D03*
X-296450D03*
X-246250Y-392000D03*
Y-387000D03*
Y-382000D03*
Y-377000D03*
Y-357000D03*
Y-363000D03*
X-33250Y-350500D03*
X-38750D03*
X-33250Y-298000D03*
X-38750D03*
X-33250Y-245500D03*
X-38750D03*
G54D48*
X-351719Y-402100D03*
X-348500Y-348000D03*
X-294800Y-24900D03*
X-303410Y-14030D03*
X-300300Y-13700D03*
X-296090Y-15460D03*
X-298100Y-18250D03*
X-286550Y-3000D03*
G54D44*
X-300508Y102373D03*
X-297359D03*
X-294209D03*
X-287910D03*
X-284760D03*
X-281611D03*
X-295784Y99417D03*
X-292634D03*
X-289485D03*
X-286335D03*
X-302083D03*
X-280036D03*
G54D47*
X-309170Y121564D03*
X-272950D03*
G54D33*
X-735250Y-648000D03*
X-729750D03*
X-311750Y-403000D03*
X-335250D03*
X-329750D03*
X-335250Y-397000D03*
X-329750D03*
X-335250Y-385000D03*
X-329750D03*
X-335250Y-391000D03*
X-329750D03*
X-311750Y-397000D03*
X-306250Y-403000D03*
X-288750D03*
X-283250D03*
X-263750D03*
X-258250D03*
X-306250Y-397000D03*
X-263750D03*
X-258250D03*
X-288750D03*
X-283250D03*
X-288750Y-357000D03*
X-283250D03*
X-269750D03*
X-264250D03*
X-283250Y-363000D03*
X-288750D03*
X-266094Y-9477D03*
X-260594D03*
G54D71*
X-276904Y-19815D03*
X-292296D03*
X-276904Y-9185D03*
X-292296D03*
G54D43*
X-238000Y-11555D03*
G54D72*
X-277101Y-18043D03*
Y-16272D03*
Y-14500D03*
Y-12728D03*
X-292099D03*
Y-14500D03*
Y-16272D03*
Y-18043D03*
X-277101Y-10957D03*
X-292099D03*
G54D40*
X-115000Y24830D03*
X-118940Y16170D03*
X-111060D03*
X-52600Y-775370D03*
X-56540Y-784030D03*
X-48660D03*
G54D11*
X-935600Y-820600D02*
G75*
G03X-925600Y-830600I10000D01*
X-935600Y-820600D02*
G01Y120000D01*
X-925600Y130000D02*
G03X-935600Y120000J-10000D01*
X-925600Y130000D02*
G01X15000D01*
X25000Y120000D02*
G03X15000Y130000I-10000D01*
X25000Y120000D02*
G01Y-820600D01*
X15000Y-830600D02*
G03X25000Y-820600J10000D01*
X15000Y-830600D02*
G01X-925600D01*
M02*
