G04 CAM350/DFMSTREAM V14.6 (Build 1876) Date:  Thu Oct 30 16:12:41 2025 *
G04 Database: (Untitled) *
G04 Layer 6: SILKSCREENBOT.art *
%FSLAX55Y55*%
%MOIN*%
%SFA1.000B1.000*%

%MIA0B0*%
%IPPOS*%
%ADD11C,0.00500*%
%ADD12C,0.00600*%
%ADD24C,0.01000*%
%ADD25C,0.01500*%
%LNSILKSCREENBOT.art*%
%LPD*%
G54D11*
X-803050Y-687300D02*
G01Y-690550D01*
X-800550Y-687300D02*
G01Y-690550D01*
X-795650Y-690300D02*
G01Y-687050D01*
X-798150Y-690300D02*
G01Y-687050D01*
X-806550Y-687300D02*
G01Y-690550D01*
X-804050Y-687300D02*
G01Y-690550D01*
X-792350Y-699000D02*
G01Y-695750D01*
Y-690300D02*
G01Y-687050D01*
X-805250Y-701900D02*
G01Y-705150D01*
X-807750Y-701900D02*
G01Y-705150D01*
Y-713500D02*
G01Y-710250D01*
X-805250Y-713500D02*
G01Y-710250D01*
X-793600Y-585100D02*
G01X-796200D01*
X-793600Y-581900D02*
G01X-796200D01*
X-794800Y-593350D02*
G01X-798050D01*
X-794800Y-590850D02*
G01X-798050D01*
X-794800Y-596950D02*
G01X-798050D01*
X-794800Y-594450D02*
G01X-798050D01*
X-794800Y-603950D02*
G01X-798050D01*
X-794800Y-601450D02*
G01X-798050D01*
X-794800Y-600450D02*
G01X-798050D01*
X-794800Y-597950D02*
G01X-798050D01*
X-785750Y-678700D02*
G01Y-675450D01*
X-788250Y-678700D02*
G01Y-675450D01*
X-746350Y-707200D02*
G01Y-710450D01*
X-748850Y-707200D02*
G01Y-710450D01*
X-747050Y-693200D02*
G01Y-696450D01*
X-749550Y-693200D02*
G01Y-696450D01*
X-766250Y-698900D02*
G01Y-695650D01*
X-763750Y-698900D02*
G01Y-695650D01*
X-784950Y-699000D02*
G01Y-695750D01*
X-782450Y-699000D02*
G01Y-695750D01*
X-788750Y-699000D02*
G01Y-695750D01*
X-786250Y-699000D02*
G01Y-695750D01*
X-789850Y-699000D02*
G01Y-695750D01*
X-788750Y-690300D02*
G01Y-687050D01*
X-786250Y-690300D02*
G01Y-687050D01*
X-789850Y-690300D02*
G01Y-687050D01*
X-780850Y-696000D02*
G01Y-699250D01*
X-778350Y-696000D02*
G01Y-699250D01*
X-779650Y-690400D02*
G01Y-687150D01*
X-777150Y-690400D02*
G01Y-687150D01*
X-774950Y-699000D02*
G01Y-695750D01*
X-772450Y-699000D02*
G01Y-695750D01*
X-758550Y-695900D02*
G01Y-699150D01*
X-761050Y-695900D02*
G01Y-699150D01*
X-759950Y-682100D02*
G01Y-685350D01*
X-762450Y-682100D02*
G01Y-685350D01*
X-774950Y-711800D02*
G01Y-708550D01*
X-772450Y-711800D02*
G01Y-708550D01*
X-767150Y-711700D02*
G01Y-708450D01*
X-764650Y-711700D02*
G01Y-708450D01*
X-763550Y-711700D02*
G01Y-708450D01*
X-761050Y-711700D02*
G01Y-708450D01*
X-753050Y-696200D02*
G01Y-692950D01*
X-750550Y-696200D02*
G01Y-692950D01*
X-777600Y-665100D02*
G01Y-667700D01*
X-774400Y-665100D02*
G01Y-667700D01*
X-771100Y-655100D02*
G01X-773700D01*
X-771100Y-651900D02*
G01X-773700D01*
X-739400Y-621900D02*
G01Y-619300D01*
X-742600Y-621900D02*
G01Y-619300D01*
X-758900Y-617400D02*
G01X-756300D01*
X-758900Y-620600D02*
G01X-756300D01*
X-765100Y-620100D02*
G01X-767700D01*
X-765100Y-616900D02*
G01X-767700D01*
X-735900Y-632100D02*
G01X-733300D01*
X-735900Y-628900D02*
G01X-733300D01*
X-735250Y-622000D02*
G01Y-617000D01*
X-749750Y-651750D02*
G01X-750250D01*
X-749750Y-650250D02*
G01X-750250D01*
X-755650Y-623450D02*
G01Y-622950D01*
X-754150Y-623450D02*
G01Y-622950D01*
X-735250Y-637750D02*
G01X-734750D01*
X-735250Y-639250D02*
G01X-734750D01*
X-753250Y-627750D02*
G01Y-627250D01*
X-751750Y-627750D02*
G01Y-627250D01*
X-735250Y-642250D02*
G01X-734750D01*
X-735250Y-643750D02*
G01X-734750D01*
X-750250Y-625250D02*
G01Y-624750D01*
X-748750Y-625250D02*
G01Y-624750D01*
X-761750Y-635750D02*
G01X-762250D01*
X-761750Y-634250D02*
G01X-762250D01*
X-762500Y-648900D02*
G01Y-652100D01*
X-732500Y-649600D02*
G01Y-646400D01*
X-732600Y-603400D02*
G01Y-600800D01*
X-747400Y-604400D02*
G01Y-601800D01*
X-750600Y-604400D02*
G01Y-601800D01*
X-757750Y-608750D02*
G01X-757250D01*
X-757750Y-610250D02*
G01X-757250D01*
X-780250Y-599750D02*
G01X-779750D01*
X-780250Y-601250D02*
G01X-779750D01*
X-731750Y-617000D02*
G01Y-622000D01*
X-725400Y-603400D02*
G01Y-600800D01*
X-728600Y-603400D02*
G01Y-600800D01*
X-729400Y-603400D02*
G01Y-600800D01*
X-724550Y-607450D02*
G01X-724050D01*
X-724550Y-608950D02*
G01X-724050D01*
X-724550Y-610150D02*
G01X-724050D01*
X-724550Y-611650D02*
G01X-724050D01*
X-673000Y45750D02*
G01X-676250D01*
X-676000Y41750D02*
G01X-672750D01*
X-676000Y44250D02*
G01X-672750D01*
X-679900Y46000D02*
G01X-683100D01*
X-677293Y5600D02*
G01Y3737D01*
X-677440Y3347*
X-677733Y3087*
X-678100Y3000*
X-678467Y3087*
X-678760Y3347*
X-678907Y3737*
Y5600*
X-680267D02*
G01Y3000D01*
X-681733*
X-683900D02*
G01Y5600D01*
X-683460Y5080*
Y3000D02*
G01X-684340D01*
X-681500Y53750D02*
G01X-678250D01*
X-681500Y56250D02*
G01X-678250D01*
X-678500Y64250D02*
G01X-681750D01*
X-678500Y61750D02*
G01X-681750D01*
X-678500Y60250D02*
G01X-681750D01*
X-678500Y57750D02*
G01X-681750D01*
X-673000Y48250D02*
G01X-676250D01*
X-669435Y53925D02*
G01X-673565D01*
Y52075*
X-669435*
Y53925*
Y62925D02*
G01X-673565D01*
Y61075*
X-669435*
Y62925*
X-666250Y5750D02*
G01X-665750D01*
X-666250Y4250D02*
G01X-665750D01*
X-656250Y45250D02*
G01Y45750D01*
X-654750Y45250D02*
G01Y45750D01*
X-671250Y4250D02*
G01X-671750D01*
X-671250Y5750D02*
G01X-671750D01*
X-669250Y43750D02*
G01Y44250D01*
X-667750Y43750D02*
G01Y44250D01*
X-662900Y46000D02*
G01X-666100D01*
X-657900D02*
G01X-661100D01*
X-611250Y29750D02*
G01X-610750D01*
X-611250Y28250D02*
G01X-610750D01*
X-437600Y-106000D02*
G01X-434400D01*
X-396750Y-16250D02*
G01X-397250D01*
X-396750Y-14750D02*
G01X-397250D01*
X-422750Y-24250D02*
G01Y-23750D01*
X-421250Y-24250D02*
G01Y-23750D01*
X-431250Y-16250D02*
G01X-430750D01*
X-431250Y-17750D02*
G01X-430750D01*
X-405250Y-24250D02*
G01Y-23750D01*
X-403750Y-24250D02*
G01Y-23750D01*
X-413250D02*
G01Y-24250D01*
X-414750Y-23750D02*
G01Y-24250D01*
X-419750Y9250D02*
G01Y8750D01*
X-421250Y9250D02*
G01Y8750D01*
X-424250Y9250D02*
G01Y8750D01*
X-425750Y9250D02*
G01Y8750D01*
X-431250Y-3750D02*
G01X-430750D01*
X-431250Y-5250D02*
G01X-430750D01*
X-410250Y9250D02*
G01Y8750D01*
X-411750Y9250D02*
G01Y8750D01*
X-406750D02*
G01Y9250D01*
X-405250Y8750D02*
G01Y9250D01*
X-414750D02*
G01Y8750D01*
X-416250Y9250D02*
G01Y8750D01*
X-396750Y2750D02*
G01X-397250D01*
X-396750Y4250D02*
G01X-397250D01*
X-396750Y-11250D02*
G01X-397250D01*
X-396750Y-9750D02*
G01X-397250D01*
X-396750Y-2250D02*
G01X-397250D01*
X-396750Y-750D02*
G01X-397250D01*
X-396750Y-6750D02*
G01X-397250D01*
X-396750Y-5250D02*
G01X-397250D01*
X-431250Y-11250D02*
G01X-430750D01*
X-431250Y-12750D02*
G01X-430750D01*
X-431250Y-6750D02*
G01X-430750D01*
X-431250Y-8250D02*
G01X-430750D01*
X-338100Y-573900D02*
G01X-340700D01*
X-338100Y-577100D02*
G01X-340700D01*
X-332500Y-404600D02*
G01Y-401400D01*
Y-398600D02*
G01Y-395400D01*
Y-386600D02*
G01Y-383400D01*
X-320500Y-401400D02*
G01Y-404600D01*
X-332500Y-392600D02*
G01Y-389400D01*
X-320500Y-395400D02*
G01Y-398600D01*
X-324100Y-350900D02*
G01X-326700D01*
X-324100Y-354100D02*
G01X-326700D01*
X-316400Y-371400D02*
G01Y-368800D01*
X-319600Y-371400D02*
G01Y-368800D01*
X-313600Y-371400D02*
G01Y-368800D01*
X-334400Y-371400D02*
G01Y-368800D01*
X-337600Y-371400D02*
G01Y-368800D01*
X-322400Y-371400D02*
G01Y-368800D01*
X-325600Y-371400D02*
G01Y-368800D01*
X-328400Y-371400D02*
G01Y-368800D01*
X-331600Y-371400D02*
G01Y-368800D01*
X-331750Y-347250D02*
G01X-332250D01*
X-331750Y-345750D02*
G01X-332250D01*
X-324250Y-349750D02*
G01X-324750D01*
X-324250Y-348250D02*
G01X-324750D01*
X-350950Y-361650D02*
G01X-351450D01*
X-350950Y-360150D02*
G01X-351450D01*
X-348250Y-353750D02*
G01X-347750D01*
X-348250Y-355250D02*
G01X-347750D01*
X-344750Y-363750D02*
G01Y-364250D01*
X-346250Y-363750D02*
G01Y-364250D01*
X-324250Y-345750D02*
G01X-324750D01*
X-324250Y-344250D02*
G01X-324750D01*
X-319600Y-360000D02*
G01X-316400D01*
X-313600D02*
G01X-310400D01*
X-363600Y-106000D02*
G01X-360400D01*
X-313600D02*
G01X-310400D01*
X-311500Y-24000D02*
G01X-314100D01*
X-311500Y-27200D02*
G01X-314100D01*
X-320800Y-17600D02*
G01X-323400D01*
X-320800Y-20800D02*
G01X-323400D01*
X-320800Y-15300D02*
G01X-323400D01*
X-314300D02*
G01X-311700D01*
X-314300Y-20800D02*
G01X-311700D01*
X-314300Y-17600D02*
G01X-311700D01*
X-320800Y-5500D02*
G01X-323400D01*
X-320800Y-8700D02*
G01X-323400D01*
X-320800Y-12100D02*
G01X-323400D01*
X-314300Y-8700D02*
G01X-311700D01*
X-314300Y-5500D02*
G01X-311700D01*
X-314300Y-12100D02*
G01X-311700D01*
X-305100Y-568600D02*
G01Y-571200D01*
X-301900Y-568600D02*
G01Y-571200D01*
X-309000Y-404600D02*
G01Y-401400D01*
X-286000Y-404600D02*
G01Y-401400D01*
X-261000Y-404600D02*
G01Y-401400D01*
X-274000D02*
G01Y-404600D01*
X-309000Y-398600D02*
G01Y-395400D01*
X-292400Y-400000D02*
G01X-295600D01*
X-261000Y-398600D02*
G01Y-395400D01*
X-286000Y-398600D02*
G01Y-395400D01*
X-274000D02*
G01Y-398600D01*
X-308400Y-354600D02*
G01X-305800D01*
X-308400Y-351400D02*
G01X-305800D01*
X-308400Y-350600D02*
G01X-305800D01*
X-308400Y-347400D02*
G01X-305800D01*
X-310400Y-371400D02*
G01Y-368800D01*
X-304400Y-371400D02*
G01Y-368800D01*
X-307600Y-371400D02*
G01Y-368800D01*
X-286000Y-358600D02*
G01Y-355400D01*
X-267000Y-358600D02*
G01Y-355400D01*
X-286000Y-364600D02*
G01Y-361400D01*
X-263600Y-106000D02*
G01X-260400D01*
X-254980Y-22140D02*
G01Y-24740D01*
X-264377Y-15256D02*
G01X-261777D01*
X-298900Y-30200D02*
G01X-301500D01*
X-298900Y-33400D02*
G01X-301500D01*
X-298900Y-35500D02*
G01X-301500D01*
X-298900Y-38700D02*
G01X-301500D01*
X-284250Y-33860D02*
G01Y-36460D01*
X-287450Y-33860D02*
G01Y-36460D01*
X-277200Y-33860D02*
G01Y-36460D01*
X-280400Y-33860D02*
G01Y-36460D01*
X-294110Y-33760D02*
G01Y-37010D01*
X-291610Y-33760D02*
G01Y-37010D01*
X-271477Y-36760D02*
G01Y-33510D01*
X-273977Y-36760D02*
G01Y-33510D01*
X-290610Y-33760D02*
G01Y-37010D01*
X-288110Y-33760D02*
G01Y-37010D01*
X-298800Y-23650D02*
G01X-302050D01*
X-298800Y-26150D02*
G01X-302050D01*
X-298800Y-27150D02*
G01X-302050D01*
X-298800Y-29650D02*
G01X-302050D01*
X-298800Y-20100D02*
G01X-302050D01*
X-298800Y-22600D02*
G01X-302050D01*
X-281077Y-33760D02*
G01Y-37010D01*
X-283577Y-33760D02*
G01Y-37010D01*
X-277815Y-27039D02*
G01Y-28902D01*
X-277961Y-29292*
X-278255Y-29552*
X-278621Y-29639*
X-278988Y-29552*
X-279281Y-29292*
X-279428Y-28902*
Y-27039*
X-280898Y-29335D02*
G01X-281155Y-29552D01*
X-281448Y-29639*
X-281741Y-29552*
X-281998Y-29292*
X-282181Y-28902*
X-282255Y-28512*
Y-28035*
X-282181Y-27645*
X-281998Y-27299*
X-281778Y-27125*
X-281521Y-27039*
X-281228Y-27125*
X-281008Y-27299*
X-280861Y-27559*
X-280788Y-27905*
X-280861Y-28209*
X-281045Y-28512*
X-281265Y-28685*
X-281521Y-28729*
X-281815Y-28642*
X-282035Y-28425*
X-282255Y-28035*
X-283615Y-29249D02*
G01X-283835Y-29465D01*
X-284091Y-29595*
X-284421Y-29639*
X-284751Y-29552*
X-285008Y-29379*
X-285191Y-29075*
X-285228Y-28729*
X-285155Y-28382*
X-284971Y-28165*
X-284715Y-27992*
X-284458Y-27949*
X-284201Y-27992*
X-283871Y-28165*
X-283981Y-27039*
X-284971*
X-286625Y-28555D02*
G01X-286881Y-28252D01*
X-287101Y-28079*
X-287395Y-27992*
X-287651Y-28079*
X-287835Y-28252*
X-287981Y-28512*
X-288018Y-28815*
X-287981Y-29075*
X-287835Y-29335*
X-287615Y-29552*
X-287358Y-29639*
X-287065Y-29552*
X-286808Y-29292*
X-286661Y-28902*
X-286625Y-28469*
X-286698Y-27905*
X-286808Y-27602*
X-286991Y-27299*
X-287248Y-27082*
X-287505Y-27039*
X-287761Y-27125*
X-287945Y-27342*
X-290221Y-29639D02*
G01Y-27039D01*
X-289781Y-27559*
Y-29639D02*
G01X-290661D01*
X-295250Y10900D02*
G01X-293550D01*
X-295250Y8100D02*
G01X-293550D01*
X-288350D02*
G01X-290050D01*
X-288350Y10900D02*
G01X-290050D01*
X-288000Y936D02*
G01Y3536D01*
X-291200Y936D02*
G01Y3536D01*
X-265663Y936D02*
G01Y3536D01*
X-268863Y936D02*
G01Y3536D01*
X-269463Y936D02*
G01Y3536D01*
X-272663Y936D02*
G01Y3536D01*
X-262163Y936D02*
G01Y3536D01*
X-265363Y936D02*
G01Y3536D01*
X-264377Y-12056D02*
G01X-261777D01*
X-252800Y5100D02*
G01Y7700D01*
X-256000Y5100D02*
G01Y7700D01*
X-256300Y5100D02*
G01Y7700D01*
X-259500Y5100D02*
G01Y7700D01*
X-298700Y-12130D02*
G01X-301300D01*
X-298700Y-8930D02*
G01X-301300D01*
X-294700Y936D02*
G01Y3536D01*
X-291500Y936D02*
G01Y3536D01*
X-277550Y836D02*
G01Y4086D01*
X-280050Y836D02*
G01Y4086D01*
X-274013Y836D02*
G01Y4086D01*
X-276513Y836D02*
G01Y4086D01*
X-282850Y836D02*
G01Y4086D01*
X-285350Y836D02*
G01Y4086D01*
X-279550Y12900D02*
G01Y9650D01*
X-277050Y12900D02*
G01Y9650D01*
X-276013Y12900D02*
G01Y9650D01*
X-273513Y12900D02*
G01Y9650D01*
X-285350Y12900D02*
G01Y9650D01*
X-282850Y12900D02*
G01Y9650D01*
X-301600Y-980D02*
G01X-298350D01*
X-301600Y-3480D02*
G01X-298350D01*
X-301600Y2520D02*
G01X-298350D01*
X-301600Y20D02*
G01X-298350D01*
X-263344Y-11077D02*
G01Y-7877D01*
X-299200Y-4930D02*
G01Y-8130D01*
X-233900Y-373900D02*
G01Y-371300D01*
X-237100Y-373900D02*
G01Y-371300D01*
X-241600Y-391100D02*
G01Y-393700D01*
X-238400Y-391100D02*
G01Y-393700D01*
Y-373900D02*
G01Y-371300D01*
X-241600Y-373900D02*
G01Y-371300D01*
X-249000Y-390400D02*
G01Y-393600D01*
Y-385400D02*
G01Y-388600D01*
Y-380400D02*
G01Y-383600D01*
X-238400Y-382500D02*
G01X-241600D01*
X-249000Y-375400D02*
G01Y-378600D01*
Y-355400D02*
G01Y-358600D01*
Y-361400D02*
G01Y-364600D01*
X-213600Y-106000D02*
G01X-210400D01*
X-251780Y-22140D02*
G01Y-24740D01*
X-205350Y-40850D02*
G01X-205850D01*
X-205350Y-42350D02*
G01X-205850D01*
X-205350Y-37150D02*
G01X-205850D01*
X-205350Y-38650D02*
G01X-205850D01*
X-183593Y-49300D02*
G01Y-51163D01*
X-183740Y-51553*
X-184033Y-51813*
X-184400Y-51900*
X-184767Y-51813*
X-185060Y-51553*
X-185207Y-51163*
Y-49300*
X-186567Y-51900D02*
G01Y-49300D01*
X-187447*
X-187740Y-49430*
X-187960Y-49733*
X-188033Y-50080*
X-187960Y-50427*
X-187777Y-50687*
X-187447Y-50817*
X-186567*
X-189577Y-51597D02*
G01X-189833Y-51813D01*
X-190127Y-51900*
X-190420Y-51813*
X-190677Y-51553*
X-190860Y-51163*
X-190933Y-50773*
Y-50297*
X-190860Y-49907*
X-190677Y-49560*
X-190457Y-49387*
X-190200Y-49300*
X-189907Y-49387*
X-189687Y-49560*
X-189540Y-49820*
X-189467Y-50167*
X-189540Y-50470*
X-189723Y-50773*
X-189943Y-50947*
X-190200Y-50990*
X-190493Y-50903*
X-190713Y-50687*
X-190933Y-50297*
X-193100Y-49300D02*
G01X-192807Y-49387D01*
X-192587Y-49603*
X-192440Y-49863*
X-192330Y-50210*
X-192293Y-50600*
X-192330Y-50990*
X-192440Y-51337*
X-192587Y-51597*
X-192807Y-51813*
X-193100Y-51900*
X-193393Y-51813*
X-193613Y-51597*
X-193760Y-51337*
X-193870Y-50990*
X-193907Y-50600*
X-193870Y-50210*
X-193760Y-49863*
X-193613Y-49603*
X-193393Y-49387*
X-193100Y-49300*
X-195303Y-50817D02*
G01X-195560Y-50513D01*
X-195780Y-50340*
X-196073Y-50253*
X-196330Y-50340*
X-196513Y-50513*
X-196660Y-50773*
X-196697Y-51077*
X-196660Y-51337*
X-196513Y-51597*
X-196293Y-51813*
X-196037Y-51900*
X-195743Y-51813*
X-195487Y-51553*
X-195340Y-51163*
X-195303Y-50730*
X-195377Y-50167*
X-195487Y-49863*
X-195670Y-49560*
X-195927Y-49343*
X-196183Y-49300*
X-196440Y-49387*
X-196623Y-49603*
X-245000Y5100D02*
G01Y7700D01*
X-248200Y5100D02*
G01Y7700D01*
X-239800Y5100D02*
G01Y7700D01*
X-243000Y5100D02*
G01Y7700D01*
X-206200Y-5900D02*
G01Y-3300D01*
X-203000Y-5900D02*
G01Y-3300D01*
X-202250Y-6000D02*
G01Y-2750D01*
X-199750Y-6000D02*
G01Y-2750D01*
X-196050Y-3000D02*
G01Y-6250D01*
X-198550Y-3000D02*
G01Y-6250D01*
X-163600Y-106000D02*
G01X-160400D01*
X-172000Y-16100D02*
G01Y-18700D01*
X-175200Y-16100D02*
G01Y-18700D01*
X-162250Y-16250D02*
G01Y-16750D01*
X-160750Y-16250D02*
G01Y-16750D01*
X-178850Y-17650D02*
G01Y-18150D01*
X-177350Y-17650D02*
G01Y-18150D01*
X-151400Y-13500D02*
G01X-154600D01*
X-183250Y30500D02*
G01Y33750D01*
X-180750Y30500D02*
G01Y33750D01*
X-189200Y4050D02*
G01X-192450D01*
X-189200Y6550D02*
G01X-192450D01*
X-155750Y8750D02*
G01Y9250D01*
X-157250Y8750D02*
G01Y9250D01*
X-152750Y8750D02*
G01Y9250D01*
X-154250Y8750D02*
G01Y9250D01*
X-164550Y-10250D02*
G01Y-10750D01*
X-163050Y-10250D02*
G01Y-10750D01*
X-189950Y-4350D02*
G01Y-3850D01*
X-191450Y-4350D02*
G01Y-3850D01*
X-115600Y29400D02*
G01X-118200D01*
X-115600Y32600D02*
G01X-118200D01*
X-113200Y19400D02*
G01Y21500D01*
X-116800*
Y19400*
X-113200*
X-44650Y-785000D02*
G01Y-781750D01*
X-42150Y-785000D02*
G01Y-781750D01*
X-35550Y-785000D02*
G01Y-781750D01*
X-33050Y-785000D02*
G01Y-781750D01*
X-39250Y-782000D02*
G01Y-785250D01*
X-36750Y-782000D02*
G01Y-785250D01*
X-51100Y-770950D02*
G01X-47850D01*
X-51100Y-768450D02*
G01X-47850D01*
X-50800Y-780800D02*
G01Y-778700D01*
X-54400*
Y-780800*
X-50800*
X-39035Y-773875D02*
G01X-43165D01*
Y-775725*
X-39035*
Y-773875*
X-31335D02*
G01X-35465D01*
Y-775725*
X-31335*
Y-773875*
X-36000Y-348900D02*
G01Y-352100D01*
Y-296400D02*
G01Y-299600D01*
Y-243900D02*
G01Y-247100D01*
X-63250Y-15250D02*
G01Y-15750D01*
X-61750Y-15250D02*
G01Y-15750D01*
X-52400Y-13000D02*
G01X-55600D01*
X-57250Y13750D02*
G01Y14250D01*
X-58750Y13750D02*
G01Y14250D01*
X-54250Y13750D02*
G01Y14250D01*
X-55750Y13750D02*
G01Y14250D01*
X-65750Y-10750D02*
G01Y-11250D01*
X-64250Y-10750D02*
G01Y-11250D01*
X-935600Y-820600D02*
G75*
G03X-925600Y-830600I10000D01*
X-935600Y-820600D02*
G01Y120000D01*
X-925600Y130000D02*
G03X-935600Y120000J-10000D01*
X-925600Y130000D02*
G01X15000D01*
X25000Y120000D02*
G03X15000Y130000I-10000D01*
X25000Y120000D02*
G01Y-820600D01*
X15000Y-830600D02*
G03X25000Y-820600J10000D01*
X15000Y-830600D02*
G01X-925600D01*
X-680800Y25000D02*
G01Y32173D01*
X-678828D02*
G01X-680800D01*
Y21000D02*
G03X-680800Y25000J2000D01*
Y13827D02*
G01X-678851D01*
X-680800Y21000D02*
G01Y18177D01*
Y13827D02*
G01Y18177D01*
X-661100Y32273D02*
G01Y13927D01*
Y32273D02*
G01X-662954D01*
Y13927D02*
G01X-661100D01*
X-201600Y-25300D02*
G01Y-18127D01*
X-199628D02*
G01X-201600D01*
Y-29300D02*
G03X-201600Y-25300J2000D01*
Y-36473D02*
G01X-199651D01*
X-201600Y-29300D02*
G01Y-32123D01*
Y-36473D02*
G01Y-32123D01*
X-181900Y-18027D02*
G01Y-36373D01*
Y-18027D02*
G01X-183754D01*
Y-36373D02*
G01X-181900D01*
G54D12*
X-795000Y-582500D02*
G01Y-584500D01*
X-777000Y-666500D02*
G01X-775000D01*
X-772500Y-652500D02*
G01Y-654500D01*
X-740000Y-620500D02*
G01X-742000D01*
X-757500Y-620000D02*
G01Y-618000D01*
X-766500Y-617500D02*
G01Y-619500D01*
X-734500Y-631500D02*
G01Y-629500D01*
X-737600Y-608100D02*
G01Y-613100D01*
X-736400Y-608100D02*
G01Y-613100D01*
X-748000Y-603000D02*
G01X-750000D01*
X-726000Y-602000D02*
G01X-728000D01*
X-730000D02*
G01X-732000D01*
X-339500Y-574500D02*
G01Y-576500D01*
X-325500Y-351500D02*
G01Y-353500D01*
X-317000Y-370000D02*
G01X-319000D01*
X-311000D02*
G01X-313000D01*
X-335000D02*
G01X-337000D01*
X-323000D02*
G01X-325000D01*
X-329000D02*
G01X-331000D01*
X-312900Y-24600D02*
G01Y-26600D01*
X-322200Y-18200D02*
G01Y-20200D01*
Y-12700D02*
G01Y-14700D01*
X-312900D02*
G01Y-12700D01*
Y-20200D02*
G01Y-18200D01*
X-322200Y-6100D02*
G01Y-8100D01*
X-312900D02*
G01Y-6100D01*
X-304500Y-570000D02*
G01X-302500D01*
X-307000Y-354000D02*
G01Y-352000D01*
Y-350000D02*
G01Y-348000D01*
X-305000Y-370000D02*
G01X-307000D01*
X-254380Y-23540D02*
G01X-252380D01*
X-262977Y-14656D02*
G01Y-12656D01*
X-300300Y-30800D02*
G01Y-32800D01*
Y-36100D02*
G01Y-38100D01*
X-286850Y-35260D02*
G01X-284850D01*
X-279800D02*
G01X-277800D01*
X-288600Y2336D02*
G01X-290600D01*
X-266263D02*
G01X-268263D01*
X-270063D02*
G01X-272063D01*
X-262763D02*
G01X-264763D01*
X-253400Y6500D02*
G01X-255400D01*
X-256900D02*
G01X-258900D01*
X-300100Y-9530D02*
G01Y-11530D01*
X-292100Y2336D02*
G01X-294100D01*
X-234500Y-372500D02*
G01X-236500D01*
X-241000Y-392500D02*
G01X-239000D01*
Y-372500D02*
G01X-241000D01*
X-245600Y6500D02*
G01X-247600D01*
X-240400D02*
G01X-242400D01*
X-203600Y-4500D02*
G01X-205600D01*
X-174600Y-17500D02*
G01X-172600D01*
X-117000Y32000D02*
G01Y30000D01*
G54D24*
X-277814Y-22750D02*
G01X-277806D01*
X-276254Y-21198*
G54D25*
X-682400Y28900D02*
G01Y37700D01*
X-203200Y-21400D02*
G01Y-12600D01*
M02*
