G04 CAM350/DFMSTREAM V14.6 (Build 1876) Date:  Thu Oct 30 16:12:41 2025 *
G04 Database: (Untitled) *
G04 Layer 8: SOLDERMASKBOT.art *
%FSLAX55Y55*%
%MOIN*%
%SFA1.000B1.000*%

%MIA0B0*%
%IPPOS*%
%AMMACRO19*
4,1,40,0.0175000,-0.0110000,0.0174390,-0.0116950,0.0172590,-0.0123680,0.0169640,-0.0130000,0.0165640,-0.0135710,0.0160710,-0.0140640,0.0155000,-0.0144640,0.0148680,-0.0147590,0.0141950,-0.0149390,0.0135000,-0.0150000,-0.0135000,-0.0150000,-0.0141950,-0.0149390,-0.0148680,-0.0147590,-0.0155000,-0.0144640,-0.0160710,-0.0140640,-0.0165640,-0.0135710,-0.0169640,-0.0130000,-0.0172590,-0.0123680,-0.0174390,-0.0116950,-0.0175000,-0.0110000,-0.0175000,0.0110000,-0.0174390,0.0116950,-0.0172590,0.0123680,-0.0169640,0.0130000,-0.0165640,0.0135710,-0.0160710,0.0140640,-0.0155000,0.0144640,-0.0148680,0.0147590,-0.0141950,0.0149390,-0.0135000,0.0150000,0.0135000,0.0150000,0.0141950,0.0149390,0.0148680,0.0147590,0.0155000,0.0144640,0.0160710,0.0140640,0.0165640,0.0135710,0.0169640,0.0130000,0.0172590,0.0123680,0.0174390,0.0116950,0.0175000,0.0110000,0.0175000,-0.0110000,0.0000000*
%
%AMMACRO14*
4,1,40,-0.0110000,-0.0175000,-0.0116950,-0.0174390,-0.0123680,-0.0172590,-0.0130000,-0.0169640,-0.0135710,-0.0165640,-0.0140640,-0.0160710,-0.0144640,-0.0155000,-0.0147590,-0.0148680,-0.0149390,-0.0141950,-0.0150000,-0.0135000,-0.0150000,0.0135000,-0.0149390,0.0141950,-0.0147590,0.0148680,-0.0144640,0.0155000,-0.0140640,0.0160710,-0.0135710,0.0165640,-0.0130000,0.0169640,-0.0123680,0.0172590,-0.0116950,0.0174390,-0.0110000,0.0175000,0.0110000,0.0175000,0.0116950,0.0174390,0.0123680,0.0172590,0.0130000,0.0169640,0.0135710,0.0165640,0.0140640,0.0160710,0.0144640,0.0155000,0.0147590,0.0148680,0.0149390,0.0141950,0.0150000,0.0135000,0.0150000,-0.0135000,0.0149390,-0.0141950,0.0147590,-0.0148680,0.0144640,-0.0155000,0.0140640,-0.0160710,0.0135710,-0.0165640,0.0130000,-0.0169640,0.0123680,-0.0172590,0.0116950,-0.0174390,0.0110000,-0.0175000,-0.0110000,-0.0175000,0.0000000*
%
%AMMACRO21*
4,1,40,0.0110000,0.0175000,0.0116950,0.0174390,0.0123680,0.0172590,0.0130000,0.0169640,0.0135710,0.0165640,0.0140640,0.0160710,0.0144640,0.0155000,0.0147590,0.0148680,0.0149390,0.0141950,0.0150000,0.0135000,0.0150000,-0.0135000,0.0149390,-0.0141950,0.0147590,-0.0148680,0.0144640,-0.0155000,0.0140640,-0.0160710,0.0135710,-0.0165640,0.0130000,-0.0169640,0.0123680,-0.0172590,0.0116950,-0.0174390,0.0110000,-0.0175000,-0.0110000,-0.0175000,-0.0116950,-0.0174390,-0.0123680,-0.0172590,-0.0130000,-0.0169640,-0.0135710,-0.0165640,-0.0140640,-0.0160710,-0.0144640,-0.0155000,-0.0147590,-0.0148680,-0.0149390,-0.0141950,-0.0150000,-0.0135000,-0.0150000,0.0135000,-0.0149390,0.0141950,-0.0147590,0.0148680,-0.0144640,0.0155000,-0.0140640,0.0160710,-0.0135710,0.0165640,-0.0130000,0.0169640,-0.0123680,0.0172590,-0.0116950,0.0174390,-0.0110000,0.0175000,0.0110000,0.0175000,0.0000000*
%
%AMMACRO18*
4,1,40,-0.0175000,0.0110000,-0.0174390,0.0116950,-0.0172590,0.0123680,-0.0169640,0.0130000,-0.0165640,0.0135710,-0.0160710,0.0140640,-0.0155000,0.0144640,-0.0148680,0.0147590,-0.0141950,0.0149390,-0.0135000,0.0150000,0.0135000,0.0150000,0.0141950,0.0149390,0.0148680,0.0147590,0.0155000,0.0144640,0.0160710,0.0140640,0.0165640,0.0135710,0.0169640,0.0130000,0.0172590,0.0123680,0.0174390,0.0116950,0.0175000,0.0110000,0.0175000,-0.0110000,0.0174390,-0.0116950,0.0172590,-0.0123680,0.0169640,-0.0130000,0.0165640,-0.0135710,0.0160710,-0.0140640,0.0155000,-0.0144640,0.0148680,-0.0147590,0.0141950,-0.0149390,0.0135000,-0.0150000,-0.0135000,-0.0150000,-0.0141950,-0.0149390,-0.0148680,-0.0147590,-0.0155000,-0.0144640,-0.0160710,-0.0140640,-0.0165640,-0.0135710,-0.0169640,-0.0130000,-0.0172590,-0.0123680,-0.0174390,-0.0116950,-0.0175000,-0.0110000,-0.0175000,0.0110000,0.0000000*
%
%AMMACRO51*
4,1,40,-0.0060000,0.0080000,-0.0065210,0.0079540,-0.0070260,0.0078190,-0.0075000,0.0075980,-0.0079280,0.0072980,-0.0082980,0.0069280,-0.0085980,0.0065000,-0.0088190,0.0060260,-0.0089540,0.0055210,-0.0090000,0.0050000,-0.0090000,-0.0050000,-0.0089540,-0.0055210,-0.0088190,-0.0060260,-0.0085980,-0.0065000,-0.0082980,-0.0069280,-0.0079280,-0.0072980,-0.0075000,-0.0075980,-0.0070260,-0.0078190,-0.0065210,-0.0079540,-0.0060000,-0.0080000,0.0060000,-0.0080000,0.0065210,-0.0079540,0.0070260,-0.0078190,0.0075000,-0.0075980,0.0079280,-0.0072980,0.0082980,-0.0069280,0.0085980,-0.0065000,0.0088190,-0.0060260,0.0089540,-0.0055210,0.0090000,-0.0050000,0.0090000,0.0050000,0.0089540,0.0055210,0.0088190,0.0060260,0.0085980,0.0065000,0.0082980,0.0069280,0.0079280,0.0072980,0.0075000,0.0075980,0.0070260,0.0078190,0.0065210,0.0079540,0.0060000,0.0080000,-0.0060000,0.0080000,0.0000000*
%
%AMMACRO23_1*
4,1,40,0.0080000,0.0060000,0.0079540,0.0065210,0.0078190,0.0070260,0.0075980,0.0075000,0.0072980,0.0079280,0.0069280,0.0082980,0.0065000,0.0085980,0.0060260,0.0088190,0.0055210,0.0089540,0.0050000,0.0090000,-0.0050000,0.0090000,-0.0055210,0.0089540,-0.0060260,0.0088190,-0.0065000,0.0085980,-0.0069280,0.0082980,-0.0072980,0.0079280,-0.0075980,0.0075000,-0.0078190,0.0070260,-0.0079540,0.0065210,-0.0080000,0.0060000,-0.0080000,-0.0060000,-0.0079540,-0.0065210,-0.0078190,-0.0070260,-0.0075980,-0.0075000,-0.0072980,-0.0079280,-0.0069280,-0.0082980,-0.0065000,-0.0085980,-0.0060260,-0.0088190,-0.0055210,-0.0089540,-0.0050000,-0.0090000,0.0050000,-0.0090000,0.0055210,-0.0089540,0.0060260,-0.0088190,0.0065000,-0.0085980,0.0069280,-0.0082980,0.0072980,-0.0079280,0.0075980,-0.0075000,0.0078190,-0.0070260,0.0079540,-0.0065210,0.0080000,-0.0060000,0.0080000,0.0060000,0.0000000*
%
%AMMACRO28*
4,1,40,0.0190100,-0.0250100,0.0189490,-0.0257050,0.0187680,-0.0263780,0.0184730,-0.0270110,0.0180730,-0.0275820,0.0175800,-0.0280750,0.0170080,-0.0284750,0.0163760,-0.0287690,0.0157020,-0.0289490,0.0150100,-0.0290100,-0.0150100,-0.0290100,-0.0157050,-0.0289490,-0.0163790,-0.0287680,-0.0170110,-0.0284730,-0.0175820,-0.0280720,-0.0180750,-0.0275790,-0.0184750,-0.0270070,-0.0187690,-0.0263750,-0.0189500,-0.0257010,-0.0190100,-0.0250100,-0.0190100,0.0250100,-0.0189490,0.0257050,-0.0187680,0.0263780,-0.0184730,0.0270110,-0.0180730,0.0275820,-0.0175800,0.0280750,-0.0170080,0.0284750,-0.0163760,0.0287690,-0.0157020,0.0289490,-0.0150100,0.0290100,0.0150100,0.0290100,0.0157050,0.0289490,0.0163790,0.0287680,0.0170110,0.0284730,0.0175820,0.0280720,0.0180750,0.0275790,0.0184750,0.0270070,0.0187690,0.0263750,0.0189500,0.0257010,0.0190100,0.0250100,0.0190100,-0.0250100,0.0000000*
%
%AMMACRO25*
4,1,40,-0.0080000,-0.0060000,-0.0079540,-0.0065210,-0.0078190,-0.0070260,-0.0075980,-0.0075000,-0.0072980,-0.0079280,-0.0069280,-0.0082980,-0.0065000,-0.0085980,-0.0060260,-0.0088190,-0.0055210,-0.0089540,-0.0050000,-0.0090000,0.0050000,-0.0090000,0.0055210,-0.0089540,0.0060260,-0.0088190,0.0065000,-0.0085980,0.0069280,-0.0082980,0.0072980,-0.0079280,0.0075980,-0.0075000,0.0078190,-0.0070260,0.0079540,-0.0065210,0.0080000,-0.0060000,0.0080000,0.0060000,0.0079540,0.0065210,0.0078190,0.0070260,0.0075980,0.0075000,0.0072980,0.0079280,0.0069280,0.0082980,0.0065000,0.0085980,0.0060260,0.0088190,0.0055210,0.0089540,0.0050000,0.0090000,-0.0050000,0.0090000,-0.0055210,0.0089540,-0.0060260,0.0088190,-0.0065000,0.0085980,-0.0069280,0.0082980,-0.0072980,0.0079280,-0.0075980,0.0075000,-0.0078190,0.0070260,-0.0079540,0.0065210,-0.0080000,0.0060000,-0.0080000,-0.0060000,0.0000000*
%
%AMMACRO24*
4,1,40,0.0060000,-0.0080000,0.0065210,-0.0079540,0.0070260,-0.0078190,0.0075000,-0.0075980,0.0079280,-0.0072980,0.0082980,-0.0069280,0.0085980,-0.0065000,0.0088190,-0.0060260,0.0089540,-0.0055210,0.0090000,-0.0050000,0.0090000,0.0050000,0.0089540,0.0055210,0.0088190,0.0060260,0.0085980,0.0065000,0.0082980,0.0069280,0.0079280,0.0072980,0.0075000,0.0075980,0.0070260,0.0078190,0.0065210,0.0079540,0.0060000,0.0080000,-0.0060000,0.0080000,-0.0065210,0.0079540,-0.0070260,0.0078190,-0.0075000,0.0075980,-0.0079280,0.0072980,-0.0082980,0.0069280,-0.0085980,0.0065000,-0.0088190,0.0060260,-0.0089540,0.0055210,-0.0090000,0.0050000,-0.0090000,-0.0050000,-0.0089540,-0.0055210,-0.0088190,-0.0060260,-0.0085980,-0.0065000,-0.0082980,-0.0069280,-0.0079280,-0.0072980,-0.0075000,-0.0075980,-0.0070260,-0.0078190,-0.0065210,-0.0079540,-0.0060000,-0.0080000,0.0060000,-0.0080000,0.0000000*
%
%ADD11C,0.00500*%
%ADD33MACRO19*%
%ADD34MACRO14*%
%ADD44C,0.02300*%
%ADD52R,0.01378X0.02362*%
%ADD53MACRO21*%
%ADD54MACRO18*%
%ADD126O,0.06201X0.11122*%
%ADD195C,0.02000*%
%ADD201O,0.06000X0.10400*%
%ADD202O,0.06000X0.12300*%
%ADD203O,0.05300X0.12200*%
%ADD204O,0.05300X0.12400*%
%ADD205O,0.04500X0.10800*%
%ADD206C,0.12000*%
%ADD207C,0.13000*%
%ADD208O,0.09600X0.13300*%
%ADD209O,0.06900X0.11600*%
%ADD210C,0.24200*%
%ADD211R,0.11500X0.08700*%
%ADD212C,0.12600*%
%ADD213C,0.13500*%
%ADD214C,0.13700*%
%ADD215C,0.17342*%
%ADD216C,0.16437*%
%ADD217O,0.11721X0.08374*%
%ADD218R,0.10000X0.10000*%
%ADD219MACRO51*%
%ADD220MACRO23_1*%
%ADD221R,0.02200X0.03000*%
%ADD222O,0.03500X0.01400*%
%ADD223R,0.02500X0.03000*%
%ADD224O,0.01400X0.03500*%
%ADD225R,0.03000X0.02500*%
%ADD226O,0.03900X0.01400*%
%ADD227O,0.05300X0.06300*%
%ADD228O,0.01400X0.03900*%
%ADD229R,0.04500X0.05200*%
%ADD230O,0.03700X0.04500*%
%ADD231R,0.03000X0.08500*%
%ADD232C,0.05000*%
%ADD233O,0.09600X0.08000*%
%ADD234C,0.06000*%
%ADD235O,0.08000X0.09600*%
%ADD236C,0.07000*%
%ADD237O,0.04900X0.09200*%
%ADD238C,0.08000*%
%ADD239C,0.09000*%
%ADD240C,0.04500*%
%ADD241O,0.04900X0.08500*%
%ADD242C,0.03700*%
%ADD243C,0.06500*%
%ADD244C,0.07500*%
%ADD245C,0.05700*%
%ADD246C,0.04900*%
%ADD247C,0.08500*%
%ADD248C,0.08900*%
%ADD249R,0.05700X0.05700*%
%ADD250C,0.06098*%
%ADD251C,0.04598*%
%ADD252C,0.07587*%
%ADD253MACRO28*%
%ADD254MACRO25*%
%ADD255MACRO24*%
%LNSOLDERMASKBOT.art*%
%LPD*%
G54D234*
X-919500Y-812500D03*
X-909500Y-802500D03*
X-919500D03*
X-909500Y-792500D03*
X-919500D03*
X-909500Y-782500D03*
X-919500D03*
X-909500Y-772500D03*
X-919500D03*
Y-316437D03*
Y-308563D03*
Y-252500D03*
Y-190000D03*
X-909500D03*
Y-200000D03*
X-919500Y-242500D03*
Y-232500D03*
Y-222500D03*
X-909500Y-137500D03*
X-919500Y-160000D03*
Y-170000D03*
Y-180000D03*
X-909500Y-160000D03*
Y-170000D03*
Y-180000D03*
X-919500Y-97500D03*
Y-107500D03*
Y-117500D03*
Y-127500D03*
X-909500Y-97500D03*
Y-107500D03*
Y-117500D03*
Y-127500D03*
Y-50000D03*
Y-40000D03*
Y-30000D03*
Y-20000D03*
X-919500Y-60000D03*
Y-50000D03*
Y-40000D03*
Y-30000D03*
Y-20000D03*
Y97500D03*
Y87500D03*
Y77500D03*
Y67500D03*
Y57500D03*
X-909500Y97500D03*
Y87500D03*
Y77500D03*
Y57500D03*
X-890500Y-75750D03*
Y-85250D03*
X-817500Y-42750D03*
Y-52250D03*
X-832250Y49000D03*
X-822750D03*
X-804750D03*
X-795250D03*
X-804750Y21500D03*
X-795250D03*
X-832250D03*
X-822750D03*
X-731500Y-75750D03*
Y-85250D03*
X-714750Y-740000D03*
X-705250D03*
X-596150D03*
X-586650D03*
X-584750Y-47500D03*
X-575250D03*
X-432250Y-185000D03*
X-402250D03*
X-392750D03*
X-422750D03*
X-417250Y-70000D03*
X-407750D03*
X-337500Y-772750D03*
Y-782250D03*
X-320750Y-740000D03*
X-311250D03*
X-324600Y-533102D03*
Y-542602D03*
X-344750Y-185000D03*
X-335250D03*
X-327250Y-70000D03*
X-317750D03*
X-330100Y40950D03*
Y50450D03*
X-269380Y-185000D03*
X-259880D03*
X-306880D03*
X-297380D03*
X-231880D03*
X-222380D03*
X-194380D03*
X-237250Y-70000D03*
X-227750D03*
X-172050Y-740000D03*
X-162550D03*
X-157250Y-185000D03*
X-147750D03*
X-184880D03*
X-147250Y-70000D03*
X-137750D03*
X-98150Y-740000D03*
X-88650D03*
X-115000Y-402750D03*
Y-412250D03*
Y-377250D03*
Y-332750D03*
Y-342250D03*
Y-367750D03*
Y-262750D03*
Y-272250D03*
Y-297750D03*
Y-307250D03*
X-24450Y-740000D03*
X-14950D03*
X-50750D03*
X-41250D03*
X-32578Y70850D03*
X-14858D03*
X-22738D03*
X-32578Y81080D03*
X-32188Y100770D03*
X-23918D03*
X-13678D03*
X-32188Y90930D03*
X-22738Y81080D03*
X-14858D03*
X1500Y-380250D03*
Y-389750D03*
Y-314750D03*
Y-305250D03*
Y-230250D03*
Y-239750D03*
X-5018Y70850D03*
Y81080D03*
X-5408Y100770D03*
Y90930D03*
G54D251*
X-916000Y-740000D03*
X-911000Y-735000D03*
Y-730000D03*
X-916000Y-725000D03*
X-911000Y-720000D03*
Y-715000D03*
X-916000Y-710000D03*
Y-665000D03*
X-911000Y-660000D03*
Y-655000D03*
X-916000Y-650000D03*
X-911000Y-645000D03*
Y-640000D03*
X-916000Y-635000D03*
Y-560000D03*
Y-575000D03*
Y-590000D03*
X-911000Y-570000D03*
Y-565000D03*
Y-580000D03*
Y-585000D03*
X-916000Y-516891D03*
X-911000Y-511891D03*
Y-506891D03*
X-916000Y-501891D03*
X-911000Y-496891D03*
Y-491891D03*
X-916000Y-443789D03*
X-911000Y-438789D03*
Y-433789D03*
X-916000Y-486891D03*
Y-428789D03*
X-911000Y-423789D03*
Y-418789D03*
X-916000Y-413789D03*
X-553000Y-808000D03*
X-558000Y-813000D03*
X-563000Y-808000D03*
X-568000D03*
X-573000Y-813000D03*
X-543000D03*
X-548000Y-808000D03*
G54D223*
X-801800Y-690800D03*
Y-686800D03*
X-796900D03*
Y-690800D03*
X-805300D03*
Y-686800D03*
X-791100Y-695500D03*
Y-699500D03*
Y-686800D03*
Y-690800D03*
X-806500Y-705400D03*
Y-701400D03*
Y-710000D03*
Y-714000D03*
X-787000Y-675200D03*
Y-679200D03*
X-747600Y-710700D03*
Y-706700D03*
X-748300Y-696700D03*
Y-692700D03*
X-765000Y-695400D03*
Y-699400D03*
X-783700Y-695500D03*
Y-699500D03*
X-787500Y-695500D03*
Y-699500D03*
Y-686800D03*
Y-690800D03*
X-779600Y-699500D03*
Y-695500D03*
X-778400Y-686900D03*
Y-690900D03*
X-773700Y-695500D03*
Y-699500D03*
X-759800Y-699400D03*
Y-695400D03*
X-761200Y-685600D03*
Y-681600D03*
X-773700Y-708300D03*
Y-712300D03*
X-765900Y-708200D03*
Y-712200D03*
X-762300Y-708200D03*
Y-712200D03*
X-751800Y-692700D03*
Y-696700D03*
X-776000Y-668500D03*
Y-664500D03*
X-741000Y-618500D03*
Y-622500D03*
X-749000Y-601000D03*
Y-605000D03*
X-727000Y-600000D03*
Y-604000D03*
X-731000Y-600000D03*
Y-604000D03*
X-318000Y-372000D03*
X-312000D03*
X-336000D03*
X-324000D03*
X-330000D03*
X-318000Y-368000D03*
X-312000D03*
X-336000D03*
X-324000D03*
X-330000D03*
X-303500Y-572000D03*
Y-568000D03*
X-306000Y-372000D03*
Y-368000D03*
X-253380Y-25540D03*
Y-21540D03*
X-285850Y-37260D03*
Y-33260D03*
X-278800Y-37260D03*
Y-33260D03*
X-292860Y-37260D03*
Y-33260D03*
X-272727D03*
Y-37260D03*
X-289360D03*
Y-33260D03*
X-282327Y-37260D03*
Y-33260D03*
X-289600Y4336D03*
Y336D03*
X-267263Y4336D03*
Y336D03*
X-271063Y4336D03*
Y336D03*
X-263763Y4336D03*
Y336D03*
X-254400Y8500D03*
Y4500D03*
X-257900Y8500D03*
Y4500D03*
X-293100Y4336D03*
Y336D03*
X-278800Y4336D03*
Y336D03*
X-275263Y4336D03*
Y336D03*
X-284100Y4336D03*
Y336D03*
X-278300Y9400D03*
Y13400D03*
X-274763Y9400D03*
Y13400D03*
X-284100Y9400D03*
Y13400D03*
X-235500Y-374500D03*
X-240000Y-394500D03*
Y-390500D03*
Y-374500D03*
X-235500Y-370500D03*
X-240000D03*
X-246600Y8500D03*
Y4500D03*
X-241400Y8500D03*
Y4500D03*
X-204600Y-2500D03*
Y-6500D03*
X-201000Y-2500D03*
Y-6500D03*
X-197300D03*
Y-2500D03*
X-173600Y-19500D03*
Y-15500D03*
X-182000Y34000D03*
Y30000D03*
X-43400Y-781500D03*
Y-785500D03*
X-34300Y-781500D03*
Y-785500D03*
X-38000Y-781500D03*
Y-785500D03*
G54D247*
X-914031Y-750512D03*
Y-675512D03*
Y-699488D03*
Y-624488D03*
Y-549488D03*
Y-600512D03*
Y-527403D03*
Y-454301D03*
Y-476379D03*
Y-403277D03*
X-583512Y-811031D03*
X-532488D03*
G54D240*
X-786795Y-124339D03*
Y-116465D03*
Y-108591D03*
Y-100717D03*
X-778920Y-120402D03*
Y-112528D03*
Y-104654D03*
X-769080Y-120402D03*
Y-112528D03*
Y-104654D03*
X-761205Y-124339D03*
Y-116465D03*
Y-108591D03*
Y-100717D03*
X-786795Y-84969D03*
Y-77095D03*
X-778920Y-88906D03*
Y-81032D03*
Y-73158D03*
X-761205Y-84969D03*
Y-77095D03*
X-769080Y-88906D03*
Y-81032D03*
Y-73158D03*
X-786795Y-69221D03*
Y-61347D03*
Y-53473D03*
X-778920Y-65284D03*
Y-57410D03*
Y-49536D03*
X-761205Y-69221D03*
Y-61347D03*
Y-53473D03*
X-769080Y-65284D03*
Y-57410D03*
Y-49536D03*
X-706795Y-124339D03*
Y-116465D03*
Y-108591D03*
Y-100717D03*
X-698920Y-120402D03*
Y-112528D03*
Y-104654D03*
X-689080Y-120402D03*
Y-112528D03*
Y-104654D03*
X-681205Y-124339D03*
Y-116465D03*
Y-108591D03*
Y-100717D03*
X-706795Y-84969D03*
Y-77095D03*
X-698920Y-88906D03*
Y-81032D03*
Y-73158D03*
X-681205Y-84969D03*
Y-77095D03*
X-689080Y-88906D03*
Y-81032D03*
Y-73158D03*
X-706795Y-69221D03*
Y-61347D03*
Y-53473D03*
X-698920Y-65284D03*
Y-57410D03*
Y-49536D03*
X-681205Y-69221D03*
Y-61347D03*
Y-53473D03*
X-689080Y-65284D03*
Y-57410D03*
Y-49536D03*
X-454988Y-811850D03*
X-464437D03*
X-466012Y-778150D03*
X-456563D03*
G54D225*
X-797000Y-583500D03*
X-793000D03*
X-798300Y-592100D03*
X-794300D03*
X-798300Y-595700D03*
X-794300D03*
X-798300Y-602700D03*
X-794300D03*
X-798300Y-599200D03*
X-794300D03*
X-774500Y-653500D03*
X-770500D03*
X-755500Y-619000D03*
X-759500D03*
X-768500Y-618500D03*
X-764500D03*
X-732500Y-630500D03*
X-736500D03*
X-672500Y47000D03*
X-676500D03*
Y43000D03*
X-672500D03*
X-682000Y55000D03*
X-678000D03*
Y63000D03*
X-682000D03*
X-678000Y59000D03*
X-682000D03*
X-341500Y-575500D03*
X-337500D03*
X-327500Y-352500D03*
X-323500D03*
X-314900Y-25600D03*
X-324200Y-19200D03*
X-320200D03*
X-324200Y-13700D03*
X-320200D03*
X-314900D03*
Y-19200D03*
X-324200Y-7100D03*
X-320200D03*
X-314900D03*
X-305000Y-353000D03*
X-309000D03*
X-305000Y-349000D03*
X-309000D03*
X-260977Y-13656D03*
X-264977D03*
X-302300Y-31800D03*
X-298300D03*
X-302300Y-37100D03*
X-298300D03*
X-310900Y-25600D03*
Y-13700D03*
Y-19200D03*
X-302300Y-24900D03*
X-298300D03*
X-302300Y-28400D03*
X-298300D03*
X-302300Y-21350D03*
X-298300D03*
X-302100Y-10530D03*
X-298100D03*
X-310900Y-7100D03*
X-298100Y-2230D03*
X-302100D03*
X-298100Y1270D03*
X-302100D03*
X-192700Y5300D03*
X-188700D03*
X-119000Y31000D03*
X-115000D03*
X-51600Y-769700D03*
X-47600D03*
G54D252*
X-687083Y-741929D03*
X-659917Y-733071D03*
G54D245*
X-919837Y-376248D03*
X-911963D03*
X-919837Y-384122D03*
Y-336878D03*
X-911963D03*
X-919837Y-344752D03*
X-911963D03*
X-919837Y-352626D03*
X-911963D03*
X-919837Y-360500D03*
X-911963D03*
X-919837Y-368374D03*
X-911963D03*
X-918500Y-284921D03*
G54D34*
X-733500Y-622250D03*
Y-616750D03*
X-436000Y-103250D03*
Y-108750D03*
X-318000Y-357250D03*
Y-362750D03*
X-312000Y-357250D03*
Y-362750D03*
X-362000Y-108750D03*
Y-103250D03*
X-312000Y-108750D03*
Y-103250D03*
X-262000Y-108750D03*
Y-103250D03*
X-212000Y-108750D03*
Y-103250D03*
X-162000Y-108750D03*
Y-103250D03*
G54D213*
X-553425Y74486D03*
X-505946D03*
G54D53*
X-681500Y43250D03*
Y48750D03*
X-664500Y43250D03*
Y48750D03*
X-659500Y43250D03*
Y48750D03*
X-294000Y-402750D03*
Y-397250D03*
X-240000Y-385250D03*
Y-379750D03*
X-153000Y-10750D03*
Y-16250D03*
X-54000Y-15750D03*
Y-10250D03*
G54D249*
X-918500Y-275079D03*
G54D248*
X-422756Y-135098D03*
X-417244Y-159902D03*
X-342244D03*
X-347756Y-135098D03*
X-266648Y-738867D03*
X-291452Y-745953D03*
X-292244Y-159902D03*
X-297756Y-135098D03*
X-197756D03*
X-192244Y-159902D03*
X-242244D03*
X-247756Y-135098D03*
X-142802Y-745953D03*
X-142244Y-159902D03*
X-147756Y-135098D03*
X-117998Y-738867D03*
X-89902Y-422756D03*
Y-370256D03*
Y-317756D03*
Y-265256D03*
X-65098Y-417244D03*
Y-364744D03*
Y-312244D03*
Y-259744D03*
G54D220*
X-750984Y-651000D03*
X-749016D03*
X-762984Y-635000D03*
X-761016D03*
X-672484Y5000D03*
X-670516D03*
X-397984Y-15500D03*
X-396016D03*
X-397984Y3500D03*
X-396016D03*
X-397984Y-10500D03*
X-396016D03*
X-397984Y-1500D03*
X-396016D03*
X-397984Y-6000D03*
X-396016D03*
X-332984Y-346500D03*
X-331016D03*
X-325484Y-349000D03*
X-323516D03*
X-352184Y-360900D03*
X-350216D03*
X-325484Y-345000D03*
X-323516D03*
X-206584Y-41600D03*
X-204616D03*
X-206584Y-37900D03*
X-204616D03*
G54D206*
X-553425Y118925D03*
X-505946Y118975D03*
X-387842Y96209D03*
Y73847D03*
X-336110Y96209D03*
Y73847D03*
G54D255*
X-754900Y-622216D03*
Y-624184D03*
X-752500Y-626516D03*
Y-628484D03*
X-749500Y-624016D03*
Y-625984D03*
X-655500Y46484D03*
Y44516D03*
X-668500Y44984D03*
Y43016D03*
X-422000Y-23016D03*
Y-24984D03*
X-404500Y-23016D03*
Y-24984D03*
X-406000Y9984D03*
Y8016D03*
X-156500Y9984D03*
Y8016D03*
X-153500Y9984D03*
Y8016D03*
X-190700Y-3116D03*
Y-5084D03*
X-58000Y14984D03*
Y13016D03*
X-55000Y14984D03*
Y13016D03*
G54D250*
X-514966Y64645D03*
X-524805D03*
X-534646D03*
X-544485D03*
X-514966Y84325D03*
X-524805D03*
X-534646D03*
X-544485D03*
X-510046Y104015D03*
X-519885D03*
X-529725D03*
X-539566D03*
X-549405D03*
G54D236*
X-911500Y37500D03*
Y27500D03*
Y17500D03*
Y7500D03*
X7500Y-760000D03*
Y-750000D03*
Y-740000D03*
Y-730000D03*
X5000Y-482500D03*
Y-472500D03*
Y-462500D03*
Y-452500D03*
G54D231*
X-678500Y11500D03*
X-673500D03*
Y34500D03*
X-678500D03*
X-668500Y11500D03*
X-663500D03*
Y34500D03*
X-668500D03*
X-199300Y-38800D03*
X-194300D03*
Y-15800D03*
X-199300D03*
X-189300Y-38800D03*
X-184300D03*
Y-15800D03*
X-189300D03*
G54D219*
X-414000Y-24984D03*
Y-23016D03*
X-420500Y8016D03*
Y9984D03*
X-425000Y8016D03*
Y9984D03*
X-411000Y8016D03*
Y9984D03*
X-415500Y8016D03*
Y9984D03*
X-345500Y-364984D03*
Y-363016D03*
X-161500Y-17484D03*
Y-15516D03*
X-178100Y-18884D03*
Y-16916D03*
X-163800Y-11484D03*
Y-9516D03*
X-62500Y-16484D03*
Y-14516D03*
X-65000Y-11984D03*
Y-10016D03*
G54D218*
X-284600Y-14500D03*
G54D254*
X-734016Y-638500D03*
X-735984D03*
X-734016Y-643000D03*
X-735984D03*
X-756516Y-609500D03*
X-758484D03*
X-780984Y-600500D03*
X-779016D03*
X-723316Y-608200D03*
X-725284D03*
X-723316Y-610900D03*
X-725284D03*
X-665016Y5000D03*
X-666984D03*
X-611984Y29000D03*
X-610016D03*
X-431984Y-17000D03*
Y-4500D03*
Y-12000D03*
Y-7500D03*
X-430016Y-17000D03*
Y-4500D03*
Y-12000D03*
Y-7500D03*
X-347016Y-354500D03*
X-348984D03*
G54D239*
X-310940Y-815820D03*
Y-794170D03*
X-261330Y-815820D03*
X-277870D03*
X-294400D03*
X-261330Y-794170D03*
X-277870D03*
X-294400D03*
X-195190Y-815820D03*
X-211730D03*
X-228260D03*
X-244800D03*
X-195190Y-794170D03*
X-211730D03*
X-228260D03*
X-244800D03*
X-162120Y-815820D03*
X-178660D03*
X-162120Y-794170D03*
X-178660D03*
X-145590D03*
X-129050D03*
X-145590Y-815820D03*
X-129050D03*
X-18825Y-137305D03*
Y-120765D03*
Y-104235D03*
Y-87695D03*
Y-56735D03*
Y-40195D03*
X2825Y-137305D03*
Y-120765D03*
Y-104235D03*
Y-87695D03*
Y-56735D03*
Y-40195D03*
G54D238*
X-908500Y108000D03*
X-884000Y-808000D03*
X-25000Y-797000D03*
X-17500Y18000D03*
G54D235*
X-266543Y-24547D03*
X-209457D03*
G54D211*
X-671000Y23000D03*
X-191800Y-27300D03*
G54D209*
X-238270Y92273D03*
Y115737D03*
X-181184Y92273D03*
X-137876D03*
X-181184Y115737D03*
X-137876D03*
X-80790Y92273D03*
Y115737D03*
G54D205*
X-435205Y-795000D03*
X-485795D03*
G54D54*
X-759750Y-650500D03*
X-765250D03*
X-317750Y-403000D03*
X-323250D03*
X-317750Y-397000D03*
X-323250D03*
X-251750Y-392000D03*
Y-387000D03*
Y-382000D03*
X-271250Y-403000D03*
X-276750D03*
X-251750Y-377000D03*
X-276750Y-397000D03*
X-271250D03*
X-251750Y-357000D03*
Y-363000D03*
X-301950Y-6530D03*
X-296450D03*
X-246250Y-392000D03*
Y-387000D03*
Y-382000D03*
Y-377000D03*
Y-357000D03*
Y-363000D03*
X-33250Y-350500D03*
X-38750D03*
X-33250Y-298000D03*
X-38750D03*
X-33250Y-245500D03*
X-38750D03*
G54D52*
X-293120Y9500D03*
X-295680D03*
X-290480D03*
X-287920D03*
G54D244*
X-857700Y-775000D03*
X-779000D03*
G54D229*
X-115000Y24830D03*
X-118940Y16170D03*
X-111060D03*
X-52600Y-775370D03*
X-56540Y-784030D03*
X-48660D03*
G54D221*
X-673469Y55441D03*
X-671500Y50559D03*
X-673469Y64441D03*
X-671500Y59559D03*
X-669531Y55441D03*
Y64441D03*
X-43069Y-772359D03*
X-39131D03*
X-41100Y-777241D03*
X-35369Y-772359D03*
X-31431D03*
X-33400Y-777241D03*
G54D215*
X-447262Y-533443D03*
Y-226357D03*
X-140176Y-533443D03*
Y-226357D03*
G54D126*
X-310091Y-703303D03*
Y-666238D03*
Y-629174D03*
Y-592109D03*
G54D242*
X-889553Y-516870D03*
X-889348Y-523577D03*
X-887317Y-526847D03*
X-881858Y-529873D03*
X-877781Y-529793D03*
X-872340Y-526540D03*
X-870479Y-523165D03*
X-870365Y-517058D03*
X-872225Y-513703D03*
X-877559Y-510280D03*
X-881609Y-510132D03*
X-887671Y-513526D03*
X-809553Y93130D03*
X-809348Y86423D03*
X-807317Y83153D03*
X-801858Y80127D03*
X-797781Y80207D03*
X-792340Y83460D03*
X-790479Y86835D03*
X-792225Y96297D03*
X-797559Y99720D03*
X-801609Y99868D03*
X-807671Y96474D03*
X-790365Y92942D03*
X-627671Y-798526D03*
X-621609Y-795132D03*
X-617559Y-795280D03*
X-612225Y-798703D03*
X-629348Y-808577D03*
X-629553Y-801870D03*
Y-516870D03*
X-629348Y-523577D03*
X-627317Y-526847D03*
X-621858Y-529873D03*
X-617781Y-529793D03*
X-612340Y-526540D03*
X-612225Y-513703D03*
X-617559Y-510280D03*
X-621609Y-510132D03*
X-627671Y-513526D03*
X-629553Y93130D03*
X-629348Y86423D03*
X-627317Y83153D03*
X-621858Y80127D03*
X-617781Y80207D03*
X-612340Y83460D03*
X-612225Y96297D03*
X-617559Y99720D03*
X-621609Y99868D03*
X-627671Y96474D03*
X-610365Y-802058D03*
X-610479Y-808165D03*
Y-523165D03*
X-610365Y-517058D03*
X-610479Y86835D03*
X-610365Y92942D03*
X-4610Y-796083D03*
X2290Y-795267D03*
X-9380Y-808526D03*
X-10005Y-804727D03*
X-7628Y-798452D03*
X-6474Y-527671D03*
X-9868Y-521609D03*
X-9720Y-517559D03*
X-6297Y-512225D03*
X-2942Y-510365D03*
X3165Y-510479D03*
X3577Y-529348D03*
X-3130Y-529553D03*
X-6474Y-7671D03*
X-9868Y-1609D03*
X-9720Y2441D03*
X-6297Y7775D03*
X-2942Y9635D03*
X3165Y9521D03*
X3577Y-9348D03*
X-3130Y-9553D03*
G54D195*
X-351719Y-402100D03*
X-348500Y-348000D03*
X-294800Y-24900D03*
X-303410Y-14030D03*
X-300300Y-13700D03*
X-296090Y-15460D03*
X-298100Y-18250D03*
X-286550Y-3000D03*
G54D227*
X-291060Y69131D03*
X-283186D03*
X-275312D03*
X-298934D03*
X-306808D03*
X-294997Y76436D03*
X-287123D03*
X-277281D03*
X-304840D03*
G54D33*
X-735250Y-648000D03*
X-729750D03*
X-311750Y-403000D03*
X-335250D03*
X-329750D03*
X-335250Y-397000D03*
X-329750D03*
X-335250Y-385000D03*
X-329750D03*
X-335250Y-391000D03*
X-329750D03*
X-311750Y-397000D03*
X-306250Y-403000D03*
X-288750D03*
X-283250D03*
X-263750D03*
X-258250D03*
X-306250Y-397000D03*
X-263750D03*
X-258250D03*
X-288750D03*
X-283250D03*
X-288750Y-357000D03*
X-283250D03*
X-269750D03*
X-264250D03*
X-283250Y-363000D03*
X-288750D03*
X-266094Y-9477D03*
X-260594D03*
G54D212*
X-47538Y73210D03*
Y112580D03*
X9942Y73210D03*
Y112580D03*
G54D210*
X-459682Y-103732D03*
X-103739D03*
X-32374Y-451267D03*
Y-221920D03*
G54D201*
X-634709Y-383812D03*
X-598882D03*
G54D253*
X-733300Y-610500D03*
X-740700D03*
G54D243*
X-473993Y31450D03*
X-463993D03*
X-433147Y42650D03*
X-443147D03*
X-453147D03*
X-463147D03*
X-438147Y52650D03*
X-448147D03*
X-458147D03*
X-459426Y81922D03*
X-449584D03*
X-441710D03*
X-431867D03*
X-459426Y71607D03*
X-449584D03*
X-441710D03*
X-431867D03*
X-427300Y31450D03*
X-417300D03*
X-428147Y52650D03*
G54D241*
X-309170Y101879D03*
X-272950D03*
G54D232*
X-866790Y-376346D03*
X-858940Y-372346D03*
X-866790Y-368472D03*
Y-360598D03*
Y-352724D03*
Y-344850D03*
Y-336976D03*
Y-329102D03*
Y-321228D03*
Y-313354D03*
X-858940Y-364472D03*
Y-356598D03*
Y-348724D03*
Y-340850D03*
Y-332976D03*
Y-325102D03*
Y-317228D03*
X-866790Y-305480D03*
Y-297606D03*
Y-289732D03*
Y-281858D03*
Y-273984D03*
Y-266110D03*
Y-258236D03*
Y-250362D03*
X-858940Y-309354D03*
Y-301480D03*
Y-293606D03*
Y-285732D03*
Y-277858D03*
Y-269984D03*
Y-262110D03*
Y-254236D03*
X-866790Y-242488D03*
Y-234614D03*
Y-226740D03*
Y-218866D03*
Y-210992D03*
Y-203118D03*
Y-195244D03*
X-858940Y-246362D03*
Y-238488D03*
Y-230614D03*
Y-222740D03*
Y-214866D03*
Y-206992D03*
Y-199118D03*
Y-191244D03*
X-866790Y-187370D03*
Y-179496D03*
Y-171622D03*
Y-163748D03*
Y-155874D03*
Y-148000D03*
Y-140126D03*
Y-132252D03*
X-858940Y-183370D03*
Y-175496D03*
Y-167622D03*
Y-159748D03*
Y-151874D03*
Y-144000D03*
Y-136126D03*
X-866790Y-124378D03*
Y-116504D03*
Y-108630D03*
Y-100756D03*
X-866795Y-84967D03*
Y-77093D03*
X-858940Y-128252D03*
Y-120378D03*
Y-112504D03*
Y-104630D03*
X-858920Y-88904D03*
Y-81030D03*
Y-73156D03*
X-866795Y-69219D03*
Y-61345D03*
Y-53471D03*
X-858920Y-65282D03*
Y-57408D03*
Y-49534D03*
X-849060Y-372346D03*
X-841220Y-376276D03*
X-849060Y-364472D03*
Y-356598D03*
Y-348724D03*
Y-340850D03*
Y-332976D03*
Y-325102D03*
Y-317228D03*
X-841220Y-368402D03*
Y-360528D03*
Y-352654D03*
Y-344780D03*
Y-336906D03*
Y-329032D03*
Y-321158D03*
Y-313284D03*
X-849060Y-309354D03*
Y-301480D03*
Y-293606D03*
Y-285732D03*
Y-277858D03*
Y-269984D03*
Y-262110D03*
Y-254236D03*
X-841220Y-305410D03*
Y-297536D03*
Y-289662D03*
Y-281788D03*
Y-273914D03*
Y-266040D03*
Y-258166D03*
X-849060Y-246362D03*
Y-238488D03*
Y-230614D03*
Y-222740D03*
Y-214866D03*
Y-206992D03*
Y-199118D03*
Y-191244D03*
X-841220Y-250292D03*
Y-242418D03*
Y-234544D03*
Y-226670D03*
Y-218796D03*
Y-210922D03*
Y-203048D03*
Y-195174D03*
X-849060Y-183370D03*
Y-175496D03*
Y-167622D03*
Y-159748D03*
Y-151874D03*
Y-144000D03*
Y-136126D03*
X-841220Y-187300D03*
Y-179426D03*
Y-171552D03*
Y-163678D03*
Y-155804D03*
Y-147930D03*
Y-140056D03*
Y-132182D03*
X-849060Y-128252D03*
Y-120378D03*
Y-112504D03*
Y-104630D03*
X-849080Y-88904D03*
Y-81030D03*
Y-73156D03*
X-841220Y-124308D03*
Y-116434D03*
Y-108560D03*
Y-100686D03*
X-841205Y-84967D03*
Y-77093D03*
X-849080Y-65282D03*
Y-57408D03*
X-841205Y-69219D03*
Y-61345D03*
Y-53471D03*
X-849080Y-49534D03*
X-626790Y-376348D03*
X-618940Y-372348D03*
X-626790Y-368474D03*
Y-360600D03*
Y-352726D03*
Y-344852D03*
Y-336978D03*
Y-329104D03*
Y-321230D03*
Y-313356D03*
X-618940Y-364474D03*
Y-356600D03*
Y-348726D03*
Y-340852D03*
Y-332978D03*
Y-325104D03*
Y-317230D03*
X-626790Y-305482D03*
Y-297608D03*
Y-289734D03*
Y-281860D03*
Y-273986D03*
Y-266112D03*
Y-258238D03*
Y-250364D03*
X-618940Y-309356D03*
Y-301482D03*
Y-293608D03*
Y-285734D03*
Y-277860D03*
Y-269986D03*
Y-262112D03*
Y-254238D03*
X-626790Y-242490D03*
Y-234616D03*
Y-226742D03*
Y-218868D03*
Y-210994D03*
Y-203120D03*
Y-195246D03*
X-618940Y-246364D03*
Y-238490D03*
Y-230616D03*
Y-222742D03*
Y-214868D03*
Y-206994D03*
Y-199120D03*
Y-191246D03*
X-626790Y-187372D03*
Y-179498D03*
Y-171624D03*
Y-163750D03*
Y-155876D03*
Y-148002D03*
Y-140128D03*
Y-132254D03*
X-618940Y-183372D03*
Y-175498D03*
Y-167624D03*
Y-159750D03*
Y-151876D03*
Y-144002D03*
Y-136128D03*
X-626790Y-124380D03*
Y-116506D03*
Y-108632D03*
Y-100758D03*
X-626795Y-84969D03*
Y-77095D03*
X-618940Y-128254D03*
Y-120380D03*
Y-112506D03*
Y-104632D03*
X-618920Y-88906D03*
Y-81032D03*
Y-73158D03*
X-626795Y-69221D03*
Y-61347D03*
Y-53473D03*
X-618920Y-65284D03*
Y-57410D03*
Y-49536D03*
X-609060Y-372348D03*
X-601220Y-376278D03*
X-609060Y-364474D03*
Y-356600D03*
Y-348726D03*
Y-340852D03*
Y-332978D03*
Y-325104D03*
Y-317230D03*
X-601220Y-368404D03*
Y-360530D03*
Y-352656D03*
Y-344782D03*
Y-336908D03*
Y-329034D03*
Y-321160D03*
Y-313286D03*
X-609060Y-309356D03*
Y-301482D03*
Y-293608D03*
Y-285734D03*
Y-277860D03*
Y-269986D03*
Y-262112D03*
Y-254238D03*
X-601220Y-305412D03*
Y-297538D03*
Y-289664D03*
Y-281790D03*
Y-273916D03*
Y-266042D03*
Y-258168D03*
Y-250294D03*
X-609060Y-246364D03*
Y-238490D03*
Y-230616D03*
Y-222742D03*
Y-214868D03*
Y-206994D03*
Y-199120D03*
Y-191246D03*
X-601220Y-242420D03*
Y-234546D03*
Y-226672D03*
Y-218798D03*
Y-210924D03*
Y-203050D03*
Y-195176D03*
X-609060Y-183372D03*
Y-175498D03*
Y-167624D03*
Y-159750D03*
Y-151876D03*
Y-144002D03*
Y-136128D03*
X-601220Y-187302D03*
Y-179428D03*
Y-171554D03*
Y-163680D03*
Y-155806D03*
Y-147932D03*
Y-140058D03*
Y-132184D03*
X-609060Y-128254D03*
Y-120380D03*
Y-112506D03*
Y-104632D03*
X-609080Y-88906D03*
Y-81032D03*
Y-73158D03*
X-601220Y-124310D03*
Y-116436D03*
Y-108562D03*
Y-100688D03*
X-601205Y-84969D03*
Y-77095D03*
X-609080Y-65284D03*
Y-57410D03*
X-601205Y-69221D03*
Y-61347D03*
Y-53473D03*
X-609080Y-49536D03*
G54D217*
X-614000Y-383418D03*
Y-95402D03*
G54D204*
X-316257Y72587D03*
Y96209D03*
X-265863Y72587D03*
Y96209D03*
G54D44*
X-300508Y102373D03*
X-297359D03*
X-294209D03*
X-287910D03*
X-284760D03*
X-281611D03*
X-295784Y99417D03*
X-292634D03*
X-289485D03*
X-286335D03*
X-302083D03*
X-280036D03*
G54D222*
X-276904Y-19815D03*
X-292296D03*
X-276904Y-9185D03*
X-292296D03*
G54D214*
X-737500Y-222520D03*
Y-143780D03*
X-647284Y22500D03*
X-529000Y-507026D03*
Y-388916D03*
G54D207*
X-482458Y53024D03*
Y102946D03*
X-471513Y92591D03*
Y70229D03*
X-408836Y53024D03*
Y102946D03*
X-419780Y92591D03*
Y70229D03*
G54D202*
X-634709Y-94063D03*
X-598882D03*
G54D246*
X-376063Y-813937D03*
X-383937D03*
X-391811D03*
X-399685D03*
X-407559D03*
X-415433D03*
Y-806063D03*
X-407559D03*
X-399685D03*
X-391811D03*
X-383937D03*
X-376063D03*
X-375756Y88335D03*
Y75737D03*
X-377724Y82429D03*
Y69831D03*
X-344567Y-813937D03*
X-352441D03*
X-360315D03*
X-368189D03*
Y-806063D03*
X-360315D03*
X-352441D03*
X-348196Y88335D03*
Y75737D03*
X-365913Y88335D03*
X-358039D03*
X-365913Y75737D03*
X-358039D03*
X-369850Y82429D03*
X-361976D03*
X-354102D03*
X-346228D03*
X-369850Y69831D03*
X-361976D03*
X-354102D03*
X-346228D03*
X-228428Y87194D03*
X-222522D03*
X-216617D03*
X-210711D03*
X-204806D03*
X-198900D03*
X-192995D03*
X-225475Y93099D03*
X-219569D03*
X-213664D03*
X-207759D03*
X-201853D03*
X-195947D03*
X-222522Y99005D03*
X-216617D03*
X-210711D03*
X-204806D03*
X-198900D03*
X-192995D03*
X-128034Y87194D03*
X-122128D03*
X-116223D03*
X-110317D03*
X-104412D03*
X-98506D03*
X-92601D03*
X-125081Y93099D03*
X-119175D03*
X-113270D03*
X-107365D03*
X-101459D03*
X-95553D03*
X-122128Y99005D03*
X-116223D03*
X-110317D03*
X-104412D03*
X-98506D03*
X-92601D03*
G54D237*
X-309170Y121564D03*
X-272950D03*
G54D226*
X-277101Y-18043D03*
Y-16272D03*
Y-14500D03*
Y-12728D03*
X-292099D03*
Y-14500D03*
Y-16272D03*
Y-18043D03*
X-277101Y-10957D03*
X-292099D03*
G54D208*
X-576036Y-666238D03*
Y-703303D03*
Y-629174D03*
Y-592109D03*
X-32926Y-666238D03*
Y-703303D03*
Y-629174D03*
Y-592109D03*
G54D233*
X-238000Y-11555D03*
G54D224*
X-289915Y-22196D03*
X-279285D03*
Y-6804D03*
G54D216*
X-411239Y-458640D03*
Y-301160D03*
X-176201Y-450766D03*
Y-309036D03*
G54D230*
X-193979Y64595D03*
X-201853D03*
X-209727D03*
X-217601D03*
X-225475D03*
X-197916D03*
X-205790D03*
X-213664D03*
X-221538D03*
X-229412D03*
X-215633Y58296D03*
X-207759D03*
X-195947D03*
X-203821D03*
X-211695D03*
X-219569D03*
X-199885D03*
X-231381D03*
X-223507D03*
X-227443D03*
X-93585Y64595D03*
X-101459D03*
X-109333D03*
X-117207D03*
X-125081D03*
X-97522D03*
X-105396D03*
X-113270D03*
X-121144D03*
X-129018D03*
X-115239Y58296D03*
X-107365D03*
X-95553D03*
X-103427D03*
X-111301D03*
X-119175D03*
X-99491D03*
X-130987D03*
X-123113D03*
X-127049D03*
G54D228*
X-288143Y-21999D03*
X-286372D03*
X-284600D03*
X-282828D03*
X-281057D03*
Y-7001D03*
X-282828D03*
X-284600D03*
X-286372D03*
X-288143D03*
X-289915D03*
G54D203*
X-247818Y68611D03*
Y102469D03*
X-171636Y68611D03*
Y102469D03*
X-147424Y68611D03*
Y102469D03*
X-71242Y68611D03*
Y102469D03*
G54D11*
X-935600Y-820600D02*
G75*
G03X-925600Y-830600I10000D01*
X-935600Y-820600D02*
G01Y120000D01*
X-925600Y130000D02*
G03X-935600Y120000J-10000D01*
X-925600Y130000D02*
G01X15000D01*
X25000Y120000D02*
G03X15000Y130000I-10000D01*
X25000Y120000D02*
G01Y-820600D01*
X15000Y-830600D02*
G03X25000Y-820600J10000D01*
X15000Y-830600D02*
G01X-925600D01*
M02*
