G04 CAM350/DFMSTREAM V14.6 (Build 1876) Date:  Thu Oct 30 16:12:41 2025 *
G04 Database: (Untitled) *
G04 Layer 9: SOLDERMASKTOP.art *
%FSLAX55Y55*%
%MOIN*%
%SFA1.000B1.000*%

%MIA0B0*%
%IPPOS*%
%AMMACRO21_1*
4,1,40,0.0175000,0.0110000,0.0174390,0.0116950,0.0172590,0.0123680,0.0169640,0.0130000,0.0165640,0.0135710,0.0160710,0.0140640,0.0155000,0.0144640,0.0148680,0.0147590,0.0141950,0.0149390,0.0135000,0.0150000,-0.0135000,0.0150000,-0.0141950,0.0149390,-0.0148680,0.0147590,-0.0155000,0.0144640,-0.0160710,0.0140640,-0.0165640,0.0135710,-0.0169640,0.0130000,-0.0172590,0.0123680,-0.0174390,0.0116950,-0.0175000,0.0110000,-0.0175000,-0.0110000,-0.0174390,-0.0116950,-0.0172590,-0.0123680,-0.0169640,-0.0130000,-0.0165640,-0.0135710,-0.0160710,-0.0140640,-0.0155000,-0.0144640,-0.0148680,-0.0147590,-0.0141950,-0.0149390,-0.0135000,-0.0150000,0.0135000,-0.0150000,0.0141950,-0.0149390,0.0148680,-0.0147590,0.0155000,-0.0144640,0.0160710,-0.0140640,0.0165640,-0.0135710,0.0169640,-0.0130000,0.0172590,-0.0123680,0.0174390,-0.0116950,0.0175000,-0.0110000,0.0175000,0.0110000,0.0000000*
%
%AMMACRO88*
4,1,40,-0.0060000,0.0100000,-0.0066950,0.0099390,-0.0073680,0.0097590,-0.0080000,0.0094640,-0.0085710,0.0090640,-0.0090640,0.0085710,-0.0094640,0.0080000,-0.0097590,0.0073680,-0.0099390,0.0066950,-0.0100000,0.0060000,-0.0100000,-0.0060000,-0.0099390,-0.0066950,-0.0097590,-0.0073680,-0.0094640,-0.0080000,-0.0090640,-0.0085710,-0.0085710,-0.0090640,-0.0080000,-0.0094640,-0.0073680,-0.0097590,-0.0066950,-0.0099390,-0.0060000,-0.0100000,0.0060000,-0.0100000,0.0066950,-0.0099390,0.0073680,-0.0097590,0.0080000,-0.0094640,0.0085710,-0.0090640,0.0090640,-0.0085710,0.0094640,-0.0080000,0.0097590,-0.0073680,0.0099390,-0.0066950,0.0100000,-0.0060000,0.0100000,0.0060000,0.0099390,0.0066950,0.0097590,0.0073680,0.0094640,0.0080000,0.0090640,0.0085710,0.0085710,0.0090640,0.0080000,0.0094640,0.0073680,0.0097590,0.0066950,0.0099390,0.0060000,0.0100000,-0.0060000,0.0100000,0.0000000*
%
%AMMACRO84*
4,1,40,-0.0100000,-0.0060000,-0.0099390,-0.0066950,-0.0097590,-0.0073680,-0.0094640,-0.0080000,-0.0090640,-0.0085710,-0.0085710,-0.0090640,-0.0080000,-0.0094640,-0.0073680,-0.0097590,-0.0066950,-0.0099390,-0.0060000,-0.0100000,0.0060000,-0.0100000,0.0066950,-0.0099390,0.0073680,-0.0097590,0.0080000,-0.0094640,0.0085710,-0.0090640,0.0090640,-0.0085710,0.0094640,-0.0080000,0.0097590,-0.0073680,0.0099390,-0.0066950,0.0100000,-0.0060000,0.0100000,0.0060000,0.0099390,0.0066950,0.0097590,0.0073680,0.0094640,0.0080000,0.0090640,0.0085710,0.0085710,0.0090640,0.0080000,0.0094640,0.0073680,0.0097590,0.0066950,0.0099390,0.0060000,0.0100000,-0.0060000,0.0100000,-0.0066950,0.0099390,-0.0073680,0.0097590,-0.0080000,0.0094640,-0.0085710,0.0090640,-0.0090640,0.0085710,-0.0094640,0.0080000,-0.0097590,0.0073680,-0.0099390,0.0066950,-0.0100000,0.0060000,-0.0100000,-0.0060000,0.0000000*
%
%AMMACRO56*
4,1,40,-0.0113140,0.0028280,-0.0117620,0.0022940,-0.0121110,0.0016900,-0.0123490,0.0010350,-0.0124700,0.0003480,-0.0124700,-0.0003490,-0.0123490,-0.0010360,-0.0121100,-0.0016910,-0.0117620,-0.0022950,-0.0113140,-0.0028280,-0.0028280,-0.0113140,-0.0022940,-0.0117620,-0.0016900,-0.0121110,-0.0010350,-0.0123490,-0.0003480,-0.0124700,0.0003490,-0.0124700,0.0010360,-0.0123490,0.0016910,-0.0121100,0.0022950,-0.0117620,0.0028280,-0.0113140,0.0113140,-0.0028280,0.0117620,-0.0022940,0.0121110,-0.0016900,0.0123490,-0.0010350,0.0124700,-0.0003480,0.0124700,0.0003490,0.0123490,0.0010360,0.0121100,0.0016910,0.0117620,0.0022950,0.0113140,0.0028280,0.0028280,0.0113140,0.0022940,0.0117620,0.0016900,0.0121110,0.0010350,0.0123490,0.0003480,0.0124700,-0.0003490,0.0124700,-0.0010360,0.0123490,-0.0016910,0.0121100,-0.0022950,0.0117620,-0.0028280,0.0113140,-0.0113140,0.0028280,0.0000000*
%
%AMMACRO11*
4,1,40,-0.0110000,0.0175000,-0.0116950,0.0174390,-0.0123680,0.0172590,-0.0130000,0.0169640,-0.0135710,0.0165640,-0.0140640,0.0160710,-0.0144640,0.0155000,-0.0147590,0.0148680,-0.0149390,0.0141950,-0.0150000,0.0135000,-0.0150000,-0.0135000,-0.0149390,-0.0141950,-0.0147590,-0.0148680,-0.0144640,-0.0155000,-0.0140640,-0.0160710,-0.0135710,-0.0165640,-0.0130000,-0.0169640,-0.0123680,-0.0172590,-0.0116950,-0.0174390,-0.0110000,-0.0175000,0.0110000,-0.0175000,0.0116950,-0.0174390,0.0123680,-0.0172590,0.0130000,-0.0169640,0.0135710,-0.0165640,0.0140640,-0.0160710,0.0144640,-0.0155000,0.0147590,-0.0148680,0.0149390,-0.0141950,0.0150000,-0.0135000,0.0150000,0.0135000,0.0149390,0.0141950,0.0147590,0.0148680,0.0144640,0.0155000,0.0140640,0.0160710,0.0135710,0.0165640,0.0130000,0.0169640,0.0123680,0.0172590,0.0116950,0.0174390,0.0110000,0.0175000,-0.0110000,0.0175000,0.0000000*
%
%AMMACRO75_1*
4,1,10,-0.1117700,-0.0708500,-0.1117700,-0.0136000,-0.0922800,-0.0136000,-0.0922800,0.0708500,-0.0537000,0.0708500,0.0537000,0.0708500,0.0922800,0.0708500,0.0922800,-0.0136000,0.1117700,-0.0136000,0.1117700,-0.0708500,-0.1117700,-0.0708500,0.0000000*
%
%AMMACRO185*
4,1,6,0.0255910,0.0528050,0.0255910,0.0272150,0.0188980,0.0272150,0.0188980,-0.0528050,-0.0255910,-0.0528050,-0.0255910,0.0528050,0.0255910,0.0528050,0.0000000*
%
%AMMACRO143*
4,1,6,-0.0528050,0.0255910,-0.0272150,0.0255910,-0.0272150,0.0188980,0.0528050,0.0188980,0.0528050,-0.0255910,-0.0528050,-0.0255910,-0.0528050,0.0255910,0.0000000*
%
%AMMACRO79*
4,1,10,0.0030000,0.0145000,0.0000000,0.0175000,-0.0020000,0.0155000,-0.0030000,0.0145000,-0.0040000,0.0135000,-0.0120000,0.0135000,-0.0120000,-0.0175000,0.0120000,-0.0175000,0.0120000,0.0135000,0.0040000,0.0135000,0.0030000,0.0145000,0.0000000*
%
%AMMACRO137*
20,1,0.0039400,0.0056357,-0.0056357,-0.0056357,0.0056357,0.0000000*
1,1,0.0159400,0.0013930,0.0013930*
1,1,0.0159400,-0.0013930,-0.0013930*
%
%AMMACRO126*
4,1,40,0.0100000,0.0060000,0.0099390,0.0066950,0.0097590,0.0073680,0.0094640,0.0080000,0.0090640,0.0085710,0.0085710,0.0090640,0.0080000,0.0094640,0.0073680,0.0097590,0.0066950,0.0099390,0.0060000,0.0100000,-0.0060000,0.0100000,-0.0066950,0.0099390,-0.0073680,0.0097590,-0.0080000,0.0094640,-0.0085710,0.0090640,-0.0090640,0.0085710,-0.0094640,0.0080000,-0.0097590,0.0073680,-0.0099390,0.0066950,-0.0100000,0.0060000,-0.0100000,-0.0060000,-0.0099390,-0.0066950,-0.0097590,-0.0073680,-0.0094640,-0.0080000,-0.0090640,-0.0085710,-0.0085710,-0.0090640,-0.0080000,-0.0094640,-0.0073680,-0.0097590,-0.0066950,-0.0099390,-0.0060000,-0.0100000,0.0060000,-0.0100000,0.0066950,-0.0099390,0.0073680,-0.0097590,0.0080000,-0.0094640,0.0085710,-0.0090640,0.0090640,-0.0085710,0.0094640,-0.0080000,0.0097590,-0.0073680,0.0099390,-0.0066950,0.0100000,-0.0060000,0.0100000,0.0060000,0.0000000*
%
%AMMACRO131*
4,1,40,-0.0250100,0.0190100,-0.0257050,0.0189490,-0.0263780,0.0187680,-0.0270110,0.0184730,-0.0275820,0.0180730,-0.0280750,0.0175800,-0.0284750,0.0170080,-0.0287690,0.0163760,-0.0289490,0.0157020,-0.0290100,0.0150100,-0.0290100,-0.0150100,-0.0289490,-0.0157050,-0.0287680,-0.0163790,-0.0284730,-0.0170110,-0.0280720,-0.0175820,-0.0275790,-0.0180750,-0.0270070,-0.0184750,-0.0263750,-0.0187690,-0.0257010,-0.0189500,-0.0250100,-0.0190100,0.0250100,-0.0190100,0.0257050,-0.0189490,0.0263780,-0.0187680,0.0270110,-0.0184730,0.0275820,-0.0180730,0.0280750,-0.0175800,0.0284750,-0.0170080,0.0287690,-0.0163760,0.0289490,-0.0157020,0.0290100,-0.0150100,0.0290100,0.0150100,0.0289490,0.0157050,0.0287680,0.0163790,0.0284730,0.0170110,0.0280720,0.0175820,0.0275790,0.0180750,0.0270070,0.0184750,0.0263750,0.0187690,0.0257010,0.0189500,0.0250100,0.0190100,-0.0250100,0.0190100,0.0000000*
%
%AMMACRO124_1*
4,1,40,0.0190100,0.0250100,0.0189490,0.0257050,0.0187680,0.0263780,0.0184730,0.0270110,0.0180730,0.0275820,0.0175800,0.0280750,0.0170080,0.0284750,0.0163760,0.0287690,0.0157020,0.0289490,0.0150100,0.0290100,-0.0150100,0.0290100,-0.0157050,0.0289490,-0.0163790,0.0287680,-0.0170110,0.0284730,-0.0175820,0.0280720,-0.0180750,0.0275790,-0.0184750,0.0270070,-0.0187690,0.0263750,-0.0189500,0.0257010,-0.0190100,0.0250100,-0.0190100,-0.0250100,-0.0189490,-0.0257050,-0.0187680,-0.0263780,-0.0184730,-0.0270110,-0.0180730,-0.0275820,-0.0175800,-0.0280750,-0.0170080,-0.0284750,-0.0163760,-0.0287690,-0.0157020,-0.0289490,-0.0150100,-0.0290100,0.0150100,-0.0290100,0.0157050,-0.0289490,0.0163790,-0.0287680,0.0170110,-0.0284730,0.0175820,-0.0280720,0.0180750,-0.0275790,0.0184750,-0.0270070,0.0187690,-0.0263750,0.0189500,-0.0257010,0.0190100,-0.0250100,0.0190100,0.0250100,0.0000000*
%
%AMMACRO91*
4,1,40,0.0060000,-0.0100000,0.0066950,-0.0099390,0.0073680,-0.0097590,0.0080000,-0.0094640,0.0085710,-0.0090640,0.0090640,-0.0085710,0.0094640,-0.0080000,0.0097590,-0.0073680,0.0099390,-0.0066950,0.0100000,-0.0060000,0.0100000,0.0060000,0.0099390,0.0066950,0.0097590,0.0073680,0.0094640,0.0080000,0.0090640,0.0085710,0.0085710,0.0090640,0.0080000,0.0094640,0.0073680,0.0097590,0.0066950,0.0099390,0.0060000,0.0100000,-0.0060000,0.0100000,-0.0066950,0.0099390,-0.0073680,0.0097590,-0.0080000,0.0094640,-0.0085710,0.0090640,-0.0090640,0.0085710,-0.0094640,0.0080000,-0.0097590,0.0073680,-0.0099390,0.0066950,-0.0100000,0.0060000,-0.0100000,-0.0060000,-0.0099390,-0.0066950,-0.0097590,-0.0073680,-0.0094640,-0.0080000,-0.0090640,-0.0085710,-0.0085710,-0.0090640,-0.0080000,-0.0094640,-0.0073680,-0.0097590,-0.0066950,-0.0099390,-0.0060000,-0.0100000,0.0060000,-0.0100000,0.0000000*
%
%AMMACRO29*
4,1,40,0.0110000,-0.0175000,0.0116950,-0.0174390,0.0123680,-0.0172590,0.0130000,-0.0169640,0.0135710,-0.0165640,0.0140640,-0.0160710,0.0144640,-0.0155000,0.0147590,-0.0148680,0.0149390,-0.0141950,0.0150000,-0.0135000,0.0150000,0.0135000,0.0149390,0.0141950,0.0147590,0.0148680,0.0144640,0.0155000,0.0140640,0.0160710,0.0135710,0.0165640,0.0130000,0.0169640,0.0123680,0.0172590,0.0116950,0.0174390,0.0110000,0.0175000,-0.0110000,0.0175000,-0.0116950,0.0174390,-0.0123680,0.0172590,-0.0130000,0.0169640,-0.0135710,0.0165640,-0.0140640,0.0160710,-0.0144640,0.0155000,-0.0147590,0.0148680,-0.0149390,0.0141950,-0.0150000,0.0135000,-0.0150000,-0.0135000,-0.0149390,-0.0141950,-0.0147590,-0.0148680,-0.0144640,-0.0155000,-0.0140640,-0.0160710,-0.0135710,-0.0165640,-0.0130000,-0.0169640,-0.0123680,-0.0172590,-0.0116950,-0.0174390,-0.0110000,-0.0175000,0.0110000,-0.0175000,0.0000000*
%
%AMMACRO17_1*
4,1,40,-0.0060000,-0.0080000,-0.0065210,-0.0079540,-0.0070260,-0.0078190,-0.0075000,-0.0075980,-0.0079280,-0.0072980,-0.0082980,-0.0069280,-0.0085980,-0.0065000,-0.0088190,-0.0060260,-0.0089540,-0.0055210,-0.0090000,-0.0050000,-0.0090000,0.0050000,-0.0089540,0.0055210,-0.0088190,0.0060260,-0.0085980,0.0065000,-0.0082980,0.0069280,-0.0079280,0.0072980,-0.0075000,0.0075980,-0.0070260,0.0078190,-0.0065210,0.0079540,-0.0060000,0.0080000,0.0060000,0.0080000,0.0065210,0.0079540,0.0070260,0.0078190,0.0075000,0.0075980,0.0079280,0.0072980,0.0082980,0.0069280,0.0085980,0.0065000,0.0088190,0.0060260,0.0089540,0.0055210,0.0090000,0.0050000,0.0090000,-0.0050000,0.0089540,-0.0055210,0.0088190,-0.0060260,0.0085980,-0.0065000,0.0082980,-0.0069280,0.0079280,-0.0072980,0.0075000,-0.0075980,0.0070260,-0.0078190,0.0065210,-0.0079540,0.0060000,-0.0080000,-0.0060000,-0.0080000,0.0000000*
%
%AMMACRO47*
4,1,40,-0.0080000,0.0060000,-0.0079540,0.0065210,-0.0078190,0.0070260,-0.0075980,0.0075000,-0.0072980,0.0079280,-0.0069280,0.0082980,-0.0065000,0.0085980,-0.0060260,0.0088190,-0.0055210,0.0089540,-0.0050000,0.0090000,0.0050000,0.0090000,0.0055210,0.0089540,0.0060260,0.0088190,0.0065000,0.0085980,0.0069280,0.0082980,0.0072980,0.0079280,0.0075980,0.0075000,0.0078190,0.0070260,0.0079540,0.0065210,0.0080000,0.0060000,0.0080000,-0.0060000,0.0079540,-0.0065210,0.0078190,-0.0070260,0.0075980,-0.0075000,0.0072980,-0.0079280,0.0069280,-0.0082980,0.0065000,-0.0085980,0.0060260,-0.0088190,0.0055210,-0.0089540,0.0050000,-0.0090000,-0.0050000,-0.0090000,-0.0055210,-0.0089540,-0.0060260,-0.0088190,-0.0065000,-0.0085980,-0.0069280,-0.0082980,-0.0072980,-0.0079280,-0.0075980,-0.0075000,-0.0078190,-0.0070260,-0.0079540,-0.0065210,-0.0080000,-0.0060000,-0.0080000,0.0060000,0.0000000*
%
%AMMACRO83*
4,1,10,-0.0708500,0.1117700,-0.0136000,0.1117700,-0.0136000,0.0922800,0.0708500,0.0922800,0.0708500,0.0537000,0.0708500,-0.0537000,0.0708500,-0.0922800,-0.0136000,-0.0922800,-0.0136000,-0.1117700,-0.0708500,-0.1117700,-0.0708500,0.1117700,0.0000000*
%
%AMMACRO184*
4,1,10,-0.0372070,-0.0900630,-0.0372070,0.0644720,-0.0431120,0.0644720,-0.0431120,0.0900630,0.0297220,0.0900630,0.0297220,0.0735280,0.0431120,0.0735280,0.0431120,-0.0538030,0.0055060,-0.0538030,0.0055060,-0.0900630,-0.0372070,-0.0900630,0.0000000*
%
%AMMACRO142*
4,1,10,0.0900630,-0.0372070,-0.0644720,-0.0372070,-0.0644720,-0.0431120,-0.0900630,-0.0431120,-0.0900630,0.0297220,-0.0735280,0.0297220,-0.0735280,0.0431120,0.0538030,0.0431120,0.0538030,0.0055060,0.0900630,0.0055060,0.0900630,-0.0372070,0.0000000*
%
%AMMACRO155*
20,1,0.0250000,-0.0106066,-0.0106066,0.0106066,0.0106066,0.0000000*
%
%AMMACRO78*
4,1,10,-0.0030000,-0.0145000,0.0000000,-0.0175000,0.0020000,-0.0155000,0.0030000,-0.0145000,0.0040000,-0.0135000,0.0120000,-0.0135000,0.0120000,0.0175000,-0.0120000,0.0175000,-0.0120000,-0.0135000,-0.0040000,-0.0135000,-0.0030000,-0.0145000,0.0000000*
%
%AMMACRO151_1*
4,1,40,0.0050000,-0.0130000,0.0049700,-0.0133470,0.0048790,-0.0136840,0.0047320,-0.0140000,0.0045320,-0.0142860,0.0042860,-0.0145320,0.0040000,-0.0147320,0.0036840,-0.0148790,0.0033470,-0.0149700,0.0030000,-0.0150000,-0.0030000,-0.0150000,-0.0033470,-0.0149700,-0.0036840,-0.0148790,-0.0040000,-0.0147320,-0.0042860,-0.0145320,-0.0045320,-0.0142860,-0.0047320,-0.0140000,-0.0048790,-0.0136840,-0.0049700,-0.0133470,-0.0050000,-0.0130000,-0.0050000,0.0130000,-0.0049700,0.0133470,-0.0048790,0.0136840,-0.0047320,0.0140000,-0.0045320,0.0142860,-0.0042860,0.0145320,-0.0040000,0.0147320,-0.0036840,0.0148790,-0.0033470,0.0149700,-0.0030000,0.0150000,0.0030000,0.0150000,0.0033470,0.0149700,0.0036840,0.0148790,0.0040000,0.0147320,0.0042860,0.0145320,0.0045320,0.0142860,0.0047320,0.0140000,0.0048790,0.0136840,0.0049700,0.0133470,0.0050000,0.0130000,0.0050000,-0.0130000,0.0000000*
%
%AMMACRO127_1*
4,1,40,-0.0130000,-0.0050000,-0.0133470,-0.0049700,-0.0136840,-0.0048790,-0.0140000,-0.0047320,-0.0142860,-0.0045320,-0.0145320,-0.0042860,-0.0147320,-0.0040000,-0.0148790,-0.0036840,-0.0149700,-0.0033470,-0.0150000,-0.0030000,-0.0150000,0.0030000,-0.0149700,0.0033470,-0.0148790,0.0036840,-0.0147320,0.0040000,-0.0145320,0.0042860,-0.0142860,0.0045320,-0.0140000,0.0047320,-0.0136840,0.0048790,-0.0133470,0.0049700,-0.0130000,0.0050000,0.0130000,0.0050000,0.0133470,0.0049700,0.0136840,0.0048790,0.0140000,0.0047320,0.0142860,0.0045320,0.0145320,0.0042860,0.0147320,0.0040000,0.0148790,0.0036840,0.0149700,0.0033470,0.0150000,0.0030000,0.0150000,-0.0030000,0.0149700,-0.0033470,0.0148790,-0.0036840,0.0147320,-0.0040000,0.0145320,-0.0042860,0.0142860,-0.0045320,0.0140000,-0.0047320,0.0136840,-0.0048790,0.0133470,-0.0049700,0.0130000,-0.0050000,-0.0130000,-0.0050000,0.0000000*
%
%AMMACRO160*
4,1,4,0.0100000,0.0250000,0.0100000,-0.0250000,-0.0100000,-0.0250000,-0.0100000,0.0250000,0.0100000,0.0250000,0.0000000*
%
%AMMACRO46*
4,1,4,0.0250000,-0.0100000,-0.0250000,-0.0100000,-0.0250000,0.0100000,0.0250000,0.0100000,0.0250000,-0.0100000,0.0000000*
%
%AMMACRO140*
20,1,0.0039400,-0.0056357,-0.0056357,0.0056357,0.0056357,0.0000000*
1,1,0.0159400,0.0013930,-0.0013930*
1,1,0.0159400,-0.0013930,0.0013930*
%
%AMMACRO41*
4,1,40,0.0250100,-0.0190100,0.0257050,-0.0189490,0.0263780,-0.0187680,0.0270110,-0.0184730,0.0275820,-0.0180730,0.0280750,-0.0175800,0.0284750,-0.0170080,0.0287690,-0.0163760,0.0289490,-0.0157020,0.0290100,-0.0150100,0.0290100,0.0150100,0.0289490,0.0157050,0.0287680,0.0163790,0.0284730,0.0170110,0.0280720,0.0175820,0.0275790,0.0180750,0.0270070,0.0184750,0.0263750,0.0187690,0.0257010,0.0189500,0.0250100,0.0190100,-0.0250100,0.0190100,-0.0257050,0.0189490,-0.0263780,0.0187680,-0.0270110,0.0184730,-0.0275820,0.0180730,-0.0280750,0.0175800,-0.0284750,0.0170080,-0.0287690,0.0163760,-0.0289490,0.0157020,-0.0290100,0.0150100,-0.0290100,-0.0150100,-0.0289490,-0.0157050,-0.0287680,-0.0163790,-0.0284730,-0.0170110,-0.0280720,-0.0175820,-0.0275790,-0.0180750,-0.0270070,-0.0184750,-0.0263750,-0.0187690,-0.0257010,-0.0189500,-0.0250100,-0.0190100,0.0250100,-0.0190100,0.0000000*
%
%AMMACRO54*
4,1,40,-0.0190100,-0.0250100,-0.0189490,-0.0257050,-0.0187680,-0.0263780,-0.0184730,-0.0270110,-0.0180730,-0.0275820,-0.0175800,-0.0280750,-0.0170080,-0.0284750,-0.0163760,-0.0287690,-0.0157020,-0.0289490,-0.0150100,-0.0290100,0.0150100,-0.0290100,0.0157050,-0.0289490,0.0163790,-0.0287680,0.0170110,-0.0284730,0.0175820,-0.0280720,0.0180750,-0.0275790,0.0184750,-0.0270070,0.0187690,-0.0263750,0.0189500,-0.0257010,0.0190100,-0.0250100,0.0190100,0.0250100,0.0189490,0.0257050,0.0187680,0.0263780,0.0184730,0.0270110,0.0180730,0.0275820,0.0175800,0.0280750,0.0170080,0.0284750,0.0163760,0.0287690,0.0157020,0.0289490,0.0150100,0.0290100,-0.0150100,0.0290100,-0.0157050,0.0289490,-0.0163790,0.0287680,-0.0170110,0.0284730,-0.0175820,0.0280720,-0.0180750,0.0275790,-0.0184750,0.0270070,-0.0187690,0.0263750,-0.0189500,0.0257010,-0.0190100,0.0250100,-0.0190100,-0.0250100,0.0000000*
%
%AMMACRO30*
4,1,40,-0.0175000,-0.0110000,-0.0174390,-0.0116950,-0.0172590,-0.0123680,-0.0169640,-0.0130000,-0.0165640,-0.0135710,-0.0160710,-0.0140640,-0.0155000,-0.0144640,-0.0148680,-0.0147590,-0.0141950,-0.0149390,-0.0135000,-0.0150000,0.0135000,-0.0150000,0.0141950,-0.0149390,0.0148680,-0.0147590,0.0155000,-0.0144640,0.0160710,-0.0140640,0.0165640,-0.0135710,0.0169640,-0.0130000,0.0172590,-0.0123680,0.0174390,-0.0116950,0.0175000,-0.0110000,0.0175000,0.0110000,0.0174390,0.0116950,0.0172590,0.0123680,0.0169640,0.0130000,0.0165640,0.0135710,0.0160710,0.0140640,0.0155000,0.0144640,0.0148680,0.0147590,0.0141950,0.0149390,0.0135000,0.0150000,-0.0135000,0.0150000,-0.0141950,0.0149390,-0.0148680,0.0147590,-0.0155000,0.0144640,-0.0160710,0.0140640,-0.0165640,0.0135710,-0.0169640,0.0130000,-0.0172590,0.0123680,-0.0174390,0.0116950,-0.0175000,0.0110000,-0.0175000,-0.0110000,0.0000000*
%
%AMMACRO35*
4,1,40,0.0060000,0.0080000,0.0065210,0.0079540,0.0070260,0.0078190,0.0075000,0.0075980,0.0079280,0.0072980,0.0082980,0.0069280,0.0085980,0.0065000,0.0088190,0.0060260,0.0089540,0.0055210,0.0090000,0.0050000,0.0090000,-0.0050000,0.0089540,-0.0055210,0.0088190,-0.0060260,0.0085980,-0.0065000,0.0082980,-0.0069280,0.0079280,-0.0072980,0.0075000,-0.0075980,0.0070260,-0.0078190,0.0065210,-0.0079540,0.0060000,-0.0080000,-0.0060000,-0.0080000,-0.0065210,-0.0079540,-0.0070260,-0.0078190,-0.0075000,-0.0075980,-0.0079280,-0.0072980,-0.0082980,-0.0069280,-0.0085980,-0.0065000,-0.0088190,-0.0060260,-0.0089540,-0.0055210,-0.0090000,-0.0050000,-0.0090000,0.0050000,-0.0089540,0.0055210,-0.0088190,0.0060260,-0.0085980,0.0065000,-0.0082980,0.0069280,-0.0079280,0.0072980,-0.0075000,0.0075980,-0.0070260,0.0078190,-0.0065210,0.0079540,-0.0060000,0.0080000,0.0060000,0.0080000,0.0000000*
%
%AMMACRO22_1*
4,1,40,0.0080000,-0.0060000,0.0079540,-0.0065210,0.0078190,-0.0070260,0.0075980,-0.0075000,0.0072980,-0.0079280,0.0069280,-0.0082980,0.0065000,-0.0085980,0.0060260,-0.0088190,0.0055210,-0.0089540,0.0050000,-0.0090000,-0.0050000,-0.0090000,-0.0055210,-0.0089540,-0.0060260,-0.0088190,-0.0065000,-0.0085980,-0.0069280,-0.0082980,-0.0072980,-0.0079280,-0.0075980,-0.0075000,-0.0078190,-0.0070260,-0.0079540,-0.0065210,-0.0080000,-0.0060000,-0.0080000,0.0060000,-0.0079540,0.0065210,-0.0078190,0.0070260,-0.0075980,0.0075000,-0.0072980,0.0079280,-0.0069280,0.0082980,-0.0065000,0.0085980,-0.0060260,0.0088190,-0.0055210,0.0089540,-0.0050000,0.0090000,0.0050000,0.0090000,0.0055210,0.0089540,0.0060260,0.0088190,0.0065000,0.0085980,0.0069280,0.0082980,0.0072980,0.0079280,0.0075980,0.0075000,0.0078190,0.0070260,0.0079540,0.0065210,0.0080000,0.0060000,0.0080000,-0.0060000,0.0000000*
%
%AMMACRO97*
20,1,0.0200000,0.0106066,-0.0106066,-0.0106066,0.0106066,0.0000000*
1,1,0.0200000,-0.0106070,0.0106070*
1,1,0.0200000,0.0106070,-0.0106070*
%
%ADD11C,0.00500*%
%ADD20C,0.00984*%
%ADD26C,0.01181*%
%ADD37R,0.02500X0.02000*%
%ADD52R,0.01378X0.02362*%
%ADD65O,0.01181X0.00591*%
%ADD66O,0.00591X0.01181*%
%ADD68O,0.01181X0.00787*%
%ADD69O,0.00787X0.01181*%
%ADD77MACRO21_1*%
%ADD93O,0.02000X0.05000*%
%ADD94O,0.05000X0.02000*%
%ADD97R,0.03000X0.01600*%
%ADD100R,0.01600X0.03000*%
%ADD126O,0.06201X0.11122*%
%ADD163O,0.01791X0.01240*%
%ADD164O,0.01240X0.01791*%
%ADD165R,0.03100X0.03100*%
%ADD167C,0.01083*%
%ADD170C,0.01634*%
%ADD171R,0.04724X0.01181*%
%ADD172R,0.01181X0.04724*%
%ADD174R,0.02362X0.01378*%
%ADD177O,0.00984X0.00591*%
%ADD178R,0.09055X0.05906*%
%ADD179MACRO88*%
%ADD180MACRO84*%
%ADD181MACRO56*%
%ADD182O,0.00591X0.00984*%
%ADD183R,0.05906X0.09055*%
%ADD186MACRO11*%
%ADD201O,0.06000X0.10400*%
%ADD202O,0.06000X0.12300*%
%ADD203O,0.05300X0.12200*%
%ADD204O,0.05300X0.12400*%
%ADD205O,0.04500X0.10800*%
%ADD206C,0.12000*%
%ADD207C,0.13000*%
%ADD208O,0.09600X0.13300*%
%ADD209O,0.06900X0.11600*%
%ADD210C,0.24200*%
%ADD211R,0.11500X0.08700*%
%ADD212C,0.12600*%
%ADD213C,0.13500*%
%ADD215C,0.17342*%
%ADD216C,0.16437*%
%ADD217O,0.11721X0.08374*%
%ADD221R,0.02200X0.03000*%
%ADD223R,0.02500X0.03000*%
%ADD225R,0.03000X0.02500*%
%ADD227O,0.05300X0.06300*%
%ADD229R,0.04500X0.05200*%
%ADD230O,0.03700X0.04500*%
%ADD231R,0.03000X0.08500*%
%ADD232C,0.05000*%
%ADD233O,0.09600X0.08000*%
%ADD234C,0.06000*%
%ADD235O,0.08000X0.09600*%
%ADD236C,0.07000*%
%ADD237O,0.04900X0.09200*%
%ADD238C,0.08000*%
%ADD239C,0.09000*%
%ADD240C,0.04500*%
%ADD241O,0.04900X0.08500*%
%ADD243C,0.06500*%
%ADD244C,0.07500*%
%ADD245C,0.05700*%
%ADD246C,0.04900*%
%ADD247C,0.08500*%
%ADD248C,0.08900*%
%ADD249R,0.05700X0.05700*%
%ADD250C,0.06098*%
%ADD251C,0.04598*%
%ADD252C,0.07587*%
%ADD256R,0.10500X0.02000*%
%ADD257MACRO75_1*%
%ADD258MACRO185*%
%ADD259MACRO143*%
%ADD260R,0.11400X0.05300*%
%ADD261O,0.06700X0.14000*%
%ADD262R,0.05300X0.11400*%
%ADD263R,0.30100X0.08400*%
%ADD264R,0.15500X0.03300*%
%ADD265R,0.08400X0.30100*%
%ADD266R,0.03300X0.15500*%
%ADD267R,0.05500X0.12500*%
%ADD268R,0.08400X0.11600*%
%ADD269C,0.20500*%
%ADD270R,0.08700X0.11500*%
%ADD271R,0.07600X0.28100*%
%ADD272MACRO79*%
%ADD273R,0.11400X0.11400*%
%ADD274R,0.10800X0.10800*%
%ADD275R,0.19000X0.19000*%
%ADD276R,0.18700X0.18700*%
%ADD277R,0.27900X0.27900*%
%ADD278R,0.22953X0.22953*%
%ADD279MACRO137*%
%ADD280MACRO126*%
%ADD281MACRO131*%
%ADD282MACRO124_1*%
%ADD283MACRO91*%
%ADD284MACRO29*%
%ADD285MACRO17_1*%
%ADD286MACRO47*%
%ADD287O,0.03100X0.01300*%
%ADD288MACRO83*%
%ADD289R,0.13500X0.10000*%
%ADD290R,0.10000X0.13500*%
%ADD291O,0.01300X0.03100*%
%ADD292R,0.03000X0.01200*%
%ADD293R,0.01200X0.03000*%
%ADD294R,0.03000X0.02200*%
%ADD295R,0.01200X0.03300*%
%ADD296MACRO184*%
%ADD297MACRO142*%
%ADD298R,0.03400X0.02000*%
%ADD299R,0.03300X0.01200*%
%ADD300MACRO155*%
%ADD301R,0.01300X0.03300*%
%ADD302R,0.02000X0.03400*%
%ADD303R,0.02400X0.01400*%
%ADD304R,0.03300X0.01300*%
%ADD305R,0.01400X0.02400*%
%ADD306R,0.03300X0.01500*%
%ADD307R,0.06100X0.05000*%
%ADD308O,0.02600X0.05100*%
%ADD309O,0.03600X0.01500*%
%ADD310R,0.03000X0.04400*%
%ADD311R,0.02600X0.03100*%
%ADD312R,0.05000X0.06100*%
%ADD313R,0.01600X0.04100*%
%ADD314R,0.01500X0.03300*%
%ADD315O,0.03700X0.01500*%
%ADD316O,0.01500X0.03600*%
%ADD317R,0.03100X0.02600*%
%ADD318R,0.01200X0.05500*%
%ADD319O,0.02500X0.06400*%
%ADD320O,0.01500X0.03700*%
%ADD321R,0.05500X0.01200*%
%ADD322R,0.06000X0.01600*%
%ADD323R,0.01600X0.06000*%
%ADD324R,0.02400X0.01800*%
%ADD325R,0.02900X0.01300*%
%ADD326R,0.02600X0.01600*%
%ADD327R,0.01600X0.02600*%
%ADD328R,0.01300X0.02900*%
%ADD329R,0.01800X0.02400*%
%ADD330O,0.02800X0.03500*%
%ADD331R,0.02500X0.01700*%
%ADD332R,0.08500X0.03000*%
%ADD333R,0.05200X0.04500*%
%ADD334R,0.02300X0.06500*%
%ADD335R,0.06400X0.05200*%
%ADD336R,0.02500X0.04500*%
%ADD337R,0.05700X0.03300*%
%ADD338R,0.05200X0.06400*%
%ADD339R,0.01900X0.05200*%
%ADD340R,0.03300X0.05700*%
%ADD341R,0.06700X0.01600*%
%ADD342C,0.01600*%
%ADD343R,0.01700X0.08400*%
%ADD344R,0.01700X0.03900*%
%ADD345MACRO78*%
%ADD346R,0.01600X0.06700*%
%ADD347R,0.06800X0.03500*%
%ADD348R,0.02900X0.06500*%
%ADD349R,0.03500X0.06800*%
%ADD350R,0.05900X0.02900*%
%ADD351R,0.04000X0.04000*%
%ADD352C,0.01184*%
%ADD353MACRO151_1*%
%ADD354MACRO127_1*%
%ADD355MACRO160*%
%ADD356MACRO46*%
%ADD357R,0.01969X0.03445*%
%ADD358MACRO140*%
%ADD359R,0.04331X0.06693*%
%ADD360MACRO41*%
%ADD361MACRO54*%
%ADD362MACRO30*%
%ADD363MACRO35*%
%ADD364MACRO22_1*%
%ADD365MACRO97*%
%LNSOLDERMASKTOP.art*%
%LPD*%
G36*
X-62724Y-791102D02*
G01Y-788898D01*
X-60717*
Y-791102*
X-62724*
G37*
G36*
X-75283D02*
G01Y-788898D01*
X-73276*
Y-791102*
X-75283*
G37*
G36*
X-65165Y-784961D02*
G01Y-782402D01*
X-63197*
Y-784961*
X-65165*
G37*
G36*
X-72803D02*
G01Y-782402D01*
X-70835*
Y-784961*
X-72803*
G37*
G36*
X-67724D02*
G01Y-782402D01*
X-65717*
Y-784961*
X-67724*
G37*
G36*
X-70283D02*
G01Y-782402D01*
X-68276*
Y-784961*
X-70283*
G37*
G36*
X-364000Y-785000D02*
G01Y-780000D01*
X-360000*
Y-785000*
X-364000*
G37*
G36*
X-371000D02*
G01Y-780000D01*
X-367000*
Y-785000*
X-371000*
G37*
G36*
X-332500Y19500D02*
G01Y23500D01*
X-327500*
Y19500*
X-332500*
G37*
G36*
Y12500D02*
G01Y16500D01*
X-327500*
Y12500*
X-332500*
G37*
G36*
X-889000Y-108000D02*
G01Y-104000D01*
X-884000*
Y-108000*
X-889000*
G37*
G36*
Y-115000D02*
G01Y-111000D01*
X-884000*
Y-115000*
X-889000*
G37*
G36*
X-7899Y-814396D02*
G01X-6249Y-810429D01*
G75*
G03X-435Y-813245I6216J5424*
G01X-108Y-814443*
X-7842*
X-7899Y-814396*
G37*
G36*
X7780Y-807813D02*
G03X8268Y-805016I-7763J2796D01*
X7928Y-802671I-8251J1*
G01X7560Y-801683*
X10611Y-798969*
X10950Y-799488*
G02X12268Y-805016I-10933J-5528*
X12033Y-807403I-12253J1*
G01X7780Y-807813*
G37*
G36*
X-623702Y78297D02*
G01X-623696Y82593D01*
G03X-617247Y82216I3668J7390*
G01X-614711Y78948*
G02X-623702Y78297I-5318J11037*
G37*
G36*
Y-531703D02*
G01X-623696Y-527407D01*
G03X-617247Y-527784I3668J7390*
G01X-614711Y-531052*
G02X-623702Y-531703I-5318J11037*
G37*
G36*
X-803702Y78297D02*
G01X-803696Y82593D01*
G03X-797247Y82216I3668J7390*
G01X-794711Y78948*
G02X-803702Y78297I-5318J11037*
G37*
G36*
X-883702Y-531703D02*
G01X-883696Y-527407D01*
G03X-877247Y-527784I3668J7390*
G01X-874711Y-531052*
G02X-883702Y-531703I-5318J11037*
G37*
G36*
X7407Y-3696D02*
G03X8267Y-28I-7390J3668D01*
X7784Y2753I-8251J-1*
G01X11052Y5289*
G02X12266Y-29I-11037J-5317*
X11703Y-3702I-12251J-2*
G01X7407Y-3696*
G37*
G36*
Y-523696D02*
G03X8267Y-520028I-7390J3668D01*
X7784Y-517247I-8251J-1*
G01X11052Y-514711*
G02X12266Y-520029I-11037J-5317*
X11703Y-523702I-12251J-2*
G01X7407Y-523696*
G37*
G36*
X1283Y-813147D02*
G01X1561Y-813101D01*
X1983Y-813000*
G03X6501Y-810103I-1953J8017*
G01X6512Y-810106*
X6872Y-809646*
X9027Y-810396*
X10622Y-811140*
G02X7814Y-814443I-10590J6158*
G01X2764*
X2446Y-814175*
X1283Y-813147*
G37*
G36*
X-625001Y-508817D02*
G02X-615988Y-508425I5001J-11182D01*
G01X-616037Y-512763*
G03X-622111Y-512024I-3962J-7236*
G01X-625001Y-508817*
G37*
G36*
Y-793817D02*
G02X-615988Y-793425I5001J-11182D01*
G01X-616037Y-797763*
G03X-622111Y-797024I-3962J-7236*
G01X-625001Y-793817*
G37*
G36*
X-885001Y-508817D02*
G02X-875988Y-508425I5001J-11182D01*
G01X-876037Y-512763*
G03X-882111Y-512024I-3962J-7236*
G01X-885001Y-508817*
G37*
G36*
X-625001Y101183D02*
G02X-615988Y101575I5001J-11182D01*
G01X-616037Y97237*
G03X-622111Y97976I-3962J-7236*
G01X-625001Y101183*
G37*
G36*
X-805001D02*
G02X-795988Y101575I5001J-11182D01*
G01X-796037Y97237*
G03X-802111Y97976I-3962J-7236*
G01X-805001Y101183*
G37*
G36*
X-12251Y0D02*
G02X-11575Y4012I12249J-1D01*
G01X-7237Y3963*
G03X-8251Y1I7236J-3963*
X-7976Y-2111I8250J0*
G01X-11183Y-5001*
G02X-12251Y0I11181J5002*
G37*
G36*
Y-520000D02*
G02X-11575Y-515988I12249J-1D01*
G01X-7237Y-516037*
G03X-8251Y-519999I7236J-3963*
X-7976Y-522111I8250J0*
G01X-11183Y-525001*
G02X-12251Y-520000I11181J5002*
G37*
G36*
X-12255Y-804988D02*
G02X-12254Y-804844I12251J-13D01*
X-12251Y-804700I12250J-183*
X-12241Y-804411I12248J-279*
G01X-12186Y-803689*
X-9696Y-802758*
X-7667Y-801972*
X-8018Y-803022*
G03X-8256Y-804989I8012J-1967*
X-7740Y-807860I8250J1*
G01X-7578Y-808210*
X-8331Y-809382*
X-10267Y-811783*
X-10481Y-811336*
X-10482*
G02X-12255Y-804988I10478J6348*
G37*
G36*
X-72173Y-792362D02*
G01Y-786102D01*
X-63827*
Y-792362*
X-72173*
G37*
G36*
X-615697Y82964D02*
G01X-615458Y83113D01*
X-615107Y83368*
G03X-612041Y87773I-4871J6660*
G01X-612030Y87775*
X-611873Y88338*
X-609595Y88469*
X-607837Y88392*
G02X-610535Y82224I-12140J1636*
G01X-611146Y81487*
X-614229Y82459*
X-615697Y82964*
G37*
G36*
Y-527036D02*
G01X-615458Y-526887D01*
X-615107Y-526632*
G03X-612041Y-522227I-4871J6660*
G01X-612030Y-522225*
X-611873Y-521662*
X-609595Y-521531*
X-607837Y-521608*
G02X-610535Y-527776I-12140J1636*
G01X-611146Y-528513*
X-614229Y-527541*
X-615697Y-527036*
G37*
G36*
Y-812036D02*
G01X-615458Y-811887D01*
X-615107Y-811632*
G03X-612041Y-807227I-4871J6660*
G01X-612030Y-807225*
X-611873Y-806662*
X-609595Y-806531*
X-607837Y-806608*
G02X-610535Y-812776I-12140J1636*
G01X-611146Y-813513*
X-614229Y-812541*
X-615697Y-812036*
G37*
G36*
X-795697Y82964D02*
G01X-795458Y83113D01*
X-795107Y83368*
G03X-792041Y87773I-4871J6660*
G01X-792030Y87775*
X-791873Y88338*
X-789595Y88469*
X-787837Y88392*
G02X-790535Y82224I-12140J1636*
G01X-791146Y81487*
X-794229Y82459*
X-795697Y82964*
G37*
G36*
X-875697Y-527036D02*
G01X-875458Y-526887D01*
X-875107Y-526632*
G03X-872041Y-522227I-4871J6660*
G01X-872030Y-522225*
X-871873Y-521662*
X-869595Y-521531*
X-867837Y-521608*
G02X-870535Y-527776I-12140J1636*
G01X-871146Y-528513*
X-874229Y-527541*
X-875697Y-527036*
G37*
G36*
X1531Y10405D02*
G01X1608Y12163D01*
G02X7776Y9465I-1636J-12140*
G01X8513Y8854*
X7541Y5771*
X7036Y4303*
X6887Y4542*
X6632Y4893*
G03X2227Y7959I-6660J-4872*
G01X2225Y7970*
X1662Y8127*
X1531Y10405*
G37*
G36*
Y-509595D02*
G01X1608Y-507837D01*
G02X7776Y-510535I-1636J-12140*
G01X8513Y-511146*
X7541Y-514229*
X7036Y-515697*
X6887Y-515458*
X6632Y-515107*
G03X2227Y-512041I-6660J-4872*
G01X2225Y-512030*
X1662Y-511873*
X1531Y-509595*
G37*
G36*
X-631760Y-808452D02*
G01X-629816Y-806639D01*
X-628242Y-805136*
X-628164Y-806241*
G03X-626056Y-810604I8154J1249*
G01X-625773Y-810866*
X-626020Y-812237*
X-626656Y-814401*
X-627853*
G02X-631535Y-809140I7846J9410*
G01X-631760Y-808452*
G37*
G36*
X-9633Y7495D02*
G01X-9283Y8007D01*
G02X-2385Y12037I9291J-7985*
G01X-378Y8264*
G03X-5186Y6433I386J-8242*
G01X-5958Y5715*
X-9633Y7495*
G37*
G36*
Y-512505D02*
G01X-9283Y-511993D01*
G02X-2385Y-507963I9291J-7985*
G01X-378Y-511736*
G03X-5186Y-513567I386J-8242*
G01X-5958Y-514285*
X-9633Y-512505*
G37*
G36*
X-614285Y95958D02*
G01X-612505Y99633D01*
X-611993Y99283*
G02X-607963Y92385I-7985J-9291*
G01X-611736Y90378*
G03X-613567Y95186I-8242J-386*
G01X-614285Y95958*
G37*
G36*
Y-514042D02*
G01X-612505Y-510367D01*
X-611993Y-510717*
G02X-607963Y-517615I-7985J-9291*
G01X-611736Y-519622*
G03X-613567Y-514814I-8242J-386*
G01X-614285Y-514042*
G37*
G36*
Y-799042D02*
G01X-612505Y-795367D01*
X-611993Y-795717*
G02X-607963Y-802615I-7985J-9291*
G01X-611736Y-804622*
G03X-613567Y-799814I-8242J-386*
G01X-614285Y-799042*
G37*
G36*
X-794285Y95958D02*
G01X-792505Y99633D01*
X-791993Y99283*
G02X-787963Y92385I-7985J-9291*
G01X-791736Y90378*
G03X-793567Y95186I-8242J-386*
G01X-794285Y95958*
G37*
G36*
X-874285Y-514042D02*
G01X-872505Y-510367D01*
X-871993Y-510717*
G02X-867963Y-517615I-7985J-9291*
G01X-871736Y-519622*
G03X-873567Y-514814I-8242J-386*
G01X-874285Y-514042*
G37*
G36*
X-341Y-792754D02*
G02X8136Y-795841I341J-12245D01*
G01X6431Y-799830*
G03X1102Y-796823I-6430J-5170*
G01X-341Y-792754*
G37*
G36*
X136Y-8242D02*
G01X1241Y-8164D01*
G03X5604Y-6056I-1249J8154*
G01X5866Y-5773*
X7237Y-6020*
X10196Y-6890*
X9865Y-7259*
Y-7260*
G02X4140Y-11535I-9874J7252*
G01X3452Y-11760*
X1639Y-9816*
X136Y-8242*
G37*
G36*
Y-528242D02*
G01X1241Y-528164D01*
G03X5604Y-526056I-1249J8154*
G01X5866Y-525773*
X7237Y-526020*
X10196Y-526890*
X9865Y-527259*
Y-527260*
G02X4140Y-531535I-9874J7252*
G01X3452Y-531760*
X1639Y-529816*
X136Y-528242*
G37*
G36*
X-631760Y86548D02*
G01X-629816Y88361D01*
X-628242Y89864*
X-628164Y88759*
G03X-626056Y84396I8154J1249*
G01X-625773Y84134*
X-626020Y82763*
X-626890Y79804*
X-627259Y80135*
X-627260*
G02X-631535Y85860I7252J9874*
G01X-631760Y86548*
G37*
G36*
Y-523452D02*
G01X-629816Y-521639D01*
X-628242Y-520136*
X-628164Y-521241*
G03X-626056Y-525604I8154J1249*
G01X-625773Y-525866*
X-626020Y-527237*
X-626890Y-530196*
X-627259Y-529865*
X-627260*
G02X-631535Y-524140I7252J9874*
G01X-631760Y-523452*
G37*
G36*
X-811760Y86548D02*
G01X-809816Y88361D01*
X-808242Y89864*
X-808164Y88759*
G03X-806056Y84396I8154J1249*
G01X-805773Y84134*
X-806020Y82763*
X-806890Y79804*
X-807259Y80135*
X-807260*
G02X-811535Y85860I7252J9874*
G01X-811760Y86548*
G37*
G36*
X-891760Y-523452D02*
G01X-889816Y-521639D01*
X-888242Y-520136*
X-888164Y-521241*
G03X-886056Y-525604I8154J1249*
G01X-885773Y-525866*
X-886020Y-527237*
X-886890Y-530196*
X-887259Y-529865*
X-887260*
G02X-891535Y-524140I7252J9874*
G01X-891760Y-523452*
G37*
G36*
X-632227Y90846D02*
G02X-629641Y97566I12223J-846D01*
G01X-629380Y97892*
X-629004Y98311*
X-624689Y97325*
X-624082Y97162*
X-624632Y96823*
X-624894Y96647*
G03X-628064Y91774I4888J-6647*
G01X-632227Y90846*
G37*
G36*
Y-519154D02*
G02X-629641Y-512434I12223J-846D01*
G01X-629380Y-512108*
X-629004Y-511689*
X-624689Y-512675*
X-624082Y-512838*
X-624632Y-513177*
X-624894Y-513353*
G03X-628064Y-518226I4888J-6647*
G01X-632227Y-519154*
G37*
G36*
Y-804154D02*
G02X-629641Y-797434I12223J-846D01*
G01X-629380Y-797108*
X-629004Y-796689*
X-624689Y-797675*
X-624082Y-797838*
X-624632Y-798177*
X-624894Y-798353*
G03X-628064Y-803226I4888J-6647*
G01X-632227Y-804154*
G37*
G36*
X-812227Y90846D02*
G02X-809641Y97566I12223J-846D01*
G01X-809380Y97892*
X-809004Y98311*
X-804689Y97325*
X-804082Y97162*
X-804632Y96823*
X-804894Y96647*
G03X-808064Y91774I4888J-6647*
G01X-812227Y90846*
G37*
G36*
X-892227Y-519154D02*
G02X-889641Y-512434I12223J-846D01*
G01X-889380Y-512108*
X-889004Y-511689*
X-884689Y-512675*
X-884082Y-512838*
X-884632Y-513177*
X-884894Y-513353*
G03X-888064Y-518226I4888J-6647*
G01X-892227Y-519154*
G37*
G36*
X-8311Y-9004D02*
G01X-7325Y-4689D01*
X-7162Y-4082*
X-6823Y-4632*
X-6647Y-4894*
G03X-1774Y-8064I6647J4887*
G01X-846Y-12227*
G02X-7566Y-9641I846J12223*
G01X-7892Y-9380*
X-8311Y-9004*
G37*
G36*
Y-529004D02*
G01X-7325Y-524689D01*
X-7162Y-524082*
X-6823Y-524632*
X-6647Y-524894*
G03X-1774Y-528064I6647J4887*
G01X-846Y-532227*
G02X-7566Y-529641I846J12223*
G01X-7892Y-529380*
X-8311Y-529004*
G37*
G36*
X-10972Y-799539D02*
G02X-6012Y-794320I10970J-5459D01*
G01X-5646Y-794119*
X-5138Y-793876*
X-1529Y-796438*
X-1030Y-796821*
X-1668Y-796924*
X-1978Y-796986*
G03X-6771Y-800275I1972J-8011*
G01X-10972Y-799539*
G37*
G54D295*
X-608161Y46016D03*
X-606587D03*
X-605012D03*
X-603437D03*
X-601862D03*
X-600287D03*
X-598713D03*
X-597138D03*
X-595563D03*
X-593988D03*
X-592413D03*
X-590839D03*
Y22984D03*
X-592413D03*
X-593988D03*
X-595563D03*
X-597138D03*
X-598713D03*
X-600287D03*
X-601862D03*
X-603437D03*
X-605012D03*
X-606587D03*
X-608161D03*
G54D273*
X-532000Y-773500D03*
G54D213*
X-553425Y74486D03*
X-505946D03*
G54D178*
X-491000Y-314764D03*
Y-300197D03*
G54D302*
X-440500Y-775965D03*
Y-779035D03*
X-404000Y-784535D03*
Y-781465D03*
X-388000D03*
Y-784535D03*
X-380000Y56465D03*
Y59535D03*
X-351500D03*
Y56465D03*
X-258300Y47535D03*
Y44465D03*
X-289200Y57465D03*
Y60535D03*
X-233100Y44465D03*
Y47535D03*
X-246300D03*
Y44465D03*
X-221100D03*
Y47535D03*
X-171800D03*
Y44465D03*
X-159300Y47535D03*
Y44465D03*
X-119500D03*
Y47535D03*
X-131500D03*
Y44465D03*
X-53700Y47535D03*
Y44465D03*
X-66300Y47535D03*
Y44465D03*
G54D206*
X-553425Y118925D03*
X-505946Y118975D03*
X-387842Y96209D03*
Y73847D03*
X-336110Y96209D03*
Y73847D03*
G54D180*
X-536750Y-797500D03*
X-533250D03*
G54D172*
X-501898Y-291921D03*
X-499339D03*
X-496780D03*
X-494220D03*
X-501898Y-281685D03*
X-499339D03*
X-496780D03*
X-494220D03*
G54D234*
X-919500Y-812500D03*
X-909500Y-802500D03*
X-919500D03*
X-909500Y-792500D03*
X-919500D03*
X-909500Y-782500D03*
X-919500D03*
X-909500Y-772500D03*
X-919500D03*
Y-316437D03*
Y-308563D03*
Y-252500D03*
Y-190000D03*
X-909500D03*
Y-200000D03*
X-919500Y-242500D03*
Y-232500D03*
Y-222500D03*
X-909500Y-137500D03*
X-919500Y-160000D03*
Y-170000D03*
Y-180000D03*
X-909500Y-160000D03*
Y-170000D03*
Y-180000D03*
X-919500Y-97500D03*
Y-107500D03*
Y-117500D03*
Y-127500D03*
X-909500Y-97500D03*
Y-107500D03*
Y-117500D03*
Y-127500D03*
Y-50000D03*
Y-40000D03*
Y-30000D03*
Y-20000D03*
X-919500Y-60000D03*
Y-50000D03*
Y-40000D03*
Y-30000D03*
Y-20000D03*
Y97500D03*
Y87500D03*
Y77500D03*
Y67500D03*
Y57500D03*
X-909500Y97500D03*
Y87500D03*
Y77500D03*
Y57500D03*
X-890500Y-75750D03*
Y-85250D03*
X-817500Y-42750D03*
Y-52250D03*
X-832250Y49000D03*
X-822750D03*
X-804750D03*
X-795250D03*
X-804750Y21500D03*
X-795250D03*
X-832250D03*
X-822750D03*
X-731500Y-75750D03*
Y-85250D03*
X-714750Y-740000D03*
X-705250D03*
X-596150D03*
X-586650D03*
X-584750Y-47500D03*
X-575250D03*
X-432250Y-185000D03*
X-402250D03*
X-392750D03*
X-422750D03*
X-417250Y-70000D03*
X-407750D03*
X-337500Y-772750D03*
Y-782250D03*
X-320750Y-740000D03*
X-311250D03*
X-324600Y-533102D03*
Y-542602D03*
X-344750Y-185000D03*
X-335250D03*
X-327250Y-70000D03*
X-317750D03*
X-330100Y40950D03*
Y50450D03*
X-269380Y-185000D03*
X-259880D03*
X-306880D03*
X-297380D03*
X-231880D03*
X-222380D03*
X-194380D03*
X-237250Y-70000D03*
X-227750D03*
X-172050Y-740000D03*
X-162550D03*
X-157250Y-185000D03*
X-147750D03*
X-184880D03*
X-147250Y-70000D03*
X-137750D03*
X-98150Y-740000D03*
X-88650D03*
X-115000Y-402750D03*
Y-412250D03*
Y-377250D03*
Y-332750D03*
Y-342250D03*
Y-367750D03*
Y-262750D03*
Y-272250D03*
Y-297750D03*
Y-307250D03*
X-24450Y-740000D03*
X-14950D03*
X-50750D03*
X-41250D03*
X-32578Y70850D03*
X-14858D03*
X-22738D03*
X-32578Y81080D03*
X-32188Y100770D03*
X-23918D03*
X-13678D03*
X-32188Y90930D03*
X-22738Y81080D03*
X-14858D03*
X1500Y-380250D03*
Y-389750D03*
Y-314750D03*
Y-305250D03*
Y-230250D03*
Y-239750D03*
X-5018Y70850D03*
Y81080D03*
X-5408Y100770D03*
Y90930D03*
G54D215*
X-447262Y-533443D03*
Y-226357D03*
X-140176Y-533443D03*
Y-226357D03*
G54D207*
X-482458Y53024D03*
Y102946D03*
X-471513Y92591D03*
Y70229D03*
X-408836Y53024D03*
Y102946D03*
X-419780Y92591D03*
Y70229D03*
G54D358*
X-374220Y-313411D03*
X-377370Y-316560D03*
X-371072Y-310261D03*
X-210068Y-443240D03*
X-213218Y-446389D03*
X-216367Y-449539D03*
G54D251*
X-916000Y-740000D03*
X-911000Y-735000D03*
Y-730000D03*
X-916000Y-725000D03*
X-911000Y-720000D03*
Y-715000D03*
X-916000Y-710000D03*
Y-665000D03*
X-911000Y-660000D03*
Y-655000D03*
X-916000Y-650000D03*
X-911000Y-645000D03*
Y-640000D03*
X-916000Y-635000D03*
Y-560000D03*
Y-575000D03*
Y-590000D03*
X-911000Y-570000D03*
Y-565000D03*
Y-580000D03*
Y-585000D03*
X-916000Y-516891D03*
X-911000Y-511891D03*
Y-506891D03*
X-916000Y-501891D03*
X-911000Y-496891D03*
Y-491891D03*
X-916000Y-443789D03*
X-911000Y-438789D03*
Y-433789D03*
X-916000Y-486891D03*
Y-428789D03*
X-911000Y-423789D03*
Y-418789D03*
X-916000Y-413789D03*
X-553000Y-808000D03*
X-558000Y-813000D03*
X-563000Y-808000D03*
X-568000D03*
X-573000Y-813000D03*
X-543000D03*
X-548000Y-808000D03*
G54D352*
X-507047Y-799547D03*
Y-801516D03*
Y-803484D03*
Y-805453D03*
X-509016Y-799547D03*
Y-801516D03*
Y-803484D03*
Y-805453D03*
X-510984Y-799547D03*
Y-801516D03*
Y-803484D03*
Y-805453D03*
X-512953Y-799547D03*
Y-801516D03*
Y-803484D03*
Y-805453D03*
X-279953Y37953D03*
X-277984D03*
X-276016D03*
X-274047D03*
X-279953Y35984D03*
X-277984D03*
X-276016D03*
X-274047D03*
X-279953Y34016D03*
X-277984D03*
X-276016D03*
X-274047D03*
X-279953Y32047D03*
X-277984D03*
X-276016D03*
X-274047D03*
G54D229*
X-526000Y-276830D03*
X-529940Y-268170D03*
X-522060D03*
X-2440Y-630170D03*
X1500Y-638830D03*
X5440Y-630170D03*
G54D223*
X-897500Y-797000D03*
Y-801000D03*
X-880700Y-800700D03*
Y-804700D03*
X-877000Y-800700D03*
Y-804700D03*
X-882000Y-770000D03*
Y-774000D03*
Y-783000D03*
Y-779000D03*
X-880000Y-640500D03*
Y-644500D03*
X-852000Y-667000D03*
Y-663000D03*
X-874500Y-666500D03*
Y-662500D03*
X-881500Y-622000D03*
Y-626000D03*
Y-616500D03*
Y-612500D03*
X-878500Y-662500D03*
Y-666500D03*
X-897300Y-401600D03*
Y-405600D03*
X-861700Y-423500D03*
Y-419500D03*
X-865300D03*
Y-423500D03*
X-910500Y-238000D03*
Y-234000D03*
X-888000Y-208000D03*
Y-204000D03*
X-892000Y-208000D03*
Y-204000D03*
X-896000Y-208000D03*
Y-204000D03*
X-900000Y-208000D03*
Y-204000D03*
X-892500Y-160500D03*
Y-156500D03*
X-888500Y-160500D03*
Y-156500D03*
X-900500Y-160500D03*
Y-156500D03*
X-896500Y-160500D03*
Y-156500D03*
X-910500Y-88000D03*
Y-84000D03*
X-856500Y104500D03*
X-861000Y52500D03*
Y48500D03*
X-864500Y52500D03*
Y48500D03*
X-853500D03*
Y52500D03*
X-856500Y108500D03*
X-793000Y-733000D03*
Y-737000D03*
X-800000Y-701500D03*
Y-697500D03*
X-807500Y-701400D03*
Y-697400D03*
X-811700Y-701400D03*
Y-697400D03*
X-804000Y-701500D03*
Y-697500D03*
X-792000Y-706500D03*
Y-710500D03*
X-796000Y-706500D03*
Y-710500D03*
X-792000Y-697500D03*
Y-701500D03*
X-796000D03*
Y-697500D03*
X-800000Y-710500D03*
Y-706500D03*
X-808500Y-555000D03*
X-817000D03*
X-813000D03*
X-823000D03*
X-819000Y-561000D03*
Y-565000D03*
X-827000Y-555000D03*
X-831000D03*
X-843500Y-565000D03*
Y-561000D03*
X-837000Y-565000D03*
Y-561000D03*
X-823000Y-565000D03*
Y-561000D03*
X-827000Y-565000D03*
Y-561000D03*
X-808500Y-551000D03*
X-817000D03*
X-792000Y-531000D03*
Y-535000D03*
X-796000Y-531000D03*
Y-535000D03*
X-813000Y-551000D03*
X-823000D03*
X-827000D03*
X-831000D03*
X-799000Y-315500D03*
Y-319500D03*
X-803000D03*
Y-315500D03*
X-795000D03*
Y-319500D03*
X-800500Y-261500D03*
Y-257500D03*
X-791500D03*
Y-261500D03*
X-811500Y-99000D03*
Y-103000D03*
X-822500Y-15000D03*
Y-11000D03*
X-845000Y104500D03*
X-849500Y52500D03*
Y48500D03*
X-846000Y52500D03*
Y48500D03*
X-845000Y108500D03*
X-767500Y-769000D03*
Y-765000D03*
X-741000Y-764500D03*
Y-768500D03*
X-734000Y-733500D03*
X-746500Y-764500D03*
Y-768500D03*
Y-755500D03*
Y-759500D03*
X-750000Y-747500D03*
Y-751500D03*
X-756000Y-747500D03*
Y-751500D03*
X-766000D03*
Y-747500D03*
X-762000D03*
Y-751500D03*
X-738000Y-733500D03*
X-758500Y-733000D03*
X-754500D03*
X-737000Y-768500D03*
Y-764500D03*
X-734000Y-729500D03*
X-733500Y-706500D03*
Y-710500D03*
Y-697500D03*
Y-701500D03*
X-737500Y-722000D03*
Y-718000D03*
X-733500Y-722000D03*
Y-718000D03*
X-741500Y-722000D03*
Y-718000D03*
Y-701500D03*
Y-697500D03*
X-737500D03*
Y-701500D03*
Y-706500D03*
Y-710500D03*
X-741500Y-706500D03*
Y-710500D03*
X-738000Y-729500D03*
X-758500Y-729000D03*
X-754500D03*
X-774500Y-722000D03*
Y-718000D03*
X-762500Y-710500D03*
Y-706500D03*
Y-722000D03*
Y-718000D03*
X-788000Y-706500D03*
Y-710500D03*
X-784000Y-706500D03*
Y-710500D03*
X-766500D03*
Y-706500D03*
X-770500Y-710500D03*
Y-706500D03*
Y-718000D03*
Y-722000D03*
X-766500D03*
Y-718000D03*
X-758500Y-722000D03*
Y-718000D03*
X-757500Y-701500D03*
Y-697500D03*
X-749500Y-710500D03*
Y-706500D03*
Y-718000D03*
Y-722000D03*
X-745500Y-697500D03*
Y-701500D03*
Y-722000D03*
Y-718000D03*
X-754500D03*
Y-722000D03*
X-758500Y-710500D03*
Y-706500D03*
X-749500Y-701500D03*
Y-697500D03*
X-745500Y-710500D03*
Y-706500D03*
X-754500Y-710500D03*
Y-706500D03*
X-766500Y-697500D03*
Y-701500D03*
X-770500Y-697500D03*
Y-701500D03*
X-784000Y-697500D03*
Y-701500D03*
X-788000Y-697500D03*
Y-701500D03*
X-762500D03*
Y-697500D03*
X-734500Y-558000D03*
Y-562000D03*
X-756500D03*
Y-558000D03*
X-748000Y-562000D03*
Y-558000D03*
X-738500Y-562000D03*
Y-558000D03*
X-742500Y-562000D03*
Y-558000D03*
X-752500Y-562000D03*
Y-558000D03*
X-762000Y-528000D03*
Y-524000D03*
X-760000Y-497500D03*
Y-501500D03*
X-787000Y-535500D03*
Y-539500D03*
X-779000Y-506500D03*
Y-510500D03*
X-764000Y-501500D03*
Y-497500D03*
X-768000Y-501500D03*
Y-497500D03*
X-780500Y-550500D03*
Y-546500D03*
X-768000D03*
Y-550500D03*
X-767500Y-535500D03*
Y-539500D03*
X-746000Y-531000D03*
Y-535000D03*
X-750000Y-531000D03*
Y-535000D03*
X-776000Y-501500D03*
Y-497500D03*
X-783000Y-535500D03*
Y-539500D03*
X-779000Y-535500D03*
Y-539500D03*
X-776000Y-546500D03*
Y-550500D03*
X-775500Y-535500D03*
Y-539500D03*
X-772500Y-546500D03*
Y-550500D03*
X-779000Y-524000D03*
Y-528000D03*
X-760500Y-539500D03*
Y-535500D03*
X-783000Y-528000D03*
Y-524000D03*
Y-514500D03*
Y-518500D03*
X-736000Y-515000D03*
Y-519000D03*
Y-526000D03*
Y-530000D03*
X-732000Y-526000D03*
Y-530000D03*
X-736000Y-535500D03*
Y-539500D03*
X-732000Y-546500D03*
Y-550500D03*
X-752500D03*
Y-546500D03*
X-740500Y-550500D03*
Y-546500D03*
X-736000Y-550500D03*
Y-546500D03*
X-748000Y-550500D03*
Y-546500D03*
X-744000Y-550500D03*
Y-546500D03*
X-756500D03*
Y-550500D03*
X-775000Y-528000D03*
Y-524000D03*
X-732000Y-535500D03*
Y-539500D03*
X-764000Y-535500D03*
Y-539500D03*
X-784000Y-550500D03*
Y-546500D03*
X-771500Y-535500D03*
Y-539500D03*
X-787000Y-528000D03*
Y-524000D03*
X-779000Y-515500D03*
Y-519500D03*
X-772000Y-501500D03*
Y-497500D03*
X-732000Y-515000D03*
Y-519000D03*
X-780000Y-501500D03*
Y-497500D03*
X-784000Y-501500D03*
Y-497500D03*
X-768000Y-480000D03*
Y-476000D03*
X-774000Y-357000D03*
Y-361000D03*
X-735000Y-363500D03*
Y-359500D03*
X-747000Y-363500D03*
Y-359500D03*
X-747500Y-338000D03*
Y-334000D03*
X-735000Y-338000D03*
Y-334000D03*
X-777000Y-319500D03*
Y-315500D03*
X-782000Y-319500D03*
Y-315500D03*
X-791000Y-319500D03*
Y-315500D03*
X-778500Y-346500D03*
Y-350500D03*
X-770000Y-357000D03*
Y-361000D03*
X-743000Y-363500D03*
Y-359500D03*
X-743500Y-338000D03*
Y-334000D03*
X-782000Y-325500D03*
Y-329500D03*
X-760000Y-315500D03*
Y-319500D03*
X-777000Y-325500D03*
Y-329500D03*
X-791000D03*
Y-325500D03*
X-786000Y-329500D03*
Y-325500D03*
X-764000Y-315500D03*
Y-319500D03*
Y-325500D03*
Y-329500D03*
X-786000Y-319500D03*
Y-315500D03*
X-779500Y-257500D03*
Y-261500D03*
X-775500Y-257500D03*
Y-261500D03*
X-771500Y-257500D03*
Y-261500D03*
X-767500Y-257500D03*
Y-261500D03*
X-763500Y-283000D03*
Y-279000D03*
X-783500Y-257500D03*
Y-261500D03*
X-787500Y-257500D03*
Y-261500D03*
X-779500Y-252000D03*
X-775500D03*
X-767500D03*
X-763500D03*
X-759500D03*
X-771500D03*
X-763500Y-261500D03*
Y-257500D03*
X-759500Y-261500D03*
Y-257500D03*
X-779500Y-248000D03*
X-775500D03*
X-767500D03*
X-763500D03*
X-759500D03*
X-771500D03*
X-677500Y-790000D03*
Y-786000D03*
X-705500Y-706500D03*
Y-710500D03*
X-701500Y-706500D03*
Y-710500D03*
Y-697500D03*
Y-701500D03*
X-729500Y-710500D03*
Y-706500D03*
X-725500Y-697500D03*
Y-701500D03*
X-729500Y-722000D03*
Y-718000D03*
X-717500Y-706500D03*
Y-710500D03*
X-709500Y-697500D03*
Y-701500D03*
X-713500Y-697500D03*
Y-701500D03*
X-705500D03*
Y-697500D03*
X-725500Y-722000D03*
Y-718000D03*
X-721500D03*
Y-722000D03*
X-713500Y-710500D03*
Y-706500D03*
X-709500D03*
Y-710500D03*
X-721500Y-697500D03*
Y-701500D03*
X-725500Y-706500D03*
Y-710500D03*
X-729500Y-697500D03*
Y-701500D03*
X-721500Y-706500D03*
Y-710500D03*
X-723500Y-558000D03*
Y-562000D03*
X-730500D03*
Y-558000D03*
X-722500Y-550500D03*
Y-546500D03*
X-718500D03*
Y-550500D03*
X-726500Y-546500D03*
Y-550500D03*
X-731000Y-363500D03*
Y-359500D03*
X-727000Y-363500D03*
Y-359500D03*
X-713000Y-333500D03*
Y-337500D03*
X-723000Y-363500D03*
Y-359500D03*
X-711000Y-364100D03*
Y-360100D03*
X-719000Y-348500D03*
Y-352500D03*
X-723000Y-348500D03*
Y-352500D03*
X-727000Y-338000D03*
Y-334000D03*
X-731000Y-338000D03*
Y-334000D03*
X-656000Y-116000D03*
Y-112000D03*
X-586500Y-791500D03*
X-552900Y-790500D03*
Y-786500D03*
X-586500Y-787500D03*
X-554500Y-103500D03*
Y-99500D03*
X-595500Y11000D03*
Y15000D03*
X-585000Y11000D03*
Y15000D03*
X-600000Y12500D03*
Y8500D03*
X-602500Y56000D03*
Y52000D03*
X-606500Y56000D03*
Y52000D03*
X-533000Y-792500D03*
Y-788500D03*
X-521000Y-757000D03*
Y-761000D03*
X-513000Y-370000D03*
Y-366000D03*
X-521000D03*
Y-370000D03*
X-505000D03*
Y-366000D03*
X-517000Y-370000D03*
Y-366000D03*
X-525000Y-370000D03*
Y-366000D03*
X-509000Y-370000D03*
Y-366000D03*
X-533000D03*
Y-370000D03*
X-529000Y-366000D03*
Y-370000D03*
X-516500Y-267000D03*
Y-271000D03*
X-535500Y-251500D03*
X-495000Y-270500D03*
Y-274500D03*
X-499000Y-270500D03*
Y-274500D03*
X-504500Y-258500D03*
Y-254500D03*
X-516500Y-276000D03*
Y-280000D03*
X-528000Y-283500D03*
Y-287500D03*
X-508000Y-293500D03*
Y-289500D03*
X-509000Y-270500D03*
Y-274500D03*
X-535500Y-247500D03*
X-505000Y-237000D03*
Y-241000D03*
X-518000Y-237000D03*
Y-241000D03*
X-513000Y-237000D03*
Y-241000D03*
X-509000Y-237000D03*
Y-241000D03*
X-497000Y-129500D03*
Y-125500D03*
X-501000D03*
Y-129500D03*
X-493000D03*
Y-125500D03*
X-438500Y-765000D03*
Y-769000D03*
X-434500Y-765000D03*
Y-769000D03*
X-452000Y-390000D03*
Y-394000D03*
X-456000Y-390000D03*
Y-394000D03*
X-486000Y-293500D03*
Y-289500D03*
X-491000Y-252500D03*
Y-256500D03*
Y-261500D03*
Y-265500D03*
X-487000Y-252500D03*
Y-256500D03*
X-486000Y-280500D03*
Y-284500D03*
X-491000Y-270500D03*
Y-274500D03*
X-460500Y-170000D03*
Y-174000D03*
X-476500Y-164500D03*
Y-160500D03*
X-484500Y-164500D03*
Y-160500D03*
X-464500Y-164500D03*
Y-160500D03*
X-460500Y-188000D03*
Y-184000D03*
X-456500Y-188000D03*
Y-184000D03*
X-452500Y-188000D03*
Y-184000D03*
X-464500Y-188000D03*
Y-184000D03*
X-468500Y-188000D03*
Y-184000D03*
X-472500Y-188000D03*
Y-184000D03*
X-448500D03*
Y-188000D03*
X-444500D03*
Y-184000D03*
X-468500Y-174000D03*
Y-170000D03*
X-472500Y-174000D03*
Y-170000D03*
Y-160500D03*
Y-164500D03*
X-476500Y-170000D03*
Y-174000D03*
X-464500Y-170000D03*
Y-174000D03*
X-468500Y-160500D03*
Y-164500D03*
X-480500Y-160500D03*
Y-164500D03*
X-458000D03*
Y-160500D03*
X-488500D03*
Y-164500D03*
X-477000Y-125500D03*
Y-129500D03*
X-489000Y-125500D03*
Y-129500D03*
X-481000Y-125500D03*
Y-129500D03*
X-485000D03*
Y-125500D03*
X-440000Y21000D03*
Y17000D03*
X-448000Y21000D03*
Y17000D03*
X-444000Y21000D03*
Y17000D03*
X-382000Y-768500D03*
Y-772500D03*
X-386000Y-768500D03*
Y-772500D03*
X-390000Y-768500D03*
Y-772500D03*
X-394000Y-768500D03*
Y-772500D03*
X-406000Y-768500D03*
Y-772500D03*
X-410000Y-768500D03*
Y-772500D03*
X-425000Y-764000D03*
Y-768000D03*
X-429000Y-764000D03*
Y-768000D03*
X-415000Y-764500D03*
Y-768500D03*
X-402000D03*
Y-772500D03*
X-419000Y-764500D03*
Y-768500D03*
X-398000D03*
Y-772500D03*
X-418500Y-87500D03*
Y-91500D03*
X-406000Y-107500D03*
Y-103500D03*
X-426000Y-35000D03*
Y-39000D03*
X-404000Y-36500D03*
Y-32500D03*
X-389000Y35000D03*
Y31000D03*
X-377000Y35000D03*
Y31000D03*
X-381000Y35000D03*
Y31000D03*
X-385000Y35000D03*
Y31000D03*
X-373000Y35000D03*
Y31000D03*
X-331800Y-722700D03*
Y-726700D03*
X-335300D03*
Y-722700D03*
X-318000Y-372000D03*
X-312000D03*
X-324000D03*
X-330000D03*
X-336000D03*
X-318000Y-368000D03*
X-312000D03*
X-324000D03*
X-330000D03*
X-336000D03*
Y-356000D03*
Y-360000D03*
X-344500Y-87500D03*
Y-91500D03*
X-332000Y-107500D03*
Y-103500D03*
X-348000Y-13000D03*
Y-17000D03*
X-358900Y-13000D03*
Y-17000D03*
X-351760D03*
Y-13000D03*
X-355400D03*
Y-17000D03*
X-363100Y-13000D03*
Y-17000D03*
X-322300Y-38420D03*
Y-42420D03*
X-326500Y-38420D03*
Y-42420D03*
X-318800Y-38420D03*
Y-42420D03*
X-314000Y-38420D03*
Y-42420D03*
X-353500Y47000D03*
Y43000D03*
X-345500Y47000D03*
Y43000D03*
X-349500Y47000D03*
Y43000D03*
X-314000Y47500D03*
X-357500Y47000D03*
Y43000D03*
X-365000Y35000D03*
Y31000D03*
X-361000Y35000D03*
Y31000D03*
X-369000Y35000D03*
Y31000D03*
X-356200Y-5800D03*
Y-1800D03*
X-316300Y17500D03*
Y21500D03*
X-312800Y17500D03*
Y21500D03*
Y8100D03*
Y12100D03*
X-316300Y8100D03*
Y12100D03*
X-314000Y51500D03*
X-252020Y-759430D03*
Y-755430D03*
X-297000Y-575000D03*
Y-571000D03*
X-300000Y-372000D03*
X-306000D03*
X-300000Y-368000D03*
X-306000D03*
X-262500Y-260000D03*
Y-256000D03*
Y-265000D03*
Y-269000D03*
X-266500Y-256000D03*
Y-260000D03*
X-254500D03*
Y-256000D03*
X-258500Y-260000D03*
Y-256000D03*
X-254500Y-269000D03*
Y-265000D03*
X-266500D03*
Y-269000D03*
X-258500D03*
Y-265000D03*
X-282000Y-107500D03*
Y-103500D03*
X-294500Y-87500D03*
Y-91500D03*
X-310500Y-38420D03*
Y-42420D03*
X-306000D03*
Y-38420D03*
X-301700D03*
Y-42420D03*
X-298200Y-38420D03*
Y-42420D03*
X-253000Y27500D03*
Y23500D03*
X-260000Y27500D03*
Y23500D03*
X-284900Y22500D03*
Y18500D03*
X-310000Y47500D03*
X-303500D03*
X-299500D03*
X-270400Y-4600D03*
Y-600D03*
X-298500Y23000D03*
Y27000D03*
X-294500Y23000D03*
Y27000D03*
X-295500Y44000D03*
Y48000D03*
X-291500Y44000D03*
Y48000D03*
X-302300Y17500D03*
Y21500D03*
X-305800Y17500D03*
Y21500D03*
X-309300Y17500D03*
Y21500D03*
Y8100D03*
Y12100D03*
X-302300Y8100D03*
Y12100D03*
X-305800Y8100D03*
Y12100D03*
X-270500Y60000D03*
Y56000D03*
X-310000Y51500D03*
X-303500D03*
X-299500D03*
X-222700Y-744800D03*
Y-740800D03*
X-242500Y-575000D03*
Y-571000D03*
X-250500Y-260000D03*
Y-256000D03*
Y-269000D03*
Y-265000D03*
X-194500Y-87500D03*
Y-91500D03*
X-232000Y-107500D03*
Y-103500D03*
X-244500Y-87500D03*
Y-91500D03*
Y27500D03*
Y23500D03*
X-233000Y22500D03*
Y26500D03*
X-209000Y47000D03*
Y43000D03*
X-213000D03*
Y47000D03*
X-218500Y29000D03*
Y25000D03*
X-214500Y29000D03*
Y25000D03*
X-210500D03*
Y29000D03*
X-206500D03*
Y25000D03*
X-204500Y-4350D03*
Y-350D03*
X-182000Y-107500D03*
Y-103500D03*
X-144500Y-87000D03*
Y-91000D03*
X-132000Y-107500D03*
Y-103500D03*
X-141000Y47500D03*
Y43500D03*
X-186500Y29500D03*
Y25500D03*
X-182500D03*
Y29500D03*
X-190500Y-4350D03*
Y-350D03*
X-106000Y-807000D03*
Y-811000D03*
X-88200Y-725100D03*
Y-721100D03*
X-102000D03*
Y-725100D03*
X-81100D03*
Y-721100D03*
X-84600Y-725100D03*
Y-721100D03*
X-77500D03*
Y-725100D03*
X-74000Y-721100D03*
Y-725100D03*
X-105500D03*
Y-721100D03*
X-81500Y-195000D03*
X-92500Y-210500D03*
Y-206500D03*
X-86500D03*
Y-210500D03*
X-79550D03*
Y-206500D03*
X-73500D03*
Y-210500D03*
X-73000Y-145500D03*
Y-149500D03*
X-77000Y-145500D03*
Y-149500D03*
X-81500Y-191000D03*
X-73000Y-131500D03*
X-81000Y-140000D03*
Y-136000D03*
Y-145500D03*
Y-149500D03*
X-73000Y-136000D03*
Y-140000D03*
X-77000Y-136000D03*
Y-140000D03*
X-86500Y-149500D03*
Y-145500D03*
X-90500D03*
Y-149500D03*
X-94500Y-145500D03*
Y-149500D03*
X-98500Y-145500D03*
Y-149500D03*
X-73000Y-127500D03*
X-85500Y-20000D03*
Y-24000D03*
X-73500Y-51500D03*
Y-47500D03*
X-88000Y13500D03*
Y17500D03*
X-87000Y-4100D03*
Y-100D03*
X-107500Y47000D03*
Y43000D03*
X-106000Y29400D03*
Y25400D03*
X-86000Y29500D03*
Y25500D03*
X-82000D03*
Y29500D03*
X-111500Y43000D03*
Y47000D03*
X-110000Y25400D03*
Y29400D03*
X-114000D03*
Y25400D03*
X-32000Y-798900D03*
Y-802900D03*
Y-811862D03*
Y-807862D03*
X-54800Y-792500D03*
Y-796500D03*
X-58500Y-792500D03*
Y-796500D03*
X-62000Y-805500D03*
Y-809500D03*
X-27400Y-782000D03*
Y-786000D03*
X-15500Y-680500D03*
Y-676500D03*
X-15900Y-693600D03*
Y-697600D03*
X-56400Y-725000D03*
Y-721000D03*
X-70500Y-721100D03*
Y-725100D03*
X-67000D03*
Y-721100D03*
X-59900D03*
Y-725100D03*
X-63400Y-721100D03*
Y-725100D03*
X-21500Y-412000D03*
Y-416000D03*
Y-359500D03*
Y-363500D03*
Y-254500D03*
Y-258500D03*
Y-307000D03*
Y-311000D03*
X-56500Y-199850D03*
Y-195850D03*
X-56200Y-206500D03*
Y-210500D03*
X-60500Y-199850D03*
Y-195850D03*
X-64500Y-199850D03*
Y-195850D03*
X-68500Y-199850D03*
Y-195850D03*
X-48500Y-210400D03*
Y-206400D03*
X-52600Y-210400D03*
Y-206400D03*
X-63800Y-210500D03*
Y-206500D03*
X-67800Y-210500D03*
Y-206500D03*
X-59800D03*
Y-210500D03*
X-53000Y-195850D03*
Y-199850D03*
X-49000Y-195850D03*
Y-199850D03*
X-45000Y-195850D03*
Y-199850D03*
X-41500Y-199900D03*
Y-195900D03*
X-33500Y-199900D03*
Y-195900D03*
X-63000Y-145500D03*
Y-149500D03*
X-69000Y-145500D03*
Y-149500D03*
X-26500Y31500D03*
Y27500D03*
X-22500Y31500D03*
Y27500D03*
X-5270Y-672310D03*
X5490Y-672370D03*
X500Y-672170D03*
X1000Y-710000D03*
Y-714000D03*
X-5270Y-668310D03*
X5490Y-668370D03*
X4050Y-646970D03*
Y-650970D03*
X-3300Y-658500D03*
Y-662500D03*
X500Y-668170D03*
X-7300Y-662500D03*
Y-658500D03*
X-950Y-650970D03*
Y-646970D03*
X400Y-658500D03*
Y-662500D03*
X-11500Y31500D03*
Y35500D03*
G54D301*
X-482724Y-152677D03*
Y-137323D03*
X-473276Y-152677D03*
X-474850D03*
X-476425D03*
X-478000D03*
X-479575D03*
X-481150D03*
Y-137323D03*
X-479575D03*
X-478000D03*
X-476425D03*
X-474850D03*
X-473276D03*
G54D281*
X-489000Y5200D03*
Y-2200D03*
X-33500Y-101800D03*
Y-109200D03*
X5640Y-656040D03*
Y-663440D03*
G54D362*
X-850250Y-633500D03*
X-844750D03*
X-793250Y-85000D03*
X-798750D03*
X-831250Y66000D03*
X-825750D03*
X-730250Y-764000D03*
X-774750Y-434500D03*
X-780250D03*
X-713750Y-796500D03*
X-708250D03*
X-724750Y-764000D03*
X-716750Y-718500D03*
X-711250D03*
X-704250D03*
X-698750D03*
X-719250Y-435000D03*
X-724750D03*
X-612750Y7500D03*
Y12500D03*
X-615750Y51000D03*
X-621250D03*
X-576250Y18000D03*
X-570750D03*
X-607250Y7500D03*
Y12500D03*
X-502750Y-302500D03*
X-508250D03*
X-481750Y-811500D03*
X-487250D03*
X-443750Y-166000D03*
X-438250D03*
X-370550Y-22800D03*
X-376050D03*
X-317750Y-391000D03*
X-323250D03*
X-317750Y-397000D03*
X-323250D03*
X-317750Y-403000D03*
X-323250D03*
X-301150Y-723290D03*
X-306650D03*
X-289220D03*
X-294720D03*
X-271250Y-391000D03*
X-276750D03*
X-251750Y-377000D03*
Y-392000D03*
Y-387000D03*
Y-382000D03*
X-271250Y-403000D03*
X-276750D03*
X-271250Y-375000D03*
X-276750D03*
X-271250Y-397000D03*
X-276750D03*
X-271250Y-363000D03*
X-276750D03*
X-251750Y-357000D03*
Y-363000D03*
X-271250Y-357000D03*
X-276750D03*
X-251750Y-369000D03*
X-271250D03*
X-276750D03*
X-274750Y56000D03*
X-280250D03*
X-274750Y51000D03*
X-280250D03*
X-213890Y-752810D03*
X-208390D03*
X-224270Y-757570D03*
X-218770D03*
X-246250Y-377000D03*
Y-392000D03*
Y-387000D03*
Y-382000D03*
Y-357000D03*
Y-363000D03*
Y-369000D03*
X-134750Y-2500D03*
X-129250D03*
X-15750Y-711500D03*
X-55250Y-574000D03*
X-60750D03*
X-33250Y-403000D03*
X-38750D03*
X-33250Y-398000D03*
X-38750D03*
X-33250Y-393000D03*
X-38750D03*
X-33250Y-350500D03*
X-38750D03*
X-33250Y-345500D03*
X-38750D03*
X-33250Y-298000D03*
X-38750D03*
X-33250Y-293000D03*
X-38750D03*
X-33250Y-245500D03*
X-38750D03*
X-33250Y-240500D03*
X-38750D03*
X-34750Y-2500D03*
X-29250D03*
X-45250Y20000D03*
X-39750D03*
X-10250Y-711500D03*
X-1750Y47500D03*
X3750D03*
X-1750Y52500D03*
X3750D03*
X-1750Y57500D03*
X3750D03*
G54D248*
X-422756Y-135098D03*
X-417244Y-159902D03*
X-342244D03*
X-347756Y-135098D03*
X-266648Y-738867D03*
X-291452Y-745953D03*
X-292244Y-159902D03*
X-297756Y-135098D03*
X-197756D03*
X-192244Y-159902D03*
X-242244D03*
X-247756Y-135098D03*
X-142802Y-745953D03*
X-142244Y-159902D03*
X-147756Y-135098D03*
X-117998Y-738867D03*
X-89902Y-422756D03*
Y-370256D03*
Y-317756D03*
Y-265256D03*
X-65098Y-417244D03*
Y-364744D03*
Y-312244D03*
Y-259744D03*
G54D247*
X-914031Y-750512D03*
Y-675512D03*
Y-699488D03*
Y-624488D03*
Y-549488D03*
Y-600512D03*
Y-527403D03*
Y-454301D03*
Y-476379D03*
Y-403277D03*
X-583512Y-811031D03*
X-532488D03*
G54D308*
X-516740Y-257126D03*
X-509260D03*
Y-247874D03*
X-513000D03*
X-516740D03*
G54D304*
X-485677Y-149724D03*
Y-148150D03*
Y-146575D03*
Y-145000D03*
Y-143425D03*
Y-141850D03*
Y-140276D03*
X-470323Y-149724D03*
Y-141850D03*
Y-143425D03*
Y-145000D03*
Y-146575D03*
Y-148150D03*
Y-140276D03*
G54D294*
X-893059Y-791969D03*
X-884559D03*
X-893059Y-788031D03*
X-897941Y-790000D03*
X-884559Y-788031D03*
X-889441Y-790000D03*
X-741441Y-793469D03*
X-736559Y-791500D03*
X-750941Y-793469D03*
X-746059Y-791500D03*
X-741441Y-789531D03*
X-750941D03*
X-732441Y-372969D03*
Y-369031D03*
Y-344031D03*
Y-347969D03*
X-727559Y-371000D03*
Y-346000D03*
X-191371Y-18931D03*
Y-22869D03*
X-191391Y-14969D03*
X-191559Y35531D03*
Y39469D03*
X-196441Y37500D03*
X-200059Y33531D03*
Y37469D03*
X-204941Y35500D03*
X-191391Y-11031D03*
X-186489Y-20900D03*
X-186509Y-13000D03*
X-183059Y35531D03*
Y39469D03*
X-187941Y37500D03*
X-96559Y-811969D03*
Y-808031D03*
X-101441Y-810000D03*
X-77559Y-51469D03*
Y-47531D03*
X-82441Y-49500D03*
X-91941Y-47531D03*
Y-51469D03*
X-87059Y-49500D03*
X-80559Y35531D03*
Y39469D03*
X-85441Y37500D03*
X-98559Y33531D03*
Y37469D03*
X-103441Y35500D03*
X-89559Y35531D03*
Y39469D03*
X-94441Y37500D03*
G54D292*
X-491232Y-769563D03*
Y-771531D03*
Y-775469D03*
Y-777437D03*
X-487768Y-769563D03*
Y-771531D03*
Y-775469D03*
Y-777437D03*
X-273968Y-44187D03*
Y-42219D03*
Y-38281D03*
Y-36313D03*
X-277432D03*
Y-38281D03*
Y-42219D03*
Y-44187D03*
X-273968Y-28487D03*
Y-26519D03*
Y-22581D03*
Y-20613D03*
X-277432D03*
Y-22581D03*
Y-26519D03*
Y-28487D03*
G54D277*
X-414000Y-7500D03*
G54D267*
X-481299Y15000D03*
X-463701D03*
G54D364*
X-902984Y-734000D03*
X-901016D03*
X-902984Y-716000D03*
X-901016D03*
X-902984Y-731000D03*
X-901016D03*
X-902984Y-719000D03*
X-901016D03*
X-902984Y-647000D03*
X-901016D03*
X-902984Y-650000D03*
X-901016D03*
X-902984Y-656000D03*
X-901016D03*
X-902984Y-659000D03*
X-901016D03*
X-902984Y-569000D03*
X-901016D03*
X-902984Y-566000D03*
X-901016D03*
X-902984Y-584000D03*
X-901016D03*
X-902984Y-581000D03*
X-901016D03*
X-903258Y-500900D03*
X-901289D03*
X-903258Y-498000D03*
X-901289D03*
X-903258Y-488200D03*
X-901289D03*
X-903258Y-491100D03*
X-901289D03*
X-902378Y-434656D03*
X-900409D03*
X-902378Y-437656D03*
X-900409D03*
X-902278Y-419956D03*
X-900309D03*
X-902278Y-422956D03*
X-900309D03*
X-891984Y7500D03*
X-890016D03*
X-901984Y63000D03*
X-900016D03*
X-901984Y58500D03*
X-900016D03*
X-901984Y71500D03*
X-900016D03*
X-817484Y-682200D03*
X-815516D03*
X-808016Y-571000D03*
X-809984D03*
X-803016Y-563000D03*
X-804984D03*
X-618984Y38500D03*
X-617016D03*
X-552484Y-780400D03*
Y-777600D03*
X-588984Y-779700D03*
X-587016D03*
X-588984Y-776900D03*
X-587016D03*
X-588984Y-773900D03*
X-587016D03*
X-588984Y-771100D03*
X-587016D03*
Y-765000D03*
X-588984D03*
X-594484Y-378500D03*
X-592516D03*
X-594484Y-375900D03*
X-592516D03*
X-594484Y-350000D03*
X-592516D03*
X-594484Y-347400D03*
X-592516D03*
X-594484Y-334000D03*
X-592516D03*
X-594484Y-331400D03*
X-592516D03*
X-594484Y-319000D03*
X-592516D03*
X-594484Y-316400D03*
X-592516D03*
X-594484Y-365700D03*
X-592516D03*
X-594484Y-363100D03*
X-592516D03*
X-594484Y-286500D03*
X-592516D03*
X-594484Y-283900D03*
X-592516D03*
X-594484Y-270500D03*
X-592516D03*
X-594484Y-267900D03*
X-592516D03*
X-594484Y-303000D03*
X-592516D03*
X-594484Y-300400D03*
X-592516D03*
X-594484Y-248000D03*
X-592516D03*
X-594484Y-245400D03*
X-592516D03*
X-594484Y-221000D03*
X-592516D03*
X-594484Y-218400D03*
X-592516D03*
X-594484Y-205000D03*
X-592516D03*
X-594484Y-202400D03*
X-592516D03*
X-594484Y-134400D03*
X-592516D03*
X-594484Y-137000D03*
X-592516D03*
X-594484Y-146900D03*
X-592516D03*
X-594484Y-149500D03*
X-592516D03*
X-594484Y-166900D03*
X-592516D03*
X-594484Y-169500D03*
X-592516D03*
X-594484Y-187400D03*
X-592516D03*
X-594484Y-190000D03*
X-592516D03*
X-594484Y-122000D03*
X-592516D03*
X-594484Y-119400D03*
X-592516D03*
X-567984Y41000D03*
X-566016D03*
X-602484Y16500D03*
X-600516D03*
X-609484D03*
X-607516D03*
X-568484Y4500D03*
X-566516D03*
X-595984D03*
X-594016D03*
X-519484Y-804000D03*
X-517516D03*
Y-801000D03*
X-519484D03*
X-547484Y-776500D03*
X-545516D03*
X-550516Y-780400D03*
Y-777600D03*
X-510984Y-789500D03*
X-509016D03*
X-499984Y-449000D03*
X-498016D03*
X-374984Y-14700D03*
X-373016D03*
X-394984Y14500D03*
X-393016D03*
X-357984Y-792500D03*
X-356016D03*
X-319984Y-778000D03*
X-318016D03*
X-343984Y55000D03*
X-342016D03*
X-294616Y-13200D03*
X-296584D03*
X-294616Y-16200D03*
X-296584D03*
X-294616Y-19200D03*
X-296584D03*
X-294616Y-22200D03*
X-296584D03*
X-294616Y-25200D03*
X-296584D03*
X-294616Y-28200D03*
X-296584D03*
X-294616Y-31200D03*
X-296584D03*
X-258484Y39000D03*
X-256516D03*
X-285984Y29500D03*
X-284016D03*
X-285984Y26500D03*
X-284016D03*
X-280484Y18000D03*
X-278516D03*
X-280484Y15000D03*
X-278516D03*
X-280484Y8300D03*
X-278516D03*
X-294616Y-10200D03*
X-296584D03*
X-246484Y39000D03*
X-244516D03*
X-163484Y-782500D03*
X-161516D03*
X-135484Y-13800D03*
X-133516D03*
X-167584Y-30000D03*
X-165616D03*
X-171984D03*
X-170016D03*
X-133484Y1500D03*
X-133984Y9500D03*
X-135484Y-9100D03*
X-133516D03*
X-135484Y-6500D03*
X-133516D03*
X-123984Y-21500D03*
X-122016D03*
X-123984Y-18500D03*
X-122016D03*
X-72784Y-28500D03*
X-129984Y-12600D03*
X-128016D03*
X-131516Y1500D03*
X-132016Y9500D03*
X-129984Y-6500D03*
X-128016D03*
X-129984Y-9900D03*
X-128016D03*
X-29084Y-468600D03*
X-27116D03*
X-36084Y-13900D03*
X-34116D03*
X-30484Y-12900D03*
X-28516D03*
X-70816Y-28500D03*
X-68384D03*
X-66416D03*
X-35984Y-9500D03*
X-34016D03*
X-34484Y1500D03*
X-32516D03*
X-34484Y10500D03*
X-32516D03*
X-30484Y-9700D03*
X-28516D03*
X-30484Y-6500D03*
X-28516D03*
X-35984D03*
X-34016D03*
X2516Y27500D03*
X4484D03*
X-1984D03*
X-16D03*
G54D355*
X-340600Y10000D03*
X-348000D03*
Y20000D03*
X-344300D03*
X-340600D03*
X5500Y32000D03*
X-1900D03*
Y42000D03*
X1800D03*
X5500D03*
G54D353*
X-399827Y-24823D03*
X-401402D03*
X-402976D03*
X-404551D03*
X-406126D03*
X-407701D03*
X-409276D03*
X-410850D03*
X-412425D03*
X-414000D03*
X-415575D03*
X-417150D03*
X-418724D03*
X-420299D03*
X-421874D03*
X-423449D03*
X-425024D03*
X-426598D03*
X-428173D03*
Y9823D03*
X-426598D03*
X-425024D03*
X-423449D03*
X-421874D03*
X-420299D03*
X-418724D03*
X-417150D03*
X-415575D03*
X-414000D03*
X-412425D03*
X-410850D03*
X-409276D03*
X-407701D03*
X-406126D03*
X-404551D03*
X-402976D03*
X-401402D03*
X-399827D03*
G54D245*
X-919837Y-376248D03*
X-911963D03*
X-919837Y-384122D03*
Y-336878D03*
X-911963D03*
X-919837Y-344752D03*
X-911963D03*
X-919837Y-352626D03*
X-911963D03*
X-919837Y-360500D03*
X-911963D03*
X-919837Y-368374D03*
X-911963D03*
X-918500Y-284921D03*
G54D350*
X-500052Y39154D03*
Y35217D03*
Y31280D03*
Y27343D03*
Y23406D03*
Y19469D03*
Y15531D03*
Y11594D03*
Y7657D03*
Y3720D03*
Y-217D03*
Y-4154D03*
X-536948D03*
Y-217D03*
Y3720D03*
Y7657D03*
Y11594D03*
Y15531D03*
Y19469D03*
Y23406D03*
Y27343D03*
Y31280D03*
Y35217D03*
Y39154D03*
G54D333*
X-859170Y-637500D03*
X-867830Y-641440D03*
Y-633560D03*
X-903830Y-238000D03*
X-895170Y-234060D03*
Y-241940D03*
X-806670Y-261000D03*
X-815330Y-264940D03*
Y-257060D03*
X-796670Y-99500D03*
X-805330Y-103440D03*
Y-95560D03*
X-752670Y-761060D03*
X-761330Y-765000D03*
X-752670Y-768940D03*
X-747330Y-377940D03*
X-738670Y-374000D03*
X-747330Y-344560D03*
Y-352440D03*
X-738670Y-348500D03*
X-747330Y-370060D03*
X-757330Y-276060D03*
Y-283940D03*
X-748670Y-280000D03*
X-709170Y-759060D03*
X-717830Y-763000D03*
X-709170Y-766940D03*
X-150330Y32500D03*
X-141670Y36440D03*
Y28560D03*
X-74830Y-736000D03*
X-46830Y-806500D03*
X-38170Y-802560D03*
Y-810440D03*
X-66170Y-732060D03*
Y-739940D03*
X-10570Y-770300D03*
X-19230Y-774240D03*
Y-766360D03*
X-58970Y-55740D03*
Y-47860D03*
X-67630Y-51800D03*
G54D298*
X-491035Y-773500D03*
X-487965D03*
X-274165Y-40250D03*
X-277235D03*
X-274165Y-24550D03*
X-277235D03*
G54D297*
X-423533Y-110692D03*
X-349533D03*
X-299533D03*
X-249533D03*
X-199533D03*
X-149533D03*
G54D93*
X-890760Y-132000D03*
X-894500D03*
X-898240D03*
Y-142000D03*
X-894500D03*
X-890760D03*
X-890260Y-179500D03*
X-894000D03*
X-897740D03*
Y-189500D03*
X-894000D03*
X-890260D03*
X-425740Y-789000D03*
X-422000D03*
X-418260D03*
Y-779000D03*
X-422000D03*
X-425740D03*
X-398240Y48000D03*
X-394500D03*
X-390760D03*
Y58000D03*
X-394500D03*
X-398240D03*
X-370740Y48000D03*
X-367000D03*
X-363260D03*
Y58000D03*
X-367000D03*
X-370740D03*
X-29240Y42000D03*
X-25500D03*
X-21760D03*
X-15240D03*
X-21760Y52000D03*
X-25500D03*
X-29240D03*
X-15240D03*
X-11500Y42000D03*
X-7760D03*
Y52000D03*
X-11500D03*
G54D282*
X-436560Y-121920D03*
X-443960D03*
X-312300Y-120500D03*
X-319700D03*
X-362300D03*
X-369700D03*
X-262300D03*
X-269700D03*
X-274800Y45000D03*
X-282200D03*
X-212300Y-120500D03*
X-219700D03*
X-162300D03*
X-169700D03*
G54D261*
X-481096Y-2000D03*
X-463904D03*
G54D360*
X-898500Y-105200D03*
Y-97800D03*
X-50500Y-400700D03*
Y-393300D03*
Y-350200D03*
Y-342800D03*
Y-297700D03*
Y-290300D03*
Y-245200D03*
Y-237800D03*
G54D179*
X-525000Y-756750D03*
Y-760250D03*
G54D250*
X-514966Y64645D03*
X-524805D03*
X-534646D03*
X-544485D03*
X-514966Y84325D03*
X-524805D03*
X-534646D03*
X-544485D03*
X-510046Y104015D03*
X-519885D03*
X-529725D03*
X-539566D03*
X-549405D03*
G54D246*
X-376063Y-813937D03*
X-383937D03*
X-391811D03*
X-399685D03*
X-407559D03*
X-415433D03*
Y-806063D03*
X-407559D03*
X-399685D03*
X-391811D03*
X-383937D03*
X-376063D03*
X-375756Y88335D03*
Y75737D03*
X-377724Y82429D03*
Y69831D03*
X-344567Y-813937D03*
X-352441D03*
X-360315D03*
X-368189D03*
Y-806063D03*
X-360315D03*
X-352441D03*
X-348196Y88335D03*
Y75737D03*
X-365913Y88335D03*
X-358039D03*
X-365913Y75737D03*
X-358039D03*
X-369850Y82429D03*
X-361976D03*
X-354102D03*
X-346228D03*
X-369850Y69831D03*
X-361976D03*
X-354102D03*
X-346228D03*
X-228428Y87194D03*
X-222522D03*
X-216617D03*
X-210711D03*
X-204806D03*
X-198900D03*
X-192995D03*
X-225475Y93099D03*
X-219569D03*
X-213664D03*
X-207759D03*
X-201853D03*
X-195947D03*
X-222522Y99005D03*
X-216617D03*
X-210711D03*
X-204806D03*
X-198900D03*
X-192995D03*
X-128034Y87194D03*
X-122128D03*
X-116223D03*
X-110317D03*
X-104412D03*
X-98506D03*
X-92601D03*
X-125081Y93099D03*
X-119175D03*
X-113270D03*
X-107365D03*
X-101459D03*
X-95553D03*
X-122128Y99005D03*
X-116223D03*
X-110317D03*
X-104412D03*
X-98506D03*
X-92601D03*
G54D244*
X-857700Y-775000D03*
X-779000D03*
G54D26*
X-797611Y-683524D03*
Y-681552D03*
Y-679581D03*
X-796117Y-685017D03*
X-795608Y-683013D03*
X-795794Y-680568D03*
X-795791Y-678592D03*
X-795806Y-676620D03*
X-794146Y-685017D03*
X-794022Y-681430D03*
X-793964Y-677332D03*
X-792176Y-685017D03*
X-793109Y-683182D03*
X-791850Y-679255D03*
X-797611Y-585419D03*
Y-583448D03*
Y-581476D03*
X-795806Y-588380D03*
X-795791Y-586408D03*
X-795794Y-584432D03*
X-795608Y-581987D03*
X-796117Y-579983D03*
X-793964Y-587668D03*
X-794022Y-583570D03*
X-794146Y-579983D03*
X-791850Y-585745D03*
X-793109Y-581818D03*
X-792176Y-579983D03*
X-790596Y-682982D03*
X-790279Y-675768D03*
X-787693Y-672935D03*
X-785196Y-675002D03*
X-783499Y-672402D03*
X-780530Y-675002D03*
X-779030Y-672323D03*
X-773922Y-675002D03*
X-772737Y-672216D03*
X-767630Y-675002D03*
X-766130Y-672323D03*
X-761180Y-675402D03*
X-760430Y-672491D03*
X-753280Y-675311D03*
Y-672311D03*
X-748720Y-675311D03*
Y-672311D03*
X-740820Y-675402D03*
X-741570Y-672491D03*
X-734370Y-675002D03*
X-735870Y-672323D03*
X-787596Y-664430D03*
Y-659530D03*
Y-654630D03*
Y-649130D03*
X-787996Y-642680D03*
X-787906Y-634780D03*
Y-630220D03*
X-787996Y-622320D03*
X-787596Y-615870D03*
X-786148Y-670404D03*
X-786994Y-668559D03*
X-784901Y-667353D03*
X-784996Y-662930D03*
Y-658030D03*
Y-653130D03*
Y-647630D03*
X-785085Y-641930D03*
X-784906Y-634780D03*
Y-630220D03*
X-785085Y-623070D03*
X-784996Y-617370D03*
X-782129Y-669561D03*
X-782456Y-661060D03*
Y-656160D03*
X-782306Y-651760D03*
X-782156Y-646260D03*
X-782176Y-641180D03*
X-781906Y-634780D03*
Y-630220D03*
X-782176Y-623820D03*
X-782156Y-618740D03*
X-782306Y-613240D03*
X-781021Y-665341D03*
X-779570Y-660030D03*
Y-655130D03*
X-777660Y-669561D03*
X-778832Y-664323D03*
X-777564Y-662226D03*
X-779420Y-650830D03*
X-779270Y-645330D03*
X-779265Y-640430D03*
X-778906Y-634780D03*
Y-630220D03*
X-779265Y-624570D03*
X-779270Y-619670D03*
X-779420Y-614170D03*
X-776730Y-666676D03*
X-775832Y-664323D03*
Y-661273D03*
X-776602Y-657332D03*
Y-653432D03*
Y-649531D03*
Y-645631D03*
Y-641730D03*
Y-637830D03*
Y-634780D03*
Y-630220D03*
Y-627170D03*
Y-623270D03*
Y-619369D03*
Y-615469D03*
X-771932Y-664323D03*
Y-661273D03*
Y-658223D03*
X-773552Y-653432D03*
Y-649531D03*
Y-645631D03*
Y-641730D03*
Y-637830D03*
Y-634780D03*
Y-630220D03*
Y-627170D03*
Y-623270D03*
Y-619369D03*
Y-615469D03*
X-771210Y-669561D03*
X-770280Y-666676D03*
X-770502Y-653432D03*
Y-649531D03*
Y-645631D03*
Y-641730D03*
Y-637830D03*
Y-634780D03*
Y-630220D03*
Y-627170D03*
Y-623270D03*
Y-619369D03*
Y-615469D03*
X-768031Y-664323D03*
Y-661273D03*
Y-658223D03*
Y-655173D03*
X-767452Y-649531D03*
Y-645631D03*
Y-641730D03*
Y-637830D03*
Y-634780D03*
Y-630220D03*
Y-627170D03*
Y-623270D03*
Y-619369D03*
Y-615469D03*
X-764760Y-669561D03*
X-763830Y-666676D03*
X-764131Y-664323D03*
Y-661273D03*
Y-658223D03*
Y-655173D03*
Y-652123D03*
X-764402Y-645631D03*
Y-641730D03*
Y-637830D03*
Y-634780D03*
Y-630220D03*
Y-627170D03*
Y-623270D03*
Y-619369D03*
X-764131Y-612877D03*
X-760230Y-664323D03*
Y-661273D03*
Y-658223D03*
Y-655173D03*
Y-652123D03*
X-760150Y-647750D03*
Y-644700D03*
Y-641650D03*
Y-638600D03*
Y-635550D03*
Y-632500D03*
Y-629450D03*
Y-626400D03*
Y-623350D03*
Y-620300D03*
Y-617250D03*
X-760230Y-612877D03*
X-759680Y-669582D03*
X-758930Y-666672D03*
X-756330Y-664323D03*
Y-661273D03*
Y-658223D03*
Y-655173D03*
Y-652123D03*
X-757100Y-647750D03*
Y-644700D03*
Y-641650D03*
Y-638600D03*
Y-635550D03*
Y-632500D03*
Y-629450D03*
Y-626400D03*
Y-623350D03*
Y-620300D03*
Y-617250D03*
X-756330Y-612877D03*
X-754050Y-647750D03*
Y-644700D03*
Y-641650D03*
Y-638600D03*
Y-635550D03*
Y-632500D03*
Y-629450D03*
Y-626400D03*
Y-623350D03*
Y-620300D03*
Y-617250D03*
X-753280Y-669311D03*
Y-666311D03*
Y-664323D03*
Y-661273D03*
Y-658223D03*
Y-655173D03*
Y-652123D03*
Y-612877D03*
X-751000Y-647750D03*
Y-644700D03*
Y-641650D03*
Y-638600D03*
Y-635550D03*
Y-632500D03*
Y-629450D03*
Y-626400D03*
Y-623350D03*
Y-620300D03*
Y-617250D03*
X-748720Y-669311D03*
Y-666311D03*
Y-664323D03*
Y-661273D03*
Y-658223D03*
Y-655173D03*
Y-652123D03*
Y-612877D03*
X-747950Y-647750D03*
Y-644700D03*
Y-641650D03*
Y-638600D03*
Y-635550D03*
Y-632500D03*
Y-629450D03*
Y-626400D03*
Y-623350D03*
Y-620300D03*
Y-617250D03*
X-745670Y-664323D03*
Y-661273D03*
Y-658223D03*
Y-655173D03*
Y-652123D03*
X-744900Y-647750D03*
Y-644700D03*
Y-641650D03*
Y-638600D03*
Y-635550D03*
Y-632500D03*
Y-629450D03*
Y-626400D03*
Y-623350D03*
Y-620300D03*
Y-617250D03*
X-745670Y-612877D03*
X-742320Y-669582D03*
X-743070Y-666672D03*
X-741770Y-664323D03*
Y-661273D03*
Y-658223D03*
Y-655173D03*
Y-652123D03*
X-741850Y-647750D03*
Y-644700D03*
Y-641650D03*
Y-638600D03*
Y-635550D03*
Y-632500D03*
Y-629450D03*
Y-626400D03*
Y-623350D03*
Y-620300D03*
Y-617250D03*
X-741770Y-612877D03*
X-737240Y-669561D03*
X-738170Y-666676D03*
X-737869Y-664323D03*
Y-661273D03*
Y-658223D03*
Y-655173D03*
Y-652123D03*
X-737598Y-645631D03*
Y-641730D03*
Y-637830D03*
Y-634780D03*
Y-630220D03*
Y-627170D03*
Y-623270D03*
Y-619369D03*
X-737869Y-612877D03*
X-734548Y-649531D03*
Y-645631D03*
Y-641730D03*
Y-637830D03*
Y-634780D03*
Y-630220D03*
Y-627170D03*
Y-623270D03*
Y-619369D03*
Y-615469D03*
X-733969Y-664323D03*
Y-661273D03*
Y-658223D03*
Y-655173D03*
X-790279Y-589232D03*
X-790596Y-582018D03*
X-787596Y-610370D03*
Y-605470D03*
Y-600570D03*
X-787693Y-592065D03*
X-786994Y-596441D03*
X-786148Y-594596D03*
X-784996Y-611870D03*
Y-606970D03*
Y-602070D03*
X-784901Y-597647D03*
X-783499Y-592598D03*
X-785196Y-589998D03*
X-782456Y-608840D03*
Y-603940D03*
X-782129Y-595439D03*
X-779570Y-609870D03*
Y-604970D03*
X-781021Y-599659D03*
X-780530Y-589998D03*
X-777564Y-602774D03*
X-778832Y-600677D03*
X-777660Y-595439D03*
X-779030Y-592677D03*
X-776602Y-611568D03*
Y-607668D03*
X-775832Y-603727D03*
Y-600677D03*
X-776730Y-598324D03*
X-773922Y-589998D03*
X-773552Y-611568D03*
X-771932Y-606777D03*
Y-603727D03*
Y-600677D03*
X-772737Y-592784D03*
X-770502Y-611568D03*
X-770280Y-598324D03*
X-771210Y-595439D03*
X-768031Y-609827D03*
Y-606777D03*
Y-603727D03*
Y-600677D03*
X-766130Y-592677D03*
X-767630Y-589998D03*
X-764131Y-609827D03*
Y-606777D03*
Y-603727D03*
Y-600677D03*
X-763830Y-598324D03*
X-764760Y-595439D03*
X-760230Y-609827D03*
Y-606777D03*
Y-603727D03*
Y-600677D03*
X-760430Y-592509D03*
X-761180Y-589598D03*
X-758930Y-598328D03*
X-759680Y-595418D03*
X-756330Y-609827D03*
Y-606777D03*
Y-603727D03*
Y-600677D03*
X-753280Y-609827D03*
Y-606777D03*
Y-603727D03*
Y-600677D03*
Y-598689D03*
Y-595689D03*
Y-592689D03*
Y-589689D03*
X-748720Y-609827D03*
Y-606777D03*
Y-603727D03*
Y-600677D03*
Y-598689D03*
Y-595689D03*
Y-592689D03*
Y-589689D03*
X-745670Y-609827D03*
Y-606777D03*
Y-603727D03*
Y-600677D03*
X-743070Y-598328D03*
X-742320Y-595418D03*
X-741770Y-609827D03*
Y-606777D03*
Y-603727D03*
Y-600677D03*
X-741570Y-592509D03*
X-740820Y-589598D03*
X-737869Y-609827D03*
Y-606777D03*
Y-603727D03*
Y-600677D03*
X-738170Y-598324D03*
X-737240Y-595439D03*
X-735870Y-592677D03*
X-734370Y-589998D03*
X-733969Y-609827D03*
Y-606777D03*
Y-603727D03*
Y-600677D03*
X-729263Y-672216D03*
X-728078Y-675002D03*
X-722970Y-672323D03*
X-721470Y-675002D03*
X-716804D03*
X-718501Y-672402D03*
X-714307Y-672935D03*
X-711404Y-682982D03*
X-711721Y-675768D03*
X-709824Y-685017D03*
X-708891Y-683182D03*
X-710150Y-679255D03*
X-707854Y-685017D03*
X-707978Y-681430D03*
X-708036Y-677332D03*
X-705883Y-685017D03*
X-706392Y-683013D03*
X-706206Y-680568D03*
X-706209Y-678592D03*
X-706194Y-676620D03*
X-704389Y-683524D03*
Y-681552D03*
Y-679581D03*
X-730790Y-669561D03*
X-731720Y-666676D03*
X-731498Y-653432D03*
Y-649531D03*
Y-645631D03*
Y-641730D03*
Y-637830D03*
Y-634780D03*
Y-630220D03*
Y-627170D03*
Y-623270D03*
Y-619369D03*
Y-615469D03*
X-730068Y-664323D03*
Y-661273D03*
Y-658223D03*
X-728448Y-653432D03*
Y-649531D03*
Y-645631D03*
Y-641730D03*
Y-637830D03*
Y-634780D03*
Y-630220D03*
Y-627170D03*
Y-623270D03*
Y-619369D03*
Y-615469D03*
X-725270Y-666676D03*
X-726168Y-664323D03*
Y-661273D03*
X-725398Y-657332D03*
Y-653432D03*
Y-649531D03*
Y-645631D03*
Y-641730D03*
Y-637830D03*
Y-634780D03*
Y-630220D03*
Y-627170D03*
Y-623270D03*
Y-619369D03*
Y-615469D03*
X-724340Y-669561D03*
X-723168Y-664323D03*
X-724436Y-662226D03*
X-722580Y-650830D03*
X-722730Y-645330D03*
X-722735Y-640430D03*
X-723094Y-634780D03*
Y-630220D03*
X-722735Y-624570D03*
X-722730Y-619670D03*
X-722580Y-614170D03*
X-720979Y-665341D03*
X-722430Y-660030D03*
Y-655130D03*
X-719871Y-669561D03*
X-719544Y-661060D03*
Y-656160D03*
X-719694Y-651760D03*
X-719844Y-646260D03*
X-719824Y-641180D03*
X-720094Y-634780D03*
Y-630220D03*
X-719824Y-623820D03*
X-719844Y-618740D03*
X-719694Y-613240D03*
X-717099Y-667353D03*
X-717004Y-662930D03*
Y-658030D03*
Y-653130D03*
Y-647630D03*
X-716915Y-641930D03*
X-717094Y-634780D03*
Y-630220D03*
X-716915Y-623070D03*
X-717004Y-617370D03*
X-715852Y-670404D03*
X-715006Y-668559D03*
X-714404Y-664430D03*
Y-659530D03*
Y-654630D03*
Y-649130D03*
X-714004Y-642680D03*
X-714094Y-634780D03*
Y-630220D03*
X-714004Y-622320D03*
X-714404Y-615870D03*
X-731498Y-611568D03*
X-731720Y-598324D03*
X-730790Y-595439D03*
X-728448Y-611568D03*
X-730068Y-606777D03*
Y-603727D03*
Y-600677D03*
X-729263Y-592784D03*
X-728078Y-589998D03*
X-725398Y-611568D03*
Y-607668D03*
X-726168Y-603727D03*
Y-600677D03*
X-725270Y-598324D03*
X-724436Y-602774D03*
X-723168Y-600677D03*
X-724340Y-595439D03*
X-722970Y-592677D03*
X-722430Y-609870D03*
Y-604970D03*
X-720979Y-599659D03*
X-721470Y-589998D03*
X-719544Y-608840D03*
Y-603940D03*
X-719871Y-595439D03*
X-717004Y-611870D03*
Y-606970D03*
Y-602070D03*
X-717099Y-597647D03*
X-718501Y-592598D03*
X-716804Y-589998D03*
X-715006Y-596441D03*
X-715852Y-594596D03*
X-714404Y-610370D03*
Y-605470D03*
Y-600570D03*
X-714307Y-592065D03*
X-711721Y-589232D03*
X-711404Y-582018D03*
X-710150Y-585745D03*
X-708891Y-581818D03*
X-709824Y-579983D03*
X-708036Y-587668D03*
X-707978Y-583570D03*
X-707854Y-579983D03*
X-706194Y-588380D03*
X-706209Y-586408D03*
X-706206Y-584432D03*
X-706392Y-581987D03*
X-705883Y-579983D03*
X-704389Y-585419D03*
Y-583448D03*
Y-581476D03*
G54D348*
X-375000Y-8486D03*
X-380000D03*
X-385000D03*
Y12286D03*
X-380000D03*
X-375000D03*
X-370000Y-8486D03*
Y12286D03*
X-60900Y-757450D03*
X-55900D03*
X-50900D03*
X-45900D03*
Y-778950D03*
X-50900D03*
X-55900D03*
X-60900D03*
G54D237*
X-309170Y121564D03*
X-272950D03*
G54D225*
X-915900Y-327500D03*
X-911900D03*
X-893000Y-805000D03*
X-897000D03*
X-889000Y-797000D03*
X-893000D03*
Y-801000D03*
X-889000D03*
X-883600Y-813100D03*
X-879600D03*
Y-809100D03*
X-883600D03*
X-897000Y-813000D03*
X-893000D03*
X-897000Y-809000D03*
X-893000D03*
X-891500Y-744900D03*
X-887500D03*
X-891500Y-754500D03*
X-887500D03*
X-893500Y-765000D03*
X-897500D03*
X-893500Y-761000D03*
X-897500D03*
Y-769000D03*
X-893500D03*
X-891500Y-734300D03*
X-887500D03*
X-879600Y-696700D03*
X-875600D03*
X-879600Y-700700D03*
X-875600D03*
X-856600Y-690700D03*
X-860600D03*
X-865600D03*
X-869600D03*
X-875600Y-692700D03*
X-879600D03*
X-865100Y-711500D03*
X-861100D03*
X-875600Y-708700D03*
X-879600D03*
X-875600Y-712700D03*
X-879600D03*
Y-704700D03*
X-875600D03*
X-891400Y-723800D03*
X-887400D03*
X-875500Y-635000D03*
X-879500D03*
Y-658000D03*
X-875500D03*
X-856500Y-647000D03*
X-860500D03*
X-875500Y-631000D03*
X-879500D03*
X-869500Y-647000D03*
X-865500D03*
X-870000Y-671000D03*
X-866000D03*
X-875000D03*
X-879000D03*
X-879500Y-650000D03*
X-875500D03*
X-860500Y-667200D03*
X-856500D03*
X-870000D03*
X-866000D03*
X-879500Y-654000D03*
X-875500D03*
X-909500Y-316500D03*
X-905500D03*
X-899000Y-367000D03*
X-903000D03*
Y-347000D03*
X-899000D03*
X-903000Y-339000D03*
X-899000D03*
X-900000Y-280000D03*
X-904000D03*
X-899000Y-247500D03*
X-895000D03*
Y-251500D03*
X-899000D03*
X-882000Y-25500D03*
X-878000D03*
X-891000Y31500D03*
X-895000D03*
X-871500Y4500D03*
X-867500D03*
X-886000Y19500D03*
X-882000D03*
Y7500D03*
X-886000D03*
Y11500D03*
X-882000D03*
X-891000Y19500D03*
X-895000D03*
X-886000Y15500D03*
X-882000D03*
X-895000D03*
X-891000D03*
X-895000Y11500D03*
X-891000D03*
X-892000Y92000D03*
X-888000D03*
X-887000Y84000D03*
X-883000D03*
Y80000D03*
X-887000D03*
X-901500Y105600D03*
X-897500D03*
X-901500Y98000D03*
X-897500D03*
X-901500Y93500D03*
X-897500D03*
X-897000Y85000D03*
X-901000D03*
Y79500D03*
X-897000D03*
X-883000Y88000D03*
X-887000D03*
X-892000Y75500D03*
X-896000D03*
Y63000D03*
X-892000D03*
X-897000Y54000D03*
X-901000D03*
X-896000Y58500D03*
X-892000D03*
X-897000Y67500D03*
X-901000D03*
X-887000Y71500D03*
X-883000D03*
X-887000Y75500D03*
X-883000D03*
X-892000Y71500D03*
X-896000D03*
X-892000Y111000D03*
X-888000D03*
X-901500Y111100D03*
X-897500D03*
X-816600Y-685300D03*
X-820600D03*
X-823400Y-645300D03*
X-827400D03*
X-813000Y-574500D03*
X-809000D03*
X-820400Y-610600D03*
X-824400D03*
X-834000D03*
X-830000D03*
X-834000Y-607000D03*
X-830000D03*
X-824400D03*
X-820400D03*
X-834000Y-603500D03*
X-830000D03*
X-834000Y-600000D03*
X-830000D03*
X-809000Y-567500D03*
X-813000D03*
Y-563500D03*
X-809000D03*
X-843500Y-610600D03*
X-839500D03*
X-843500Y-607000D03*
X-839500D03*
X-813500Y-598000D03*
X-809500D03*
X-813500Y-594000D03*
X-809500D03*
X-824500Y-600000D03*
X-820500D03*
X-824500Y-603500D03*
X-820500D03*
X-839500Y-602600D03*
X-843500D03*
X-839500Y-597000D03*
X-843500D03*
X-809000Y-559500D03*
X-813000D03*
X-794000Y-551000D03*
X-803000D03*
X-799000D03*
X-827000Y-516500D03*
X-823000D03*
X-827000Y-520500D03*
X-823000D03*
X-816500Y-292000D03*
X-812500D03*
X-816500Y-300000D03*
X-812500D03*
X-816500Y-276000D03*
X-812500D03*
Y-288000D03*
X-816500D03*
X-812500Y-280000D03*
X-816500D03*
X-812500Y-272000D03*
X-816500D03*
X-812500Y-284000D03*
X-816500D03*
Y-296000D03*
X-812500D03*
X-832500Y-165500D03*
X-828500D03*
X-832500Y-169500D03*
X-828500D03*
X-832500Y-150000D03*
X-828500D03*
X-832500Y-154000D03*
X-828500D03*
X-832500Y-138000D03*
X-828500D03*
X-832500Y-134000D03*
X-828500D03*
X-832500Y-122500D03*
X-828500D03*
X-794000Y-114500D03*
X-798000D03*
X-794000Y-110500D03*
X-798000D03*
X-832500Y-118500D03*
X-828500D03*
X-831500Y-15000D03*
X-827500D03*
X-831500Y-23000D03*
X-827500D03*
X-831500Y-19000D03*
X-827500D03*
X-831500Y-27000D03*
X-827500D03*
Y-1500D03*
X-831500D03*
X-795500Y1000D03*
X-791500D03*
X-795500Y5000D03*
X-791500D03*
X-829000Y75500D03*
X-833000D03*
X-829000Y79500D03*
X-833000D03*
X-819000Y66000D03*
X-815000D03*
X-761000Y-793000D03*
X-757000D03*
X-761000Y-797000D03*
X-757000D03*
X-751000Y-781000D03*
X-747000D03*
X-757000Y-789000D03*
X-761000D03*
X-747000Y-785000D03*
X-751000D03*
X-741000D03*
X-737000D03*
X-733500Y-755000D03*
X-737500D03*
X-757000Y-785000D03*
X-761000D03*
X-757000Y-781000D03*
X-761000D03*
Y-775000D03*
X-757000D03*
X-775500Y-733500D03*
X-771500D03*
X-783500Y-743000D03*
X-787500D03*
X-741000Y-781000D03*
X-737000D03*
Y-773000D03*
X-741000D03*
Y-777000D03*
X-737000D03*
X-771500Y-729500D03*
X-775500D03*
X-741500Y-522500D03*
X-745500D03*
X-754500D03*
X-750500D03*
X-766500Y-528000D03*
X-770500D03*
X-790000Y-551000D03*
X-746000Y-526500D03*
X-750000D03*
X-770500Y-524000D03*
X-766500D03*
X-751500Y-435500D03*
X-755500D03*
Y-266000D03*
X-759500D03*
X-755500Y-270000D03*
X-759500D03*
X-758500Y-296500D03*
X-754500D03*
X-737500Y-12500D03*
X-741500D03*
Y34500D03*
X-737500D03*
X-741500Y47500D03*
X-737500D03*
Y30500D03*
X-741500D03*
X-737500Y1500D03*
X-741500D03*
X-737500Y5500D03*
X-741500D03*
X-737500Y16500D03*
X-741500D03*
X-737500Y-2500D03*
X-741500D03*
X-737500Y-6500D03*
X-741500D03*
X-737500Y38500D03*
X-741500D03*
X-737500Y42500D03*
X-741500D03*
X-723000Y-796500D03*
X-719000D03*
X-726000Y-768500D03*
X-730000D03*
X-692500Y-775000D03*
X-696500D03*
Y-780000D03*
X-692500D03*
X-693500Y-633500D03*
X-689500D03*
Y-637500D03*
X-693500D03*
X-687500Y-581000D03*
X-683500D03*
X-687500Y-585000D03*
X-683500D03*
X-657500Y-792000D03*
X-653500D03*
X-640500Y-755500D03*
X-636500D03*
X-644500Y-626500D03*
X-648500D03*
X-620000Y46500D03*
X-616000D03*
X-622000Y24500D03*
X-618000D03*
X-622000Y33500D03*
X-618000D03*
X-622000Y12500D03*
X-618000D03*
X-611500Y3000D03*
X-622000Y16500D03*
X-618000D03*
X-627500Y12500D03*
X-631500D03*
X-618000Y20500D03*
X-622000D03*
X-631500Y16500D03*
X-627500D03*
X-631500Y43000D03*
X-627500D03*
X-631500Y39000D03*
X-627500D03*
X-631500Y28500D03*
X-627500D03*
X-631500Y32500D03*
X-627500D03*
X-560500Y-762000D03*
X-564500D03*
X-554000Y-768500D03*
Y-772500D03*
X-577500Y30500D03*
X-581500D03*
X-577500Y35500D03*
X-581500D03*
X-577500Y40500D03*
X-581500D03*
X-571500Y13500D03*
X-575500D03*
X-607500Y3000D03*
X-583500Y69000D03*
X-587500D03*
X-583500Y74000D03*
X-587500D03*
X-583500Y102000D03*
X-587500D03*
X-583500Y107000D03*
X-587500D03*
X-573000Y69000D03*
X-577000D03*
X-573000Y74000D03*
X-577000D03*
X-573000Y102000D03*
X-577000D03*
X-583500Y79000D03*
X-587500D03*
X-577000D03*
X-573000D03*
X-577000Y84000D03*
X-573000D03*
X-583500D03*
X-587500D03*
X-573000Y107000D03*
X-577000D03*
X-573000Y89000D03*
X-577000D03*
X-587500D03*
X-583500D03*
X-573000Y93000D03*
X-577000D03*
X-583500D03*
X-587500D03*
X-577000Y97000D03*
X-573000D03*
X-583500Y98000D03*
X-587500D03*
X-583500Y111000D03*
X-587500D03*
X-521000Y-794500D03*
X-517000D03*
X-498500Y-775500D03*
X-502500D03*
X-498500Y-779500D03*
X-502500D03*
X-550000Y-768500D03*
Y-772500D03*
X-502500Y-767500D03*
X-498500D03*
X-502500Y-771500D03*
X-498500D03*
X-514000Y-786000D03*
X-510000D03*
X-514000Y-782000D03*
X-510000D03*
X-526100Y-461700D03*
X-522100D03*
X-526100Y-457700D03*
X-522100D03*
X-526100Y-465700D03*
X-522100D03*
X-501500Y-452500D03*
X-497500D03*
Y-456500D03*
X-501500D03*
X-518600Y-445500D03*
X-514600D03*
X-518600Y-450500D03*
X-514600D03*
X-497500Y-373500D03*
X-493500D03*
X-497500Y-369500D03*
X-493500D03*
X-497500Y-365500D03*
X-493500D03*
X-522000Y-299500D03*
X-526000D03*
X-506500Y-298000D03*
X-502500D03*
X-526000Y-295500D03*
X-522000D03*
X-526000Y-292000D03*
X-522000D03*
X-499500Y-247500D03*
X-495500D03*
X-497500Y-156000D03*
X-501500D03*
X-493000Y-164000D03*
X-497000D03*
X-502000D03*
X-506000D03*
X-501000Y-134000D03*
X-497000D03*
X-502000Y-160000D03*
X-506000D03*
X-493000D03*
X-497000D03*
X-501000Y-144000D03*
X-497000D03*
X-501000Y-139500D03*
X-497000D03*
X-498500Y-18500D03*
X-494500D03*
X-498500Y-24500D03*
X-494500D03*
X-471000Y-811500D03*
X-475000D03*
X-448500Y-765500D03*
X-452500D03*
X-448500Y-769500D03*
X-452500D03*
X-482000Y-780000D03*
X-478000D03*
X-485000Y-373500D03*
X-481000D03*
Y-365500D03*
X-485000D03*
X-481000Y-369500D03*
X-485000D03*
X-479500Y-323500D03*
X-475500D03*
X-459000Y-137000D03*
X-463000D03*
X-459000Y-145000D03*
X-463000D03*
X-459000Y-149000D03*
X-463000D03*
X-449500Y-153000D03*
X-453500D03*
X-449500Y-149000D03*
X-453500D03*
X-449500Y-137000D03*
X-453500D03*
X-449500Y-141000D03*
X-453500D03*
Y-145000D03*
X-449500D03*
X-463000Y-153000D03*
X-459000D03*
X-463000Y-141000D03*
X-459000D03*
X-488500Y-169000D03*
X-484500D03*
X-459000Y-133000D03*
X-463000D03*
X-448000Y-13000D03*
X-444000D03*
X-448000Y-17000D03*
X-444000D03*
Y-32500D03*
X-448000D03*
X-444000Y-28500D03*
X-448000D03*
X-444000Y-9000D03*
X-448000D03*
X-385500Y-646000D03*
X-389500D03*
X-385500Y-649500D03*
X-389500D03*
X-394000Y-575500D03*
X-390000D03*
X-427000Y-91500D03*
X-423000D03*
X-343000Y-686500D03*
X-339000D03*
X-317000D03*
X-313000D03*
X-329500D03*
X-333500D03*
X-330800Y-730900D03*
X-334800D03*
X-328000Y-722700D03*
X-324000D03*
X-328000Y-726500D03*
X-324000D03*
X-341500Y-575500D03*
X-337500D03*
X-341000Y-611000D03*
X-337000D03*
X-328000D03*
X-332000D03*
X-314000Y-382000D03*
X-353000Y-91500D03*
X-349000D03*
X-363300Y-39800D03*
X-359300D03*
X-354400Y-43300D03*
X-350400D03*
X-354400Y-39700D03*
X-350400D03*
X-315300Y28600D03*
X-319300D03*
X-315300Y33500D03*
X-319300D03*
X-330000Y-3200D03*
X-334000D03*
X-330000Y300D03*
X-334000D03*
X-324000Y60000D03*
X-320000D03*
X-269000Y-782000D03*
X-273000D03*
X-278000D03*
X-282000D03*
X-284500Y-686500D03*
X-288500D03*
X-303500D03*
X-307500D03*
X-298000D03*
X-294000D03*
X-290500Y-612500D03*
X-286500D03*
X-300000Y-382000D03*
X-304000D03*
X-270000D03*
X-274000D03*
X-290000D03*
X-294000D03*
X-310000D03*
X-280000D03*
X-284000D03*
X-253000Y-91500D03*
X-303000D03*
X-299000D03*
X-274500Y21500D03*
X-278500D03*
X-274500Y700D03*
X-278500D03*
Y-2800D03*
X-274500D03*
Y-9600D03*
X-278500D03*
X-274500Y4200D03*
X-278500D03*
X-274500Y11500D03*
X-278500D03*
X-293100Y-2100D03*
X-289100D03*
X-293100Y1400D03*
X-289100D03*
X-301600Y-2100D03*
X-297600D03*
X-301600Y1400D03*
X-297600D03*
X-266000Y60500D03*
X-262000D03*
Y56500D03*
X-266000D03*
X-233300Y-757700D03*
X-229300D03*
X-203000Y-91500D03*
X-199000D03*
X-249000D03*
X-191400Y-39400D03*
X-223500Y11000D03*
X-227500D03*
X-223500Y7000D03*
X-227500D03*
Y15000D03*
X-223500D03*
X-214500Y-4700D03*
X-218500D03*
X-227500Y3000D03*
X-223500D03*
X-227500Y-1000D03*
X-223500D03*
X-204600Y43500D03*
X-200600D03*
X-192000D03*
X-196000D03*
X-227500Y19000D03*
X-223500D03*
X-227500Y23000D03*
X-223500D03*
Y27000D03*
X-227500D03*
X-214500Y15000D03*
X-218500D03*
X-236500Y31500D03*
X-232500D03*
X-214500Y11000D03*
X-218500D03*
X-214500Y7000D03*
X-218500D03*
X-214500Y3000D03*
X-218500D03*
X-214500Y-1000D03*
X-218500D03*
X-191500Y13300D03*
X-153000Y-91500D03*
X-149000D03*
X-182000Y-30600D03*
X-178000D03*
X-187400Y-39400D03*
X-145500Y43000D03*
X-149500D03*
X-181500Y7000D03*
X-177500D03*
X-187500Y43500D03*
X-183500D03*
X-187500Y13300D03*
X-74000Y-806500D03*
X-78000D03*
X-100000Y-780000D03*
X-104000D03*
X-87500Y-201500D03*
X-91500D03*
X-74000D03*
X-78000D03*
X-94000Y-195500D03*
X-98000D03*
X-99000Y-169000D03*
X-103000D03*
X-99000Y-159500D03*
X-103000D03*
X-99000Y-175000D03*
X-103000D03*
X-99000Y-181000D03*
X-103000D03*
X-99000Y-187000D03*
X-103000D03*
X-77000Y-24000D03*
X-81000D03*
X-81500Y-13000D03*
X-85500D03*
X-77000Y-20000D03*
X-81000D03*
X-97000Y-47500D03*
X-101000D03*
X-82500Y7500D03*
X-78500D03*
X-102500Y43500D03*
X-98500D03*
X-89900D03*
X-93900D03*
X-73500Y20000D03*
X-77500D03*
X-85000Y43500D03*
X-81000D03*
X-46000Y-793200D03*
X-50000D03*
Y-797200D03*
X-46000D03*
X-62000Y-800900D03*
X-58000D03*
X-25800Y-775500D03*
X-29800D03*
X-35000D03*
X-39000D03*
X-46000Y-789700D03*
X-50000D03*
X-29800Y-771900D03*
X-25800D03*
X-29800Y-764400D03*
X-25800D03*
Y-768300D03*
X-29800D03*
X-12900Y-761100D03*
X-13500Y-672000D03*
X-60557Y-686709D03*
X-64557D03*
X-60500Y-649300D03*
X-64500D03*
X-15100Y-492100D03*
X-38000Y-433000D03*
X-34000D03*
X-19100Y-468600D03*
X-23100D03*
X-14100D03*
X-23100Y-473600D03*
X-19100D03*
X-14100D03*
Y-477600D03*
X-17500Y-420500D03*
X-21500D03*
X-37500Y-380500D03*
X-33500D03*
X-17000Y-368000D03*
X-21000D03*
X-17000Y-315500D03*
X-21000D03*
X-37500Y-328000D03*
X-33500D03*
X-17000Y-263000D03*
X-21000D03*
X-37500Y-275500D03*
X-33500D03*
X-39400Y-205600D03*
X-43400D03*
X-35500Y-166000D03*
X-39500D03*
X-35500Y-186000D03*
X-39500D03*
X-35500Y-190000D03*
X-39500D03*
X-35500Y-162000D03*
X-39500D03*
X-26500Y-170000D03*
X-30500D03*
X-39500D03*
X-35500D03*
Y-178000D03*
X-39500D03*
Y-182000D03*
X-35500D03*
X-52551Y-49469D03*
X-48551D03*
X-52551Y-45889D03*
X-48551D03*
X-39500Y36000D03*
X-35500D03*
X-26500D03*
X-30500D03*
X-14500Y26000D03*
X-23000Y58000D03*
X-27000D03*
X-8900Y-761100D03*
X-9500Y-672000D03*
X1000Y-719500D03*
X5000D03*
X-11100Y-492100D03*
X-10100Y-468600D03*
Y-473600D03*
Y-477600D03*
X-10500Y26000D03*
G54D221*
X-873531Y-613059D03*
X-877469D03*
X-875500Y-617941D03*
X-873531Y-622059D03*
X-877469D03*
X-875500Y-626941D03*
X-762031Y-742441D03*
X-765969D03*
X-764000Y-737559D03*
X-753531Y-742441D03*
X-757469D03*
X-755500Y-737559D03*
X-773969Y-342941D03*
X-770031D03*
X-772000Y-338059D03*
X-773969Y-351441D03*
X-770031D03*
X-772000Y-346559D03*
X-728000Y-733941D03*
X-729969Y-729059D03*
X-726031D03*
X-727969Y-528941D03*
X-724031D03*
X-726000Y-524059D03*
X-516669Y-468041D03*
X-512731D03*
X-514700Y-463159D03*
X-516669Y-459341D03*
X-512731D03*
X-514700Y-454459D03*
X-495531Y-252059D03*
X-499469D03*
X-497500Y-256941D03*
X-495531Y-261059D03*
X-499469D03*
X-497500Y-265941D03*
X-520031Y-283059D03*
X-523969D03*
X-522000Y-287941D03*
X-208469Y4759D03*
X-204531D03*
X-206500Y9641D03*
X-200569Y4759D03*
X-196631D03*
X-198600Y9641D03*
X-202469Y24559D03*
X-198531D03*
X-200500Y29441D03*
X-194469Y24559D03*
X-192500Y29441D03*
X-209531Y38441D03*
X-213469D03*
X-211500Y33559D03*
X-178831Y-36259D03*
X-182769D03*
X-180800Y-41141D03*
X-170831Y-36259D03*
X-174769D03*
X-172800Y-41141D03*
X-191369Y4759D03*
X-187431D03*
X-189400Y9641D03*
X-190531Y24559D03*
X-177969Y27059D03*
X-174031D03*
X-176000Y31941D03*
X-97969Y-724941D03*
X-94031D03*
X-96000Y-720059D03*
X-98969Y4059D03*
X-95031D03*
X-97000Y8941D03*
X-90969Y4059D03*
X-87031D03*
X-89000Y8941D03*
X-107531Y38441D03*
X-111469D03*
X-109500Y33559D03*
X-77469Y25559D03*
X-73531D03*
X-75500Y30441D03*
X-93969Y24559D03*
X-90031D03*
X-92000Y29441D03*
X-101969Y24559D03*
X-98031D03*
X-100000Y29441D03*
X-106969Y4059D03*
X-103031D03*
X-105000Y8941D03*
X-57969Y-809441D03*
X-54031D03*
X-56000Y-804559D03*
G54D210*
X-459682Y-103732D03*
X-103739D03*
X-32374Y-451267D03*
Y-221920D03*
G54D204*
X-316257Y72587D03*
Y96209D03*
X-265863Y72587D03*
Y96209D03*
G54D259*
X-427265Y-102441D03*
X-353265D03*
X-303265D03*
X-253265D03*
X-203265D03*
X-153265D03*
G54D249*
X-918500Y-275079D03*
G54D167*
X-797611Y-677611D03*
Y-587389D03*
X-790205Y-685017D03*
X-790204Y-579983D03*
X-711796Y-685017D03*
X-704389Y-677611D03*
X-711795Y-579983D03*
X-704389Y-587389D03*
G54D351*
X-887300Y-774500D03*
X-896700D03*
X-887300Y-782000D03*
X-896700D03*
X-884300Y25500D03*
X-893700D03*
X-882300Y97500D03*
X-891700D03*
X-882300Y105000D03*
X-891700D03*
X-770500Y-315400D03*
Y-329600D03*
X-510100Y-811000D03*
X-495900D03*
X-473000Y-14800D03*
Y-24200D03*
X-488000Y-14800D03*
Y-24200D03*
X-480500Y-14800D03*
Y-24200D03*
X-268800Y35500D03*
Y49700D03*
X-212000Y-44500D03*
X-197800D03*
X-134100Y30500D03*
X-119900D03*
X-20300Y-484600D03*
X-37500Y41900D03*
Y56100D03*
X-10900Y-484600D03*
G54D239*
X-310940Y-815820D03*
Y-794170D03*
X-261330Y-815820D03*
X-277870D03*
X-294400D03*
X-261330Y-794170D03*
X-277870D03*
X-294400D03*
X-195190Y-815820D03*
X-211730D03*
X-228260D03*
X-244800D03*
X-195190Y-794170D03*
X-211730D03*
X-228260D03*
X-244800D03*
X-162120Y-815820D03*
X-178660D03*
X-162120Y-794170D03*
X-178660D03*
X-145590D03*
X-129050D03*
X-145590Y-815820D03*
X-129050D03*
X-18825Y-137305D03*
Y-120765D03*
Y-104235D03*
Y-87695D03*
Y-56735D03*
Y-40195D03*
X2825Y-137305D03*
Y-120765D03*
Y-104235D03*
Y-87695D03*
Y-56735D03*
Y-40195D03*
G54D343*
X-254575Y-34784D03*
X-252606D03*
X-250638D03*
X-248669D03*
X-246701D03*
X-244732D03*
X-242764D03*
X-240795D03*
X-238827D03*
X-236858D03*
X-234890D03*
X-232921D03*
X-230953D03*
X-228984D03*
X-227016D03*
X-225047D03*
X-223079D03*
X-221110D03*
X-219142D03*
G54D231*
X-890900Y-436300D03*
X-885900D03*
X-880900D03*
X-875900D03*
Y-408300D03*
X-880900D03*
X-885900D03*
X-890900D03*
X-493000Y-441500D03*
X-498000D03*
X-503000D03*
X-508000D03*
Y-418500D03*
X-503000D03*
X-498000D03*
X-493000D03*
X-9500Y-679500D03*
X-4500D03*
X500D03*
X5500D03*
Y-702500D03*
X500D03*
X-4500D03*
X-9500D03*
G54D334*
X-445539Y-804842D03*
X-448689D03*
X-451839D03*
X-454988D03*
X-458138D03*
X-461287D03*
X-464437D03*
X-467587D03*
X-470736D03*
X-473886D03*
X-475461Y-785158D03*
X-472311D03*
X-469161D03*
X-466012D03*
X-462862D03*
X-459713D03*
X-456563D03*
X-453413D03*
X-450264D03*
X-447114D03*
G54D326*
X-415605Y-108406D03*
X-341605D03*
X-291605D03*
X-241605D03*
X-191605D03*
X-141605D03*
G54D310*
X-737300Y-749600D03*
X-744700D03*
X-737300Y-739400D03*
X-741000D03*
X-744700D03*
X-767866Y-517937D03*
Y-507737D03*
X-760466D03*
Y-517937D03*
X-764166Y-507737D03*
X-651200Y-105400D03*
X-643800D03*
X-651200Y-115600D03*
X-647500D03*
X-643800D03*
X-530200Y-257600D03*
X-526500D03*
X-522800D03*
X-530200Y-247400D03*
X-522800D03*
X-32000Y-793000D03*
X-39400D03*
X-32000Y-782800D03*
X-35700D03*
X-39400D03*
G54D290*
X-374500Y-782500D03*
X-356500D03*
G54D289*
X-886500Y-118500D03*
Y-100500D03*
X-330000Y9000D03*
Y27000D03*
G54D287*
X-524424Y-767988D03*
Y-769563D03*
Y-771138D03*
Y-772713D03*
Y-774287D03*
Y-775862D03*
Y-777437D03*
Y-779012D03*
X-539576D03*
Y-777437D03*
Y-775862D03*
Y-774287D03*
Y-772713D03*
Y-771138D03*
Y-769563D03*
Y-767988D03*
G54D280*
X-444250Y-24500D03*
X-447750D03*
X-444250Y-20500D03*
X-447750D03*
G54D278*
X-156000Y-1000D03*
X-57000D03*
G54D268*
X-204650Y-776000D03*
X-188150D03*
G54D186*
X-910500Y-222750D03*
Y-228250D03*
X-866000Y105250D03*
X-861000D03*
X-866000Y110750D03*
X-861000D03*
X-838500Y-631750D03*
Y-637250D03*
X-796000Y-255750D03*
Y-261250D03*
X-840500Y105250D03*
Y110750D03*
X-755000Y-250250D03*
Y-255750D03*
X-636500Y-760250D03*
Y-765750D03*
X-609640Y-720420D03*
Y-725920D03*
X-594000Y53250D03*
Y58750D03*
X-541500Y-794750D03*
X-497500Y-804750D03*
Y-799250D03*
X-541500Y-789250D03*
X-435500Y-34750D03*
Y-40250D03*
X-389800Y-29050D03*
Y-23550D03*
X-321500Y-147750D03*
Y-153250D03*
X-252000Y-402750D03*
Y-397250D03*
X-300000Y-402750D03*
Y-397250D03*
X-294000Y-402750D03*
Y-397250D03*
X-272000Y-147750D03*
Y-153250D03*
X-246000Y-402750D03*
Y-397250D03*
X-222000Y-147750D03*
Y-153250D03*
X-179500Y-726750D03*
Y-721250D03*
X-184500Y-726750D03*
Y-721250D03*
X-172000Y-147750D03*
Y-153250D03*
X-182500Y17750D03*
Y12250D03*
X-72500Y-773150D03*
Y-767650D03*
X-83500Y17250D03*
Y11750D03*
X-67200Y-773150D03*
Y-767650D03*
X-33500Y-70250D03*
Y-64750D03*
G54D174*
X-878500Y-62780D03*
Y-60220D03*
X-381800Y-22020D03*
Y-24580D03*
X-354500Y-771280D03*
Y-768720D03*
G54D354*
X-431323Y-21673D03*
Y-20098D03*
Y-18524D03*
Y-16949D03*
Y-15374D03*
Y-13799D03*
Y-12224D03*
Y-10650D03*
Y-9075D03*
Y-7500D03*
Y-5925D03*
Y-4350D03*
Y-2776D03*
Y-1201D03*
Y374D03*
Y1949D03*
Y3524D03*
Y5098D03*
Y6673D03*
X-396677Y-13799D03*
Y-15374D03*
Y-16949D03*
Y-18524D03*
Y-20098D03*
Y-21673D03*
Y6673D03*
Y5098D03*
Y3524D03*
Y1949D03*
Y374D03*
Y-1201D03*
Y-2776D03*
Y-4350D03*
Y-5925D03*
Y-7500D03*
Y-9075D03*
Y-10650D03*
Y-12224D03*
G54D165*
X-886547Y-749500D03*
X-892453D03*
X-886547Y-740400D03*
X-892453D03*
X-886447Y-719300D03*
X-892353D03*
X-886547Y-729800D03*
X-892453D03*
G54D235*
X-266543Y-24547D03*
X-209457D03*
G54D342*
X-177000Y-500D03*
X-181500D03*
Y3500D03*
X-177000D03*
X-82500D03*
Y-500D03*
X-78000Y3500D03*
Y-500D03*
G54D233*
X-238000Y-11555D03*
G54D339*
X-788339Y-737158D03*
X-780661D03*
X-783220D03*
X-785780D03*
X-780661Y-726842D03*
X-783220D03*
X-785780D03*
X-788339D03*
G54D311*
X-868900Y-423765D03*
Y-419435D03*
X-508000Y-284965D03*
Y-280635D03*
X-487000Y-265665D03*
Y-261335D03*
G54D307*
X-417327Y-102776D03*
X-343327D03*
X-293327D03*
X-243327D03*
X-193327D03*
X-143327D03*
G54D295*
X-70661Y-185114D03*
X-69087D03*
X-67512D03*
X-65937D03*
X-64362D03*
X-62787D03*
X-61213D03*
X-59638D03*
X-58063D03*
X-56488D03*
X-54913D03*
X-53339D03*
Y-161886D03*
X-54913D03*
X-56488D03*
X-58063D03*
X-59638D03*
X-61213D03*
X-62787D03*
X-64362D03*
X-65937D03*
X-67512D03*
X-69087D03*
X-70661D03*
G54D291*
X-537512Y-765924D03*
X-535937D03*
X-534362D03*
X-532787D03*
X-531213D03*
X-529638D03*
X-528063D03*
X-526488D03*
Y-781076D03*
X-528063D03*
X-529638D03*
X-531213D03*
X-532787D03*
X-534362D03*
X-535937D03*
X-537512D03*
G54D68*
X-797611Y-673805D03*
Y-591195D03*
X-704389Y-673805D03*
Y-591195D03*
G54D216*
X-411239Y-458640D03*
Y-301160D03*
X-176201Y-450766D03*
Y-309036D03*
G54D269*
X-737500Y-222520D03*
Y-143780D03*
X-647284Y22500D03*
X-529000Y-507026D03*
Y-388916D03*
G54D205*
X-435205Y-795000D03*
X-485795D03*
G54D126*
X-310091Y-703303D03*
Y-666238D03*
Y-629174D03*
Y-592109D03*
G54D363*
X-886400Y-388816D03*
Y-390784D03*
X-889500Y-388816D03*
Y-390784D03*
X-895600Y-388816D03*
Y-390784D03*
X-879700Y-395616D03*
Y-397584D03*
X-883200Y-388816D03*
Y-390784D03*
X-894000Y-196984D03*
Y-195016D03*
X-894500Y-149484D03*
Y-147516D03*
X-888000Y-50016D03*
Y-51984D03*
X-885000Y-50016D03*
Y-51984D03*
X-891000Y-50016D03*
Y-51984D03*
X-882000Y-50016D03*
Y-51984D03*
X-873000Y51516D03*
Y53484D03*
X-876000Y51516D03*
Y53484D03*
X-857000Y51516D03*
Y53484D03*
X-793000Y-78984D03*
Y-77016D03*
X-848300Y104716D03*
Y106684D03*
X-842500Y51516D03*
Y53484D03*
X-777200Y-698984D03*
Y-697016D03*
X-760500Y-555016D03*
Y-556984D03*
X-763500Y-555016D03*
Y-556984D03*
X-760500Y-549516D03*
Y-551484D03*
X-763500Y-549516D03*
Y-551484D03*
X-712500Y-89984D03*
Y-88016D03*
X-656000Y-107484D03*
Y-105516D03*
X-639500Y-78484D03*
Y-76516D03*
X-640500Y-90484D03*
Y-88516D03*
X-638000Y-56484D03*
Y-54516D03*
X-565000Y-799484D03*
Y-797516D03*
X-562000Y-799484D03*
Y-797516D03*
X-552000Y-799484D03*
Y-797516D03*
X-578000Y-792516D03*
Y-794484D03*
X-572000Y-792516D03*
Y-794484D03*
X-575000Y-792516D03*
Y-794484D03*
X-569000Y-792516D03*
Y-794484D03*
X-574500Y-760016D03*
Y-761984D03*
X-583500Y-760016D03*
Y-761984D03*
X-571500Y-760016D03*
Y-761984D03*
X-556000Y-786516D03*
Y-788484D03*
X-553300Y-58984D03*
Y-57016D03*
X-555900Y-58984D03*
Y-57016D03*
X-594000Y-57484D03*
Y-55516D03*
X-603500Y8016D03*
Y9984D03*
X-549000Y-799484D03*
Y-797516D03*
X-546000Y-771716D03*
Y-773684D03*
X-520500Y-788016D03*
Y-789984D03*
X-523500Y-788016D03*
Y-789984D03*
X-546500Y-758516D03*
Y-760484D03*
X-545500Y-788016D03*
Y-789984D03*
X-529500Y-788016D03*
Y-789984D03*
X-505500Y-273984D03*
Y-272016D03*
X-502500Y-270016D03*
Y-271984D03*
X-529600Y-58984D03*
Y-57016D03*
X-532200Y-58984D03*
Y-57016D03*
X-544100Y-58984D03*
Y-57016D03*
X-541500Y-58984D03*
Y-57016D03*
X-520500Y-58984D03*
Y-57016D03*
X-517900Y-58984D03*
Y-57016D03*
X-437500Y1016D03*
Y2984D03*
X-436000Y20016D03*
Y21984D03*
X-437500Y5516D03*
Y7484D03*
Y10016D03*
Y11984D03*
X-398500Y-762884D03*
Y-760916D03*
X-401500Y-762884D03*
Y-760916D03*
X-406500Y-762884D03*
Y-760916D03*
X-409500Y-762884D03*
Y-760916D03*
X-376000Y-758516D03*
Y-760484D03*
X-373000Y-758516D03*
Y-760484D03*
X-422000Y-32484D03*
Y-30516D03*
X-412500Y-32484D03*
Y-30516D03*
X-397000Y-37984D03*
Y-36016D03*
X-400500Y-37984D03*
Y-36016D03*
X-394500Y40516D03*
Y42484D03*
X-431500Y20016D03*
Y21984D03*
X-363000Y-758516D03*
Y-760484D03*
X-367000Y-758516D03*
Y-760484D03*
Y41016D03*
Y42984D03*
X-346600Y2216D03*
Y4184D03*
X-339500Y2216D03*
Y4184D03*
X-261000Y-782984D03*
Y-781016D03*
X-275500Y26016D03*
Y27984D03*
X-297900Y15016D03*
Y16984D03*
X-295100Y15016D03*
Y16984D03*
X-260000Y34516D03*
Y36484D03*
X-262600Y34516D03*
Y36484D03*
X-256600Y34516D03*
Y36484D03*
X-254000Y34516D03*
Y36484D03*
X-264200Y-2484D03*
Y-516D03*
X-261200Y-2484D03*
Y-516D03*
X-254200Y-2484D03*
Y-516D03*
X-257200Y-2484D03*
Y-516D03*
X-278500Y26016D03*
Y27984D03*
X-204930Y-36064D03*
Y-34096D03*
X-195000Y-12616D03*
Y-14584D03*
X-247900Y34516D03*
Y36484D03*
X-250500Y34516D03*
Y36484D03*
X-244600Y34516D03*
Y36484D03*
X-242000Y34516D03*
Y36484D03*
X-246400Y-2484D03*
Y-516D03*
X-249400Y-2484D03*
Y-516D03*
X-238600Y-2484D03*
Y-516D03*
X-241600Y-2484D03*
Y-516D03*
X-219400Y37516D03*
Y39484D03*
X-216800Y37516D03*
Y39484D03*
X-228800Y37516D03*
Y39484D03*
X-231400Y37516D03*
Y39484D03*
X-225400Y37516D03*
Y39484D03*
X-222800Y37516D03*
Y39484D03*
X-234800Y37516D03*
Y39484D03*
X-237400Y37516D03*
Y39484D03*
X-236500Y21516D03*
Y23484D03*
X-141500Y21516D03*
Y23484D03*
X-135800Y37516D03*
Y39484D03*
X-133200Y37516D03*
Y39484D03*
X-77500Y-12984D03*
Y-11016D03*
X-121200Y37516D03*
Y39484D03*
X-127200Y37516D03*
Y39484D03*
X-129800Y37516D03*
Y39484D03*
X-117800Y37516D03*
Y39484D03*
X-115200Y37516D03*
Y39484D03*
X-123800Y37516D03*
Y39484D03*
X-43500Y54016D03*
Y55984D03*
X-6500Y27516D03*
Y29484D03*
G54D183*
X-849903Y-693700D03*
X-849803Y-650500D03*
X-835336Y-693700D03*
X-835236Y-650500D03*
X-384064Y-34300D03*
X-369497D03*
G54D182*
X-790296Y-680476D03*
X-787695Y-682117D03*
X-788300Y-679978D03*
X-786266Y-680209D03*
X-784316Y-682956D03*
X-784435Y-680978D03*
X-784115Y-679008D03*
X-781646Y-682448D03*
Y-680476D03*
X-779650Y-679978D03*
X-779045Y-682117D03*
X-777616Y-680209D03*
X-775666Y-682956D03*
X-775785Y-680978D03*
X-775465Y-679008D03*
X-772996Y-682448D03*
Y-680476D03*
X-770395Y-682117D03*
X-771000Y-679978D03*
X-768966Y-680209D03*
X-767016Y-682956D03*
X-767135Y-680978D03*
X-766815Y-679008D03*
X-764346Y-682448D03*
Y-680476D03*
X-762350Y-679978D03*
X-761745Y-682117D03*
X-760316Y-680209D03*
X-758366Y-682956D03*
X-758485Y-680978D03*
X-758165Y-679008D03*
X-755696Y-682448D03*
Y-680476D03*
X-753095Y-682117D03*
X-753725Y-679978D03*
X-751000Y-682917D03*
Y-680917D03*
X-748905Y-682117D03*
X-748275Y-679978D03*
X-746304Y-682448D03*
Y-680476D03*
X-743634Y-682956D03*
X-743515Y-680978D03*
X-743835Y-679008D03*
X-740255Y-682117D03*
X-741684Y-680209D03*
X-739650Y-679978D03*
X-737654Y-682448D03*
Y-680476D03*
X-734984Y-682956D03*
X-734865Y-680978D03*
X-735185Y-679008D03*
X-733034Y-680209D03*
X-790296Y-584524D03*
X-788300Y-585022D03*
X-787695Y-582883D03*
X-786266Y-584791D03*
X-784115Y-585992D03*
X-784435Y-584022D03*
X-784316Y-582044D03*
X-781646Y-584524D03*
Y-582552D03*
X-779650Y-585022D03*
X-777616Y-584791D03*
X-779045Y-582883D03*
X-775785Y-584022D03*
X-775666Y-582044D03*
X-775465Y-585992D03*
X-772996Y-584524D03*
Y-582552D03*
X-771000Y-585022D03*
X-770395Y-582883D03*
X-768966Y-584791D03*
X-766815Y-585992D03*
X-767135Y-584022D03*
X-767016Y-582044D03*
X-764346Y-584524D03*
Y-582552D03*
X-762350Y-585022D03*
X-760316Y-584791D03*
X-761745Y-582883D03*
X-758165Y-585992D03*
X-758485Y-584022D03*
X-758366Y-582044D03*
X-755696Y-584524D03*
Y-582552D03*
X-753725Y-585022D03*
X-753095Y-582883D03*
X-751000Y-584083D03*
Y-582083D03*
X-748275Y-585022D03*
X-748905Y-582883D03*
X-746304Y-584524D03*
Y-582552D03*
X-743835Y-585992D03*
X-743515Y-584022D03*
X-743634Y-582044D03*
X-741684Y-584791D03*
X-740255Y-582883D03*
X-739650Y-585022D03*
X-737654Y-584524D03*
Y-582552D03*
X-735185Y-585992D03*
X-734865Y-584022D03*
X-734984Y-582044D03*
X-733034Y-584791D03*
X-731605Y-682117D03*
X-731000Y-679978D03*
X-729004Y-682448D03*
Y-680476D03*
X-726535Y-679008D03*
X-726334Y-682956D03*
X-726215Y-680978D03*
X-722955Y-682117D03*
X-724384Y-680209D03*
X-722350Y-679978D03*
X-720354Y-682448D03*
Y-680476D03*
X-717684Y-682956D03*
X-717565Y-680978D03*
X-717885Y-679008D03*
X-715734Y-680209D03*
X-714305Y-682117D03*
X-713700Y-679978D03*
X-711704Y-680476D03*
X-731000Y-585022D03*
X-731605Y-582883D03*
X-729004Y-584524D03*
Y-582552D03*
X-726535Y-585992D03*
X-726215Y-584022D03*
X-726334Y-582044D03*
X-724384Y-584791D03*
X-722955Y-582883D03*
X-722350Y-585022D03*
X-720354Y-584524D03*
Y-582552D03*
X-717885Y-585992D03*
X-717565Y-584022D03*
X-717684Y-582044D03*
X-715734Y-584791D03*
X-713700Y-585022D03*
X-714305Y-582883D03*
X-711704Y-584524D03*
G54D177*
X-795550Y-674466D03*
X-793572Y-674585D03*
X-795550Y-665816D03*
Y-657166D03*
Y-648516D03*
Y-639866D03*
X-795511Y-632500D03*
X-795550Y-625134D03*
Y-616484D03*
X-795042Y-671796D03*
X-794711Y-669195D03*
X-793572Y-665935D03*
X-795042Y-663146D03*
X-794711Y-660545D03*
X-793572Y-657285D03*
X-795042Y-654496D03*
X-794711Y-651895D03*
X-793572Y-648635D03*
X-795042Y-645846D03*
X-794711Y-643245D03*
X-793572Y-639985D03*
X-795042Y-637196D03*
X-794711Y-634595D03*
X-793511Y-632500D03*
X-794711Y-630405D03*
X-795042Y-627804D03*
X-793572Y-625015D03*
X-794711Y-621755D03*
X-795042Y-619154D03*
X-793572Y-616365D03*
X-794711Y-613105D03*
X-793070Y-671796D03*
X-792572Y-669825D03*
X-792804Y-667766D03*
X-793070Y-663146D03*
X-792572Y-661175D03*
X-792804Y-659116D03*
X-793070Y-654496D03*
X-792572Y-652525D03*
X-792804Y-650466D03*
X-793070Y-645846D03*
X-792572Y-643875D03*
X-792804Y-641816D03*
X-793070Y-637196D03*
X-792572Y-635225D03*
Y-629775D03*
X-793070Y-627804D03*
X-792804Y-623184D03*
X-792572Y-621125D03*
X-793070Y-619154D03*
X-792804Y-614534D03*
X-792572Y-612475D03*
X-795550Y-607834D03*
Y-599184D03*
Y-590534D03*
X-795042Y-610504D03*
X-793572Y-607715D03*
X-794711Y-604455D03*
X-795042Y-601854D03*
X-793572Y-599065D03*
X-794711Y-595805D03*
X-795042Y-593204D03*
X-793572Y-590415D03*
X-793070Y-610504D03*
X-792804Y-605884D03*
X-792572Y-603825D03*
X-793070Y-601854D03*
X-792804Y-597234D03*
X-792572Y-595175D03*
X-793070Y-593204D03*
X-791602Y-674265D03*
Y-665615D03*
Y-656965D03*
Y-648315D03*
Y-639665D03*
Y-625335D03*
Y-616685D03*
Y-608035D03*
Y-599385D03*
Y-590735D03*
X-710398Y-674265D03*
X-708428Y-674585D03*
X-706450Y-674466D03*
X-708930Y-671796D03*
X-709428Y-669825D03*
X-709196Y-667766D03*
X-710398Y-665615D03*
X-708930Y-663146D03*
X-709428Y-661175D03*
X-709196Y-659116D03*
X-710398Y-656965D03*
X-708930Y-654496D03*
X-709428Y-652525D03*
X-709196Y-650466D03*
X-710398Y-648315D03*
X-708930Y-645846D03*
X-709428Y-643875D03*
X-709196Y-641816D03*
X-710398Y-639665D03*
X-708930Y-637196D03*
X-709428Y-635225D03*
Y-629775D03*
X-708930Y-627804D03*
X-710398Y-625335D03*
X-709196Y-623184D03*
X-709428Y-621125D03*
X-708930Y-619154D03*
X-710398Y-616685D03*
X-709196Y-614534D03*
X-709428Y-612475D03*
X-706958Y-671796D03*
X-707289Y-669195D03*
X-708428Y-665935D03*
X-706958Y-663146D03*
X-707289Y-660545D03*
X-708428Y-657285D03*
X-706958Y-654496D03*
X-707289Y-651895D03*
X-708428Y-648635D03*
X-706958Y-645846D03*
X-707289Y-643245D03*
X-708428Y-639985D03*
X-706958Y-637196D03*
X-707289Y-634595D03*
X-708489Y-632500D03*
X-707289Y-630405D03*
X-706958Y-627804D03*
X-708428Y-625015D03*
X-707289Y-621755D03*
X-706958Y-619154D03*
X-708428Y-616365D03*
X-707289Y-613105D03*
X-706450Y-665816D03*
Y-657166D03*
Y-648516D03*
Y-639866D03*
X-706489Y-632500D03*
X-706450Y-625134D03*
Y-616484D03*
X-708930Y-610504D03*
X-710398Y-608035D03*
X-709196Y-605884D03*
X-709428Y-603825D03*
X-708930Y-601854D03*
X-710398Y-599385D03*
X-709196Y-597234D03*
X-709428Y-595175D03*
X-708930Y-593204D03*
X-710398Y-590735D03*
X-706958Y-610504D03*
X-708428Y-607715D03*
X-707289Y-604455D03*
X-706958Y-601854D03*
X-708428Y-599065D03*
X-707289Y-595805D03*
X-706958Y-593204D03*
X-708428Y-590415D03*
X-706450Y-607834D03*
Y-599184D03*
Y-590534D03*
G54D240*
X-786795Y-124339D03*
Y-116465D03*
Y-108591D03*
Y-100717D03*
X-778920Y-120402D03*
Y-112528D03*
Y-104654D03*
X-769080Y-120402D03*
Y-112528D03*
Y-104654D03*
X-761205Y-124339D03*
Y-116465D03*
Y-108591D03*
Y-100717D03*
X-786795Y-84969D03*
Y-77095D03*
X-778920Y-88906D03*
Y-81032D03*
Y-73158D03*
X-761205Y-84969D03*
Y-77095D03*
X-769080Y-88906D03*
Y-81032D03*
Y-73158D03*
X-786795Y-69221D03*
Y-61347D03*
Y-53473D03*
X-778920Y-65284D03*
Y-57410D03*
Y-49536D03*
X-761205Y-69221D03*
Y-61347D03*
Y-53473D03*
X-769080Y-65284D03*
Y-57410D03*
Y-49536D03*
X-706795Y-124339D03*
Y-116465D03*
Y-108591D03*
Y-100717D03*
X-698920Y-120402D03*
Y-112528D03*
Y-104654D03*
X-689080Y-120402D03*
Y-112528D03*
Y-104654D03*
X-681205Y-124339D03*
Y-116465D03*
Y-108591D03*
Y-100717D03*
X-706795Y-84969D03*
Y-77095D03*
X-698920Y-88906D03*
Y-81032D03*
Y-73158D03*
X-681205Y-84969D03*
Y-77095D03*
X-689080Y-88906D03*
Y-81032D03*
Y-73158D03*
X-706795Y-69221D03*
Y-61347D03*
Y-53473D03*
X-698920Y-65284D03*
Y-57410D03*
Y-49536D03*
X-681205Y-69221D03*
Y-61347D03*
Y-53473D03*
X-689080Y-65284D03*
Y-57410D03*
Y-49536D03*
X-454988Y-811850D03*
X-464437D03*
X-466012Y-778150D03*
X-456563D03*
G54D344*
X-708941Y-343472D03*
X-714059D03*
X-708941Y-352528D03*
X-711500D03*
X-714059D03*
G54D338*
X-449299Y-2500D03*
Y5846D03*
X-443000D03*
Y-2500D03*
G54D305*
X-198000Y-4350D03*
Y-350D03*
X-196000Y-4350D03*
Y-350D03*
X-95000Y-5000D03*
Y-1000D03*
X-93000Y-5000D03*
Y-1000D03*
G54D300*
X-320314Y-516114D03*
X-317486Y-513286D03*
X-311186Y-507086D03*
X-314014Y-509914D03*
G54D299*
X-73614Y-164839D03*
Y-166413D03*
Y-167988D03*
Y-169563D03*
Y-171138D03*
Y-172713D03*
Y-174287D03*
Y-175862D03*
Y-177437D03*
Y-179012D03*
Y-180587D03*
Y-182161D03*
X-50386D03*
Y-180587D03*
Y-179012D03*
Y-177437D03*
Y-175862D03*
Y-174287D03*
Y-172713D03*
Y-171138D03*
Y-169563D03*
Y-167988D03*
Y-166413D03*
Y-164839D03*
G54D37*
X-877830Y-21500D03*
X-885000D03*
X-855830Y4500D03*
X-863000D03*
X-824830Y2500D03*
X-832000D03*
G54D293*
X-436563Y-775768D03*
X-438531D03*
X-442469D03*
X-444437D03*
X-436563Y-779232D03*
X-438531D03*
X-442469D03*
X-444437D03*
X-407937Y-784732D03*
X-405969D03*
X-402031D03*
X-400063D03*
Y-781268D03*
X-402031D03*
X-405969D03*
X-407937D03*
X-384063D03*
X-386031D03*
X-389969D03*
X-391937D03*
Y-784732D03*
X-389969D03*
X-386031D03*
X-384063D03*
X-383937Y56268D03*
X-381969D03*
X-378031D03*
X-376063D03*
X-383937Y59732D03*
X-381969D03*
X-378031D03*
X-376063D03*
X-347563D03*
X-349531D03*
X-353469D03*
X-355437D03*
X-347563Y56268D03*
X-349531D03*
X-353469D03*
X-355437D03*
X-262237Y47732D03*
X-260269D03*
X-256331D03*
X-254363D03*
Y44268D03*
X-256331D03*
X-260269D03*
X-262237D03*
X-285263Y57268D03*
X-287231D03*
X-291169D03*
X-293137D03*
Y60732D03*
X-291169D03*
X-287231D03*
X-285263D03*
X-237037Y47732D03*
X-235069D03*
X-231131D03*
X-237037Y44268D03*
X-235069D03*
X-231131D03*
X-229163D03*
Y47732D03*
X-250237D03*
X-248269D03*
X-244331D03*
X-242363D03*
Y44268D03*
X-244331D03*
X-248269D03*
X-250237D03*
X-225037Y47732D03*
X-223069D03*
X-219131D03*
X-225037Y44268D03*
X-223069D03*
X-219131D03*
X-217163D03*
Y47732D03*
X-133469Y44268D03*
Y47732D03*
X-135437D03*
Y44268D03*
X-175737Y47732D03*
X-173769D03*
X-169831D03*
X-167863D03*
Y44268D03*
X-169831D03*
X-173769D03*
X-175737D03*
X-163237Y47732D03*
X-161269D03*
X-157331D03*
X-155363D03*
Y44268D03*
X-157331D03*
X-161269D03*
X-163237D03*
X-123437Y47732D03*
X-121469D03*
X-117531D03*
X-123437Y44268D03*
X-121469D03*
X-117531D03*
X-115563D03*
Y47732D03*
X-127563Y44268D03*
X-129531D03*
X-127563Y47732D03*
X-129531D03*
X-57637D03*
X-55669D03*
X-51731D03*
X-49763D03*
Y44268D03*
X-51731D03*
X-55669D03*
X-57637D03*
X-70237Y47732D03*
X-68269D03*
X-64331D03*
X-62363D03*
Y44268D03*
X-64331D03*
X-68269D03*
X-70237D03*
G54D285*
X-913000Y-148516D03*
Y-150484D03*
X-914500Y-86016D03*
Y-87984D03*
X-882900Y-397584D03*
Y-395616D03*
X-888200Y-397584D03*
Y-395616D03*
X-894200Y-397584D03*
Y-395616D03*
X-898600Y-390784D03*
Y-388816D03*
X-891200Y-397584D03*
Y-395616D03*
X-892600Y-390784D03*
Y-388816D03*
X-909500Y-148516D03*
Y-150484D03*
X-894000Y-50016D03*
Y-51984D03*
X-900000Y-57516D03*
Y-59484D03*
X-830500Y-565984D03*
Y-564016D03*
X-833500Y-565984D03*
Y-564016D03*
X-775000Y-517016D03*
Y-518984D03*
Y-508016D03*
Y-509984D03*
X-772000Y-517016D03*
Y-518984D03*
X-734300Y-474016D03*
Y-475984D03*
X-736900Y-474016D03*
Y-475984D03*
X-748700Y-474016D03*
Y-475984D03*
X-746100Y-474016D03*
Y-475984D03*
X-720000Y-560016D03*
Y-561984D03*
X-725100Y-474016D03*
Y-475984D03*
X-713200Y-474016D03*
Y-475984D03*
X-710600Y-474016D03*
Y-475984D03*
X-722500Y-474016D03*
Y-475984D03*
X-718000Y-341516D03*
Y-343484D03*
X-704500Y-144516D03*
Y-146484D03*
X-701500Y-144516D03*
Y-146484D03*
X-584500Y-782016D03*
Y-783984D03*
X-568500Y-761984D03*
Y-760016D03*
X-580500Y-761984D03*
Y-760016D03*
X-577500Y-761984D03*
Y-760016D03*
X-569000Y-788984D03*
Y-787016D03*
X-575000Y-788984D03*
Y-787016D03*
X-572000Y-788984D03*
Y-787016D03*
X-559000Y-788484D03*
Y-786516D03*
X-578000Y-788984D03*
Y-787016D03*
X-598000Y54484D03*
Y52516D03*
X-510000Y-795984D03*
Y-794016D03*
X-513000Y-795984D03*
Y-794016D03*
X-531500Y-758516D03*
Y-760484D03*
X-528500Y-758516D03*
Y-760484D03*
X-546000Y-769284D03*
Y-767316D03*
X-543500Y-760484D03*
Y-758516D03*
X-534500Y-760484D03*
Y-758516D03*
X-548500Y-789984D03*
Y-788016D03*
X-526500Y-789984D03*
Y-788016D03*
X-537500Y-760484D03*
Y-758516D03*
X-540500Y-760484D03*
Y-758516D03*
X-549500Y-760484D03*
Y-758516D03*
X-498000Y-410016D03*
Y-411984D03*
X-502500Y-276384D03*
Y-274416D03*
X-437500Y-2516D03*
Y-4484D03*
X-436000Y16484D03*
Y14516D03*
X-422000Y-771516D03*
Y-773484D03*
X-376500Y-766016D03*
Y-767984D03*
X-385200Y-22216D03*
Y-24184D03*
X-397000Y-30516D03*
Y-32484D03*
X-422000Y-36016D03*
Y-37984D03*
X-419000Y-36016D03*
Y-37984D03*
X-412500Y-36016D03*
Y-37984D03*
X-416000Y-30516D03*
Y-32484D03*
X-400500Y-30516D03*
Y-32484D03*
X-416000Y-36016D03*
Y-37984D03*
X-431500Y16484D03*
Y14516D03*
X-329000Y-811016D03*
Y-812984D03*
X-370000Y-758516D03*
Y-760484D03*
X-354200Y36984D03*
Y35016D03*
X-346200Y36984D03*
Y35016D03*
X-348800Y36984D03*
Y35016D03*
X-356800Y36984D03*
Y35016D03*
X-352100Y17884D03*
Y15916D03*
X-351800Y4184D03*
Y2216D03*
X-349200Y4184D03*
Y2216D03*
X-344000Y4184D03*
Y2216D03*
X-287500Y-781016D03*
Y-782984D03*
X-283500Y39984D03*
Y38016D03*
X-281500Y27984D03*
Y26016D03*
X-225000Y-781016D03*
Y-782984D03*
X-195000Y-20884D03*
Y-18916D03*
X-193200Y21484D03*
Y19516D03*
X-195800Y21484D03*
Y19516D03*
X-236500Y27884D03*
Y25916D03*
X-142800Y-25516D03*
Y-27484D03*
X-145400Y-25516D03*
Y-27484D03*
X-167500Y-25516D03*
Y-27484D03*
X-152800Y-21116D03*
Y-23084D03*
X-148300Y-25516D03*
Y-27484D03*
X-150900Y-25516D03*
Y-27484D03*
X-154900Y-25516D03*
Y-27484D03*
X-160500Y-25516D03*
Y-27484D03*
X-163100Y-25516D03*
Y-27484D03*
X-157500Y-25516D03*
Y-27484D03*
X-170100Y-25516D03*
Y-27484D03*
X-179200Y-25584D03*
Y-23616D03*
X-181900Y-25584D03*
Y-23616D03*
X-150000Y21484D03*
Y19516D03*
X-153000Y21484D03*
Y19516D03*
X-95300Y21484D03*
Y19516D03*
X-92700Y21484D03*
Y19516D03*
X-47300Y-27516D03*
Y-29484D03*
X-44700Y-27516D03*
Y-29484D03*
X-54000Y-21116D03*
Y-23084D03*
X-50200Y-27516D03*
Y-29484D03*
X-68300Y-24016D03*
Y-25984D03*
X-70900Y-24016D03*
Y-25984D03*
X-61200Y-27516D03*
Y-29484D03*
X-58300Y-27516D03*
Y-29484D03*
X-63800Y-27516D03*
Y-29484D03*
X-55700Y-27516D03*
Y-29484D03*
X-52800Y-27516D03*
Y-29484D03*
X-51800Y21984D03*
Y20016D03*
X-49200Y21984D03*
Y20016D03*
G54D279*
X-374220Y-445972D03*
X-377370Y-439673D03*
X-374220Y-442823D03*
X-371072Y-445972D03*
X-213218Y-313828D03*
X-216367D03*
X-213218Y-316977D03*
X-210068Y-320127D03*
G54D275*
X-62000Y-173500D03*
G54D264*
X-421679Y-117028D03*
X-347679D03*
X-297679D03*
X-247679D03*
X-197679D03*
X-147679D03*
G54D263*
X-251000Y11000D03*
G54D361*
X-833700Y-635500D03*
X-826300D03*
X-348200Y26500D03*
X-340800D03*
X-180700Y-776000D03*
X-173300D03*
G54D357*
X-66701Y-795866D03*
X-69299D03*
X-71858D03*
X-64142D03*
G54D171*
X-868415Y-703039D03*
X-858179Y-700480D03*
Y-705598D03*
Y-703039D03*
Y-697920D03*
X-868415Y-705598D03*
Y-700480D03*
Y-697920D03*
X-858079Y-661398D03*
Y-658839D03*
Y-656280D03*
Y-653720D03*
X-868315Y-661398D03*
Y-658839D03*
Y-656280D03*
Y-653720D03*
X-351785Y-25861D03*
X-362021Y-28420D03*
Y-23302D03*
Y-25861D03*
Y-30980D03*
X-351785Y-23302D03*
Y-28420D03*
Y-30980D03*
G54D170*
X-374081Y-439534D03*
Y-316699D03*
X-370932Y-442684D03*
X-333042Y-433652D03*
X-329892D03*
X-326743D03*
X-323593D03*
X-320443D03*
X-317294D03*
X-314144D03*
X-364632Y-433235D03*
X-361483D03*
X-358333D03*
X-355184D03*
X-352034D03*
X-348884D03*
X-345735D03*
X-342585D03*
X-333042Y-436802D03*
X-329892D03*
X-326743D03*
X-323593D03*
X-320443D03*
X-317294D03*
X-314144D03*
X-364632Y-436384D03*
X-361483D03*
X-358333D03*
X-355184D03*
X-352034D03*
X-348884D03*
X-345735D03*
X-342585D03*
X-333042Y-439951D03*
X-329892D03*
X-326743D03*
X-323593D03*
X-320443D03*
X-317294D03*
X-314144D03*
X-370932Y-439534D03*
X-361483Y-373392D03*
X-358333D03*
X-355184D03*
X-352034D03*
X-348884D03*
X-345735D03*
X-358333Y-376542D03*
X-355184D03*
X-352034D03*
X-348884D03*
X-345735D03*
X-370932Y-379691D03*
X-367782D03*
X-364632D03*
X-361483D03*
X-358333D03*
X-355184D03*
X-352034D03*
X-348884D03*
X-345735D03*
X-370932Y-382841D03*
X-367782D03*
X-364632D03*
X-361483D03*
X-358333D03*
X-355184D03*
X-352034D03*
X-348884D03*
X-345735D03*
X-370932Y-385991D03*
X-367782D03*
X-364632D03*
X-361483D03*
X-358333D03*
X-355184D03*
X-352034D03*
X-348884D03*
X-345735D03*
X-370932Y-389140D03*
X-367782D03*
X-364632D03*
X-361483D03*
X-358333D03*
X-355184D03*
X-352034D03*
X-348884D03*
X-345735D03*
X-370932Y-392290D03*
X-367782D03*
X-364632D03*
X-361483D03*
X-358333D03*
X-355184D03*
X-352034D03*
X-348884D03*
X-345735D03*
X-370932Y-395439D03*
X-367782D03*
X-364632D03*
X-361483D03*
X-358333D03*
X-355184D03*
X-352034D03*
X-348884D03*
X-345735D03*
X-370932Y-398589D03*
X-367782D03*
X-364632D03*
X-361483D03*
X-358333D03*
X-355184D03*
X-352034D03*
X-348884D03*
X-345735D03*
X-370932Y-401739D03*
X-367782D03*
X-364632D03*
X-361483D03*
X-358333D03*
X-355184D03*
X-352034D03*
X-348884D03*
X-345735D03*
X-367782Y-404888D03*
X-364632D03*
X-361483D03*
X-358333D03*
X-355184D03*
X-352034D03*
X-348884D03*
X-345735D03*
X-367782Y-408038D03*
X-364632D03*
X-361483D03*
X-358333D03*
X-355184D03*
X-352034D03*
X-348884D03*
X-345735D03*
X-333042Y-411605D03*
X-329892D03*
X-326743D03*
X-323593D03*
X-320443D03*
X-317294D03*
X-314144D03*
X-367782Y-411187D03*
X-364632D03*
X-361483D03*
X-358333D03*
X-355184D03*
X-352034D03*
X-348884D03*
X-345735D03*
X-342585D03*
X-333042Y-414754D03*
X-329892D03*
X-326743D03*
X-323593D03*
X-320443D03*
X-317294D03*
X-314144D03*
X-367782Y-414337D03*
X-364632D03*
X-361483D03*
X-358333D03*
X-355184D03*
X-352034D03*
X-348884D03*
X-345735D03*
X-342585D03*
X-333042Y-417904D03*
X-329892D03*
X-326743D03*
X-323593D03*
X-320443D03*
X-317294D03*
X-314144D03*
X-367782Y-417487D03*
X-364632D03*
X-361483D03*
X-358333D03*
X-355184D03*
X-352034D03*
X-348884D03*
X-345735D03*
X-342585D03*
X-333042Y-421054D03*
X-329892D03*
X-326743D03*
X-323593D03*
X-320443D03*
X-317294D03*
X-314144D03*
X-367782Y-420636D03*
X-364632D03*
X-361483D03*
X-358333D03*
X-355184D03*
X-352034D03*
X-348884D03*
X-345735D03*
X-342585D03*
X-333042Y-424203D03*
X-329892D03*
X-326743D03*
X-323593D03*
X-320443D03*
X-317294D03*
X-314144D03*
X-367782Y-423786D03*
X-364632D03*
X-361483D03*
X-358333D03*
X-355184D03*
X-352034D03*
X-348884D03*
X-345735D03*
X-342585D03*
X-333042Y-427353D03*
X-329892D03*
X-326743D03*
X-323593D03*
X-320443D03*
X-317294D03*
X-314144D03*
X-367782Y-426935D03*
X-364632D03*
X-361483D03*
X-358333D03*
X-355184D03*
X-352034D03*
X-348884D03*
X-345735D03*
X-342585D03*
X-333042Y-430502D03*
X-329892D03*
X-326743D03*
X-323593D03*
X-320443D03*
X-317294D03*
X-314144D03*
X-367782Y-430085D03*
X-364632D03*
X-361483D03*
X-358333D03*
X-355184D03*
X-352034D03*
X-348884D03*
X-345735D03*
X-342585D03*
X-370932Y-313550D03*
Y-316699D03*
X-358333Y-326148D03*
X-339435D03*
X-361483Y-329298D03*
X-358333D03*
X-355184D03*
X-352034D03*
X-348884D03*
X-345735D03*
X-342585D03*
X-339435D03*
X-336286D03*
X-333136D03*
X-329987D03*
X-326837D03*
X-323687D03*
X-320538D03*
X-317388D03*
X-314239D03*
X-358333Y-332447D03*
X-355184D03*
X-352034D03*
X-348884D03*
X-345735D03*
X-342585D03*
X-339435D03*
X-336286D03*
X-333136D03*
X-329987D03*
X-326837D03*
X-323687D03*
X-320538D03*
X-317388D03*
X-314239D03*
X-361483Y-335597D03*
X-358333D03*
X-355184D03*
X-352034D03*
X-348884D03*
X-345735D03*
X-342585D03*
X-339435D03*
X-336286D03*
X-333136D03*
X-329987D03*
X-326837D03*
X-323687D03*
X-320538D03*
X-317388D03*
X-314239D03*
X-358333Y-338746D03*
X-355184D03*
X-352034D03*
X-348884D03*
X-345735D03*
X-342585D03*
X-339435D03*
X-336286D03*
X-333136D03*
X-329987D03*
X-326837D03*
X-323687D03*
X-320538D03*
X-317388D03*
X-314239D03*
X-361483Y-341896D03*
X-358333D03*
X-355184D03*
X-352034D03*
X-348884D03*
X-345735D03*
X-342585D03*
X-339435D03*
X-336286D03*
X-333136D03*
X-329987D03*
X-326837D03*
X-323687D03*
X-320538D03*
X-317388D03*
X-314239D03*
X-358333Y-345046D03*
X-355184D03*
X-352034D03*
X-348884D03*
X-345735D03*
X-342585D03*
X-339435D03*
X-336286D03*
X-333136D03*
X-329987D03*
X-326837D03*
X-323687D03*
X-320538D03*
X-317388D03*
X-314239D03*
X-361483Y-348195D03*
X-358333D03*
X-355184D03*
X-352034D03*
X-348884D03*
X-345735D03*
X-342585D03*
X-339435D03*
X-336286D03*
X-333136D03*
X-329987D03*
X-326837D03*
X-323687D03*
X-320538D03*
X-317388D03*
X-314239D03*
X-358333Y-351345D03*
X-355184D03*
X-352034D03*
X-348884D03*
X-345735D03*
X-361483Y-354494D03*
X-358333D03*
X-355184D03*
X-352034D03*
X-348884D03*
X-345735D03*
X-358333Y-357644D03*
X-355184D03*
X-352034D03*
X-348884D03*
X-345735D03*
X-361483Y-360794D03*
X-358333D03*
X-355184D03*
X-352034D03*
X-348884D03*
X-345735D03*
X-358333Y-363943D03*
X-355184D03*
X-352034D03*
X-348884D03*
X-345735D03*
X-361483Y-367093D03*
X-358333D03*
X-355184D03*
X-352034D03*
X-348884D03*
X-345735D03*
X-358333Y-370242D03*
X-355184D03*
X-352034D03*
X-348884D03*
X-345735D03*
X-310995Y-433652D03*
X-307845D03*
X-304695D03*
X-301546D03*
X-298396D03*
X-295247D03*
X-292097D03*
X-288947D03*
X-285798D03*
X-282648D03*
X-279499D03*
X-276349D03*
X-273199D03*
X-270050D03*
X-266900D03*
X-263751D03*
X-260601D03*
X-257451D03*
X-254302D03*
X-310995Y-436802D03*
X-307845D03*
X-304695D03*
X-301546D03*
X-298396D03*
X-295247D03*
X-292097D03*
X-288947D03*
X-285798D03*
X-282648D03*
X-279499D03*
X-276349D03*
X-273199D03*
X-270050D03*
X-266900D03*
X-263751D03*
X-260601D03*
X-257451D03*
X-254302D03*
X-310995Y-439951D03*
X-307845D03*
X-304695D03*
X-301546D03*
X-298396D03*
X-295247D03*
X-292097D03*
X-288947D03*
X-285798D03*
X-282648D03*
X-279499D03*
X-276349D03*
X-273199D03*
X-270050D03*
X-266900D03*
X-263751D03*
X-260601D03*
X-257451D03*
X-254302D03*
X-310995Y-411605D03*
X-307845D03*
X-304695D03*
X-301546D03*
X-298396D03*
X-295247D03*
X-292097D03*
X-288947D03*
X-285798D03*
X-282648D03*
X-279499D03*
X-276349D03*
X-273199D03*
X-270050D03*
X-266900D03*
X-263751D03*
X-260601D03*
X-257451D03*
X-254302D03*
X-310995Y-414754D03*
X-307845D03*
X-304695D03*
X-301546D03*
X-298396D03*
X-295247D03*
X-292097D03*
X-288947D03*
X-285798D03*
X-282648D03*
X-279499D03*
X-276349D03*
X-273199D03*
X-270050D03*
X-266900D03*
X-263751D03*
X-260601D03*
X-257451D03*
X-254302D03*
X-310995Y-417904D03*
X-307845D03*
X-304695D03*
X-301546D03*
X-298396D03*
X-295247D03*
X-292097D03*
X-288947D03*
X-285798D03*
X-282648D03*
X-279499D03*
X-276349D03*
X-273199D03*
X-270050D03*
X-266900D03*
X-263751D03*
X-260601D03*
X-257451D03*
X-254302D03*
X-310995Y-421054D03*
X-307845D03*
X-304695D03*
X-301546D03*
X-298396D03*
X-295247D03*
X-292097D03*
X-288947D03*
X-285798D03*
X-282648D03*
X-279499D03*
X-276349D03*
X-273199D03*
X-270050D03*
X-266900D03*
X-263751D03*
X-260601D03*
X-257451D03*
X-254302D03*
X-310995Y-424203D03*
X-307845D03*
X-304695D03*
X-301546D03*
X-298396D03*
X-295247D03*
X-292097D03*
X-288947D03*
X-285798D03*
X-282648D03*
X-279499D03*
X-276349D03*
X-273199D03*
X-270050D03*
X-266900D03*
X-263751D03*
X-260601D03*
X-257451D03*
X-254302D03*
X-310995Y-427353D03*
X-307845D03*
X-304695D03*
X-301546D03*
X-298396D03*
X-295247D03*
X-292097D03*
X-288947D03*
X-285798D03*
X-282648D03*
X-279499D03*
X-276349D03*
X-273199D03*
X-270050D03*
X-266900D03*
X-263751D03*
X-260601D03*
X-257451D03*
X-254302D03*
X-310995Y-430502D03*
X-307845D03*
X-304695D03*
X-301546D03*
X-298396D03*
X-295247D03*
X-292097D03*
X-288947D03*
X-285798D03*
X-282648D03*
X-279499D03*
X-276349D03*
X-273199D03*
X-270050D03*
X-266900D03*
X-263751D03*
X-260601D03*
X-257451D03*
X-254302D03*
X-285892Y-319849D03*
X-282743D03*
X-279593D03*
X-276443D03*
X-273294D03*
X-270144D03*
X-266995D03*
X-263845D03*
X-260695D03*
X-257546D03*
X-254396D03*
X-285892Y-322998D03*
X-282743D03*
X-279593D03*
X-276443D03*
X-273294D03*
X-270144D03*
X-266995D03*
X-263845D03*
X-260695D03*
X-257546D03*
X-254396D03*
X-285892Y-326148D03*
X-282743D03*
X-279593D03*
X-276443D03*
X-273294D03*
X-270144D03*
X-266995D03*
X-263845D03*
X-260695D03*
X-257546D03*
X-254396D03*
X-311089Y-329298D03*
X-307939D03*
X-304790D03*
X-301640D03*
X-298491D03*
X-295341D03*
X-292191D03*
X-289042D03*
X-285892D03*
X-282743D03*
X-279593D03*
X-276443D03*
X-273294D03*
X-270144D03*
X-266995D03*
X-263845D03*
X-260695D03*
X-257546D03*
X-254396D03*
X-311089Y-332447D03*
X-307939D03*
X-304790D03*
X-301640D03*
X-298491D03*
X-295341D03*
X-292191D03*
X-289042D03*
X-285892D03*
X-282743D03*
X-279593D03*
X-276443D03*
X-273294D03*
X-270144D03*
X-266995D03*
X-263845D03*
X-260695D03*
X-257546D03*
X-254396D03*
X-311089Y-335597D03*
X-307939D03*
X-304790D03*
X-301640D03*
X-298491D03*
X-295341D03*
X-292191D03*
X-289042D03*
X-285892D03*
X-282743D03*
X-279593D03*
X-276443D03*
X-273294D03*
X-270144D03*
X-266995D03*
X-263845D03*
X-260695D03*
X-257546D03*
X-254396D03*
X-311089Y-338746D03*
X-307939D03*
X-304790D03*
X-301640D03*
X-298491D03*
X-295341D03*
X-292191D03*
X-289042D03*
X-285892D03*
X-282743D03*
X-279593D03*
X-276443D03*
X-273294D03*
X-270144D03*
X-266995D03*
X-263845D03*
X-260695D03*
X-257546D03*
X-254396D03*
X-311089Y-341896D03*
X-307939D03*
X-304790D03*
X-301640D03*
X-298491D03*
X-295341D03*
X-292191D03*
X-289042D03*
X-285892D03*
X-282743D03*
X-279593D03*
X-276443D03*
X-273294D03*
X-270144D03*
X-266995D03*
X-263845D03*
X-260695D03*
X-257546D03*
X-254396D03*
X-311089Y-345046D03*
X-307939D03*
X-304790D03*
X-301640D03*
X-298491D03*
X-295341D03*
X-292191D03*
X-289042D03*
X-285892D03*
X-282743D03*
X-279593D03*
X-276443D03*
X-273294D03*
X-270144D03*
X-266995D03*
X-263845D03*
X-260695D03*
X-257546D03*
X-254396D03*
X-311089Y-348195D03*
X-307939D03*
X-304790D03*
X-301640D03*
X-298491D03*
X-295341D03*
X-292191D03*
X-289042D03*
X-285892D03*
X-282743D03*
X-279593D03*
X-276443D03*
X-273294D03*
X-270144D03*
X-266995D03*
X-263845D03*
X-260695D03*
X-257546D03*
X-254396D03*
X-251152Y-433652D03*
X-248003D03*
X-244853D03*
X-241703D03*
X-238554D03*
X-235404D03*
X-232254D03*
X-229105D03*
X-225955D03*
X-222806D03*
X-219656D03*
X-251152Y-436802D03*
X-248003D03*
X-244853D03*
X-241703D03*
X-238554D03*
X-235404D03*
X-232254D03*
X-229105D03*
X-225955D03*
X-222806D03*
X-219656D03*
X-251152Y-439951D03*
X-248003D03*
X-244853D03*
X-241703D03*
X-238554D03*
X-235404D03*
X-232254D03*
X-229105D03*
X-225955D03*
X-222806D03*
X-219656D03*
X-216506Y-443101D03*
X-213357D03*
X-216506Y-446250D03*
X-235404Y-373809D03*
X-232254D03*
X-229105D03*
X-225955D03*
X-222806D03*
X-219656D03*
X-216506D03*
X-213357D03*
X-235404Y-376959D03*
X-232254D03*
X-229105D03*
X-225955D03*
X-222806D03*
X-219656D03*
X-216506D03*
X-213357D03*
X-235404Y-380109D03*
X-232254D03*
X-229105D03*
X-225955D03*
X-222806D03*
X-219656D03*
X-216506D03*
X-213357D03*
X-235404Y-383258D03*
X-232254D03*
X-229105D03*
X-225955D03*
X-222806D03*
X-219656D03*
X-216506D03*
X-213357D03*
X-235404Y-386408D03*
X-232254D03*
X-229105D03*
X-225955D03*
X-222806D03*
X-219656D03*
X-216506D03*
X-213357D03*
X-235404Y-389558D03*
X-232254D03*
X-229105D03*
X-225955D03*
X-222806D03*
X-219656D03*
X-216506D03*
X-213357D03*
X-235404Y-392707D03*
X-232254D03*
X-229105D03*
X-225955D03*
X-222806D03*
X-219656D03*
X-216506D03*
X-213357D03*
X-235404Y-395857D03*
X-232254D03*
X-229105D03*
X-225955D03*
X-222806D03*
X-219656D03*
X-235404Y-399006D03*
X-232254D03*
X-229105D03*
X-225955D03*
X-222806D03*
X-219656D03*
X-235404Y-402156D03*
X-232254D03*
X-229105D03*
X-225955D03*
X-222806D03*
X-219656D03*
X-235404Y-405306D03*
X-232254D03*
X-229105D03*
X-225955D03*
X-222806D03*
X-219656D03*
X-235404Y-408455D03*
X-232254D03*
X-229105D03*
X-225955D03*
X-222806D03*
X-219656D03*
X-251152Y-411605D03*
X-248003D03*
X-244853D03*
X-241703D03*
X-238554D03*
X-235404D03*
X-232254D03*
X-229105D03*
X-225955D03*
X-222806D03*
X-219656D03*
X-251152Y-414754D03*
X-248003D03*
X-244853D03*
X-241703D03*
X-238554D03*
X-235404D03*
X-232254D03*
X-229105D03*
X-225955D03*
X-222806D03*
X-219656D03*
X-251152Y-417904D03*
X-248003D03*
X-244853D03*
X-241703D03*
X-238554D03*
X-235404D03*
X-232254D03*
X-229105D03*
X-225955D03*
X-222806D03*
X-219656D03*
X-251152Y-421054D03*
X-248003D03*
X-244853D03*
X-241703D03*
X-238554D03*
X-235404D03*
X-232254D03*
X-229105D03*
X-225955D03*
X-222806D03*
X-219656D03*
X-251152Y-424203D03*
X-248003D03*
X-244853D03*
X-241703D03*
X-238554D03*
X-235404D03*
X-232254D03*
X-229105D03*
X-225955D03*
X-222806D03*
X-219656D03*
X-251152Y-427353D03*
X-248003D03*
X-244853D03*
X-241703D03*
X-238554D03*
X-235404D03*
X-232254D03*
X-229105D03*
X-225955D03*
X-222806D03*
X-219656D03*
X-251152Y-430502D03*
X-248003D03*
X-244853D03*
X-241703D03*
X-238554D03*
X-235404D03*
X-232254D03*
X-229105D03*
X-225955D03*
X-222806D03*
X-219656D03*
X-216506Y-317116D03*
X-213357Y-320266D03*
X-238554Y-317116D03*
X-235404D03*
X-232254D03*
X-229105D03*
X-225955D03*
X-222806D03*
X-219656D03*
X-238554Y-320266D03*
X-235404D03*
X-232254D03*
X-229105D03*
X-225955D03*
X-222806D03*
X-219656D03*
X-216506D03*
X-251247Y-319849D03*
X-248097D03*
X-238554Y-323416D03*
X-235404D03*
X-232254D03*
X-229105D03*
X-225955D03*
X-222806D03*
X-219656D03*
X-216506D03*
X-213357D03*
X-251247Y-322998D03*
X-248097D03*
X-238554Y-326565D03*
X-235404D03*
X-232254D03*
X-229105D03*
X-225955D03*
X-222806D03*
X-219656D03*
X-216506D03*
X-213357D03*
X-251247Y-326148D03*
X-248097D03*
X-238554Y-329715D03*
X-235404D03*
X-232254D03*
X-229105D03*
X-225955D03*
X-222806D03*
X-219656D03*
X-216506D03*
X-213357D03*
X-251247Y-329298D03*
X-248097D03*
X-238554Y-332865D03*
X-235404D03*
X-232254D03*
X-229105D03*
X-225955D03*
X-222806D03*
X-219656D03*
X-216506D03*
X-213357D03*
X-251247Y-332447D03*
X-248097D03*
X-238554Y-336014D03*
X-235404D03*
X-232254D03*
X-229105D03*
X-225955D03*
X-222806D03*
X-219656D03*
X-216506D03*
X-213357D03*
X-251247Y-335597D03*
X-248097D03*
X-238554Y-339164D03*
X-235404D03*
X-232254D03*
X-229105D03*
X-225955D03*
X-222806D03*
X-219656D03*
X-216506D03*
X-213357D03*
X-251247Y-338746D03*
X-248097D03*
X-238554Y-342313D03*
X-235404D03*
X-232254D03*
X-229105D03*
X-225955D03*
X-222806D03*
X-219656D03*
X-216506D03*
X-213357D03*
X-251247Y-341896D03*
X-248097D03*
X-238554Y-345463D03*
X-235404D03*
X-232254D03*
X-229105D03*
X-225955D03*
X-222806D03*
X-219656D03*
X-216506D03*
X-213357D03*
X-251247Y-345046D03*
X-248097D03*
X-238554Y-348613D03*
X-235404D03*
X-232254D03*
X-229105D03*
X-225955D03*
X-222806D03*
X-219656D03*
X-216506D03*
X-213357D03*
X-251247Y-348195D03*
X-248097D03*
X-235404Y-351762D03*
X-232254D03*
X-229105D03*
X-225955D03*
X-222806D03*
X-219656D03*
X-216506D03*
X-213357D03*
X-235404Y-354912D03*
X-232254D03*
X-229105D03*
X-225955D03*
X-222806D03*
X-219656D03*
X-216506D03*
X-213357D03*
X-235404Y-358061D03*
X-232254D03*
X-229105D03*
X-225955D03*
X-222806D03*
X-219656D03*
X-216506D03*
X-213357D03*
X-235404Y-361211D03*
X-232254D03*
X-229105D03*
X-225955D03*
X-222806D03*
X-219656D03*
X-216506D03*
X-213357D03*
X-235404Y-364361D03*
X-232254D03*
X-229105D03*
X-225955D03*
X-222806D03*
X-219656D03*
X-216506D03*
X-213357D03*
X-235404Y-367510D03*
X-232254D03*
X-229105D03*
X-225955D03*
X-222806D03*
X-219656D03*
X-216506D03*
X-213357D03*
X-235404Y-370660D03*
X-232254D03*
X-229105D03*
X-225955D03*
X-222806D03*
X-219656D03*
X-216506D03*
X-213357D03*
G54D243*
X-473993Y31450D03*
X-463993D03*
X-433147Y42650D03*
X-443147D03*
X-453147D03*
X-463147D03*
X-438147Y52650D03*
X-448147D03*
X-458147D03*
X-459426Y81922D03*
X-449584D03*
X-441710D03*
X-431867D03*
X-459426Y71607D03*
X-449584D03*
X-441710D03*
X-431867D03*
X-427300Y31450D03*
X-417300D03*
X-428147Y52650D03*
G54D349*
X-660000Y-785000D03*
X-665000D03*
X-670000D03*
X-655000D03*
X-670000Y-760020D03*
X-665000D03*
X-660000D03*
X-655000D03*
X-244270Y-751840D03*
X-239270D03*
X-234270D03*
X-229270D03*
Y-726860D03*
X-234270D03*
X-239270D03*
X-244270D03*
G54D164*
X-367782Y-445833D03*
Y-439534D03*
X-364632D03*
X-361483D03*
X-358333D03*
X-355184D03*
X-352034D03*
X-348884D03*
X-345735D03*
X-342585D03*
X-333042Y-443101D03*
X-329892D03*
X-326743D03*
X-323593D03*
X-320443D03*
X-317294D03*
X-314144D03*
X-367782Y-442684D03*
X-364632D03*
X-361483D03*
X-358333D03*
X-355184D03*
X-352034D03*
X-348884D03*
X-345735D03*
X-342585D03*
X-333042Y-446250D03*
X-329892D03*
X-326743D03*
X-323593D03*
X-320443D03*
X-317294D03*
X-314144D03*
X-364632Y-445833D03*
X-361483D03*
X-358333D03*
X-355184D03*
X-352034D03*
X-348884D03*
X-345735D03*
X-342585D03*
X-333042Y-449400D03*
X-329892D03*
X-326743D03*
X-323593D03*
X-320443D03*
X-317294D03*
X-314144D03*
X-367782Y-313550D03*
X-364632D03*
X-361483D03*
X-358333D03*
X-355184D03*
X-352034D03*
X-348884D03*
X-345735D03*
X-342585D03*
X-339435D03*
X-336286D03*
X-333136D03*
X-329987D03*
X-326837D03*
X-323687D03*
X-320538D03*
X-317388D03*
X-314239D03*
X-367782Y-316699D03*
X-364632D03*
X-361483D03*
X-358333D03*
X-355184D03*
X-352034D03*
X-348884D03*
X-345735D03*
X-342585D03*
X-339435D03*
X-336286D03*
X-333136D03*
X-329987D03*
X-326837D03*
X-323687D03*
X-320538D03*
X-317388D03*
X-314239D03*
X-361483Y-319849D03*
X-358333D03*
X-355184D03*
X-352034D03*
X-348884D03*
X-345735D03*
X-342585D03*
X-339435D03*
X-336286D03*
X-333136D03*
X-329987D03*
X-326837D03*
X-323687D03*
X-320538D03*
X-317388D03*
X-314239D03*
X-361483Y-322998D03*
X-358333D03*
X-355184D03*
X-352034D03*
X-348884D03*
X-345735D03*
X-342585D03*
X-339435D03*
X-336286D03*
X-333136D03*
X-329987D03*
X-326837D03*
X-323687D03*
X-320538D03*
X-317388D03*
X-314239D03*
X-355184Y-326148D03*
X-352034D03*
X-348884D03*
X-345735D03*
X-342585D03*
X-336286D03*
X-333136D03*
X-329987D03*
X-326837D03*
X-323687D03*
X-320538D03*
X-317388D03*
X-314239D03*
X-367782Y-310400D03*
X-364632D03*
X-361483D03*
X-358333D03*
X-355184D03*
X-352034D03*
X-348884D03*
X-345735D03*
X-342585D03*
X-339435D03*
X-336286D03*
X-333136D03*
X-329987D03*
X-326837D03*
X-323687D03*
X-320538D03*
X-317388D03*
X-314239D03*
X-310995Y-443101D03*
X-307845D03*
X-304695D03*
X-301546D03*
X-298396D03*
X-295247D03*
X-292097D03*
X-288947D03*
X-285798D03*
X-282648D03*
X-279499D03*
X-276349D03*
X-273199D03*
X-270050D03*
X-266900D03*
X-263751D03*
X-260601D03*
X-257451D03*
X-254302D03*
X-310995Y-446250D03*
X-307845D03*
X-304695D03*
X-301546D03*
X-298396D03*
X-295247D03*
X-292097D03*
X-288947D03*
X-285798D03*
X-282648D03*
X-279499D03*
X-276349D03*
X-273199D03*
X-270050D03*
X-266900D03*
X-263751D03*
X-260601D03*
X-257451D03*
X-254302D03*
X-310995Y-449400D03*
X-307845D03*
X-304695D03*
X-301546D03*
X-298396D03*
X-295247D03*
X-292097D03*
X-288947D03*
X-285798D03*
X-282648D03*
X-279499D03*
X-276349D03*
X-273199D03*
X-270050D03*
X-266900D03*
X-263751D03*
X-260601D03*
X-257451D03*
X-254302D03*
X-311089Y-313550D03*
X-307939D03*
X-304790D03*
X-301640D03*
X-298491D03*
X-295341D03*
X-292191D03*
X-289042D03*
X-285892D03*
X-282743D03*
X-279593D03*
X-276443D03*
X-273294D03*
X-270144D03*
X-266995D03*
X-263845D03*
X-260695D03*
X-257546D03*
X-254396D03*
X-311089Y-316699D03*
X-307939D03*
X-304790D03*
X-301640D03*
X-298491D03*
X-295341D03*
X-292191D03*
X-289042D03*
X-285892D03*
X-282743D03*
X-279593D03*
X-276443D03*
X-273294D03*
X-270144D03*
X-266995D03*
X-263845D03*
X-260695D03*
X-257546D03*
X-254396D03*
X-311089Y-319849D03*
X-307939D03*
X-304790D03*
X-301640D03*
X-298491D03*
X-295341D03*
X-292191D03*
X-289042D03*
X-311089Y-322998D03*
X-307939D03*
X-304790D03*
X-301640D03*
X-298491D03*
X-295341D03*
X-292191D03*
X-289042D03*
X-311089Y-326148D03*
X-307939D03*
X-304790D03*
X-301640D03*
X-298491D03*
X-295341D03*
X-292191D03*
X-289042D03*
X-311089Y-310400D03*
X-307939D03*
X-304790D03*
X-301640D03*
X-298491D03*
X-295341D03*
X-292191D03*
X-289042D03*
X-285892D03*
X-282743D03*
X-279593D03*
X-276443D03*
X-273294D03*
X-270144D03*
X-266995D03*
X-263845D03*
X-260695D03*
X-257546D03*
X-254396D03*
X-251152Y-443101D03*
X-248003D03*
X-244853D03*
X-241703D03*
X-238554D03*
X-235404D03*
X-232254D03*
X-229105D03*
X-225955D03*
X-222806D03*
X-219656D03*
X-251152Y-446250D03*
X-248003D03*
X-244853D03*
X-241703D03*
X-238554D03*
X-235404D03*
X-232254D03*
X-229105D03*
X-225955D03*
X-222806D03*
X-219656D03*
X-251152Y-449400D03*
X-248003D03*
X-244853D03*
X-241703D03*
X-238554D03*
X-235404D03*
X-232254D03*
X-229105D03*
X-225955D03*
X-222806D03*
X-219656D03*
Y-313967D03*
X-238554D03*
X-235404D03*
X-232254D03*
X-229105D03*
X-225955D03*
X-222806D03*
X-251247Y-313550D03*
X-248097D03*
X-251247Y-316699D03*
X-248097D03*
X-251247Y-310400D03*
X-248097D03*
G54D236*
X-911500Y37500D03*
Y27500D03*
Y17500D03*
Y7500D03*
X7500Y-760000D03*
Y-750000D03*
Y-740000D03*
Y-730000D03*
X5000Y-482500D03*
Y-472500D03*
Y-462500D03*
Y-452500D03*
G54D341*
X-779862Y-13917D03*
X-750138Y-12933D03*
X-779862Y-11949D03*
Y-9980D03*
Y-8012D03*
Y-6043D03*
Y-4075D03*
Y-2106D03*
Y-138D03*
Y1831D03*
Y3799D03*
Y5768D03*
Y7736D03*
Y17579D03*
Y19547D03*
Y21516D03*
Y23484D03*
Y25453D03*
Y27421D03*
Y29390D03*
Y31358D03*
Y33327D03*
Y35295D03*
Y37264D03*
Y39232D03*
Y41201D03*
Y43169D03*
Y45138D03*
Y47106D03*
X-750138Y-10965D03*
Y-8996D03*
Y-7028D03*
Y-5059D03*
Y-3091D03*
Y-1122D03*
Y846D03*
Y2815D03*
Y4783D03*
Y6752D03*
Y16594D03*
Y18563D03*
Y20531D03*
Y22500D03*
Y24469D03*
Y26437D03*
Y28406D03*
Y30374D03*
Y32343D03*
Y34311D03*
Y36280D03*
Y38248D03*
Y40217D03*
Y42185D03*
Y44154D03*
Y46122D03*
X-779862Y49075D03*
Y51043D03*
Y53012D03*
Y54980D03*
Y56949D03*
Y58917D03*
X-750138Y48091D03*
Y50059D03*
Y52028D03*
Y53996D03*
Y55965D03*
Y57933D03*
G54D340*
X-411972Y-112553D03*
X-337972D03*
X-287972D03*
X-237972D03*
X-137972D03*
X-187972D03*
G54D329*
X-200200Y-4350D03*
Y-350D03*
X-193800D03*
Y-4350D03*
X-97200Y-5000D03*
Y-1000D03*
X-90800D03*
Y-5000D03*
G54D227*
X-291060Y69131D03*
X-283186D03*
X-275312D03*
X-298934D03*
X-306808D03*
X-294997Y76436D03*
X-287123D03*
X-277281D03*
X-304840D03*
G54D303*
X-30500Y27500D03*
X-34500D03*
X-30500Y29500D03*
X-34500D03*
X-39500Y27500D03*
X-43500D03*
X-39500Y29500D03*
X-43500D03*
G54D299*
X-611016Y25839D03*
Y27413D03*
Y28988D03*
Y30563D03*
Y32138D03*
Y33713D03*
Y35287D03*
Y36862D03*
Y38437D03*
Y40012D03*
Y41587D03*
Y43161D03*
X-587984D03*
Y41587D03*
Y40012D03*
Y38437D03*
Y36862D03*
Y35287D03*
Y33713D03*
Y32138D03*
Y30563D03*
Y28988D03*
Y27413D03*
Y25839D03*
G54D20*
X-789802Y-673405D03*
X-787880Y-678011D03*
X-785904Y-678161D03*
X-783255Y-677208D03*
X-779230Y-678011D03*
X-777254Y-678161D03*
X-774605Y-677208D03*
X-770580Y-678011D03*
X-768604Y-678161D03*
X-765955Y-677208D03*
X-761930Y-678011D03*
X-759954Y-678161D03*
X-757305Y-677208D03*
X-753280Y-678011D03*
X-748720D03*
X-744695Y-677208D03*
X-742046Y-678161D03*
X-740070Y-678011D03*
X-736045Y-677208D03*
X-733396Y-678161D03*
X-790606Y-669380D03*
X-790756Y-667404D03*
X-789802Y-664755D03*
X-790606Y-660730D03*
X-790756Y-658754D03*
X-789802Y-656105D03*
X-790606Y-652080D03*
X-790756Y-650104D03*
X-789802Y-647455D03*
X-790606Y-643430D03*
X-790756Y-641454D03*
X-789802Y-638805D03*
X-790606Y-634780D03*
Y-630220D03*
X-789802Y-626195D03*
X-790756Y-623546D03*
X-790606Y-621570D03*
X-789802Y-617545D03*
X-790756Y-614896D03*
X-790606Y-612920D03*
X-789802Y-608895D03*
X-790756Y-606246D03*
X-790606Y-604270D03*
X-789802Y-600245D03*
X-790756Y-597596D03*
X-790606Y-595620D03*
X-789802Y-591595D03*
X-787880Y-586989D03*
X-785904Y-586839D03*
X-783255Y-587792D03*
X-779230Y-586989D03*
X-777254Y-586839D03*
X-774605Y-587792D03*
X-770580Y-586989D03*
X-768604Y-586839D03*
X-765955Y-587792D03*
X-761930Y-586989D03*
X-759954Y-586839D03*
X-757305Y-587792D03*
X-753280Y-586989D03*
X-748720D03*
X-744695Y-587792D03*
X-742046Y-586839D03*
X-740070Y-586989D03*
X-736045Y-587792D03*
X-733396Y-586839D03*
X-731420Y-678011D03*
X-727395Y-677208D03*
X-724746Y-678161D03*
X-722770Y-678011D03*
X-718745Y-677208D03*
X-716096Y-678161D03*
X-714120Y-678011D03*
X-712198Y-673405D03*
X-711394Y-669380D03*
X-711244Y-667404D03*
X-712198Y-664755D03*
X-711394Y-660730D03*
X-711244Y-658754D03*
X-712198Y-656105D03*
X-711394Y-652080D03*
X-711244Y-650104D03*
X-712198Y-647455D03*
X-711394Y-643430D03*
X-711244Y-641454D03*
X-712198Y-638805D03*
X-711394Y-634780D03*
Y-630220D03*
X-712198Y-626195D03*
X-711244Y-623546D03*
X-711394Y-621570D03*
X-712198Y-617545D03*
X-711244Y-614896D03*
X-711394Y-612920D03*
X-731420Y-586989D03*
X-727395Y-587792D03*
X-724746Y-586839D03*
X-722770Y-586989D03*
X-718745Y-587792D03*
X-716096Y-586839D03*
X-714120Y-586989D03*
X-712198Y-608895D03*
X-711244Y-606246D03*
X-711394Y-604270D03*
X-712198Y-600245D03*
X-711244Y-597596D03*
X-711394Y-595620D03*
X-712198Y-591595D03*
G54D211*
X-883400Y-422300D03*
X-500500Y-430000D03*
X-2000Y-691000D03*
G54D256*
X-868401Y-14295D03*
Y-16854D03*
Y-19413D03*
Y-21972D03*
Y-24531D03*
Y-1500D03*
Y-4059D03*
Y-6618D03*
Y-9177D03*
Y-11736D03*
X-841598Y-24531D03*
Y-21972D03*
Y-19413D03*
Y-16854D03*
Y-14295D03*
Y-11736D03*
Y-9177D03*
Y-6618D03*
Y-4059D03*
Y-1500D03*
G54D356*
X-894000Y-63700D03*
Y-56300D03*
X-884000D03*
Y-60000D03*
Y-63700D03*
X-370000Y-772200D03*
Y-764800D03*
X-360000D03*
Y-768500D03*
Y-772200D03*
G54D241*
X-309170Y101879D03*
X-272950D03*
G54D238*
X-909000Y108000D03*
X-866900Y-806600D03*
X-818300Y-539900D03*
X-812500Y-311500D03*
X-824742Y92700D03*
X-744500Y-265000D03*
X-695500Y-703000D03*
X-689942Y-551100D03*
X-636500Y2000D03*
X-607942Y-767900D03*
X-574500Y52500D03*
X-467000Y-44500D03*
X-427000Y-299000D03*
X-374000Y19000D03*
X-146500Y-519500D03*
X-157800Y-47100D03*
X-103342Y-133200D03*
X-115500Y17000D03*
X-25000Y-796500D03*
X-36500Y-27000D03*
X-17500Y18500D03*
G54D347*
X-637500Y-745000D03*
Y-740000D03*
Y-735000D03*
Y-750000D03*
X-612520Y-735000D03*
Y-740000D03*
Y-745000D03*
Y-750000D03*
X-191600Y-744700D03*
Y-739700D03*
Y-734700D03*
X-216580D03*
Y-739700D03*
Y-744700D03*
X-191600Y-729700D03*
X-216580D03*
X-80520Y-801000D03*
Y-796000D03*
Y-791000D03*
X-105500D03*
Y-796000D03*
Y-801000D03*
X-80520Y-786000D03*
X-105500D03*
G54D163*
X-377231Y-433235D03*
X-374081D03*
X-377231Y-436384D03*
X-374081D03*
X-377231Y-373392D03*
X-374081D03*
X-377231Y-376542D03*
X-374081D03*
X-377231Y-379691D03*
X-374081D03*
X-377231Y-382841D03*
X-374081D03*
X-377231Y-385991D03*
X-374081D03*
X-377231Y-389140D03*
X-374081D03*
X-377231Y-392290D03*
X-374081D03*
X-377231Y-395439D03*
X-374081D03*
X-377231Y-398589D03*
X-374081D03*
X-377231Y-401739D03*
X-374081D03*
X-377231Y-404888D03*
X-374081D03*
X-377231Y-408038D03*
X-374081D03*
X-377231Y-411187D03*
X-374081D03*
X-377231Y-414337D03*
X-374081D03*
X-377231Y-417487D03*
X-374081D03*
X-377231Y-420636D03*
X-374081D03*
X-377231Y-423786D03*
X-374081D03*
X-377231Y-426935D03*
X-374081D03*
X-377231Y-430085D03*
X-374081D03*
X-377231Y-319849D03*
X-374081D03*
X-377231Y-322998D03*
X-374081D03*
X-377231Y-326148D03*
X-374081D03*
X-377231Y-329298D03*
X-374081D03*
X-377231Y-332447D03*
X-374081D03*
X-377231Y-335597D03*
X-374081D03*
X-377231Y-338746D03*
X-374081D03*
X-377231Y-341896D03*
X-374081D03*
X-377231Y-345046D03*
X-374081D03*
X-377231Y-348195D03*
X-374081D03*
X-377231Y-351345D03*
X-374081D03*
X-377231Y-354494D03*
X-374081D03*
X-377231Y-357644D03*
X-374081D03*
X-377231Y-360794D03*
X-374081D03*
X-377231Y-363943D03*
X-374081D03*
X-377231Y-367093D03*
X-374081D03*
X-377231Y-370242D03*
X-374081D03*
X-370932Y-433235D03*
X-367782D03*
X-370932Y-436384D03*
X-367782D03*
X-370932Y-373392D03*
X-367782D03*
X-364632D03*
X-370932Y-376542D03*
X-367782D03*
X-364632D03*
X-361483D03*
X-370932Y-404888D03*
Y-408038D03*
Y-411187D03*
Y-414337D03*
Y-417487D03*
Y-420636D03*
Y-423786D03*
Y-426935D03*
Y-430085D03*
Y-319849D03*
X-367782D03*
X-364632D03*
X-370932Y-322998D03*
X-367782D03*
X-364632D03*
X-370932Y-326148D03*
X-367782D03*
X-364632D03*
X-361483D03*
X-370932Y-329298D03*
X-367782D03*
X-364632D03*
X-370932Y-332447D03*
X-367782D03*
X-364632D03*
X-361483D03*
X-370932Y-335597D03*
X-367782D03*
X-364632D03*
X-370932Y-338746D03*
X-367782D03*
X-364632D03*
X-361483D03*
X-370932Y-341896D03*
X-367782D03*
X-364632D03*
X-370932Y-345046D03*
X-367782D03*
X-364632D03*
X-361483D03*
X-370932Y-348195D03*
X-367782D03*
X-364632D03*
X-370932Y-351345D03*
X-367782D03*
X-364632D03*
X-361483D03*
X-370932Y-354494D03*
X-367782D03*
X-364632D03*
X-370932Y-357644D03*
X-367782D03*
X-364632D03*
X-361483D03*
X-370932Y-360794D03*
X-367782D03*
X-364632D03*
X-370932Y-363943D03*
X-367782D03*
X-364632D03*
X-361483D03*
X-370932Y-367093D03*
X-367782D03*
X-364632D03*
X-370932Y-370242D03*
X-367782D03*
X-364632D03*
X-361483D03*
X-216506Y-433652D03*
X-213357D03*
X-210207D03*
X-216506Y-436802D03*
X-213357D03*
X-210207D03*
X-216506Y-439951D03*
X-213357D03*
X-210207D03*
Y-373809D03*
Y-376959D03*
Y-380109D03*
Y-383258D03*
Y-386408D03*
Y-389558D03*
Y-392707D03*
X-216506Y-395857D03*
X-213357D03*
X-210207D03*
X-216506Y-399006D03*
X-213357D03*
X-210207D03*
X-216506Y-402156D03*
X-213357D03*
X-210207D03*
X-216506Y-405306D03*
X-213357D03*
X-210207D03*
X-216506Y-408455D03*
X-213357D03*
X-210207D03*
X-216506Y-411605D03*
X-213357D03*
X-210207D03*
X-216506Y-414754D03*
X-213357D03*
X-210207D03*
X-216506Y-417904D03*
X-213357D03*
X-210207D03*
X-216506Y-421054D03*
X-213357D03*
X-210207D03*
X-216506Y-424203D03*
X-213357D03*
X-210207D03*
X-216506Y-427353D03*
X-213357D03*
X-210207D03*
X-216506Y-430502D03*
X-213357D03*
X-210207D03*
Y-323416D03*
Y-326565D03*
Y-329715D03*
Y-332865D03*
Y-336014D03*
Y-339164D03*
Y-342313D03*
Y-345463D03*
Y-348613D03*
Y-351762D03*
Y-354912D03*
Y-358061D03*
Y-361211D03*
Y-364361D03*
Y-367510D03*
Y-370660D03*
G54D232*
X-866790Y-376346D03*
X-858940Y-372346D03*
X-866790Y-368472D03*
Y-360598D03*
Y-352724D03*
Y-344850D03*
Y-336976D03*
Y-329102D03*
Y-321228D03*
Y-313354D03*
X-858940Y-364472D03*
Y-356598D03*
Y-348724D03*
Y-340850D03*
Y-332976D03*
Y-325102D03*
Y-317228D03*
X-866790Y-305480D03*
Y-297606D03*
Y-289732D03*
Y-281858D03*
Y-273984D03*
Y-266110D03*
Y-258236D03*
Y-250362D03*
X-858940Y-309354D03*
Y-301480D03*
Y-293606D03*
Y-285732D03*
Y-277858D03*
Y-269984D03*
Y-262110D03*
Y-254236D03*
X-866790Y-242488D03*
Y-234614D03*
Y-226740D03*
Y-218866D03*
Y-210992D03*
Y-203118D03*
Y-195244D03*
X-858940Y-246362D03*
Y-238488D03*
Y-230614D03*
Y-222740D03*
Y-214866D03*
Y-206992D03*
Y-199118D03*
Y-191244D03*
X-866790Y-187370D03*
Y-179496D03*
Y-171622D03*
Y-163748D03*
Y-155874D03*
Y-148000D03*
Y-140126D03*
Y-132252D03*
X-858940Y-183370D03*
Y-175496D03*
Y-167622D03*
Y-159748D03*
Y-151874D03*
Y-144000D03*
Y-136126D03*
X-866790Y-124378D03*
Y-116504D03*
Y-108630D03*
Y-100756D03*
X-866795Y-84967D03*
Y-77093D03*
X-858940Y-128252D03*
Y-120378D03*
Y-112504D03*
Y-104630D03*
X-858920Y-88904D03*
Y-81030D03*
Y-73156D03*
X-866795Y-69219D03*
Y-61345D03*
Y-53471D03*
X-858920Y-65282D03*
Y-57408D03*
Y-49534D03*
X-849060Y-372346D03*
X-841220Y-376276D03*
X-849060Y-364472D03*
Y-356598D03*
Y-348724D03*
Y-340850D03*
Y-332976D03*
Y-325102D03*
Y-317228D03*
X-841220Y-368402D03*
Y-360528D03*
Y-352654D03*
Y-344780D03*
Y-336906D03*
Y-329032D03*
Y-321158D03*
Y-313284D03*
X-849060Y-309354D03*
Y-301480D03*
Y-293606D03*
Y-285732D03*
Y-277858D03*
Y-269984D03*
Y-262110D03*
Y-254236D03*
X-841220Y-305410D03*
Y-297536D03*
Y-289662D03*
Y-281788D03*
Y-273914D03*
Y-266040D03*
Y-258166D03*
X-849060Y-246362D03*
Y-238488D03*
Y-230614D03*
Y-222740D03*
Y-214866D03*
Y-206992D03*
Y-199118D03*
Y-191244D03*
X-841220Y-250292D03*
Y-242418D03*
Y-234544D03*
Y-226670D03*
Y-218796D03*
Y-210922D03*
Y-203048D03*
Y-195174D03*
X-849060Y-183370D03*
Y-175496D03*
Y-167622D03*
Y-159748D03*
Y-151874D03*
Y-144000D03*
Y-136126D03*
X-841220Y-187300D03*
Y-179426D03*
Y-171552D03*
Y-163678D03*
Y-155804D03*
Y-147930D03*
Y-140056D03*
Y-132182D03*
X-849060Y-128252D03*
Y-120378D03*
Y-112504D03*
Y-104630D03*
X-849080Y-88904D03*
Y-81030D03*
Y-73156D03*
X-841220Y-124308D03*
Y-116434D03*
Y-108560D03*
Y-100686D03*
X-841205Y-84967D03*
Y-77093D03*
X-849080Y-65282D03*
Y-57408D03*
X-841205Y-69219D03*
Y-61345D03*
Y-53471D03*
X-849080Y-49534D03*
X-626790Y-376348D03*
X-618940Y-372348D03*
X-626790Y-368474D03*
Y-360600D03*
Y-352726D03*
Y-344852D03*
Y-336978D03*
Y-329104D03*
Y-321230D03*
Y-313356D03*
X-618940Y-364474D03*
Y-356600D03*
Y-348726D03*
Y-340852D03*
Y-332978D03*
Y-325104D03*
Y-317230D03*
X-626790Y-305482D03*
Y-297608D03*
Y-289734D03*
Y-281860D03*
Y-273986D03*
Y-266112D03*
Y-258238D03*
Y-250364D03*
X-618940Y-309356D03*
Y-301482D03*
Y-293608D03*
Y-285734D03*
Y-277860D03*
Y-269986D03*
Y-262112D03*
Y-254238D03*
X-626790Y-242490D03*
Y-234616D03*
Y-226742D03*
Y-218868D03*
Y-210994D03*
Y-203120D03*
Y-195246D03*
X-618940Y-246364D03*
Y-238490D03*
Y-230616D03*
Y-222742D03*
Y-214868D03*
Y-206994D03*
Y-199120D03*
Y-191246D03*
X-626790Y-187372D03*
Y-179498D03*
Y-171624D03*
Y-163750D03*
Y-155876D03*
Y-148002D03*
Y-140128D03*
Y-132254D03*
X-618940Y-183372D03*
Y-175498D03*
Y-167624D03*
Y-159750D03*
Y-151876D03*
Y-144002D03*
Y-136128D03*
X-626790Y-124380D03*
Y-116506D03*
Y-108632D03*
Y-100758D03*
X-626795Y-84969D03*
Y-77095D03*
X-618940Y-128254D03*
Y-120380D03*
Y-112506D03*
Y-104632D03*
X-618920Y-88906D03*
Y-81032D03*
Y-73158D03*
X-626795Y-69221D03*
Y-61347D03*
Y-53473D03*
X-618920Y-65284D03*
Y-57410D03*
Y-49536D03*
X-609060Y-372348D03*
X-601220Y-376278D03*
X-609060Y-364474D03*
Y-356600D03*
Y-348726D03*
Y-340852D03*
Y-332978D03*
Y-325104D03*
Y-317230D03*
X-601220Y-368404D03*
Y-360530D03*
Y-352656D03*
Y-344782D03*
Y-336908D03*
Y-329034D03*
Y-321160D03*
Y-313286D03*
X-609060Y-309356D03*
Y-301482D03*
Y-293608D03*
Y-285734D03*
Y-277860D03*
Y-269986D03*
Y-262112D03*
Y-254238D03*
X-601220Y-305412D03*
Y-297538D03*
Y-289664D03*
Y-281790D03*
Y-273916D03*
Y-266042D03*
Y-258168D03*
Y-250294D03*
X-609060Y-246364D03*
Y-238490D03*
Y-230616D03*
Y-222742D03*
Y-214868D03*
Y-206994D03*
Y-199120D03*
Y-191246D03*
X-601220Y-242420D03*
Y-234546D03*
Y-226672D03*
Y-218798D03*
Y-210924D03*
Y-203050D03*
Y-195176D03*
X-609060Y-183372D03*
Y-175498D03*
Y-167624D03*
Y-159750D03*
Y-151876D03*
Y-144002D03*
Y-136128D03*
X-601220Y-187302D03*
Y-179428D03*
Y-171554D03*
Y-163680D03*
Y-155806D03*
Y-147932D03*
Y-140058D03*
Y-132184D03*
X-609060Y-128254D03*
Y-120380D03*
Y-112506D03*
Y-104632D03*
X-609080Y-88906D03*
Y-81032D03*
Y-73158D03*
X-601220Y-124310D03*
Y-116436D03*
Y-108562D03*
Y-100688D03*
X-601205Y-84969D03*
Y-77095D03*
X-609080Y-65284D03*
Y-57410D03*
X-601205Y-69221D03*
Y-61347D03*
Y-53473D03*
X-609080Y-49536D03*
G54D230*
X-193979Y64595D03*
X-201853D03*
X-209727D03*
X-217601D03*
X-225475D03*
X-197916D03*
X-205790D03*
X-213664D03*
X-221538D03*
X-229412D03*
X-215633Y58296D03*
X-207759D03*
X-195947D03*
X-203821D03*
X-211695D03*
X-219569D03*
X-199885D03*
X-231381D03*
X-223507D03*
X-227443D03*
X-93585Y64595D03*
X-101459D03*
X-109333D03*
X-117207D03*
X-125081D03*
X-97522D03*
X-105396D03*
X-113270D03*
X-121144D03*
X-129018D03*
X-115239Y58296D03*
X-107365D03*
X-95553D03*
X-103427D03*
X-111301D03*
X-119175D03*
X-99491D03*
X-130987D03*
X-123113D03*
X-127049D03*
G54D324*
X-30500Y25300D03*
X-34500D03*
Y31700D03*
X-30500D03*
X-39500Y25300D03*
X-43500D03*
Y31700D03*
X-39500D03*
G54D314*
X-428390Y-97972D03*
X-426421D03*
X-424453D03*
X-422484D03*
X-420516D03*
X-418547D03*
X-416579D03*
X-414610D03*
X-354390D03*
X-352421D03*
X-350453D03*
X-348484D03*
X-346516D03*
X-344547D03*
X-342579D03*
X-340610D03*
X-304390D03*
X-302421D03*
X-300453D03*
X-298484D03*
X-296516D03*
X-294547D03*
X-292579D03*
X-290610D03*
X-254390D03*
X-252421D03*
X-250453D03*
X-248484D03*
X-246516D03*
X-244547D03*
X-242579D03*
X-240610D03*
X-204390D03*
X-202421D03*
X-200453D03*
X-198484D03*
X-196516D03*
X-194547D03*
X-192579D03*
X-154390D03*
X-152421D03*
X-150453D03*
X-148484D03*
X-146516D03*
X-144547D03*
X-142579D03*
X-140610D03*
X-190610D03*
X-30610Y-427028D03*
X-32579D03*
X-34547D03*
X-36516D03*
X-38484D03*
X-30610Y-374528D03*
X-32579D03*
X-34547D03*
X-36516D03*
X-38484D03*
X-30610Y-322028D03*
X-32579D03*
X-34547D03*
X-36516D03*
X-38484D03*
X-30610Y-269528D03*
X-32579D03*
X-34547D03*
X-36516D03*
X-38484D03*
G54D97*
X-323160Y-12563D03*
Y-14532D03*
Y-16500D03*
Y-18468D03*
Y-20437D03*
Y-22406D03*
Y-24374D03*
Y-26343D03*
Y-28311D03*
Y-30280D03*
Y-32248D03*
Y-752D03*
Y-2720D03*
Y-4689D03*
Y-6658D03*
Y-8626D03*
Y-10594D03*
X-310640Y-32248D03*
Y-30280D03*
Y-28311D03*
Y-26343D03*
Y-24374D03*
Y-22406D03*
Y-20437D03*
Y-18468D03*
Y-16500D03*
Y-14532D03*
Y-12563D03*
Y-10594D03*
Y-8626D03*
Y-6658D03*
Y-4689D03*
Y-2720D03*
Y-752D03*
G54D296*
X-40692Y-415467D03*
Y-310467D03*
Y-362967D03*
Y-257967D03*
G54D77*
X-850850Y-710200D03*
Y-705200D03*
X-875750Y111000D03*
X-881250D03*
X-822350Y-689700D03*
X-827850D03*
X-822350Y-694700D03*
X-827850D03*
X-822350Y-699700D03*
X-827850D03*
X-845350Y-710200D03*
Y-705200D03*
X-821350Y-641200D03*
X-826850D03*
X-827850Y-650600D03*
X-822350D03*
X-827850Y-655600D03*
X-822350D03*
X-792250Y-555500D03*
X-797750D03*
X-831250Y71000D03*
X-825750D03*
X-833250Y84000D03*
X-827750D03*
X-742250Y-17000D03*
X-736750D03*
X-741250Y59500D03*
X-735750D03*
X-741250Y54500D03*
X-735750D03*
X-700250Y-434500D03*
X-694750D03*
X-654750Y-798500D03*
X-660250D03*
X-612750Y-1500D03*
X-607250D03*
X-576250Y23000D03*
X-570750D03*
X-444750Y-812000D03*
X-439250D03*
X-484750Y-438000D03*
X-479250D03*
X-484750Y-433000D03*
X-479250D03*
X-484750Y-428100D03*
X-479250D03*
X-443420Y-115920D03*
X-437920D03*
X-395750Y-168500D03*
X-401250D03*
X-408250Y-90500D03*
X-413750D03*
X-319070Y-723290D03*
X-313570D03*
X-311750Y-391000D03*
Y-397000D03*
X-335250D03*
X-329750D03*
X-311750Y-403000D03*
X-335250Y-385000D03*
X-329750D03*
X-335250Y-403000D03*
X-329750D03*
X-335250Y-391000D03*
X-329750D03*
X-334250Y-90500D03*
X-339750D03*
X-364250Y-114000D03*
X-369750D03*
X-314250D03*
X-319750D03*
X-284150Y-723290D03*
X-278650D03*
X-288750Y-375000D03*
X-283250D03*
X-300250Y-391000D03*
X-294750D03*
X-306250D03*
X-288750D03*
X-283250D03*
X-263750Y-403000D03*
X-258250D03*
X-263750Y-397000D03*
X-258250D03*
X-306250D03*
X-288750D03*
X-283250D03*
X-263750Y-391000D03*
X-258250D03*
X-306250Y-403000D03*
X-263750Y-385000D03*
X-258250D03*
X-288750Y-403000D03*
X-283250D03*
X-263750Y-375000D03*
X-258250D03*
X-263750Y-369000D03*
X-258250D03*
X-288750Y-363000D03*
X-283250D03*
X-263750Y-357000D03*
X-258250D03*
X-263750Y-363000D03*
X-258250D03*
X-288750Y-357000D03*
X-283250D03*
X-288750Y-369000D03*
X-283250D03*
X-284250Y-90500D03*
X-289750D03*
X-264250Y-114000D03*
X-269750D03*
X-234250Y-90500D03*
X-239750D03*
X-219750Y-114000D03*
X-214250D03*
X-228750Y-5600D03*
X-223250D03*
X-184250Y-90500D03*
X-189750D03*
X-134250D03*
X-139750D03*
X-164250Y-114000D03*
X-169750D03*
X-134750Y-18500D03*
Y18500D03*
Y24000D03*
Y5500D03*
Y13500D03*
X-83250Y-438000D03*
X-77750D03*
X-83250Y-393000D03*
X-77750D03*
Y-342000D03*
X-83250D03*
X-77750Y-286500D03*
X-83250D03*
X-77750Y-243000D03*
X-83250D03*
X-129250Y-18500D03*
Y18500D03*
Y24000D03*
Y5500D03*
Y13500D03*
X-51750Y-785500D03*
X-46250D03*
X-54750Y-686400D03*
X-49250D03*
X-22250D03*
X-16750D03*
X-54750Y-612000D03*
X-49250D03*
X-54750Y-649400D03*
X-49250D03*
X-11050D03*
X-30750Y-18500D03*
X-36250D03*
X-29250Y19500D03*
X-34750D03*
X-29250Y5500D03*
X-34750D03*
X-29250Y14500D03*
X-34750D03*
X-9650Y-612000D03*
X-4150D03*
X-5550Y-649400D03*
X-10250Y-574700D03*
X-4750D03*
G54D283*
X-581500Y-790750D03*
Y-787250D03*
X-517500Y-812750D03*
Y-809250D03*
X-537000Y-792250D03*
Y-788750D03*
X-269500Y23750D03*
Y27250D03*
G54D69*
X-783655Y-685017D03*
Y-579983D03*
X-718345Y-685017D03*
Y-579983D03*
G54D65*
X-797611Y-665055D03*
Y-656405D03*
Y-647755D03*
Y-639105D03*
Y-632500D03*
Y-625895D03*
Y-617245D03*
Y-608595D03*
Y-599945D03*
X-704389Y-665055D03*
Y-656405D03*
Y-647755D03*
Y-639105D03*
Y-632500D03*
Y-625895D03*
Y-617245D03*
Y-608595D03*
Y-599945D03*
G54D260*
X-776811Y-18248D03*
Y63248D03*
G54D252*
X-687083Y-741929D03*
X-659917Y-733071D03*
G54D359*
X-792079Y-545000D03*
X-801921D03*
G54D52*
X-904280Y-275500D03*
X-901720D03*
X-435780Y-30000D03*
X-433220D03*
X-343780Y58500D03*
X-341220D03*
X-315880Y58000D03*
X-313320D03*
X-297620D03*
X-300180D03*
X-305380D03*
X-302820D03*
X-308120D03*
X-310680D03*
X-209280Y13300D03*
X-206720D03*
X-194220Y47500D03*
X-196780D03*
X-202280D03*
X-199720D03*
X-203280Y13300D03*
X-200720D03*
X-186220Y18000D03*
X-188780D03*
X-186280Y47500D03*
X-183720D03*
X-91220Y12600D03*
X-93780D03*
X-101780D03*
X-99220D03*
X-107280D03*
X-104720D03*
X-92220Y47500D03*
X-94780D03*
X-100280D03*
X-97720D03*
X-83280D03*
X-80720D03*
G54D331*
X-304406Y90855D03*
X-295981D03*
X-286138D03*
X-277831D03*
G54D315*
X-565797Y-769579D03*
Y-771547D03*
Y-773516D03*
Y-775484D03*
Y-777453D03*
Y-779421D03*
X-581203D03*
Y-777453D03*
Y-775484D03*
Y-773516D03*
Y-771547D03*
Y-769579D03*
G54D306*
X-411972Y-100610D03*
Y-102579D03*
Y-104547D03*
Y-106516D03*
Y-108484D03*
X-337972Y-100610D03*
Y-102579D03*
Y-104547D03*
Y-106516D03*
Y-108484D03*
X-287972Y-100610D03*
Y-102579D03*
Y-104547D03*
Y-106516D03*
Y-108484D03*
X-237972Y-100610D03*
Y-102579D03*
Y-104547D03*
Y-106516D03*
Y-108484D03*
X-137972Y-100610D03*
Y-102579D03*
Y-104547D03*
Y-106516D03*
Y-108484D03*
X-187972Y-100610D03*
Y-102579D03*
Y-104547D03*
Y-106516D03*
Y-108484D03*
X-27972Y-410610D03*
Y-412579D03*
Y-414547D03*
Y-416516D03*
Y-418484D03*
Y-420453D03*
Y-422421D03*
Y-424390D03*
Y-313484D03*
Y-315453D03*
Y-317421D03*
Y-319390D03*
Y-358110D03*
Y-360079D03*
Y-362047D03*
Y-364016D03*
Y-365984D03*
Y-367953D03*
Y-369921D03*
Y-371890D03*
Y-253110D03*
Y-255079D03*
Y-257047D03*
Y-259016D03*
Y-260984D03*
Y-262953D03*
Y-264921D03*
Y-266890D03*
Y-305610D03*
Y-307579D03*
Y-309547D03*
Y-311516D03*
G54D100*
X-319853Y-33587D03*
X-317884D03*
X-315916D03*
X-313947D03*
Y587D03*
X-315916D03*
X-317884D03*
X-319853D03*
G54D288*
X-623565Y-742500D03*
X-202645Y-737200D03*
X-91565Y-793500D03*
G54D286*
X-899516Y102100D03*
X-901484D03*
X-899516Y90000D03*
X-901484D03*
X-832016Y-85000D03*
X-833984D03*
X-831516Y-53500D03*
X-833484D03*
X-754016D03*
X-755984D03*
X-709516Y-436000D03*
X-711484D03*
X-674016Y-53500D03*
X-675984D03*
X-636016Y44000D03*
X-637984D03*
X-636016Y47000D03*
X-637984D03*
X-636016Y37500D03*
X-637984D03*
X-636016Y34500D03*
X-637984D03*
X-588984Y-768000D03*
X-587016D03*
X-576016Y27000D03*
X-577984D03*
X-589016Y4500D03*
X-590984D03*
X-567016Y69000D03*
X-568984D03*
X-567016Y74000D03*
X-568984D03*
X-567016Y102000D03*
X-568984D03*
X-567016Y79000D03*
X-568984D03*
X-567016Y84000D03*
X-568984D03*
X-567016Y107000D03*
X-568984D03*
X-501416Y-797100D03*
X-503384D03*
X-519484Y-798000D03*
X-517516D03*
X-543016Y15500D03*
X-544984D03*
X-543016Y39000D03*
X-544984D03*
X-440516Y11500D03*
X-442484D03*
X-397516Y14500D03*
X-399484D03*
X-388516Y17000D03*
X-390484D03*
X-348016Y-792500D03*
X-349984D03*
X-335016Y-364000D03*
X-336984D03*
X-330016Y-17500D03*
X-331984D03*
X-330016Y-22000D03*
X-331984D03*
X-330016Y-33000D03*
X-331984D03*
X-330016Y-14500D03*
X-331984D03*
X-330016Y-25000D03*
X-331984D03*
X-330016Y-30000D03*
X-331984D03*
X-362616Y-5200D03*
X-364584D03*
X-330016Y-10400D03*
X-331984D03*
X-330016Y-7400D03*
X-331984D03*
X-252116Y39000D03*
X-254084D03*
X-273016Y18000D03*
X-274984D03*
X-273016Y15000D03*
X-274984D03*
X-273016Y8300D03*
X-274984D03*
X-219116Y-41900D03*
X-221084D03*
X-240116Y39000D03*
X-242084D03*
X-179016Y-783000D03*
X-180984D03*
X-176016Y16000D03*
X-177984D03*
X-176016Y13000D03*
X-177984D03*
X-177016Y-4000D03*
X-178984D03*
X-84016Y-16200D03*
X-85984D03*
X-78016Y-4000D03*
X-79984D03*
X-77016Y13400D03*
X-78984D03*
X-77016Y16000D03*
X-78984D03*
G54D284*
X-875500Y-640250D03*
Y-645750D03*
X-869000Y47250D03*
X-880000D03*
X-871000Y105250D03*
X-869000Y52750D03*
X-880000D03*
X-892000Y87250D03*
Y81750D03*
X-852000Y105250D03*
X-871000Y110750D03*
X-852000D03*
X-842500Y-662250D03*
Y-667750D03*
X-847500Y-662250D03*
Y-667750D03*
X-813000Y-641350D03*
Y-646850D03*
X-835500Y105250D03*
Y110750D03*
X-677500Y-780750D03*
Y-775250D03*
X-645000Y-88750D03*
Y-94250D03*
X-606000Y-753750D03*
Y-748250D03*
X-563500Y-98250D03*
Y-103750D03*
X-589500Y15750D03*
Y10250D03*
X-491500Y-449250D03*
Y-454750D03*
X-508000Y-450250D03*
Y-455750D03*
X-496000Y-323250D03*
Y-328750D03*
X-491000Y-323250D03*
Y-328750D03*
X-495500Y-98250D03*
Y-103750D03*
X-549000Y-99250D03*
Y-104750D03*
X-486000Y-323250D03*
Y-328750D03*
X-472500Y-129750D03*
Y-124250D03*
X-441000Y-103250D03*
Y-108750D03*
X-436000Y-103250D03*
Y-108750D03*
X-430500Y-40250D03*
Y-34750D03*
X-389800Y-34550D03*
Y-40050D03*
X-318000Y-357250D03*
Y-362750D03*
X-330000Y-357250D03*
Y-362750D03*
X-324000Y-357250D03*
Y-362750D03*
X-312000Y-357250D03*
Y-362750D03*
X-317000Y-108750D03*
Y-103250D03*
X-312000Y-108750D03*
Y-103250D03*
X-362000Y-108750D03*
Y-103250D03*
X-367000Y-108750D03*
Y-103250D03*
X-251880Y-748620D03*
Y-743120D03*
X-300000Y-357250D03*
Y-362750D03*
X-306000Y-357250D03*
Y-362750D03*
X-267000Y-108750D03*
Y-103250D03*
X-262000Y-108750D03*
Y-103250D03*
X-217000D03*
Y-108750D03*
X-212000Y-103250D03*
Y-108750D03*
X-162000D03*
Y-103250D03*
X-167000Y-108750D03*
Y-103250D03*
X-111500Y-805250D03*
Y-810750D03*
X-67000Y-803250D03*
Y-808750D03*
X-20500Y-430750D03*
Y-378250D03*
Y-372750D03*
Y-425250D03*
X-44000Y-393250D03*
Y-398750D03*
X-20500Y-325750D03*
Y-320250D03*
X-44000Y-342750D03*
Y-348250D03*
X-20500Y-273250D03*
Y-267750D03*
X-44000Y-290250D03*
Y-295750D03*
Y-237750D03*
Y-243250D03*
X-64500Y-139750D03*
Y-134250D03*
G54D66*
X-774905Y-685017D03*
X-766255D03*
X-757605D03*
X-751000D03*
X-744395D03*
X-735745D03*
X-774905Y-579983D03*
X-766255D03*
X-757605D03*
X-751000D03*
X-744395D03*
X-735745D03*
X-727095Y-685017D03*
Y-579983D03*
G54D212*
X-47538Y73210D03*
Y112580D03*
X9942Y73210D03*
Y112580D03*
G54D258*
X-32441Y-411735D03*
Y-359235D03*
Y-254235D03*
Y-306735D03*
G54D203*
X-247818Y68611D03*
Y102469D03*
X-171636Y68611D03*
Y102469D03*
X-147424Y68611D03*
Y102469D03*
X-71242Y68611D03*
Y102469D03*
G54D181*
X-786737Y-562263D03*
X-784263Y-564737D03*
X-784237Y-559763D03*
X-781763Y-562237D03*
G54D336*
X-896300Y-202500D03*
X-899700D03*
Y-209500D03*
X-896300D03*
X-888300Y-202500D03*
X-891700D03*
Y-209500D03*
X-888300D03*
X-888800Y-155000D03*
X-892200D03*
Y-162000D03*
X-888800D03*
X-896800Y-155000D03*
X-900200D03*
Y-162000D03*
X-896800D03*
X-401700Y-774000D03*
X-398300D03*
Y-767000D03*
X-401700D03*
X-418700Y-769500D03*
X-415300D03*
Y-762500D03*
X-418700D03*
X-428700Y-769500D03*
X-425300D03*
Y-762500D03*
X-428700D03*
X-409700Y-774000D03*
X-406300D03*
Y-767000D03*
X-409700D03*
X-393700Y-774000D03*
X-390300D03*
Y-767000D03*
X-393700D03*
X-385700Y-774000D03*
X-382300D03*
Y-767000D03*
X-385700D03*
X-372700Y36500D03*
Y29500D03*
X-385300Y36500D03*
X-388700D03*
Y29500D03*
X-385300D03*
X-377300Y36500D03*
X-380700D03*
Y29500D03*
X-377300D03*
X-361300Y36500D03*
X-364700D03*
Y29500D03*
X-361300D03*
X-369300Y36500D03*
Y29500D03*
X-353800Y48500D03*
X-357200D03*
Y41500D03*
X-353800D03*
X-313700Y46000D03*
X-345800Y48500D03*
X-349200D03*
Y41500D03*
X-345800D03*
X-313700Y53000D03*
X-310300Y46000D03*
X-303200D03*
X-299800D03*
X-294800Y28500D03*
X-298200D03*
Y21500D03*
X-294800D03*
X-295200Y42500D03*
X-291800D03*
X-310300Y53000D03*
X-299800D03*
X-303200D03*
X-291800Y49500D03*
X-295200D03*
X-309170Y126867D03*
X-272950D03*
G54D327*
X-38406Y-423395D03*
Y-318395D03*
Y-370895D03*
Y-265895D03*
G54D323*
X-869500Y61750D03*
X-867500D03*
X-865500D03*
X-863500D03*
X-861500D03*
X-859500D03*
X-857500D03*
X-855500D03*
X-853500D03*
X-851500D03*
Y96250D03*
X-853500D03*
X-855500D03*
X-857500D03*
X-859500D03*
X-861500D03*
X-863500D03*
X-865500D03*
X-867500D03*
X-869500D03*
X-849500Y61750D03*
X-847500D03*
Y96250D03*
X-849500D03*
G54D320*
X-568579Y-782203D03*
X-570547D03*
X-572516D03*
X-574484D03*
X-576453D03*
X-578421D03*
Y-766797D03*
X-576453D03*
X-574484D03*
X-572516D03*
X-570547D03*
X-568579D03*
G54D318*
X-799311Y-272283D03*
X-797736D03*
X-796161D03*
X-794587D03*
X-793012D03*
Y-305717D03*
X-794587D03*
X-796161D03*
X-797736D03*
X-799311D03*
X-791437Y-272283D03*
X-789862D03*
X-788287D03*
X-786713D03*
X-785138D03*
X-783563D03*
X-781988D03*
X-780413D03*
X-778839D03*
X-777264D03*
X-775689D03*
Y-305717D03*
X-777264D03*
X-778839D03*
X-780413D03*
X-781988D03*
X-783563D03*
X-785138D03*
X-786713D03*
X-788287D03*
X-789862D03*
X-791437D03*
G54D313*
X-280233Y94753D03*
X-282201D03*
X-284170D03*
X-286138D03*
X-288107D03*
X-290075D03*
X-292044D03*
X-294012D03*
X-295981D03*
X-297950D03*
X-299918D03*
X-301886D03*
G54D271*
X-316900Y-16500D03*
G54D209*
X-238270Y92273D03*
Y115737D03*
X-181184Y92273D03*
X-137876D03*
X-181184Y115737D03*
X-137876D03*
X-80790Y92273D03*
Y115737D03*
G54D265*
X-651500Y-649000D03*
G54D257*
X-662500Y-771065D03*
X-236770Y-737905D03*
G54D335*
X-751846Y-516799D03*
X-743500Y-510500D03*
Y-516799D03*
X-751846Y-510500D03*
X-590000Y-6799D03*
X-598346D03*
Y-500D03*
X-590000D03*
G54D332*
X-727000Y-775000D03*
X-704000Y-785000D03*
X-727000Y-790000D03*
Y-785000D03*
X-704000Y-775000D03*
Y-780000D03*
X-727000D03*
X-704000Y-790000D03*
X-116000Y-26500D03*
Y-21500D03*
Y-16500D03*
X-93000D03*
Y-21500D03*
Y-26500D03*
X-116000Y-11500D03*
X-93000D03*
G54D330*
X-300508Y102723D03*
X-297359D03*
X-294209D03*
X-287910D03*
X-284760D03*
X-281611D03*
X-295784Y99067D03*
X-292634D03*
X-289485D03*
X-286335D03*
X-302083D03*
X-280036D03*
G54D325*
X-140505Y-13598D03*
X-171495D03*
X-140505Y10024D03*
Y8449D03*
Y6874D03*
Y5299D03*
X-171495Y-4150D03*
X-140505Y-8874D03*
Y-7299D03*
X-171495Y-8874D03*
Y-7299D03*
X-140505Y11598D03*
Y3724D03*
Y2150D03*
Y575D03*
X-171495Y-12024D03*
Y-10449D03*
X-140505Y-1000D03*
Y-2575D03*
Y-5724D03*
X-171495Y-2575D03*
Y-1000D03*
Y575D03*
Y2150D03*
Y-5724D03*
X-140505Y-4150D03*
X-171495Y3724D03*
Y5299D03*
X-140505Y-12024D03*
Y-10449D03*
X-171495Y8449D03*
Y6874D03*
Y11598D03*
Y10024D03*
X-72495Y-13598D03*
Y-4150D03*
Y-8874D03*
Y-7299D03*
Y-12024D03*
Y-10449D03*
Y-2575D03*
Y-1000D03*
Y575D03*
Y2150D03*
Y-5724D03*
Y3724D03*
Y5299D03*
Y8449D03*
Y6874D03*
Y11598D03*
Y10024D03*
X-41505Y-13598D03*
Y10024D03*
Y8449D03*
Y6874D03*
Y5299D03*
Y-8874D03*
Y-7299D03*
Y11598D03*
Y3724D03*
Y2150D03*
Y575D03*
Y-1000D03*
Y-2575D03*
Y-5724D03*
Y-4150D03*
Y-12024D03*
Y-10449D03*
G54D322*
X-875750Y90000D03*
Y88000D03*
Y86000D03*
Y84000D03*
Y82000D03*
Y80000D03*
Y78000D03*
Y76000D03*
Y74000D03*
Y72000D03*
Y70000D03*
Y68000D03*
X-841250D03*
Y70000D03*
Y72000D03*
Y74000D03*
Y76000D03*
Y78000D03*
Y80000D03*
Y82000D03*
Y84000D03*
Y86000D03*
Y88000D03*
Y90000D03*
G54D321*
X-804217Y-300811D03*
Y-299236D03*
Y-297661D03*
Y-296087D03*
Y-294512D03*
Y-292937D03*
Y-291362D03*
Y-289787D03*
Y-288213D03*
Y-286638D03*
Y-285063D03*
Y-283488D03*
Y-281913D03*
Y-280339D03*
Y-278764D03*
Y-277189D03*
X-770783D03*
Y-278764D03*
Y-280339D03*
Y-281913D03*
Y-283488D03*
Y-285063D03*
Y-286638D03*
Y-288213D03*
Y-289787D03*
Y-291362D03*
Y-292937D03*
Y-294512D03*
Y-296087D03*
Y-297661D03*
Y-299236D03*
Y-300811D03*
G54D316*
X-654453Y-631634D03*
X-652484D03*
X-650516D03*
X-648547D03*
Y-666366D03*
X-650516D03*
X-652484D03*
X-654453D03*
X-266748Y4460D03*
X-264780D03*
X-262811D03*
X-260842D03*
X-258874D03*
X-256906D03*
X-254937D03*
X-252968D03*
Y17540D03*
X-254937D03*
X-256906D03*
X-258874D03*
X-260842D03*
X-262811D03*
X-264780D03*
X-266748D03*
X-251000Y4460D03*
X-249032D03*
X-247063D03*
X-245094D03*
X-243126D03*
X-241158D03*
X-239189D03*
X-237220D03*
X-235252D03*
Y17540D03*
X-237220D03*
X-239189D03*
X-241158D03*
X-243126D03*
X-245094D03*
X-247063D03*
X-249032D03*
X-251000D03*
G54D312*
X-32776Y-421673D03*
Y-316673D03*
Y-369173D03*
Y-264173D03*
G54D274*
X-573500Y-774499D03*
X-478000Y-145000D03*
G54D346*
X-756201Y-467697D03*
X-766043D03*
X-768012D03*
X-769980D03*
X-771949D03*
X-773917D03*
X-732579D03*
X-734547D03*
X-736516D03*
X-738484D03*
X-740453D03*
X-742421D03*
X-744390D03*
X-746358D03*
X-748327D03*
X-750295D03*
X-752264D03*
X-754232D03*
X-767028Y-442303D03*
X-768996D03*
X-770965D03*
X-772933D03*
X-731594D03*
X-733563D03*
X-735531D03*
X-737500D03*
X-739469D03*
X-741437D03*
X-743406D03*
X-745374D03*
X-747343D03*
X-749311D03*
X-751280D03*
X-753248D03*
X-755217D03*
X-757185D03*
X-701083Y-467697D03*
X-703051D03*
X-705020D03*
X-706988D03*
X-708957D03*
X-710925D03*
X-712894D03*
X-714862D03*
X-716831D03*
X-718799D03*
X-720768D03*
X-722736D03*
X-724705D03*
X-726673D03*
X-728642D03*
X-730610D03*
X-702067Y-442303D03*
X-704035D03*
X-706004D03*
X-707972D03*
X-709941D03*
X-711909D03*
X-713878D03*
X-715846D03*
X-717815D03*
X-719783D03*
X-721752D03*
X-723720D03*
X-725689D03*
X-727657D03*
X-729626D03*
X-552622Y-90197D03*
X-554591D03*
X-556559D03*
X-558528D03*
X-560496D03*
X-562465D03*
X-564433D03*
X-553606Y-64803D03*
X-555575D03*
X-557543D03*
X-559512D03*
X-561480D03*
X-563449D03*
X-565417D03*
X-509315Y-90197D03*
X-511284D03*
X-513252D03*
X-515221D03*
X-517189D03*
X-519158D03*
X-521126D03*
X-523094D03*
X-525063D03*
X-527032D03*
X-529000D03*
X-530969D03*
X-532937D03*
X-534906D03*
X-536874D03*
X-538843D03*
X-540811D03*
X-542780D03*
X-544748D03*
X-546716D03*
X-548685D03*
X-550654D03*
X-493567D03*
X-495535D03*
X-497504D03*
X-499472D03*
X-512268Y-64803D03*
X-514236D03*
X-516205D03*
X-518173D03*
X-520142D03*
X-522110D03*
X-524079D03*
X-526047D03*
X-528016D03*
X-529984D03*
X-531953D03*
X-533921D03*
X-535890D03*
X-537858D03*
X-539827D03*
X-541795D03*
X-543764D03*
X-545732D03*
X-547701D03*
X-549669D03*
X-551638D03*
X-492583D03*
X-494551D03*
X-496520D03*
X-498488D03*
X-500457D03*
X-510299D03*
G54D328*
X-163874Y-16495D03*
X-152850D03*
X-143402D03*
X-162299D03*
X-168598D03*
X-146551D03*
X-144976D03*
X-151276D03*
X-149701D03*
X-156000D03*
X-154425D03*
X-160724D03*
X-159150D03*
X-148126D03*
X-157575D03*
X-165449D03*
X-167024D03*
X-154425Y14495D03*
X-144976D03*
X-143402D03*
X-149701D03*
X-151276D03*
X-148126D03*
X-168598D03*
X-167024D03*
X-165449D03*
X-163874D03*
X-162299D03*
X-160724D03*
X-159150D03*
X-157575D03*
X-152850D03*
X-146551D03*
X-156000D03*
X-64874Y-16495D03*
X-53850D03*
X-44402D03*
X-63299D03*
X-69598D03*
X-47551D03*
X-45976D03*
X-52276D03*
X-50701D03*
X-57000D03*
X-55425D03*
X-61724D03*
X-60150D03*
X-49126D03*
X-58575D03*
X-66449D03*
X-68024D03*
X-55425Y14495D03*
X-45976D03*
X-44402D03*
X-50701D03*
X-52276D03*
X-49126D03*
X-69598D03*
X-68024D03*
X-66449D03*
X-64874D03*
X-63299D03*
X-61724D03*
X-60150D03*
X-58575D03*
X-53850D03*
X-47551D03*
X-57000D03*
G54D317*
X-831665Y-11000D03*
X-827335D03*
X-34335Y-764400D03*
X-38665D03*
X-34335Y-768400D03*
X-38665D03*
G54D309*
X-658040Y-633252D03*
Y-635220D03*
Y-637189D03*
Y-639158D03*
Y-641126D03*
Y-643094D03*
Y-645063D03*
Y-647032D03*
Y-649000D03*
Y-650968D03*
Y-652937D03*
Y-654906D03*
Y-656874D03*
Y-658842D03*
Y-660811D03*
Y-662780D03*
Y-664748D03*
X-644960D03*
Y-662780D03*
Y-660811D03*
Y-658842D03*
Y-656874D03*
Y-654906D03*
Y-652937D03*
Y-650968D03*
Y-649000D03*
Y-647032D03*
Y-645063D03*
Y-643094D03*
Y-641126D03*
Y-639158D03*
Y-637189D03*
Y-635220D03*
Y-633252D03*
X-268366Y8047D03*
Y10016D03*
Y11984D03*
Y13953D03*
X-233634D03*
Y11984D03*
Y10016D03*
Y8047D03*
G54D270*
X-715500Y-782500D03*
X-104500Y-19000D03*
G54D208*
X-576036Y-666238D03*
Y-703303D03*
Y-629174D03*
Y-592109D03*
X-32926Y-666238D03*
Y-703303D03*
Y-629174D03*
Y-592109D03*
G54D266*
X-47028Y-417321D03*
Y-312321D03*
Y-364821D03*
Y-259821D03*
G54D345*
X-709000Y-333550D03*
G54D337*
X-42553Y-427028D03*
Y-374528D03*
Y-322028D03*
Y-269528D03*
G54D319*
X-553792Y-674309D03*
Y-695232D03*
Y-711374D03*
Y-658167D03*
Y-621103D03*
Y-637245D03*
Y-584038D03*
Y-600180D03*
X-493556Y-674309D03*
X-496902D03*
X-500249D03*
X-503595D03*
X-506942D03*
X-510288D03*
X-513635D03*
X-516981D03*
X-520327D03*
X-523674D03*
X-527020D03*
X-530367D03*
X-533713D03*
X-537060D03*
X-540406D03*
X-543753D03*
X-547099D03*
X-550446D03*
X-493556Y-695232D03*
X-496902D03*
X-500249D03*
X-503595D03*
X-506942D03*
X-510288D03*
X-513635D03*
X-516981D03*
X-520327D03*
X-523674D03*
X-527020D03*
X-530367D03*
X-533713D03*
X-537060D03*
X-540406D03*
X-543753D03*
X-547099D03*
X-550446D03*
X-493556Y-711374D03*
X-496902D03*
X-500249D03*
X-503595D03*
X-506942D03*
X-510288D03*
X-513635D03*
X-516981D03*
X-520327D03*
X-523674D03*
X-527020D03*
X-530367D03*
X-533713D03*
X-537060D03*
X-540406D03*
X-543753D03*
X-547099D03*
X-550446D03*
X-493556Y-658167D03*
X-496902D03*
X-500249D03*
X-503595D03*
X-506942D03*
X-510288D03*
X-513635D03*
X-516981D03*
X-520327D03*
X-523674D03*
X-527020D03*
X-530367D03*
X-533713D03*
X-537060D03*
X-540406D03*
X-543753D03*
X-547099D03*
X-550446D03*
X-493556Y-621103D03*
X-496902D03*
X-500249D03*
X-503595D03*
X-506942D03*
X-510288D03*
X-513635D03*
X-516981D03*
X-520327D03*
X-523674D03*
X-527020D03*
X-530367D03*
X-533713D03*
X-537060D03*
X-540406D03*
X-543753D03*
X-547099D03*
X-550446D03*
X-493556Y-637245D03*
X-496902D03*
X-500249D03*
X-503595D03*
X-506942D03*
X-510288D03*
X-513635D03*
X-516981D03*
X-520327D03*
X-523674D03*
X-527020D03*
X-530367D03*
X-533713D03*
X-537060D03*
X-540406D03*
X-543753D03*
X-547099D03*
X-550446D03*
X-493556Y-584038D03*
X-496902D03*
X-500249D03*
X-503595D03*
X-506942D03*
X-510288D03*
X-513635D03*
X-516981D03*
X-520327D03*
X-523674D03*
X-527020D03*
X-530367D03*
X-533713D03*
X-537060D03*
X-540406D03*
X-543753D03*
X-547099D03*
X-550446D03*
X-493556Y-600180D03*
X-496902D03*
X-500249D03*
X-503595D03*
X-506942D03*
X-510288D03*
X-513635D03*
X-516981D03*
X-520327D03*
X-523674D03*
X-527020D03*
X-530367D03*
X-533713D03*
X-537060D03*
X-540406D03*
X-543753D03*
X-547099D03*
X-550446D03*
X-433320Y-674309D03*
X-436666D03*
X-440013D03*
X-443359D03*
X-446705D03*
X-450052D03*
X-453398D03*
X-456745D03*
X-460091D03*
X-463438D03*
X-466784D03*
X-470131D03*
X-473477D03*
X-476823D03*
X-480170D03*
X-483516D03*
X-486863D03*
X-490209D03*
X-433320Y-695232D03*
X-436666D03*
X-440013D03*
X-443359D03*
X-446705D03*
X-450052D03*
X-453398D03*
X-456745D03*
X-460091D03*
X-463438D03*
X-466784D03*
X-470131D03*
X-473477D03*
X-476823D03*
X-480170D03*
X-483516D03*
X-486863D03*
X-490209D03*
X-433320Y-711374D03*
X-436666D03*
X-440013D03*
X-443359D03*
X-446705D03*
X-450052D03*
X-453398D03*
X-456745D03*
X-460091D03*
X-463438D03*
X-466784D03*
X-470131D03*
X-473477D03*
X-476823D03*
X-480170D03*
X-483516D03*
X-486863D03*
X-490209D03*
X-433320Y-658167D03*
X-436666D03*
X-440013D03*
X-443359D03*
X-446705D03*
X-450052D03*
X-453398D03*
X-456745D03*
X-460091D03*
X-463438D03*
X-466784D03*
X-470131D03*
X-473477D03*
X-476823D03*
X-480170D03*
X-483516D03*
X-486863D03*
X-490209D03*
X-433320Y-621103D03*
X-436666D03*
X-440013D03*
X-443359D03*
X-446705D03*
X-450052D03*
X-453398D03*
X-456745D03*
X-460091D03*
X-463438D03*
X-466784D03*
X-470131D03*
X-473477D03*
X-476823D03*
X-480170D03*
X-483516D03*
X-486863D03*
X-490209D03*
X-433320Y-637245D03*
X-436666D03*
X-440013D03*
X-443359D03*
X-446705D03*
X-450052D03*
X-453398D03*
X-456745D03*
X-460091D03*
X-463438D03*
X-466784D03*
X-470131D03*
X-473477D03*
X-476823D03*
X-480170D03*
X-483516D03*
X-486863D03*
X-490209D03*
X-433320Y-584038D03*
X-436666D03*
X-440013D03*
X-443359D03*
X-446705D03*
X-450052D03*
X-453398D03*
X-456745D03*
X-460091D03*
X-463438D03*
X-466784D03*
X-470131D03*
X-473477D03*
X-476823D03*
X-480170D03*
X-483516D03*
X-486863D03*
X-490209D03*
X-433320Y-600180D03*
X-436666D03*
X-440013D03*
X-443359D03*
X-446705D03*
X-450052D03*
X-453398D03*
X-456745D03*
X-460091D03*
X-463438D03*
X-466784D03*
X-470131D03*
X-473477D03*
X-476823D03*
X-480170D03*
X-483516D03*
X-486863D03*
X-490209D03*
X-373083Y-674309D03*
X-376430D03*
X-379776D03*
X-383123D03*
X-386469D03*
X-389816D03*
X-393162D03*
X-396509D03*
X-399855D03*
X-403201D03*
X-406548D03*
X-409894D03*
X-413241D03*
X-416587D03*
X-419934D03*
X-423280D03*
X-426627D03*
X-429973D03*
X-373083Y-695232D03*
X-376430D03*
X-379776D03*
X-383123D03*
X-386469D03*
X-389816D03*
X-393162D03*
X-396509D03*
X-399855D03*
X-403201D03*
X-406548D03*
X-409894D03*
X-413241D03*
X-416587D03*
X-419934D03*
X-423280D03*
X-426627D03*
X-429973D03*
X-373083Y-711374D03*
X-376430D03*
X-379776D03*
X-383123D03*
X-386469D03*
X-389816D03*
X-393162D03*
X-396509D03*
X-399855D03*
X-403201D03*
X-406548D03*
X-409894D03*
X-413241D03*
X-416587D03*
X-419934D03*
X-423280D03*
X-426627D03*
X-429973D03*
X-373083Y-658167D03*
X-376430D03*
X-379776D03*
X-383123D03*
X-386469D03*
X-389816D03*
X-393162D03*
X-396509D03*
X-399855D03*
X-403201D03*
X-406548D03*
X-409894D03*
X-413241D03*
X-416587D03*
X-419934D03*
X-423280D03*
X-426627D03*
X-429973D03*
X-373083Y-621103D03*
X-376430D03*
X-379776D03*
X-383123D03*
X-386469D03*
X-389816D03*
X-393162D03*
X-396509D03*
X-399855D03*
X-403201D03*
X-406548D03*
X-409894D03*
X-413241D03*
X-416587D03*
X-419934D03*
X-423280D03*
X-426627D03*
X-429973D03*
X-373083Y-637245D03*
X-376430D03*
X-379776D03*
X-383123D03*
X-386469D03*
X-389816D03*
X-393162D03*
X-396509D03*
X-399855D03*
X-403201D03*
X-406548D03*
X-409894D03*
X-413241D03*
X-416587D03*
X-419934D03*
X-423280D03*
X-426627D03*
X-429973D03*
X-373083Y-584038D03*
X-376430D03*
X-379776D03*
X-383123D03*
X-386469D03*
X-389816D03*
X-393162D03*
X-396509D03*
X-399855D03*
X-403201D03*
X-406548D03*
X-409894D03*
X-413241D03*
X-416587D03*
X-419934D03*
X-423280D03*
X-426627D03*
X-429973D03*
X-373083Y-600180D03*
X-376430D03*
X-379776D03*
X-383123D03*
X-386469D03*
X-389816D03*
X-393162D03*
X-396509D03*
X-399855D03*
X-403201D03*
X-406548D03*
X-409894D03*
X-413241D03*
X-416587D03*
X-419934D03*
X-423280D03*
X-426627D03*
X-429973D03*
X-326233Y-674309D03*
X-329579D03*
X-332926D03*
X-336272D03*
X-339619D03*
X-342965D03*
X-346312D03*
X-349658D03*
X-353005D03*
X-356351D03*
X-359697D03*
X-363044D03*
X-366390D03*
X-369737D03*
X-326233Y-695232D03*
X-329579D03*
X-332926D03*
X-336272D03*
X-339619D03*
X-342965D03*
X-346312D03*
X-349658D03*
X-353005D03*
X-356351D03*
X-359697D03*
X-363044D03*
X-366390D03*
X-369737D03*
X-326233Y-711374D03*
X-329579D03*
X-332926D03*
X-336272D03*
X-339619D03*
X-342965D03*
X-346312D03*
X-349658D03*
X-353005D03*
X-356351D03*
X-359697D03*
X-363044D03*
X-366390D03*
X-369737D03*
X-326233Y-658167D03*
X-329579D03*
X-332926D03*
X-336272D03*
X-339619D03*
X-342965D03*
X-346312D03*
X-349658D03*
X-353005D03*
X-356351D03*
X-359697D03*
X-363044D03*
X-366390D03*
X-369737D03*
X-326233Y-621103D03*
X-329579D03*
X-332926D03*
X-336272D03*
X-339619D03*
X-342965D03*
X-346312D03*
X-349658D03*
X-353005D03*
X-356351D03*
X-359697D03*
X-363044D03*
X-366390D03*
X-369737D03*
X-326233Y-637245D03*
X-329579D03*
X-332926D03*
X-336272D03*
X-339619D03*
X-342965D03*
X-346312D03*
X-349658D03*
X-353005D03*
X-356351D03*
X-359697D03*
X-363044D03*
X-366390D03*
X-369737D03*
X-326233Y-584038D03*
X-329579D03*
X-332926D03*
X-336272D03*
X-339619D03*
X-342965D03*
X-346312D03*
X-349658D03*
X-353005D03*
X-356351D03*
X-359697D03*
X-363044D03*
X-366390D03*
X-369737D03*
X-326233Y-600180D03*
X-329579D03*
X-332926D03*
X-336272D03*
X-339619D03*
X-342965D03*
X-346312D03*
X-349658D03*
X-353005D03*
X-356351D03*
X-359697D03*
X-363044D03*
X-366390D03*
X-369737D03*
X-252611Y-674309D03*
X-255957D03*
X-259304D03*
X-262650D03*
X-265997D03*
X-269343D03*
X-272690D03*
X-276036D03*
X-279383D03*
X-282729D03*
X-286075D03*
X-289422D03*
X-292768D03*
X-296115D03*
X-299461D03*
X-302808D03*
X-252611Y-695232D03*
X-255957D03*
X-259304D03*
X-262650D03*
X-265997D03*
X-269343D03*
X-272690D03*
X-276036D03*
X-279383D03*
X-282729D03*
X-286075D03*
X-289422D03*
X-292768D03*
X-296115D03*
X-299461D03*
X-302808D03*
X-252611Y-711374D03*
X-255957D03*
X-259304D03*
X-262650D03*
X-265997D03*
X-269343D03*
X-272690D03*
X-276036D03*
X-279383D03*
X-282729D03*
X-286075D03*
X-289422D03*
X-292768D03*
X-296115D03*
X-299461D03*
X-302808D03*
X-252611Y-658167D03*
X-255957D03*
X-259304D03*
X-262650D03*
X-265997D03*
X-269343D03*
X-272690D03*
X-276036D03*
X-279383D03*
X-282729D03*
X-286075D03*
X-289422D03*
X-292768D03*
X-296115D03*
X-299461D03*
X-302808D03*
X-252611Y-621103D03*
X-255957D03*
X-259304D03*
X-262650D03*
X-265997D03*
X-269343D03*
X-272690D03*
X-276036D03*
X-279383D03*
X-282729D03*
X-286075D03*
X-289422D03*
X-292768D03*
X-296115D03*
X-299461D03*
X-302808D03*
X-252611Y-637245D03*
X-255957D03*
X-259304D03*
X-262650D03*
X-265997D03*
X-269343D03*
X-272690D03*
X-276036D03*
X-279383D03*
X-282729D03*
X-286075D03*
X-289422D03*
X-292768D03*
X-296115D03*
X-299461D03*
X-302808D03*
X-252611Y-584038D03*
X-255957D03*
X-259304D03*
X-262650D03*
X-265997D03*
X-269343D03*
X-272690D03*
X-276036D03*
X-279383D03*
X-282729D03*
X-286075D03*
X-289422D03*
X-292768D03*
X-296115D03*
X-299461D03*
X-302808D03*
X-252611Y-600180D03*
X-255957D03*
X-259304D03*
X-262650D03*
X-265997D03*
X-269343D03*
X-272690D03*
X-276036D03*
X-279383D03*
X-282729D03*
X-286075D03*
X-289422D03*
X-292768D03*
X-296115D03*
X-299461D03*
X-302808D03*
X-192375Y-674309D03*
X-195721D03*
X-199068D03*
X-202414D03*
X-205761D03*
X-209107D03*
X-212453D03*
X-215800D03*
X-219146D03*
X-222493D03*
X-225839D03*
X-229186D03*
X-232532D03*
X-235879D03*
X-239225D03*
X-242572D03*
X-245918D03*
X-249265D03*
X-192375Y-695232D03*
X-195721D03*
X-199068D03*
X-202414D03*
X-205761D03*
X-209107D03*
X-212453D03*
X-215800D03*
X-219146D03*
X-222493D03*
X-225839D03*
X-229186D03*
X-232532D03*
X-235879D03*
X-239225D03*
X-242572D03*
X-245918D03*
X-249265D03*
X-192375Y-711374D03*
X-195721D03*
X-199068D03*
X-202414D03*
X-205761D03*
X-209107D03*
X-212453D03*
X-215800D03*
X-219146D03*
X-222493D03*
X-225839D03*
X-229186D03*
X-232532D03*
X-235879D03*
X-239225D03*
X-242572D03*
X-245918D03*
X-249265D03*
X-192375Y-658167D03*
X-195721D03*
X-199068D03*
X-202414D03*
X-205761D03*
X-209107D03*
X-212453D03*
X-215800D03*
X-219146D03*
X-222493D03*
X-225839D03*
X-229186D03*
X-232532D03*
X-235879D03*
X-239225D03*
X-242572D03*
X-245918D03*
X-249265D03*
X-192375Y-621103D03*
X-195721D03*
X-199068D03*
X-202414D03*
X-205761D03*
X-209107D03*
X-212453D03*
X-215800D03*
X-219146D03*
X-222493D03*
X-225839D03*
X-229186D03*
X-232532D03*
X-235879D03*
X-239225D03*
X-242572D03*
X-245918D03*
X-249265D03*
X-192375Y-637245D03*
X-195721D03*
X-199068D03*
X-202414D03*
X-205761D03*
X-209107D03*
X-212453D03*
X-215800D03*
X-219146D03*
X-222493D03*
X-225839D03*
X-229186D03*
X-232532D03*
X-235879D03*
X-239225D03*
X-242572D03*
X-245918D03*
X-249265D03*
X-192375Y-584038D03*
X-195721D03*
X-199068D03*
X-202414D03*
X-205761D03*
X-209107D03*
X-212453D03*
X-215800D03*
X-219146D03*
X-222493D03*
X-225839D03*
X-229186D03*
X-232532D03*
X-235879D03*
X-239225D03*
X-242572D03*
X-245918D03*
X-249265D03*
X-192375Y-600180D03*
X-195721D03*
X-199068D03*
X-202414D03*
X-205761D03*
X-209107D03*
X-212453D03*
X-215800D03*
X-219146D03*
X-222493D03*
X-225839D03*
X-229186D03*
X-232532D03*
X-235879D03*
X-239225D03*
X-242572D03*
X-245918D03*
X-249265D03*
X-132139Y-674309D03*
X-135485D03*
X-138831D03*
X-142178D03*
X-145524D03*
X-148871D03*
X-152217D03*
X-155564D03*
X-158910D03*
X-162257D03*
X-165603D03*
X-168949D03*
X-172296D03*
X-175642D03*
X-178989D03*
X-182335D03*
X-185682D03*
X-189028D03*
X-132139Y-695232D03*
X-135485D03*
X-138831D03*
X-142178D03*
X-145524D03*
X-148871D03*
X-152217D03*
X-155564D03*
X-158910D03*
X-162257D03*
X-165603D03*
X-168949D03*
X-172296D03*
X-175642D03*
X-178989D03*
X-182335D03*
X-185682D03*
X-189028D03*
X-132139Y-711374D03*
X-135485D03*
X-138831D03*
X-142178D03*
X-145524D03*
X-148871D03*
X-152217D03*
X-155564D03*
X-158910D03*
X-162257D03*
X-165603D03*
X-168949D03*
X-172296D03*
X-175642D03*
X-178989D03*
X-182335D03*
X-185682D03*
X-189028D03*
X-132139Y-658167D03*
X-135485D03*
X-138831D03*
X-142178D03*
X-145524D03*
X-148871D03*
X-152217D03*
X-155564D03*
X-158910D03*
X-162257D03*
X-165603D03*
X-168949D03*
X-172296D03*
X-175642D03*
X-178989D03*
X-182335D03*
X-185682D03*
X-189028D03*
X-132139Y-621103D03*
X-135485D03*
X-138831D03*
X-142178D03*
X-145524D03*
X-148871D03*
X-152217D03*
X-155564D03*
X-158910D03*
X-162257D03*
X-165603D03*
X-168949D03*
X-172296D03*
X-175642D03*
X-178989D03*
X-182335D03*
X-185682D03*
X-189028D03*
X-132139Y-637245D03*
X-135485D03*
X-138831D03*
X-142178D03*
X-145524D03*
X-148871D03*
X-152217D03*
X-155564D03*
X-158910D03*
X-162257D03*
X-165603D03*
X-168949D03*
X-172296D03*
X-175642D03*
X-178989D03*
X-182335D03*
X-185682D03*
X-189028D03*
X-132139Y-584038D03*
X-135485D03*
X-138831D03*
X-142178D03*
X-145524D03*
X-148871D03*
X-152217D03*
X-155564D03*
X-158910D03*
X-162257D03*
X-165603D03*
X-168949D03*
X-172296D03*
X-175642D03*
X-178989D03*
X-182335D03*
X-185682D03*
X-189028D03*
X-132139Y-600180D03*
X-135485D03*
X-138831D03*
X-142178D03*
X-145524D03*
X-148871D03*
X-152217D03*
X-155564D03*
X-158910D03*
X-162257D03*
X-165603D03*
X-168949D03*
X-172296D03*
X-175642D03*
X-178989D03*
X-182335D03*
X-185682D03*
X-189028D03*
X-71902Y-674309D03*
X-75249D03*
X-78595D03*
X-81942D03*
X-85288D03*
X-88635D03*
X-91981D03*
X-95327D03*
X-98674D03*
X-102020D03*
X-105367D03*
X-108713D03*
X-112060D03*
X-115406D03*
X-118753D03*
X-122099D03*
X-125446D03*
X-128792D03*
X-71902Y-695232D03*
X-75249D03*
X-78595D03*
X-81942D03*
X-85288D03*
X-88635D03*
X-91981D03*
X-95327D03*
X-98674D03*
X-102020D03*
X-105367D03*
X-108713D03*
X-112060D03*
X-115406D03*
X-118753D03*
X-122099D03*
X-125446D03*
X-128792D03*
X-71902Y-711374D03*
X-75249D03*
X-78595D03*
X-81942D03*
X-85288D03*
X-88635D03*
X-91981D03*
X-95327D03*
X-98674D03*
X-102020D03*
X-105367D03*
X-108713D03*
X-112060D03*
X-115406D03*
X-118753D03*
X-122099D03*
X-125446D03*
X-128792D03*
X-71902Y-658167D03*
X-75249D03*
X-78595D03*
X-81942D03*
X-85288D03*
X-88635D03*
X-91981D03*
X-95327D03*
X-98674D03*
X-102020D03*
X-105367D03*
X-108713D03*
X-112060D03*
X-115406D03*
X-118753D03*
X-122099D03*
X-125446D03*
X-128792D03*
X-71902Y-621103D03*
X-75249D03*
X-78595D03*
X-81942D03*
X-85288D03*
X-88635D03*
X-91981D03*
X-95327D03*
X-98674D03*
X-102020D03*
X-105367D03*
X-108713D03*
X-112060D03*
X-115406D03*
X-118753D03*
X-122099D03*
X-125446D03*
X-128792D03*
X-71902Y-637245D03*
X-75249D03*
X-78595D03*
X-81942D03*
X-85288D03*
X-88635D03*
X-91981D03*
X-95327D03*
X-98674D03*
X-102020D03*
X-105367D03*
X-108713D03*
X-112060D03*
X-115406D03*
X-118753D03*
X-122099D03*
X-125446D03*
X-128792D03*
X-71902Y-584038D03*
X-75249D03*
X-78595D03*
X-81942D03*
X-85288D03*
X-88635D03*
X-91981D03*
X-95327D03*
X-98674D03*
X-102020D03*
X-105367D03*
X-108713D03*
X-112060D03*
X-115406D03*
X-118753D03*
X-122099D03*
X-125446D03*
X-128792D03*
X-71902Y-600180D03*
X-75249D03*
X-78595D03*
X-81942D03*
X-85288D03*
X-88635D03*
X-91981D03*
X-95327D03*
X-98674D03*
X-102020D03*
X-105367D03*
X-108713D03*
X-112060D03*
X-115406D03*
X-118753D03*
X-122099D03*
X-125446D03*
X-128792D03*
X-55170Y-674309D03*
X-58516D03*
X-61863D03*
X-65209D03*
X-68556D03*
X-55170Y-695232D03*
X-58516D03*
X-61863D03*
X-65209D03*
X-68556D03*
X-55170Y-711374D03*
X-58516D03*
X-61863D03*
X-65209D03*
X-68556D03*
X-55170Y-658167D03*
X-58516D03*
X-61863D03*
X-65209D03*
X-68556D03*
X-55170Y-621103D03*
X-58516D03*
X-61863D03*
X-65209D03*
X-68556D03*
X-55170Y-637245D03*
X-58516D03*
X-61863D03*
X-65209D03*
X-68556D03*
X-55170Y-584038D03*
X-58516D03*
X-61863D03*
X-65209D03*
X-68556D03*
X-55170Y-600180D03*
X-58516D03*
X-61863D03*
X-65209D03*
X-68556D03*
G54D262*
X-778248Y-466811D03*
X-696752D03*
X-569748Y-65689D03*
X-488252D03*
G54D201*
X-634709Y-383812D03*
X-598882D03*
G54D365*
X-557109Y28320D03*
X-554465Y30964D03*
X-551820Y33609D03*
X-558891Y40680D03*
X-561536Y38036D03*
X-564180Y35391D03*
G54D217*
X-614000Y-383418D03*
Y-95402D03*
G54D272*
X-709000Y-337450D03*
G54D94*
X-551000Y760D03*
Y4500D03*
Y8240D03*
X-561000D03*
Y4500D03*
Y760D03*
X-493500Y-792740D03*
X-503500D03*
X-493500Y-789000D03*
Y-785260D03*
X-503500D03*
Y-789000D03*
X-199900Y-27460D03*
Y-31200D03*
Y-34940D03*
X-189900D03*
Y-31200D03*
Y-27460D03*
G54D202*
X-634709Y-94063D03*
X-598882D03*
G54D276*
X-599500Y34500D03*
G54D11*
X-935600Y-820600D02*
G03X-925600Y-830600I10000D01*
X-935600Y-820600D02*
G01Y120000D01*
X-925600Y130000D02*
G03X-935600Y120000J-10000D01*
X-925600Y130000D02*
G01X15000D01*
X25000Y120000D02*
G03X15000Y130000I-10000D01*
X25000Y120000D02*
G01Y-820600D01*
X15000Y-830600D02*
G03X25000Y-820600J10000D01*
X15000Y-830600D02*
G01X-925600D01*
M02*
